<?xml version="1.0" encoding="UTF-8" standalone="no"?>
<!DOCTYPE svg PUBLIC "-//W3C//DTD SVG 1.1//EN"
 "http://www.w3.org/Graphics/SVG/1.1/DTD/svg11.dtd">
<!-- Generated by graphviz version 2.38.0 (20140413.2041)
 -->
<!-- Title: C:/Users/micho/Desktop/mt_engine/mt/Camera.cpp Pages: 1 -->
<!--zoomable 442 -->
<svg id="main" version="1.1" xmlns="http://www.w3.org/2000/svg" xmlns:xlink="http://www.w3.org/1999/xlink" xml:space="preserve" onload="init(evt)">
<style type="text/css"><![CDATA[
.edge:hover path { stroke: red; }
.edge:hover polygon { stroke: red; fill: red; }
]]></style>
<script type="text/javascript"><![CDATA[
var edges = document.getElementsByTagName('g');
if (edges && edges.length) {
  for (var i=0;i<edges.length;i++) {
    if (edges[i].id.substr(0,4)=='edge') {
      edges[i].setAttribute('class','edge');
    }
  }
}
]]></script>
        <defs>
                <circle id="rim" cx="0" cy="0" r="7"/>
                <circle id="rim2" cx="0" cy="0" r="3.5"/>
                <g id="zoomPlus">
                        <use xlink:href="#rim" fill="#404040">
                                <set attributeName="fill" to="#808080" begin="zoomplus.mouseover" end="zoomplus.mouseout"/>
                        </use>
                        <path d="M-4,0h8M0,-4v8" fill="none" stroke="white" stroke-width="1.5" pointer-events="none"/>
                </g>
                <g id="zoomMin">
                        <use xlink:href="#rim" fill="#404040">
                                <set attributeName="fill" to="#808080" begin="zoomminus.mouseover" end="zoomminus.mouseout"/>
                        </use>
                        <path d="M-4,0h8" fill="none" stroke="white" stroke-width="1.5" pointer-events="none"/>
                </g>
                <g id="dirArrow">
                        <path fill="none" stroke="white" stroke-width="1.5" d="M0,-3.0v7 M-2.5,-0.5L0,-3.0L2.5,-0.5"/>
                </g>
               <g id="resetDef">
                       <use xlink:href="#rim2" fill="#404040">
                               <set attributeName="fill" to="#808080" begin="reset.mouseover" end="reset.mouseout"/>
                       </use>
               </g>
        </defs>

<script type="text/javascript">
var viewWidth = 2360;
var viewHeight = 442;
var sectionId = 'dynsection-0';
</script>
<script xlink:href="svgpan.js"/>
<svg id="graph" class="graph">
<g id="viewport">
<title>C:/Users/micho/Desktop/mt_engine/mt/Camera.cpp</title>
<!-- Node1 -->
<g id="node1" class="node"><title>Node1</title>
<polygon fill="#bfbfbf" stroke="black" points="1573.5,-403.5 1573.5,-433.5 1707.5,-433.5 1707.5,-403.5 1573.5,-403.5"/>
<text text-anchor="start" x="1581.5" y="-421.5" font-family="Helvetica,sans-Serif" font-size="10.00">C:/Users/micho/Desktop</text>
<text text-anchor="middle" x="1640.5" y="-410.5" font-family="Helvetica,sans-Serif" font-size="10.00">/mt_engine/mt/Camera.cpp</text>
</g>
<!-- Node2 -->
<g id="node2" class="node"><title>Node2</title>
<g id="a_node2"><a xlink:href="_camera_8hpp.html" target="_top" xlink:title="../mt/Camera.hpp">
<polygon fill="none" stroke="black" points="1500.5,-230 1500.5,-249 1592.5,-249 1592.5,-230 1500.5,-230"/>
<text text-anchor="middle" x="1546.5" y="-237" font-family="Helvetica,sans-Serif" font-size="10.00">../mt/Camera.hpp</text>
</a>
</g>
</g>
<!-- Node1&#45;&gt;Node2 -->
<g id="edge1" class="edge"><title>Node1&#45;&gt;Node2</title>
<path fill="none" stroke="midnightblue" d="M1632.97,-403.315C1616,-371.358 1574.8,-293.781 1556.06,-258.501"/>
<polygon fill="midnightblue" stroke="midnightblue" points="1558.99,-256.564 1551.21,-249.374 1552.81,-259.848 1558.99,-256.564"/>
</g>
<!-- Node43 -->
<g id="node43" class="node"><title>Node43</title>
<g id="a_node43"><a xlink:href="engine_8hpp.html" target="_top" xlink:title="../mt/engine.hpp">
<polygon fill="none" stroke="black" points="1646,-347.5 1646,-366.5 1733,-366.5 1733,-347.5 1646,-347.5"/>
<text text-anchor="middle" x="1689.5" y="-354.5" font-family="Helvetica,sans-Serif" font-size="10.00">../mt/engine.hpp</text>
</a>
</g>
</g>
<!-- Node1&#45;&gt;Node43 -->
<g id="edge51" class="edge"><title>Node1&#45;&gt;Node43</title>
<path fill="none" stroke="midnightblue" d="M1652.11,-403.399C1659.23,-394.753 1668.38,-383.642 1675.85,-374.576"/>
<polygon fill="midnightblue" stroke="midnightblue" points="1678.71,-376.602 1682.37,-366.658 1673.31,-372.152 1678.71,-376.602"/>
</g>
<!-- Node3 -->
<g id="node3" class="node"><title>Node3</title>
<g id="a_node3"><a xlink:href="utility_8hpp.html" target="_top" xlink:title="../mt/utility.hpp">
<polygon fill="none" stroke="black" points="1760.5,-112.5 1760.5,-131.5 1842.5,-131.5 1842.5,-112.5 1760.5,-112.5"/>
<text text-anchor="middle" x="1801.5" y="-119.5" font-family="Helvetica,sans-Serif" font-size="10.00">../mt/utility.hpp</text>
</a>
</g>
</g>
<!-- Node2&#45;&gt;Node3 -->
<g id="edge2" class="edge"><title>Node2&#45;&gt;Node3</title>
<path fill="none" stroke="midnightblue" d="M1577.2,-229.978C1616.85,-218.768 1683.52,-199.184 1706.5,-188 1721.8,-180.556 1758.76,-154.265 1781.81,-137.488"/>
<polygon fill="midnightblue" stroke="midnightblue" points="1783.88,-140.309 1789.89,-131.582 1779.75,-134.658 1783.88,-140.309"/>
</g>
<!-- Node23 -->
<g id="node23" class="node"><title>Node23</title>
<g id="a_node23"><a xlink:href="d3d_util_8h.html" target="_top" xlink:title="d3dUtil.h">
<polygon fill="none" stroke="black" points="938,-168.5 938,-187.5 993,-187.5 993,-168.5 938,-168.5"/>
<text text-anchor="middle" x="965.5" y="-175.5" font-family="Helvetica,sans-Serif" font-size="10.00">d3dUtil.h</text>
</a>
</g>
</g>
<!-- Node2&#45;&gt;Node23 -->
<g id="edge22" class="edge"><title>Node2&#45;&gt;Node23</title>
<path fill="none" stroke="midnightblue" d="M1500.42,-233.781C1388.83,-222.353 1105.71,-193.359 1003.25,-182.866"/>
<polygon fill="midnightblue" stroke="midnightblue" points="1003.37,-179.36 993.064,-181.823 1002.66,-186.323 1003.37,-179.36"/>
</g>
<!-- Node4 -->
<g id="node4" class="node"><title>Node4</title>
<polygon fill="none" stroke="#bfbfbf" points="1330.5,-56.5 1330.5,-75.5 1386.5,-75.5 1386.5,-56.5 1330.5,-56.5"/>
<text text-anchor="middle" x="1358.5" y="-63.5" font-family="Helvetica,sans-Serif" font-size="10.00">algorithm</text>
</g>
<!-- Node3&#45;&gt;Node4 -->
<g id="edge3" class="edge"><title>Node3&#45;&gt;Node4</title>
<path fill="none" stroke="midnightblue" d="M1760.34,-118.191C1688.45,-112.906 1535.25,-99.9578 1396.66,-75.9989"/>
<polygon fill="midnightblue" stroke="midnightblue" points="1397.16,-72.5336 1386.7,-74.2548 1395.95,-79.4285 1397.16,-72.5336"/>
</g>
<!-- Node5 -->
<g id="node5" class="node"><title>Node5</title>
<polygon fill="none" stroke="#bfbfbf" points="2244.5,-56.5 2244.5,-75.5 2290.5,-75.5 2290.5,-56.5 2244.5,-56.5"/>
<text text-anchor="middle" x="2267.5" y="-63.5" font-family="Helvetica,sans-Serif" font-size="10.00">chrono</text>
</g>
<!-- Node3&#45;&gt;Node5 -->
<g id="edge4" class="edge"><title>Node3&#45;&gt;Node5</title>
<path fill="none" stroke="midnightblue" d="M1842.53,-119.085C1918.21,-115.049 2084.93,-103.809 2233.95,-75.996"/>
<polygon fill="midnightblue" stroke="midnightblue" points="2235.02,-79.3554 2244.19,-74.0524 2233.71,-72.4781 2235.02,-79.3554"/>
</g>
<!-- Node6 -->
<g id="node6" class="node"><title>Node6</title>
<polygon fill="none" stroke="#bfbfbf" points="2182.5,-56.5 2182.5,-75.5 2226.5,-75.5 2226.5,-56.5 2182.5,-56.5"/>
<text text-anchor="middle" x="2204.5" y="-63.5" font-family="Helvetica,sans-Serif" font-size="10.00">cmath</text>
</g>
<!-- Node3&#45;&gt;Node6 -->
<g id="edge5" class="edge"><title>Node3&#45;&gt;Node6</title>
<path fill="none" stroke="midnightblue" d="M1842.58,-118.219C1909.71,-113.201 2047.13,-100.947 2172.13,-75.9823"/>
<polygon fill="midnightblue" stroke="midnightblue" points="2173.15,-79.3461 2182.26,-73.9259 2171.76,-72.4861 2173.15,-79.3461"/>
</g>
<!-- Node7 -->
<g id="node7" class="node"><title>Node7</title>
<polygon fill="none" stroke="#bfbfbf" points="1580,-56.5 1580,-75.5 1629,-75.5 1629,-56.5 1580,-56.5"/>
<text text-anchor="middle" x="1604.5" y="-63.5" font-family="Helvetica,sans-Serif" font-size="10.00">cstdarg</text>
</g>
<!-- Node3&#45;&gt;Node7 -->
<g id="edge6" class="edge"><title>Node3&#45;&gt;Node7</title>
<path fill="none" stroke="midnightblue" d="M1770.28,-112.444C1734.48,-102.63 1675.97,-86.5905 1638.89,-76.4261"/>
<polygon fill="midnightblue" stroke="midnightblue" points="1639.6,-72.9933 1629.03,-73.7251 1637.75,-79.7442 1639.6,-72.9933"/>
</g>
<!-- Node8 -->
<g id="node8" class="node"><title>Node8</title>
<polygon fill="none" stroke="#bfbfbf" points="1647,-56.5 1647,-75.5 1690,-75.5 1690,-56.5 1647,-56.5"/>
<text text-anchor="middle" x="1668.5" y="-63.5" font-family="Helvetica,sans-Serif" font-size="10.00">deque</text>
</g>
<!-- Node3&#45;&gt;Node8 -->
<g id="edge7" class="edge"><title>Node3&#45;&gt;Node8</title>
<path fill="none" stroke="midnightblue" d="M1780.43,-112.444C1758.44,-103.517 1723.77,-89.4387 1698.84,-79.3168"/>
<polygon fill="midnightblue" stroke="midnightblue" points="1700.06,-76.0355 1689.48,-75.5164 1697.42,-82.5213 1700.06,-76.0355"/>
</g>
<!-- Node9 -->
<g id="node9" class="node"><title>Node9</title>
<polygon fill="none" stroke="#bfbfbf" points="1708,-56.5 1708,-75.5 1769,-75.5 1769,-56.5 1708,-56.5"/>
<text text-anchor="middle" x="1738.5" y="-63.5" font-family="Helvetica,sans-Serif" font-size="10.00">filesystem</text>
</g>
<!-- Node3&#45;&gt;Node9 -->
<g id="edge8" class="edge"><title>Node3&#45;&gt;Node9</title>
<path fill="none" stroke="midnightblue" d="M1791.38,-112.324C1781.97,-104.263 1767.76,-92.0765 1756.43,-82.3695"/>
<polygon fill="midnightblue" stroke="midnightblue" points="1758.68,-79.6844 1748.81,-75.8339 1754.12,-84.9993 1758.68,-79.6844"/>
</g>
<!-- Node10 -->
<g id="node10" class="node"><title>Node10</title>
<polygon fill="none" stroke="#bfbfbf" points="1787,-56.5 1787,-75.5 1816,-75.5 1816,-56.5 1787,-56.5"/>
<text text-anchor="middle" x="1801.5" y="-63.5" font-family="Helvetica,sans-Serif" font-size="10.00">list</text>
</g>
<!-- Node3&#45;&gt;Node10 -->
<g id="edge9" class="edge"><title>Node3&#45;&gt;Node10</title>
<path fill="none" stroke="midnightblue" d="M1801.5,-112.083C1801.5,-105.006 1801.5,-94.8611 1801.5,-85.9865"/>
<polygon fill="midnightblue" stroke="midnightblue" points="1805,-85.751 1801.5,-75.7511 1798,-85.7511 1805,-85.751"/>
</g>
<!-- Node11 -->
<g id="node11" class="node"><title>Node11</title>
<polygon fill="none" stroke="#bfbfbf" points="1834,-56.5 1834,-75.5 1869,-75.5 1869,-56.5 1834,-56.5"/>
<text text-anchor="middle" x="1851.5" y="-63.5" font-family="Helvetica,sans-Serif" font-size="10.00">map</text>
</g>
<!-- Node3&#45;&gt;Node11 -->
<g id="edge10" class="edge"><title>Node3&#45;&gt;Node11</title>
<path fill="none" stroke="midnightblue" d="M1809.76,-112.083C1816.96,-104.298 1827.61,-92.8015 1836.35,-83.3665"/>
<polygon fill="midnightblue" stroke="midnightblue" points="1839.17,-85.4666 1843.4,-75.7511 1834.03,-80.7108 1839.17,-85.4666"/>
</g>
<!-- Node12 -->
<g id="node12" class="node"><title>Node12</title>
<polygon fill="none" stroke="#bfbfbf" points="2309,-56.5 2309,-75.5 2352,-75.5 2352,-56.5 2309,-56.5"/>
<text text-anchor="middle" x="2330.5" y="-63.5" font-family="Helvetica,sans-Serif" font-size="10.00">queue</text>
</g>
<!-- Node3&#45;&gt;Node12 -->
<g id="edge11" class="edge"><title>Node3&#45;&gt;Node12</title>
<path fill="none" stroke="midnightblue" d="M1842.53,-119.959C1926.58,-117.254 2124.35,-107.956 2299.06,-75.6868"/>
<polygon fill="midnightblue" stroke="midnightblue" points="2299.77,-79.1165 2308.95,-73.8318 2298.47,-72.2366 2299.77,-79.1165"/>
</g>
<!-- Node13 -->
<g id="node13" class="node"><title>Node13</title>
<polygon fill="none" stroke="#bfbfbf" points="1887,-56.5 1887,-75.5 1922,-75.5 1922,-56.5 1887,-56.5"/>
<text text-anchor="middle" x="1904.5" y="-63.5" font-family="Helvetica,sans-Serif" font-size="10.00">ratio</text>
</g>
<!-- Node3&#45;&gt;Node13 -->
<g id="edge12" class="edge"><title>Node3&#45;&gt;Node13</title>
<path fill="none" stroke="midnightblue" d="M1818.05,-112.324C1834.49,-103.703 1859.93,-90.3643 1878.97,-80.3855"/>
<polygon fill="midnightblue" stroke="midnightblue" points="1880.76,-83.3977 1887.99,-75.6545 1877.51,-77.198 1880.76,-83.3977"/>
</g>
<!-- Node14 -->
<g id="node14" class="node"><title>Node14</title>
<polygon fill="none" stroke="#bfbfbf" points="1940.5,-56.5 1940.5,-75.5 1970.5,-75.5 1970.5,-56.5 1940.5,-56.5"/>
<text text-anchor="middle" x="1955.5" y="-63.5" font-family="Helvetica,sans-Serif" font-size="10.00">set</text>
</g>
<!-- Node3&#45;&gt;Node14 -->
<g id="edge13" class="edge"><title>Node3&#45;&gt;Node14</title>
<path fill="none" stroke="midnightblue" d="M1826.98,-112.396C1851.39,-104.104 1889.49,-91.0437 1930.85,-76.1752"/>
<polygon fill="midnightblue" stroke="midnightblue" points="1932.07,-79.457 1940.29,-72.7719 1929.69,-72.8721 1932.07,-79.457"/>
</g>
<!-- Node15 -->
<g id="node15" class="node"><title>Node15</title>
<polygon fill="none" stroke="#bfbfbf" points="1521,-56.5 1521,-75.5 1562,-75.5 1562,-56.5 1521,-56.5"/>
<text text-anchor="middle" x="1541.5" y="-63.5" font-family="Helvetica,sans-Serif" font-size="10.00">string</text>
</g>
<!-- Node3&#45;&gt;Node15 -->
<g id="edge14" class="edge"><title>Node3&#45;&gt;Node15</title>
<path fill="none" stroke="midnightblue" d="M1760.1,-114.163C1715.92,-106.589 1643.72,-93.4111 1572.17,-75.9564"/>
<polygon fill="midnightblue" stroke="midnightblue" points="1572.63,-72.4645 1562.08,-73.4652 1570.95,-79.2604 1572.63,-72.4645"/>
</g>
<!-- Node16 -->
<g id="node16" class="node"><title>Node16</title>
<polygon fill="none" stroke="#bfbfbf" points="1988.5,-56.5 1988.5,-75.5 2050.5,-75.5 2050.5,-56.5 1988.5,-56.5"/>
<text text-anchor="middle" x="2019.5" y="-63.5" font-family="Helvetica,sans-Serif" font-size="10.00">type_traits</text>
</g>
<!-- Node3&#45;&gt;Node16 -->
<g id="edge15" class="edge"><title>Node3&#45;&gt;Node16</title>
<path fill="none" stroke="midnightblue" d="M1836.04,-112.444C1874.75,-102.855 1937.46,-87.3223 1978.59,-77.1339"/>
<polygon fill="midnightblue" stroke="midnightblue" points="1979.43,-80.5308 1988.3,-74.729 1977.75,-73.7362 1979.43,-80.5308"/>
</g>
<!-- Node17 -->
<g id="node17" class="node"><title>Node17</title>
<polygon fill="none" stroke="#bfbfbf" points="2068.5,-56.5 2068.5,-75.5 2106.5,-75.5 2106.5,-56.5 2068.5,-56.5"/>
<text text-anchor="middle" x="2087.5" y="-63.5" font-family="Helvetica,sans-Serif" font-size="10.00">tuple</text>
</g>
<!-- Node3&#45;&gt;Node17 -->
<g id="edge16" class="edge"><title>Node3&#45;&gt;Node17</title>
<path fill="none" stroke="midnightblue" d="M1842.53,-115.632C1891.73,-108.802 1976.82,-95.7465 2058.39,-75.9928"/>
<polygon fill="midnightblue" stroke="midnightblue" points="2059.45,-79.338 2068.32,-73.5506 2057.77,-72.5406 2059.45,-79.338"/>
</g>
<!-- Node18 -->
<g id="node18" class="node"><title>Node18</title>
<polygon fill="none" stroke="#bfbfbf" points="2124.5,-56.5 2124.5,-75.5 2164.5,-75.5 2164.5,-56.5 2124.5,-56.5"/>
<text text-anchor="middle" x="2144.5" y="-63.5" font-family="Helvetica,sans-Serif" font-size="10.00">utility</text>
</g>
<!-- Node3&#45;&gt;Node18 -->
<g id="edge17" class="edge"><title>Node3&#45;&gt;Node18</title>
<path fill="none" stroke="midnightblue" d="M1842.52,-117.218C1900.96,-111.374 2011.6,-98.6204 2114.41,-75.9347"/>
<polygon fill="midnightblue" stroke="midnightblue" points="2115.34,-79.3129 2124.33,-73.7082 2113.81,-72.4827 2115.34,-79.3129"/>
</g>
<!-- Node19 -->
<g id="node19" class="node"><title>Node19</title>
<g id="a_node19"><a xlink:href="_math_helper_8h.html" target="_top" xlink:title="../mt/MathHelper.h">
<polygon fill="none" stroke="black" points="1404.5,-56.5 1404.5,-75.5 1502.5,-75.5 1502.5,-56.5 1404.5,-56.5"/>
<text text-anchor="middle" x="1453.5" y="-63.5" font-family="Helvetica,sans-Serif" font-size="10.00">../mt/MathHelper.h</text>
</a>
</g>
</g>
<!-- Node3&#45;&gt;Node19 -->
<g id="edge18" class="edge"><title>Node3&#45;&gt;Node19</title>
<path fill="none" stroke="midnightblue" d="M1760.21,-114.593C1698.78,-105.061 1583,-87.0955 1512.6,-76.1714"/>
<polygon fill="midnightblue" stroke="midnightblue" points="1512.98,-72.6874 1502.56,-74.6125 1511.9,-79.6046 1512.98,-72.6874"/>
</g>
<!-- Node20 -->
<g id="node20" class="node"><title>Node20</title>
<polygon fill="none" stroke="#bfbfbf" points="1421,-0.5 1421,-19.5 1486,-19.5 1486,-0.5 1421,-0.5"/>
<text text-anchor="middle" x="1453.5" y="-7.5" font-family="Helvetica,sans-Serif" font-size="10.00">Windows.h</text>
</g>
<!-- Node19&#45;&gt;Node20 -->
<g id="edge19" class="edge"><title>Node19&#45;&gt;Node20</title>
<path fill="none" stroke="midnightblue" d="M1453.5,-56.083C1453.5,-49.0059 1453.5,-38.8611 1453.5,-29.9865"/>
<polygon fill="midnightblue" stroke="midnightblue" points="1457,-29.751 1453.5,-19.7511 1450,-29.7511 1457,-29.751"/>
</g>
<!-- Node21 -->
<g id="node21" class="node"><title>Node21</title>
<polygon fill="none" stroke="#bfbfbf" points="1316,-0.5 1316,-19.5 1393,-19.5 1393,-0.5 1316,-0.5"/>
<text text-anchor="middle" x="1354.5" y="-7.5" font-family="Helvetica,sans-Serif" font-size="10.00">DirectXMath.h</text>
</g>
<!-- Node19&#45;&gt;Node21 -->
<g id="edge20" class="edge"><title>Node19&#45;&gt;Node21</title>
<path fill="none" stroke="midnightblue" d="M1437.59,-56.324C1421.86,-47.7428 1397.56,-34.486 1379.29,-24.5224"/>
<polygon fill="midnightblue" stroke="midnightblue" points="1380.82,-21.3704 1370.37,-19.6545 1377.47,-27.5157 1380.82,-21.3704"/>
</g>
<!-- Node22 -->
<g id="node22" class="node"><title>Node22</title>
<polygon fill="none" stroke="#bfbfbf" points="1246.5,-0.5 1246.5,-19.5 1292.5,-19.5 1292.5,-0.5 1246.5,-0.5"/>
<text text-anchor="middle" x="1269.5" y="-7.5" font-family="Helvetica,sans-Serif" font-size="10.00">cstdint</text>
</g>
<!-- Node19&#45;&gt;Node22 -->
<g id="edge21" class="edge"><title>Node19&#45;&gt;Node22</title>
<path fill="none" stroke="midnightblue" d="M1424.34,-56.4435C1391.14,-46.6993 1337.02,-30.8158 1302.35,-20.6414"/>
<polygon fill="midnightblue" stroke="midnightblue" points="1303.27,-17.2644 1292.69,-17.8067 1301.3,-23.9811 1303.27,-17.2644"/>
</g>
<!-- Node23&#45;&gt;Node3 -->
<g id="edge23" class="edge"><title>Node23&#45;&gt;Node3</title>
<path fill="none" stroke="midnightblue" d="M993.315,-175.203C1113.72,-167.426 1591.07,-136.593 1749.84,-126.337"/>
<polygon fill="midnightblue" stroke="midnightblue" points="1750.52,-129.801 1760.27,-125.663 1750.07,-122.815 1750.52,-129.801"/>
</g>
<!-- Node23&#45;&gt;Node4 -->
<g id="edge35" class="edge"><title>Node23&#45;&gt;Node4</title>
<path fill="none" stroke="midnightblue" d="M993.207,-176.636C1067.26,-175.18 1267.78,-167.934 1321.5,-132 1337.65,-121.195 1347.57,-100.806 1353.01,-85.733"/>
<polygon fill="midnightblue" stroke="midnightblue" points="1356.44,-86.5025 1356.22,-75.9101 1349.79,-84.3326 1356.44,-86.5025"/>
</g>
<!-- Node23&#45;&gt;Node15 -->
<g id="edge33" class="edge"><title>Node23&#45;&gt;Node15</title>
<path fill="none" stroke="midnightblue" d="M993.15,-176.617C1060.46,-175.122 1237.81,-167.807 1380.5,-132 1429.83,-119.62 1484.08,-95.3205 1515.33,-80.1931"/>
<polygon fill="midnightblue" stroke="midnightblue" points="1517.19,-83.1765 1524.63,-75.6306 1514.11,-76.8918 1517.19,-83.1765"/>
</g>
<!-- Node23&#45;&gt;Node19 -->
<g id="edge50" class="edge"><title>Node23&#45;&gt;Node19</title>
<path fill="none" stroke="midnightblue" d="M993.089,-177.65C1056.96,-178.324 1219.17,-175.248 1345.5,-132 1379.41,-120.393 1414.13,-97.0362 1434.75,-81.7126"/>
<polygon fill="midnightblue" stroke="midnightblue" points="1437.08,-84.3369 1442.93,-75.5016 1432.85,-78.7621 1437.08,-84.3369"/>
</g>
<!-- Node23&#45;&gt;Node21 -->
<g id="edge29" class="edge"><title>Node23&#45;&gt;Node21</title>
<path fill="none" stroke="midnightblue" d="M993.017,-175.804C1059.24,-172.48 1225.43,-161.366 1271.5,-132 1305.6,-110.268 1298.43,-89.202 1321.5,-56 1328.08,-46.5353 1335.67,-36.149 1341.91,-27.7418"/>
<polygon fill="midnightblue" stroke="midnightblue" points="1344.86,-29.6392 1348.04,-19.533 1339.25,-25.4499 1344.86,-29.6392"/>
</g>
<!-- Node23&#45;&gt;Node22 -->
<g id="edge39" class="edge"><title>Node23&#45;&gt;Node22</title>
<path fill="none" stroke="midnightblue" d="M993.42,-176.615C1057.97,-175.117 1214.74,-167.79 1250.5,-132 1277.46,-105.017 1275.97,-56.4415 1272.66,-29.7797"/>
<polygon fill="midnightblue" stroke="midnightblue" points="1276.11,-29.2123 1271.21,-19.8218 1269.19,-30.2221 1276.11,-29.2123"/>
</g>
<!-- Node24 -->
<g id="node24" class="node"><title>Node24</title>
<polygon fill="none" stroke="#bfbfbf" points="1500.5,-112.5 1500.5,-131.5 1562.5,-131.5 1562.5,-112.5 1500.5,-112.5"/>
<text text-anchor="middle" x="1531.5" y="-119.5" font-family="Helvetica,sans-Serif" font-size="10.00">windows.h</text>
</g>
<!-- Node23&#45;&gt;Node24 -->
<g id="edge24" class="edge"><title>Node23&#45;&gt;Node24</title>
<path fill="none" stroke="midnightblue" d="M993.225,-174.545C1067.1,-167.975 1274.81,-149.311 1447.5,-132 1461.46,-130.601 1476.71,-128.991 1490.34,-127.524"/>
<polygon fill="midnightblue" stroke="midnightblue" points="1490.83,-130.991 1500.4,-126.435 1490.08,-124.031 1490.83,-130.991"/>
</g>
<!-- Node25 -->
<g id="node25" class="node"><title>Node25</title>
<polygon fill="none" stroke="#bfbfbf" points="589,-56.5 589,-75.5 626,-75.5 626,-56.5 589,-56.5"/>
<text text-anchor="middle" x="607.5" y="-63.5" font-family="Helvetica,sans-Serif" font-size="10.00">wrl.h</text>
</g>
<!-- Node23&#45;&gt;Node25 -->
<g id="edge25" class="edge"><title>Node23&#45;&gt;Node25</title>
<path fill="none" stroke="midnightblue" d="M937.581,-176.495C799.113,-173.86 191.621,-160.687 164.5,-132 106.03,-70.1534 471.728,-66.5527 578.719,-66.8047"/>
<polygon fill="midnightblue" stroke="midnightblue" points="578.786,-70.3049 588.799,-66.8421 578.812,-63.3049 578.786,-70.3049"/>
</g>
<!-- Node26 -->
<g id="node26" class="node"><title>Node26</title>
<polygon fill="none" stroke="#bfbfbf" points="58,-112.5 58,-131.5 117,-131.5 117,-112.5 58,-112.5"/>
<text text-anchor="middle" x="87.5" y="-119.5" font-family="Helvetica,sans-Serif" font-size="10.00">dxgi1_4.h</text>
</g>
<!-- Node23&#45;&gt;Node26 -->
<g id="edge26" class="edge"><title>Node23&#45;&gt;Node26</title>
<path fill="none" stroke="midnightblue" d="M937.648,-176.987C832.006,-176.625 446.104,-172.437 131.5,-132 130.05,-131.814 128.576,-131.606 127.09,-131.382"/>
<polygon fill="midnightblue" stroke="midnightblue" points="127.668,-127.93 117.222,-129.7 126.492,-134.831 127.668,-127.93"/>
</g>
<!-- Node27 -->
<g id="node27" class="node"><title>Node27</title>
<polygon fill="none" stroke="#bfbfbf" points="0,-0.5 0,-19.5 51,-19.5 51,-0.5 0,-0.5"/>
<text text-anchor="middle" x="25.5" y="-7.5" font-family="Helvetica,sans-Serif" font-size="10.00">d3d12.h</text>
</g>
<!-- Node23&#45;&gt;Node27 -->
<g id="edge27" class="edge"><title>Node23&#45;&gt;Node27</title>
<path fill="none" stroke="midnightblue" d="M937.899,-177.299C792.119,-178.66 115.516,-182.22 38.5,-132 8.34685,-112.338 4.73388,-91.5324 10.5,-56 11.9675,-46.9568 14.9923,-37.275 17.9438,-29.2176"/>
<polygon fill="midnightblue" stroke="midnightblue" points="21.2632,-30.3393 21.6443,-19.7514 14.7436,-27.7907 21.2632,-30.3393"/>
</g>
<!-- Node28 -->
<g id="node28" class="node"><title>Node28</title>
<polygon fill="none" stroke="#bfbfbf" points="173.5,-112.5 173.5,-131.5 253.5,-131.5 253.5,-112.5 173.5,-112.5"/>
<text text-anchor="middle" x="213.5" y="-119.5" font-family="Helvetica,sans-Serif" font-size="10.00">D3Dcompiler.h</text>
</g>
<!-- Node23&#45;&gt;Node28 -->
<g id="edge28" class="edge"><title>Node23&#45;&gt;Node28</title>
<path fill="none" stroke="midnightblue" d="M937.922,-176.401C844.577,-174.129 531.832,-164.518 263.48,-131.971"/>
<polygon fill="midnightblue" stroke="midnightblue" points="263.904,-128.496 253.552,-130.753 263.052,-135.444 263.904,-128.496"/>
</g>
<!-- Node29 -->
<g id="node29" class="node"><title>Node29</title>
<polygon fill="none" stroke="#bfbfbf" points="272,-112.5 272,-131.5 389,-131.5 389,-112.5 272,-112.5"/>
<text text-anchor="middle" x="330.5" y="-119.5" font-family="Helvetica,sans-Serif" font-size="10.00">DirectXPackedVector.h</text>
</g>
<!-- Node23&#45;&gt;Node29 -->
<g id="edge30" class="edge"><title>Node23&#45;&gt;Node29</title>
<path fill="none" stroke="midnightblue" d="M937.965,-175.352C857.017,-170.395 612.598,-154.621 399.431,-132.158"/>
<polygon fill="midnightblue" stroke="midnightblue" points="399.618,-128.658 389.304,-131.083 398.879,-135.619 399.618,-128.658"/>
</g>
<!-- Node30 -->
<g id="node30" class="node"><title>Node30</title>
<polygon fill="none" stroke="#bfbfbf" points="407,-112.5 407,-131.5 490,-131.5 490,-112.5 407,-112.5"/>
<text text-anchor="middle" x="448.5" y="-119.5" font-family="Helvetica,sans-Serif" font-size="10.00">DirectXColors.h</text>
</g>
<!-- Node23&#45;&gt;Node30 -->
<g id="edge31" class="edge"><title>Node23&#45;&gt;Node30</title>
<path fill="none" stroke="midnightblue" d="M937.837,-175.09C866.94,-170.033 672.784,-155.167 500.23,-131.993"/>
<polygon fill="midnightblue" stroke="midnightblue" points="500.586,-128.51 490.207,-130.634 499.646,-135.446 500.586,-128.51"/>
</g>
<!-- Node31 -->
<g id="node31" class="node"><title>Node31</title>
<polygon fill="none" stroke="#bfbfbf" points="508.5,-112.5 508.5,-131.5 600.5,-131.5 600.5,-112.5 508.5,-112.5"/>
<text text-anchor="middle" x="554.5" y="-119.5" font-family="Helvetica,sans-Serif" font-size="10.00">DirectXCollision.h</text>
</g>
<!-- Node23&#45;&gt;Node31 -->
<g id="edge32" class="edge"><title>Node23&#45;&gt;Node31</title>
<path fill="none" stroke="midnightblue" d="M937.757,-173.842C879.298,-167.114 738.941,-150.566 610.692,-132.129"/>
<polygon fill="midnightblue" stroke="midnightblue" points="611.092,-128.651 600.695,-130.684 610.091,-135.579 611.092,-128.651"/>
</g>
<!-- Node32 -->
<g id="node32" class="node"><title>Node32</title>
<polygon fill="none" stroke="#bfbfbf" points="618.5,-112.5 618.5,-131.5 670.5,-131.5 670.5,-112.5 618.5,-112.5"/>
<text text-anchor="middle" x="644.5" y="-119.5" font-family="Helvetica,sans-Serif" font-size="10.00">memory</text>
</g>
<!-- Node23&#45;&gt;Node32 -->
<g id="edge34" class="edge"><title>Node23&#45;&gt;Node32</title>
<path fill="none" stroke="midnightblue" d="M937.732,-173.529C888.098,-167.133 780.73,-152.426 680.769,-132.102"/>
<polygon fill="midnightblue" stroke="midnightblue" points="681.311,-128.64 670.81,-130.053 679.9,-135.497 681.311,-128.64"/>
</g>
<!-- Node33 -->
<g id="node33" class="node"><title>Node33</title>
<polygon fill="none" stroke="#bfbfbf" points="688.5,-112.5 688.5,-131.5 730.5,-131.5 730.5,-112.5 688.5,-112.5"/>
<text text-anchor="middle" x="709.5" y="-119.5" font-family="Helvetica,sans-Serif" font-size="10.00">vector</text>
</g>
<!-- Node23&#45;&gt;Node33 -->
<g id="edge36" class="edge"><title>Node23&#45;&gt;Node33</title>
<path fill="none" stroke="midnightblue" d="M937.829,-172.364C896.794,-165.3 817.226,-150.885 740.555,-132.079"/>
<polygon fill="midnightblue" stroke="midnightblue" points="741.285,-128.654 730.736,-129.643 739.599,-135.448 741.285,-128.654"/>
</g>
<!-- Node34 -->
<g id="node34" class="node"><title>Node34</title>
<polygon fill="none" stroke="#bfbfbf" points="748.5,-112.5 748.5,-131.5 786.5,-131.5 786.5,-112.5 748.5,-112.5"/>
<text text-anchor="middle" x="767.5" y="-119.5" font-family="Helvetica,sans-Serif" font-size="10.00">array</text>
</g>
<!-- Node23&#45;&gt;Node34 -->
<g id="edge37" class="edge"><title>Node23&#45;&gt;Node34</title>
<path fill="none" stroke="midnightblue" d="M937.995,-170.19C906.121,-162.196 851.815,-148.262 796.369,-132.148"/>
<polygon fill="midnightblue" stroke="midnightblue" points="797.319,-128.779 786.739,-129.33 795.354,-135.497 797.319,-128.779"/>
</g>
<!-- Node35 -->
<g id="node35" class="node"><title>Node35</title>
<polygon fill="none" stroke="#bfbfbf" points="805,-112.5 805,-131.5 888,-131.5 888,-112.5 805,-112.5"/>
<text text-anchor="middle" x="846.5" y="-119.5" font-family="Helvetica,sans-Serif" font-size="10.00">unordered_map</text>
</g>
<!-- Node23&#45;&gt;Node35 -->
<g id="edge38" class="edge"><title>Node23&#45;&gt;Node35</title>
<path fill="none" stroke="midnightblue" d="M946.644,-168.444C927.234,-159.636 896.77,-145.812 874.535,-135.722"/>
<polygon fill="midnightblue" stroke="midnightblue" points="875.82,-132.462 865.268,-131.516 872.928,-138.836 875.82,-132.462"/>
</g>
<!-- Node36 -->
<g id="node36" class="node"><title>Node36</title>
<polygon fill="none" stroke="#bfbfbf" points="906,-112.5 906,-131.5 955,-131.5 955,-112.5 906,-112.5"/>
<text text-anchor="middle" x="930.5" y="-119.5" font-family="Helvetica,sans-Serif" font-size="10.00">fstream</text>
</g>
<!-- Node23&#45;&gt;Node36 -->
<g id="edge40" class="edge"><title>Node23&#45;&gt;Node36</title>
<path fill="none" stroke="midnightblue" d="M959.72,-168.083C954.828,-160.534 947.673,-149.495 941.667,-140.23"/>
<polygon fill="midnightblue" stroke="midnightblue" points="944.548,-138.239 936.172,-131.751 938.674,-142.046 944.548,-138.239"/>
</g>
<!-- Node37 -->
<g id="node37" class="node"><title>Node37</title>
<polygon fill="none" stroke="#bfbfbf" points="973.5,-112.5 973.5,-131.5 1025.5,-131.5 1025.5,-112.5 973.5,-112.5"/>
<text text-anchor="middle" x="999.5" y="-119.5" font-family="Helvetica,sans-Serif" font-size="10.00">sstream</text>
</g>
<!-- Node23&#45;&gt;Node37 -->
<g id="edge41" class="edge"><title>Node23&#45;&gt;Node37</title>
<path fill="none" stroke="midnightblue" d="M971.114,-168.083C975.867,-160.534 982.818,-149.495 988.652,-140.23"/>
<polygon fill="midnightblue" stroke="midnightblue" points="991.624,-142.078 993.99,-131.751 985.7,-138.349 991.624,-142.078"/>
</g>
<!-- Node38 -->
<g id="node38" class="node"><title>Node38</title>
<polygon fill="none" stroke="#bfbfbf" points="1044,-112.5 1044,-131.5 1093,-131.5 1093,-112.5 1044,-112.5"/>
<text text-anchor="middle" x="1068.5" y="-119.5" font-family="Helvetica,sans-Serif" font-size="10.00">cassert</text>
</g>
<!-- Node23&#45;&gt;Node38 -->
<g id="edge42" class="edge"><title>Node23&#45;&gt;Node38</title>
<path fill="none" stroke="midnightblue" d="M982.049,-168.324C998.492,-159.703 1023.93,-146.364 1042.97,-136.386"/>
<polygon fill="midnightblue" stroke="midnightblue" points="1044.76,-139.398 1051.99,-131.655 1041.51,-133.198 1044.76,-139.398"/>
</g>
<!-- Node39 -->
<g id="node39" class="node"><title>Node39</title>
<g id="a_node39"><a xlink:href="d3dx12_8h.html" target="_top" xlink:title="../mt/d3dx12.h">
<polygon fill="none" stroke="black" points="19.5,-56.5 19.5,-75.5 99.5,-75.5 99.5,-56.5 19.5,-56.5"/>
<text text-anchor="middle" x="59.5" y="-63.5" font-family="Helvetica,sans-Serif" font-size="10.00">../mt/d3dx12.h</text>
</a>
</g>
</g>
<!-- Node23&#45;&gt;Node39 -->
<g id="edge43" class="edge"><title>Node23&#45;&gt;Node39</title>
<path fill="none" stroke="midnightblue" d="M937.61,-176.701C787.36,-174.957 79.9277,-165.008 48.5,-132 36.7013,-119.608 42.4345,-99.5221 49.2467,-84.9546"/>
<polygon fill="midnightblue" stroke="midnightblue" points="52.4385,-86.4023 53.9331,-75.9134 46.2238,-83.1809 52.4385,-86.4023"/>
</g>
<!-- Node40 -->
<g id="node40" class="node"><title>Node40</title>
<g id="a_node40"><a xlink:href="_d_d_s_texture_loader_8h.html" target="_top" xlink:title="../mt/DDSTextureLoader.h">
<polygon fill="none" stroke="black" points="1111.5,-112.5 1111.5,-131.5 1241.5,-131.5 1241.5,-112.5 1111.5,-112.5"/>
<text text-anchor="middle" x="1176.5" y="-119.5" font-family="Helvetica,sans-Serif" font-size="10.00">../mt/DDSTextureLoader.h</text>
</a>
</g>
</g>
<!-- Node23&#45;&gt;Node40 -->
<g id="edge45" class="edge"><title>Node23&#45;&gt;Node40</title>
<path fill="none" stroke="midnightblue" d="M993.085,-169.94C1028.69,-160.829 1091.04,-144.871 1133.04,-134.122"/>
<polygon fill="midnightblue" stroke="midnightblue" points="1134.17,-137.446 1142.99,-131.576 1132.43,-130.665 1134.17,-137.446"/>
</g>
<!-- Node39&#45;&gt;Node27 -->
<g id="edge44" class="edge"><title>Node39&#45;&gt;Node27</title>
<path fill="none" stroke="midnightblue" d="M53.8856,-56.083C49.1326,-48.5341 42.1819,-37.4948 36.3484,-28.2298"/>
<polygon fill="midnightblue" stroke="midnightblue" points="39.2999,-26.3486 31.0099,-19.7511 33.3763,-30.0783 39.2999,-26.3486"/>
</g>
<!-- Node40&#45;&gt;Node25 -->
<g id="edge46" class="edge"><title>Node40&#45;&gt;Node25</title>
<path fill="none" stroke="midnightblue" d="M1111.47,-113.081C1108.1,-112.707 1104.76,-112.344 1101.5,-112 925.182,-93.394 712.966,-75.6107 636.621,-69.3601"/>
<polygon fill="midnightblue" stroke="midnightblue" points="636.615,-65.848 626.364,-68.5228 636.046,-72.8248 636.615,-65.848"/>
</g>
<!-- Node40&#45;&gt;Node39 -->
<g id="edge48" class="edge"><title>Node40&#45;&gt;Node39</title>
<path fill="none" stroke="midnightblue" d="M1111.49,-112.891C1108.11,-112.566 1104.77,-112.266 1101.5,-112 721.255,-81.02 261.096,-70.553 110.129,-67.8185"/>
<polygon fill="midnightblue" stroke="midnightblue" points="109.86,-64.3132 99.7995,-67.6348 109.736,-71.3121 109.86,-64.3132"/>
</g>
<!-- Node41 -->
<g id="node41" class="node"><title>Node41</title>
<polygon fill="none" stroke="#bfbfbf" points="1088.5,-56.5 1088.5,-75.5 1150.5,-75.5 1150.5,-56.5 1088.5,-56.5"/>
<text text-anchor="middle" x="1119.5" y="-63.5" font-family="Helvetica,sans-Serif" font-size="10.00">d3d11_1.h</text>
</g>
<!-- Node40&#45;&gt;Node41 -->
<g id="edge47" class="edge"><title>Node40&#45;&gt;Node41</title>
<path fill="none" stroke="midnightblue" d="M1167.34,-112.324C1159,-104.42 1146.47,-92.5482 1136.32,-82.9377"/>
<polygon fill="midnightblue" stroke="midnightblue" points="1138.49,-80.1705 1128.82,-75.8339 1133.68,-85.2522 1138.49,-80.1705"/>
</g>
<!-- Node42 -->
<g id="node42" class="node"><title>Node42</title>
<polygon fill="none" stroke="#bfbfbf" points="1169,-56.5 1169,-75.5 1218,-75.5 1218,-56.5 1169,-56.5"/>
<text text-anchor="middle" x="1193.5" y="-63.5" font-family="Helvetica,sans-Serif" font-size="10.00">stdint.h</text>
</g>
<!-- Node40&#45;&gt;Node42 -->
<g id="edge49" class="edge"><title>Node40&#45;&gt;Node42</title>
<path fill="none" stroke="midnightblue" d="M1179.31,-112.083C1181.58,-104.849 1184.87,-94.4087 1187.71,-85.3968"/>
<polygon fill="midnightblue" stroke="midnightblue" points="1191.08,-86.3406 1190.75,-75.7511 1184.4,-84.2385 1191.08,-86.3406"/>
</g>
<!-- Node44 -->
<g id="node44" class="node"><title>Node44</title>
<g id="a_node44"><a xlink:href="_game_timer_8hpp.html" target="_top" xlink:title="../mt/GameTimer.hpp">
<polygon fill="none" stroke="black" points="2213,-112.5 2213,-131.5 2322,-131.5 2322,-112.5 2213,-112.5"/>
<text text-anchor="middle" x="2267.5" y="-119.5" font-family="Helvetica,sans-Serif" font-size="10.00">../mt/GameTimer.hpp</text>
</a>
</g>
</g>
<!-- Node43&#45;&gt;Node44 -->
<g id="edge52" class="edge"><title>Node43&#45;&gt;Node44</title>
<path fill="none" stroke="midnightblue" d="M1732.13,-347.447C1768.19,-339.658 1820.96,-326.95 1865.5,-311 2013.53,-257.988 2181.02,-170.02 2242.87,-136.52"/>
<polygon fill="midnightblue" stroke="midnightblue" points="2244.76,-139.477 2251.87,-131.624 2241.41,-133.328 2244.76,-139.477"/>
</g>
<!-- Node45 -->
<g id="node45" class="node"><title>Node45</title>
<g id="a_node45"><a xlink:href="_direct_x_renderer_8hpp.html" target="_top" xlink:title="../mt/DirectXRenderer.hpp">
<polygon fill="none" stroke="black" points="1408.5,-291.5 1408.5,-310.5 1536.5,-310.5 1536.5,-291.5 1408.5,-291.5"/>
<text text-anchor="middle" x="1472.5" y="-298.5" font-family="Helvetica,sans-Serif" font-size="10.00">../mt/DirectXRenderer.hpp</text>
</a>
</g>
</g>
<!-- Node43&#45;&gt;Node45 -->
<g id="edge55" class="edge"><title>Node43&#45;&gt;Node45</title>
<path fill="none" stroke="midnightblue" d="M1655.12,-347.444C1617.58,-338.102 1557.37,-323.119 1516.43,-312.933"/>
<polygon fill="midnightblue" stroke="midnightblue" points="1517.27,-309.535 1506.72,-310.516 1515.58,-316.328 1517.27,-309.535"/>
</g>
<!-- Node47 -->
<g id="node47" class="node"><title>Node47</title>
<g id="a_node47"><a xlink:href="_windows_message_handling_service_8hpp.html" target="_top" xlink:title="../mt/WindowsMessageHandling\lService.hpp">
<polygon fill="none" stroke="black" points="1611,-224.5 1611,-254.5 1768,-254.5 1768,-224.5 1611,-224.5"/>
<text text-anchor="start" x="1619" y="-242.5" font-family="Helvetica,sans-Serif" font-size="10.00">../mt/WindowsMessageHandling</text>
<text text-anchor="middle" x="1689.5" y="-231.5" font-family="Helvetica,sans-Serif" font-size="10.00">Service.hpp</text>
</a>
</g>
</g>
<!-- Node43&#45;&gt;Node47 -->
<g id="edge61" class="edge"><title>Node43&#45;&gt;Node47</title>
<path fill="none" stroke="midnightblue" d="M1689.5,-347.319C1689.5,-329.967 1689.5,-290.457 1689.5,-264.658"/>
<polygon fill="midnightblue" stroke="midnightblue" points="1693,-264.545 1689.5,-254.545 1686,-264.545 1693,-264.545"/>
</g>
<!-- Node50 -->
<g id="node50" class="node"><title>Node50</title>
<g id="a_node50"><a xlink:href="_command_queue_8hpp.html" target="_top" xlink:title="../mt/CommandQueue.hpp">
<polygon fill="none" stroke="black" points="1725,-291.5 1725,-310.5 1856,-310.5 1856,-291.5 1725,-291.5"/>
<text text-anchor="middle" x="1790.5" y="-298.5" font-family="Helvetica,sans-Serif" font-size="10.00">../mt/CommandQueue.hpp</text>
</a>
</g>
</g>
<!-- Node43&#45;&gt;Node50 -->
<g id="edge66" class="edge"><title>Node43&#45;&gt;Node50</title>
<path fill="none" stroke="midnightblue" d="M1705.73,-347.324C1721.85,-338.703 1746.8,-325.364 1765.46,-315.386"/>
<polygon fill="midnightblue" stroke="midnightblue" points="1767.14,-318.456 1774.31,-310.655 1763.84,-312.283 1767.14,-318.456"/>
</g>
<!-- Node44&#45;&gt;Node5 -->
<g id="edge53" class="edge"><title>Node44&#45;&gt;Node5</title>
<path fill="none" stroke="midnightblue" d="M2267.5,-112.083C2267.5,-105.006 2267.5,-94.8611 2267.5,-85.9865"/>
<polygon fill="midnightblue" stroke="midnightblue" points="2271,-85.751 2267.5,-75.7511 2264,-85.7511 2271,-85.751"/>
</g>
<!-- Node44&#45;&gt;Node12 -->
<g id="edge54" class="edge"><title>Node44&#45;&gt;Node12</title>
<path fill="none" stroke="midnightblue" d="M2277.62,-112.324C2287.03,-104.263 2301.24,-92.0765 2312.57,-82.3695"/>
<polygon fill="midnightblue" stroke="midnightblue" points="2314.88,-84.9993 2320.19,-75.8339 2310.32,-79.6844 2314.88,-84.9993"/>
</g>
<!-- Node45&#45;&gt;Node2 -->
<g id="edge59" class="edge"><title>Node45&#45;&gt;Node2</title>
<path fill="none" stroke="midnightblue" d="M1483.1,-291.475C1494.75,-282.108 1513.69,-266.884 1527.83,-255.508"/>
<polygon fill="midnightblue" stroke="midnightblue" points="1530.32,-258.003 1535.92,-249.009 1525.93,-252.548 1530.32,-258.003"/>
</g>
<!-- Node45&#45;&gt;Node15 -->
<g id="edge60" class="edge"><title>Node45&#45;&gt;Node15</title>
<path fill="none" stroke="midnightblue" d="M1471.25,-291.144C1467.73,-263.083 1459.89,-174.319 1491.5,-112 1497.69,-99.7942 1508.69,-89.3335 1518.8,-81.5779"/>
<polygon fill="midnightblue" stroke="midnightblue" points="1520.88,-84.3962 1526.96,-75.7205 1516.79,-78.7102 1520.88,-84.3962"/>
</g>
<!-- Node45&#45;&gt;Node23 -->
<g id="edge56" class="edge"><title>Node45&#45;&gt;Node23</title>
<path fill="none" stroke="midnightblue" d="M1423.81,-291.426C1377.5,-283.027 1305.97,-269.42 1244.5,-255 1157.26,-234.536 1056.04,-205.661 1002.74,-190.053"/>
<polygon fill="midnightblue" stroke="midnightblue" points="1003.64,-186.667 993.054,-187.206 1001.66,-193.383 1003.64,-186.667"/>
</g>
<!-- Node46 -->
<g id="node46" class="node"><title>Node46</title>
<g id="a_node46"><a xlink:href="_upload_buffer_8h.html" target="_top" xlink:title="../mt/UploadBuffer.h">
<polygon fill="none" stroke="black" points="1254,-230 1254,-249 1357,-249 1357,-230 1254,-230"/>
<text text-anchor="middle" x="1305.5" y="-237" font-family="Helvetica,sans-Serif" font-size="10.00">../mt/UploadBuffer.h</text>
</a>
</g>
</g>
<!-- Node45&#45;&gt;Node46 -->
<g id="edge57" class="edge"><title>Node45&#45;&gt;Node46</title>
<path fill="none" stroke="midnightblue" d="M1448.57,-291.475C1419.8,-281.225 1371.34,-263.959 1338.9,-252.399"/>
<polygon fill="midnightblue" stroke="midnightblue" points="1339.98,-249.068 1329.38,-249.009 1337.63,-255.662 1339.98,-249.068"/>
</g>
<!-- Node46&#45;&gt;Node23 -->
<g id="edge58" class="edge"><title>Node46&#45;&gt;Node23</title>
<path fill="none" stroke="midnightblue" d="M1256.79,-229.975C1188.4,-218.007 1065.36,-196.476 1003.38,-185.629"/>
<polygon fill="midnightblue" stroke="midnightblue" points="1003.71,-182.134 993.256,-183.857 1002.5,-189.029 1003.71,-182.134"/>
</g>
<!-- Node47&#45;&gt;Node3 -->
<g id="edge62" class="edge"><title>Node47&#45;&gt;Node3</title>
<path fill="none" stroke="midnightblue" d="M1703.58,-224.42C1713.64,-214.329 1727.46,-200.387 1739.5,-188 1755.52,-171.514 1773.65,-152.463 1786.14,-139.266"/>
<polygon fill="midnightblue" stroke="midnightblue" points="1788.8,-141.552 1793.13,-131.881 1783.71,-136.742 1788.8,-141.552"/>
</g>
<!-- Node48 -->
<g id="node48" class="node"><title>Node48</title>
<g id="a_node48"><a xlink:href="_windows_message_handler_8hpp.html" target="_top" xlink:title="../mt/WindowsMessageHandler.hpp">
<polygon fill="none" stroke="black" points="1526,-168.5 1526,-187.5 1697,-187.5 1697,-168.5 1526,-168.5"/>
<text text-anchor="middle" x="1611.5" y="-175.5" font-family="Helvetica,sans-Serif" font-size="10.00">../mt/WindowsMessageHandler.hpp</text>
</a>
</g>
</g>
<!-- Node47&#45;&gt;Node48 -->
<g id="edge63" class="edge"><title>Node47&#45;&gt;Node48</title>
<path fill="none" stroke="midnightblue" d="M1671.02,-224.399C1658.98,-215.218 1643.3,-203.258 1631.06,-193.918"/>
<polygon fill="midnightblue" stroke="midnightblue" points="1632.92,-190.94 1622.85,-187.658 1628.68,-196.506 1632.92,-190.94"/>
</g>
<!-- Node48&#45;&gt;Node24 -->
<g id="edge64" class="edge"><title>Node48&#45;&gt;Node24</title>
<path fill="none" stroke="midnightblue" d="M1598.65,-168.324C1586.28,-159.979 1567.37,-147.212 1552.76,-137.352"/>
<polygon fill="midnightblue" stroke="midnightblue" points="1554.57,-134.348 1544.32,-131.655 1550.65,-140.15 1554.57,-134.348"/>
</g>
<!-- Node49 -->
<g id="node49" class="node"><title>Node49</title>
<polygon fill="none" stroke="#bfbfbf" points="1580.5,-112.5 1580.5,-131.5 1650.5,-131.5 1650.5,-112.5 1580.5,-112.5"/>
<text text-anchor="middle" x="1615.5" y="-119.5" font-family="Helvetica,sans-Serif" font-size="10.00">WindowsX.h</text>
</g>
<!-- Node48&#45;&gt;Node49 -->
<g id="edge65" class="edge"><title>Node48&#45;&gt;Node49</title>
<path fill="none" stroke="midnightblue" d="M1612.16,-168.083C1612.68,-161.006 1613.44,-150.861 1614.09,-141.986"/>
<polygon fill="midnightblue" stroke="midnightblue" points="1617.6,-141.982 1614.85,-131.751 1610.62,-141.465 1617.6,-141.982"/>
</g>
<!-- Node50&#45;&gt;Node3 -->
<g id="edge67" class="edge"><title>Node50&#45;&gt;Node3</title>
<path fill="none" stroke="midnightblue" d="M1791.03,-291.463C1792.71,-264.428 1797.94,-180.239 1800.31,-142.109"/>
<polygon fill="midnightblue" stroke="midnightblue" points="1803.82,-142.066 1800.95,-131.868 1796.84,-141.632 1803.82,-142.066"/>
</g>
</g>
</svg>
        <g id="navigator" transform="translate(0 0)" fill="#404254">
                <rect fill="#f2f5e9" fill-opacity="0.5" stroke="#606060" stroke-width=".5" x="0" y="0" width="60" height="60"/>
                <use id="zoomplus" xlink:href="#zoomPlus" x="17" y="9" onmousedown="handleZoom(evt,'in')"/>
                <use id="zoomminus" xlink:href="#zoomMin" x="42" y="9" onmousedown="handleZoom(evt,'out')"/>
                <use id="reset" xlink:href="#resetDef" x="30" y="36" onmousedown="handleReset()"/>
                <g id="arrowUp" xlink:href="#dirArrow" transform="translate(30 24)" onmousedown="handlePan(0,-1)">
                  <use xlink:href="#rim" fill="#404040">
                        <set attributeName="fill" to="#808080" begin="arrowUp.mouseover" end="arrowUp.mouseout"/>
                  </use>
                  <path fill="none" stroke="white" stroke-width="1.5" d="M0,-3.0v7 M-2.5,-0.5L0,-3.0L2.5,-0.5"/>
                </g>
                <g id="arrowRight" xlink:href="#dirArrow" transform="rotate(90) translate(36 -43)" onmousedown="handlePan(1,0)">
                  <use xlink:href="#rim" fill="#404040">
                        <set attributeName="fill" to="#808080" begin="arrowRight.mouseover" end="arrowRight.mouseout"/>
                  </use>
                  <path fill="none" stroke="white" stroke-width="1.5" d="M0,-3.0v7 M-2.5,-0.5L0,-3.0L2.5,-0.5"/>
                </g>
                <g id="arrowDown" xlink:href="#dirArrow" transform="rotate(180) translate(-30 -48)" onmousedown="handlePan(0,1)">
                  <use xlink:href="#rim" fill="#404040">
                        <set attributeName="fill" to="#808080" begin="arrowDown.mouseover" end="arrowDown.mouseout"/>
                  </use>
                  <path fill="none" stroke="white" stroke-width="1.5" d="M0,-3.0v7 M-2.5,-0.5L0,-3.0L2.5,-0.5"/>
                </g>
                <g id="arrowLeft" xlink:href="#dirArrow" transform="rotate(270) translate(-36 17)" onmousedown="handlePan(-1,0)">
                  <use xlink:href="#rim" fill="#404040">
                        <set attributeName="fill" to="#808080" begin="arrowLeft.mouseover" end="arrowLeft.mouseout"/>
                  </use>
                  <path fill="none" stroke="white" stroke-width="1.5" d="M0,-3.0v7 M-2.5,-0.5L0,-3.0L2.5,-0.5"/>
                </g>
        </g>
        <svg viewBox="0 0 15 15" width="100%" height="30px" preserveAspectRatio="xMaxYMin meet">
         <g id="arrow_out" transform="scale(0.3 0.3)">
          <a xlink:href="_camera_8cpp__incl_org.svg" target="_base">
           <rect id="button" ry="5" rx="5" y="6" x="6" height="38" width="38"
                fill="#f2f5e9" fill-opacity="0.5" stroke="#606060" stroke-width="1.0"/>
           <path id="arrow"
             d="M 11.500037,31.436501 C 11.940474,20.09759 22.043105,11.32322 32.158766,21.979434 L 37.068811,17.246167 C 37.068811,17.246167 37.088388,32 37.088388,32 L 22.160133,31.978069 C 22.160133,31.978069 26.997745,27.140456 26.997745,27.140456 C 18.528582,18.264221 13.291696,25.230495 11.500037,31.436501 z"
             style="fill:#404040;"/>
          </a>
         </g>
        </svg>
</svg>
