<?xml version="1.0" encoding="UTF-8" standalone="no"?>
<!DOCTYPE svg PUBLIC "-//W3C//DTD SVG 1.1//EN"
 "http://www.w3.org/Graphics/SVG/1.1/DTD/svg11.dtd">
<!-- Generated by graphviz version 2.38.0 (20140413.2041)
 -->
<!-- Title: C:/Users/micho/Desktop/mt_engine/mt/Camera.hpp Pages: 1 -->
<svg width="2422pt" height="263pt"
 viewBox="0.00 0.00 2422.25 263.00" xmlns="http://www.w3.org/2000/svg" xmlns:xlink="http://www.w3.org/1999/xlink">
<g id="graph0" class="graph" transform="scale(1 1) rotate(0) translate(4 259)">
<title>C:/Users/micho/Desktop/mt_engine/mt/Camera.hpp</title>
<!-- Node1 -->
<g id="node1" class="node"><title>Node1</title>
<polygon fill="#bfbfbf" stroke="black" points="1189,-224.5 1189,-254.5 1323,-254.5 1323,-224.5 1189,-224.5"/>
<text text-anchor="start" x="1197" y="-242.5" font-family="Helvetica,sans-Serif" font-size="10.00">C:/Users/micho/Desktop</text>
<text text-anchor="middle" x="1256" y="-231.5" font-family="Helvetica,sans-Serif" font-size="10.00">/mt_engine/mt/Camera.hpp</text>
</g>
<!-- Node2 -->
<g id="node2" class="node"><title>Node2</title>
<g id="a_node2"><a xlink:href="utility_8hpp.html" target="_top" xlink:title="../mt/utility.hpp">
<polygon fill="none" stroke="black" points="517,-112.5 517,-131.5 599,-131.5 599,-112.5 517,-112.5"/>
<text text-anchor="middle" x="558" y="-119.5" font-family="Helvetica,sans-Serif" font-size="10.00">../mt/utility.hpp</text>
</a>
</g>
</g>
<!-- Node1&#45;&gt;Node2 -->
<g id="edge1" class="edge"><title>Node1&#45;&gt;Node2</title>
<path fill="none" stroke="midnightblue" d="M1188.76,-227.373C1049.67,-204.359 733.056,-151.967 609.105,-131.457"/>
<polygon fill="midnightblue" stroke="midnightblue" points="609.554,-127.983 599.117,-129.804 608.411,-134.889 609.554,-127.983"/>
</g>
<!-- Node22 -->
<g id="node22" class="node"><title>Node22</title>
<g id="a_node22"><a xlink:href="d3d_util_8h.html" target="_top" xlink:title="d3dUtil.h">
<polygon fill="none" stroke="black" points="1466.5,-168.5 1466.5,-187.5 1521.5,-187.5 1521.5,-168.5 1466.5,-168.5"/>
<text text-anchor="middle" x="1494" y="-175.5" font-family="Helvetica,sans-Serif" font-size="10.00">d3dUtil.h</text>
</a>
</g>
</g>
<!-- Node1&#45;&gt;Node22 -->
<g id="edge21" class="edge"><title>Node1&#45;&gt;Node22</title>
<path fill="none" stroke="midnightblue" d="M1312.1,-224.475C1356.63,-213.342 1417.66,-198.085 1456.46,-188.385"/>
<polygon fill="midnightblue" stroke="midnightblue" points="1457.45,-191.745 1466.3,-185.924 1455.75,-184.954 1457.45,-191.745"/>
</g>
<!-- Node3 -->
<g id="node3" class="node"><title>Node3</title>
<polygon fill="none" stroke="#bfbfbf" points="965,-56.5 965,-75.5 1021,-75.5 1021,-56.5 965,-56.5"/>
<text text-anchor="middle" x="993" y="-63.5" font-family="Helvetica,sans-Serif" font-size="10.00">algorithm</text>
</g>
<!-- Node2&#45;&gt;Node3 -->
<g id="edge2" class="edge"><title>Node2&#45;&gt;Node3</title>
<path fill="none" stroke="midnightblue" d="M599.212,-118.062C669.971,-112.645 819.246,-99.5877 954.657,-76.0362"/>
<polygon fill="midnightblue" stroke="midnightblue" points="955.556,-79.4319 964.796,-74.2483 954.34,-72.5382 955.556,-79.4319"/>
</g>
<!-- Node4 -->
<g id="node4" class="node"><title>Node4</title>
<polygon fill="none" stroke="#bfbfbf" points="242,-56.5 242,-75.5 288,-75.5 288,-56.5 242,-56.5"/>
<text text-anchor="middle" x="265" y="-63.5" font-family="Helvetica,sans-Serif" font-size="10.00">chrono</text>
</g>
<!-- Node2&#45;&gt;Node4 -->
<g id="edge3" class="edge"><title>Node2&#45;&gt;Node4</title>
<path fill="none" stroke="midnightblue" d="M516.603,-115.215C466.88,-107.968 380.789,-94.4758 298.145,-76.076"/>
<polygon fill="midnightblue" stroke="midnightblue" points="298.872,-72.6522 288.347,-73.8675 297.333,-79.4808 298.872,-72.6522"/>
</g>
<!-- Node5 -->
<g id="node5" class="node"><title>Node5</title>
<polygon fill="none" stroke="#bfbfbf" points="306,-56.5 306,-75.5 350,-75.5 350,-56.5 306,-56.5"/>
<text text-anchor="middle" x="328" y="-63.5" font-family="Helvetica,sans-Serif" font-size="10.00">cmath</text>
</g>
<!-- Node2&#45;&gt;Node5 -->
<g id="edge4" class="edge"><title>Node2&#45;&gt;Node5</title>
<path fill="none" stroke="midnightblue" d="M517.047,-112.493C478.821,-104.384 419.978,-91.4763 360.281,-76.2195"/>
<polygon fill="midnightblue" stroke="midnightblue" points="360.864,-72.7554 350.307,-73.6501 359.118,-79.5341 360.864,-72.7554"/>
</g>
<!-- Node6 -->
<g id="node6" class="node"><title>Node6</title>
<polygon fill="none" stroke="#bfbfbf" points="368.5,-56.5 368.5,-75.5 417.5,-75.5 417.5,-56.5 368.5,-56.5"/>
<text text-anchor="middle" x="393" y="-63.5" font-family="Helvetica,sans-Serif" font-size="10.00">cstdarg</text>
</g>
<!-- Node2&#45;&gt;Node6 -->
<g id="edge5" class="edge"><title>Node2&#45;&gt;Node6</title>
<path fill="none" stroke="midnightblue" d="M531.855,-112.444C503.567,-103.185 458.344,-88.3854 427.239,-78.2054"/>
<polygon fill="midnightblue" stroke="midnightblue" points="428.268,-74.8595 417.675,-75.0755 426.09,-81.5123 428.268,-74.8595"/>
</g>
<!-- Node7 -->
<g id="node7" class="node"><title>Node7</title>
<polygon fill="none" stroke="#bfbfbf" points="435.5,-56.5 435.5,-75.5 478.5,-75.5 478.5,-56.5 435.5,-56.5"/>
<text text-anchor="middle" x="457" y="-63.5" font-family="Helvetica,sans-Serif" font-size="10.00">deque</text>
</g>
<!-- Node2&#45;&gt;Node7 -->
<g id="edge6" class="edge"><title>Node2&#45;&gt;Node7</title>
<path fill="none" stroke="midnightblue" d="M541.773,-112.324C525.649,-103.703 500.7,-90.3643 482.036,-80.3855"/>
<polygon fill="midnightblue" stroke="midnightblue" points="483.656,-77.283 473.187,-75.6545 480.356,-83.456 483.656,-77.283"/>
</g>
<!-- Node8 -->
<g id="node8" class="node"><title>Node8</title>
<polygon fill="none" stroke="#bfbfbf" points="496.5,-56.5 496.5,-75.5 557.5,-75.5 557.5,-56.5 496.5,-56.5"/>
<text text-anchor="middle" x="527" y="-63.5" font-family="Helvetica,sans-Serif" font-size="10.00">filesystem</text>
</g>
<!-- Node2&#45;&gt;Node8 -->
<g id="edge7" class="edge"><title>Node2&#45;&gt;Node8</title>
<path fill="none" stroke="midnightblue" d="M552.881,-112.083C548.592,-104.613 542.342,-93.7244 537.058,-84.5199"/>
<polygon fill="midnightblue" stroke="midnightblue" points="540.038,-82.6811 532.024,-75.7511 533.967,-86.1662 540.038,-82.6811"/>
</g>
<!-- Node9 -->
<g id="node9" class="node"><title>Node9</title>
<polygon fill="none" stroke="#bfbfbf" points="575.5,-56.5 575.5,-75.5 604.5,-75.5 604.5,-56.5 575.5,-56.5"/>
<text text-anchor="middle" x="590" y="-63.5" font-family="Helvetica,sans-Serif" font-size="10.00">list</text>
</g>
<!-- Node2&#45;&gt;Node9 -->
<g id="edge8" class="edge"><title>Node2&#45;&gt;Node9</title>
<path fill="none" stroke="midnightblue" d="M563.284,-112.083C567.711,-104.613 574.163,-93.7244 579.618,-84.5199"/>
<polygon fill="midnightblue" stroke="midnightblue" points="582.727,-86.1383 584.814,-75.7511 576.705,-82.5697 582.727,-86.1383"/>
</g>
<!-- Node10 -->
<g id="node10" class="node"><title>Node10</title>
<polygon fill="none" stroke="#bfbfbf" points="622.5,-56.5 622.5,-75.5 657.5,-75.5 657.5,-56.5 622.5,-56.5"/>
<text text-anchor="middle" x="640" y="-63.5" font-family="Helvetica,sans-Serif" font-size="10.00">map</text>
</g>
<!-- Node2&#45;&gt;Node10 -->
<g id="edge9" class="edge"><title>Node2&#45;&gt;Node10</title>
<path fill="none" stroke="midnightblue" d="M571.175,-112.324C583.847,-103.979 603.233,-91.2122 618.206,-81.3524"/>
<polygon fill="midnightblue" stroke="midnightblue" points="620.431,-84.0776 626.858,-75.6545 616.581,-78.2313 620.431,-84.0776"/>
</g>
<!-- Node11 -->
<g id="node11" class="node"><title>Node11</title>
<polygon fill="none" stroke="#bfbfbf" points="675.5,-56.5 675.5,-75.5 718.5,-75.5 718.5,-56.5 675.5,-56.5"/>
<text text-anchor="middle" x="697" y="-63.5" font-family="Helvetica,sans-Serif" font-size="10.00">queue</text>
</g>
<!-- Node2&#45;&gt;Node11 -->
<g id="edge10" class="edge"><title>Node2&#45;&gt;Node11</title>
<path fill="none" stroke="midnightblue" d="M580.025,-112.444C603.104,-103.478 639.562,-89.314 665.641,-79.1827"/>
<polygon fill="midnightblue" stroke="midnightblue" points="667.024,-82.4002 675.078,-75.5164 664.489,-75.8753 667.024,-82.4002"/>
</g>
<!-- Node12 -->
<g id="node12" class="node"><title>Node12</title>
<polygon fill="none" stroke="#bfbfbf" points="736.5,-56.5 736.5,-75.5 771.5,-75.5 771.5,-56.5 736.5,-56.5"/>
<text text-anchor="middle" x="754" y="-63.5" font-family="Helvetica,sans-Serif" font-size="10.00">ratio</text>
</g>
<!-- Node2&#45;&gt;Node12 -->
<g id="edge11" class="edge"><title>Node2&#45;&gt;Node12</title>
<path fill="none" stroke="midnightblue" d="M592.484,-112.48C624.752,-104.361 674.493,-91.4734 726.581,-75.9846"/>
<polygon fill="midnightblue" stroke="midnightblue" points="727.756,-79.2862 736.331,-73.0627 725.747,-72.5809 727.756,-79.2862"/>
</g>
<!-- Node13 -->
<g id="node13" class="node"><title>Node13</title>
<polygon fill="none" stroke="#bfbfbf" points="0,-56.5 0,-75.5 30,-75.5 30,-56.5 0,-56.5"/>
<text text-anchor="middle" x="15" y="-63.5" font-family="Helvetica,sans-Serif" font-size="10.00">set</text>
</g>
<!-- Node2&#45;&gt;Node13 -->
<g id="edge12" class="edge"><title>Node2&#45;&gt;Node13</title>
<path fill="none" stroke="midnightblue" d="M516.71,-121.204C429.668,-120.829 221.15,-115.68 40.0138,-75.5993"/>
<polygon fill="midnightblue" stroke="midnightblue" points="40.5695,-72.1368 30.0445,-73.3513 39.0297,-78.9654 40.5695,-72.1368"/>
</g>
<!-- Node14 -->
<g id="node14" class="node"><title>Node14</title>
<polygon fill="none" stroke="#bfbfbf" points="789.5,-56.5 789.5,-75.5 830.5,-75.5 830.5,-56.5 789.5,-56.5"/>
<text text-anchor="middle" x="810" y="-63.5" font-family="Helvetica,sans-Serif" font-size="10.00">string</text>
</g>
<!-- Node2&#45;&gt;Node14 -->
<g id="edge13" class="edge"><title>Node2&#45;&gt;Node14</title>
<path fill="none" stroke="midnightblue" d="M599.169,-113.821C641.918,-106.107 710.897,-92.9395 779.706,-75.8795"/>
<polygon fill="midnightblue" stroke="midnightblue" points="780.563,-79.2731 789.412,-73.4466 778.861,-72.4832 780.563,-79.2731"/>
</g>
<!-- Node15 -->
<g id="node15" class="node"><title>Node15</title>
<polygon fill="none" stroke="#bfbfbf" points="48,-56.5 48,-75.5 110,-75.5 110,-56.5 48,-56.5"/>
<text text-anchor="middle" x="79" y="-63.5" font-family="Helvetica,sans-Serif" font-size="10.00">type_traits</text>
</g>
<!-- Node2&#45;&gt;Node15 -->
<g id="edge14" class="edge"><title>Node2&#45;&gt;Node15</title>
<path fill="none" stroke="midnightblue" d="M516.932,-118.431C440.657,-113.304 271.828,-100.293 120.327,-76.0438"/>
<polygon fill="midnightblue" stroke="midnightblue" points="120.805,-72.5758 110.374,-74.4303 119.685,-79.4856 120.805,-72.5758"/>
</g>
<!-- Node16 -->
<g id="node16" class="node"><title>Node16</title>
<polygon fill="none" stroke="#bfbfbf" points="128,-56.5 128,-75.5 166,-75.5 166,-56.5 128,-56.5"/>
<text text-anchor="middle" x="147" y="-63.5" font-family="Helvetica,sans-Serif" font-size="10.00">tuple</text>
</g>
<!-- Node2&#45;&gt;Node16 -->
<g id="edge15" class="edge"><title>Node2&#45;&gt;Node16</title>
<path fill="none" stroke="midnightblue" d="M516.758,-118.784C447.898,-114.516 305.157,-103.248 176.195,-75.8678"/>
<polygon fill="midnightblue" stroke="midnightblue" points="176.66,-72.3873 166.146,-73.6948 175.18,-79.2292 176.66,-72.3873"/>
</g>
<!-- Node17 -->
<g id="node17" class="node"><title>Node17</title>
<polygon fill="none" stroke="#bfbfbf" points="184,-56.5 184,-75.5 224,-75.5 224,-56.5 184,-56.5"/>
<text text-anchor="middle" x="204" y="-63.5" font-family="Helvetica,sans-Serif" font-size="10.00">utility</text>
</g>
<!-- Node2&#45;&gt;Node17 -->
<g id="edge16" class="edge"><title>Node2&#45;&gt;Node17</title>
<path fill="none" stroke="midnightblue" d="M516.829,-117.474C456.643,-111.847 341.043,-99.2489 234.152,-75.9356"/>
<polygon fill="midnightblue" stroke="midnightblue" points="234.689,-72.4697 224.168,-73.7207 233.173,-79.3036 234.689,-72.4697"/>
</g>
<!-- Node18 -->
<g id="node18" class="node"><title>Node18</title>
<g id="a_node18"><a xlink:href="_math_helper_8h.html" target="_top" xlink:title="../mt/MathHelper.h">
<polygon fill="none" stroke="black" points="849,-56.5 849,-75.5 947,-75.5 947,-56.5 849,-56.5"/>
<text text-anchor="middle" x="898" y="-63.5" font-family="Helvetica,sans-Serif" font-size="10.00">../mt/MathHelper.h</text>
</a>
</g>
</g>
<!-- Node2&#45;&gt;Node18 -->
<g id="edge17" class="edge"><title>Node2&#45;&gt;Node18</title>
<path fill="none" stroke="midnightblue" d="M599.012,-114.486C658.735,-105.001 769.982,-87.3323 838.647,-76.4266"/>
<polygon fill="midnightblue" stroke="midnightblue" points="839.545,-79.8279 848.872,-74.8026 838.447,-72.9146 839.545,-79.8279"/>
</g>
<!-- Node19 -->
<g id="node19" class="node"><title>Node19</title>
<polygon fill="none" stroke="#bfbfbf" points="865.5,-0.5 865.5,-19.5 930.5,-19.5 930.5,-0.5 865.5,-0.5"/>
<text text-anchor="middle" x="898" y="-7.5" font-family="Helvetica,sans-Serif" font-size="10.00">Windows.h</text>
</g>
<!-- Node18&#45;&gt;Node19 -->
<g id="edge18" class="edge"><title>Node18&#45;&gt;Node19</title>
<path fill="none" stroke="midnightblue" d="M898,-56.083C898,-49.0059 898,-38.8611 898,-29.9865"/>
<polygon fill="midnightblue" stroke="midnightblue" points="901.5,-29.751 898,-19.7511 894.5,-29.7511 901.5,-29.751"/>
</g>
<!-- Node20 -->
<g id="node20" class="node"><title>Node20</title>
<polygon fill="none" stroke="#bfbfbf" points="961.5,-0.5 961.5,-19.5 1038.5,-19.5 1038.5,-0.5 961.5,-0.5"/>
<text text-anchor="middle" x="1000" y="-7.5" font-family="Helvetica,sans-Serif" font-size="10.00">DirectXMath.h</text>
</g>
<!-- Node18&#45;&gt;Node20 -->
<g id="edge19" class="edge"><title>Node18&#45;&gt;Node20</title>
<path fill="none" stroke="midnightblue" d="M914.388,-56.324C930.671,-47.7034 955.867,-34.3643 974.716,-24.3855"/>
<polygon fill="midnightblue" stroke="midnightblue" points="976.452,-27.4267 983.653,-19.6545 973.177,-21.2402 976.452,-27.4267"/>
</g>
<!-- Node21 -->
<g id="node21" class="node"><title>Node21</title>
<polygon fill="none" stroke="#bfbfbf" points="1083,-0.5 1083,-19.5 1129,-19.5 1129,-0.5 1083,-0.5"/>
<text text-anchor="middle" x="1106" y="-7.5" font-family="Helvetica,sans-Serif" font-size="10.00">cstdint</text>
</g>
<!-- Node18&#45;&gt;Node21 -->
<g id="edge20" class="edge"><title>Node18&#45;&gt;Node21</title>
<path fill="none" stroke="midnightblue" d="M930.958,-56.4435C969.865,-46.3426 1034.18,-29.6449 1073.08,-19.5478"/>
<polygon fill="midnightblue" stroke="midnightblue" points="1074.06,-22.909 1082.86,-17.0084 1072.3,-16.1336 1074.06,-22.909"/>
</g>
<!-- Node22&#45;&gt;Node2 -->
<g id="edge22" class="edge"><title>Node22&#45;&gt;Node2</title>
<path fill="none" stroke="midnightblue" d="M1466.49,-175.413C1336.36,-167.906 781.674,-135.904 609.312,-125.96"/>
<polygon fill="midnightblue" stroke="midnightblue" points="609.419,-122.461 599.234,-125.379 609.016,-129.449 609.419,-122.461"/>
</g>
<!-- Node22&#45;&gt;Node3 -->
<g id="edge34" class="edge"><title>Node22&#45;&gt;Node3</title>
<path fill="none" stroke="midnightblue" d="M1466.25,-176.438C1367.29,-174.169 1035.73,-164.205 1002,-132 989.786,-120.34 988.699,-100.393 989.948,-85.6631"/>
<polygon fill="midnightblue" stroke="midnightblue" points="993.433,-85.9996 991.213,-75.64 986.488,-85.1229 993.433,-85.9996"/>
</g>
<!-- Node22&#45;&gt;Node14 -->
<g id="edge32" class="edge"><title>Node22&#45;&gt;Node14</title>
<path fill="none" stroke="midnightblue" d="M1466.4,-176.041C1369.71,-172.477 1046.73,-158.801 947,-132 904.431,-120.56 858.94,-96.2785 832.56,-80.8477"/>
<polygon fill="midnightblue" stroke="midnightblue" points="834.13,-77.7091 823.746,-75.6032 830.55,-83.7246 834.13,-77.7091"/>
</g>
<!-- Node22&#45;&gt;Node18 -->
<g id="edge49" class="edge"><title>Node22&#45;&gt;Node18</title>
<path fill="none" stroke="midnightblue" d="M1466.38,-176.464C1374.04,-174.377 1076.93,-165.179 988,-132 958.825,-121.115 930.629,-98.0803 913.796,-82.5666"/>
<polygon fill="midnightblue" stroke="midnightblue" points="916.156,-79.9812 906.491,-75.6411 911.34,-85.0612 916.156,-79.9812"/>
</g>
<!-- Node22&#45;&gt;Node20 -->
<g id="edge28" class="edge"><title>Node22&#45;&gt;Node20</title>
<path fill="none" stroke="midnightblue" d="M1466.42,-176.331C1371.88,-173.767 1065.11,-163.095 1035,-132 1011.45,-107.684 1040.87,-88.0587 1030,-56 1026.5,-45.6821 1020.01,-35.4728 1013.96,-27.3933"/>
<polygon fill="midnightblue" stroke="midnightblue" points="1016.69,-25.2058 1007.73,-19.5578 1011.21,-29.563 1016.69,-25.2058"/>
</g>
<!-- Node22&#45;&gt;Node21 -->
<g id="edge38" class="edge"><title>Node22&#45;&gt;Node21</title>
<path fill="none" stroke="midnightblue" d="M1466.38,-176.878C1394.1,-176.021 1201.55,-170.128 1153,-132 1121.05,-106.91 1110.79,-57.1651 1107.52,-29.9229"/>
<polygon fill="midnightblue" stroke="midnightblue" points="1110.98,-29.3637 1106.5,-19.7628 1104.02,-30.0621 1110.98,-29.3637"/>
</g>
<!-- Node23 -->
<g id="node23" class="node"><title>Node23</title>
<polygon fill="none" stroke="#bfbfbf" points="1044,-112.5 1044,-131.5 1106,-131.5 1106,-112.5 1044,-112.5"/>
<text text-anchor="middle" x="1075" y="-119.5" font-family="Helvetica,sans-Serif" font-size="10.00">windows.h</text>
</g>
<!-- Node22&#45;&gt;Node23 -->
<g id="edge23" class="edge"><title>Node22&#45;&gt;Node23</title>
<path fill="none" stroke="midnightblue" d="M1466.22,-174.402C1404,-168.423 1248.83,-152.602 1120,-132 1118.9,-131.824 1117.78,-131.64 1116.66,-131.45"/>
<polygon fill="midnightblue" stroke="midnightblue" points="1116.88,-127.933 1106.42,-129.606 1115.64,-134.823 1116.88,-127.933"/>
</g>
<!-- Node24 -->
<g id="node24" class="node"><title>Node24</title>
<polygon fill="none" stroke="#bfbfbf" points="2207.5,-56.5 2207.5,-75.5 2244.5,-75.5 2244.5,-56.5 2207.5,-56.5"/>
<text text-anchor="middle" x="2226" y="-63.5" font-family="Helvetica,sans-Serif" font-size="10.00">wrl.h</text>
</g>
<!-- Node22&#45;&gt;Node24 -->
<g id="edge24" class="edge"><title>Node22&#45;&gt;Node24</title>
<path fill="none" stroke="midnightblue" d="M1521.62,-177.079C1646.13,-177.195 2151.47,-174.995 2206,-132 2219.74,-121.164 2224.28,-101.087 2225.66,-86.1014"/>
<polygon fill="midnightblue" stroke="midnightblue" points="2229.17,-86.0433 2226.2,-75.872 2222.17,-85.6725 2229.17,-86.0433"/>
</g>
<!-- Node25 -->
<g id="node25" class="node"><title>Node25</title>
<polygon fill="none" stroke="#bfbfbf" points="1162.5,-112.5 1162.5,-131.5 1221.5,-131.5 1221.5,-112.5 1162.5,-112.5"/>
<text text-anchor="middle" x="1192" y="-119.5" font-family="Helvetica,sans-Serif" font-size="10.00">dxgi1_4.h</text>
</g>
<!-- Node22&#45;&gt;Node25 -->
<g id="edge25" class="edge"><title>Node22&#45;&gt;Node25</title>
<path fill="none" stroke="midnightblue" d="M1466.46,-172.467C1419.23,-164.632 1319.76,-147.868 1236,-132 1234.56,-131.728 1233.1,-131.447 1231.63,-131.161"/>
<polygon fill="midnightblue" stroke="midnightblue" points="1232.29,-127.724 1221.8,-129.217 1230.93,-134.591 1232.29,-127.724"/>
</g>
<!-- Node26 -->
<g id="node26" class="node"><title>Node26</title>
<polygon fill="none" stroke="#bfbfbf" points="2258.5,-0.5 2258.5,-19.5 2309.5,-19.5 2309.5,-0.5 2258.5,-0.5"/>
<text text-anchor="middle" x="2284" y="-7.5" font-family="Helvetica,sans-Serif" font-size="10.00">d3d12.h</text>
</g>
<!-- Node22&#45;&gt;Node26 -->
<g id="edge26" class="edge"><title>Node22&#45;&gt;Node26</title>
<path fill="none" stroke="midnightblue" d="M1521.75,-176.595C1669.69,-174.314 2360.02,-162.079 2393,-132 2418.09,-109.112 2420.23,-83.9972 2401,-56 2382.86,-29.5938 2346.9,-18.6766 2319.61,-14.1666"/>
<polygon fill="midnightblue" stroke="midnightblue" points="2320.03,-10.6905 2309.63,-12.7329 2319.03,-17.6193 2320.03,-10.6905"/>
</g>
<!-- Node27 -->
<g id="node27" class="node"><title>Node27</title>
<polygon fill="none" stroke="#bfbfbf" points="1278,-112.5 1278,-131.5 1358,-131.5 1358,-112.5 1278,-112.5"/>
<text text-anchor="middle" x="1318" y="-119.5" font-family="Helvetica,sans-Serif" font-size="10.00">D3Dcompiler.h</text>
</g>
<!-- Node22&#45;&gt;Node27 -->
<g id="edge27" class="edge"><title>Node22&#45;&gt;Node27</title>
<path fill="none" stroke="midnightblue" d="M1466.11,-168.444C1436.25,-159.28 1388.69,-144.688 1355.54,-134.519"/>
<polygon fill="midnightblue" stroke="midnightblue" points="1356.34,-131.104 1345.76,-131.516 1354.29,-137.796 1356.34,-131.104"/>
</g>
<!-- Node28 -->
<g id="node28" class="node"><title>Node28</title>
<polygon fill="none" stroke="#bfbfbf" points="1376.5,-112.5 1376.5,-131.5 1493.5,-131.5 1493.5,-112.5 1376.5,-112.5"/>
<text text-anchor="middle" x="1435" y="-119.5" font-family="Helvetica,sans-Serif" font-size="10.00">DirectXPackedVector.h</text>
</g>
<!-- Node22&#45;&gt;Node28 -->
<g id="edge29" class="edge"><title>Node22&#45;&gt;Node28</title>
<path fill="none" stroke="midnightblue" d="M1484.52,-168.324C1475.8,-160.341 1462.66,-148.313 1452.1,-138.653"/>
<polygon fill="midnightblue" stroke="midnightblue" points="1454.39,-136.004 1444.65,-131.834 1449.67,-141.167 1454.39,-136.004"/>
</g>
<!-- Node29 -->
<g id="node29" class="node"><title>Node29</title>
<polygon fill="none" stroke="#bfbfbf" points="1511.5,-112.5 1511.5,-131.5 1594.5,-131.5 1594.5,-112.5 1511.5,-112.5"/>
<text text-anchor="middle" x="1553" y="-119.5" font-family="Helvetica,sans-Serif" font-size="10.00">DirectXColors.h</text>
</g>
<!-- Node22&#45;&gt;Node29 -->
<g id="edge30" class="edge"><title>Node22&#45;&gt;Node29</title>
<path fill="none" stroke="midnightblue" d="M1503.48,-168.324C1512.2,-160.341 1525.34,-148.313 1535.9,-138.653"/>
<polygon fill="midnightblue" stroke="midnightblue" points="1538.33,-141.167 1543.35,-131.834 1533.61,-136.004 1538.33,-141.167"/>
</g>
<!-- Node30 -->
<g id="node30" class="node"><title>Node30</title>
<polygon fill="none" stroke="#bfbfbf" points="1613,-112.5 1613,-131.5 1705,-131.5 1705,-112.5 1613,-112.5"/>
<text text-anchor="middle" x="1659" y="-119.5" font-family="Helvetica,sans-Serif" font-size="10.00">DirectXCollision.h</text>
</g>
<!-- Node22&#45;&gt;Node30 -->
<g id="edge31" class="edge"><title>Node22&#45;&gt;Node30</title>
<path fill="none" stroke="midnightblue" d="M1520.14,-168.444C1548.02,-159.32 1592.35,-144.813 1623.4,-134.651"/>
<polygon fill="midnightblue" stroke="midnightblue" points="1624.56,-137.953 1632.98,-131.516 1622.38,-131.3 1624.56,-137.953"/>
</g>
<!-- Node31 -->
<g id="node31" class="node"><title>Node31</title>
<polygon fill="none" stroke="#bfbfbf" points="1723,-112.5 1723,-131.5 1775,-131.5 1775,-112.5 1723,-112.5"/>
<text text-anchor="middle" x="1749" y="-119.5" font-family="Helvetica,sans-Serif" font-size="10.00">memory</text>
</g>
<!-- Node22&#45;&gt;Node31 -->
<g id="edge33" class="edge"><title>Node22&#45;&gt;Node31</title>
<path fill="none" stroke="midnightblue" d="M1521.53,-171.826C1561.49,-164.219 1638.1,-149.263 1712.64,-132.229"/>
<polygon fill="midnightblue" stroke="midnightblue" points="1713.7,-135.576 1722.66,-129.923 1712.13,-128.755 1713.7,-135.576"/>
</g>
<!-- Node32 -->
<g id="node32" class="node"><title>Node32</title>
<polygon fill="none" stroke="#bfbfbf" points="1793,-112.5 1793,-131.5 1835,-131.5 1835,-112.5 1793,-112.5"/>
<text text-anchor="middle" x="1814" y="-119.5" font-family="Helvetica,sans-Serif" font-size="10.00">vector</text>
</g>
<!-- Node22&#45;&gt;Node32 -->
<g id="edge35" class="edge"><title>Node22&#45;&gt;Node32</title>
<path fill="none" stroke="midnightblue" d="M1521.83,-173.974C1572.15,-168.225 1681.71,-154.447 1783.01,-131.96"/>
<polygon fill="midnightblue" stroke="midnightblue" points="1783.8,-135.369 1792.79,-129.756 1782.27,-128.541 1783.8,-135.369"/>
</g>
<!-- Node33 -->
<g id="node33" class="node"><title>Node33</title>
<polygon fill="none" stroke="#bfbfbf" points="1853,-112.5 1853,-131.5 1891,-131.5 1891,-112.5 1853,-112.5"/>
<text text-anchor="middle" x="1872" y="-119.5" font-family="Helvetica,sans-Serif" font-size="10.00">array</text>
</g>
<!-- Node22&#45;&gt;Node33 -->
<g id="edge36" class="edge"><title>Node22&#45;&gt;Node33</title>
<path fill="none" stroke="midnightblue" d="M1521.52,-175.183C1579.41,-170.997 1718.04,-159.057 1842.75,-131.906"/>
<polygon fill="midnightblue" stroke="midnightblue" points="1843.84,-135.248 1852.85,-129.667 1842.33,-128.414 1843.84,-135.248"/>
</g>
<!-- Node34 -->
<g id="node34" class="node"><title>Node34</title>
<polygon fill="none" stroke="#bfbfbf" points="1909.5,-112.5 1909.5,-131.5 1992.5,-131.5 1992.5,-112.5 1909.5,-112.5"/>
<text text-anchor="middle" x="1951" y="-119.5" font-family="Helvetica,sans-Serif" font-size="10.00">unordered_map</text>
</g>
<!-- Node22&#45;&gt;Node34 -->
<g id="edge37" class="edge"><title>Node22&#45;&gt;Node34</title>
<path fill="none" stroke="midnightblue" d="M1521.65,-174.554C1585.92,-168.736 1750.58,-153.074 1899.08,-132.044"/>
<polygon fill="midnightblue" stroke="midnightblue" points="1899.88,-135.465 1909.29,-130.586 1898.89,-128.535 1899.88,-135.465"/>
</g>
<!-- Node35 -->
<g id="node35" class="node"><title>Node35</title>
<polygon fill="none" stroke="#bfbfbf" points="2010.5,-112.5 2010.5,-131.5 2059.5,-131.5 2059.5,-112.5 2010.5,-112.5"/>
<text text-anchor="middle" x="2035" y="-119.5" font-family="Helvetica,sans-Serif" font-size="10.00">fstream</text>
</g>
<!-- Node22&#45;&gt;Node35 -->
<g id="edge39" class="edge"><title>Node22&#45;&gt;Node35</title>
<path fill="none" stroke="midnightblue" d="M1521.69,-176.197C1597.06,-173.661 1812.22,-164.101 2000.16,-131.833"/>
<polygon fill="midnightblue" stroke="midnightblue" points="2000.98,-135.245 2010.23,-130.079 1999.77,-128.349 2000.98,-135.245"/>
</g>
<!-- Node36 -->
<g id="node36" class="node"><title>Node36</title>
<polygon fill="none" stroke="#bfbfbf" points="2078,-112.5 2078,-131.5 2130,-131.5 2130,-112.5 2078,-112.5"/>
<text text-anchor="middle" x="2104" y="-119.5" font-family="Helvetica,sans-Serif" font-size="10.00">sstream</text>
</g>
<!-- Node22&#45;&gt;Node36 -->
<g id="edge40" class="edge"><title>Node22&#45;&gt;Node36</title>
<path fill="none" stroke="midnightblue" d="M1521.68,-176.463C1603.62,-174.531 1852.16,-166.195 2067.84,-131.706"/>
<polygon fill="midnightblue" stroke="midnightblue" points="2068.45,-135.153 2077.76,-130.097 2067.33,-128.243 2068.45,-135.153"/>
</g>
<!-- Node37 -->
<g id="node37" class="node"><title>Node37</title>
<polygon fill="none" stroke="#bfbfbf" points="2148.5,-112.5 2148.5,-131.5 2197.5,-131.5 2197.5,-112.5 2148.5,-112.5"/>
<text text-anchor="middle" x="2173" y="-119.5" font-family="Helvetica,sans-Serif" font-size="10.00">cassert</text>
</g>
<!-- Node22&#45;&gt;Node37 -->
<g id="edge41" class="edge"><title>Node22&#45;&gt;Node37</title>
<path fill="none" stroke="midnightblue" d="M1521.56,-176.933C1609.97,-176.328 1894.37,-171.362 2138.12,-131.8"/>
<polygon fill="midnightblue" stroke="midnightblue" points="2138.94,-135.213 2148.24,-130.135 2137.8,-128.306 2138.94,-135.213"/>
</g>
<!-- Node38 -->
<g id="node38" class="node"><title>Node38</title>
<g id="a_node38"><a xlink:href="d3dx12_8h.html" target="_top" xlink:title="../mt/d3dx12.h">
<polygon fill="none" stroke="black" points="2109,-56.5 2109,-75.5 2189,-75.5 2189,-56.5 2109,-56.5"/>
<text text-anchor="middle" x="2149" y="-63.5" font-family="Helvetica,sans-Serif" font-size="10.00">../mt/d3dx12.h</text>
</a>
</g>
</g>
<!-- Node22&#45;&gt;Node38 -->
<g id="edge42" class="edge"><title>Node22&#45;&gt;Node38</title>
<path fill="none" stroke="midnightblue" d="M1466.31,-177.472C1394.36,-177.867 1210.96,-173.089 1269,-112 1297.73,-81.7605 1916.46,-70.3816 2098.84,-67.6774"/>
<polygon fill="midnightblue" stroke="midnightblue" points="2099.01,-71.1753 2108.96,-67.5296 2098.91,-64.1761 2099.01,-71.1753"/>
</g>
<!-- Node39 -->
<g id="node39" class="node"><title>Node39</title>
<g id="a_node39"><a xlink:href="_d_d_s_texture_loader_8h.html" target="_top" xlink:title="../mt/DDSTextureLoader.h">
<polygon fill="none" stroke="black" points="2254,-112.5 2254,-131.5 2384,-131.5 2384,-112.5 2254,-112.5"/>
<text text-anchor="middle" x="2319" y="-119.5" font-family="Helvetica,sans-Serif" font-size="10.00">../mt/DDSTextureLoader.h</text>
</a>
</g>
</g>
<!-- Node22&#45;&gt;Node39 -->
<g id="edge44" class="edge"><title>Node22&#45;&gt;Node39</title>
<path fill="none" stroke="midnightblue" d="M1521.81,-175.857C1620.09,-171.703 1960.15,-156.364 2240,-132 2241.28,-131.889 2242.56,-131.774 2243.86,-131.656"/>
<polygon fill="midnightblue" stroke="midnightblue" points="2244.31,-135.129 2253.93,-130.691 2243.64,-128.161 2244.31,-135.129"/>
</g>
<!-- Node38&#45;&gt;Node26 -->
<g id="edge43" class="edge"><title>Node38&#45;&gt;Node26</title>
<path fill="none" stroke="midnightblue" d="M2170.39,-56.4435C2192.71,-47.5171 2227.9,-33.4387 2253.21,-23.3168"/>
<polygon fill="midnightblue" stroke="midnightblue" points="2254.72,-26.4801 2262.71,-19.5164 2252.12,-19.9807 2254.72,-26.4801"/>
</g>
<!-- Node39&#45;&gt;Node24 -->
<g id="edge45" class="edge"><title>Node39&#45;&gt;Node24</title>
<path fill="none" stroke="midnightblue" d="M2304.06,-112.324C2289.41,-103.822 2266.87,-90.7288 2249.76,-80.7975"/>
<polygon fill="midnightblue" stroke="midnightblue" points="2251.31,-77.6491 2240.9,-75.6545 2247.8,-83.7027 2251.31,-77.6491"/>
</g>
<!-- Node39&#45;&gt;Node38 -->
<g id="edge47" class="edge"><title>Node39&#45;&gt;Node38</title>
<path fill="none" stroke="midnightblue" d="M2292.06,-112.444C2263.34,-103.32 2217.67,-88.8133 2185.68,-78.6509"/>
<polygon fill="midnightblue" stroke="midnightblue" points="2186.4,-75.2081 2175.81,-75.5164 2184.28,-81.8797 2186.4,-75.2081"/>
</g>
<!-- Node40 -->
<g id="node40" class="node"><title>Node40</title>
<polygon fill="none" stroke="#bfbfbf" points="2330,-56.5 2330,-75.5 2392,-75.5 2392,-56.5 2330,-56.5"/>
<text text-anchor="middle" x="2361" y="-63.5" font-family="Helvetica,sans-Serif" font-size="10.00">d3d11_1.h</text>
</g>
<!-- Node39&#45;&gt;Node40 -->
<g id="edge46" class="edge"><title>Node39&#45;&gt;Node40</title>
<path fill="none" stroke="midnightblue" d="M2325.94,-112.083C2331.93,-104.377 2340.75,-93.0333 2348.05,-83.6531"/>
<polygon fill="midnightblue" stroke="midnightblue" points="2350.82,-85.7934 2354.19,-75.7511 2345.29,-81.4958 2350.82,-85.7934"/>
</g>
<!-- Node41 -->
<g id="node41" class="node"><title>Node41</title>
<polygon fill="none" stroke="#bfbfbf" points="2262.5,-56.5 2262.5,-75.5 2311.5,-75.5 2311.5,-56.5 2262.5,-56.5"/>
<text text-anchor="middle" x="2287" y="-63.5" font-family="Helvetica,sans-Serif" font-size="10.00">stdint.h</text>
</g>
<!-- Node39&#45;&gt;Node41 -->
<g id="edge48" class="edge"><title>Node39&#45;&gt;Node41</title>
<path fill="none" stroke="midnightblue" d="M2313.72,-112.083C2309.29,-104.613 2302.84,-93.7244 2297.38,-84.5199"/>
<polygon fill="midnightblue" stroke="midnightblue" points="2300.29,-82.5697 2292.19,-75.7511 2294.27,-86.1383 2300.29,-82.5697"/>
</g>
</g>
</svg>
