<?xml version="1.0" encoding="UTF-8" standalone="no"?>
<!DOCTYPE svg PUBLIC "-//W3C//DTD SVG 1.1//EN"
 "http://www.w3.org/Graphics/SVG/1.1/DTD/svg11.dtd">
<!-- Generated by graphviz version 2.38.0 (20140413.2041)
 -->
<!-- Title: C:/Users/micho/Desktop/mt_engine/mt/Command.cpp Pages: 1 -->
<svg width="2128pt" height="442pt"
 viewBox="0.00 0.00 2128.00 442.00" xmlns="http://www.w3.org/2000/svg" xmlns:xlink="http://www.w3.org/1999/xlink">
<g id="graph0" class="graph" transform="scale(1 1) rotate(0) translate(4 438)">
<title>C:/Users/micho/Desktop/mt_engine/mt/Command.cpp</title>
<!-- Node1 -->
<g id="node1" class="node"><title>Node1</title>
<polygon fill="#bfbfbf" stroke="black" points="253.5,-403.5 253.5,-433.5 398.5,-433.5 398.5,-403.5 253.5,-403.5"/>
<text text-anchor="start" x="261.5" y="-421.5" font-family="Helvetica,sans-Serif" font-size="10.00">C:/Users/micho/Desktop</text>
<text text-anchor="middle" x="326" y="-410.5" font-family="Helvetica,sans-Serif" font-size="10.00">/mt_engine/mt/Command.cpp</text>
</g>
<!-- Node2 -->
<g id="node2" class="node"><title>Node2</title>
<g id="a_node2"><a xlink:href="_command_8hpp.html" target="_top" xlink:title="../mt/Command.hpp">
<polygon fill="none" stroke="black" points="213.5,-347.5 213.5,-366.5 316.5,-366.5 316.5,-347.5 213.5,-347.5"/>
<text text-anchor="middle" x="265" y="-354.5" font-family="Helvetica,sans-Serif" font-size="10.00">../mt/Command.hpp</text>
</a>
</g>
</g>
<!-- Node1&#45;&gt;Node2 -->
<g id="edge1" class="edge"><title>Node1&#45;&gt;Node2</title>
<path fill="none" stroke="midnightblue" d="M311.544,-403.399C302.406,-394.486 290.581,-382.952 281.138,-373.741"/>
<polygon fill="midnightblue" stroke="midnightblue" points="283.478,-371.135 273.876,-366.658 278.591,-376.146 283.478,-371.135"/>
</g>
<!-- Node23 -->
<g id="node23" class="node"><title>Node23</title>
<g id="a_node23"><a xlink:href="engine_8hpp.html" target="_top" xlink:title="../mt/engine.hpp">
<polygon fill="none" stroke="black" points="343.5,-347.5 343.5,-366.5 430.5,-366.5 430.5,-347.5 343.5,-347.5"/>
<text text-anchor="middle" x="387" y="-354.5" font-family="Helvetica,sans-Serif" font-size="10.00">../mt/engine.hpp</text>
</a>
</g>
</g>
<!-- Node1&#45;&gt;Node23 -->
<g id="edge22" class="edge"><title>Node1&#45;&gt;Node23</title>
<path fill="none" stroke="midnightblue" d="M340.456,-403.399C349.594,-394.486 361.419,-382.952 370.862,-373.741"/>
<polygon fill="midnightblue" stroke="midnightblue" points="373.409,-376.146 378.124,-366.658 368.522,-371.135 373.409,-376.146"/>
</g>
<!-- Node3 -->
<g id="node3" class="node"><title>Node3</title>
<g id="a_node3"><a xlink:href="utility_8hpp.html" target="_top" xlink:title="../mt/utility.hpp">
<polygon fill="none" stroke="black" points="364,-112.5 364,-131.5 446,-131.5 446,-112.5 364,-112.5"/>
<text text-anchor="middle" x="405" y="-119.5" font-family="Helvetica,sans-Serif" font-size="10.00">../mt/utility.hpp</text>
</a>
</g>
</g>
<!-- Node2&#45;&gt;Node3 -->
<g id="edge2" class="edge"><title>Node2&#45;&gt;Node3</title>
<path fill="none" stroke="midnightblue" d="M265.69,-347.214C266.96,-334.36 270.379,-309.906 279,-291 307.498,-228.502 362.294,-167.003 389.245,-138.882"/>
<polygon fill="midnightblue" stroke="midnightblue" points="391.9,-141.172 396.36,-131.561 386.88,-136.293 391.9,-141.172"/>
</g>
<!-- Node4 -->
<g id="node4" class="node"><title>Node4</title>
<polygon fill="none" stroke="#bfbfbf" points="1085,-56.5 1085,-75.5 1141,-75.5 1141,-56.5 1085,-56.5"/>
<text text-anchor="middle" x="1113" y="-63.5" font-family="Helvetica,sans-Serif" font-size="10.00">algorithm</text>
</g>
<!-- Node3&#45;&gt;Node4 -->
<g id="edge3" class="edge"><title>Node3&#45;&gt;Node4</title>
<path fill="none" stroke="midnightblue" d="M446.146,-113.224C449.137,-112.773 452.111,-112.358 455,-112 516.412,-104.396 943.298,-77.5467 1074.64,-69.3765"/>
<polygon fill="midnightblue" stroke="midnightblue" points="1075.23,-72.8462 1085,-68.7325 1074.8,-65.8596 1075.23,-72.8462"/>
</g>
<!-- Node5 -->
<g id="node5" class="node"><title>Node5</title>
<polygon fill="none" stroke="#bfbfbf" points="0,-56.5 0,-75.5 46,-75.5 46,-56.5 0,-56.5"/>
<text text-anchor="middle" x="23" y="-63.5" font-family="Helvetica,sans-Serif" font-size="10.00">chrono</text>
</g>
<!-- Node3&#45;&gt;Node5 -->
<g id="edge4" class="edge"><title>Node3&#45;&gt;Node5</title>
<path fill="none" stroke="midnightblue" d="M363.996,-117.688C300.098,-112.101 172.813,-99.2657 56.1357,-75.9741"/>
<polygon fill="midnightblue" stroke="midnightblue" points="56.8183,-72.5414 46.3222,-73.9849 55.4276,-79.4019 56.8183,-72.5414"/>
</g>
<!-- Node6 -->
<g id="node6" class="node"><title>Node6</title>
<polygon fill="none" stroke="#bfbfbf" points="184,-56.5 184,-75.5 228,-75.5 228,-56.5 184,-56.5"/>
<text text-anchor="middle" x="206" y="-63.5" font-family="Helvetica,sans-Serif" font-size="10.00">cmath</text>
</g>
<!-- Node3&#45;&gt;Node6 -->
<g id="edge5" class="edge"><title>Node3&#45;&gt;Node6</title>
<path fill="none" stroke="midnightblue" d="M372.425,-112.49C340.524,-104.108 290.294,-90.7849 238.1,-76.2682"/>
<polygon fill="midnightblue" stroke="midnightblue" points="238.908,-72.8601 228.335,-73.5446 237.027,-79.6027 238.908,-72.8601"/>
</g>
<!-- Node7 -->
<g id="node7" class="node"><title>Node7</title>
<polygon fill="none" stroke="#bfbfbf" points="246.5,-56.5 246.5,-75.5 295.5,-75.5 295.5,-56.5 246.5,-56.5"/>
<text text-anchor="middle" x="271" y="-63.5" font-family="Helvetica,sans-Serif" font-size="10.00">cstdarg</text>
</g>
<!-- Node3&#45;&gt;Node7 -->
<g id="edge6" class="edge"><title>Node3&#45;&gt;Node7</title>
<path fill="none" stroke="midnightblue" d="M383.767,-112.444C361.616,-103.517 326.681,-89.4387 301.564,-79.3168"/>
<polygon fill="midnightblue" stroke="midnightblue" points="302.717,-76.0079 292.133,-75.5164 300.1,-82.5006 302.717,-76.0079"/>
</g>
<!-- Node8 -->
<g id="node8" class="node"><title>Node8</title>
<polygon fill="none" stroke="#bfbfbf" points="313.5,-56.5 313.5,-75.5 356.5,-75.5 356.5,-56.5 313.5,-56.5"/>
<text text-anchor="middle" x="335" y="-63.5" font-family="Helvetica,sans-Serif" font-size="10.00">deque</text>
</g>
<!-- Node3&#45;&gt;Node8 -->
<g id="edge7" class="edge"><title>Node3&#45;&gt;Node8</title>
<path fill="none" stroke="midnightblue" d="M393.753,-112.324C383.203,-104.185 367.199,-91.8395 354.558,-82.0874"/>
<polygon fill="midnightblue" stroke="midnightblue" points="356.507,-79.1707 346.451,-75.8339 352.231,-84.7132 356.507,-79.1707"/>
</g>
<!-- Node9 -->
<g id="node9" class="node"><title>Node9</title>
<polygon fill="none" stroke="#bfbfbf" points="374.5,-56.5 374.5,-75.5 435.5,-75.5 435.5,-56.5 374.5,-56.5"/>
<text text-anchor="middle" x="405" y="-63.5" font-family="Helvetica,sans-Serif" font-size="10.00">filesystem</text>
</g>
<!-- Node3&#45;&gt;Node9 -->
<g id="edge8" class="edge"><title>Node3&#45;&gt;Node9</title>
<path fill="none" stroke="midnightblue" d="M405,-112.083C405,-105.006 405,-94.8611 405,-85.9865"/>
<polygon fill="midnightblue" stroke="midnightblue" points="408.5,-85.751 405,-75.7511 401.5,-85.7511 408.5,-85.751"/>
</g>
<!-- Node10 -->
<g id="node10" class="node"><title>Node10</title>
<polygon fill="none" stroke="#bfbfbf" points="453.5,-56.5 453.5,-75.5 482.5,-75.5 482.5,-56.5 453.5,-56.5"/>
<text text-anchor="middle" x="468" y="-63.5" font-family="Helvetica,sans-Serif" font-size="10.00">list</text>
</g>
<!-- Node3&#45;&gt;Node10 -->
<g id="edge9" class="edge"><title>Node3&#45;&gt;Node10</title>
<path fill="none" stroke="midnightblue" d="M415.122,-112.324C424.526,-104.263 438.744,-92.0765 450.069,-82.3695"/>
<polygon fill="midnightblue" stroke="midnightblue" points="452.379,-84.9993 457.694,-75.8339 447.823,-79.6844 452.379,-84.9993"/>
</g>
<!-- Node11 -->
<g id="node11" class="node"><title>Node11</title>
<polygon fill="none" stroke="#bfbfbf" points="500.5,-56.5 500.5,-75.5 535.5,-75.5 535.5,-56.5 500.5,-56.5"/>
<text text-anchor="middle" x="518" y="-63.5" font-family="Helvetica,sans-Serif" font-size="10.00">map</text>
</g>
<!-- Node3&#45;&gt;Node11 -->
<g id="edge10" class="edge"><title>Node3&#45;&gt;Node11</title>
<path fill="none" stroke="midnightblue" d="M422.905,-112.444C441.254,-103.675 470.005,-89.9355 491.094,-79.8579"/>
<polygon fill="midnightblue" stroke="midnightblue" points="492.665,-82.9862 500.179,-75.5164 489.647,-76.6703 492.665,-82.9862"/>
</g>
<!-- Node12 -->
<g id="node12" class="node"><title>Node12</title>
<polygon fill="none" stroke="#bfbfbf" points="64.5,-56.5 64.5,-75.5 107.5,-75.5 107.5,-56.5 64.5,-56.5"/>
<text text-anchor="middle" x="86" y="-63.5" font-family="Helvetica,sans-Serif" font-size="10.00">queue</text>
</g>
<!-- Node3&#45;&gt;Node12 -->
<g id="edge11" class="edge"><title>Node3&#45;&gt;Node12</title>
<path fill="none" stroke="midnightblue" d="M363.675,-116.226C309.387,-109.586 210.966,-96.2809 117.492,-75.8456"/>
<polygon fill="midnightblue" stroke="midnightblue" points="118.11,-72.3976 107.589,-73.6492 116.594,-79.2315 118.11,-72.3976"/>
</g>
<!-- Node13 -->
<g id="node13" class="node"><title>Node13</title>
<polygon fill="none" stroke="#bfbfbf" points="553.5,-56.5 553.5,-75.5 588.5,-75.5 588.5,-56.5 553.5,-56.5"/>
<text text-anchor="middle" x="571" y="-63.5" font-family="Helvetica,sans-Serif" font-size="10.00">ratio</text>
</g>
<!-- Node3&#45;&gt;Node13 -->
<g id="edge12" class="edge"><title>Node3&#45;&gt;Node13</title>
<path fill="none" stroke="midnightblue" d="M431.67,-112.442C457.809,-104.037 499.022,-90.7415 543.705,-76.0769"/>
<polygon fill="midnightblue" stroke="midnightblue" points="544.881,-79.3749 553.289,-72.9282 542.696,-72.7246 544.881,-79.3749"/>
</g>
<!-- Node14 -->
<g id="node14" class="node"><title>Node14</title>
<polygon fill="none" stroke="#bfbfbf" points="607,-56.5 607,-75.5 637,-75.5 637,-56.5 607,-56.5"/>
<text text-anchor="middle" x="622" y="-63.5" font-family="Helvetica,sans-Serif" font-size="10.00">set</text>
</g>
<!-- Node3&#45;&gt;Node14 -->
<g id="edge13" class="edge"><title>Node3&#45;&gt;Node14</title>
<path fill="none" stroke="midnightblue" d="M446.184,-112.785C485.309,-104.643 545.625,-91.2129 597,-76 597.1,-75.9705 597.199,-75.9409 597.299,-75.9111"/>
<polygon fill="midnightblue" stroke="midnightblue" points="598.348,-79.2504 606.756,-72.8032 596.163,-72.6003 598.348,-79.2504"/>
</g>
<!-- Node15 -->
<g id="node15" class="node"><title>Node15</title>
<polygon fill="none" stroke="#bfbfbf" points="907.5,-56.5 907.5,-75.5 948.5,-75.5 948.5,-56.5 907.5,-56.5"/>
<text text-anchor="middle" x="928" y="-63.5" font-family="Helvetica,sans-Serif" font-size="10.00">string</text>
</g>
<!-- Node3&#45;&gt;Node15 -->
<g id="edge14" class="edge"><title>Node3&#45;&gt;Node15</title>
<path fill="none" stroke="midnightblue" d="M446.151,-113.266C449.141,-112.805 452.114,-112.376 455,-112 647.63,-86.8966 702.08,-111.731 897.467,-75.6549"/>
<polygon fill="midnightblue" stroke="midnightblue" points="898.301,-79.0595 907.484,-73.7752 897.01,-72.1796 898.301,-79.0595"/>
</g>
<!-- Node16 -->
<g id="node16" class="node"><title>Node16</title>
<polygon fill="none" stroke="#bfbfbf" points="655,-56.5 655,-75.5 717,-75.5 717,-56.5 655,-56.5"/>
<text text-anchor="middle" x="686" y="-63.5" font-family="Helvetica,sans-Serif" font-size="10.00">type_traits</text>
</g>
<!-- Node3&#45;&gt;Node16 -->
<g id="edge15" class="edge"><title>Node3&#45;&gt;Node16</title>
<path fill="none" stroke="midnightblue" d="M446.189,-113.498C500.698,-103.54 594.88,-86.2222 644.662,-76.2052"/>
<polygon fill="midnightblue" stroke="midnightblue" points="645.481,-79.6103 654.581,-74.1838 644.083,-72.7513 645.481,-79.6103"/>
</g>
<!-- Node17 -->
<g id="node17" class="node"><title>Node17</title>
<polygon fill="none" stroke="#bfbfbf" points="735,-56.5 735,-75.5 773,-75.5 773,-56.5 735,-56.5"/>
<text text-anchor="middle" x="754" y="-63.5" font-family="Helvetica,sans-Serif" font-size="10.00">tuple</text>
</g>
<!-- Node3&#45;&gt;Node17 -->
<g id="edge16" class="edge"><title>Node3&#45;&gt;Node17</title>
<path fill="none" stroke="midnightblue" d="M446.175,-113.434C449.159,-112.933 452.124,-112.45 455,-112 571.879,-93.7276 605.696,-102.218 724.964,-75.8738"/>
<polygon fill="midnightblue" stroke="midnightblue" points="725.855,-79.261 734.845,-73.6556 724.322,-72.431 725.855,-79.261"/>
</g>
<!-- Node18 -->
<g id="node18" class="node"><title>Node18</title>
<polygon fill="none" stroke="#bfbfbf" points="126,-56.5 126,-75.5 166,-75.5 166,-56.5 126,-56.5"/>
<text text-anchor="middle" x="146" y="-63.5" font-family="Helvetica,sans-Serif" font-size="10.00">utility</text>
</g>
<!-- Node3&#45;&gt;Node18 -->
<g id="edge17" class="edge"><title>Node3&#45;&gt;Node18</title>
<path fill="none" stroke="midnightblue" d="M363.99,-114.35C319.833,-106.886 247.37,-93.7648 176.229,-76.0975"/>
<polygon fill="midnightblue" stroke="midnightblue" points="176.755,-72.6206 166.203,-73.5745 175.046,-79.409 176.755,-72.6206"/>
</g>
<!-- Node19 -->
<g id="node19" class="node"><title>Node19</title>
<g id="a_node19"><a xlink:href="_math_helper_8h.html" target="_top" xlink:title="../mt/MathHelper.h">
<polygon fill="none" stroke="black" points="791,-56.5 791,-75.5 889,-75.5 889,-56.5 791,-56.5"/>
<text text-anchor="middle" x="840" y="-63.5" font-family="Helvetica,sans-Serif" font-size="10.00">../mt/MathHelper.h</text>
</a>
</g>
</g>
<!-- Node3&#45;&gt;Node19 -->
<g id="edge18" class="edge"><title>Node3&#45;&gt;Node19</title>
<path fill="none" stroke="midnightblue" d="M446.164,-113.36C449.151,-112.877 452.119,-112.417 455,-112 596.451,-91.5077 635.324,-95.0396 780.777,-76.105"/>
<polygon fill="midnightblue" stroke="midnightblue" points="781.516,-79.538 790.974,-74.7637 780.603,-72.5977 781.516,-79.538"/>
</g>
<!-- Node20 -->
<g id="node20" class="node"><title>Node20</title>
<polygon fill="none" stroke="#bfbfbf" points="807.5,-0.5 807.5,-19.5 872.5,-19.5 872.5,-0.5 807.5,-0.5"/>
<text text-anchor="middle" x="840" y="-7.5" font-family="Helvetica,sans-Serif" font-size="10.00">Windows.h</text>
</g>
<!-- Node19&#45;&gt;Node20 -->
<g id="edge19" class="edge"><title>Node19&#45;&gt;Node20</title>
<path fill="none" stroke="midnightblue" d="M840,-56.083C840,-49.0059 840,-38.8611 840,-29.9865"/>
<polygon fill="midnightblue" stroke="midnightblue" points="843.5,-29.751 840,-19.7511 836.5,-29.7511 843.5,-29.751"/>
</g>
<!-- Node21 -->
<g id="node21" class="node"><title>Node21</title>
<polygon fill="none" stroke="#bfbfbf" points="1356.5,-0.5 1356.5,-19.5 1433.5,-19.5 1433.5,-0.5 1356.5,-0.5"/>
<text text-anchor="middle" x="1395" y="-7.5" font-family="Helvetica,sans-Serif" font-size="10.00">DirectXMath.h</text>
</g>
<!-- Node19&#45;&gt;Node21 -->
<g id="edge20" class="edge"><title>Node19&#45;&gt;Node21</title>
<path fill="none" stroke="midnightblue" d="M889.017,-57.1694C892.054,-56.7539 895.067,-56.36 898,-56 1061.78,-35.899 1256.95,-20.7997 1346.16,-14.3858"/>
<polygon fill="midnightblue" stroke="midnightblue" points="1346.52,-17.8688 1356.25,-13.665 1346.02,-10.8866 1346.52,-17.8688"/>
</g>
<!-- Node22 -->
<g id="node22" class="node"><title>Node22</title>
<polygon fill="none" stroke="#bfbfbf" points="1025,-0.5 1025,-19.5 1071,-19.5 1071,-0.5 1025,-0.5"/>
<text text-anchor="middle" x="1048" y="-7.5" font-family="Helvetica,sans-Serif" font-size="10.00">cstdint</text>
</g>
<!-- Node19&#45;&gt;Node22 -->
<g id="edge21" class="edge"><title>Node19&#45;&gt;Node22</title>
<path fill="none" stroke="midnightblue" d="M872.958,-56.4435C911.865,-46.3426 976.183,-29.6449 1015.08,-19.5478"/>
<polygon fill="midnightblue" stroke="midnightblue" points="1016.06,-22.909 1024.86,-17.0084 1014.3,-16.1336 1016.06,-22.909"/>
</g>
<!-- Node24 -->
<g id="node24" class="node"><title>Node24</title>
<g id="a_node24"><a xlink:href="_game_timer_8hpp.html" target="_top" xlink:title="../mt/GameTimer.hpp">
<polygon fill="none" stroke="black" points="31.5,-112.5 31.5,-131.5 140.5,-131.5 140.5,-112.5 31.5,-112.5"/>
<text text-anchor="middle" x="86" y="-119.5" font-family="Helvetica,sans-Serif" font-size="10.00">../mt/GameTimer.hpp</text>
</a>
</g>
</g>
<!-- Node23&#45;&gt;Node24 -->
<g id="edge23" class="edge"><title>Node23&#45;&gt;Node24</title>
<path fill="none" stroke="midnightblue" d="M371.044,-347.369C355.549,-338.772 331.566,-324.884 312,-311 229.924,-252.759 140.198,-172.695 103.306,-138.985"/>
<polygon fill="midnightblue" stroke="midnightblue" points="105.217,-135.988 95.4829,-131.806 100.484,-141.146 105.217,-135.988"/>
</g>
<!-- Node25 -->
<g id="node25" class="node"><title>Node25</title>
<g id="a_node25"><a xlink:href="_direct_x_renderer_8hpp.html" target="_top" xlink:title="../mt/DirectXRenderer.hpp">
<polygon fill="none" stroke="black" points="795,-291.5 795,-310.5 923,-310.5 923,-291.5 795,-291.5"/>
<text text-anchor="middle" x="859" y="-298.5" font-family="Helvetica,sans-Serif" font-size="10.00">../mt/DirectXRenderer.hpp</text>
</a>
</g>
</g>
<!-- Node23&#45;&gt;Node25 -->
<g id="edge26" class="edge"><title>Node23&#45;&gt;Node25</title>
<path fill="none" stroke="midnightblue" d="M430.559,-351.017C511.313,-341.778 685.084,-321.897 784.732,-310.497"/>
<polygon fill="midnightblue" stroke="midnightblue" points="785.192,-313.967 794.73,-309.353 784.397,-307.012 785.192,-313.967"/>
</g>
<!-- Node47 -->
<g id="node47" class="node"><title>Node47</title>
<g id="a_node47"><a xlink:href="_windows_message_handling_service_8hpp.html" target="_top" xlink:title="../mt/WindowsMessageHandling\lService.hpp">
<polygon fill="none" stroke="black" points="402.5,-224.5 402.5,-254.5 559.5,-254.5 559.5,-224.5 402.5,-224.5"/>
<text text-anchor="start" x="410.5" y="-242.5" font-family="Helvetica,sans-Serif" font-size="10.00">../mt/WindowsMessageHandling</text>
<text text-anchor="middle" x="481" y="-231.5" font-family="Helvetica,sans-Serif" font-size="10.00">Service.hpp</text>
</a>
</g>
</g>
<!-- Node23&#45;&gt;Node47 -->
<g id="edge61" class="edge"><title>Node23&#45;&gt;Node47</title>
<path fill="none" stroke="midnightblue" d="M409.915,-347.439C426.416,-340.148 447.98,-328.112 461,-311 471.129,-297.687 476.13,-279.452 478.597,-264.863"/>
<polygon fill="midnightblue" stroke="midnightblue" points="482.119,-264.946 480.034,-254.559 475.186,-263.98 482.119,-264.946"/>
</g>
<!-- Node50 -->
<g id="node50" class="node"><title>Node50</title>
<g id="a_node50"><a xlink:href="_command_queue_8hpp.html" target="_top" xlink:title="../mt/CommandQueue.hpp">
<polygon fill="none" stroke="black" points="321.5,-291.5 321.5,-310.5 452.5,-310.5 452.5,-291.5 321.5,-291.5"/>
<text text-anchor="middle" x="387" y="-298.5" font-family="Helvetica,sans-Serif" font-size="10.00">../mt/CommandQueue.hpp</text>
</a>
</g>
</g>
<!-- Node23&#45;&gt;Node50 -->
<g id="edge66" class="edge"><title>Node23&#45;&gt;Node50</title>
<path fill="none" stroke="midnightblue" d="M387,-347.083C387,-340.006 387,-329.861 387,-320.986"/>
<polygon fill="midnightblue" stroke="midnightblue" points="390.5,-320.751 387,-310.751 383.5,-320.751 390.5,-320.751"/>
</g>
<!-- Node24&#45;&gt;Node5 -->
<g id="edge24" class="edge"><title>Node24&#45;&gt;Node5</title>
<path fill="none" stroke="midnightblue" d="M75.878,-112.324C66.4736,-104.263 52.2559,-92.0765 40.931,-82.3695"/>
<polygon fill="midnightblue" stroke="midnightblue" points="43.1766,-79.6844 33.3062,-75.8339 38.621,-84.9993 43.1766,-79.6844"/>
</g>
<!-- Node24&#45;&gt;Node12 -->
<g id="edge25" class="edge"><title>Node24&#45;&gt;Node12</title>
<path fill="none" stroke="midnightblue" d="M86,-112.083C86,-105.006 86,-94.8611 86,-85.9865"/>
<polygon fill="midnightblue" stroke="midnightblue" points="89.5001,-85.751 86,-75.7511 82.5001,-85.7511 89.5001,-85.751"/>
</g>
<!-- Node25&#45;&gt;Node15 -->
<g id="edge60" class="edge"><title>Node25&#45;&gt;Node15</title>
<path fill="none" stroke="midnightblue" d="M841.283,-291.428C788.703,-264.899 640.75,-181.733 699,-112 726.122,-79.5309 839.81,-85.5721 897.366,-75.5713"/>
<polygon fill="midnightblue" stroke="midnightblue" points="898.335,-78.9454 907.426,-73.5044 896.926,-72.0886 898.335,-78.9454"/>
</g>
<!-- Node26 -->
<g id="node26" class="node"><title>Node26</title>
<g id="a_node26"><a xlink:href="d3d_util_8h.html" target="_top" xlink:title="../mt/d3dUtil.h">
<polygon fill="none" stroke="black" points="1145,-168.5 1145,-187.5 1223,-187.5 1223,-168.5 1145,-168.5"/>
<text text-anchor="middle" x="1184" y="-175.5" font-family="Helvetica,sans-Serif" font-size="10.00">../mt/d3dUtil.h</text>
</a>
</g>
</g>
<!-- Node25&#45;&gt;Node26 -->
<g id="edge27" class="edge"><title>Node25&#45;&gt;Node26</title>
<path fill="none" stroke="midnightblue" d="M923.097,-297.356C973.218,-293.128 1043.47,-282.336 1099,-255 1128.3,-240.574 1155.14,-213.172 1170.52,-195.514"/>
<polygon fill="midnightblue" stroke="midnightblue" points="1173.32,-197.622 1177.11,-187.728 1167.98,-193.1 1173.32,-197.622"/>
</g>
<!-- Node45 -->
<g id="node45" class="node"><title>Node45</title>
<g id="a_node45"><a xlink:href="_upload_buffer_8h.html" target="_top" xlink:title="../mt/UploadBuffer.h">
<polygon fill="none" stroke="black" points="987.5,-230 987.5,-249 1090.5,-249 1090.5,-230 987.5,-230"/>
<text text-anchor="middle" x="1039" y="-237" font-family="Helvetica,sans-Serif" font-size="10.00">../mt/UploadBuffer.h</text>
</a>
</g>
</g>
<!-- Node25&#45;&gt;Node45 -->
<g id="edge55" class="edge"><title>Node25&#45;&gt;Node45</title>
<path fill="none" stroke="midnightblue" d="M884.79,-291.475C915.933,-281.18 968.481,-263.81 1003.45,-252.25"/>
<polygon fill="midnightblue" stroke="midnightblue" points="1004.86,-255.471 1013.26,-249.009 1002.66,-248.825 1004.86,-255.471"/>
</g>
<!-- Node46 -->
<g id="node46" class="node"><title>Node46</title>
<g id="a_node46"><a xlink:href="_camera_8hpp.html" target="_top" xlink:title="../mt/Camera.hpp">
<polygon fill="none" stroke="black" points="813,-230 813,-249 905,-249 905,-230 813,-230"/>
<text text-anchor="middle" x="859" y="-237" font-family="Helvetica,sans-Serif" font-size="10.00">../mt/Camera.hpp</text>
</a>
</g>
</g>
<!-- Node25&#45;&gt;Node46 -->
<g id="edge57" class="edge"><title>Node25&#45;&gt;Node46</title>
<path fill="none" stroke="midnightblue" d="M859,-291.475C859,-283.08 859,-269.981 859,-259.163"/>
<polygon fill="midnightblue" stroke="midnightblue" points="862.5,-259.009 859,-249.009 855.5,-259.009 862.5,-259.009"/>
</g>
<!-- Node26&#45;&gt;Node3 -->
<g id="edge28" class="edge"><title>Node26&#45;&gt;Node3</title>
<path fill="none" stroke="midnightblue" d="M1144.74,-176.183C1036.55,-173.591 724.907,-163.821 456.089,-131.988"/>
<polygon fill="midnightblue" stroke="midnightblue" points="456.489,-128.511 446.143,-130.798 455.657,-135.461 456.489,-128.511"/>
</g>
<!-- Node26&#45;&gt;Node4 -->
<g id="edge40" class="edge"><title>Node26&#45;&gt;Node4</title>
<path fill="none" stroke="midnightblue" d="M1196.25,-168.476C1212.72,-155.949 1238.45,-131.897 1225,-112 1208.6,-87.7382 1176.73,-76.5551 1151.17,-71.4016"/>
<polygon fill="midnightblue" stroke="midnightblue" points="1151.48,-67.9016 1141.02,-69.5964 1150.25,-74.7934 1151.48,-67.9016"/>
</g>
<!-- Node26&#45;&gt;Node15 -->
<g id="edge38" class="edge"><title>Node26&#45;&gt;Node15</title>
<path fill="none" stroke="midnightblue" d="M1188.54,-168.256C1194.96,-154.559 1204.46,-127.964 1191,-112 1176.15,-94.3901 1025.57,-76.9763 959.174,-70.0869"/>
<polygon fill="midnightblue" stroke="midnightblue" points="959.209,-66.5723 948.904,-69.036 958.496,-73.536 959.209,-66.5723"/>
</g>
<!-- Node26&#45;&gt;Node19 -->
<g id="edge54" class="edge"><title>Node26&#45;&gt;Node19</title>
<path fill="none" stroke="midnightblue" d="M1144.76,-176.325C1034.65,-174.028 728.836,-164.732 699,-132 693.012,-125.431 693.756,-119.178 699,-112 709.45,-97.695 749.55,-85.7447 784.327,-77.7627"/>
<polygon fill="midnightblue" stroke="midnightblue" points="785.434,-81.1023 794.437,-75.5165 783.916,-74.2689 785.434,-81.1023"/>
</g>
<!-- Node26&#45;&gt;Node21 -->
<g id="edge34" class="edge"><title>Node26&#45;&gt;Node21</title>
<path fill="none" stroke="midnightblue" d="M1223.06,-175.325C1316.38,-170.925 1546.24,-157.576 1569,-132 1574.91,-125.36 1573.44,-119.703 1569,-112 1541.17,-63.6606 1480.35,-36.3271 1438.53,-22.6031"/>
<polygon fill="midnightblue" stroke="midnightblue" points="1439.45,-19.2249 1428.86,-19.561 1437.35,-25.902 1439.45,-19.2249"/>
</g>
<!-- Node26&#45;&gt;Node22 -->
<g id="edge44" class="edge"><title>Node26&#45;&gt;Node22</title>
<path fill="none" stroke="midnightblue" d="M1201.36,-168.482C1222.47,-156.884 1253.81,-134.929 1241,-112 1208.05,-53.0422 1127.15,-27.1908 1081.23,-16.9475"/>
<polygon fill="midnightblue" stroke="midnightblue" points="1081.69,-13.4662 1071.18,-14.8297 1080.24,-20.3158 1081.69,-13.4662"/>
</g>
<!-- Node27 -->
<g id="node27" class="node"><title>Node27</title>
<polygon fill="none" stroke="#bfbfbf" points="552,-112.5 552,-131.5 614,-131.5 614,-112.5 552,-112.5"/>
<text text-anchor="middle" x="583" y="-119.5" font-family="Helvetica,sans-Serif" font-size="10.00">windows.h</text>
</g>
<!-- Node26&#45;&gt;Node27 -->
<g id="edge29" class="edge"><title>Node26&#45;&gt;Node27</title>
<path fill="none" stroke="midnightblue" d="M1144.99,-173.897C1058.62,-166.966 844.786,-149.457 666,-132 652.455,-130.677 637.679,-129.114 624.399,-127.665"/>
<polygon fill="midnightblue" stroke="midnightblue" points="624.444,-124.149 614.121,-126.534 623.678,-131.107 624.444,-124.149"/>
</g>
<!-- Node28 -->
<g id="node28" class="node"><title>Node28</title>
<polygon fill="none" stroke="#bfbfbf" points="1323.5,-56.5 1323.5,-75.5 1360.5,-75.5 1360.5,-56.5 1323.5,-56.5"/>
<text text-anchor="middle" x="1342" y="-63.5" font-family="Helvetica,sans-Serif" font-size="10.00">wrl.h</text>
</g>
<!-- Node26&#45;&gt;Node28 -->
<g id="edge30" class="edge"><title>Node26&#45;&gt;Node28</title>
<path fill="none" stroke="midnightblue" d="M1223.04,-168.692C1247.46,-161.971 1278.46,-150.509 1301,-132 1316.27,-119.462 1327.59,-99.6838 1334.42,-85.2347"/>
<polygon fill="midnightblue" stroke="midnightblue" points="1337.74,-86.3949 1338.6,-75.8351 1331.34,-83.5534 1337.74,-86.3949"/>
</g>
<!-- Node29 -->
<g id="node29" class="node"><title>Node29</title>
<polygon fill="none" stroke="#bfbfbf" points="1501.5,-112.5 1501.5,-131.5 1560.5,-131.5 1560.5,-112.5 1501.5,-112.5"/>
<text text-anchor="middle" x="1531" y="-119.5" font-family="Helvetica,sans-Serif" font-size="10.00">dxgi1_4.h</text>
</g>
<!-- Node26&#45;&gt;Node29 -->
<g id="edge31" class="edge"><title>Node26&#45;&gt;Node29</title>
<path fill="none" stroke="midnightblue" d="M1223.07,-172.332C1279.88,-165.317 1388.79,-151.013 1491.34,-131.987"/>
<polygon fill="midnightblue" stroke="midnightblue" points="1492.06,-135.413 1501.24,-130.131 1490.77,-128.533 1492.06,-135.413"/>
</g>
<!-- Node30 -->
<g id="node30" class="node"><title>Node30</title>
<polygon fill="none" stroke="#bfbfbf" points="1605.5,-0.5 1605.5,-19.5 1656.5,-19.5 1656.5,-0.5 1605.5,-0.5"/>
<text text-anchor="middle" x="1631" y="-7.5" font-family="Helvetica,sans-Serif" font-size="10.00">d3d12.h</text>
</g>
<!-- Node26&#45;&gt;Node30 -->
<g id="edge32" class="edge"><title>Node26&#45;&gt;Node30</title>
<path fill="none" stroke="midnightblue" d="M1223.12,-175.194C1324.33,-170.211 1589.11,-155.094 1621,-132 1649.8,-111.144 1651.7,-91.0992 1646,-56 1644.53,-46.9568 1641.51,-37.275 1638.56,-29.2176"/>
<polygon fill="midnightblue" stroke="midnightblue" points="1641.76,-27.7907 1634.86,-19.7514 1635.24,-30.3393 1641.76,-27.7907"/>
</g>
<!-- Node31 -->
<g id="node31" class="node"><title>Node31</title>
<polygon fill="none" stroke="#bfbfbf" points="1693,-112.5 1693,-131.5 1773,-131.5 1773,-112.5 1693,-112.5"/>
<text text-anchor="middle" x="1733" y="-119.5" font-family="Helvetica,sans-Serif" font-size="10.00">D3Dcompiler.h</text>
</g>
<!-- Node26&#45;&gt;Node31 -->
<g id="edge33" class="edge"><title>Node26&#45;&gt;Node31</title>
<path fill="none" stroke="midnightblue" d="M1223.25,-174.43C1307.13,-168.719 1509.97,-153.739 1679,-132 1680.27,-131.836 1681.56,-131.665 1682.86,-131.487"/>
<polygon fill="midnightblue" stroke="midnightblue" points="1683.55,-134.923 1692.94,-130.017 1682.54,-127.996 1683.55,-134.923"/>
</g>
<!-- Node32 -->
<g id="node32" class="node"><title>Node32</title>
<polygon fill="none" stroke="#bfbfbf" points="1791.5,-112.5 1791.5,-131.5 1908.5,-131.5 1908.5,-112.5 1791.5,-112.5"/>
<text text-anchor="middle" x="1850" y="-119.5" font-family="Helvetica,sans-Serif" font-size="10.00">DirectXPackedVector.h</text>
</g>
<!-- Node26&#45;&gt;Node32 -->
<g id="edge35" class="edge"><title>Node26&#45;&gt;Node32</title>
<path fill="none" stroke="midnightblue" d="M1223.25,-174.816C1317.48,-169.407 1564.16,-154.271 1781.42,-131.999"/>
<polygon fill="midnightblue" stroke="midnightblue" points="1781.83,-135.475 1791.42,-130.967 1781.11,-128.512 1781.83,-135.475"/>
</g>
<!-- Node33 -->
<g id="node33" class="node"><title>Node33</title>
<polygon fill="none" stroke="#bfbfbf" points="1926.5,-112.5 1926.5,-131.5 2009.5,-131.5 2009.5,-112.5 1926.5,-112.5"/>
<text text-anchor="middle" x="1968" y="-119.5" font-family="Helvetica,sans-Serif" font-size="10.00">DirectXColors.h</text>
</g>
<!-- Node26&#45;&gt;Node33 -->
<g id="edge36" class="edge"><title>Node26&#45;&gt;Node33</title>
<path fill="none" stroke="midnightblue" d="M1223.14,-176.209C1331.7,-173.674 1645.91,-164.017 1916.31,-132.074"/>
<polygon fill="midnightblue" stroke="midnightblue" points="1916.8,-135.541 1926.31,-130.88 1915.97,-128.59 1916.8,-135.541"/>
</g>
<!-- Node34 -->
<g id="node34" class="node"><title>Node34</title>
<polygon fill="none" stroke="#bfbfbf" points="2028,-112.5 2028,-131.5 2120,-131.5 2120,-112.5 2028,-112.5"/>
<text text-anchor="middle" x="2074" y="-119.5" font-family="Helvetica,sans-Serif" font-size="10.00">DirectXCollision.h</text>
</g>
<!-- Node26&#45;&gt;Node34 -->
<g id="edge37" class="edge"><title>Node26&#45;&gt;Node34</title>
<path fill="none" stroke="midnightblue" d="M1223.25,-176.394C1341.65,-174.247 1705.81,-165.298 2017.69,-132.019"/>
<polygon fill="midnightblue" stroke="midnightblue" points="2018.27,-135.478 2027.84,-130.927 2017.52,-128.518 2018.27,-135.478"/>
</g>
<!-- Node35 -->
<g id="node35" class="node"><title>Node35</title>
<polygon fill="none" stroke="#bfbfbf" points="708,-112.5 708,-131.5 760,-131.5 760,-112.5 708,-112.5"/>
<text text-anchor="middle" x="734" y="-119.5" font-family="Helvetica,sans-Serif" font-size="10.00">memory</text>
</g>
<!-- Node26&#45;&gt;Node35 -->
<g id="edge39" class="edge"><title>Node26&#45;&gt;Node35</title>
<path fill="none" stroke="midnightblue" d="M1144.82,-174.636C1072.62,-169.872 913.584,-157.489 770.553,-132.045"/>
<polygon fill="midnightblue" stroke="midnightblue" points="770.747,-128.524 760.284,-130.19 769.502,-135.412 770.747,-128.524"/>
</g>
<!-- Node36 -->
<g id="node36" class="node"><title>Node36</title>
<polygon fill="none" stroke="#bfbfbf" points="778,-112.5 778,-131.5 820,-131.5 820,-112.5 778,-112.5"/>
<text text-anchor="middle" x="799" y="-119.5" font-family="Helvetica,sans-Serif" font-size="10.00">vector</text>
</g>
<!-- Node26&#45;&gt;Node36 -->
<g id="edge41" class="edge"><title>Node26&#45;&gt;Node36</title>
<path fill="none" stroke="midnightblue" d="M1144.77,-174.161C1080.75,-169.065 949.765,-156.714 830.244,-131.949"/>
<polygon fill="midnightblue" stroke="midnightblue" points="830.7,-128.468 820.193,-129.831 829.256,-135.318 830.7,-128.468"/>
</g>
<!-- Node37 -->
<g id="node37" class="node"><title>Node37</title>
<polygon fill="none" stroke="#bfbfbf" points="838,-112.5 838,-131.5 876,-131.5 876,-112.5 838,-112.5"/>
<text text-anchor="middle" x="857" y="-119.5" font-family="Helvetica,sans-Serif" font-size="10.00">array</text>
</g>
<!-- Node26&#45;&gt;Node37 -->
<g id="edge42" class="edge"><title>Node26&#45;&gt;Node37</title>
<path fill="none" stroke="midnightblue" d="M1144.91,-173.157C1089.3,-167.245 984.061,-154.421 885.941,-131.894"/>
<polygon fill="midnightblue" stroke="midnightblue" points="886.699,-128.476 876.165,-129.611 885.107,-135.293 886.699,-128.476"/>
</g>
<!-- Node38 -->
<g id="node38" class="node"><title>Node38</title>
<polygon fill="none" stroke="#bfbfbf" points="894.5,-112.5 894.5,-131.5 977.5,-131.5 977.5,-112.5 894.5,-112.5"/>
<text text-anchor="middle" x="936" y="-119.5" font-family="Helvetica,sans-Serif" font-size="10.00">unordered_map</text>
</g>
<!-- Node26&#45;&gt;Node38 -->
<g id="edge43" class="edge"><title>Node26&#45;&gt;Node38</title>
<path fill="none" stroke="midnightblue" d="M1144.98,-168.503C1101.77,-159.095 1032.04,-143.912 985.14,-133.7"/>
<polygon fill="midnightblue" stroke="midnightblue" points="985.72,-130.244 975.204,-131.536 984.231,-137.084 985.72,-130.244"/>
</g>
<!-- Node39 -->
<g id="node39" class="node"><title>Node39</title>
<polygon fill="none" stroke="#bfbfbf" points="995.5,-112.5 995.5,-131.5 1044.5,-131.5 1044.5,-112.5 995.5,-112.5"/>
<text text-anchor="middle" x="1020" y="-119.5" font-family="Helvetica,sans-Serif" font-size="10.00">fstream</text>
</g>
<!-- Node26&#45;&gt;Node39 -->
<g id="edge45" class="edge"><title>Node26&#45;&gt;Node39</title>
<path fill="none" stroke="midnightblue" d="M1158.01,-168.444C1129.9,-159.185 1084.95,-144.385 1054.03,-134.205"/>
<polygon fill="midnightblue" stroke="midnightblue" points="1055.12,-130.879 1044.53,-131.075 1052.93,-137.527 1055.12,-130.879"/>
</g>
<!-- Node40 -->
<g id="node40" class="node"><title>Node40</title>
<polygon fill="none" stroke="#bfbfbf" points="1063,-112.5 1063,-131.5 1115,-131.5 1115,-112.5 1063,-112.5"/>
<text text-anchor="middle" x="1089" y="-119.5" font-family="Helvetica,sans-Serif" font-size="10.00">sstream</text>
</g>
<!-- Node26&#45;&gt;Node40 -->
<g id="edge46" class="edge"><title>Node26&#45;&gt;Node40</title>
<path fill="none" stroke="midnightblue" d="M1168.74,-168.324C1153.78,-159.822 1130.75,-146.729 1113.27,-136.797"/>
<polygon fill="midnightblue" stroke="midnightblue" points="1114.65,-133.553 1104.23,-131.655 1111.19,-139.639 1114.65,-133.553"/>
</g>
<!-- Node41 -->
<g id="node41" class="node"><title>Node41</title>
<polygon fill="none" stroke="#bfbfbf" points="1133.5,-112.5 1133.5,-131.5 1182.5,-131.5 1182.5,-112.5 1133.5,-112.5"/>
<text text-anchor="middle" x="1158" y="-119.5" font-family="Helvetica,sans-Serif" font-size="10.00">cassert</text>
</g>
<!-- Node26&#45;&gt;Node41 -->
<g id="edge47" class="edge"><title>Node26&#45;&gt;Node41</title>
<path fill="none" stroke="midnightblue" d="M1179.71,-168.083C1176.15,-160.691 1170.98,-149.953 1166.58,-140.811"/>
<polygon fill="midnightblue" stroke="midnightblue" points="1169.71,-139.243 1162.21,-131.751 1163.4,-142.279 1169.71,-139.243"/>
</g>
<!-- Node42 -->
<g id="node42" class="node"><title>Node42</title>
<g id="a_node42"><a xlink:href="d3dx12_8h.html" target="_top" xlink:title="../mt/d3dx12.h">
<polygon fill="none" stroke="black" points="1557,-56.5 1557,-75.5 1637,-75.5 1637,-56.5 1557,-56.5"/>
<text text-anchor="middle" x="1597" y="-63.5" font-family="Helvetica,sans-Serif" font-size="10.00">../mt/d3dx12.h</text>
</a>
</g>
</g>
<!-- Node26&#45;&gt;Node42 -->
<g id="edge48" class="edge"><title>Node26&#45;&gt;Node42</title>
<path fill="none" stroke="midnightblue" d="M1223.19,-175.715C1322.47,-172.058 1577.85,-159.995 1603,-132 1614.21,-119.518 1610.45,-99.7309 1605.28,-85.2645"/>
<polygon fill="midnightblue" stroke="midnightblue" points="1608.47,-83.8034 1601.46,-75.8516 1601.98,-86.4339 1608.47,-83.8034"/>
</g>
<!-- Node43 -->
<g id="node43" class="node"><title>Node43</title>
<g id="a_node43"><a xlink:href="_d_d_s_texture_loader_8h.html" target="_top" xlink:title="../mt/DDSTextureLoader.h">
<polygon fill="none" stroke="red" points="1353,-112.5 1353,-131.5 1483,-131.5 1483,-112.5 1353,-112.5"/>
<text text-anchor="middle" x="1418" y="-119.5" font-family="Helvetica,sans-Serif" font-size="10.00">../mt/DDSTextureLoader.h</text>
</a>
</g>
</g>
<!-- Node26&#45;&gt;Node43 -->
<g id="edge50" class="edge"><title>Node26&#45;&gt;Node43</title>
<path fill="none" stroke="midnightblue" d="M1221.08,-168.444C1261.73,-159.063 1327.03,-143.993 1371.18,-133.804"/>
<polygon fill="midnightblue" stroke="midnightblue" points="1372.14,-137.175 1381.1,-131.516 1370.56,-130.355 1372.14,-137.175"/>
</g>
<!-- Node42&#45;&gt;Node30 -->
<g id="edge49" class="edge"><title>Node42&#45;&gt;Node30</title>
<path fill="none" stroke="midnightblue" d="M1602.61,-56.083C1607.37,-48.5341 1614.32,-37.4948 1620.15,-28.2298"/>
<polygon fill="midnightblue" stroke="midnightblue" points="1623.12,-30.0783 1625.49,-19.7511 1617.2,-26.3486 1623.12,-30.0783"/>
</g>
<!-- Node43&#45;&gt;Node28 -->
<g id="edge51" class="edge"><title>Node43&#45;&gt;Node28</title>
<path fill="none" stroke="midnightblue" d="M1405.79,-112.324C1394.22,-104.107 1376.62,-91.6017 1362.84,-81.8069"/>
<polygon fill="midnightblue" stroke="midnightblue" points="1364.61,-78.7729 1354.43,-75.8339 1360.56,-84.4791 1364.61,-78.7729"/>
</g>
<!-- Node43&#45;&gt;Node42 -->
<g id="edge53" class="edge"><title>Node43&#45;&gt;Node42</title>
<path fill="none" stroke="midnightblue" d="M1446.36,-112.444C1476.74,-103.28 1525.11,-88.6876 1558.82,-78.5192"/>
<polygon fill="midnightblue" stroke="midnightblue" points="1560.21,-81.7555 1568.77,-75.5164 1558.18,-75.0538 1560.21,-81.7555"/>
</g>
<!-- Node44 -->
<g id="node44" class="node"><title>Node44</title>
<polygon fill="none" stroke="#bfbfbf" points="1387,-56.5 1387,-75.5 1449,-75.5 1449,-56.5 1387,-56.5"/>
<text text-anchor="middle" x="1418" y="-63.5" font-family="Helvetica,sans-Serif" font-size="10.00">d3d11_1.h</text>
</g>
<!-- Node43&#45;&gt;Node44 -->
<g id="edge52" class="edge"><title>Node43&#45;&gt;Node44</title>
<path fill="none" stroke="midnightblue" d="M1418,-112.083C1418,-105.006 1418,-94.8611 1418,-85.9865"/>
<polygon fill="midnightblue" stroke="midnightblue" points="1421.5,-85.751 1418,-75.7511 1414.5,-85.7511 1421.5,-85.751"/>
</g>
<!-- Node45&#45;&gt;Node26 -->
<g id="edge56" class="edge"><title>Node45&#45;&gt;Node26</title>
<path fill="none" stroke="midnightblue" d="M1059.77,-229.975C1084.43,-219.857 1125.75,-202.905 1153.9,-191.351"/>
<polygon fill="midnightblue" stroke="midnightblue" points="1155.34,-194.543 1163.26,-187.509 1152.68,-188.067 1155.34,-194.543"/>
</g>
<!-- Node46&#45;&gt;Node3 -->
<g id="edge58" class="edge"><title>Node46&#45;&gt;Node3</title>
<path fill="none" stroke="midnightblue" d="M812.662,-237.684C718.169,-235.248 507.081,-225.63 447,-188 429.792,-177.222 418.264,-156.518 411.707,-141.362"/>
<polygon fill="midnightblue" stroke="midnightblue" points="414.908,-139.939 407.953,-131.947 408.406,-142.532 414.908,-139.939"/>
</g>
<!-- Node46&#45;&gt;Node26 -->
<g id="edge59" class="edge"><title>Node46&#45;&gt;Node26</title>
<path fill="none" stroke="midnightblue" d="M905.219,-230.038C965.978,-218.915 1072.28,-199.453 1134.59,-188.046"/>
<polygon fill="midnightblue" stroke="midnightblue" points="1135.36,-191.463 1144.57,-186.219 1134.1,-184.577 1135.36,-191.463"/>
</g>
<!-- Node47&#45;&gt;Node3 -->
<g id="edge62" class="edge"><title>Node47&#45;&gt;Node3</title>
<path fill="none" stroke="midnightblue" d="M453.229,-224.488C439.156,-215.907 423.15,-203.572 414,-188 405.794,-174.034 403.927,-155.53 403.889,-141.837"/>
<polygon fill="midnightblue" stroke="midnightblue" points="407.392,-141.771 404.188,-131.673 400.395,-141.565 407.392,-141.771"/>
</g>
<!-- Node48 -->
<g id="node48" class="node"><title>Node48</title>
<g id="a_node48"><a xlink:href="_windows_message_handler_8hpp.html" target="_top" xlink:title="../mt/WindowsMessageHandler.hpp">
<polygon fill="none" stroke="black" points="456.5,-168.5 456.5,-187.5 627.5,-187.5 627.5,-168.5 456.5,-168.5"/>
<text text-anchor="middle" x="542" y="-175.5" font-family="Helvetica,sans-Serif" font-size="10.00">../mt/WindowsMessageHandler.hpp</text>
</a>
</g>
</g>
<!-- Node47&#45;&gt;Node48 -->
<g id="edge63" class="edge"><title>Node47&#45;&gt;Node48</title>
<path fill="none" stroke="midnightblue" d="M495.456,-224.399C504.594,-215.486 516.419,-203.952 525.862,-194.741"/>
<polygon fill="midnightblue" stroke="midnightblue" points="528.409,-197.146 533.124,-187.658 523.522,-192.135 528.409,-197.146"/>
</g>
<!-- Node48&#45;&gt;Node27 -->
<g id="edge64" class="edge"><title>Node48&#45;&gt;Node27</title>
<path fill="none" stroke="midnightblue" d="M548.77,-168.083C554.562,-160.455 563.058,-149.264 570.138,-139.941"/>
<polygon fill="midnightblue" stroke="midnightblue" points="573.096,-141.832 576.356,-131.751 567.521,-137.599 573.096,-141.832"/>
</g>
<!-- Node49 -->
<g id="node49" class="node"><title>Node49</title>
<polygon fill="none" stroke="#bfbfbf" points="464,-112.5 464,-131.5 534,-131.5 534,-112.5 464,-112.5"/>
<text text-anchor="middle" x="499" y="-119.5" font-family="Helvetica,sans-Serif" font-size="10.00">WindowsX.h</text>
</g>
<!-- Node48&#45;&gt;Node49 -->
<g id="edge65" class="edge"><title>Node48&#45;&gt;Node49</title>
<path fill="none" stroke="midnightblue" d="M534.899,-168.083C528.763,-160.377 519.73,-149.033 512.261,-139.653"/>
<polygon fill="midnightblue" stroke="midnightblue" points="514.936,-137.394 505.968,-131.751 509.46,-141.754 514.936,-137.394"/>
</g>
<!-- Node50&#45;&gt;Node3 -->
<g id="edge67" class="edge"><title>Node50&#45;&gt;Node3</title>
<path fill="none" stroke="midnightblue" d="M387.588,-291.098C388.553,-276.894 390.605,-248.235 393,-224 395.844,-195.222 399.961,-161.93 402.557,-141.677"/>
<polygon fill="midnightblue" stroke="midnightblue" points="406.044,-142.001 403.858,-131.634 399.102,-141.102 406.044,-142.001"/>
</g>
</g>
</svg>
