<?xml version="1.0" encoding="UTF-8" standalone="no"?>
<!DOCTYPE svg PUBLIC "-//W3C//DTD SVG 1.1//EN"
 "http://www.w3.org/Graphics/SVG/1.1/DTD/svg11.dtd">
<!-- Generated by graphviz version 2.38.0 (20140413.2041)
 -->
<!-- Title: C:/Users/micho/Desktop/mt_engine/mt/CommandQueue.cpp Pages: 1 -->
<!--zoomable 263 -->
<svg id="main" version="1.1" xmlns="http://www.w3.org/2000/svg" xmlns:xlink="http://www.w3.org/1999/xlink" xml:space="preserve" onload="init(evt)">
<style type="text/css"><![CDATA[
.edge:hover path { stroke: red; }
.edge:hover polygon { stroke: red; fill: red; }
]]></style>
<script type="text/javascript"><![CDATA[
var edges = document.getElementsByTagName('g');
if (edges && edges.length) {
  for (var i=0;i<edges.length;i++) {
    if (edges[i].id.substr(0,4)=='edge') {
      edges[i].setAttribute('class','edge');
    }
  }
}
]]></script>
        <defs>
                <circle id="rim" cx="0" cy="0" r="7"/>
                <circle id="rim2" cx="0" cy="0" r="3.5"/>
                <g id="zoomPlus">
                        <use xlink:href="#rim" fill="#404040">
                                <set attributeName="fill" to="#808080" begin="zoomplus.mouseover" end="zoomplus.mouseout"/>
                        </use>
                        <path d="M-4,0h8M0,-4v8" fill="none" stroke="white" stroke-width="1.5" pointer-events="none"/>
                </g>
                <g id="zoomMin">
                        <use xlink:href="#rim" fill="#404040">
                                <set attributeName="fill" to="#808080" begin="zoomminus.mouseover" end="zoomminus.mouseout"/>
                        </use>
                        <path d="M-4,0h8" fill="none" stroke="white" stroke-width="1.5" pointer-events="none"/>
                </g>
                <g id="dirArrow">
                        <path fill="none" stroke="white" stroke-width="1.5" d="M0,-3.0v7 M-2.5,-0.5L0,-3.0L2.5,-0.5"/>
                </g>
               <g id="resetDef">
                       <use xlink:href="#rim2" fill="#404040">
                               <set attributeName="fill" to="#808080" begin="reset.mouseover" end="reset.mouseout"/>
                       </use>
               </g>
        </defs>

<script type="text/javascript">
var viewWidth = 1084;
var viewHeight = 263;
var sectionId = 'dynsection-0';
</script>
<script xlink:href="svgpan.js"/>
<svg id="graph" class="graph">
<g id="viewport">
<title>C:/Users/micho/Desktop/mt_engine/mt/CommandQueue.cpp</title>
<!-- Node1 -->
<g id="node1" class="node"><title>Node1</title>
<polygon fill="#bfbfbf" stroke="black" points="413.5,-224.5 413.5,-254.5 586.5,-254.5 586.5,-224.5 413.5,-224.5"/>
<text text-anchor="start" x="421.5" y="-242.5" font-family="Helvetica,sans-Serif" font-size="10.00">C:/Users/micho/Desktop</text>
<text text-anchor="middle" x="500" y="-231.5" font-family="Helvetica,sans-Serif" font-size="10.00">/mt_engine/mt/CommandQueue.cpp</text>
</g>
<!-- Node2 -->
<g id="node2" class="node"><title>Node2</title>
<g id="a_node2"><a xlink:href="_command_queue_8hpp.html" target="_top" xlink:title="../mt/CommandQueue.hpp">
<polygon fill="none" stroke="black" points="367.5,-168.5 367.5,-187.5 498.5,-187.5 498.5,-168.5 367.5,-168.5"/>
<text text-anchor="middle" x="433" y="-175.5" font-family="Helvetica,sans-Serif" font-size="10.00">../mt/CommandQueue.hpp</text>
</a>
</g>
</g>
<!-- Node1&#45;&gt;Node2 -->
<g id="edge1" class="edge"><title>Node1&#45;&gt;Node2</title>
<path fill="none" stroke="midnightblue" d="M484.122,-224.399C473.985,-215.397 460.838,-203.721 450.415,-194.465"/>
<polygon fill="midnightblue" stroke="midnightblue" points="452.55,-191.681 442.749,-187.658 447.902,-196.915 452.55,-191.681"/>
</g>
<!-- Node23 -->
<g id="node23" class="node"><title>Node23</title>
<g id="a_node23"><a xlink:href="_command_8hpp.html" target="_top" xlink:title="../mt/Command.hpp">
<polygon fill="none" stroke="black" points="516.5,-168.5 516.5,-187.5 619.5,-187.5 619.5,-168.5 516.5,-168.5"/>
<text text-anchor="middle" x="568" y="-175.5" font-family="Helvetica,sans-Serif" font-size="10.00">../mt/Command.hpp</text>
</a>
</g>
</g>
<!-- Node1&#45;&gt;Node23 -->
<g id="edge22" class="edge"><title>Node1&#45;&gt;Node23</title>
<path fill="none" stroke="midnightblue" d="M516.115,-224.399C526.404,-215.397 539.747,-203.721 550.326,-194.465"/>
<polygon fill="midnightblue" stroke="midnightblue" points="552.884,-196.877 558.105,-187.658 548.275,-191.609 552.884,-196.877"/>
</g>
<!-- Node3 -->
<g id="node3" class="node"><title>Node3</title>
<g id="a_node3"><a xlink:href="utility_8hpp.html" target="_top" xlink:title="../mt/utility.hpp">
<polygon fill="none" stroke="black" points="459,-112.5 459,-131.5 541,-131.5 541,-112.5 459,-112.5"/>
<text text-anchor="middle" x="500" y="-119.5" font-family="Helvetica,sans-Serif" font-size="10.00">../mt/utility.hpp</text>
</a>
</g>
</g>
<!-- Node2&#45;&gt;Node3 -->
<g id="edge2" class="edge"><title>Node2&#45;&gt;Node3</title>
<path fill="none" stroke="midnightblue" d="M443.765,-168.324C453.766,-160.263 468.887,-148.077 480.93,-138.369"/>
<polygon fill="midnightblue" stroke="midnightblue" points="483.45,-140.834 489.039,-131.834 479.057,-135.384 483.45,-140.834"/>
</g>
<!-- Node4 -->
<g id="node4" class="node"><title>Node4</title>
<polygon fill="none" stroke="#bfbfbf" points="0,-56.5 0,-75.5 56,-75.5 56,-56.5 0,-56.5"/>
<text text-anchor="middle" x="28" y="-63.5" font-family="Helvetica,sans-Serif" font-size="10.00">algorithm</text>
</g>
<!-- Node3&#45;&gt;Node4 -->
<g id="edge3" class="edge"><title>Node3&#45;&gt;Node4</title>
<path fill="none" stroke="midnightblue" d="M458.966,-118.616C383.253,-113.815 216.369,-101.36 66.5015,-76.042"/>
<polygon fill="midnightblue" stroke="midnightblue" points="66.6469,-72.5159 56.1993,-74.2763 65.4643,-79.4153 66.6469,-72.5159"/>
</g>
<!-- Node5 -->
<g id="node5" class="node"><title>Node5</title>
<polygon fill="none" stroke="#bfbfbf" points="74,-56.5 74,-75.5 120,-75.5 120,-56.5 74,-56.5"/>
<text text-anchor="middle" x="97" y="-63.5" font-family="Helvetica,sans-Serif" font-size="10.00">chrono</text>
</g>
<!-- Node3&#45;&gt;Node5 -->
<g id="edge4" class="edge"><title>Node3&#45;&gt;Node5</title>
<path fill="none" stroke="midnightblue" d="M458.774,-118.078C391.76,-112.877 254.956,-100.386 130.408,-76.0111"/>
<polygon fill="midnightblue" stroke="midnightblue" points="130.809,-72.5223 120.318,-74.0046 129.444,-79.3879 130.809,-72.5223"/>
</g>
<!-- Node6 -->
<g id="node6" class="node"><title>Node6</title>
<polygon fill="none" stroke="#bfbfbf" points="138,-56.5 138,-75.5 182,-75.5 182,-56.5 138,-56.5"/>
<text text-anchor="middle" x="160" y="-63.5" font-family="Helvetica,sans-Serif" font-size="10.00">cmath</text>
</g>
<!-- Node3&#45;&gt;Node6 -->
<g id="edge5" class="edge"><title>Node3&#45;&gt;Node6</title>
<path fill="none" stroke="midnightblue" d="M458.69,-116.818C401.041,-110.582 293.08,-97.451 192.299,-76.0279"/>
<polygon fill="midnightblue" stroke="midnightblue" points="192.77,-72.5491 182.257,-73.8601 191.293,-79.3915 192.77,-72.5491"/>
</g>
<!-- Node7 -->
<g id="node7" class="node"><title>Node7</title>
<polygon fill="none" stroke="#bfbfbf" points="200.5,-56.5 200.5,-75.5 249.5,-75.5 249.5,-56.5 200.5,-56.5"/>
<text text-anchor="middle" x="225" y="-63.5" font-family="Helvetica,sans-Serif" font-size="10.00">cstdarg</text>
</g>
<!-- Node3&#45;&gt;Node7 -->
<g id="edge6" class="edge"><title>Node3&#45;&gt;Node7</title>
<path fill="none" stroke="midnightblue" d="M458.681,-114.383C412.411,-106.738 334.997,-93.2445 259.908,-76.3044"/>
<polygon fill="midnightblue" stroke="midnightblue" points="260.339,-72.8129 249.811,-74.0021 258.783,-79.6377 260.339,-72.8129"/>
</g>
<!-- Node8 -->
<g id="node8" class="node"><title>Node8</title>
<polygon fill="none" stroke="#bfbfbf" points="267.5,-56.5 267.5,-75.5 310.5,-75.5 310.5,-56.5 267.5,-56.5"/>
<text text-anchor="middle" x="289" y="-63.5" font-family="Helvetica,sans-Serif" font-size="10.00">deque</text>
</g>
<!-- Node3&#45;&gt;Node8 -->
<g id="edge7" class="edge"><title>Node3&#45;&gt;Node8</title>
<path fill="none" stroke="midnightblue" d="M463.465,-112.459C428.889,-104.255 375.311,-91.2354 320.481,-76.3193"/>
<polygon fill="midnightblue" stroke="midnightblue" points="321.164,-72.8777 310.595,-73.6127 319.315,-79.6292 321.164,-72.8777"/>
</g>
<!-- Node9 -->
<g id="node9" class="node"><title>Node9</title>
<polygon fill="none" stroke="#bfbfbf" points="328.5,-56.5 328.5,-75.5 389.5,-75.5 389.5,-56.5 328.5,-56.5"/>
<text text-anchor="middle" x="359" y="-63.5" font-family="Helvetica,sans-Serif" font-size="10.00">filesystem</text>
</g>
<!-- Node3&#45;&gt;Node9 -->
<g id="edge8" class="edge"><title>Node3&#45;&gt;Node9</title>
<path fill="none" stroke="midnightblue" d="M477.658,-112.444C454.247,-103.478 417.264,-89.314 390.81,-79.1827"/>
<polygon fill="midnightblue" stroke="midnightblue" points="391.828,-75.8245 381.237,-75.5164 389.324,-82.3615 391.828,-75.8245"/>
</g>
<!-- Node10 -->
<g id="node10" class="node"><title>Node10</title>
<polygon fill="none" stroke="#bfbfbf" points="407.5,-56.5 407.5,-75.5 436.5,-75.5 436.5,-56.5 407.5,-56.5"/>
<text text-anchor="middle" x="422" y="-63.5" font-family="Helvetica,sans-Serif" font-size="10.00">list</text>
</g>
<!-- Node3&#45;&gt;Node10 -->
<g id="edge9" class="edge"><title>Node3&#45;&gt;Node10</title>
<path fill="none" stroke="midnightblue" d="M487.468,-112.324C475.414,-103.979 456.973,-91.2122 442.731,-81.3524"/>
<polygon fill="midnightblue" stroke="midnightblue" points="444.715,-78.469 434.501,-75.6545 440.731,-84.2243 444.715,-78.469"/>
</g>
<!-- Node11 -->
<g id="node11" class="node"><title>Node11</title>
<polygon fill="none" stroke="#bfbfbf" points="454.5,-56.5 454.5,-75.5 489.5,-75.5 489.5,-56.5 454.5,-56.5"/>
<text text-anchor="middle" x="472" y="-63.5" font-family="Helvetica,sans-Serif" font-size="10.00">map</text>
</g>
<!-- Node3&#45;&gt;Node11 -->
<g id="edge10" class="edge"><title>Node3&#45;&gt;Node11</title>
<path fill="none" stroke="midnightblue" d="M495.376,-112.083C491.544,-104.691 485.976,-93.9533 481.235,-84.8111"/>
<polygon fill="midnightblue" stroke="midnightblue" points="484.248,-83.0175 476.538,-75.7511 478.034,-86.2398 484.248,-83.0175"/>
</g>
<!-- Node12 -->
<g id="node12" class="node"><title>Node12</title>
<polygon fill="none" stroke="#bfbfbf" points="507.5,-56.5 507.5,-75.5 550.5,-75.5 550.5,-56.5 507.5,-56.5"/>
<text text-anchor="middle" x="529" y="-63.5" font-family="Helvetica,sans-Serif" font-size="10.00">queue</text>
</g>
<!-- Node3&#45;&gt;Node12 -->
<g id="edge11" class="edge"><title>Node3&#45;&gt;Node12</title>
<path fill="none" stroke="midnightblue" d="M504.789,-112.083C508.758,-104.691 514.525,-93.9533 519.435,-84.8111"/>
<polygon fill="midnightblue" stroke="midnightblue" points="522.653,-86.217 524.3,-75.7511 516.486,-82.9051 522.653,-86.217"/>
</g>
<!-- Node13 -->
<g id="node13" class="node"><title>Node13</title>
<polygon fill="none" stroke="#bfbfbf" points="568.5,-56.5 568.5,-75.5 603.5,-75.5 603.5,-56.5 568.5,-56.5"/>
<text text-anchor="middle" x="586" y="-63.5" font-family="Helvetica,sans-Serif" font-size="10.00">ratio</text>
</g>
<!-- Node3&#45;&gt;Node13 -->
<g id="edge12" class="edge"><title>Node3&#45;&gt;Node13</title>
<path fill="none" stroke="midnightblue" d="M513.817,-112.324C527.233,-103.9 547.824,-90.9709 563.586,-81.0741"/>
<polygon fill="midnightblue" stroke="midnightblue" points="565.609,-83.9364 572.217,-75.6545 561.887,-78.0081 565.609,-83.9364"/>
</g>
<!-- Node14 -->
<g id="node14" class="node"><title>Node14</title>
<polygon fill="none" stroke="#bfbfbf" points="622,-56.5 622,-75.5 652,-75.5 652,-56.5 622,-56.5"/>
<text text-anchor="middle" x="637" y="-63.5" font-family="Helvetica,sans-Serif" font-size="10.00">set</text>
</g>
<!-- Node3&#45;&gt;Node14 -->
<g id="edge13" class="edge"><title>Node3&#45;&gt;Node14</title>
<path fill="none" stroke="midnightblue" d="M521.708,-112.444C546.353,-102.729 586.477,-86.9142 612.299,-76.7362"/>
<polygon fill="midnightblue" stroke="midnightblue" points="613.737,-79.9317 621.756,-73.0084 611.17,-73.4193 613.737,-79.9317"/>
</g>
<!-- Node15 -->
<g id="node15" class="node"><title>Node15</title>
<polygon fill="none" stroke="#bfbfbf" points="670.5,-56.5 670.5,-75.5 711.5,-75.5 711.5,-56.5 670.5,-56.5"/>
<text text-anchor="middle" x="691" y="-63.5" font-family="Helvetica,sans-Serif" font-size="10.00">string</text>
</g>
<!-- Node3&#45;&gt;Node15 -->
<g id="edge14" class="edge"><title>Node3&#45;&gt;Node15</title>
<path fill="none" stroke="midnightblue" d="M531.215,-112.463C561.721,-104.079 609.72,-90.7783 660.508,-76.1021"/>
<polygon fill="midnightblue" stroke="midnightblue" points="661.727,-79.3929 670.358,-73.2484 659.779,-72.6693 661.727,-79.3929"/>
</g>
<!-- Node16 -->
<g id="node16" class="node"><title>Node16</title>
<polygon fill="none" stroke="#bfbfbf" points="730,-56.5 730,-75.5 792,-75.5 792,-56.5 730,-56.5"/>
<text text-anchor="middle" x="761" y="-63.5" font-family="Helvetica,sans-Serif" font-size="10.00">type_traits</text>
</g>
<!-- Node3&#45;&gt;Node16 -->
<g id="edge15" class="edge"><title>Node3&#45;&gt;Node16</title>
<path fill="none" stroke="midnightblue" d="M541.395,-112.717C583.569,-104.237 651.129,-90.5397 719.57,-76.0661"/>
<polygon fill="midnightblue" stroke="midnightblue" points="720.614,-79.4226 729.671,-73.9255 719.162,-72.5747 720.614,-79.4226"/>
</g>
<!-- Node17 -->
<g id="node17" class="node"><title>Node17</title>
<polygon fill="none" stroke="#bfbfbf" points="810,-56.5 810,-75.5 848,-75.5 848,-56.5 810,-56.5"/>
<text text-anchor="middle" x="829" y="-63.5" font-family="Helvetica,sans-Serif" font-size="10.00">tuple</text>
</g>
<!-- Node3&#45;&gt;Node17 -->
<g id="edge16" class="edge"><title>Node3&#45;&gt;Node17</title>
<path fill="none" stroke="midnightblue" d="M541.296,-116.977C597.733,-111.01 702.188,-98.2954 799.805,-75.9498"/>
<polygon fill="midnightblue" stroke="midnightblue" points="800.89,-79.2906 809.836,-73.6133 799.302,-72.4731 800.89,-79.2906"/>
</g>
<!-- Node18 -->
<g id="node18" class="node"><title>Node18</title>
<polygon fill="none" stroke="#bfbfbf" points="866,-56.5 866,-75.5 906,-75.5 906,-56.5 866,-56.5"/>
<text text-anchor="middle" x="886" y="-63.5" font-family="Helvetica,sans-Serif" font-size="10.00">utility</text>
</g>
<!-- Node3&#45;&gt;Node18 -->
<g id="edge17" class="edge"><title>Node3&#45;&gt;Node18</title>
<path fill="none" stroke="midnightblue" d="M541.084,-118.177C606.082,-113.201 736.654,-101.132 855.818,-75.9113"/>
<polygon fill="midnightblue" stroke="midnightblue" points="856.8,-79.2801 865.839,-73.7529 855.326,-72.437 856.8,-79.2801"/>
</g>
<!-- Node19 -->
<g id="node19" class="node"><title>Node19</title>
<g id="a_node19"><a xlink:href="_math_helper_8h.html" target="_top" xlink:title="../mt/MathHelper.h">
<polygon fill="none" stroke="black" points="924,-56.5 924,-75.5 1022,-75.5 1022,-56.5 924,-56.5"/>
<text text-anchor="middle" x="973" y="-63.5" font-family="Helvetica,sans-Serif" font-size="10.00">../mt/MathHelper.h</text>
</a>
</g>
</g>
<!-- Node3&#45;&gt;Node19 -->
<g id="edge18" class="edge"><title>Node3&#45;&gt;Node19</title>
<path fill="none" stroke="midnightblue" d="M541.013,-117.183C613.834,-110.269 770.726,-94.7567 913.706,-76.1167"/>
<polygon fill="midnightblue" stroke="midnightblue" points="914.515,-79.5406 923.975,-74.7693 913.605,-72.6001 914.515,-79.5406"/>
</g>
<!-- Node20 -->
<g id="node20" class="node"><title>Node20</title>
<polygon fill="none" stroke="#bfbfbf" points="851.5,-0.5 851.5,-19.5 916.5,-19.5 916.5,-0.5 851.5,-0.5"/>
<text text-anchor="middle" x="884" y="-7.5" font-family="Helvetica,sans-Serif" font-size="10.00">Windows.h</text>
</g>
<!-- Node19&#45;&gt;Node20 -->
<g id="edge19" class="edge"><title>Node19&#45;&gt;Node20</title>
<path fill="none" stroke="midnightblue" d="M958.701,-56.324C944.817,-47.9002 923.508,-34.9709 907.196,-25.0741"/>
<polygon fill="midnightblue" stroke="midnightblue" points="908.629,-21.8495 898.264,-19.6545 904.998,-27.8341 908.629,-21.8495"/>
</g>
<!-- Node21 -->
<g id="node21" class="node"><title>Node21</title>
<polygon fill="none" stroke="#bfbfbf" points="934.5,-0.5 934.5,-19.5 1011.5,-19.5 1011.5,-0.5 934.5,-0.5"/>
<text text-anchor="middle" x="973" y="-7.5" font-family="Helvetica,sans-Serif" font-size="10.00">DirectXMath.h</text>
</g>
<!-- Node19&#45;&gt;Node21 -->
<g id="edge20" class="edge"><title>Node19&#45;&gt;Node21</title>
<path fill="none" stroke="midnightblue" d="M973,-56.083C973,-49.0059 973,-38.8611 973,-29.9865"/>
<polygon fill="midnightblue" stroke="midnightblue" points="976.5,-29.751 973,-19.7511 969.5,-29.7511 976.5,-29.751"/>
</g>
<!-- Node22 -->
<g id="node22" class="node"><title>Node22</title>
<polygon fill="none" stroke="#bfbfbf" points="1030,-0.5 1030,-19.5 1076,-19.5 1076,-0.5 1030,-0.5"/>
<text text-anchor="middle" x="1053" y="-7.5" font-family="Helvetica,sans-Serif" font-size="10.00">cstdint</text>
</g>
<!-- Node19&#45;&gt;Node22 -->
<g id="edge21" class="edge"><title>Node19&#45;&gt;Node22</title>
<path fill="none" stroke="midnightblue" d="M985.853,-56.324C998.216,-47.979 1017.13,-35.2122 1031.74,-25.3524"/>
<polygon fill="midnightblue" stroke="midnightblue" points="1033.85,-28.1503 1040.18,-19.6545 1029.93,-22.3483 1033.85,-28.1503"/>
</g>
<!-- Node23&#45;&gt;Node3 -->
<g id="edge23" class="edge"><title>Node23&#45;&gt;Node3</title>
<path fill="none" stroke="midnightblue" d="M557.075,-168.324C546.825,-160.185 531.279,-147.839 518.999,-138.087"/>
<polygon fill="midnightblue" stroke="midnightblue" points="521.132,-135.312 511.124,-131.834 516.779,-140.794 521.132,-135.312"/>
</g>
</g>
</svg>
        <g id="navigator" transform="translate(0 0)" fill="#404254">
                <rect fill="#f2f5e9" fill-opacity="0.5" stroke="#606060" stroke-width=".5" x="0" y="0" width="60" height="60"/>
                <use id="zoomplus" xlink:href="#zoomPlus" x="17" y="9" onmousedown="handleZoom(evt,'in')"/>
                <use id="zoomminus" xlink:href="#zoomMin" x="42" y="9" onmousedown="handleZoom(evt,'out')"/>
                <use id="reset" xlink:href="#resetDef" x="30" y="36" onmousedown="handleReset()"/>
                <g id="arrowUp" xlink:href="#dirArrow" transform="translate(30 24)" onmousedown="handlePan(0,-1)">
                  <use xlink:href="#rim" fill="#404040">
                        <set attributeName="fill" to="#808080" begin="arrowUp.mouseover" end="arrowUp.mouseout"/>
                  </use>
                  <path fill="none" stroke="white" stroke-width="1.5" d="M0,-3.0v7 M-2.5,-0.5L0,-3.0L2.5,-0.5"/>
                </g>
                <g id="arrowRight" xlink:href="#dirArrow" transform="rotate(90) translate(36 -43)" onmousedown="handlePan(1,0)">
                  <use xlink:href="#rim" fill="#404040">
                        <set attributeName="fill" to="#808080" begin="arrowRight.mouseover" end="arrowRight.mouseout"/>
                  </use>
                  <path fill="none" stroke="white" stroke-width="1.5" d="M0,-3.0v7 M-2.5,-0.5L0,-3.0L2.5,-0.5"/>
                </g>
                <g id="arrowDown" xlink:href="#dirArrow" transform="rotate(180) translate(-30 -48)" onmousedown="handlePan(0,1)">
                  <use xlink:href="#rim" fill="#404040">
                        <set attributeName="fill" to="#808080" begin="arrowDown.mouseover" end="arrowDown.mouseout"/>
                  </use>
                  <path fill="none" stroke="white" stroke-width="1.5" d="M0,-3.0v7 M-2.5,-0.5L0,-3.0L2.5,-0.5"/>
                </g>
                <g id="arrowLeft" xlink:href="#dirArrow" transform="rotate(270) translate(-36 17)" onmousedown="handlePan(-1,0)">
                  <use xlink:href="#rim" fill="#404040">
                        <set attributeName="fill" to="#808080" begin="arrowLeft.mouseover" end="arrowLeft.mouseout"/>
                  </use>
                  <path fill="none" stroke="white" stroke-width="1.5" d="M0,-3.0v7 M-2.5,-0.5L0,-3.0L2.5,-0.5"/>
                </g>
        </g>
        <svg viewBox="0 0 15 15" width="100%" height="30px" preserveAspectRatio="xMaxYMin meet">
         <g id="arrow_out" transform="scale(0.3 0.3)">
          <a xlink:href="_command_queue_8cpp__incl_org.svg" target="_base">
           <rect id="button" ry="5" rx="5" y="6" x="6" height="38" width="38"
                fill="#f2f5e9" fill-opacity="0.5" stroke="#606060" stroke-width="1.0"/>
           <path id="arrow"
             d="M 11.500037,31.436501 C 11.940474,20.09759 22.043105,11.32322 32.158766,21.979434 L 37.068811,17.246167 C 37.068811,17.246167 37.088388,32 37.088388,32 L 22.160133,31.978069 C 22.160133,31.978069 26.997745,27.140456 26.997745,27.140456 C 18.528582,18.264221 13.291696,25.230495 11.500037,31.436501 z"
             style="fill:#404040;"/>
          </a>
         </g>
        </svg>
</svg>
