<?xml version="1.0" encoding="UTF-8" standalone="no"?>
<!DOCTYPE svg PUBLIC "-//W3C//DTD SVG 1.1//EN"
 "http://www.w3.org/Graphics/SVG/1.1/DTD/svg11.dtd">
<!-- Generated by graphviz version 2.38.0 (20140413.2041)
 -->
<!-- Title: C:/Users/micho/Desktop/mt_engine/mt/CommandQueue.hpp Pages: 1 -->
<svg width="3816pt" height="262pt"
 viewBox="0.00 0.00 3816.00 262.00" xmlns="http://www.w3.org/2000/svg" xmlns:xlink="http://www.w3.org/1999/xlink">
<g id="graph0" class="graph" transform="scale(1 1) rotate(0) translate(4 258)">
<title>C:/Users/micho/Desktop/mt_engine/mt/CommandQueue.hpp</title>
<!-- Node1 -->
<g id="node1" class="node"><title>Node1</title>
<polygon fill="#bfbfbf" stroke="black" points="1923.5,-223.5 1923.5,-253.5 2096.5,-253.5 2096.5,-223.5 1923.5,-223.5"/>
<text text-anchor="start" x="1931.5" y="-241.5" font-family="Helvetica,sans-Serif" font-size="10.00">C:/Users/micho/Desktop</text>
<text text-anchor="middle" x="2010" y="-230.5" font-family="Helvetica,sans-Serif" font-size="10.00">/mt_engine/mt/CommandQueue.hpp</text>
</g>
<!-- Node2 -->
<g id="node2" class="node"><title>Node2</title>
<g id="a_node2"><a xlink:href="engine_8hpp.html" target="_top" xlink:title="C:/Users/micho/Desktop\l/mt_engine/mt/engine.hpp">
<polygon fill="none" stroke="black" points="1861.5,-156.5 1861.5,-186.5 1990.5,-186.5 1990.5,-156.5 1861.5,-156.5"/>
<text text-anchor="start" x="1869.5" y="-174.5" font-family="Helvetica,sans-Serif" font-size="10.00">C:/Users/micho/Desktop</text>
<text text-anchor="middle" x="1926" y="-163.5" font-family="Helvetica,sans-Serif" font-size="10.00">/mt_engine/mt/engine.hpp</text>
</a>
</g>
</g>
<!-- Node1&#45;&gt;Node2 -->
<g id="edge1" class="edge"><title>Node1&#45;&gt;Node2</title>
<path fill="none" stroke="midnightblue" d="M1983.72,-217.168C1970.88,-207.228 1955.74,-195.514 1944.19,-186.577"/>
<polygon fill="midnightblue" stroke="midnightblue" points="1981.72,-220.044 1991.77,-223.396 1986.01,-214.508 1981.72,-220.044"/>
</g>
<!-- Node26 -->
<g id="node26" class="node"><title>Node26</title>
<g id="a_node26"><a xlink:href="_command_queue_8cpp.html" target="_top" xlink:title="C:/Users/micho/Desktop\l/mt_engine/mt/CommandQueue.cpp">
<polygon fill="none" stroke="black" points="2008.5,-156.5 2008.5,-186.5 2181.5,-186.5 2181.5,-156.5 2008.5,-156.5"/>
<text text-anchor="start" x="2016.5" y="-174.5" font-family="Helvetica,sans-Serif" font-size="10.00">C:/Users/micho/Desktop</text>
<text text-anchor="middle" x="2095" y="-163.5" font-family="Helvetica,sans-Serif" font-size="10.00">/mt_engine/mt/CommandQueue.cpp</text>
</a>
</g>
</g>
<!-- Node1&#45;&gt;Node26 -->
<g id="edge33" class="edge"><title>Node1&#45;&gt;Node26</title>
<path fill="none" stroke="midnightblue" d="M2036.59,-217.168C2049.59,-207.228 2064.9,-195.514 2076.59,-186.577"/>
<polygon fill="midnightblue" stroke="midnightblue" points="2034.26,-214.541 2028.44,-223.396 2038.51,-220.102 2034.26,-214.541"/>
</g>
<!-- Node3 -->
<g id="node3" class="node"><title>Node3</title>
<g id="a_node3"><a xlink:href="_camera_8cpp.html" target="_top" xlink:title="C:/Users/micho/Desktop\l/mt_engine/mt/Camera.cpp">
<polygon fill="none" stroke="black" points="0,-84 0,-114 134,-114 134,-84 0,-84"/>
<text text-anchor="start" x="8" y="-102" font-family="Helvetica,sans-Serif" font-size="10.00">C:/Users/micho/Desktop</text>
<text text-anchor="middle" x="67" y="-91" font-family="Helvetica,sans-Serif" font-size="10.00">/mt_engine/mt/Camera.cpp</text>
</a>
</g>
</g>
<!-- Node2&#45;&gt;Node3 -->
<g id="edge2" class="edge"><title>Node2&#45;&gt;Node3</title>
<path fill="none" stroke="midnightblue" d="M1851.2,-170.66C1557.19,-170.938 480.575,-168.543 143,-120 133.412,-118.621 123.296,-116.469 113.683,-114.078"/>
<polygon fill="midnightblue" stroke="midnightblue" points="1851.33,-174.16 1861.32,-170.649 1851.32,-167.16 1851.33,-174.16"/>
</g>
<!-- Node4 -->
<g id="node4" class="node"><title>Node4</title>
<g id="a_node4"><a xlink:href="_command_8cpp.html" target="_top" xlink:title="C:/Users/micho/Desktop\l/mt_engine/mt/Command.cpp">
<polygon fill="none" stroke="black" points="152.5,-84 152.5,-114 297.5,-114 297.5,-84 152.5,-84"/>
<text text-anchor="start" x="160.5" y="-102" font-family="Helvetica,sans-Serif" font-size="10.00">C:/Users/micho/Desktop</text>
<text text-anchor="middle" x="225" y="-91" font-family="Helvetica,sans-Serif" font-size="10.00">/mt_engine/mt/Command.cpp</text>
</a>
</g>
</g>
<!-- Node2&#45;&gt;Node4 -->
<g id="edge3" class="edge"><title>Node2&#45;&gt;Node4</title>
<path fill="none" stroke="midnightblue" d="M1850.86,-170.229C1574,-168.909 611.167,-161.378 307,-120 296.691,-118.598 285.793,-116.435 275.425,-114.041"/>
<polygon fill="midnightblue" stroke="midnightblue" points="1851.18,-173.731 1861.2,-170.277 1851.22,-166.731 1851.18,-173.731"/>
</g>
<!-- Node5 -->
<g id="node5" class="node"><title>Node5</title>
<g id="a_node5"><a xlink:href="_direct_x_renderer_8cpp.html" target="_top" xlink:title="C:/Users/micho/Desktop\l/mt_engine/mt/DirectXRenderer.cpp">
<polygon fill="none" stroke="black" points="316,-84 316,-114 486,-114 486,-84 316,-84"/>
<text text-anchor="start" x="324" y="-102" font-family="Helvetica,sans-Serif" font-size="10.00">C:/Users/micho/Desktop</text>
<text text-anchor="middle" x="401" y="-91" font-family="Helvetica,sans-Serif" font-size="10.00">/mt_engine/mt/DirectXRenderer.cpp</text>
</a>
</g>
</g>
<!-- Node2&#45;&gt;Node5 -->
<g id="edge4" class="edge"><title>Node2&#45;&gt;Node5</title>
<path fill="none" stroke="midnightblue" d="M1851.21,-169.583C1596.11,-166.186 761.324,-152.777 495,-120 483.325,-118.563 470.952,-116.401 459.15,-114.022"/>
<polygon fill="midnightblue" stroke="midnightblue" points="1851.43,-173.086 1861.48,-169.719 1851.53,-166.087 1851.43,-173.086"/>
</g>
<!-- Node6 -->
<g id="node6" class="node"><title>Node6</title>
<g id="a_node6"><a xlink:href="engine_8cpp.html" target="_top" xlink:title="C:/Users/micho/Desktop\l/mt_engine/mt/engine.cpp">
<polygon fill="none" stroke="black" points="504.5,-84 504.5,-114 633.5,-114 633.5,-84 504.5,-84"/>
<text text-anchor="start" x="512.5" y="-102" font-family="Helvetica,sans-Serif" font-size="10.00">C:/Users/micho/Desktop</text>
<text text-anchor="middle" x="569" y="-91" font-family="Helvetica,sans-Serif" font-size="10.00">/mt_engine/mt/engine.cpp</text>
</a>
</g>
</g>
<!-- Node2&#45;&gt;Node6 -->
<g id="edge5" class="edge"><title>Node2&#45;&gt;Node6</title>
<path fill="none" stroke="midnightblue" d="M1850.88,-169.793C1612.87,-167.198 877.299,-156.371 642,-120 632.78,-118.575 623.059,-116.402 613.824,-114.005"/>
<polygon fill="midnightblue" stroke="midnightblue" points="1851.13,-173.296 1861.16,-169.903 1851.2,-166.296 1851.13,-173.296"/>
</g>
<!-- Node7 -->
<g id="node7" class="node"><title>Node7</title>
<g id="a_node7"><a xlink:href="_game_timer_8cpp.html" target="_top" xlink:title="C:/Users/micho/Desktop\l/mt_engine/mt/GameTimer.cpp">
<polygon fill="none" stroke="black" points="651.5,-84 651.5,-114 802.5,-114 802.5,-84 651.5,-84"/>
<text text-anchor="start" x="659.5" y="-102" font-family="Helvetica,sans-Serif" font-size="10.00">C:/Users/micho/Desktop</text>
<text text-anchor="middle" x="727" y="-91" font-family="Helvetica,sans-Serif" font-size="10.00">/mt_engine/mt/GameTimer.cpp</text>
</a>
</g>
</g>
<!-- Node2&#45;&gt;Node7 -->
<g id="edge6" class="edge"><title>Node2&#45;&gt;Node7</title>
<path fill="none" stroke="midnightblue" d="M1851.02,-168.947C1634.79,-164.177 1012.66,-148.316 811,-120 800.608,-118.541 789.619,-116.384 779.136,-114.021"/>
<polygon fill="midnightblue" stroke="midnightblue" points="1851.24,-172.453 1861.31,-169.173 1851.39,-165.454 1851.24,-172.453"/>
</g>
<!-- Node8 -->
<g id="node8" class="node"><title>Node8</title>
<g id="a_node8"><a xlink:href="_input_handler_8cpp.html" target="_top" xlink:title="C:/Users/micho/Desktop\l/mt_engine/mt/InputHandler.cpp">
<polygon fill="none" stroke="black" points="820.5,-84 820.5,-114 975.5,-114 975.5,-84 820.5,-84"/>
<text text-anchor="start" x="828.5" y="-102" font-family="Helvetica,sans-Serif" font-size="10.00">C:/Users/micho/Desktop</text>
<text text-anchor="middle" x="898" y="-91" font-family="Helvetica,sans-Serif" font-size="10.00">/mt_engine/mt/InputHandler.cpp</text>
</a>
</g>
</g>
<!-- Node2&#45;&gt;Node8 -->
<g id="edge7" class="edge"><title>Node2&#45;&gt;Node8</title>
<path fill="none" stroke="midnightblue" d="M1851.26,-170.847C1691.45,-170.635 1305.03,-165.029 985,-120 974.411,-118.51 963.209,-116.37 952.495,-114.039"/>
<polygon fill="midnightblue" stroke="midnightblue" points="1851.45,-174.347 1861.45,-170.853 1851.46,-167.347 1851.45,-174.347"/>
</g>
<!-- Node9 -->
<g id="node9" class="node"><title>Node9</title>
<g id="a_node9"><a xlink:href="_windows_message_handler_8cpp.html" target="_top" xlink:title="C:/Users/micho/Desktop\l/mt_engine/mt/WindowsMessage\lHandler.cpp">
<polygon fill="none" stroke="black" points="993.5,-78.5 993.5,-119.5 1154.5,-119.5 1154.5,-78.5 993.5,-78.5"/>
<text text-anchor="start" x="1001.5" y="-107.5" font-family="Helvetica,sans-Serif" font-size="10.00">C:/Users/micho/Desktop</text>
<text text-anchor="start" x="1001.5" y="-96.5" font-family="Helvetica,sans-Serif" font-size="10.00">/mt_engine/mt/WindowsMessage</text>
<text text-anchor="middle" x="1074" y="-85.5" font-family="Helvetica,sans-Serif" font-size="10.00">Handler.cpp</text>
</a>
</g>
</g>
<!-- Node2&#45;&gt;Node9 -->
<g id="edge8" class="edge"><title>Node2&#45;&gt;Node9</title>
<path fill="none" stroke="midnightblue" d="M1851.05,-169.316C1714,-166.313 1414.06,-155.857 1164,-120 1160.99,-119.568 1157.93,-119.091 1154.85,-118.576"/>
<polygon fill="midnightblue" stroke="midnightblue" points="1851.36,-172.823 1861.43,-169.536 1851.51,-165.825 1851.36,-172.823"/>
</g>
<!-- Node10 -->
<g id="node10" class="node"><title>Node10</title>
<g id="a_node10"><a xlink:href="_w_m___l_b_u_t_t_o_n_d_o_w_n___handler_8hpp.html" target="_top" xlink:title="C:/Users/micho/Desktop\l/mt_engine/mt/WM_LBUTTONDOWN\l_Handler.hpp">
<polygon fill="none" stroke="black" points="1172.5,-78.5 1172.5,-119.5 1351.5,-119.5 1351.5,-78.5 1172.5,-78.5"/>
<text text-anchor="start" x="1180.5" y="-107.5" font-family="Helvetica,sans-Serif" font-size="10.00">C:/Users/micho/Desktop</text>
<text text-anchor="start" x="1180.5" y="-96.5" font-family="Helvetica,sans-Serif" font-size="10.00">/mt_engine/mt/WM_LBUTTONDOWN</text>
<text text-anchor="middle" x="1262" y="-85.5" font-family="Helvetica,sans-Serif" font-size="10.00">_Handler.hpp</text>
</a>
</g>
</g>
<!-- Node2&#45;&gt;Node10 -->
<g id="edge9" class="edge"><title>Node2&#45;&gt;Node10</title>
<path fill="none" stroke="midnightblue" d="M1851.15,-166.443C1742.68,-159.968 1535.66,-145.37 1361,-120 1357.88,-119.546 1354.7,-119.058 1351.5,-118.541"/>
<polygon fill="midnightblue" stroke="midnightblue" points="1851.14,-169.949 1861.33,-167.044 1851.56,-162.961 1851.14,-169.949"/>
</g>
<!-- Node12 -->
<g id="node12" class="node"><title>Node12</title>
<g id="a_node12"><a xlink:href="_w_m___l_b_u_t_t_o_n_u_p___handler_8hpp.html" target="_top" xlink:title="C:/Users/micho/Desktop\l/mt_engine/mt/WM_LBUTTONUP\l_Handler.hpp">
<polygon fill="none" stroke="black" points="1370,-78.5 1370,-119.5 1532,-119.5 1532,-78.5 1370,-78.5"/>
<text text-anchor="start" x="1378" y="-107.5" font-family="Helvetica,sans-Serif" font-size="10.00">C:/Users/micho/Desktop</text>
<text text-anchor="start" x="1378" y="-96.5" font-family="Helvetica,sans-Serif" font-size="10.00">/mt_engine/mt/WM_LBUTTONUP</text>
<text text-anchor="middle" x="1451" y="-85.5" font-family="Helvetica,sans-Serif" font-size="10.00">_Handler.hpp</text>
</a>
</g>
</g>
<!-- Node2&#45;&gt;Node12 -->
<g id="edge11" class="edge"><title>Node2&#45;&gt;Node12</title>
<path fill="none" stroke="midnightblue" d="M1851.17,-162.665C1773.38,-154.057 1648.22,-138.907 1541,-120 1538.16,-119.5 1535.28,-118.971 1532.37,-118.42"/>
<polygon fill="midnightblue" stroke="midnightblue" points="1851.04,-166.171 1861.36,-163.785 1851.8,-159.213 1851.04,-166.171"/>
</g>
<!-- Node13 -->
<g id="node13" class="node"><title>Node13</title>
<g id="a_node13"><a xlink:href="_w_m___m_b_u_t_t_o_n_d_o_w_n___handler_8hpp.html" target="_top" xlink:title="C:/Users/micho/Desktop\l/mt_engine/mt/WM_MBUTTONDOWN\l_Handler.hpp">
<polygon fill="none" stroke="black" points="1550,-78.5 1550,-119.5 1732,-119.5 1732,-78.5 1550,-78.5"/>
<text text-anchor="start" x="1558" y="-107.5" font-family="Helvetica,sans-Serif" font-size="10.00">C:/Users/micho/Desktop</text>
<text text-anchor="start" x="1558" y="-96.5" font-family="Helvetica,sans-Serif" font-size="10.00">/mt_engine/mt/WM_MBUTTONDOWN</text>
<text text-anchor="middle" x="1641" y="-85.5" font-family="Helvetica,sans-Serif" font-size="10.00">_Handler.hpp</text>
</a>
</g>
</g>
<!-- Node2&#45;&gt;Node13 -->
<g id="edge13" class="edge"><title>Node2&#45;&gt;Node13</title>
<path fill="none" stroke="midnightblue" d="M1859.57,-154.067C1817.85,-143.747 1763.83,-130.384 1719.93,-119.525"/>
<polygon fill="midnightblue" stroke="midnightblue" points="1858.8,-157.483 1869.35,-156.487 1860.49,-150.688 1858.8,-157.483"/>
</g>
<!-- Node14 -->
<g id="node14" class="node"><title>Node14</title>
<g id="a_node14"><a xlink:href="_w_m___m_b_u_t_t_o_n_u_p___handler_8hpp.html" target="_top" xlink:title="C:/Users/micho/Desktop\l/mt_engine/mt/WM_MBUTTONUP\l_Handler.hpp">
<polygon fill="none" stroke="black" points="1750.5,-78.5 1750.5,-119.5 1915.5,-119.5 1915.5,-78.5 1750.5,-78.5"/>
<text text-anchor="start" x="1758.5" y="-107.5" font-family="Helvetica,sans-Serif" font-size="10.00">C:/Users/micho/Desktop</text>
<text text-anchor="start" x="1758.5" y="-96.5" font-family="Helvetica,sans-Serif" font-size="10.00">/mt_engine/mt/WM_MBUTTONUP</text>
<text text-anchor="middle" x="1833" y="-85.5" font-family="Helvetica,sans-Serif" font-size="10.00">_Handler.hpp</text>
</a>
</g>
</g>
<!-- Node2&#45;&gt;Node14 -->
<g id="edge15" class="edge"><title>Node2&#45;&gt;Node14</title>
<path fill="none" stroke="midnightblue" d="M1898.87,-149.933C1886.24,-140.363 1871.3,-129.034 1858.84,-119.588"/>
<polygon fill="midnightblue" stroke="midnightblue" points="1897.1,-152.981 1907.18,-156.233 1901.33,-147.403 1897.1,-152.981"/>
</g>
<!-- Node15 -->
<g id="node15" class="node"><title>Node15</title>
<g id="a_node15"><a xlink:href="_w_m___m_o_u_s_e_m_o_v_e___handler_8hpp.html" target="_top" xlink:title="C:/Users/micho/Desktop\l/mt_engine/mt/WM_MOUSEMOVE\l_Handler.hpp">
<polygon fill="none" stroke="black" points="1934,-78.5 1934,-119.5 2104,-119.5 2104,-78.5 1934,-78.5"/>
<text text-anchor="start" x="1942" y="-107.5" font-family="Helvetica,sans-Serif" font-size="10.00">C:/Users/micho/Desktop</text>
<text text-anchor="start" x="1942" y="-96.5" font-family="Helvetica,sans-Serif" font-size="10.00">/mt_engine/mt/WM_MOUSEMOVE</text>
<text text-anchor="middle" x="2019" y="-85.5" font-family="Helvetica,sans-Serif" font-size="10.00">_Handler.hpp</text>
</a>
</g>
</g>
<!-- Node2&#45;&gt;Node15 -->
<g id="edge17" class="edge"><title>Node2&#45;&gt;Node15</title>
<path fill="none" stroke="midnightblue" d="M1953.13,-149.933C1965.76,-140.363 1980.7,-129.034 1993.16,-119.588"/>
<polygon fill="midnightblue" stroke="midnightblue" points="1950.67,-147.403 1944.82,-156.233 1954.9,-152.981 1950.67,-147.403"/>
</g>
<!-- Node16 -->
<g id="node16" class="node"><title>Node16</title>
<g id="a_node16"><a xlink:href="_w_m___q_u_i_t___handler_8hpp.html" target="_top" xlink:title="C:/Users/micho/Desktop\l/mt_engine/mt/WM_QUIT\l_Handler.hpp">
<polygon fill="none" stroke="black" points="2122.5,-78.5 2122.5,-119.5 2249.5,-119.5 2249.5,-78.5 2122.5,-78.5"/>
<text text-anchor="start" x="2130.5" y="-107.5" font-family="Helvetica,sans-Serif" font-size="10.00">C:/Users/micho/Desktop</text>
<text text-anchor="start" x="2130.5" y="-96.5" font-family="Helvetica,sans-Serif" font-size="10.00">/mt_engine/mt/WM_QUIT</text>
<text text-anchor="middle" x="2186" y="-85.5" font-family="Helvetica,sans-Serif" font-size="10.00">_Handler.hpp</text>
</a>
</g>
</g>
<!-- Node2&#45;&gt;Node16 -->
<g id="edge19" class="edge"><title>Node2&#45;&gt;Node16</title>
<path fill="none" stroke="midnightblue" d="M1988.38,-153.716C2024.74,-143.917 2071.48,-131.295 2113,-120 2116.04,-119.172 2119.16,-118.324 2122.3,-117.466"/>
<polygon fill="midnightblue" stroke="midnightblue" points="1987.15,-150.421 1978.41,-156.402 1988.97,-157.18 1987.15,-150.421"/>
</g>
<!-- Node17 -->
<g id="node17" class="node"><title>Node17</title>
<g id="a_node17"><a xlink:href="_w_m___r_b_u_t_t_o_n_d_o_w_n___handler_8hpp.html" target="_top" xlink:title="C:/Users/micho/Desktop\l/mt_engine/mt/WM_RBUTTONDOWN\l_Handler.hpp">
<polygon fill="none" stroke="black" points="2267.5,-78.5 2267.5,-119.5 2448.5,-119.5 2448.5,-78.5 2267.5,-78.5"/>
<text text-anchor="start" x="2275.5" y="-107.5" font-family="Helvetica,sans-Serif" font-size="10.00">C:/Users/micho/Desktop</text>
<text text-anchor="start" x="2275.5" y="-96.5" font-family="Helvetica,sans-Serif" font-size="10.00">/mt_engine/mt/WM_RBUTTONDOWN</text>
<text text-anchor="middle" x="2358" y="-85.5" font-family="Helvetica,sans-Serif" font-size="10.00">_Handler.hpp</text>
</a>
</g>
</g>
<!-- Node2&#45;&gt;Node17 -->
<g id="edge21" class="edge"><title>Node2&#45;&gt;Node17</title>
<path fill="none" stroke="midnightblue" d="M2000.51,-155.98C2116.32,-136.95 2147.57,-138.982 2259,-120 2261.77,-119.529 2264.57,-119.039 2267.4,-118.533"/>
<polygon fill="midnightblue" stroke="midnightblue" points="1999.83,-152.545 1990.54,-157.636 2000.97,-159.451 1999.83,-152.545"/>
</g>
<!-- Node18 -->
<g id="node18" class="node"><title>Node18</title>
<g id="a_node18"><a xlink:href="_w_m___r_b_u_t_t_o_n_u_p___handler_8hpp.html" target="_top" xlink:title="C:/Users/micho/Desktop\l/mt_engine/mt/WM_RBUTTONUP\l_Handler.hpp">
<polygon fill="none" stroke="black" points="2467,-78.5 2467,-119.5 2631,-119.5 2631,-78.5 2467,-78.5"/>
<text text-anchor="start" x="2475" y="-107.5" font-family="Helvetica,sans-Serif" font-size="10.00">C:/Users/micho/Desktop</text>
<text text-anchor="start" x="2475" y="-96.5" font-family="Helvetica,sans-Serif" font-size="10.00">/mt_engine/mt/WM_RBUTTONUP</text>
<text text-anchor="middle" x="2549" y="-85.5" font-family="Helvetica,sans-Serif" font-size="10.00">_Handler.hpp</text>
</a>
</g>
</g>
<!-- Node2&#45;&gt;Node18 -->
<g id="edge23" class="edge"><title>Node2&#45;&gt;Node18</title>
<path fill="none" stroke="midnightblue" d="M2000.62,-156.041C2204.07,-129.008 2259.28,-149.503 2458,-120 2460.88,-119.572 2463.8,-119.106 2466.75,-118.609"/>
<polygon fill="midnightblue" stroke="midnightblue" points="1999.94,-152.6 1990.5,-157.408 2000.88,-159.537 1999.94,-152.6"/>
</g>
<!-- Node19 -->
<g id="node19" class="node"><title>Node19</title>
<g id="a_node19"><a xlink:href="_w_m___s_i_z_i_n_g___handler_8hpp.html" target="_top" xlink:title="C:/Users/micho/Desktop\l/mt_engine/mt/WM_SIZING\l_Handler.hpp">
<polygon fill="none" stroke="black" points="2649,-78.5 2649,-119.5 2785,-119.5 2785,-78.5 2649,-78.5"/>
<text text-anchor="start" x="2657" y="-107.5" font-family="Helvetica,sans-Serif" font-size="10.00">C:/Users/micho/Desktop</text>
<text text-anchor="start" x="2657" y="-96.5" font-family="Helvetica,sans-Serif" font-size="10.00">/mt_engine/mt/WM_SIZING</text>
<text text-anchor="middle" x="2717" y="-85.5" font-family="Helvetica,sans-Serif" font-size="10.00">_Handler.hpp</text>
</a>
</g>
</g>
<!-- Node2&#45;&gt;Node19 -->
<g id="edge25" class="edge"><title>Node2&#45;&gt;Node19</title>
<path fill="none" stroke="midnightblue" d="M2001.06,-156.003C2284.48,-121.533 2361.83,-163.51 2640,-120 2642.87,-119.552 2645.78,-119.043 2648.71,-118.485"/>
<polygon fill="midnightblue" stroke="midnightblue" points="2000.39,-152.56 1990.89,-157.262 2001.24,-159.507 2000.39,-152.56"/>
</g>
<!-- Node20 -->
<g id="node20" class="node"><title>Node20</title>
<g id="a_node20"><a xlink:href="_w_m___a_c_t_i_v_a_t_e___handler_8cpp.html" target="_top" xlink:title="C:/Users/micho/Desktop\l/mt_engine/mt/WM_ACTIVATE\l_Handler.cpp">
<polygon fill="none" stroke="black" points="2803,-78.5 2803,-119.5 2955,-119.5 2955,-78.5 2803,-78.5"/>
<text text-anchor="start" x="2811" y="-107.5" font-family="Helvetica,sans-Serif" font-size="10.00">C:/Users/micho/Desktop</text>
<text text-anchor="start" x="2811" y="-96.5" font-family="Helvetica,sans-Serif" font-size="10.00">/mt_engine/mt/WM_ACTIVATE</text>
<text text-anchor="middle" x="2879" y="-85.5" font-family="Helvetica,sans-Serif" font-size="10.00">_Handler.cpp</text>
</a>
</g>
</g>
<!-- Node2&#45;&gt;Node20 -->
<g id="edge27" class="edge"><title>Node2&#45;&gt;Node20</title>
<path fill="none" stroke="midnightblue" d="M2000.83,-156.041C2352.49,-114.928 2447.36,-168.213 2794,-120 2796.85,-119.603 2799.75,-119.155 2802.67,-118.666"/>
<polygon fill="midnightblue" stroke="midnightblue" points="2000.4,-152.568 1990.89,-157.221 2001.23,-159.519 2000.4,-152.568"/>
</g>
<!-- Node21 -->
<g id="node21" class="node"><title>Node21</title>
<g id="a_node21"><a xlink:href="_w_m___e_n_t_e_r_s_i_z_e_m_o_v_e___handler_8cpp.html" target="_top" xlink:title="C:/Users/micho/Desktop\l/mt_engine/mt/WM_ENTERSIZEMOVE\l_Handler.cpp">
<polygon fill="none" stroke="black" points="2973,-78.5 2973,-119.5 3161,-119.5 3161,-78.5 2973,-78.5"/>
<text text-anchor="start" x="2981" y="-107.5" font-family="Helvetica,sans-Serif" font-size="10.00">C:/Users/micho/Desktop</text>
<text text-anchor="start" x="2981" y="-96.5" font-family="Helvetica,sans-Serif" font-size="10.00">/mt_engine/mt/WM_ENTERSIZEMOVE</text>
<text text-anchor="middle" x="3067" y="-85.5" font-family="Helvetica,sans-Serif" font-size="10.00">_Handler.cpp</text>
</a>
</g>
</g>
<!-- Node2&#45;&gt;Node21 -->
<g id="edge28" class="edge"><title>Node2&#45;&gt;Node21</title>
<path fill="none" stroke="midnightblue" d="M2001.02,-156.027C2427.66,-107.596 2541.39,-168.626 2964,-120 2966.9,-119.667 2969.83,-119.297 2972.79,-118.897"/>
<polygon fill="midnightblue" stroke="midnightblue" points="2000.42,-152.573 1990.88,-157.192 2001.22,-159.528 2000.42,-152.573"/>
</g>
<!-- Node22 -->
<g id="node22" class="node"><title>Node22</title>
<g id="a_node22"><a xlink:href="_w_m___e_x_i_t_s_i_z_e_m_o_v_e___handler_8cpp.html" target="_top" xlink:title="C:/Users/micho/Desktop\l/mt_engine/mt/WM_EXITSIZEMOVE\l_Handler.cpp">
<polygon fill="none" stroke="black" points="3179.5,-78.5 3179.5,-119.5 3354.5,-119.5 3354.5,-78.5 3179.5,-78.5"/>
<text text-anchor="start" x="3187.5" y="-107.5" font-family="Helvetica,sans-Serif" font-size="10.00">C:/Users/micho/Desktop</text>
<text text-anchor="start" x="3187.5" y="-96.5" font-family="Helvetica,sans-Serif" font-size="10.00">/mt_engine/mt/WM_EXITSIZEMOVE</text>
<text text-anchor="middle" x="3267" y="-85.5" font-family="Helvetica,sans-Serif" font-size="10.00">_Handler.cpp</text>
</a>
</g>
</g>
<!-- Node2&#45;&gt;Node22 -->
<g id="edge29" class="edge"><title>Node2&#45;&gt;Node22</title>
<path fill="none" stroke="midnightblue" d="M2000.85,-156.054C2518.73,-98.836 2656.59,-180.369 3170,-120 3173.07,-119.639 3176.19,-119.229 3179.34,-118.78"/>
<polygon fill="midnightblue" stroke="midnightblue" points="2000.43,-152.579 1990.88,-157.167 2001.21,-159.536 2000.43,-152.579"/>
</g>
<!-- Node23 -->
<g id="node23" class="node"><title>Node23</title>
<g id="a_node23"><a xlink:href="_w_m___k_e_y_u_p___handler_8cpp.html" target="_top" xlink:title="C:/Users/micho/Desktop\l/mt_engine/mt/WM_KEYUP\l_Handler.cpp">
<polygon fill="none" stroke="black" points="3372.5,-78.5 3372.5,-119.5 3511.5,-119.5 3511.5,-78.5 3372.5,-78.5"/>
<text text-anchor="start" x="3380.5" y="-107.5" font-family="Helvetica,sans-Serif" font-size="10.00">C:/Users/micho/Desktop</text>
<text text-anchor="start" x="3380.5" y="-96.5" font-family="Helvetica,sans-Serif" font-size="10.00">/mt_engine/mt/WM_KEYUP</text>
<text text-anchor="middle" x="3442" y="-85.5" font-family="Helvetica,sans-Serif" font-size="10.00">_Handler.cpp</text>
</a>
</g>
</g>
<!-- Node2&#45;&gt;Node23 -->
<g id="edge30" class="edge"><title>Node2&#45;&gt;Node23</title>
<path fill="none" stroke="midnightblue" d="M2001.14,-156.028C2604.59,-90.7408 2766.76,-203.369 3364,-120 3366.77,-119.613 3369.58,-119.165 3372.41,-118.667"/>
<polygon fill="midnightblue" stroke="midnightblue" points="2000.44,-152.584 1990.88,-157.151 2001.2,-159.543 2000.44,-152.584"/>
</g>
<!-- Node24 -->
<g id="node24" class="node"><title>Node24</title>
<g id="a_node24"><a xlink:href="_w_m___s_i_z_e___handler_8cpp.html" target="_top" xlink:title="C:/Users/micho/Desktop\l/mt_engine/mt/WM_SIZE\l_Handler.cpp">
<polygon fill="none" stroke="black" points="3530,-78.5 3530,-119.5 3656,-119.5 3656,-78.5 3530,-78.5"/>
<text text-anchor="start" x="3538" y="-107.5" font-family="Helvetica,sans-Serif" font-size="10.00">C:/Users/micho/Desktop</text>
<text text-anchor="start" x="3538" y="-96.5" font-family="Helvetica,sans-Serif" font-size="10.00">/mt_engine/mt/WM_SIZE</text>
<text text-anchor="middle" x="3593" y="-85.5" font-family="Helvetica,sans-Serif" font-size="10.00">_Handler.cpp</text>
</a>
</g>
</g>
<!-- Node2&#45;&gt;Node24 -->
<g id="edge31" class="edge"><title>Node2&#45;&gt;Node24</title>
<path fill="none" stroke="midnightblue" d="M2000.87,-156.086C2352.25,-120.31 3189.75,-169.151 3521,-120 3523.95,-119.562 3526.95,-119.041 3529.97,-118.456"/>
<polygon fill="midnightblue" stroke="midnightblue" points="2000.45,-152.61 1990.88,-157.141 2001.19,-159.572 2000.45,-152.61"/>
</g>
<!-- Node25 -->
<g id="node25" class="node"><title>Node25</title>
<g id="a_node25"><a xlink:href="_w_m___t_i_m_e_r___handler_8cpp.html" target="_top" xlink:title="C:/Users/micho/Desktop\l/mt_engine/mt/WM_TIMER\l_Handler.cpp">
<polygon fill="none" stroke="black" points="3674,-78.5 3674,-119.5 3808,-119.5 3808,-78.5 3674,-78.5"/>
<text text-anchor="start" x="3682" y="-107.5" font-family="Helvetica,sans-Serif" font-size="10.00">C:/Users/micho/Desktop</text>
<text text-anchor="start" x="3682" y="-96.5" font-family="Helvetica,sans-Serif" font-size="10.00">/mt_engine/mt/WM_TIMER</text>
<text text-anchor="middle" x="3741" y="-85.5" font-family="Helvetica,sans-Serif" font-size="10.00">_Handler.cpp</text>
</a>
</g>
</g>
<!-- Node2&#45;&gt;Node25 -->
<g id="edge32" class="edge"><title>Node2&#45;&gt;Node25</title>
<path fill="none" stroke="midnightblue" d="M2000.95,-156.078C2384.26,-117.233 3301.73,-170.997 3665,-120 3667.84,-119.602 3670.72,-119.134 3673.62,-118.611"/>
<polygon fill="midnightblue" stroke="midnightblue" points="2000.46,-152.61 1990.88,-157.133 2001.19,-159.572 2000.46,-152.61"/>
</g>
<!-- Node11 -->
<g id="node11" class="node"><title>Node11</title>
<g id="a_node11"><a xlink:href="_windows_message_handling_service_8cpp.html" target="_top" xlink:title="C:/Users/micho/Desktop\l/mt_engine/mt/WindowsMessage\lHandlingService.cpp">
<polygon fill="none" stroke="black" points="1938.5,-0.5 1938.5,-41.5 2099.5,-41.5 2099.5,-0.5 1938.5,-0.5"/>
<text text-anchor="start" x="1946.5" y="-29.5" font-family="Helvetica,sans-Serif" font-size="10.00">C:/Users/micho/Desktop</text>
<text text-anchor="start" x="1946.5" y="-18.5" font-family="Helvetica,sans-Serif" font-size="10.00">/mt_engine/mt/WindowsMessage</text>
<text text-anchor="middle" x="2019" y="-7.5" font-family="Helvetica,sans-Serif" font-size="10.00">HandlingService.cpp</text>
</a>
</g>
</g>
<!-- Node10&#45;&gt;Node11 -->
<g id="edge10" class="edge"><title>Node10&#45;&gt;Node11</title>
<path fill="none" stroke="midnightblue" d="M1361.92,-77.9566C1575.64,-47.8912 1815.95,-32.44 1938.39,-25.8826"/>
<polygon fill="midnightblue" stroke="midnightblue" points="1361.17,-74.5276 1351.77,-79.3993 1362.16,-81.4581 1361.17,-74.5276"/>
</g>
<!-- Node12&#45;&gt;Node11 -->
<g id="edge12" class="edge"><title>Node12&#45;&gt;Node11</title>
<path fill="none" stroke="midnightblue" d="M1542.32,-77.8557C1687.11,-53.756 1845.12,-37.4832 1938.3,-28.921"/>
<polygon fill="midnightblue" stroke="midnightblue" points="1541.64,-74.4203 1532.36,-79.5293 1542.8,-81.3235 1541.64,-74.4203"/>
</g>
<!-- Node13&#45;&gt;Node11 -->
<g id="edge14" class="edge"><title>Node13&#45;&gt;Node11</title>
<path fill="none" stroke="midnightblue" d="M1742.14,-77.6658C1803.62,-65.3035 1881.07,-49.7327 1938.4,-38.2049"/>
<polygon fill="midnightblue" stroke="midnightblue" points="1741.14,-74.2968 1732.02,-79.6994 1742.52,-81.1595 1741.14,-74.2968"/>
</g>
<!-- Node14&#45;&gt;Node11 -->
<g id="edge16" class="edge"><title>Node14&#45;&gt;Node11</title>
<path fill="none" stroke="midnightblue" d="M1890.25,-74.6086C1916.21,-64.0008 1946.55,-51.6015 1971.26,-41.5056"/>
<polygon fill="midnightblue" stroke="midnightblue" points="1888.83,-71.4056 1880.9,-78.4281 1891.48,-77.8856 1888.83,-71.4056"/>
</g>
<!-- Node15&#45;&gt;Node11 -->
<g id="edge18" class="edge"><title>Node15&#45;&gt;Node11</title>
<path fill="none" stroke="midnightblue" d="M2019,-68.2965C2019,-59.3009 2019,-49.6532 2019,-41.5056"/>
<polygon fill="midnightblue" stroke="midnightblue" points="2015.5,-68.4281 2019,-78.4281 2022.5,-68.4281 2015.5,-68.4281"/>
</g>
<!-- Node16&#45;&gt;Node11 -->
<g id="edge20" class="edge"><title>Node16&#45;&gt;Node11</title>
<path fill="none" stroke="midnightblue" d="M2133.68,-74.189C2110.58,-63.6749 2083.75,-51.4687 2061.86,-41.5056"/>
<polygon fill="midnightblue" stroke="midnightblue" points="2132.44,-77.4716 2142.99,-78.4281 2135.34,-71.1003 2132.44,-77.4716"/>
</g>
<!-- Node17&#45;&gt;Node11 -->
<g id="edge22" class="edge"><title>Node17&#45;&gt;Node11</title>
<path fill="none" stroke="midnightblue" d="M2260.65,-76.1746C2209.64,-64.7387 2147.91,-50.9 2099.61,-40.0719"/>
<polygon fill="midnightblue" stroke="midnightblue" points="2260.18,-79.6557 2270.7,-78.4281 2261.71,-72.8252 2260.18,-79.6557"/>
</g>
<!-- Node18&#45;&gt;Node11 -->
<g id="edge24" class="edge"><title>Node18&#45;&gt;Node11</title>
<path fill="none" stroke="midnightblue" d="M2456.57,-77.8226C2326.3,-55.5936 2185.91,-39.2619 2099.83,-30.119"/>
<polygon fill="midnightblue" stroke="midnightblue" points="2456.28,-81.3242 2466.73,-79.572 2457.46,-74.4257 2456.28,-81.3242"/>
</g>
<!-- Node19&#45;&gt;Node11 -->
<g id="edge26" class="edge"><title>Node19&#45;&gt;Node11</title>
<path fill="none" stroke="midnightblue" d="M2638.68,-77.9113C2440.45,-44.1782 2217.03,-30.4195 2099.94,-25.057"/>
<polygon fill="midnightblue" stroke="midnightblue" points="2638.24,-81.3883 2648.69,-79.6368 2639.43,-74.4899 2638.24,-81.3883"/>
</g>
</g>
</svg>
