<?xml version="1.0" encoding="UTF-8" standalone="no"?>
<!DOCTYPE svg PUBLIC "-//W3C//DTD SVG 1.1//EN"
 "http://www.w3.org/Graphics/SVG/1.1/DTD/svg11.dtd">
<!-- Generated by graphviz version 2.38.0 (20140413.2041)
 -->
<!-- Title: C:/Users/micho/Desktop/mt_engine/mt/Command.hpp Pages: 1 -->
<svg width="344pt" height="106pt"
 viewBox="0.00 0.00 344.00 106.00" xmlns="http://www.w3.org/2000/svg" xmlns:xlink="http://www.w3.org/1999/xlink">
<g id="graph0" class="graph" transform="scale(1 1) rotate(0) translate(4 102)">
<title>C:/Users/micho/Desktop/mt_engine/mt/Command.hpp</title>
<!-- Node1 -->
<g id="node1" class="node"><title>Node1</title>
<polygon fill="#bfbfbf" stroke="black" points="88,-67.5 88,-97.5 233,-97.5 233,-67.5 88,-67.5"/>
<text text-anchor="start" x="96" y="-85.5" font-family="Helvetica,sans-Serif" font-size="10.00">C:/Users/micho/Desktop</text>
<text text-anchor="middle" x="160.5" y="-74.5" font-family="Helvetica,sans-Serif" font-size="10.00">/mt_engine/mt/Command.hpp</text>
</g>
<!-- Node2 -->
<g id="node2" class="node"><title>Node2</title>
<g id="a_node2"><a xlink:href="_command_8cpp.html" target="_top" xlink:title="C:/Users/micho/Desktop\l/mt_engine/mt/Command.cpp">
<polygon fill="none" stroke="black" points="0,-0.5 0,-30.5 145,-30.5 145,-0.5 0,-0.5"/>
<text text-anchor="start" x="8" y="-18.5" font-family="Helvetica,sans-Serif" font-size="10.00">C:/Users/micho/Desktop</text>
<text text-anchor="middle" x="72.5" y="-7.5" font-family="Helvetica,sans-Serif" font-size="10.00">/mt_engine/mt/Command.cpp</text>
</a>
</g>
</g>
<!-- Node1&#45;&gt;Node2 -->
<g id="edge1" class="edge"><title>Node1&#45;&gt;Node2</title>
<path fill="none" stroke="midnightblue" d="M133.357,-61.4511C119.819,-51.4517 103.773,-39.5995 91.5574,-30.5765"/>
<polygon fill="midnightblue" stroke="midnightblue" points="131.282,-64.2699 141.405,-67.396 135.441,-58.6393 131.282,-64.2699"/>
</g>
<!-- Node3 -->
<g id="node3" class="node"><title>Node3</title>
<g id="a_node3"><a xlink:href="_command_queue_8cpp.html" target="_top" xlink:title="C:/Users/micho/Desktop\l/mt_engine/mt/CommandQueue.cpp">
<polygon fill="none" stroke="black" points="163,-0.5 163,-30.5 336,-30.5 336,-0.5 163,-0.5"/>
<text text-anchor="start" x="171" y="-18.5" font-family="Helvetica,sans-Serif" font-size="10.00">C:/Users/micho/Desktop</text>
<text text-anchor="middle" x="249.5" y="-7.5" font-family="Helvetica,sans-Serif" font-size="10.00">/mt_engine/mt/CommandQueue.cpp</text>
</a>
</g>
</g>
<!-- Node1&#45;&gt;Node3 -->
<g id="edge2" class="edge"><title>Node1&#45;&gt;Node3</title>
<path fill="none" stroke="midnightblue" d="M187.952,-61.4511C201.643,-51.4517 217.871,-39.5995 230.226,-30.5765"/>
<polygon fill="midnightblue" stroke="midnightblue" points="185.823,-58.6716 179.812,-67.396 189.952,-64.3245 185.823,-58.6716"/>
</g>
</g>
</svg>
