<?xml version="1.0" encoding="UTF-8" standalone="no"?>
<!DOCTYPE svg PUBLIC "-//W3C//DTD SVG 1.1//EN"
 "http://www.w3.org/Graphics/SVG/1.1/DTD/svg11.dtd">
<!-- Generated by graphviz version 2.38.0 (20140413.2041)
 -->
<!-- Title: FillInitData12 Pages: 1 -->
<svg width="304pt" height="28pt"
 viewBox="0.00 0.00 304.00 28.00" xmlns="http://www.w3.org/2000/svg" xmlns:xlink="http://www.w3.org/1999/xlink">
<g id="graph0" class="graph" transform="scale(1 1) rotate(0) translate(4 24)">
<title>FillInitData12</title>
<!-- Node1 -->
<g id="node1" class="node"><title>Node1</title>
<polygon fill="#bfbfbf" stroke="black" points="0,-0.5 0,-19.5 73,-19.5 73,-0.5 0,-0.5"/>
<text text-anchor="middle" x="36.5" y="-7.5" font-family="Helvetica,sans-Serif" font-size="10.00">FillInitData12</text>
</g>
<!-- Node2 -->
<g id="node2" class="node"><title>Node2</title>
<g id="a_node2"><a xlink:href="_d_d_s_texture_loader_8cpp.html#af572c1b170d5c8945533758c4607ce23" target="_top" xlink:title="GetSurfaceInfo">
<polygon fill="none" stroke="black" points="109,-0.5 109,-19.5 189,-19.5 189,-0.5 109,-0.5"/>
<text text-anchor="middle" x="149" y="-7.5" font-family="Helvetica,sans-Serif" font-size="10.00">GetSurfaceInfo</text>
</a>
</g>
</g>
<!-- Node1&#45;&gt;Node2 -->
<g id="edge1" class="edge"><title>Node1&#45;&gt;Node2</title>
<path fill="none" stroke="midnightblue" d="M73.0711,-10C81.1448,-10 89.8634,-10 98.4002,-10"/>
<polygon fill="midnightblue" stroke="midnightblue" points="98.6675,-13.5001 108.667,-10 98.6674,-6.5001 98.6675,-13.5001"/>
</g>
<!-- Node3 -->
<g id="node3" class="node"><title>Node3</title>
<g id="a_node3"><a xlink:href="_d_d_s_texture_loader_8cpp.html#adc6281b47023b36aab820be09ab3431c" target="_top" xlink:title="BitsPerPixel">
<polygon fill="none" stroke="black" points="225,-0.5 225,-19.5 296,-19.5 296,-0.5 225,-0.5"/>
<text text-anchor="middle" x="260.5" y="-7.5" font-family="Helvetica,sans-Serif" font-size="10.00">BitsPerPixel</text>
</a>
</g>
</g>
<!-- Node2&#45;&gt;Node3 -->
<g id="edge2" class="edge"><title>Node2&#45;&gt;Node3</title>
<path fill="none" stroke="midnightblue" d="M189.223,-10C197.512,-10 206.319,-10 214.794,-10"/>
<polygon fill="midnightblue" stroke="midnightblue" points="214.909,-13.5001 224.909,-10 214.909,-6.5001 214.909,-13.5001"/>
</g>
</g>
</svg>
