<?xml version="1.0" encoding="UTF-8" standalone="no"?>
<!DOCTYPE svg PUBLIC "-//W3C//DTD SVG 1.1//EN"
 "http://www.w3.org/Graphics/SVG/1.1/DTD/svg11.dtd">
<!-- Generated by graphviz version 2.38.0 (20140413.2041)
 -->
<!-- Title: BitsPerPixel Pages: 1 -->
<svg width="588pt" height="129pt"
 viewBox="0.00 0.00 588.00 129.03" xmlns="http://www.w3.org/2000/svg" xmlns:xlink="http://www.w3.org/1999/xlink">
<g id="graph0" class="graph" transform="scale(1 1) rotate(0) translate(4 125.03)">
<title>BitsPerPixel</title>
<!-- Node1 -->
<g id="node1" class="node"><title>Node1</title>
<polygon fill="#bfbfbf" stroke="black" points="0,-50.6537 0,-69.6537 71,-69.6537 71,-50.6537 0,-50.6537"/>
<text text-anchor="middle" x="35.5" y="-57.6537" font-family="Helvetica,sans-Serif" font-size="10.00">BitsPerPixel</text>
</g>
<!-- Node2 -->
<g id="node2" class="node"><title>Node2</title>
<g id="a_node2"><a xlink:href="_d_d_s_texture_loader_8cpp.html#af572c1b170d5c8945533758c4607ce23" target="_top" xlink:title="GetSurfaceInfo">
<polygon fill="none" stroke="black" points="107,-50.6537 107,-69.6537 187,-69.6537 187,-50.6537 107,-50.6537"/>
<text text-anchor="middle" x="147" y="-57.6537" font-family="Helvetica,sans-Serif" font-size="10.00">GetSurfaceInfo</text>
</a>
</g>
</g>
<!-- Node1&#45;&gt;Node2 -->
<g id="edge1" class="edge"><title>Node1&#45;&gt;Node2</title>
<path fill="none" stroke="midnightblue" d="M81.2019,-60.1537C89.6252,-60.1537 98.3771,-60.1537 106.623,-60.1537"/>
<polygon fill="midnightblue" stroke="midnightblue" points="81.1465,-56.6538 71.1465,-60.1537 81.1464,-63.6538 81.1465,-56.6538"/>
</g>
<!-- Node4 -->
<g id="node4" class="node"><title>Node4</title>
<g id="a_node4"><a xlink:href="_d_d_s_texture_loader_8cpp.html#ac97ddcbab1e9ce61667a0862b58f9c56" target="_top" xlink:title="CreateTextureFromDDS">
<polygon fill="none" stroke="black" points="337.5,-69.6537 337.5,-88.6537 457.5,-88.6537 457.5,-69.6537 337.5,-69.6537"/>
<text text-anchor="middle" x="397.5" y="-76.6537" font-family="Helvetica,sans-Serif" font-size="10.00">CreateTextureFromDDS</text>
</a>
</g>
</g>
<!-- Node1&#45;&gt;Node4 -->
<g id="edge9" class="edge"><title>Node1&#45;&gt;Node4</title>
<path fill="none" stroke="midnightblue" d="M64.9722,-73.9808C112.59,-95.3976 211.489,-132.597 296,-117.154 325.543,-111.755 357.676,-98.117 377.457,-88.7385"/>
<polygon fill="midnightblue" stroke="midnightblue" points="66.1607,-70.675 55.6131,-69.6749 63.2349,-77.0342 66.1607,-70.675"/>
</g>
<!-- Node7 -->
<g id="node7" class="node"><title>Node7</title>
<g id="a_node7"><a xlink:href="_d_d_s_texture_loader_8cpp.html#aa0c87b1491a829d1a28da9bb89b2d2a6" target="_top" xlink:title="CreateTextureFromDDS12">
<polygon fill="none" stroke="black" points="332,-12.6537 332,-31.6537 463,-31.6537 463,-12.6537 332,-12.6537"/>
<text text-anchor="middle" x="397.5" y="-19.6537" font-family="Helvetica,sans-Serif" font-size="10.00">CreateTextureFromDDS12</text>
</a>
</g>
</g>
<!-- Node1&#45;&gt;Node7 -->
<g id="edge10" class="edge"><title>Node1&#45;&gt;Node7</title>
<path fill="none" stroke="midnightblue" d="M69.5072,-46.7931C106.253,-32.6982 167.753,-11.4078 223,-3.15374 255.088,1.64038 263.697,-0.127029 296,-3.15374 315.801,-5.00905 337.513,-8.87768 355.673,-12.6429"/>
<polygon fill="midnightblue" stroke="midnightblue" points="67.8751,-43.6725 59.8252,-50.561 70.4138,-50.1959 67.8751,-43.6725"/>
</g>
<!-- Node3 -->
<g id="node3" class="node"><title>Node3</title>
<g id="a_node3"><a xlink:href="_d_d_s_texture_loader_8cpp.html#af01b3b33c47f4e9d8e30d00d5b586522" target="_top" xlink:title="FillInitData">
<polygon fill="none" stroke="black" points="228.5,-88.6537 228.5,-107.654 290.5,-107.654 290.5,-88.6537 228.5,-88.6537"/>
<text text-anchor="middle" x="259.5" y="-95.6537" font-family="Helvetica,sans-Serif" font-size="10.00">FillInitData</text>
</a>
</g>
</g>
<!-- Node2&#45;&gt;Node3 -->
<g id="edge2" class="edge"><title>Node2&#45;&gt;Node3</title>
<path fill="none" stroke="midnightblue" d="M185.721,-73.1255C200.442,-78.1882 217.016,-83.8878 230.625,-88.5678"/>
<polygon fill="midnightblue" stroke="midnightblue" points="186.478,-69.685 175.884,-69.7427 184.202,-76.3046 186.478,-69.685"/>
</g>
<!-- Node2&#45;&gt;Node4 -->
<g id="edge8" class="edge"><title>Node2&#45;&gt;Node4</title>
<path fill="none" stroke="midnightblue" d="M197.211,-63.9163C237.464,-66.994 294.516,-71.3562 337.27,-74.6251"/>
<polygon fill="midnightblue" stroke="midnightblue" points="197.339,-60.416 187.101,-63.1434 196.806,-67.3957 197.339,-60.416"/>
</g>
<!-- Node6 -->
<g id="node6" class="node"><title>Node6</title>
<g id="a_node6"><a xlink:href="_d_d_s_texture_loader_8cpp.html#a51511e9ea8b201e1f254b21b36da0f69" target="_top" xlink:title="FillInitData12">
<polygon fill="none" stroke="black" points="223,-12.6537 223,-31.6537 296,-31.6537 296,-12.6537 223,-12.6537"/>
<text text-anchor="middle" x="259.5" y="-19.6537" font-family="Helvetica,sans-Serif" font-size="10.00">FillInitData12</text>
</a>
</g>
</g>
<!-- Node2&#45;&gt;Node6 -->
<g id="edge5" class="edge"><title>Node2&#45;&gt;Node6</title>
<path fill="none" stroke="midnightblue" d="M185.721,-47.182C200.442,-42.1193 217.016,-36.4196 230.625,-31.7397"/>
<polygon fill="midnightblue" stroke="midnightblue" points="184.202,-44.0029 175.884,-50.5647 186.478,-50.6224 184.202,-44.0029"/>
</g>
<!-- Node3&#45;&gt;Node4 -->
<g id="edge3" class="edge"><title>Node3&#45;&gt;Node4</title>
<path fill="none" stroke="midnightblue" d="M300.819,-92.5209C312.297,-90.9174 325.044,-89.1366 337.392,-87.4114"/>
<polygon fill="midnightblue" stroke="midnightblue" points="300.102,-89.087 290.683,-93.937 301.071,-96.0196 300.102,-89.087"/>
</g>
<!-- Node5 -->
<g id="node5" class="node"><title>Node5</title>
<g id="a_node5"><a xlink:href="_d_d_s_texture_loader_8cpp.html#a8c2c61f7f7e3bd20619e3746b8e20286" target="_top" xlink:title="GetAlphaMode">
<polygon fill="none" stroke="black" points="499,-40.6537 499,-59.6537 580,-59.6537 580,-40.6537 499,-40.6537"/>
<text text-anchor="middle" x="539.5" y="-47.6537" font-family="Helvetica,sans-Serif" font-size="10.00">GetAlphaMode</text>
</a>
</g>
</g>
<!-- Node4&#45;&gt;Node5 -->
<g id="edge4" class="edge"><title>Node4&#45;&gt;Node5</title>
<path fill="none" stroke="midnightblue" d="M454.789,-67.4938C469.565,-64.4331 485.19,-61.1966 498.888,-58.3592"/>
<polygon fill="midnightblue" stroke="midnightblue" points="453.811,-64.122 444.729,-69.5777 455.231,-70.9765 453.811,-64.122"/>
</g>
<!-- Node6&#45;&gt;Node7 -->
<g id="edge6" class="edge"><title>Node6&#45;&gt;Node7</title>
<path fill="none" stroke="midnightblue" d="M306.317,-22.1537C314.515,-22.1537 323.197,-22.1537 331.808,-22.1537"/>
<polygon fill="midnightblue" stroke="midnightblue" points="306.232,-18.6538 296.232,-22.1537 306.232,-25.6538 306.232,-18.6538"/>
</g>
<!-- Node7&#45;&gt;Node5 -->
<g id="edge7" class="edge"><title>Node7&#45;&gt;Node5</title>
<path fill="none" stroke="midnightblue" d="M456.505,-33.7547C470.749,-36.6036 485.677,-39.5891 498.832,-42.2201"/>
<polygon fill="midnightblue" stroke="midnightblue" points="456.781,-30.2406 446.288,-31.7114 455.408,-37.1047 456.781,-30.2406"/>
</g>
</g>
</svg>
