<?xml version="1.0" encoding="UTF-8" standalone="no"?>
<!DOCTYPE svg PUBLIC "-//W3C//DTD SVG 1.1//EN"
 "http://www.w3.org/Graphics/SVG/1.1/DTD/svg11.dtd">
<!-- Generated by graphviz version 2.38.0 (20140413.2041)
 -->
<!-- Title: C:/Users/micho/Desktop/mt_engine/mt/DDSTextureLoader.h Pages: 1 -->
<!--zoomable 463 -->
<svg id="main" version="1.1" xmlns="http://www.w3.org/2000/svg" xmlns:xlink="http://www.w3.org/1999/xlink" xml:space="preserve" onload="init(evt)">
<style type="text/css"><![CDATA[
.edge:hover path { stroke: red; }
.edge:hover polygon { stroke: red; fill: red; }
]]></style>
<script type="text/javascript"><![CDATA[
var edges = document.getElementsByTagName('g');
if (edges && edges.length) {
  for (var i=0;i<edges.length;i++) {
    if (edges[i].id.substr(0,4)=='edge') {
      edges[i].setAttribute('class','edge');
    }
  }
}
]]></script>
        <defs>
                <circle id="rim" cx="0" cy="0" r="7"/>
                <circle id="rim2" cx="0" cy="0" r="3.5"/>
                <g id="zoomPlus">
                        <use xlink:href="#rim" fill="#404040">
                                <set attributeName="fill" to="#808080" begin="zoomplus.mouseover" end="zoomplus.mouseout"/>
                        </use>
                        <path d="M-4,0h8M0,-4v8" fill="none" stroke="white" stroke-width="1.5" pointer-events="none"/>
                </g>
                <g id="zoomMin">
                        <use xlink:href="#rim" fill="#404040">
                                <set attributeName="fill" to="#808080" begin="zoomminus.mouseover" end="zoomminus.mouseout"/>
                        </use>
                        <path d="M-4,0h8" fill="none" stroke="white" stroke-width="1.5" pointer-events="none"/>
                </g>
                <g id="dirArrow">
                        <path fill="none" stroke="white" stroke-width="1.5" d="M0,-3.0v7 M-2.5,-0.5L0,-3.0L2.5,-0.5"/>
                </g>
               <g id="resetDef">
                       <use xlink:href="#rim2" fill="#404040">
                               <set attributeName="fill" to="#808080" begin="reset.mouseover" end="reset.mouseout"/>
                       </use>
               </g>
        </defs>

<script type="text/javascript">
var viewWidth = 3817;
var viewHeight = 463;
var sectionId = 'dynsection-1';
</script>
<script xlink:href="svgpan.js"/>
<svg id="graph" class="graph">
<g id="viewport">
<title>C:/Users/micho/Desktop/mt_engine/mt/DDSTextureLoader.h</title>
<!-- Node1 -->
<g id="node1" class="node"><title>Node1</title>
<polygon fill="#bfbfbf" stroke="black" points="2115,-424.5 2115,-454.5 2287,-454.5 2287,-424.5 2115,-424.5"/>
<text text-anchor="start" x="2123" y="-442.5" font-family="Helvetica,sans-Serif" font-size="10.00">C:/Users/micho/Desktop</text>
<text text-anchor="middle" x="2201" y="-431.5" font-family="Helvetica,sans-Serif" font-size="10.00">/mt_engine/mt/DDSTextureLoader.h</text>
</g>
<!-- Node2 -->
<g id="node2" class="node"><title>Node2</title>
<g id="a_node2"><a xlink:href="d3d_util_8h.html" target="_top" xlink:title="C:/Users/micho/Desktop\l/mt_engine/mt/d3dUtil.h">
<polygon fill="none" stroke="black" points="2054.5,-357.5 2054.5,-387.5 2177.5,-387.5 2177.5,-357.5 2054.5,-357.5"/>
<text text-anchor="start" x="2062.5" y="-375.5" font-family="Helvetica,sans-Serif" font-size="10.00">C:/Users/micho/Desktop</text>
<text text-anchor="middle" x="2116" y="-364.5" font-family="Helvetica,sans-Serif" font-size="10.00">/mt_engine/mt/d3dUtil.h</text>
</a>
</g>
</g>
<!-- Node1&#45;&gt;Node2 -->
<g id="edge1" class="edge"><title>Node1&#45;&gt;Node2</title>
<path fill="none" stroke="midnightblue" d="M2174.41,-418.168C2161.41,-408.228 2146.1,-396.514 2134.41,-387.577"/>
<polygon fill="midnightblue" stroke="midnightblue" points="2172.49,-421.102 2182.56,-424.396 2176.74,-415.541 2172.49,-421.102"/>
</g>
<!-- Node31 -->
<g id="node31" class="node"><title>Node31</title>
<g id="a_node31"><a xlink:href="_d_d_s_texture_loader_8cpp.html" target="_top" xlink:title="C:/Users/micho/Desktop\l/mt_engine/mt/DDSTextureLoader.cpp">
<polygon fill="none" stroke="black" points="2196,-357.5 2196,-387.5 2378,-387.5 2378,-357.5 2196,-357.5"/>
<text text-anchor="start" x="2204" y="-375.5" font-family="Helvetica,sans-Serif" font-size="10.00">C:/Users/micho/Desktop</text>
<text text-anchor="middle" x="2287" y="-364.5" font-family="Helvetica,sans-Serif" font-size="10.00">/mt_engine/mt/DDSTextureLoader.cpp</text>
</a>
</g>
</g>
<!-- Node1&#45;&gt;Node31 -->
<g id="edge43" class="edge"><title>Node1&#45;&gt;Node31</title>
<path fill="none" stroke="midnightblue" d="M2227.9,-418.168C2241.05,-408.228 2256.55,-396.514 2268.38,-387.577"/>
<polygon fill="midnightblue" stroke="midnightblue" points="2225.53,-415.574 2219.66,-424.396 2229.75,-421.158 2225.53,-415.574"/>
</g>
<!-- Node3 -->
<g id="node3" class="node"><title>Node3</title>
<g id="a_node3"><a xlink:href="_camera_8hpp.html" target="_top" xlink:title="C:/Users/micho/Desktop\l/mt_engine/mt/Camera.hpp">
<polygon fill="none" stroke="black" points="1904,-290.5 1904,-320.5 2038,-320.5 2038,-290.5 1904,-290.5"/>
<text text-anchor="start" x="1912" y="-308.5" font-family="Helvetica,sans-Serif" font-size="10.00">C:/Users/micho/Desktop</text>
<text text-anchor="middle" x="1971" y="-297.5" font-family="Helvetica,sans-Serif" font-size="10.00">/mt_engine/mt/Camera.hpp</text>
</a>
</g>
</g>
<!-- Node2&#45;&gt;Node3 -->
<g id="edge2" class="edge"><title>Node2&#45;&gt;Node3</title>
<path fill="none" stroke="midnightblue" d="M2075.33,-353.269C2052.24,-342.916 2023.76,-330.153 2002.4,-320.577"/>
<polygon fill="midnightblue" stroke="midnightblue" points="2073.98,-356.499 2084.54,-357.396 2076.84,-350.112 2073.98,-356.499"/>
</g>
<!-- Node5 -->
<g id="node5" class="node"><title>Node5</title>
<g id="a_node5"><a xlink:href="_direct_x_renderer_8hpp.html" target="_top" xlink:title="C:/Users/micho/Desktop\l/mt_engine/mt/DirectXRenderer.hpp">
<polygon fill="none" stroke="black" points="1981,-223.5 1981,-253.5 2151,-253.5 2151,-223.5 1981,-223.5"/>
<text text-anchor="start" x="1989" y="-241.5" font-family="Helvetica,sans-Serif" font-size="10.00">C:/Users/micho/Desktop</text>
<text text-anchor="middle" x="2066" y="-230.5" font-family="Helvetica,sans-Serif" font-size="10.00">/mt_engine/mt/DirectXRenderer.hpp</text>
</a>
</g>
</g>
<!-- Node2&#45;&gt;Node5 -->
<g id="edge38" class="edge"><title>Node2&#45;&gt;Node5</title>
<path fill="none" stroke="midnightblue" d="M2100.44,-348.58C2095.27,-340.184 2089.86,-330.427 2086,-321 2076.73,-298.346 2071.01,-270.327 2068.18,-253.74"/>
<polygon fill="midnightblue" stroke="midnightblue" points="2097.53,-350.533 2105.87,-357.075 2103.43,-346.764 2097.53,-350.533"/>
</g>
<!-- Node29 -->
<g id="node29" class="node"><title>Node29</title>
<g id="a_node29"><a xlink:href="_upload_buffer_8h.html" target="_top" xlink:title="C:/Users/micho/Desktop\l/mt_engine/mt/UploadBuffer.h">
<polygon fill="none" stroke="black" points="2094.5,-290.5 2094.5,-320.5 2239.5,-320.5 2239.5,-290.5 2094.5,-290.5"/>
<text text-anchor="start" x="2102.5" y="-308.5" font-family="Helvetica,sans-Serif" font-size="10.00">C:/Users/micho/Desktop</text>
<text text-anchor="middle" x="2167" y="-297.5" font-family="Helvetica,sans-Serif" font-size="10.00">/mt_engine/mt/UploadBuffer.h</text>
</a>
</g>
</g>
<!-- Node2&#45;&gt;Node29 -->
<g id="edge39" class="edge"><title>Node2&#45;&gt;Node29</title>
<path fill="none" stroke="midnightblue" d="M2133.3,-349.447C2140.79,-339.899 2149.34,-329.004 2155.96,-320.577"/>
<polygon fill="midnightblue" stroke="midnightblue" points="2130.49,-347.368 2127.07,-357.396 2135.99,-351.689 2130.49,-347.368"/>
</g>
<!-- Node30 -->
<g id="node30" class="node"><title>Node30</title>
<g id="a_node30"><a xlink:href="d3d_util_8cpp.html" target="_top" xlink:title="C:/Users/micho/Desktop\l/mt_engine/mt/d3dUtil.cpp">
<polygon fill="none" stroke="black" points="2257.5,-290.5 2257.5,-320.5 2388.5,-320.5 2388.5,-290.5 2257.5,-290.5"/>
<text text-anchor="start" x="2265.5" y="-308.5" font-family="Helvetica,sans-Serif" font-size="10.00">C:/Users/micho/Desktop</text>
<text text-anchor="middle" x="2323" y="-297.5" font-family="Helvetica,sans-Serif" font-size="10.00">/mt_engine/mt/d3dUtil.cpp</text>
</a>
</g>
</g>
<!-- Node2&#45;&gt;Node30 -->
<g id="edge42" class="edge"><title>Node2&#45;&gt;Node30</title>
<path fill="none" stroke="midnightblue" d="M2170.32,-354.444C2203.87,-343.908 2246.41,-330.549 2278.06,-320.611"/>
<polygon fill="midnightblue" stroke="midnightblue" points="2169.15,-351.141 2160.66,-357.476 2171.25,-357.819 2169.15,-351.141"/>
</g>
<!-- Node4 -->
<g id="node4" class="node"><title>Node4</title>
<g id="a_node4"><a xlink:href="_camera_8cpp.html" target="_top" xlink:title="C:/Users/micho/Desktop\l/mt_engine/mt/Camera.cpp">
<polygon fill="none" stroke="black" points="0,-84 0,-114 134,-114 134,-84 0,-84"/>
<text text-anchor="start" x="8" y="-102" font-family="Helvetica,sans-Serif" font-size="10.00">C:/Users/micho/Desktop</text>
<text text-anchor="middle" x="67" y="-91" font-family="Helvetica,sans-Serif" font-size="10.00">/mt_engine/mt/Camera.cpp</text>
</a>
</g>
</g>
<!-- Node3&#45;&gt;Node4 -->
<g id="edge3" class="edge"><title>Node3&#45;&gt;Node4</title>
<path fill="none" stroke="midnightblue" d="M1893.45,-301.027C1640.1,-288.756 814.419,-241.454 143,-120 134.139,-118.397 124.795,-116.291 115.807,-114.049"/>
<polygon fill="midnightblue" stroke="midnightblue" points="1893.5,-304.533 1903.66,-301.517 1893.84,-297.542 1893.5,-304.533"/>
</g>
<!-- Node3&#45;&gt;Node5 -->
<g id="edge4" class="edge"><title>Node3&#45;&gt;Node5</title>
<path fill="none" stroke="midnightblue" d="M1999.89,-284.734C2014.59,-274.676 2032.11,-262.685 2045.43,-253.577"/>
<polygon fill="midnightblue" stroke="midnightblue" points="1997.89,-281.861 1991.61,-290.396 2001.84,-287.638 1997.89,-281.861"/>
</g>
<!-- Node6 -->
<g id="node6" class="node"><title>Node6</title>
<g id="a_node6"><a xlink:href="engine_8hpp.html" target="_top" xlink:title="C:/Users/micho/Desktop\l/mt_engine/mt/engine.hpp">
<polygon fill="none" stroke="black" points="1991.5,-156.5 1991.5,-186.5 2120.5,-186.5 2120.5,-156.5 1991.5,-156.5"/>
<text text-anchor="start" x="1999.5" y="-174.5" font-family="Helvetica,sans-Serif" font-size="10.00">C:/Users/micho/Desktop</text>
<text text-anchor="middle" x="2056" y="-163.5" font-family="Helvetica,sans-Serif" font-size="10.00">/mt_engine/mt/engine.hpp</text>
</a>
</g>
</g>
<!-- Node5&#45;&gt;Node6 -->
<g id="edge5" class="edge"><title>Node5&#45;&gt;Node6</title>
<path fill="none" stroke="midnightblue" d="M2062.29,-213.403C2060.9,-204.37 2059.37,-194.408 2058.17,-186.577"/>
<polygon fill="midnightblue" stroke="midnightblue" points="2058.85,-214.044 2063.83,-223.396 2065.77,-212.98 2058.85,-214.044"/>
</g>
<!-- Node8 -->
<g id="node8" class="node"><title>Node8</title>
<g id="a_node8"><a xlink:href="_direct_x_renderer_8cpp.html" target="_top" xlink:title="C:/Users/micho/Desktop\l/mt_engine/mt/DirectXRenderer.cpp">
<polygon fill="none" stroke="black" points="3465,-84 3465,-114 3635,-114 3635,-84 3465,-84"/>
<text text-anchor="start" x="3473" y="-102" font-family="Helvetica,sans-Serif" font-size="10.00">C:/Users/micho/Desktop</text>
<text text-anchor="middle" x="3550" y="-91" font-family="Helvetica,sans-Serif" font-size="10.00">/mt_engine/mt/DirectXRenderer.cpp</text>
</a>
</g>
</g>
<!-- Node5&#45;&gt;Node8 -->
<g id="edge37" class="edge"><title>Node5&#45;&gt;Node8</title>
<path fill="none" stroke="midnightblue" d="M2092.28,-217.032C2122.7,-193.438 2169.26,-157.661 2174,-156 2308.47,-108.845 3314.5,-136.897 3456,-120 3467.76,-118.595 3480.23,-116.431 3492.11,-114.037"/>
<polygon fill="midnightblue" stroke="midnightblue" points="2089.93,-214.428 2084.18,-223.325 2094.22,-219.956 2089.93,-214.428"/>
</g>
<!-- Node6&#45;&gt;Node4 -->
<g id="edge6" class="edge"><title>Node6&#45;&gt;Node4</title>
<path fill="none" stroke="midnightblue" d="M1980.82,-169.542C1649.36,-165.178 326.881,-146.261 143,-120 133.41,-118.63 123.294,-116.482 113.681,-114.092"/>
<polygon fill="midnightblue" stroke="midnightblue" points="1981.21,-173.047 1991.26,-169.679 1981.31,-166.048 1981.21,-173.047"/>
</g>
<!-- Node7 -->
<g id="node7" class="node"><title>Node7</title>
<g id="a_node7"><a xlink:href="_command_8cpp.html" target="_top" xlink:title="C:/Users/micho/Desktop\l/mt_engine/mt/Command.cpp">
<polygon fill="none" stroke="black" points="2289.5,-84 2289.5,-114 2434.5,-114 2434.5,-84 2289.5,-84"/>
<text text-anchor="start" x="2297.5" y="-102" font-family="Helvetica,sans-Serif" font-size="10.00">C:/Users/micho/Desktop</text>
<text text-anchor="middle" x="2362" y="-91" font-family="Helvetica,sans-Serif" font-size="10.00">/mt_engine/mt/Command.cpp</text>
</a>
</g>
</g>
<!-- Node6&#45;&gt;Node7 -->
<g id="edge7" class="edge"><title>Node6&#45;&gt;Node7</title>
<path fill="none" stroke="midnightblue" d="M2129.77,-154.21C2173.49,-144.471 2229.95,-131.744 2280,-120 2288.13,-118.092 2296.71,-116.042 2305.13,-114.008"/>
<polygon fill="midnightblue" stroke="midnightblue" points="2128.79,-150.841 2119.79,-156.429 2130.31,-157.674 2128.79,-150.841"/>
</g>
<!-- Node6&#45;&gt;Node8 -->
<g id="edge8" class="edge"><title>Node6&#45;&gt;Node8</title>
<path fill="none" stroke="midnightblue" d="M2130.74,-156.588C2132.51,-156.377 2134.26,-156.18 2136,-156 2719.76,-95.4915 2873.23,-189.356 3456,-120 3467.76,-118.6 3480.23,-116.438 3492.11,-114.045"/>
<polygon fill="midnightblue" stroke="midnightblue" points="2129.96,-153.16 2120.5,-157.94 2130.87,-160.1 2129.96,-153.16"/>
</g>
<!-- Node9 -->
<g id="node9" class="node"><title>Node9</title>
<g id="a_node9"><a xlink:href="engine_8cpp.html" target="_top" xlink:title="C:/Users/micho/Desktop\l/mt_engine/mt/engine.cpp">
<polygon fill="none" stroke="black" points="2452.5,-84 2452.5,-114 2581.5,-114 2581.5,-84 2452.5,-84"/>
<text text-anchor="start" x="2460.5" y="-102" font-family="Helvetica,sans-Serif" font-size="10.00">C:/Users/micho/Desktop</text>
<text text-anchor="middle" x="2517" y="-91" font-family="Helvetica,sans-Serif" font-size="10.00">/mt_engine/mt/engine.cpp</text>
</a>
</g>
</g>
<!-- Node6&#45;&gt;Node9 -->
<g id="edge9" class="edge"><title>Node6&#45;&gt;Node9</title>
<path fill="none" stroke="midnightblue" d="M2130.76,-156.797C2132.52,-156.524 2134.27,-156.257 2136,-156 2272.32,-135.7 2308.71,-146.283 2444,-120 2452.38,-118.371 2461.22,-116.28 2469.73,-114.066"/>
<polygon fill="midnightblue" stroke="midnightblue" points="2129.88,-153.394 2120.56,-158.438 2130.99,-160.305 2129.88,-153.394"/>
</g>
<!-- Node10 -->
<g id="node10" class="node"><title>Node10</title>
<g id="a_node10"><a xlink:href="_game_timer_8cpp.html" target="_top" xlink:title="C:/Users/micho/Desktop\l/mt_engine/mt/GameTimer.cpp">
<polygon fill="none" stroke="black" points="2599.5,-84 2599.5,-114 2750.5,-114 2750.5,-84 2599.5,-84"/>
<text text-anchor="start" x="2607.5" y="-102" font-family="Helvetica,sans-Serif" font-size="10.00">C:/Users/micho/Desktop</text>
<text text-anchor="middle" x="2675" y="-91" font-family="Helvetica,sans-Serif" font-size="10.00">/mt_engine/mt/GameTimer.cpp</text>
</a>
</g>
</g>
<!-- Node6&#45;&gt;Node10 -->
<g id="edge10" class="edge"><title>Node6&#45;&gt;Node10</title>
<path fill="none" stroke="midnightblue" d="M2130.75,-156.71C2132.52,-156.462 2134.27,-156.225 2136,-156 2337.17,-129.878 2390.62,-151.587 2591,-120 2600.92,-118.436 2611.4,-116.321 2621.47,-114.05"/>
<polygon fill="midnightblue" stroke="midnightblue" points="2129.91,-153.296 2120.53,-158.229 2130.94,-160.22 2129.91,-153.296"/>
</g>
<!-- Node11 -->
<g id="node11" class="node"><title>Node11</title>
<g id="a_node11"><a xlink:href="_input_handler_8cpp.html" target="_top" xlink:title="C:/Users/micho/Desktop\l/mt_engine/mt/InputHandler.cpp">
<polygon fill="none" stroke="black" points="3653.5,-84 3653.5,-114 3808.5,-114 3808.5,-84 3653.5,-84"/>
<text text-anchor="start" x="3661.5" y="-102" font-family="Helvetica,sans-Serif" font-size="10.00">C:/Users/micho/Desktop</text>
<text text-anchor="middle" x="3731" y="-91" font-family="Helvetica,sans-Serif" font-size="10.00">/mt_engine/mt/InputHandler.cpp</text>
</a>
</g>
</g>
<!-- Node6&#45;&gt;Node11 -->
<g id="edge11" class="edge"><title>Node6&#45;&gt;Node11</title>
<path fill="none" stroke="midnightblue" d="M2131.06,-160.161C2145.29,-158.516 2160.09,-157.023 2174,-156 2825.77,-108.089 2995.59,-201.623 3644,-120 3654.92,-118.626 3666.47,-116.475 3677.47,-114.085"/>
<polygon fill="midnightblue" stroke="midnightblue" points="2130.32,-156.723 2120.81,-161.38 2131.15,-163.674 2130.32,-156.723"/>
</g>
<!-- Node12 -->
<g id="node12" class="node"><title>Node12</title>
<g id="a_node12"><a xlink:href="_windows_message_handler_8cpp.html" target="_top" xlink:title="C:/Users/micho/Desktop\l/mt_engine/mt/WindowsMessage\lHandler.cpp">
<polygon fill="none" stroke="black" points="2768.5,-78.5 2768.5,-119.5 2929.5,-119.5 2929.5,-78.5 2768.5,-78.5"/>
<text text-anchor="start" x="2776.5" y="-107.5" font-family="Helvetica,sans-Serif" font-size="10.00">C:/Users/micho/Desktop</text>
<text text-anchor="start" x="2776.5" y="-96.5" font-family="Helvetica,sans-Serif" font-size="10.00">/mt_engine/mt/WindowsMessage</text>
<text text-anchor="middle" x="2849" y="-85.5" font-family="Helvetica,sans-Serif" font-size="10.00">Handler.cpp</text>
</a>
</g>
</g>
<!-- Node6&#45;&gt;Node12 -->
<g id="edge12" class="edge"><title>Node6&#45;&gt;Node12</title>
<path fill="none" stroke="midnightblue" d="M2130.74,-156.659C2132.51,-156.427 2134.27,-156.206 2136,-156 2411.85,-123.168 2484.9,-158.582 2760,-120 2762.67,-119.626 2765.37,-119.214 2768.1,-118.769"/>
<polygon fill="midnightblue" stroke="midnightblue" points="2129.93,-153.24 2120.52,-158.11 2130.91,-160.171 2129.93,-153.24"/>
</g>
<!-- Node13 -->
<g id="node13" class="node"><title>Node13</title>
<g id="a_node13"><a xlink:href="_w_m___l_b_u_t_t_o_n_d_o_w_n___handler_8hpp.html" target="_top" xlink:title="C:/Users/micho/Desktop\l/mt_engine/mt/WM_LBUTTONDOWN\l_Handler.hpp">
<polygon fill="none" stroke="black" points="688.5,-78.5 688.5,-119.5 867.5,-119.5 867.5,-78.5 688.5,-78.5"/>
<text text-anchor="start" x="696.5" y="-107.5" font-family="Helvetica,sans-Serif" font-size="10.00">C:/Users/micho/Desktop</text>
<text text-anchor="start" x="696.5" y="-96.5" font-family="Helvetica,sans-Serif" font-size="10.00">/mt_engine/mt/WM_LBUTTONDOWN</text>
<text text-anchor="middle" x="778" y="-85.5" font-family="Helvetica,sans-Serif" font-size="10.00">_Handler.hpp</text>
</a>
</g>
</g>
<!-- Node6&#45;&gt;Node13 -->
<g id="edge13" class="edge"><title>Node6&#45;&gt;Node13</title>
<path fill="none" stroke="midnightblue" d="M1981.4,-168.834C1757.28,-163.587 1092.19,-146.182 877,-120 873.954,-119.629 870.862,-119.216 867.744,-118.767"/>
<polygon fill="midnightblue" stroke="midnightblue" points="1981.33,-172.333 1991.41,-169.067 1981.5,-165.335 1981.33,-172.333"/>
</g>
<!-- Node15 -->
<g id="node15" class="node"><title>Node15</title>
<g id="a_node15"><a xlink:href="_w_m___l_b_u_t_t_o_n_u_p___handler_8hpp.html" target="_top" xlink:title="C:/Users/micho/Desktop\l/mt_engine/mt/WM_LBUTTONUP\l_Handler.hpp">
<polygon fill="none" stroke="black" points="886,-78.5 886,-119.5 1048,-119.5 1048,-78.5 886,-78.5"/>
<text text-anchor="start" x="894" y="-107.5" font-family="Helvetica,sans-Serif" font-size="10.00">C:/Users/micho/Desktop</text>
<text text-anchor="start" x="894" y="-96.5" font-family="Helvetica,sans-Serif" font-size="10.00">/mt_engine/mt/WM_LBUTTONUP</text>
<text text-anchor="middle" x="967" y="-85.5" font-family="Helvetica,sans-Serif" font-size="10.00">_Handler.hpp</text>
</a>
</g>
</g>
<!-- Node6&#45;&gt;Node15 -->
<g id="edge15" class="edge"><title>Node6&#45;&gt;Node15</title>
<path fill="none" stroke="midnightblue" d="M1981.23,-171C1814.52,-171.18 1400.02,-166.447 1057,-120 1054.14,-119.613 1051.25,-119.182 1048.32,-118.715"/>
<polygon fill="midnightblue" stroke="midnightblue" points="1981.38,-174.5 1991.37,-170.982 1981.37,-167.5 1981.38,-174.5"/>
</g>
<!-- Node16 -->
<g id="node16" class="node"><title>Node16</title>
<g id="a_node16"><a xlink:href="_w_m___m_b_u_t_t_o_n_d_o_w_n___handler_8hpp.html" target="_top" xlink:title="C:/Users/micho/Desktop\l/mt_engine/mt/WM_MBUTTONDOWN\l_Handler.hpp">
<polygon fill="none" stroke="black" points="1066,-78.5 1066,-119.5 1248,-119.5 1248,-78.5 1066,-78.5"/>
<text text-anchor="start" x="1074" y="-107.5" font-family="Helvetica,sans-Serif" font-size="10.00">C:/Users/micho/Desktop</text>
<text text-anchor="start" x="1074" y="-96.5" font-family="Helvetica,sans-Serif" font-size="10.00">/mt_engine/mt/WM_MBUTTONDOWN</text>
<text text-anchor="middle" x="1157" y="-85.5" font-family="Helvetica,sans-Serif" font-size="10.00">_Handler.hpp</text>
</a>
</g>
</g>
<!-- Node6&#45;&gt;Node16 -->
<g id="edge17" class="edge"><title>Node6&#45;&gt;Node16</title>
<path fill="none" stroke="midnightblue" d="M1980.92,-169.112C1838.97,-165.746 1521.7,-154.675 1257,-120 1254.1,-119.621 1251.16,-119.207 1248.2,-118.765"/>
<polygon fill="midnightblue" stroke="midnightblue" points="1981.17,-172.619 1991.25,-169.351 1981.33,-165.621 1981.17,-172.619"/>
</g>
<!-- Node17 -->
<g id="node17" class="node"><title>Node17</title>
<g id="a_node17"><a xlink:href="_w_m___m_b_u_t_t_o_n_u_p___handler_8hpp.html" target="_top" xlink:title="C:/Users/micho/Desktop\l/mt_engine/mt/WM_MBUTTONUP\l_Handler.hpp">
<polygon fill="none" stroke="black" points="2947.5,-78.5 2947.5,-119.5 3112.5,-119.5 3112.5,-78.5 2947.5,-78.5"/>
<text text-anchor="start" x="2955.5" y="-107.5" font-family="Helvetica,sans-Serif" font-size="10.00">C:/Users/micho/Desktop</text>
<text text-anchor="start" x="2955.5" y="-96.5" font-family="Helvetica,sans-Serif" font-size="10.00">/mt_engine/mt/WM_MBUTTONUP</text>
<text text-anchor="middle" x="3030" y="-85.5" font-family="Helvetica,sans-Serif" font-size="10.00">_Handler.hpp</text>
</a>
</g>
</g>
<!-- Node6&#45;&gt;Node17 -->
<g id="edge19" class="edge"><title>Node6&#45;&gt;Node17</title>
<path fill="none" stroke="midnightblue" d="M2130.74,-156.629C2132.51,-156.406 2134.26,-156.195 2136,-156 2491.01,-116.053 2584.79,-166.514 2939,-120 2941.73,-119.642 2944.49,-119.243 2947.28,-118.811"/>
<polygon fill="midnightblue" stroke="midnightblue" points="2129.94,-153.206 2120.51,-158.038 2130.9,-160.141 2129.94,-153.206"/>
</g>
<!-- Node18 -->
<g id="node18" class="node"><title>Node18</title>
<g id="a_node18"><a xlink:href="_w_m___m_o_u_s_e_m_o_v_e___handler_8hpp.html" target="_top" xlink:title="C:/Users/micho/Desktop\l/mt_engine/mt/WM_MOUSEMOVE\l_Handler.hpp">
<polygon fill="none" stroke="black" points="3131,-78.5 3131,-119.5 3301,-119.5 3301,-78.5 3131,-78.5"/>
<text text-anchor="start" x="3139" y="-107.5" font-family="Helvetica,sans-Serif" font-size="10.00">C:/Users/micho/Desktop</text>
<text text-anchor="start" x="3139" y="-96.5" font-family="Helvetica,sans-Serif" font-size="10.00">/mt_engine/mt/WM_MOUSEMOVE</text>
<text text-anchor="middle" x="3216" y="-85.5" font-family="Helvetica,sans-Serif" font-size="10.00">_Handler.hpp</text>
</a>
</g>
</g>
<!-- Node6&#45;&gt;Node18 -->
<g id="edge21" class="edge"><title>Node6&#45;&gt;Node18</title>
<path fill="none" stroke="midnightblue" d="M2130.74,-156.609C2132.51,-156.392 2134.26,-156.188 2136,-156 2571.96,-108.776 2686.8,-173.831 3122,-120 3124.9,-119.642 3127.84,-119.239 3130.8,-118.799"/>
<polygon fill="midnightblue" stroke="midnightblue" points="2129.95,-153.185 2120.51,-157.992 2130.88,-160.122 2129.95,-153.185"/>
</g>
<!-- Node19 -->
<g id="node19" class="node"><title>Node19</title>
<g id="a_node19"><a xlink:href="_w_m___q_u_i_t___handler_8hpp.html" target="_top" xlink:title="C:/Users/micho/Desktop\l/mt_engine/mt/WM_QUIT\l_Handler.hpp">
<polygon fill="none" stroke="black" points="3319.5,-78.5 3319.5,-119.5 3446.5,-119.5 3446.5,-78.5 3319.5,-78.5"/>
<text text-anchor="start" x="3327.5" y="-107.5" font-family="Helvetica,sans-Serif" font-size="10.00">C:/Users/micho/Desktop</text>
<text text-anchor="start" x="3327.5" y="-96.5" font-family="Helvetica,sans-Serif" font-size="10.00">/mt_engine/mt/WM_QUIT</text>
<text text-anchor="middle" x="3383" y="-85.5" font-family="Helvetica,sans-Serif" font-size="10.00">_Handler.hpp</text>
</a>
</g>
</g>
<!-- Node6&#45;&gt;Node19 -->
<g id="edge23" class="edge"><title>Node6&#45;&gt;Node19</title>
<path fill="none" stroke="midnightblue" d="M2130.74,-156.596C2132.51,-156.382 2134.26,-156.183 2136,-156 2655.15,-101.299 2793.76,-197.511 3310,-120 3313.12,-119.532 3316.29,-118.975 3319.49,-118.352"/>
<polygon fill="midnightblue" stroke="midnightblue" points="2129.95,-153.169 2120.5,-157.959 2130.88,-160.108 2129.95,-153.169"/>
</g>
<!-- Node20 -->
<g id="node20" class="node"><title>Node20</title>
<g id="a_node20"><a xlink:href="_w_m___r_b_u_t_t_o_n_d_o_w_n___handler_8hpp.html" target="_top" xlink:title="C:/Users/micho/Desktop\l/mt_engine/mt/WM_RBUTTONDOWN\l_Handler.hpp">
<polygon fill="none" stroke="black" points="152.5,-78.5 152.5,-119.5 333.5,-119.5 333.5,-78.5 152.5,-78.5"/>
<text text-anchor="start" x="160.5" y="-107.5" font-family="Helvetica,sans-Serif" font-size="10.00">C:/Users/micho/Desktop</text>
<text text-anchor="start" x="160.5" y="-96.5" font-family="Helvetica,sans-Serif" font-size="10.00">/mt_engine/mt/WM_RBUTTONDOWN</text>
<text text-anchor="middle" x="243" y="-85.5" font-family="Helvetica,sans-Serif" font-size="10.00">_Handler.hpp</text>
</a>
</g>
</g>
<!-- Node6&#45;&gt;Node20 -->
<g id="edge25" class="edge"><title>Node6&#45;&gt;Node20</title>
<path fill="none" stroke="midnightblue" d="M1980.91,-169.964C1694.06,-167.657 667.307,-156.946 343,-120 339.922,-119.649 336.797,-119.253 333.646,-118.819"/>
<polygon fill="midnightblue" stroke="midnightblue" points="1981.17,-173.466 1991.2,-170.046 1981.23,-166.467 1981.17,-173.466"/>
</g>
<!-- Node21 -->
<g id="node21" class="node"><title>Node21</title>
<g id="a_node21"><a xlink:href="_w_m___r_b_u_t_t_o_n_u_p___handler_8hpp.html" target="_top" xlink:title="C:/Users/micho/Desktop\l/mt_engine/mt/WM_RBUTTONUP\l_Handler.hpp">
<polygon fill="none" stroke="black" points="352,-78.5 352,-119.5 516,-119.5 516,-78.5 352,-78.5"/>
<text text-anchor="start" x="360" y="-107.5" font-family="Helvetica,sans-Serif" font-size="10.00">C:/Users/micho/Desktop</text>
<text text-anchor="start" x="360" y="-96.5" font-family="Helvetica,sans-Serif" font-size="10.00">/mt_engine/mt/WM_RBUTTONUP</text>
<text text-anchor="middle" x="434" y="-85.5" font-family="Helvetica,sans-Serif" font-size="10.00">_Handler.hpp</text>
</a>
</g>
</g>
<!-- Node6&#45;&gt;Node21 -->
<g id="edge27" class="edge"><title>Node6&#45;&gt;Node21</title>
<path fill="none" stroke="midnightblue" d="M1980.99,-169.847C1714.14,-167.24 811.603,-155.913 525,-120 522.111,-119.638 519.178,-119.228 516.222,-118.779"/>
<polygon fill="midnightblue" stroke="midnightblue" points="1981.31,-173.35 1991.34,-169.947 1981.37,-166.35 1981.31,-173.35"/>
</g>
<!-- Node22 -->
<g id="node22" class="node"><title>Node22</title>
<g id="a_node22"><a xlink:href="_w_m___s_i_z_i_n_g___handler_8hpp.html" target="_top" xlink:title="C:/Users/micho/Desktop\l/mt_engine/mt/WM_SIZING\l_Handler.hpp">
<polygon fill="none" stroke="black" points="534,-78.5 534,-119.5 670,-119.5 670,-78.5 534,-78.5"/>
<text text-anchor="start" x="542" y="-107.5" font-family="Helvetica,sans-Serif" font-size="10.00">C:/Users/micho/Desktop</text>
<text text-anchor="start" x="542" y="-96.5" font-family="Helvetica,sans-Serif" font-size="10.00">/mt_engine/mt/WM_SIZING</text>
<text text-anchor="middle" x="602" y="-85.5" font-family="Helvetica,sans-Serif" font-size="10.00">_Handler.hpp</text>
</a>
</g>
</g>
<!-- Node6&#45;&gt;Node22 -->
<g id="edge29" class="edge"><title>Node6&#45;&gt;Node22</title>
<path fill="none" stroke="midnightblue" d="M1981.49,-169.868C1733.07,-167.433 934.493,-156.862 680,-120 676.818,-119.539 673.578,-119 670.316,-118.399"/>
<polygon fill="midnightblue" stroke="midnightblue" points="1981.46,-173.368 1991.5,-169.965 1981.53,-166.369 1981.46,-173.368"/>
</g>
<!-- Node23 -->
<g id="node23" class="node"><title>Node23</title>
<g id="a_node23"><a xlink:href="_w_m___a_c_t_i_v_a_t_e___handler_8cpp.html" target="_top" xlink:title="C:/Users/micho/Desktop\l/mt_engine/mt/WM_ACTIVATE\l_Handler.cpp">
<polygon fill="none" stroke="black" points="1266,-78.5 1266,-119.5 1418,-119.5 1418,-78.5 1266,-78.5"/>
<text text-anchor="start" x="1274" y="-107.5" font-family="Helvetica,sans-Serif" font-size="10.00">C:/Users/micho/Desktop</text>
<text text-anchor="start" x="1274" y="-96.5" font-family="Helvetica,sans-Serif" font-size="10.00">/mt_engine/mt/WM_ACTIVATE</text>
<text text-anchor="middle" x="1342" y="-85.5" font-family="Helvetica,sans-Serif" font-size="10.00">_Handler.cpp</text>
</a>
</g>
</g>
<!-- Node6&#45;&gt;Node23 -->
<g id="edge31" class="edge"><title>Node6&#45;&gt;Node23</title>
<path fill="none" stroke="midnightblue" d="M1981.3,-168.15C1863.05,-163.613 1625.76,-151.18 1427,-120 1424.15,-119.554 1421.26,-119.063 1418.35,-118.538"/>
<polygon fill="midnightblue" stroke="midnightblue" points="1981.21,-171.649 1991.33,-168.527 1981.47,-164.654 1981.21,-171.649"/>
</g>
<!-- Node24 -->
<g id="node24" class="node"><title>Node24</title>
<g id="a_node24"><a xlink:href="_w_m___e_n_t_e_r_s_i_z_e_m_o_v_e___handler_8cpp.html" target="_top" xlink:title="C:/Users/micho/Desktop\l/mt_engine/mt/WM_ENTERSIZEMOVE\l_Handler.cpp">
<polygon fill="none" stroke="black" points="1436,-78.5 1436,-119.5 1624,-119.5 1624,-78.5 1436,-78.5"/>
<text text-anchor="start" x="1444" y="-107.5" font-family="Helvetica,sans-Serif" font-size="10.00">C:/Users/micho/Desktop</text>
<text text-anchor="start" x="1444" y="-96.5" font-family="Helvetica,sans-Serif" font-size="10.00">/mt_engine/mt/WM_ENTERSIZEMOVE</text>
<text text-anchor="middle" x="1530" y="-85.5" font-family="Helvetica,sans-Serif" font-size="10.00">_Handler.cpp</text>
</a>
</g>
</g>
<!-- Node6&#45;&gt;Node24 -->
<g id="edge32" class="edge"><title>Node6&#45;&gt;Node24</title>
<path fill="none" stroke="midnightblue" d="M1981.45,-163.193C1896.95,-154.536 1755.2,-138.882 1634,-120 1630.73,-119.491 1627.41,-118.954 1624.05,-118.396"/>
<polygon fill="midnightblue" stroke="midnightblue" points="1981.16,-166.681 1991.46,-164.213 1981.87,-159.717 1981.16,-166.681"/>
</g>
<!-- Node25 -->
<g id="node25" class="node"><title>Node25</title>
<g id="a_node25"><a xlink:href="_w_m___e_x_i_t_s_i_z_e_m_o_v_e___handler_8cpp.html" target="_top" xlink:title="C:/Users/micho/Desktop\l/mt_engine/mt/WM_EXITSIZEMOVE\l_Handler.cpp">
<polygon fill="none" stroke="black" points="1642.5,-78.5 1642.5,-119.5 1817.5,-119.5 1817.5,-78.5 1642.5,-78.5"/>
<text text-anchor="start" x="1650.5" y="-107.5" font-family="Helvetica,sans-Serif" font-size="10.00">C:/Users/micho/Desktop</text>
<text text-anchor="start" x="1650.5" y="-96.5" font-family="Helvetica,sans-Serif" font-size="10.00">/mt_engine/mt/WM_EXITSIZEMOVE</text>
<text text-anchor="middle" x="1730" y="-85.5" font-family="Helvetica,sans-Serif" font-size="10.00">_Handler.cpp</text>
</a>
</g>
</g>
<!-- Node6&#45;&gt;Node25 -->
<g id="edge33" class="edge"><title>Node6&#45;&gt;Node25</title>
<path fill="none" stroke="midnightblue" d="M1981.35,-154.356C1932.57,-143.808 1868.68,-129.991 1817.52,-118.927"/>
<polygon fill="midnightblue" stroke="midnightblue" points="1980.69,-157.794 1991.2,-156.487 1982.17,-150.952 1980.69,-157.794"/>
</g>
<!-- Node26 -->
<g id="node26" class="node"><title>Node26</title>
<g id="a_node26"><a xlink:href="_w_m___k_e_y_u_p___handler_8cpp.html" target="_top" xlink:title="C:/Users/micho/Desktop\l/mt_engine/mt/WM_KEYUP\l_Handler.cpp">
<polygon fill="none" stroke="black" points="1835.5,-78.5 1835.5,-119.5 1974.5,-119.5 1974.5,-78.5 1835.5,-78.5"/>
<text text-anchor="start" x="1843.5" y="-107.5" font-family="Helvetica,sans-Serif" font-size="10.00">C:/Users/micho/Desktop</text>
<text text-anchor="start" x="1843.5" y="-96.5" font-family="Helvetica,sans-Serif" font-size="10.00">/mt_engine/mt/WM_KEYUP</text>
<text text-anchor="middle" x="1905" y="-85.5" font-family="Helvetica,sans-Serif" font-size="10.00">_Handler.cpp</text>
</a>
</g>
</g>
<!-- Node6&#45;&gt;Node26 -->
<g id="edge34" class="edge"><title>Node6&#45;&gt;Node26</title>
<path fill="none" stroke="midnightblue" d="M2016.65,-152.13C1995.22,-142.12 1968.68,-129.734 1946.87,-119.546"/>
<polygon fill="midnightblue" stroke="midnightblue" points="2015.26,-155.344 2025.81,-156.403 2018.23,-149.001 2015.26,-155.344"/>
</g>
<!-- Node27 -->
<g id="node27" class="node"><title>Node27</title>
<g id="a_node27"><a xlink:href="_w_m___s_i_z_e___handler_8cpp.html" target="_top" xlink:title="C:/Users/micho/Desktop\l/mt_engine/mt/WM_SIZE\l_Handler.cpp">
<polygon fill="none" stroke="black" points="1993,-78.5 1993,-119.5 2119,-119.5 2119,-78.5 1993,-78.5"/>
<text text-anchor="start" x="2001" y="-107.5" font-family="Helvetica,sans-Serif" font-size="10.00">C:/Users/micho/Desktop</text>
<text text-anchor="start" x="2001" y="-96.5" font-family="Helvetica,sans-Serif" font-size="10.00">/mt_engine/mt/WM_SIZE</text>
<text text-anchor="middle" x="2056" y="-85.5" font-family="Helvetica,sans-Serif" font-size="10.00">_Handler.cpp</text>
</a>
</g>
</g>
<!-- Node6&#45;&gt;Node27 -->
<g id="edge35" class="edge"><title>Node6&#45;&gt;Node27</title>
<path fill="none" stroke="midnightblue" d="M2056,-145.982C2056,-137.347 2056,-127.762 2056,-119.588"/>
<polygon fill="midnightblue" stroke="midnightblue" points="2052.5,-146.233 2056,-156.233 2059.5,-146.233 2052.5,-146.233"/>
</g>
<!-- Node28 -->
<g id="node28" class="node"><title>Node28</title>
<g id="a_node28"><a xlink:href="_w_m___t_i_m_e_r___handler_8cpp.html" target="_top" xlink:title="C:/Users/micho/Desktop\l/mt_engine/mt/WM_TIMER\l_Handler.cpp">
<polygon fill="none" stroke="black" points="2137,-78.5 2137,-119.5 2271,-119.5 2271,-78.5 2137,-78.5"/>
<text text-anchor="start" x="2145" y="-107.5" font-family="Helvetica,sans-Serif" font-size="10.00">C:/Users/micho/Desktop</text>
<text text-anchor="start" x="2145" y="-96.5" font-family="Helvetica,sans-Serif" font-size="10.00">/mt_engine/mt/WM_TIMER</text>
<text text-anchor="middle" x="2204" y="-85.5" font-family="Helvetica,sans-Serif" font-size="10.00">_Handler.cpp</text>
</a>
</g>
</g>
<!-- Node6&#45;&gt;Node28 -->
<g id="edge36" class="edge"><title>Node6&#45;&gt;Node28</title>
<path fill="none" stroke="midnightblue" d="M2094.85,-151.995C2115.81,-142.009 2141.68,-129.688 2162.97,-119.546"/>
<polygon fill="midnightblue" stroke="midnightblue" points="2093.12,-148.942 2085.59,-156.403 2096.13,-155.262 2093.12,-148.942"/>
</g>
<!-- Node14 -->
<g id="node14" class="node"><title>Node14</title>
<g id="a_node14"><a xlink:href="_windows_message_handling_service_8cpp.html" target="_top" xlink:title="C:/Users/micho/Desktop\l/mt_engine/mt/WindowsMessage\lHandlingService.cpp">
<polygon fill="none" stroke="black" points="886.5,-0.5 886.5,-41.5 1047.5,-41.5 1047.5,-0.5 886.5,-0.5"/>
<text text-anchor="start" x="894.5" y="-29.5" font-family="Helvetica,sans-Serif" font-size="10.00">C:/Users/micho/Desktop</text>
<text text-anchor="start" x="894.5" y="-18.5" font-family="Helvetica,sans-Serif" font-size="10.00">/mt_engine/mt/WindowsMessage</text>
<text text-anchor="middle" x="967" y="-7.5" font-family="Helvetica,sans-Serif" font-size="10.00">HandlingService.cpp</text>
</a>
</g>
</g>
<!-- Node13&#45;&gt;Node14 -->
<g id="edge14" class="edge"><title>Node13&#45;&gt;Node14</title>
<path fill="none" stroke="midnightblue" d="M836.171,-74.6086C862.551,-64.0008 893.386,-51.6015 918.493,-41.5056"/>
<polygon fill="midnightblue" stroke="midnightblue" points="834.644,-71.4499 826.672,-78.4281 837.256,-77.9445 834.644,-71.4499"/>
</g>
<!-- Node15&#45;&gt;Node14 -->
<g id="edge16" class="edge"><title>Node15&#45;&gt;Node14</title>
<path fill="none" stroke="midnightblue" d="M967,-68.2965C967,-59.3009 967,-49.6532 967,-41.5056"/>
<polygon fill="midnightblue" stroke="midnightblue" points="963.5,-68.4281 967,-78.4281 970.5,-68.4281 963.5,-68.4281"/>
</g>
<!-- Node16&#45;&gt;Node14 -->
<g id="edge18" class="edge"><title>Node16&#45;&gt;Node14</title>
<path fill="none" stroke="midnightblue" d="M1098.52,-74.6086C1072,-64.0008 1041,-51.6015 1015.76,-41.5056"/>
<polygon fill="midnightblue" stroke="midnightblue" points="1097.49,-77.9638 1108.07,-78.4281 1100.09,-71.4645 1097.49,-77.9638"/>
</g>
<!-- Node17&#45;&gt;Node14 -->
<g id="edge20" class="edge"><title>Node17&#45;&gt;Node14</title>
<path fill="none" stroke="midnightblue" d="M2937.28,-77.9272C2543.44,-31.7175 1366.6,-23.641 1047.53,-22.2683"/>
<polygon fill="midnightblue" stroke="midnightblue" points="2936.94,-81.4116 2947.29,-79.1305 2937.78,-74.4616 2936.94,-81.4116"/>
</g>
<!-- Node18&#45;&gt;Node14 -->
<g id="edge22" class="edge"><title>Node18&#45;&gt;Node14</title>
<path fill="none" stroke="midnightblue" d="M3120.76,-77.996C2688.3,-29.0064 1385.46,-22.8935 1047.67,-22.1138"/>
<polygon fill="midnightblue" stroke="midnightblue" points="3120.47,-81.4865 3130.81,-79.1612 3121.28,-74.533 3120.47,-81.4865"/>
</g>
<!-- Node19&#45;&gt;Node14 -->
<g id="edge24" class="edge"><title>Node19&#45;&gt;Node14</title>
<path fill="none" stroke="midnightblue" d="M3309.4,-78.2482C3039.46,-44.1868 1428.31,-26.5156 1047.57,-22.7617"/>
<polygon fill="midnightblue" stroke="midnightblue" points="3309.11,-81.7415 3319.49,-79.6222 3310.06,-74.8054 3309.11,-81.7415"/>
</g>
<!-- Node20&#45;&gt;Node14 -->
<g id="edge26" class="edge"><title>Node20&#45;&gt;Node14</title>
<path fill="none" stroke="midnightblue" d="M343.827,-77.9651C544.653,-49.4328 769.166,-33.5311 886.397,-26.4457"/>
<polygon fill="midnightblue" stroke="midnightblue" points="343.079,-74.5365 333.677,-79.4209 344.073,-81.4656 343.079,-74.5365"/>
</g>
<!-- Node21&#45;&gt;Node14 -->
<g id="edge28" class="edge"><title>Node21&#45;&gt;Node14</title>
<path fill="none" stroke="midnightblue" d="M526.132,-77.8753C657.714,-55.4684 799.747,-39.1036 886.424,-29.9985"/>
<polygon fill="midnightblue" stroke="midnightblue" points="525.537,-74.4261 516.274,-79.5688 526.722,-81.325 525.537,-74.4261"/>
</g>
<!-- Node22&#45;&gt;Node14 -->
<g id="edge30" class="edge"><title>Node22&#45;&gt;Node14</title>
<path fill="none" stroke="midnightblue" d="M679.693,-78.0693C679.795,-78.0462 679.898,-78.0231 680,-78 749.331,-62.3615 828.665,-47.0795 886.326,-36.4412"/>
<polygon fill="midnightblue" stroke="midnightblue" points="678.96,-74.6464 670.008,-80.3133 680.54,-81.4657 678.96,-74.6464"/>
</g>
<!-- Node29&#45;&gt;Node5 -->
<g id="edge40" class="edge"><title>Node29&#45;&gt;Node5</title>
<path fill="none" stroke="midnightblue" d="M2136.29,-284.734C2120.66,-274.676 2102.03,-262.685 2087.87,-253.577"/>
<polygon fill="midnightblue" stroke="midnightblue" points="2134.78,-287.927 2145.08,-290.396 2138.57,-282.041 2134.78,-287.927"/>
</g>
<!-- Node29&#45;&gt;Node11 -->
<g id="edge41" class="edge"><title>Node29&#45;&gt;Node11</title>
<path fill="none" stroke="midnightblue" d="M2249.91,-289.912C2868.5,-198.129 3032.11,-227.313 3644,-120 3653.62,-118.313 3663.77,-116.246 3673.61,-114.087"/>
<polygon fill="midnightblue" stroke="midnightblue" points="2249.22,-286.475 2239.84,-291.41 2250.25,-293.399 2249.22,-286.475"/>
</g>
</g>
</svg>
        <g id="navigator" transform="translate(0 0)" fill="#404254">
                <rect fill="#f2f5e9" fill-opacity="0.5" stroke="#606060" stroke-width=".5" x="0" y="0" width="60" height="60"/>
                <use id="zoomplus" xlink:href="#zoomPlus" x="17" y="9" onmousedown="handleZoom(evt,'in')"/>
                <use id="zoomminus" xlink:href="#zoomMin" x="42" y="9" onmousedown="handleZoom(evt,'out')"/>
                <use id="reset" xlink:href="#resetDef" x="30" y="36" onmousedown="handleReset()"/>
                <g id="arrowUp" xlink:href="#dirArrow" transform="translate(30 24)" onmousedown="handlePan(0,-1)">
                  <use xlink:href="#rim" fill="#404040">
                        <set attributeName="fill" to="#808080" begin="arrowUp.mouseover" end="arrowUp.mouseout"/>
                  </use>
                  <path fill="none" stroke="white" stroke-width="1.5" d="M0,-3.0v7 M-2.5,-0.5L0,-3.0L2.5,-0.5"/>
                </g>
                <g id="arrowRight" xlink:href="#dirArrow" transform="rotate(90) translate(36 -43)" onmousedown="handlePan(1,0)">
                  <use xlink:href="#rim" fill="#404040">
                        <set attributeName="fill" to="#808080" begin="arrowRight.mouseover" end="arrowRight.mouseout"/>
                  </use>
                  <path fill="none" stroke="white" stroke-width="1.5" d="M0,-3.0v7 M-2.5,-0.5L0,-3.0L2.5,-0.5"/>
                </g>
                <g id="arrowDown" xlink:href="#dirArrow" transform="rotate(180) translate(-30 -48)" onmousedown="handlePan(0,1)">
                  <use xlink:href="#rim" fill="#404040">
                        <set attributeName="fill" to="#808080" begin="arrowDown.mouseover" end="arrowDown.mouseout"/>
                  </use>
                  <path fill="none" stroke="white" stroke-width="1.5" d="M0,-3.0v7 M-2.5,-0.5L0,-3.0L2.5,-0.5"/>
                </g>
                <g id="arrowLeft" xlink:href="#dirArrow" transform="rotate(270) translate(-36 17)" onmousedown="handlePan(-1,0)">
                  <use xlink:href="#rim" fill="#404040">
                        <set attributeName="fill" to="#808080" begin="arrowLeft.mouseover" end="arrowLeft.mouseout"/>
                  </use>
                  <path fill="none" stroke="white" stroke-width="1.5" d="M0,-3.0v7 M-2.5,-0.5L0,-3.0L2.5,-0.5"/>
                </g>
        </g>
        <svg viewBox="0 0 15 15" width="100%" height="30px" preserveAspectRatio="xMaxYMin meet">
         <g id="arrow_out" transform="scale(0.3 0.3)">
          <a xlink:href="_d_d_s_texture_loader_8h__dep__incl_org.svg" target="_base">
           <rect id="button" ry="5" rx="5" y="6" x="6" height="38" width="38"
                fill="#f2f5e9" fill-opacity="0.5" stroke="#606060" stroke-width="1.0"/>
           <path id="arrow"
             d="M 11.500037,31.436501 C 11.940474,20.09759 22.043105,11.32322 32.158766,21.979434 L 37.068811,17.246167 C 37.068811,17.246167 37.088388,32 37.088388,32 L 22.160133,31.978069 C 22.160133,31.978069 26.997745,27.140456 26.997745,27.140456 C 18.528582,18.264221 13.291696,25.230495 11.500037,31.436501 z"
             style="fill:#404040;"/>
          </a>
         </g>
        </svg>
</svg>
