<?xml version="1.0" encoding="UTF-8" standalone="no"?>
<!DOCTYPE svg PUBLIC "-//W3C//DTD SVG 1.1//EN"
 "http://www.w3.org/Graphics/SVG/1.1/DTD/svg11.dtd">
<!-- Generated by graphviz version 2.38.0 (20140413.2041)
 -->
<!-- Title: C:/Users/micho/Desktop/mt_engine/mt/DDSTextureLoader.h Pages: 1 -->
<svg width="267pt" height="151pt"
 viewBox="0.00 0.00 267.00 151.00" xmlns="http://www.w3.org/2000/svg" xmlns:xlink="http://www.w3.org/1999/xlink">
<g id="graph0" class="graph" transform="scale(1 1) rotate(0) translate(4 147)">
<title>C:/Users/micho/Desktop/mt_engine/mt/DDSTextureLoader.h</title>
<!-- Node1 -->
<g id="node1" class="node"><title>Node1</title>
<polygon fill="#bfbfbf" stroke="black" points="38.5,-112.5 38.5,-142.5 210.5,-142.5 210.5,-112.5 38.5,-112.5"/>
<text text-anchor="start" x="46.5" y="-130.5" font-family="Helvetica,sans-Serif" font-size="10.00">C:/Users/micho/Desktop</text>
<text text-anchor="middle" x="124.5" y="-119.5" font-family="Helvetica,sans-Serif" font-size="10.00">/mt_engine/mt/DDSTextureLoader.h</text>
</g>
<!-- Node2 -->
<g id="node2" class="node"><title>Node2</title>
<polygon fill="none" stroke="#bfbfbf" points="0,-56.5 0,-75.5 37,-75.5 37,-56.5 0,-56.5"/>
<text text-anchor="middle" x="18.5" y="-63.5" font-family="Helvetica,sans-Serif" font-size="10.00">wrl.h</text>
</g>
<!-- Node1&#45;&gt;Node2 -->
<g id="edge1" class="edge"><title>Node1&#45;&gt;Node2</title>
<path fill="none" stroke="midnightblue" d="M99.3795,-112.399C82.2297,-102.773 59.6354,-90.0902 42.6879,-80.5772"/>
<polygon fill="midnightblue" stroke="midnightblue" points="44.3573,-77.5006 33.9239,-75.6578 40.9309,-83.6047 44.3573,-77.5006"/>
</g>
<!-- Node3 -->
<g id="node3" class="node"><title>Node3</title>
<polygon fill="none" stroke="#bfbfbf" points="55.5,-56.5 55.5,-75.5 117.5,-75.5 117.5,-56.5 55.5,-56.5"/>
<text text-anchor="middle" x="86.5" y="-63.5" font-family="Helvetica,sans-Serif" font-size="10.00">d3d11_1.h</text>
</g>
<!-- Node1&#45;&gt;Node3 -->
<g id="edge2" class="edge"><title>Node1&#45;&gt;Node3</title>
<path fill="none" stroke="midnightblue" d="M115.495,-112.399C110.087,-103.932 103.168,-93.0991 97.4461,-84.1393"/>
<polygon fill="midnightblue" stroke="midnightblue" points="100.362,-82.2018 92.0293,-75.6578 94.4621,-85.9695 100.362,-82.2018"/>
</g>
<!-- Node4 -->
<g id="node4" class="node"><title>Node4</title>
<g id="a_node4"><a xlink:href="d3dx12_8h.html" target="_top" xlink:title="d3dx12.h">
<polygon fill="none" stroke="black" points="135.5,-56.5 135.5,-75.5 191.5,-75.5 191.5,-56.5 135.5,-56.5"/>
<text text-anchor="middle" x="163.5" y="-63.5" font-family="Helvetica,sans-Serif" font-size="10.00">d3dx12.h</text>
</a>
</g>
</g>
<!-- Node1&#45;&gt;Node4 -->
<g id="edge3" class="edge"><title>Node1&#45;&gt;Node4</title>
<path fill="none" stroke="midnightblue" d="M133.742,-112.399C139.293,-103.932 146.393,-93.0991 152.266,-84.1393"/>
<polygon fill="midnightblue" stroke="midnightblue" points="155.27,-85.94 157.825,-75.6578 149.416,-82.1026 155.27,-85.94"/>
</g>
<!-- Node6 -->
<g id="node6" class="node"><title>Node6</title>
<polygon fill="none" stroke="#bfbfbf" points="210,-56.5 210,-75.5 259,-75.5 259,-56.5 210,-56.5"/>
<text text-anchor="middle" x="234.5" y="-63.5" font-family="Helvetica,sans-Serif" font-size="10.00">stdint.h</text>
</g>
<!-- Node1&#45;&gt;Node6 -->
<g id="edge5" class="edge"><title>Node1&#45;&gt;Node6</title>
<path fill="none" stroke="midnightblue" d="M150.568,-112.399C168.365,-102.773 191.812,-90.0902 209.399,-80.5772"/>
<polygon fill="midnightblue" stroke="midnightblue" points="211.364,-83.494 218.494,-75.6578 208.033,-77.337 211.364,-83.494"/>
</g>
<!-- Node5 -->
<g id="node5" class="node"><title>Node5</title>
<polygon fill="none" stroke="#bfbfbf" points="138,-0.5 138,-19.5 189,-19.5 189,-0.5 138,-0.5"/>
<text text-anchor="middle" x="163.5" y="-7.5" font-family="Helvetica,sans-Serif" font-size="10.00">d3d12.h</text>
</g>
<!-- Node4&#45;&gt;Node5 -->
<g id="edge4" class="edge"><title>Node4&#45;&gt;Node5</title>
<path fill="none" stroke="midnightblue" d="M163.5,-56.083C163.5,-49.0059 163.5,-38.8611 163.5,-29.9865"/>
<polygon fill="midnightblue" stroke="midnightblue" points="167,-29.751 163.5,-19.7511 160,-29.7511 167,-29.751"/>
</g>
</g>
</svg>
