<?xml version="1.0" encoding="UTF-8" standalone="no"?>
<!DOCTYPE svg PUBLIC "-//W3C//DTD SVG 1.1//EN"
 "http://www.w3.org/Graphics/SVG/1.1/DTD/svg11.dtd">
<!-- Generated by graphviz version 2.38.0 (20140413.2041)
 -->
<!-- Title: FillInitData12 Pages: 1 -->
<svg width="365pt" height="28pt"
 viewBox="0.00 0.00 365.00 28.00" xmlns="http://www.w3.org/2000/svg" xmlns:xlink="http://www.w3.org/1999/xlink">
<g id="graph0" class="graph" transform="scale(1 1) rotate(0) translate(4 24)">
<title>FillInitData12</title>
<!-- Node1 -->
<g id="node1" class="node"><title>Node1</title>
<polygon fill="#bfbfbf" stroke="black" points="0,-0.5 0,-19.5 73,-19.5 73,-0.5 0,-0.5"/>
<text text-anchor="middle" x="36.5" y="-7.5" font-family="Helvetica,sans-Serif" font-size="10.00">FillInitData12</text>
</g>
<!-- Node2 -->
<g id="node2" class="node"><title>Node2</title>
<g id="a_node2"><a xlink:href="_d_d_s_texture_loader_8cpp.html#aa0c87b1491a829d1a28da9bb89b2d2a6" target="_top" xlink:title="CreateTextureFromDDS12">
<polygon fill="none" stroke="black" points="109,-0.5 109,-19.5 240,-19.5 240,-0.5 109,-0.5"/>
<text text-anchor="middle" x="174.5" y="-7.5" font-family="Helvetica,sans-Serif" font-size="10.00">CreateTextureFromDDS12</text>
</a>
</g>
</g>
<!-- Node1&#45;&gt;Node2 -->
<g id="edge1" class="edge"><title>Node1&#45;&gt;Node2</title>
<path fill="none" stroke="midnightblue" d="M83.317,-10C91.5155,-10 100.197,-10 108.808,-10"/>
<polygon fill="midnightblue" stroke="midnightblue" points="83.2324,-6.5001 73.2324,-10 83.2324,-13.5001 83.2324,-6.5001"/>
</g>
<!-- Node3 -->
<g id="node3" class="node"><title>Node3</title>
<g id="a_node3"><a xlink:href="_d_d_s_texture_loader_8cpp.html#a8c2c61f7f7e3bd20619e3746b8e20286" target="_top" xlink:title="GetAlphaMode">
<polygon fill="none" stroke="black" points="276,-0.5 276,-19.5 357,-19.5 357,-0.5 276,-0.5"/>
<text text-anchor="middle" x="316.5" y="-7.5" font-family="Helvetica,sans-Serif" font-size="10.00">GetAlphaMode</text>
</a>
</g>
</g>
<!-- Node2&#45;&gt;Node3 -->
<g id="edge2" class="edge"><title>Node2&#45;&gt;Node3</title>
<path fill="none" stroke="midnightblue" d="M250.182,-10C259.036,-10 267.791,-10 275.874,-10"/>
<polygon fill="midnightblue" stroke="midnightblue" points="250.173,-6.5001 240.173,-10 250.173,-13.5001 250.173,-6.5001"/>
</g>
</g>
</svg>
