<?xml version="1.0" encoding="UTF-8" standalone="no"?>
<!DOCTYPE svg PUBLIC "-//W3C//DTD SVG 1.1//EN"
 "http://www.w3.org/Graphics/SVG/1.1/DTD/svg11.dtd">
<!-- Generated by graphviz version 2.38.0 (20140413.2041)
 -->
<!-- Title: MakeSRGB Pages: 1 -->
<svg width="517pt" height="66pt"
 viewBox="0.00 0.00 517.00 66.00" xmlns="http://www.w3.org/2000/svg" xmlns:xlink="http://www.w3.org/1999/xlink">
<g id="graph0" class="graph" transform="scale(1 1) rotate(0) translate(4 62)">
<title>MakeSRGB</title>
<!-- Node1 -->
<g id="node1" class="node"><title>Node1</title>
<polygon fill="#bfbfbf" stroke="black" points="0,-19.5 0,-38.5 68,-38.5 68,-19.5 0,-19.5"/>
<text text-anchor="middle" x="34" y="-26.5" font-family="Helvetica,sans-Serif" font-size="10.00">MakeSRGB</text>
</g>
<!-- Node2 -->
<g id="node2" class="node"><title>Node2</title>
<g id="a_node2"><a xlink:href="_d_d_s_texture_loader_8cpp.html#a636dc39cbed3b2c612ea8a7f8c951ff9" target="_top" xlink:title="CreateD3DResources">
<polygon fill="none" stroke="black" points="109.5,-38.5 109.5,-57.5 219.5,-57.5 219.5,-38.5 109.5,-38.5"/>
<text text-anchor="middle" x="164.5" y="-45.5" font-family="Helvetica,sans-Serif" font-size="10.00">CreateD3DResources</text>
</a>
</g>
</g>
<!-- Node1&#45;&gt;Node2 -->
<g id="edge1" class="edge"><title>Node1&#45;&gt;Node2</title>
<path fill="none" stroke="midnightblue" d="M78.1216,-35.376C88.0538,-36.8445 98.744,-38.4252 109.086,-39.9543"/>
<polygon fill="midnightblue" stroke="midnightblue" points="78.4964,-31.8934 68.0919,-33.893 77.4724,-38.8181 78.4964,-31.8934"/>
</g>
<!-- Node5 -->
<g id="node5" class="node"><title>Node5</title>
<g id="a_node5"><a xlink:href="_d_d_s_texture_loader_8cpp.html#ac3528432c6f08aa64ef16420c10f5de6" target="_top" xlink:title="CreateD3DResources12">
<polygon fill="none" stroke="black" points="104,-0.5 104,-19.5 225,-19.5 225,-0.5 104,-0.5"/>
<text text-anchor="middle" x="164.5" y="-7.5" font-family="Helvetica,sans-Serif" font-size="10.00">CreateD3DResources12</text>
</a>
</g>
</g>
<!-- Node1&#45;&gt;Node5 -->
<g id="edge4" class="edge"><title>Node1&#45;&gt;Node5</title>
<path fill="none" stroke="midnightblue" d="M78.2,-22.6125C86.4366,-21.3946 95.192,-20.1 103.836,-18.8219"/>
<polygon fill="midnightblue" stroke="midnightblue" points="77.4724,-19.1819 68.0919,-24.107 78.4964,-26.1066 77.4724,-19.1819"/>
</g>
<!-- Node3 -->
<g id="node3" class="node"><title>Node3</title>
<g id="a_node3"><a xlink:href="_d_d_s_texture_loader_8cpp.html#ac97ddcbab1e9ce61667a0862b58f9c56" target="_top" xlink:title="CreateTextureFromDDS">
<polygon fill="none" stroke="black" points="266.5,-38.5 266.5,-57.5 386.5,-57.5 386.5,-38.5 266.5,-38.5"/>
<text text-anchor="middle" x="326.5" y="-45.5" font-family="Helvetica,sans-Serif" font-size="10.00">CreateTextureFromDDS</text>
</a>
</g>
</g>
<!-- Node2&#45;&gt;Node3 -->
<g id="edge2" class="edge"><title>Node2&#45;&gt;Node3</title>
<path fill="none" stroke="midnightblue" d="M229.715,-48C241.847,-48 254.483,-48 266.447,-48"/>
<polygon fill="midnightblue" stroke="midnightblue" points="229.669,-44.5001 219.669,-48 229.669,-51.5001 229.669,-44.5001"/>
</g>
<!-- Node4 -->
<g id="node4" class="node"><title>Node4</title>
<g id="a_node4"><a xlink:href="_d_d_s_texture_loader_8cpp.html#a8c2c61f7f7e3bd20619e3746b8e20286" target="_top" xlink:title="GetAlphaMode">
<polygon fill="none" stroke="black" points="428,-19.5 428,-38.5 509,-38.5 509,-19.5 428,-19.5"/>
<text text-anchor="middle" x="468.5" y="-26.5" font-family="Helvetica,sans-Serif" font-size="10.00">GetAlphaMode</text>
</a>
</g>
</g>
<!-- Node3&#45;&gt;Node4 -->
<g id="edge3" class="edge"><title>Node3&#45;&gt;Node4</title>
<path fill="none" stroke="midnightblue" d="M397.012,-38.5662C407.626,-37.1257 418.255,-35.6833 427.923,-34.3712"/>
<polygon fill="midnightblue" stroke="midnightblue" points="396.311,-35.1292 386.873,-39.9423 397.252,-42.0656 396.311,-35.1292"/>
</g>
<!-- Node6 -->
<g id="node6" class="node"><title>Node6</title>
<g id="a_node6"><a xlink:href="_d_d_s_texture_loader_8cpp.html#aa0c87b1491a829d1a28da9bb89b2d2a6" target="_top" xlink:title="CreateTextureFromDDS12">
<polygon fill="none" stroke="black" points="261,-0.5 261,-19.5 392,-19.5 392,-0.5 261,-0.5"/>
<text text-anchor="middle" x="326.5" y="-7.5" font-family="Helvetica,sans-Serif" font-size="10.00">CreateTextureFromDDS12</text>
</a>
</g>
</g>
<!-- Node5&#45;&gt;Node6 -->
<g id="edge5" class="edge"><title>Node5&#45;&gt;Node6</title>
<path fill="none" stroke="midnightblue" d="M235.3,-10C243.765,-10 252.384,-10 260.771,-10"/>
<polygon fill="midnightblue" stroke="midnightblue" points="235.078,-6.5001 225.078,-10 235.078,-13.5001 235.078,-6.5001"/>
</g>
<!-- Node6&#45;&gt;Node4 -->
<g id="edge6" class="edge"><title>Node6&#45;&gt;Node4</title>
<path fill="none" stroke="midnightblue" d="M402.182,-20.1354C411.036,-21.3371 419.791,-22.5252 427.874,-23.6222"/>
<polygon fill="midnightblue" stroke="midnightblue" points="402.552,-16.6537 392.173,-18.777 401.611,-23.5901 402.552,-16.6537"/>
</g>
</g>
</svg>
