<?xml version="1.0" encoding="UTF-8" standalone="no"?>
<!DOCTYPE svg PUBLIC "-//W3C//DTD SVG 1.1//EN"
 "http://www.w3.org/Graphics/SVG/1.1/DTD/svg11.dtd">
<!-- Generated by graphviz version 2.38.0 (20140413.2041)
 -->
<!-- Title: GetAlphaMode Pages: 1 -->
<svg width="639pt" height="400pt"
 viewBox="0.00 0.00 639.00 399.50" xmlns="http://www.w3.org/2000/svg" xmlns:xlink="http://www.w3.org/1999/xlink">
<g id="graph0" class="graph" transform="scale(1 1) rotate(0) translate(4 395.5)">
<title>GetAlphaMode</title>
<!-- Node1 -->
<g id="node1" class="node"><title>Node1</title>
<polygon fill="#bfbfbf" stroke="black" points="0,-186.5 0,-205.5 81,-205.5 81,-186.5 0,-186.5"/>
<text text-anchor="middle" x="40.5" y="-193.5" font-family="Helvetica,sans-Serif" font-size="10.00">GetAlphaMode</text>
</g>
<!-- Node2 -->
<g id="node2" class="node"><title>Node2</title>
<g id="a_node2"><a xlink:href="namespace_direct_x.html#a62a12ff7a57a36483e157b1fb1fe8dff" target="_top" xlink:title="DirectX::CreateDDSTexture\lFromMemory">
<polygon fill="none" stroke="black" points="117,-361 117,-391 251,-391 251,-361 117,-361"/>
<text text-anchor="start" x="125" y="-379" font-family="Helvetica,sans-Serif" font-size="10.00">DirectX::CreateDDSTexture</text>
<text text-anchor="middle" x="184" y="-368" font-family="Helvetica,sans-Serif" font-size="10.00">FromMemory</text>
</a>
</g>
</g>
<!-- Node1&#45;&gt;Node2 -->
<g id="edge1" class="edge"><title>Node1&#45;&gt;Node2</title>
<path fill="none" stroke="midnightblue" d="M43.4804,-205.583C49.5394,-232.549 70.3252,-309.858 117,-352 118.307,-353.18 119.676,-354.303 121.096,-355.371"/>
<polygon fill="midnightblue" stroke="midnightblue" points="119.412,-358.45 129.714,-360.92 123.201,-352.564 119.412,-358.45"/>
</g>
<!-- Node3 -->
<g id="node3" class="node"><title>Node3</title>
<g id="a_node3"><a xlink:href="namespace_direct_x.html#a5839b6f2cb71965e2aeddef378e1fe6e" target="_top" xlink:title="DirectX::CreateDDSTexture\lFromMemoryEx">
<polygon fill="none" stroke="black" points="117,-312 117,-342 251,-342 251,-312 117,-312"/>
<text text-anchor="start" x="125" y="-330" font-family="Helvetica,sans-Serif" font-size="10.00">DirectX::CreateDDSTexture</text>
<text text-anchor="middle" x="184" y="-319" font-family="Helvetica,sans-Serif" font-size="10.00">FromMemoryEx</text>
</a>
</g>
</g>
<!-- Node1&#45;&gt;Node3 -->
<g id="edge2" class="edge"><title>Node1&#45;&gt;Node3</title>
<path fill="none" stroke="midnightblue" d="M45.8625,-205.779C55.6286,-226.606 81.233,-275.666 117,-303 118.81,-304.383 120.708,-305.693 122.671,-306.932"/>
<polygon fill="midnightblue" stroke="midnightblue" points="121.184,-310.11 131.623,-311.921 124.592,-303.995 121.184,-310.11"/>
</g>
<!-- Node4 -->
<g id="node4" class="node"><title>Node4</title>
<g id="a_node4"><a xlink:href="namespace_direct_x.html#a4fc6a2671e5a4fd5e6abb20ab0f8d3eb" target="_top" xlink:title="DirectX::CreateDDSTexture\lFromMemory12">
<polygon fill="none" stroke="black" points="117,-263 117,-293 251,-293 251,-263 117,-263"/>
<text text-anchor="start" x="125" y="-281" font-family="Helvetica,sans-Serif" font-size="10.00">DirectX::CreateDDSTexture</text>
<text text-anchor="middle" x="184" y="-270" font-family="Helvetica,sans-Serif" font-size="10.00">FromMemory12</text>
</a>
</g>
</g>
<!-- Node1&#45;&gt;Node4 -->
<g id="edge3" class="edge"><title>Node1&#45;&gt;Node4</title>
<path fill="none" stroke="midnightblue" d="M52.0757,-205.547C66.0933,-217.82 91.9814,-239.19 117,-253 120.681,-255.032 124.56,-256.968 128.52,-258.798"/>
<polygon fill="midnightblue" stroke="midnightblue" points="127.281,-262.076 137.846,-262.869 130.082,-255.661 127.281,-262.076"/>
</g>
<!-- Node5 -->
<g id="node5" class="node"><title>Node5</title>
<g id="a_node5"><a xlink:href="_d_d_s_texture_loader_8cpp.html#aa0c87b1491a829d1a28da9bb89b2d2a6" target="_top" xlink:title="CreateTextureFromDDS12">
<polygon fill="none" stroke="black" points="118.5,-186.5 118.5,-205.5 249.5,-205.5 249.5,-186.5 118.5,-186.5"/>
<text text-anchor="middle" x="184" y="-193.5" font-family="Helvetica,sans-Serif" font-size="10.00">CreateTextureFromDDS12</text>
</a>
</g>
</g>
<!-- Node1&#45;&gt;Node5 -->
<g id="edge4" class="edge"><title>Node1&#45;&gt;Node5</title>
<path fill="none" stroke="midnightblue" d="M81.2922,-196C89.7564,-196 98.9569,-196 108.25,-196"/>
<polygon fill="midnightblue" stroke="midnightblue" points="108.339,-199.5 118.339,-196 108.339,-192.5 108.339,-199.5"/>
</g>
<!-- Node12 -->
<g id="node12" class="node"><title>Node12</title>
<g id="a_node12"><a xlink:href="_d_d_s_texture_loader_8cpp.html#ac97ddcbab1e9ce61667a0862b58f9c56" target="_top" xlink:title="CreateTextureFromDDS">
<polygon fill="none" stroke="black" points="124,-224.5 124,-243.5 244,-243.5 244,-224.5 124,-224.5"/>
<text text-anchor="middle" x="184" y="-231.5" font-family="Helvetica,sans-Serif" font-size="10.00">CreateTextureFromDDS</text>
</a>
</g>
</g>
<!-- Node1&#45;&gt;Node12 -->
<g id="edge12" class="edge"><title>Node1&#45;&gt;Node12</title>
<path fill="none" stroke="midnightblue" d="M77.2064,-205.589C95.4727,-210.494 117.908,-216.52 137.411,-221.757"/>
<polygon fill="midnightblue" stroke="midnightblue" points="136.739,-225.201 147.305,-224.414 138.555,-218.44 136.739,-225.201"/>
</g>
<!-- Node15 -->
<g id="node15" class="node"><title>Node15</title>
<g id="a_node15"><a xlink:href="namespace_direct_x.html#a72103949d0a30b4d1cf2c68fb4d0ec19" target="_top" xlink:title="DirectX::CreateDDSTexture\lFromFile">
<polygon fill="none" stroke="black" points="117,-137 117,-167 251,-167 251,-137 117,-137"/>
<text text-anchor="start" x="125" y="-155" font-family="Helvetica,sans-Serif" font-size="10.00">DirectX::CreateDDSTexture</text>
<text text-anchor="middle" x="184" y="-144" font-family="Helvetica,sans-Serif" font-size="10.00">FromFile</text>
</a>
</g>
</g>
<!-- Node1&#45;&gt;Node15 -->
<g id="edge20" class="edge"><title>Node1&#45;&gt;Node15</title>
<path fill="none" stroke="midnightblue" d="M72.2034,-186.453C87.5657,-181.676 106.684,-175.731 124.692,-170.131"/>
<polygon fill="midnightblue" stroke="midnightblue" points="126.041,-173.377 134.551,-167.065 123.963,-166.693 126.041,-173.377"/>
</g>
<!-- Node16 -->
<g id="node16" class="node"><title>Node16</title>
<g id="a_node16"><a xlink:href="namespace_direct_x.html#a81c1bbdec904a0d0f5fcad4c5ea88525" target="_top" xlink:title="DirectX::CreateDDSTexture\lFromFileEx">
<polygon fill="none" stroke="black" points="117,-88 117,-118 251,-118 251,-88 117,-88"/>
<text text-anchor="start" x="125" y="-106" font-family="Helvetica,sans-Serif" font-size="10.00">DirectX::CreateDDSTexture</text>
<text text-anchor="middle" x="184" y="-95" font-family="Helvetica,sans-Serif" font-size="10.00">FromFileEx</text>
</a>
</g>
</g>
<!-- Node1&#45;&gt;Node16 -->
<g id="edge21" class="edge"><title>Node1&#45;&gt;Node16</title>
<path fill="none" stroke="midnightblue" d="M49.8494,-186.234C62.8592,-171.555 89.3577,-143.743 117,-127 119.764,-125.326 122.662,-123.742 125.638,-122.246"/>
<polygon fill="midnightblue" stroke="midnightblue" points="127.142,-125.407 134.742,-118.025 124.197,-119.056 127.142,-125.407"/>
</g>
<!-- Node17 -->
<g id="node17" class="node"><title>Node17</title>
<g id="a_node17"><a xlink:href="namespace_direct_x.html#a256abd853d439601f0990802d1465da7" target="_top" xlink:title="DirectX::CreateDDSTexture\lFromFile12">
<polygon fill="none" stroke="black" points="117,-39 117,-69 251,-69 251,-39 117,-39"/>
<text text-anchor="start" x="125" y="-57" font-family="Helvetica,sans-Serif" font-size="10.00">DirectX::CreateDDSTexture</text>
<text text-anchor="middle" x="184" y="-46" font-family="Helvetica,sans-Serif" font-size="10.00">FromFile12</text>
</a>
</g>
</g>
<!-- Node1&#45;&gt;Node17 -->
<g id="edge22" class="edge"><title>Node1&#45;&gt;Node17</title>
<path fill="none" stroke="midnightblue" d="M45.1734,-186.232C54.0602,-163.873 78.8413,-108.555 117,-78 118.74,-76.6068 120.568,-75.2902 122.462,-74.0464"/>
<polygon fill="midnightblue" stroke="midnightblue" points="124.216,-77.0754 131.129,-69.0469 120.718,-71.0119 124.216,-77.0754"/>
</g>
<!-- Node18 -->
<g id="node18" class="node"><title>Node18</title>
<g id="a_node18"><a xlink:href="_d_d_s_texture_loader_8cpp.html#a3596a4048d14adf7ed925b2644f33483" target="_top" xlink:title="LoadTextureDataFromFile">
<polygon fill="none" stroke="black" points="120,-0.5 120,-19.5 248,-19.5 248,-0.5 120,-0.5"/>
<text text-anchor="middle" x="184" y="-7.5" font-family="Helvetica,sans-Serif" font-size="10.00">LoadTextureDataFromFile</text>
</a>
</g>
</g>
<!-- Node1&#45;&gt;Node18 -->
<g id="edge23" class="edge"><title>Node1&#45;&gt;Node18</title>
<path fill="none" stroke="midnightblue" d="M42.9721,-186.406C47.8608,-157.892 66.2286,-72.9272 117,-29 118.973,-27.2934 121.09,-25.7397 123.313,-24.3253"/>
<polygon fill="midnightblue" stroke="midnightblue" points="125.142,-27.3167 132.328,-19.5312 121.855,-21.1363 125.142,-27.3167"/>
</g>
<!-- Node6 -->
<g id="node6" class="node"><title>Node6</title>
<g id="a_node6"><a xlink:href="_d_d_s_texture_loader_8cpp.html#adc6281b47023b36aab820be09ab3431c" target="_top" xlink:title="BitsPerPixel">
<polygon fill="none" stroke="black" points="560,-262.5 560,-281.5 631,-281.5 631,-262.5 560,-262.5"/>
<text text-anchor="middle" x="595.5" y="-269.5" font-family="Helvetica,sans-Serif" font-size="10.00">BitsPerPixel</text>
</a>
</g>
</g>
<!-- Node5&#45;&gt;Node6 -->
<g id="edge5" class="edge"><title>Node5&#45;&gt;Node6</title>
<path fill="none" stroke="midnightblue" d="M233.587,-186.443C239.889,-183.776 245.91,-180.364 251,-176 279.07,-151.934 255.705,-120.692 287,-101 332.517,-72.3594 355.618,-88.8256 408,-101 463.952,-114.004 481.457,-119.401 524,-158 554.009,-185.227 575.811,-228.157 586.687,-252.831"/>
<polygon fill="midnightblue" stroke="midnightblue" points="583.534,-254.36 590.672,-262.19 589.975,-251.618 583.534,-254.36"/>
</g>
<!-- Node7 -->
<g id="node7" class="node"><title>Node7</title>
<g id="a_node7"><a xlink:href="_d_d_s_texture_loader_8cpp.html#aa86329d2121392cc1d7a3dbbc52d3b0a" target="_top" xlink:title="GetDXGIFormat">
<polygon fill="none" stroke="black" points="305,-186.5 305,-205.5 390,-205.5 390,-186.5 305,-186.5"/>
<text text-anchor="middle" x="347.5" y="-193.5" font-family="Helvetica,sans-Serif" font-size="10.00">GetDXGIFormat</text>
</a>
</g>
</g>
<!-- Node5&#45;&gt;Node7 -->
<g id="edge6" class="edge"><title>Node5&#45;&gt;Node7</title>
<path fill="none" stroke="midnightblue" d="M249.758,-196C264.728,-196 280.462,-196 294.79,-196"/>
<polygon fill="midnightblue" stroke="midnightblue" points="294.943,-199.5 304.943,-196 294.942,-192.5 294.943,-199.5"/>
</g>
<!-- Node8 -->
<g id="node8" class="node"><title>Node8</title>
<g id="a_node8"><a xlink:href="_d_d_s_texture_loader_8cpp.html#a51511e9ea8b201e1f254b21b36da0f69" target="_top" xlink:title="FillInitData12">
<polygon fill="none" stroke="black" points="311,-148.5 311,-167.5 384,-167.5 384,-148.5 311,-148.5"/>
<text text-anchor="middle" x="347.5" y="-155.5" font-family="Helvetica,sans-Serif" font-size="10.00">FillInitData12</text>
</a>
</g>
</g>
<!-- Node5&#45;&gt;Node8 -->
<g id="edge7" class="edge"><title>Node5&#45;&gt;Node8</title>
<path fill="none" stroke="midnightblue" d="M225.753,-186.411C248.729,-181.005 277.483,-174.239 301.168,-168.666"/>
<polygon fill="midnightblue" stroke="midnightblue" points="302.044,-172.056 310.977,-166.358 300.441,-165.242 302.044,-172.056"/>
</g>
<!-- Node10 -->
<g id="node10" class="node"><title>Node10</title>
<g id="a_node10"><a xlink:href="_d_d_s_texture_loader_8cpp.html#ac3528432c6f08aa64ef16420c10f5de6" target="_top" xlink:title="CreateD3DResources12">
<polygon fill="none" stroke="black" points="287,-110.5 287,-129.5 408,-129.5 408,-110.5 287,-110.5"/>
<text text-anchor="middle" x="347.5" y="-117.5" font-family="Helvetica,sans-Serif" font-size="10.00">CreateD3DResources12</text>
</a>
</g>
</g>
<!-- Node5&#45;&gt;Node10 -->
<g id="edge10" class="edge"><title>Node5&#45;&gt;Node10</title>
<path fill="none" stroke="midnightblue" d="M227.904,-186.45C235.895,-183.727 243.943,-180.295 251,-176 270.6,-164.073 267.489,-151.072 287,-139 290.379,-136.909 294.009,-135.028 297.75,-133.339"/>
<polygon fill="midnightblue" stroke="midnightblue" points="299.233,-136.515 307.196,-129.526 296.613,-130.024 299.233,-136.515"/>
</g>
<!-- Node9 -->
<g id="node9" class="node"><title>Node9</title>
<g id="a_node9"><a xlink:href="_d_d_s_texture_loader_8cpp.html#af572c1b170d5c8945533758c4607ce23" target="_top" xlink:title="GetSurfaceInfo">
<polygon fill="none" stroke="black" points="444,-262.5 444,-281.5 524,-281.5 524,-262.5 444,-262.5"/>
<text text-anchor="middle" x="484" y="-269.5" font-family="Helvetica,sans-Serif" font-size="10.00">GetSurfaceInfo</text>
</a>
</g>
</g>
<!-- Node8&#45;&gt;Node9 -->
<g id="edge8" class="edge"><title>Node8&#45;&gt;Node9</title>
<path fill="none" stroke="midnightblue" d="M384.088,-165.589C392.384,-168.352 400.869,-172.06 408,-177 437.211,-197.234 460.556,-232.188 473.039,-253.587"/>
<polygon fill="midnightblue" stroke="midnightblue" points="470.029,-255.375 477.992,-262.363 476.125,-251.934 470.029,-255.375"/>
</g>
<!-- Node9&#45;&gt;Node6 -->
<g id="edge9" class="edge"><title>Node9&#45;&gt;Node6</title>
<path fill="none" stroke="midnightblue" d="M524.223,-272C532.512,-272 541.319,-272 549.794,-272"/>
<polygon fill="midnightblue" stroke="midnightblue" points="549.909,-275.5 559.909,-272 549.909,-268.5 549.909,-275.5"/>
</g>
<!-- Node11 -->
<g id="node11" class="node"><title>Node11</title>
<g id="a_node11"><a xlink:href="_d_d_s_texture_loader_8cpp.html#ad7a406010bd318fb91ef5f3893524caf" target="_top" xlink:title="MakeSRGB">
<polygon fill="none" stroke="black" points="450,-167.5 450,-186.5 518,-186.5 518,-167.5 450,-167.5"/>
<text text-anchor="middle" x="484" y="-174.5" font-family="Helvetica,sans-Serif" font-size="10.00">MakeSRGB</text>
</a>
</g>
</g>
<!-- Node10&#45;&gt;Node11 -->
<g id="edge11" class="edge"><title>Node10&#45;&gt;Node11</title>
<path fill="none" stroke="midnightblue" d="M381.572,-129.527C390.269,-132.312 399.572,-135.545 408,-139 424.68,-145.837 442.721,-154.922 456.928,-162.493"/>
<polygon fill="midnightblue" stroke="midnightblue" points="455.627,-165.769 466.088,-167.448 458.957,-159.612 455.627,-165.769"/>
</g>
<!-- Node12&#45;&gt;Node6 -->
<g id="edge13" class="edge"><title>Node12&#45;&gt;Node6</title>
<path fill="none" stroke="midnightblue" d="M233.587,-243.557C239.889,-246.224 245.91,-249.636 251,-254 279.07,-278.066 255.705,-309.308 287,-329 379.312,-387.086 516.089,-318.917 570.71,-286.869"/>
<polygon fill="midnightblue" stroke="midnightblue" points="572.559,-289.841 579.34,-281.701 568.963,-283.835 572.559,-289.841"/>
</g>
<!-- Node12&#45;&gt;Node7 -->
<g id="edge14" class="edge"><title>Node12&#45;&gt;Node7</title>
<path fill="none" stroke="midnightblue" d="M225.753,-224.411C247.161,-219.374 273.586,-213.156 296.253,-207.823"/>
<polygon fill="midnightblue" stroke="midnightblue" points="297.107,-211.217 306.04,-205.52 295.504,-204.404 297.107,-211.217"/>
</g>
<!-- Node12&#45;&gt;Node9 -->
<g id="edge17" class="edge"><title>Node12&#45;&gt;Node9</title>
<path fill="none" stroke="midnightblue" d="M231.32,-243.515C248.724,-246.856 268.718,-250.416 287,-253 336.718,-260.027 393.904,-265.245 433.622,-268.416"/>
<polygon fill="midnightblue" stroke="midnightblue" points="433.591,-271.925 443.834,-269.218 434.138,-264.946 433.591,-271.925"/>
</g>
<!-- Node13 -->
<g id="node13" class="node"><title>Node13</title>
<g id="a_node13"><a xlink:href="_d_d_s_texture_loader_8cpp.html#a636dc39cbed3b2c612ea8a7f8c951ff9" target="_top" xlink:title="CreateD3DResources">
<polygon fill="none" stroke="black" points="292.5,-224.5 292.5,-243.5 402.5,-243.5 402.5,-224.5 292.5,-224.5"/>
<text text-anchor="middle" x="347.5" y="-231.5" font-family="Helvetica,sans-Serif" font-size="10.00">CreateD3DResources</text>
</a>
</g>
</g>
<!-- Node12&#45;&gt;Node13 -->
<g id="edge15" class="edge"><title>Node12&#45;&gt;Node13</title>
<path fill="none" stroke="midnightblue" d="M244.22,-234C256.527,-234 269.555,-234 282.041,-234"/>
<polygon fill="midnightblue" stroke="midnightblue" points="282.374,-237.5 292.374,-234 282.374,-230.5 282.374,-237.5"/>
</g>
<!-- Node14 -->
<g id="node14" class="node"><title>Node14</title>
<g id="a_node14"><a xlink:href="_d_d_s_texture_loader_8cpp.html#af01b3b33c47f4e9d8e30d00d5b586522" target="_top" xlink:title="FillInitData">
<polygon fill="none" stroke="black" points="316.5,-300.5 316.5,-319.5 378.5,-319.5 378.5,-300.5 316.5,-300.5"/>
<text text-anchor="middle" x="347.5" y="-307.5" font-family="Helvetica,sans-Serif" font-size="10.00">FillInitData</text>
</a>
</g>
</g>
<!-- Node12&#45;&gt;Node14 -->
<g id="edge18" class="edge"><title>Node12&#45;&gt;Node14</title>
<path fill="none" stroke="midnightblue" d="M226.27,-243.503C234.73,-246.269 243.374,-249.73 251,-254 269.679,-264.459 268.806,-274.719 287,-286 293.378,-289.955 300.52,-293.49 307.583,-296.553"/>
<polygon fill="midnightblue" stroke="midnightblue" points="306.503,-299.893 317.084,-300.432 309.149,-293.412 306.503,-299.893"/>
</g>
<!-- Node13&#45;&gt;Node11 -->
<g id="edge16" class="edge"><title>Node13&#45;&gt;Node11</title>
<path fill="none" stroke="midnightblue" d="M381.572,-224.473C390.269,-221.688 399.572,-218.455 408,-215 424.68,-208.163 442.721,-199.078 456.928,-191.507"/>
<polygon fill="midnightblue" stroke="midnightblue" points="458.957,-194.388 466.088,-186.552 455.627,-188.231 458.957,-194.388"/>
</g>
<!-- Node14&#45;&gt;Node9 -->
<g id="edge19" class="edge"><title>Node14&#45;&gt;Node9</title>
<path fill="none" stroke="midnightblue" d="M378.684,-301.472C396.574,-296.418 419.552,-289.926 439.387,-284.322"/>
<polygon fill="midnightblue" stroke="midnightblue" points="440.46,-287.656 449.132,-281.569 438.557,-280.919 440.46,-287.656"/>
</g>
</g>
</svg>
