<?xml version="1.0" encoding="UTF-8" standalone="no"?>
<!DOCTYPE svg PUBLIC "-//W3C//DTD SVG 1.1//EN"
 "http://www.w3.org/Graphics/SVG/1.1/DTD/svg11.dtd">
<!-- Generated by graphviz version 2.38.0 (20140413.2041)
 -->
<!-- Title: GetSurfaceInfo Pages: 1 -->
<svg width="481pt" height="104pt"
 viewBox="0.00 0.00 481.00 104.00" xmlns="http://www.w3.org/2000/svg" xmlns:xlink="http://www.w3.org/1999/xlink">
<g id="graph0" class="graph" transform="scale(1 1) rotate(0) translate(4 100)">
<title>GetSurfaceInfo</title>
<!-- Node1 -->
<g id="node1" class="node"><title>Node1</title>
<polygon fill="#bfbfbf" stroke="black" points="0,-38.5 0,-57.5 80,-57.5 80,-38.5 0,-38.5"/>
<text text-anchor="middle" x="40" y="-45.5" font-family="Helvetica,sans-Serif" font-size="10.00">GetSurfaceInfo</text>
</g>
<!-- Node2 -->
<g id="node2" class="node"><title>Node2</title>
<g id="a_node2"><a xlink:href="_d_d_s_texture_loader_8cpp.html#af01b3b33c47f4e9d8e30d00d5b586522" target="_top" xlink:title="FillInitData">
<polygon fill="none" stroke="black" points="121.5,-76.5 121.5,-95.5 183.5,-95.5 183.5,-76.5 121.5,-76.5"/>
<text text-anchor="middle" x="152.5" y="-83.5" font-family="Helvetica,sans-Serif" font-size="10.00">FillInitData</text>
</a>
</g>
</g>
<!-- Node1&#45;&gt;Node2 -->
<g id="edge1" class="edge"><title>Node1&#45;&gt;Node2</title>
<path fill="none" stroke="midnightblue" d="M78.7206,-60.9718C93.4422,-66.0344 110.016,-71.7341 123.625,-76.4141"/>
<polygon fill="midnightblue" stroke="midnightblue" points="79.4785,-57.5313 68.8838,-57.589 77.2021,-64.1508 79.4785,-57.5313"/>
</g>
<!-- Node3 -->
<g id="node3" class="node"><title>Node3</title>
<g id="a_node3"><a xlink:href="_d_d_s_texture_loader_8cpp.html#ac97ddcbab1e9ce61667a0862b58f9c56" target="_top" xlink:title="CreateTextureFromDDS">
<polygon fill="none" stroke="black" points="230.5,-38.5 230.5,-57.5 350.5,-57.5 350.5,-38.5 230.5,-38.5"/>
<text text-anchor="middle" x="290.5" y="-45.5" font-family="Helvetica,sans-Serif" font-size="10.00">CreateTextureFromDDS</text>
</a>
</g>
</g>
<!-- Node1&#45;&gt;Node3 -->
<g id="edge7" class="edge"><title>Node1&#45;&gt;Node3</title>
<path fill="none" stroke="midnightblue" d="M90.2109,-48C130.464,-48 187.516,-48 230.27,-48"/>
<polygon fill="midnightblue" stroke="midnightblue" points="90.1015,-44.5001 80.1015,-48 90.1015,-51.5001 90.1015,-44.5001"/>
</g>
<!-- Node5 -->
<g id="node5" class="node"><title>Node5</title>
<g id="a_node5"><a xlink:href="_d_d_s_texture_loader_8cpp.html#a51511e9ea8b201e1f254b21b36da0f69" target="_top" xlink:title="FillInitData12">
<polygon fill="none" stroke="black" points="116,-0.5 116,-19.5 189,-19.5 189,-0.5 116,-0.5"/>
<text text-anchor="middle" x="152.5" y="-7.5" font-family="Helvetica,sans-Serif" font-size="10.00">FillInitData12</text>
</a>
</g>
</g>
<!-- Node1&#45;&gt;Node5 -->
<g id="edge4" class="edge"><title>Node1&#45;&gt;Node5</title>
<path fill="none" stroke="midnightblue" d="M78.7206,-35.0282C93.4422,-29.9656 110.016,-24.2659 123.625,-19.5859"/>
<polygon fill="midnightblue" stroke="midnightblue" points="77.2021,-31.8492 68.8838,-38.411 79.4785,-38.4687 77.2021,-31.8492"/>
</g>
<!-- Node2&#45;&gt;Node3 -->
<g id="edge2" class="edge"><title>Node2&#45;&gt;Node3</title>
<path fill="none" stroke="midnightblue" d="M193.52,-74.8179C213.067,-69.3564 236.349,-62.8509 255.088,-57.6151"/>
<polygon fill="midnightblue" stroke="midnightblue" points="192.372,-71.5046 183.683,-77.5666 194.256,-78.2463 192.372,-71.5046"/>
</g>
<!-- Node4 -->
<g id="node4" class="node"><title>Node4</title>
<g id="a_node4"><a xlink:href="_d_d_s_texture_loader_8cpp.html#a8c2c61f7f7e3bd20619e3746b8e20286" target="_top" xlink:title="GetAlphaMode">
<polygon fill="none" stroke="black" points="392,-19.5 392,-38.5 473,-38.5 473,-19.5 392,-19.5"/>
<text text-anchor="middle" x="432.5" y="-26.5" font-family="Helvetica,sans-Serif" font-size="10.00">GetAlphaMode</text>
</a>
</g>
</g>
<!-- Node3&#45;&gt;Node4 -->
<g id="edge3" class="edge"><title>Node3&#45;&gt;Node4</title>
<path fill="none" stroke="midnightblue" d="M361.012,-38.5662C371.626,-37.1257 382.255,-35.6833 391.923,-34.3712"/>
<polygon fill="midnightblue" stroke="midnightblue" points="360.311,-35.1292 350.873,-39.9423 361.252,-42.0656 360.311,-35.1292"/>
</g>
<!-- Node6 -->
<g id="node6" class="node"><title>Node6</title>
<g id="a_node6"><a xlink:href="_d_d_s_texture_loader_8cpp.html#aa0c87b1491a829d1a28da9bb89b2d2a6" target="_top" xlink:title="CreateTextureFromDDS12">
<polygon fill="none" stroke="black" points="225,-0.5 225,-19.5 356,-19.5 356,-0.5 225,-0.5"/>
<text text-anchor="middle" x="290.5" y="-7.5" font-family="Helvetica,sans-Serif" font-size="10.00">CreateTextureFromDDS12</text>
</a>
</g>
</g>
<!-- Node5&#45;&gt;Node6 -->
<g id="edge5" class="edge"><title>Node5&#45;&gt;Node6</title>
<path fill="none" stroke="midnightblue" d="M199.317,-10C207.515,-10 216.197,-10 224.808,-10"/>
<polygon fill="midnightblue" stroke="midnightblue" points="199.232,-6.5001 189.232,-10 199.232,-13.5001 199.232,-6.5001"/>
</g>
<!-- Node6&#45;&gt;Node4 -->
<g id="edge6" class="edge"><title>Node6&#45;&gt;Node4</title>
<path fill="none" stroke="midnightblue" d="M366.182,-20.1354C375.036,-21.3371 383.791,-22.5252 391.874,-23.6222"/>
<polygon fill="midnightblue" stroke="midnightblue" points="366.552,-16.6537 356.173,-18.777 365.611,-23.5901 366.552,-16.6537"/>
</g>
</g>
</svg>
