<?xml version="1.0" encoding="UTF-8" standalone="no"?>
<!DOCTYPE svg PUBLIC "-//W3C//DTD SVG 1.1//EN"
 "http://www.w3.org/Graphics/SVG/1.1/DTD/svg11.dtd">
<!-- Generated by graphviz version 2.38.0 (20140413.2041)
 -->
<!-- Title: GetDXGIFormat Pages: 1 -->
<svg width="377pt" height="66pt"
 viewBox="0.00 0.00 377.00 66.00" xmlns="http://www.w3.org/2000/svg" xmlns:xlink="http://www.w3.org/1999/xlink">
<g id="graph0" class="graph" transform="scale(1 1) rotate(0) translate(4 62)">
<title>GetDXGIFormat</title>
<!-- Node1 -->
<g id="node1" class="node"><title>Node1</title>
<polygon fill="#bfbfbf" stroke="black" points="0,-19.5 0,-38.5 85,-38.5 85,-19.5 0,-19.5"/>
<text text-anchor="middle" x="42.5" y="-26.5" font-family="Helvetica,sans-Serif" font-size="10.00">GetDXGIFormat</text>
</g>
<!-- Node2 -->
<g id="node2" class="node"><title>Node2</title>
<g id="a_node2"><a xlink:href="_d_d_s_texture_loader_8cpp.html#ac97ddcbab1e9ce61667a0862b58f9c56" target="_top" xlink:title="CreateTextureFromDDS">
<polygon fill="none" stroke="black" points="126.5,-38.5 126.5,-57.5 246.5,-57.5 246.5,-38.5 126.5,-38.5"/>
<text text-anchor="middle" x="186.5" y="-45.5" font-family="Helvetica,sans-Serif" font-size="10.00">CreateTextureFromDDS</text>
</a>
</g>
</g>
<!-- Node1&#45;&gt;Node2 -->
<g id="edge1" class="edge"><title>Node1&#45;&gt;Node2</title>
<path fill="none" stroke="midnightblue" d="M95.5412,-35.9633C105.557,-37.3035 116.117,-38.7164 126.34,-40.0842"/>
<polygon fill="midnightblue" stroke="midnightblue" points="95.7125,-32.4551 85.3367,-34.5979 94.7841,-39.3932 95.7125,-32.4551"/>
</g>
<!-- Node4 -->
<g id="node4" class="node"><title>Node4</title>
<g id="a_node4"><a xlink:href="_d_d_s_texture_loader_8cpp.html#aa0c87b1491a829d1a28da9bb89b2d2a6" target="_top" xlink:title="CreateTextureFromDDS12">
<polygon fill="none" stroke="black" points="121,-0.5 121,-19.5 252,-19.5 252,-0.5 121,-0.5"/>
<text text-anchor="middle" x="186.5" y="-7.5" font-family="Helvetica,sans-Serif" font-size="10.00">CreateTextureFromDDS12</text>
</a>
</g>
</g>
<!-- Node1&#45;&gt;Node4 -->
<g id="edge3" class="edge"><title>Node1&#45;&gt;Node4</title>
<path fill="none" stroke="midnightblue" d="M95.515,-22.0402C103.734,-20.9405 112.32,-19.7917 120.785,-18.6591"/>
<polygon fill="midnightblue" stroke="midnightblue" points="94.7841,-18.6068 85.3367,-23.4021 95.7125,-25.5449 94.7841,-18.6068"/>
</g>
<!-- Node3 -->
<g id="node3" class="node"><title>Node3</title>
<g id="a_node3"><a xlink:href="_d_d_s_texture_loader_8cpp.html#a8c2c61f7f7e3bd20619e3746b8e20286" target="_top" xlink:title="GetAlphaMode">
<polygon fill="none" stroke="black" points="288,-19.5 288,-38.5 369,-38.5 369,-19.5 288,-19.5"/>
<text text-anchor="middle" x="328.5" y="-26.5" font-family="Helvetica,sans-Serif" font-size="10.00">GetAlphaMode</text>
</a>
</g>
</g>
<!-- Node2&#45;&gt;Node3 -->
<g id="edge2" class="edge"><title>Node2&#45;&gt;Node3</title>
<path fill="none" stroke="midnightblue" d="M257.012,-38.5662C267.626,-37.1257 278.255,-35.6833 287.923,-34.3712"/>
<polygon fill="midnightblue" stroke="midnightblue" points="256.311,-35.1292 246.873,-39.9423 257.252,-42.0656 256.311,-35.1292"/>
</g>
<!-- Node4&#45;&gt;Node3 -->
<g id="edge4" class="edge"><title>Node4&#45;&gt;Node3</title>
<path fill="none" stroke="midnightblue" d="M262.182,-20.1354C271.036,-21.3371 279.791,-22.5252 287.874,-23.6222"/>
<polygon fill="midnightblue" stroke="midnightblue" points="262.552,-16.6537 252.173,-18.777 261.611,-23.5901 262.552,-16.6537"/>
</g>
</g>
</svg>
