<?xml version="1.0" encoding="UTF-8" standalone="no"?>
<!DOCTYPE svg PUBLIC "-//W3C//DTD SVG 1.1//EN"
 "http://www.w3.org/Graphics/SVG/1.1/DTD/svg11.dtd">
<!-- Generated by graphviz version 2.38.0 (20140413.2041)
 -->
<!-- Title: CreateTextureFromDDS Pages: 1 -->
<svg width="497pt" height="161pt"
 viewBox="0.00 0.00 497.00 160.82" xmlns="http://www.w3.org/2000/svg" xmlns:xlink="http://www.w3.org/1999/xlink">
<g id="graph0" class="graph" transform="scale(1 1) rotate(0) translate(4 156.817)">
<title>CreateTextureFromDDS</title>
<!-- Node1 -->
<g id="node1" class="node"><title>Node1</title>
<polygon fill="#bfbfbf" stroke="black" points="0,-76.5 0,-95.5 120,-95.5 120,-76.5 0,-76.5"/>
<text text-anchor="middle" x="60" y="-83.5" font-family="Helvetica,sans-Serif" font-size="10.00">CreateTextureFromDDS</text>
</g>
<!-- Node2 -->
<g id="node2" class="node"><title>Node2</title>
<g id="a_node2"><a xlink:href="_d_d_s_texture_loader_8cpp.html#adc6281b47023b36aab820be09ab3431c" target="_top" xlink:title="BitsPerPixel">
<polygon fill="none" stroke="black" points="418,-95.5 418,-114.5 489,-114.5 489,-95.5 418,-95.5"/>
<text text-anchor="middle" x="453.5" y="-102.5" font-family="Helvetica,sans-Serif" font-size="10.00">BitsPerPixel</text>
</a>
</g>
</g>
<!-- Node1&#45;&gt;Node2 -->
<g id="edge1" class="edge"><title>Node1&#45;&gt;Node2</title>
<path fill="none" stroke="midnightblue" d="M72.3252,-95.6447C89.223,-109.333 122.635,-133.758 156,-143 248.518,-168.626 362.148,-137.375 418.069,-118.066"/>
<polygon fill="midnightblue" stroke="midnightblue" points="419.561,-121.25 427.821,-114.616 417.227,-114.651 419.561,-121.25"/>
</g>
<!-- Node3 -->
<g id="node3" class="node"><title>Node3</title>
<g id="a_node3"><a xlink:href="_d_d_s_texture_loader_8cpp.html#aa86329d2121392cc1d7a3dbbc52d3b0a" target="_top" xlink:title="GetDXGIFormat">
<polygon fill="none" stroke="black" points="168.5,-114.5 168.5,-133.5 253.5,-133.5 253.5,-114.5 168.5,-114.5"/>
<text text-anchor="middle" x="211" y="-121.5" font-family="Helvetica,sans-Serif" font-size="10.00">GetDXGIFormat</text>
</a>
</g>
</g>
<!-- Node1&#45;&gt;Node3 -->
<g id="edge2" class="edge"><title>Node1&#45;&gt;Node3</title>
<path fill="none" stroke="midnightblue" d="M98.599,-95.589C118.084,-100.558 142.075,-106.677 162.796,-111.961"/>
<polygon fill="midnightblue" stroke="midnightblue" points="162.117,-115.4 172.671,-114.48 163.846,-108.617 162.117,-115.4"/>
</g>
<!-- Node4 -->
<g id="node4" class="node"><title>Node4</title>
<g id="a_node4"><a xlink:href="_d_d_s_texture_loader_8cpp.html#a636dc39cbed3b2c612ea8a7f8c951ff9" target="_top" xlink:title="CreateD3DResources">
<polygon fill="none" stroke="black" points="156,-76.5 156,-95.5 266,-95.5 266,-76.5 156,-76.5"/>
<text text-anchor="middle" x="211" y="-83.5" font-family="Helvetica,sans-Serif" font-size="10.00">CreateD3DResources</text>
</a>
</g>
</g>
<!-- Node1&#45;&gt;Node4 -->
<g id="edge3" class="edge"><title>Node1&#45;&gt;Node4</title>
<path fill="none" stroke="midnightblue" d="M120.317,-86C128.625,-86 137.196,-86 145.593,-86"/>
<polygon fill="midnightblue" stroke="midnightblue" points="145.72,-89.5001 155.72,-86 145.72,-82.5001 145.72,-89.5001"/>
</g>
<!-- Node6 -->
<g id="node6" class="node"><title>Node6</title>
<g id="a_node6"><a xlink:href="_d_d_s_texture_loader_8cpp.html#af572c1b170d5c8945533758c4607ce23" target="_top" xlink:title="GetSurfaceInfo">
<polygon fill="none" stroke="black" points="302,-38.5 302,-57.5 382,-57.5 382,-38.5 302,-38.5"/>
<text text-anchor="middle" x="342" y="-45.5" font-family="Helvetica,sans-Serif" font-size="10.00">GetSurfaceInfo</text>
</a>
</g>
</g>
<!-- Node1&#45;&gt;Node6 -->
<g id="edge5" class="edge"><title>Node1&#45;&gt;Node6</title>
<path fill="none" stroke="midnightblue" d="M104.357,-76.4262C120.509,-73.0982 139.036,-69.5616 156,-67 201.815,-60.0818 254.4,-54.9493 291.768,-51.7745"/>
<polygon fill="midnightblue" stroke="midnightblue" points="292.211,-55.2498 301.885,-50.9311 291.629,-48.274 292.211,-55.2498"/>
</g>
<!-- Node7 -->
<g id="node7" class="node"><title>Node7</title>
<g id="a_node7"><a xlink:href="_d_d_s_texture_loader_8cpp.html#af01b3b33c47f4e9d8e30d00d5b586522" target="_top" xlink:title="FillInitData">
<polygon fill="none" stroke="black" points="180,-0.5 180,-19.5 242,-19.5 242,-0.5 180,-0.5"/>
<text text-anchor="middle" x="211" y="-7.5" font-family="Helvetica,sans-Serif" font-size="10.00">FillInitData</text>
</a>
</g>
</g>
<!-- Node1&#45;&gt;Node7 -->
<g id="edge7" class="edge"><title>Node1&#45;&gt;Node7</title>
<path fill="none" stroke="midnightblue" d="M77.5967,-76.3708C96.3861,-65.5978 128.026,-47.843 156,-34 163.017,-30.5276 170.649,-26.9928 177.906,-23.7413"/>
<polygon fill="midnightblue" stroke="midnightblue" points="179.742,-26.7567 187.476,-19.5155 176.914,-20.3532 179.742,-26.7567"/>
</g>
<!-- Node5 -->
<g id="node5" class="node"><title>Node5</title>
<g id="a_node5"><a xlink:href="_d_d_s_texture_loader_8cpp.html#ad7a406010bd318fb91ef5f3893524caf" target="_top" xlink:title="MakeSRGB">
<polygon fill="none" stroke="black" points="308,-76.5 308,-95.5 376,-95.5 376,-76.5 308,-76.5"/>
<text text-anchor="middle" x="342" y="-83.5" font-family="Helvetica,sans-Serif" font-size="10.00">MakeSRGB</text>
</a>
</g>
</g>
<!-- Node4&#45;&gt;Node5 -->
<g id="edge4" class="edge"><title>Node4&#45;&gt;Node5</title>
<path fill="none" stroke="midnightblue" d="M266.334,-86C276.759,-86 287.548,-86 297.574,-86"/>
<polygon fill="midnightblue" stroke="midnightblue" points="297.698,-89.5001 307.698,-86 297.698,-82.5001 297.698,-89.5001"/>
</g>
<!-- Node6&#45;&gt;Node2 -->
<g id="edge6" class="edge"><title>Node6&#45;&gt;Node2</title>
<path fill="none" stroke="midnightblue" d="M362.919,-57.5093C369.063,-60.495 375.834,-63.8381 382,-67 396.735,-74.5562 413.018,-83.306 426.219,-90.5034"/>
<polygon fill="midnightblue" stroke="midnightblue" points="424.769,-93.6996 435.221,-95.4307 428.13,-87.5592 424.769,-93.6996"/>
</g>
<!-- Node7&#45;&gt;Node6 -->
<g id="edge8" class="edge"><title>Node7&#45;&gt;Node6</title>
<path fill="none" stroke="midnightblue" d="M242.245,-18.9093C259.162,-23.8927 280.509,-30.1809 299.024,-35.6349"/>
<polygon fill="midnightblue" stroke="midnightblue" points="298.108,-39.0139 308.69,-38.4822 300.086,-32.2991 298.108,-39.0139"/>
</g>
</g>
</svg>
