<?xml version="1.0" encoding="UTF-8" standalone="no"?>
<!DOCTYPE svg PUBLIC "-//W3C//DTD SVG 1.1//EN"
 "http://www.w3.org/Graphics/SVG/1.1/DTD/svg11.dtd">
<!-- Generated by graphviz version 2.38.0 (20140413.2041)
 -->
<!-- Title: C:/Users/micho/Desktop/mt_engine/mt/DDSTextureLoader.cpp Pages: 1 -->
<svg width="473pt" height="207pt"
 viewBox="0.00 0.00 472.50 207.00" xmlns="http://www.w3.org/2000/svg" xmlns:xlink="http://www.w3.org/1999/xlink">
<g id="graph0" class="graph" transform="scale(1 1) rotate(0) translate(4 203)">
<title>C:/Users/micho/Desktop/mt_engine/mt/DDSTextureLoader.cpp</title>
<!-- Node1 -->
<g id="node1" class="node"><title>Node1</title>
<polygon fill="#bfbfbf" stroke="black" points="79,-168.5 79,-198.5 261,-198.5 261,-168.5 79,-168.5"/>
<text text-anchor="start" x="87" y="-186.5" font-family="Helvetica,sans-Serif" font-size="10.00">C:/Users/micho/Desktop</text>
<text text-anchor="middle" x="170" y="-175.5" font-family="Helvetica,sans-Serif" font-size="10.00">/mt_engine/mt/DDSTextureLoader.cpp</text>
</g>
<!-- Node2 -->
<g id="node2" class="node"><title>Node2</title>
<polygon fill="none" stroke="#bfbfbf" points="0,-112.5 0,-131.5 52,-131.5 52,-112.5 0,-112.5"/>
<text text-anchor="middle" x="26" y="-119.5" font-family="Helvetica,sans-Serif" font-size="10.00">assert.h</text>
</g>
<!-- Node1&#45;&gt;Node2 -->
<g id="edge1" class="edge"><title>Node1&#45;&gt;Node2</title>
<path fill="none" stroke="midnightblue" d="M135.874,-168.399C111.713,-158.416 79.5983,-145.147 56.3332,-135.534"/>
<polygon fill="midnightblue" stroke="midnightblue" points="57.532,-132.242 46.9533,-131.658 54.8588,-138.711 57.532,-132.242"/>
</g>
<!-- Node3 -->
<g id="node3" class="node"><title>Node3</title>
<polygon fill="none" stroke="#bfbfbf" points="70,-112.5 70,-131.5 126,-131.5 126,-112.5 70,-112.5"/>
<text text-anchor="middle" x="98" y="-119.5" font-family="Helvetica,sans-Serif" font-size="10.00">algorithm</text>
</g>
<!-- Node1&#45;&gt;Node3 -->
<g id="edge2" class="edge"><title>Node1&#45;&gt;Node3</title>
<path fill="none" stroke="midnightblue" d="M152.937,-168.399C141.935,-159.308 127.635,-147.49 116.382,-138.191"/>
<polygon fill="midnightblue" stroke="midnightblue" points="118.415,-135.33 108.477,-131.658 113.956,-140.726 118.415,-135.33"/>
</g>
<!-- Node4 -->
<g id="node4" class="node"><title>Node4</title>
<polygon fill="none" stroke="#bfbfbf" points="144,-112.5 144,-131.5 196,-131.5 196,-112.5 144,-112.5"/>
<text text-anchor="middle" x="170" y="-119.5" font-family="Helvetica,sans-Serif" font-size="10.00">memory</text>
</g>
<!-- Node1&#45;&gt;Node4 -->
<g id="edge3" class="edge"><title>Node1&#45;&gt;Node4</title>
<path fill="none" stroke="midnightblue" d="M170,-168.399C170,-160.466 170,-150.458 170,-141.858"/>
<polygon fill="midnightblue" stroke="midnightblue" points="173.5,-141.658 170,-131.658 166.5,-141.658 173.5,-141.658"/>
</g>
<!-- Node5 -->
<g id="node5" class="node"><title>Node5</title>
<polygon fill="none" stroke="#bfbfbf" points="205.5,-56.5 205.5,-75.5 242.5,-75.5 242.5,-56.5 205.5,-56.5"/>
<text text-anchor="middle" x="224" y="-63.5" font-family="Helvetica,sans-Serif" font-size="10.00">wrl.h</text>
</g>
<!-- Node1&#45;&gt;Node5 -->
<g id="edge4" class="edge"><title>Node1&#45;&gt;Node5</title>
<path fill="none" stroke="midnightblue" d="M181.743,-168.245C189.265,-158.527 198.752,-145.093 205,-132 212.12,-117.079 217.151,-98.9366 220.24,-85.6149"/>
<polygon fill="midnightblue" stroke="midnightblue" points="223.683,-86.2492 222.38,-75.7348 216.842,-84.7669 223.683,-86.2492"/>
</g>
<!-- Node6 -->
<g id="node6" class="node"><title>Node6</title>
<g id="a_node6"><a xlink:href="_d_d_s_texture_loader_8h.html" target="_top" xlink:title="DDSTextureLoader.h">
<polygon fill="none" stroke="black" points="252.5,-112.5 252.5,-131.5 359.5,-131.5 359.5,-112.5 252.5,-112.5"/>
<text text-anchor="middle" x="306" y="-119.5" font-family="Helvetica,sans-Serif" font-size="10.00">DDSTextureLoader.h</text>
</a>
</g>
</g>
<!-- Node1&#45;&gt;Node6 -->
<g id="edge5" class="edge"><title>Node1&#45;&gt;Node6</title>
<path fill="none" stroke="midnightblue" d="M202.23,-168.399C224.845,-158.505 254.838,-145.383 276.761,-135.792"/>
<polygon fill="midnightblue" stroke="midnightblue" points="278.452,-138.873 286.211,-131.658 275.646,-132.459 278.452,-138.873"/>
</g>
<!-- Node6&#45;&gt;Node5 -->
<g id="edge6" class="edge"><title>Node6&#45;&gt;Node5</title>
<path fill="none" stroke="midnightblue" d="M292.825,-112.324C280.153,-103.979 260.767,-91.2122 245.794,-81.3524"/>
<polygon fill="midnightblue" stroke="midnightblue" points="247.419,-78.2313 237.142,-75.6545 243.569,-84.0776 247.419,-78.2313"/>
</g>
<!-- Node7 -->
<g id="node7" class="node"><title>Node7</title>
<polygon fill="none" stroke="#bfbfbf" points="261,-56.5 261,-75.5 323,-75.5 323,-56.5 261,-56.5"/>
<text text-anchor="middle" x="292" y="-63.5" font-family="Helvetica,sans-Serif" font-size="10.00">d3d11_1.h</text>
</g>
<!-- Node6&#45;&gt;Node7 -->
<g id="edge7" class="edge"><title>Node6&#45;&gt;Node7</title>
<path fill="none" stroke="midnightblue" d="M303.688,-112.083C301.833,-104.927 299.165,-94.6353 296.846,-85.6911"/>
<polygon fill="midnightblue" stroke="midnightblue" points="300.166,-84.5527 294.269,-75.7511 293.391,-86.3094 300.166,-84.5527"/>
</g>
<!-- Node8 -->
<g id="node8" class="node"><title>Node8</title>
<g id="a_node8"><a xlink:href="d3dx12_8h.html" target="_top" xlink:title="d3dx12.h">
<polygon fill="none" stroke="black" points="341,-56.5 341,-75.5 397,-75.5 397,-56.5 341,-56.5"/>
<text text-anchor="middle" x="369" y="-63.5" font-family="Helvetica,sans-Serif" font-size="10.00">d3dx12.h</text>
</a>
</g>
</g>
<!-- Node6&#45;&gt;Node8 -->
<g id="edge8" class="edge"><title>Node6&#45;&gt;Node8</title>
<path fill="none" stroke="midnightblue" d="M316.122,-112.324C325.526,-104.263 339.744,-92.0765 351.069,-82.3695"/>
<polygon fill="midnightblue" stroke="midnightblue" points="353.379,-84.9993 358.694,-75.8339 348.823,-79.6844 353.379,-84.9993"/>
</g>
<!-- Node10 -->
<g id="node10" class="node"><title>Node10</title>
<polygon fill="none" stroke="#bfbfbf" points="415.5,-56.5 415.5,-75.5 464.5,-75.5 464.5,-56.5 415.5,-56.5"/>
<text text-anchor="middle" x="440" y="-63.5" font-family="Helvetica,sans-Serif" font-size="10.00">stdint.h</text>
</g>
<!-- Node6&#45;&gt;Node10 -->
<g id="edge10" class="edge"><title>Node6&#45;&gt;Node10</title>
<path fill="none" stroke="midnightblue" d="M327.233,-112.444C349.384,-103.517 384.319,-89.4387 409.436,-79.3168"/>
<polygon fill="midnightblue" stroke="midnightblue" points="410.9,-82.5006 418.867,-75.5164 408.283,-76.0079 410.9,-82.5006"/>
</g>
<!-- Node9 -->
<g id="node9" class="node"><title>Node9</title>
<polygon fill="none" stroke="#bfbfbf" points="343.5,-0.5 343.5,-19.5 394.5,-19.5 394.5,-0.5 343.5,-0.5"/>
<text text-anchor="middle" x="369" y="-7.5" font-family="Helvetica,sans-Serif" font-size="10.00">d3d12.h</text>
</g>
<!-- Node8&#45;&gt;Node9 -->
<g id="edge9" class="edge"><title>Node8&#45;&gt;Node9</title>
<path fill="none" stroke="midnightblue" d="M369,-56.083C369,-49.0059 369,-38.8611 369,-29.9865"/>
<polygon fill="midnightblue" stroke="midnightblue" points="372.5,-29.751 369,-19.7511 365.5,-29.7511 372.5,-29.751"/>
</g>
</g>
</svg>
