<?xml version="1.0" encoding="UTF-8" standalone="no"?>
<!DOCTYPE svg PUBLIC "-//W3C//DTD SVG 1.1//EN"
 "http://www.w3.org/Graphics/SVG/1.1/DTD/svg11.dtd">
<!-- Generated by graphviz version 2.38.0 (20140413.2041)
 -->
<!-- Title: C:/Users/micho/Desktop/mt_engine/mt/DirectXRenderer.cpp Pages: 1 -->
<svg width="2251pt" height="442pt"
 viewBox="0.00 0.00 2250.88 442.00" xmlns="http://www.w3.org/2000/svg" xmlns:xlink="http://www.w3.org/1999/xlink">
<g id="graph0" class="graph" transform="scale(1 1) rotate(0) translate(4 438)">
<title>C:/Users/micho/Desktop/mt_engine/mt/DirectXRenderer.cpp</title>
<!-- Node1 -->
<g id="node1" class="node"><title>Node1</title>
<polygon fill="#bfbfbf" stroke="black" points="1482.88,-403.5 1482.88,-433.5 1652.88,-433.5 1652.88,-403.5 1482.88,-403.5"/>
<text text-anchor="start" x="1490.88" y="-421.5" font-family="Helvetica,sans-Serif" font-size="10.00">C:/Users/micho/Desktop</text>
<text text-anchor="middle" x="1567.88" y="-410.5" font-family="Helvetica,sans-Serif" font-size="10.00">/mt_engine/mt/DirectXRenderer.cpp</text>
</g>
<!-- Node2 -->
<g id="node2" class="node"><title>Node2</title>
<g id="a_node2"><a xlink:href="_direct_x_renderer_8hpp.html" target="_top" xlink:title="../mt/DirectXRenderer.hpp">
<polygon fill="none" stroke="black" points="1402.88,-291.5 1402.88,-310.5 1530.88,-310.5 1530.88,-291.5 1402.88,-291.5"/>
<text text-anchor="middle" x="1466.88" y="-298.5" font-family="Helvetica,sans-Serif" font-size="10.00">../mt/DirectXRenderer.hpp</text>
</a>
</g>
</g>
<!-- Node1&#45;&gt;Node2 -->
<g id="edge1" class="edge"><title>Node1&#45;&gt;Node2</title>
<path fill="none" stroke="midnightblue" d="M1555.49,-403.337C1536.72,-381.865 1501.13,-341.172 1481.24,-318.429"/>
<polygon fill="midnightblue" stroke="midnightblue" points="1483.68,-315.893 1474.46,-310.669 1478.41,-320.501 1483.68,-315.893"/>
</g>
<!-- Node45 -->
<g id="node45" class="node"><title>Node45</title>
<g id="a_node45"><a xlink:href="engine_8hpp.html" target="_top" xlink:title="../mt/engine.hpp">
<polygon fill="none" stroke="black" points="1582.38,-347.5 1582.38,-366.5 1669.38,-366.5 1669.38,-347.5 1582.38,-347.5"/>
<text text-anchor="middle" x="1625.88" y="-354.5" font-family="Helvetica,sans-Serif" font-size="10.00">../mt/engine.hpp</text>
</a>
</g>
</g>
<!-- Node1&#45;&gt;Node45 -->
<g id="edge56" class="edge"><title>Node1&#45;&gt;Node45</title>
<path fill="none" stroke="midnightblue" d="M1581.62,-403.399C1590.22,-394.575 1601.33,-383.183 1610.26,-374.018"/>
<polygon fill="midnightblue" stroke="midnightblue" points="1612.96,-376.262 1617.44,-366.658 1607.95,-371.375 1612.96,-376.262"/>
</g>
<!-- Node3 -->
<g id="node3" class="node"><title>Node3</title>
<g id="a_node3"><a xlink:href="d3d_util_8h.html" target="_top" xlink:title="../mt/d3dUtil.h">
<polygon fill="none" stroke="black" points="943.877,-168.5 943.877,-187.5 1021.88,-187.5 1021.88,-168.5 943.877,-168.5"/>
<text text-anchor="middle" x="982.877" y="-175.5" font-family="Helvetica,sans-Serif" font-size="10.00">../mt/d3dUtil.h</text>
</a>
</g>
</g>
<!-- Node2&#45;&gt;Node3 -->
<g id="edge2" class="edge"><title>Node2&#45;&gt;Node3</title>
<path fill="none" stroke="midnightblue" d="M1407.53,-291.488C1357,-283.704 1282.65,-270.981 1218.88,-255 1145.12,-236.519 1060.79,-207.358 1015.59,-191.054"/>
<polygon fill="midnightblue" stroke="midnightblue" points="1016.62,-187.706 1006.03,-187.586 1014.24,-194.286 1016.62,-187.706"/>
</g>
<!-- Node16 -->
<g id="node16" class="node"><title>Node16</title>
<polygon fill="none" stroke="#bfbfbf" points="1410.38,-56.5 1410.38,-75.5 1451.38,-75.5 1451.38,-56.5 1410.38,-56.5"/>
<text text-anchor="middle" x="1430.88" y="-63.5" font-family="Helvetica,sans-Serif" font-size="10.00">string</text>
</g>
<!-- Node2&#45;&gt;Node16 -->
<g id="edge55" class="edge"><title>Node2&#45;&gt;Node16</title>
<path fill="none" stroke="midnightblue" d="M1481.83,-291.474C1493.81,-283.702 1509.75,-271.002 1516.88,-255 1528.87,-228.081 1557.74,-180.827 1515.88,-112 1509.53,-101.561 1482.66,-88.3516 1460.81,-78.9505"/>
<polygon fill="midnightblue" stroke="midnightblue" points="1462.1,-75.6945 1451.52,-75.0484 1459.38,-82.1482 1462.1,-75.6945"/>
</g>
<!-- Node43 -->
<g id="node43" class="node"><title>Node43</title>
<g id="a_node43"><a xlink:href="_upload_buffer_8h.html" target="_top" xlink:title="../mt/UploadBuffer.h">
<polygon fill="none" stroke="black" points="1228.38,-230 1228.38,-249 1331.38,-249 1331.38,-230 1228.38,-230"/>
<text text-anchor="middle" x="1279.88" y="-237" font-family="Helvetica,sans-Serif" font-size="10.00">../mt/UploadBuffer.h</text>
</a>
</g>
</g>
<!-- Node2&#45;&gt;Node43 -->
<g id="edge50" class="edge"><title>Node2&#45;&gt;Node43</title>
<path fill="none" stroke="midnightblue" d="M1440.08,-291.475C1407.59,-281.136 1352.67,-263.661 1316.34,-252.102"/>
<polygon fill="midnightblue" stroke="midnightblue" points="1317.21,-248.706 1306.62,-249.009 1315.09,-255.376 1317.21,-248.706"/>
</g>
<!-- Node44 -->
<g id="node44" class="node"><title>Node44</title>
<g id="a_node44"><a xlink:href="_camera_8hpp.html" target="_top" xlink:title="../mt/Camera.hpp">
<polygon fill="none" stroke="black" points="1415.88,-230 1415.88,-249 1507.88,-249 1507.88,-230 1415.88,-230"/>
<text text-anchor="middle" x="1461.88" y="-237" font-family="Helvetica,sans-Serif" font-size="10.00">../mt/Camera.hpp</text>
</a>
</g>
</g>
<!-- Node2&#45;&gt;Node44 -->
<g id="edge52" class="edge"><title>Node2&#45;&gt;Node44</title>
<path fill="none" stroke="midnightblue" d="M1466.16,-291.475C1465.46,-283.08 1464.35,-269.981 1463.45,-259.163"/>
<polygon fill="midnightblue" stroke="midnightblue" points="1466.92,-258.681 1462.59,-249.009 1459.94,-259.267 1466.92,-258.681"/>
</g>
<!-- Node4 -->
<g id="node4" class="node"><title>Node4</title>
<g id="a_node4"><a xlink:href="utility_8hpp.html" target="_top" xlink:title="../mt/utility.hpp">
<polygon fill="none" stroke="black" points="1643.88,-112.5 1643.88,-131.5 1725.88,-131.5 1725.88,-112.5 1643.88,-112.5"/>
<text text-anchor="middle" x="1684.88" y="-119.5" font-family="Helvetica,sans-Serif" font-size="10.00">../mt/utility.hpp</text>
</a>
</g>
</g>
<!-- Node3&#45;&gt;Node4 -->
<g id="edge3" class="edge"><title>Node3&#45;&gt;Node4</title>
<path fill="none" stroke="midnightblue" d="M1022.12,-173.981C1141.44,-164.803 1499.88,-137.231 1633.73,-126.935"/>
<polygon fill="midnightblue" stroke="midnightblue" points="1634.02,-130.423 1643.72,-126.166 1633.48,-123.443 1634.02,-130.423"/>
</g>
<!-- Node5 -->
<g id="node5" class="node"><title>Node5</title>
<polygon fill="none" stroke="#bfbfbf" points="1181.88,-56.5 1181.88,-75.5 1237.88,-75.5 1237.88,-56.5 1181.88,-56.5"/>
<text text-anchor="middle" x="1209.88" y="-63.5" font-family="Helvetica,sans-Serif" font-size="10.00">algorithm</text>
</g>
<!-- Node3&#45;&gt;Node5 -->
<g id="edge34" class="edge"><title>Node3&#45;&gt;Node5</title>
<path fill="none" stroke="midnightblue" d="M1022.12,-174.323C1078.44,-169.621 1178.05,-157.815 1201.88,-132 1213.07,-119.869 1214.14,-100.591 1212.97,-86.1743"/>
<polygon fill="midnightblue" stroke="midnightblue" points="1216.4,-85.3805 1211.7,-75.8843 1209.45,-86.2376 1216.4,-85.3805"/>
</g>
<!-- Node3&#45;&gt;Node16 -->
<g id="edge32" class="edge"><title>Node3&#45;&gt;Node16</title>
<path fill="none" stroke="midnightblue" d="M1022.19,-177.27C1113.24,-177.185 1335.46,-172.692 1395.88,-132 1411.79,-121.284 1421.06,-100.88 1426.01,-85.7793"/>
<polygon fill="midnightblue" stroke="midnightblue" points="1429.45,-86.5155 1428.89,-75.9351 1422.73,-84.5505 1429.45,-86.5155"/>
</g>
<!-- Node20 -->
<g id="node20" class="node"><title>Node20</title>
<g id="a_node20"><a xlink:href="_math_helper_8h.html" target="_top" xlink:title="../mt/MathHelper.h">
<polygon fill="none" stroke="black" points="1255.88,-56.5 1255.88,-75.5 1353.88,-75.5 1353.88,-56.5 1255.88,-56.5"/>
<text text-anchor="middle" x="1304.88" y="-63.5" font-family="Helvetica,sans-Serif" font-size="10.00">../mt/MathHelper.h</text>
</a>
</g>
</g>
<!-- Node3&#45;&gt;Node20 -->
<g id="edge49" class="edge"><title>Node3&#45;&gt;Node20</title>
<path fill="none" stroke="midnightblue" d="M1022.05,-175.198C1070.65,-171.727 1155.11,-161.586 1220.88,-132 1247.51,-120.018 1273.34,-97.9807 1289.17,-82.9172"/>
<polygon fill="midnightblue" stroke="midnightblue" points="1291.78,-85.2592 1296.49,-75.766 1286.89,-80.2536 1291.78,-85.2592"/>
</g>
<!-- Node22 -->
<g id="node22" class="node"><title>Node22</title>
<polygon fill="none" stroke="#bfbfbf" points="1343.38,-0.5 1343.38,-19.5 1420.38,-19.5 1420.38,-0.5 1343.38,-0.5"/>
<text text-anchor="middle" x="1381.88" y="-7.5" font-family="Helvetica,sans-Serif" font-size="10.00">DirectXMath.h</text>
</g>
<!-- Node3&#45;&gt;Node22 -->
<g id="edge28" class="edge"><title>Node3&#45;&gt;Node22</title>
<path fill="none" stroke="midnightblue" d="M1022.07,-174.162C1075.23,-169.481 1172.68,-157.938 1251.88,-132 1304.39,-114.802 1327.54,-118.476 1362.88,-76 1373.79,-62.8783 1378.44,-43.7333 1380.42,-29.6176"/>
<polygon fill="midnightblue" stroke="midnightblue" points="1383.91,-29.9039 1381.5,-19.5864 1376.95,-29.1537 1383.91,-29.9039"/>
</g>
<!-- Node23 -->
<g id="node23" class="node"><title>Node23</title>
<polygon fill="none" stroke="#bfbfbf" points="1162.88,-0.5 1162.88,-19.5 1208.88,-19.5 1208.88,-0.5 1162.88,-0.5"/>
<text text-anchor="middle" x="1185.88" y="-7.5" font-family="Helvetica,sans-Serif" font-size="10.00">cstdint</text>
</g>
<!-- Node3&#45;&gt;Node23 -->
<g id="edge38" class="edge"><title>Node3&#45;&gt;Node23</title>
<path fill="none" stroke="midnightblue" d="M1022.22,-172.951C1071.12,-167.034 1150.41,-154.237 1168.88,-132 1190.49,-105.978 1167.26,-89.3545 1172.88,-56 1174.38,-47.0789 1177.03,-37.4132 1179.55,-29.3348"/>
<polygon fill="midnightblue" stroke="midnightblue" points="1182.88,-30.4184 1182.68,-19.8255 1176.23,-28.2325 1182.88,-30.4184"/>
</g>
<!-- Node24 -->
<g id="node24" class="node"><title>Node24</title>
<polygon fill="none" stroke="#bfbfbf" points="1743.88,-112.5 1743.88,-131.5 1805.88,-131.5 1805.88,-112.5 1743.88,-112.5"/>
<text text-anchor="middle" x="1774.88" y="-119.5" font-family="Helvetica,sans-Serif" font-size="10.00">windows.h</text>
</g>
<!-- Node3&#45;&gt;Node24 -->
<g id="edge23" class="edge"><title>Node3&#45;&gt;Node24</title>
<path fill="none" stroke="midnightblue" d="M1022.24,-176.879C1132.91,-176.063 1456.2,-170.431 1733.27,-131.998"/>
<polygon fill="midnightblue" stroke="midnightblue" points="1734.11,-135.415 1743.52,-130.558 1733.13,-128.483 1734.11,-135.415"/>
</g>
<!-- Node25 -->
<g id="node25" class="node"><title>Node25</title>
<polygon fill="none" stroke="#bfbfbf" points="941.377,-56.5 941.377,-75.5 978.377,-75.5 978.377,-56.5 941.377,-56.5"/>
<text text-anchor="middle" x="959.877" y="-63.5" font-family="Helvetica,sans-Serif" font-size="10.00">wrl.h</text>
</g>
<!-- Node3&#45;&gt;Node25 -->
<g id="edge24" class="edge"><title>Node3&#45;&gt;Node25</title>
<path fill="none" stroke="midnightblue" d="M983.038,-168.462C983.091,-155.916 982.495,-131.842 977.877,-112 975.732,-102.78 971.996,-92.9734 968.482,-84.876"/>
<polygon fill="midnightblue" stroke="midnightblue" points="971.629,-83.343 964.285,-75.7064 965.264,-86.256 971.629,-83.343"/>
</g>
<!-- Node26 -->
<g id="node26" class="node"><title>Node26</title>
<polygon fill="none" stroke="#bfbfbf" points="1448.38,-112.5 1448.38,-131.5 1507.38,-131.5 1507.38,-112.5 1448.38,-112.5"/>
<text text-anchor="middle" x="1477.88" y="-119.5" font-family="Helvetica,sans-Serif" font-size="10.00">dxgi1_4.h</text>
</g>
<!-- Node3&#45;&gt;Node26 -->
<g id="edge25" class="edge"><title>Node3&#45;&gt;Node26</title>
<path fill="none" stroke="midnightblue" d="M1021.96,-174.453C1100.37,-169.045 1282.37,-154.992 1433.88,-132 1435.32,-131.781 1436.79,-131.545 1438.28,-131.297"/>
<polygon fill="midnightblue" stroke="midnightblue" points="1438.91,-134.739 1448.13,-129.514 1437.67,-127.851 1438.91,-134.739"/>
</g>
<!-- Node27 -->
<g id="node27" class="node"><title>Node27</title>
<polygon fill="none" stroke="#bfbfbf" points="410.377,-0.5 410.377,-19.5 461.377,-19.5 461.377,-0.5 410.377,-0.5"/>
<text text-anchor="middle" x="435.877" y="-7.5" font-family="Helvetica,sans-Serif" font-size="10.00">d3d12.h</text>
</g>
<!-- Node3&#45;&gt;Node27 -->
<g id="edge26" class="edge"><title>Node3&#45;&gt;Node27</title>
<path fill="none" stroke="midnightblue" d="M943.676,-176.687C765.557,-175.079 39.752,-166.425 6.87739,-132 -50.2685,-72.1586 287.426,-27.8586 400.173,-14.8935"/>
<polygon fill="midnightblue" stroke="midnightblue" points="400.819,-18.3426 410.361,-13.7371 400.03,-11.3873 400.819,-18.3426"/>
</g>
<!-- Node28 -->
<g id="node28" class="node"><title>Node28</title>
<polygon fill="none" stroke="#bfbfbf" points="15.8774,-112.5 15.8774,-131.5 95.8774,-131.5 95.8774,-112.5 15.8774,-112.5"/>
<text text-anchor="middle" x="55.8774" y="-119.5" font-family="Helvetica,sans-Serif" font-size="10.00">D3Dcompiler.h</text>
</g>
<!-- Node3&#45;&gt;Node28 -->
<g id="edge27" class="edge"><title>Node3&#45;&gt;Node28</title>
<path fill="none" stroke="midnightblue" d="M943.781,-176.811C821.514,-175.835 435.429,-169.846 106.14,-131.982"/>
<polygon fill="midnightblue" stroke="midnightblue" points="106.262,-128.473 95.9245,-130.795 105.454,-135.426 106.262,-128.473"/>
</g>
<!-- Node29 -->
<g id="node29" class="node"><title>Node29</title>
<polygon fill="none" stroke="#bfbfbf" points="114.377,-112.5 114.377,-131.5 231.377,-131.5 231.377,-112.5 114.377,-112.5"/>
<text text-anchor="middle" x="172.877" y="-119.5" font-family="Helvetica,sans-Serif" font-size="10.00">DirectXPackedVector.h</text>
</g>
<!-- Node3&#45;&gt;Node29 -->
<g id="edge29" class="edge"><title>Node3&#45;&gt;Node29</title>
<path fill="none" stroke="midnightblue" d="M943.727,-175.637C834.382,-171.617 516.27,-158.456 241.829,-132.127"/>
<polygon fill="midnightblue" stroke="midnightblue" points="241.966,-128.624 231.675,-131.145 241.292,-135.592 241.966,-128.624"/>
</g>
<!-- Node30 -->
<g id="node30" class="node"><title>Node30</title>
<polygon fill="none" stroke="#bfbfbf" points="249.377,-112.5 249.377,-131.5 332.377,-131.5 332.377,-112.5 249.377,-112.5"/>
<text text-anchor="middle" x="290.877" y="-119.5" font-family="Helvetica,sans-Serif" font-size="10.00">DirectXColors.h</text>
</g>
<!-- Node3&#45;&gt;Node30 -->
<g id="edge30" class="edge"><title>Node3&#45;&gt;Node30</title>
<path fill="none" stroke="midnightblue" d="M943.719,-175.678C844.779,-172.032 576.601,-160.258 342.633,-131.954"/>
<polygon fill="midnightblue" stroke="midnightblue" points="342.923,-128.463 332.573,-130.724 342.074,-135.412 342.923,-128.463"/>
</g>
<!-- Node31 -->
<g id="node31" class="node"><title>Node31</title>
<polygon fill="none" stroke="#bfbfbf" points="350.877,-112.5 350.877,-131.5 442.877,-131.5 442.877,-112.5 350.877,-112.5"/>
<text text-anchor="middle" x="396.877" y="-119.5" font-family="Helvetica,sans-Serif" font-size="10.00">DirectXCollision.h</text>
</g>
<!-- Node3&#45;&gt;Node31 -->
<g id="edge31" class="edge"><title>Node3&#45;&gt;Node31</title>
<path fill="none" stroke="midnightblue" d="M943.797,-174.731C857.308,-169.485 642.988,-155.254 453.216,-132.076"/>
<polygon fill="midnightblue" stroke="midnightblue" points="453.407,-128.573 443.053,-130.823 452.55,-135.52 453.407,-128.573"/>
</g>
<!-- Node32 -->
<g id="node32" class="node"><title>Node32</title>
<polygon fill="none" stroke="#bfbfbf" points="460.877,-112.5 460.877,-131.5 512.877,-131.5 512.877,-112.5 460.877,-112.5"/>
<text text-anchor="middle" x="486.877" y="-119.5" font-family="Helvetica,sans-Serif" font-size="10.00">memory</text>
</g>
<!-- Node3&#45;&gt;Node32 -->
<g id="edge33" class="edge"><title>Node3&#45;&gt;Node32</title>
<path fill="none" stroke="midnightblue" d="M943.746,-175.221C865.546,-171.228 684.335,-159.777 523.246,-131.988"/>
<polygon fill="midnightblue" stroke="midnightblue" points="523.609,-128.499 513.156,-130.221 522.402,-135.394 523.609,-128.499"/>
</g>
<!-- Node33 -->
<g id="node33" class="node"><title>Node33</title>
<polygon fill="none" stroke="#bfbfbf" points="530.877,-112.5 530.877,-131.5 572.877,-131.5 572.877,-112.5 530.877,-112.5"/>
<text text-anchor="middle" x="551.877" y="-119.5" font-family="Helvetica,sans-Serif" font-size="10.00">vector</text>
</g>
<!-- Node3&#45;&gt;Node33 -->
<g id="edge35" class="edge"><title>Node3&#45;&gt;Node33</title>
<path fill="none" stroke="midnightblue" d="M943.804,-174.952C873.359,-170.756 720.364,-159.345 582.929,-131.875"/>
<polygon fill="midnightblue" stroke="midnightblue" points="583.559,-128.432 573.062,-129.869 582.165,-135.291 583.559,-128.432"/>
</g>
<!-- Node34 -->
<g id="node34" class="node"><title>Node34</title>
<polygon fill="none" stroke="#bfbfbf" points="590.877,-112.5 590.877,-131.5 628.877,-131.5 628.877,-112.5 590.877,-112.5"/>
<text text-anchor="middle" x="609.877" y="-119.5" font-family="Helvetica,sans-Serif" font-size="10.00">array</text>
</g>
<!-- Node3&#45;&gt;Node34 -->
<g id="edge36" class="edge"><title>Node3&#45;&gt;Node34</title>
<path fill="none" stroke="midnightblue" d="M943.671,-174.213C881.069,-169.261 754.64,-157.2 639.103,-131.907"/>
<polygon fill="midnightblue" stroke="midnightblue" points="639.553,-128.421 629.031,-129.662 638.029,-135.254 639.553,-128.421"/>
</g>
<!-- Node35 -->
<g id="node35" class="node"><title>Node35</title>
<polygon fill="none" stroke="#bfbfbf" points="647.377,-112.5 647.377,-131.5 730.377,-131.5 730.377,-112.5 647.377,-112.5"/>
<text text-anchor="middle" x="688.877" y="-119.5" font-family="Helvetica,sans-Serif" font-size="10.00">unordered_map</text>
</g>
<!-- Node3&#45;&gt;Node35 -->
<g id="edge37" class="edge"><title>Node3&#45;&gt;Node35</title>
<path fill="none" stroke="midnightblue" d="M943.836,-169.829C891.527,-160.221 798.568,-143.147 740.516,-132.485"/>
<polygon fill="midnightblue" stroke="midnightblue" points="740.921,-129.001 730.453,-130.636 739.657,-135.885 740.921,-129.001"/>
</g>
<!-- Node36 -->
<g id="node36" class="node"><title>Node36</title>
<polygon fill="none" stroke="#bfbfbf" points="748.377,-112.5 748.377,-131.5 797.377,-131.5 797.377,-112.5 748.377,-112.5"/>
<text text-anchor="middle" x="772.877" y="-119.5" font-family="Helvetica,sans-Serif" font-size="10.00">fstream</text>
</g>
<!-- Node3&#45;&gt;Node36 -->
<g id="edge39" class="edge"><title>Node3&#45;&gt;Node36</title>
<path fill="none" stroke="midnightblue" d="M949.115,-168.458C915.677,-159.977 862.749,-146.502 807.381,-132.114"/>
<polygon fill="midnightblue" stroke="midnightblue" points="807.944,-128.644 797.385,-129.514 806.182,-135.419 807.944,-128.644"/>
</g>
<!-- Node37 -->
<g id="node37" class="node"><title>Node37</title>
<polygon fill="none" stroke="#bfbfbf" points="815.877,-112.5 815.877,-131.5 867.877,-131.5 867.877,-112.5 815.877,-112.5"/>
<text text-anchor="middle" x="841.877" y="-119.5" font-family="Helvetica,sans-Serif" font-size="10.00">sstream</text>
</g>
<!-- Node3&#45;&gt;Node37 -->
<g id="edge40" class="edge"><title>Node3&#45;&gt;Node37</title>
<path fill="none" stroke="midnightblue" d="M960.536,-168.444C937.124,-159.478 900.142,-145.314 873.688,-135.183"/>
<polygon fill="midnightblue" stroke="midnightblue" points="874.705,-131.824 864.115,-131.516 872.202,-138.361 874.705,-131.824"/>
</g>
<!-- Node38 -->
<g id="node38" class="node"><title>Node38</title>
<polygon fill="none" stroke="#bfbfbf" points="886.377,-112.5 886.377,-131.5 935.377,-131.5 935.377,-112.5 886.377,-112.5"/>
<text text-anchor="middle" x="910.877" y="-119.5" font-family="Helvetica,sans-Serif" font-size="10.00">cassert</text>
</g>
<!-- Node3&#45;&gt;Node38 -->
<g id="edge41" class="edge"><title>Node3&#45;&gt;Node38</title>
<path fill="none" stroke="midnightblue" d="M971.309,-168.324C960.457,-160.185 943.997,-147.839 930.994,-138.087"/>
<polygon fill="midnightblue" stroke="midnightblue" points="932.756,-135.034 922.656,-131.834 928.556,-140.634 932.756,-135.034"/>
</g>
<!-- Node39 -->
<g id="node39" class="node"><title>Node39</title>
<g id="a_node39"><a xlink:href="d3dx12_8h.html" target="_top" xlink:title="../mt/d3dx12.h">
<polygon fill="none" stroke="black" points="842.877,-56.5 842.877,-75.5 922.877,-75.5 922.877,-56.5 842.877,-56.5"/>
<text text-anchor="middle" x="882.877" y="-63.5" font-family="Helvetica,sans-Serif" font-size="10.00">../mt/d3dx12.h</text>
</a>
</g>
</g>
<!-- Node3&#45;&gt;Node39 -->
<g id="edge42" class="edge"><title>Node3&#45;&gt;Node39</title>
<path fill="none" stroke="midnightblue" d="M979.024,-168.289C972.904,-155.099 959.989,-129.723 943.877,-112 933.014,-100.05 918.548,-89.2161 906.43,-81.1744"/>
<polygon fill="midnightblue" stroke="midnightblue" points="908.028,-78.0418 897.72,-75.5968 904.254,-83.9369 908.028,-78.0418"/>
</g>
<!-- Node40 -->
<g id="node40" class="node"><title>Node40</title>
<g id="a_node40"><a xlink:href="_d_d_s_texture_loader_8h.html" target="_top" xlink:title="../mt/DDSTextureLoader.h">
<polygon fill="none" stroke="black" points="1029.88,-112.5 1029.88,-131.5 1159.88,-131.5 1159.88,-112.5 1029.88,-112.5"/>
<text text-anchor="middle" x="1094.88" y="-119.5" font-family="Helvetica,sans-Serif" font-size="10.00">../mt/DDSTextureLoader.h</text>
</a>
</g>
</g>
<!-- Node3&#45;&gt;Node40 -->
<g id="edge44" class="edge"><title>Node3&#45;&gt;Node40</title>
<path fill="none" stroke="midnightblue" d="M1000.87,-168.324C1018.92,-159.625 1046.92,-146.12 1067.68,-136.113"/>
<polygon fill="midnightblue" stroke="midnightblue" points="1069.44,-139.15 1076.93,-131.655 1066.4,-132.845 1069.44,-139.15"/>
</g>
<!-- Node4&#45;&gt;Node5 -->
<g id="edge4" class="edge"><title>Node4&#45;&gt;Node5</title>
<path fill="none" stroke="midnightblue" d="M1643.86,-118.657C1567.7,-113.901 1399.15,-101.484 1248.01,-75.9774"/>
<polygon fill="midnightblue" stroke="midnightblue" points="1248.52,-72.5152 1238.08,-74.2784 1247.34,-79.4149 1248.52,-72.5152"/>
</g>
<!-- Node6 -->
<g id="node6" class="node"><title>Node6</title>
<polygon fill="none" stroke="#bfbfbf" points="2196.88,-56.5 2196.88,-75.5 2242.88,-75.5 2242.88,-56.5 2196.88,-56.5"/>
<text text-anchor="middle" x="2219.88" y="-63.5" font-family="Helvetica,sans-Serif" font-size="10.00">chrono</text>
</g>
<!-- Node4&#45;&gt;Node6 -->
<g id="edge5" class="edge"><title>Node4&#45;&gt;Node6</title>
<path fill="none" stroke="midnightblue" d="M1726.03,-113.261C1729.02,-112.801 1731.99,-112.374 1734.88,-112 1931.51,-86.5352 1986.59,-109.885 2186.62,-75.6654"/>
<polygon fill="midnightblue" stroke="midnightblue" points="2187.31,-79.0976 2196.56,-73.9373 2186.11,-72.2009 2187.31,-79.0976"/>
</g>
<!-- Node7 -->
<g id="node7" class="node"><title>Node7</title>
<polygon fill="none" stroke="#bfbfbf" points="1469.88,-56.5 1469.88,-75.5 1513.88,-75.5 1513.88,-56.5 1469.88,-56.5"/>
<text text-anchor="middle" x="1491.88" y="-63.5" font-family="Helvetica,sans-Serif" font-size="10.00">cmath</text>
</g>
<!-- Node4&#45;&gt;Node7 -->
<g id="edge6" class="edge"><title>Node4&#45;&gt;Node7</title>
<path fill="none" stroke="midnightblue" d="M1653.79,-112.48C1623.13,-104.052 1574.68,-90.6664 1523.76,-76.227"/>
<polygon fill="midnightblue" stroke="midnightblue" points="1524.46,-72.7881 1513.88,-73.4231 1522.55,-79.5219 1524.46,-72.7881"/>
</g>
<!-- Node8 -->
<g id="node8" class="node"><title>Node8</title>
<polygon fill="none" stroke="#bfbfbf" points="1532.38,-56.5 1532.38,-75.5 1581.38,-75.5 1581.38,-56.5 1532.38,-56.5"/>
<text text-anchor="middle" x="1556.88" y="-63.5" font-family="Helvetica,sans-Serif" font-size="10.00">cstdarg</text>
</g>
<!-- Node4&#45;&gt;Node8 -->
<g id="edge7" class="edge"><title>Node4&#45;&gt;Node8</title>
<path fill="none" stroke="midnightblue" d="M1664.6,-112.444C1643.53,-103.557 1610.36,-89.5632 1586.39,-79.4514"/>
<polygon fill="midnightblue" stroke="midnightblue" points="1587.64,-76.1787 1577.06,-75.5164 1584.92,-82.6283 1587.64,-76.1787"/>
</g>
<!-- Node9 -->
<g id="node9" class="node"><title>Node9</title>
<polygon fill="none" stroke="#bfbfbf" points="1599.38,-56.5 1599.38,-75.5 1642.38,-75.5 1642.38,-56.5 1599.38,-56.5"/>
<text text-anchor="middle" x="1620.88" y="-63.5" font-family="Helvetica,sans-Serif" font-size="10.00">deque</text>
</g>
<!-- Node4&#45;&gt;Node9 -->
<g id="edge8" class="edge"><title>Node4&#45;&gt;Node9</title>
<path fill="none" stroke="midnightblue" d="M1674.59,-112.324C1665.04,-104.263 1650.6,-92.0765 1639.09,-82.3695"/>
<polygon fill="midnightblue" stroke="midnightblue" points="1641.25,-79.6076 1631.35,-75.8339 1636.73,-84.9577 1641.25,-79.6076"/>
</g>
<!-- Node10 -->
<g id="node10" class="node"><title>Node10</title>
<polygon fill="none" stroke="#bfbfbf" points="1660.38,-56.5 1660.38,-75.5 1721.38,-75.5 1721.38,-56.5 1660.38,-56.5"/>
<text text-anchor="middle" x="1690.88" y="-63.5" font-family="Helvetica,sans-Serif" font-size="10.00">filesystem</text>
</g>
<!-- Node4&#45;&gt;Node10 -->
<g id="edge9" class="edge"><title>Node4&#45;&gt;Node10</title>
<path fill="none" stroke="midnightblue" d="M1685.87,-112.083C1686.66,-104.927 1687.81,-94.6353 1688.8,-85.6911"/>
<polygon fill="midnightblue" stroke="midnightblue" points="1692.28,-86.0765 1689.91,-75.7511 1685.32,-85.3034 1692.28,-86.0765"/>
</g>
<!-- Node11 -->
<g id="node11" class="node"><title>Node11</title>
<polygon fill="none" stroke="#bfbfbf" points="1739.38,-56.5 1739.38,-75.5 1768.38,-75.5 1768.38,-56.5 1739.38,-56.5"/>
<text text-anchor="middle" x="1753.88" y="-63.5" font-family="Helvetica,sans-Serif" font-size="10.00">list</text>
</g>
<!-- Node4&#45;&gt;Node11 -->
<g id="edge10" class="edge"><title>Node4&#45;&gt;Node11</title>
<path fill="none" stroke="midnightblue" d="M1695.96,-112.324C1706.36,-104.185 1722.14,-91.8395 1734.6,-82.0874"/>
<polygon fill="midnightblue" stroke="midnightblue" points="1736.87,-84.7533 1742.59,-75.8339 1732.56,-79.2407 1736.87,-84.7533"/>
</g>
<!-- Node12 -->
<g id="node12" class="node"><title>Node12</title>
<polygon fill="none" stroke="#bfbfbf" points="1786.38,-56.5 1786.38,-75.5 1821.38,-75.5 1821.38,-56.5 1786.38,-56.5"/>
<text text-anchor="middle" x="1803.88" y="-63.5" font-family="Helvetica,sans-Serif" font-size="10.00">map</text>
</g>
<!-- Node4&#45;&gt;Node12 -->
<g id="edge11" class="edge"><title>Node4&#45;&gt;Node12</title>
<path fill="none" stroke="midnightblue" d="M1703.73,-112.444C1723.49,-103.48 1754.69,-89.3221 1777.01,-79.1914"/>
<polygon fill="midnightblue" stroke="midnightblue" points="1778.61,-82.3078 1786.27,-74.9883 1775.72,-75.9334 1778.61,-82.3078"/>
</g>
<!-- Node13 -->
<g id="node13" class="node"><title>Node13</title>
<polygon fill="none" stroke="#bfbfbf" points="2135.38,-56.5 2135.38,-75.5 2178.38,-75.5 2178.38,-56.5 2135.38,-56.5"/>
<text text-anchor="middle" x="2156.88" y="-63.5" font-family="Helvetica,sans-Serif" font-size="10.00">queue</text>
</g>
<!-- Node4&#45;&gt;Node13 -->
<g id="edge12" class="edge"><title>Node4&#45;&gt;Node13</title>
<path fill="none" stroke="midnightblue" d="M1726.03,-113.302C1729.02,-112.832 1731.99,-112.392 1734.88,-112 1904.59,-88.9561 1952.64,-107.75 2125.39,-75.7"/>
<polygon fill="midnightblue" stroke="midnightblue" points="2126.15,-79.1194 2135.32,-73.827 2124.85,-72.2406 2126.15,-79.1194"/>
</g>
<!-- Node14 -->
<g id="node14" class="node"><title>Node14</title>
<polygon fill="none" stroke="#bfbfbf" points="1839.38,-56.5 1839.38,-75.5 1874.38,-75.5 1874.38,-56.5 1839.38,-56.5"/>
<text text-anchor="middle" x="1856.88" y="-63.5" font-family="Helvetica,sans-Serif" font-size="10.00">ratio</text>
</g>
<!-- Node4&#45;&gt;Node14 -->
<g id="edge13" class="edge"><title>Node4&#45;&gt;Node14</title>
<path fill="none" stroke="midnightblue" d="M1713,-112.462C1740.37,-104.112 1783.36,-90.8855 1829.58,-76.0476"/>
<polygon fill="midnightblue" stroke="midnightblue" points="1830.73,-79.3548 1839.18,-72.9591 1828.58,-72.6915 1830.73,-79.3548"/>
</g>
<!-- Node15 -->
<g id="node15" class="node"><title>Node15</title>
<polygon fill="none" stroke="#bfbfbf" points="1892.88,-56.5 1892.88,-75.5 1922.88,-75.5 1922.88,-56.5 1892.88,-56.5"/>
<text text-anchor="middle" x="1907.88" y="-63.5" font-family="Helvetica,sans-Serif" font-size="10.00">set</text>
</g>
<!-- Node4&#45;&gt;Node15 -->
<g id="edge14" class="edge"><title>Node4&#45;&gt;Node15</title>
<path fill="none" stroke="midnightblue" d="M1726.21,-113.139C1766.53,-105.111 1829.42,-91.6339 1882.88,-76 1882.98,-75.9709 1883.08,-75.9415 1883.18,-75.9121"/>
<polygon fill="midnightblue" stroke="midnightblue" points="1884.22,-79.2533 1892.64,-72.8199 1882.05,-72.5996 1884.22,-79.2533"/>
</g>
<!-- Node4&#45;&gt;Node16 -->
<g id="edge15" class="edge"><title>Node4&#45;&gt;Node16</title>
<path fill="none" stroke="midnightblue" d="M1643.75,-113.925C1600.65,-106.249 1530.81,-93.0697 1461.27,-75.9003"/>
<polygon fill="midnightblue" stroke="midnightblue" points="1462.01,-72.4784 1451.46,-73.4513 1460.32,-79.2699 1462.01,-72.4784"/>
</g>
<!-- Node17 -->
<g id="node17" class="node"><title>Node17</title>
<polygon fill="none" stroke="#bfbfbf" points="1940.88,-56.5 1940.88,-75.5 2002.88,-75.5 2002.88,-56.5 1940.88,-56.5"/>
<text text-anchor="middle" x="1971.88" y="-63.5" font-family="Helvetica,sans-Serif" font-size="10.00">type_traits</text>
</g>
<!-- Node4&#45;&gt;Node17 -->
<g id="edge16" class="edge"><title>Node4&#45;&gt;Node17</title>
<path fill="none" stroke="midnightblue" d="M1725.99,-113.606C1784.99,-102.981 1890.28,-83.9659 1930.41,-76.19"/>
<polygon fill="midnightblue" stroke="midnightblue" points="1931.33,-79.5748 1940.46,-74.1968 1929.97,-72.7084 1931.33,-79.5748"/>
</g>
<!-- Node18 -->
<g id="node18" class="node"><title>Node18</title>
<polygon fill="none" stroke="#bfbfbf" points="2020.88,-56.5 2020.88,-75.5 2058.88,-75.5 2058.88,-56.5 2020.88,-56.5"/>
<text text-anchor="middle" x="2039.88" y="-63.5" font-family="Helvetica,sans-Serif" font-size="10.00">tuple</text>
</g>
<!-- Node4&#45;&gt;Node18 -->
<g id="edge17" class="edge"><title>Node4&#45;&gt;Node18</title>
<path fill="none" stroke="midnightblue" d="M1726.05,-113.424C1729.04,-112.926 1732,-112.446 1734.88,-112 1854.33,-93.4989 1888.92,-102.594 2010.64,-75.9108"/>
<polygon fill="midnightblue" stroke="midnightblue" points="2011.73,-79.2548 2020.72,-73.6629 2010.2,-72.4225 2011.73,-79.2548"/>
</g>
<!-- Node19 -->
<g id="node19" class="node"><title>Node19</title>
<polygon fill="none" stroke="#bfbfbf" points="2076.88,-56.5 2076.88,-75.5 2116.88,-75.5 2116.88,-56.5 2076.88,-56.5"/>
<text text-anchor="middle" x="2096.88" y="-63.5" font-family="Helvetica,sans-Serif" font-size="10.00">utility</text>
</g>
<!-- Node4&#45;&gt;Node19 -->
<g id="edge18" class="edge"><title>Node4&#45;&gt;Node19</title>
<path fill="none" stroke="midnightblue" d="M1726.04,-113.354C1729.03,-112.872 1732,-112.414 1734.88,-112 1879.06,-91.2566 1920.35,-105.557 2066.92,-75.8228"/>
<polygon fill="midnightblue" stroke="midnightblue" points="2067.64,-79.2477 2076.73,-73.7997 2066.23,-72.392 2067.64,-79.2477"/>
</g>
<!-- Node4&#45;&gt;Node20 -->
<g id="edge19" class="edge"><title>Node4&#45;&gt;Node20</title>
<path fill="none" stroke="midnightblue" d="M1643.85,-115.17C1576.44,-105.591 1442,-86.486 1364.22,-75.4323"/>
<polygon fill="midnightblue" stroke="midnightblue" points="1364.49,-71.9355 1354.09,-73.9937 1363.5,-78.8659 1364.49,-71.9355"/>
</g>
<!-- Node21 -->
<g id="node21" class="node"><title>Node21</title>
<polygon fill="none" stroke="#bfbfbf" points="1260.38,-0.5 1260.38,-19.5 1325.38,-19.5 1325.38,-0.5 1260.38,-0.5"/>
<text text-anchor="middle" x="1292.88" y="-7.5" font-family="Helvetica,sans-Serif" font-size="10.00">Windows.h</text>
</g>
<!-- Node20&#45;&gt;Node21 -->
<g id="edge20" class="edge"><title>Node20&#45;&gt;Node21</title>
<path fill="none" stroke="midnightblue" d="M1302.9,-56.083C1301.31,-48.9272 1299.02,-38.6353 1297.03,-29.6911"/>
<polygon fill="midnightblue" stroke="midnightblue" points="1300.41,-28.7537 1294.82,-19.7511 1293.57,-30.2722 1300.41,-28.7537"/>
</g>
<!-- Node20&#45;&gt;Node22 -->
<g id="edge21" class="edge"><title>Node20&#45;&gt;Node22</title>
<path fill="none" stroke="midnightblue" d="M1317.25,-56.324C1329.04,-48.0577 1347.01,-35.4527 1361.01,-25.6322"/>
<polygon fill="midnightblue" stroke="midnightblue" points="1363.36,-28.2619 1369.54,-19.6545 1359.34,-22.5307 1363.36,-28.2619"/>
</g>
<!-- Node20&#45;&gt;Node23 -->
<g id="edge22" class="edge"><title>Node20&#45;&gt;Node23</title>
<path fill="none" stroke="midnightblue" d="M1286.02,-56.4435C1266.61,-47.6356 1236.15,-33.8116 1213.91,-23.722"/>
<polygon fill="midnightblue" stroke="midnightblue" points="1215.2,-20.4615 1204.65,-19.5164 1212.31,-26.836 1215.2,-20.4615"/>
</g>
<!-- Node39&#45;&gt;Node27 -->
<g id="edge43" class="edge"><title>Node39&#45;&gt;Node27</title>
<path fill="none" stroke="midnightblue" d="M842.816,-60.1603C756.491,-49.7318 554.089,-25.2806 471.71,-15.3287"/>
<polygon fill="midnightblue" stroke="midnightblue" points="471.936,-11.8307 461.588,-14.106 471.096,-18.7802 471.936,-11.8307"/>
</g>
<!-- Node40&#45;&gt;Node25 -->
<g id="edge45" class="edge"><title>Node40&#45;&gt;Node25</title>
<path fill="none" stroke="midnightblue" d="M1073.49,-112.444C1050.38,-103.202 1013.47,-88.4385 988.028,-78.2603"/>
<polygon fill="midnightblue" stroke="midnightblue" points="989.145,-74.9373 978.56,-74.473 986.545,-81.4367 989.145,-74.9373"/>
</g>
<!-- Node40&#45;&gt;Node39 -->
<g id="edge47" class="edge"><title>Node40&#45;&gt;Node39</title>
<path fill="none" stroke="midnightblue" d="M1061.29,-112.444C1024.69,-103.122 966.039,-88.1828 926.052,-77.9972"/>
<polygon fill="midnightblue" stroke="midnightblue" points="926.867,-74.5932 916.312,-75.5164 925.139,-81.3766 926.867,-74.5932"/>
</g>
<!-- Node41 -->
<g id="node41" class="node"><title>Node41</title>
<polygon fill="none" stroke="#bfbfbf" points="1063.88,-56.5 1063.88,-75.5 1125.88,-75.5 1125.88,-56.5 1063.88,-56.5"/>
<text text-anchor="middle" x="1094.88" y="-63.5" font-family="Helvetica,sans-Serif" font-size="10.00">d3d11_1.h</text>
</g>
<!-- Node40&#45;&gt;Node41 -->
<g id="edge46" class="edge"><title>Node40&#45;&gt;Node41</title>
<path fill="none" stroke="midnightblue" d="M1094.88,-112.083C1094.88,-105.006 1094.88,-94.8611 1094.88,-85.9865"/>
<polygon fill="midnightblue" stroke="midnightblue" points="1098.38,-85.751 1094.88,-75.7511 1091.38,-85.7511 1098.38,-85.751"/>
</g>
<!-- Node42 -->
<g id="node42" class="node"><title>Node42</title>
<polygon fill="none" stroke="#bfbfbf" points="996.377,-56.5 996.377,-75.5 1045.38,-75.5 1045.38,-56.5 996.377,-56.5"/>
<text text-anchor="middle" x="1020.88" y="-63.5" font-family="Helvetica,sans-Serif" font-size="10.00">stdint.h</text>
</g>
<!-- Node40&#45;&gt;Node42 -->
<g id="edge48" class="edge"><title>Node40&#45;&gt;Node42</title>
<path fill="none" stroke="midnightblue" d="M1082.99,-112.324C1071.73,-104.107 1054.59,-91.6017 1041.17,-81.8069"/>
<polygon fill="midnightblue" stroke="midnightblue" points="1043.12,-78.9014 1032.98,-75.8339 1039,-84.5559 1043.12,-78.9014"/>
</g>
<!-- Node43&#45;&gt;Node3 -->
<g id="edge51" class="edge"><title>Node43&#45;&gt;Node3</title>
<path fill="none" stroke="midnightblue" d="M1237.32,-229.975C1183,-219.093 1089.22,-200.304 1031.94,-188.829"/>
<polygon fill="midnightblue" stroke="midnightblue" points="1032.53,-185.378 1022.04,-186.845 1031.15,-192.241 1032.53,-185.378"/>
</g>
<!-- Node44&#45;&gt;Node3 -->
<g id="edge54" class="edge"><title>Node44&#45;&gt;Node3</title>
<path fill="none" stroke="midnightblue" d="M1415.51,-232.741C1324.88,-221.482 1124.98,-196.651 1032.1,-185.114"/>
<polygon fill="midnightblue" stroke="midnightblue" points="1032.47,-181.634 1022.12,-183.874 1031.61,-188.58 1032.47,-181.634"/>
</g>
<!-- Node44&#45;&gt;Node4 -->
<g id="edge53" class="edge"><title>Node44&#45;&gt;Node4</title>
<path fill="none" stroke="midnightblue" d="M1478.64,-229.819C1517.32,-209.786 1613.01,-160.222 1659.17,-136.316"/>
<polygon fill="midnightblue" stroke="midnightblue" points="1660.96,-139.331 1668.23,-131.624 1657.74,-133.116 1660.96,-139.331"/>
</g>
<!-- Node45&#45;&gt;Node2 -->
<g id="edge60" class="edge"><title>Node45&#45;&gt;Node2</title>
<path fill="none" stroke="midnightblue" d="M1600.68,-347.444C1573.93,-338.359 1531.47,-323.939 1501.57,-313.783"/>
<polygon fill="midnightblue" stroke="midnightblue" points="1502.55,-310.418 1491.95,-310.516 1500.3,-317.046 1502.55,-310.418"/>
</g>
<!-- Node46 -->
<g id="node46" class="node"><title>Node46</title>
<g id="a_node46"><a xlink:href="_game_timer_8hpp.html" target="_top" xlink:title="../mt/GameTimer.hpp">
<polygon fill="none" stroke="black" points="2102.38,-112.5 2102.38,-131.5 2211.38,-131.5 2211.38,-112.5 2102.38,-112.5"/>
<text text-anchor="middle" x="2156.88" y="-119.5" font-family="Helvetica,sans-Serif" font-size="10.00">../mt/GameTimer.hpp</text>
</a>
</g>
</g>
<!-- Node45&#45;&gt;Node46 -->
<g id="edge57" class="edge"><title>Node45&#45;&gt;Node46</title>
<path fill="none" stroke="midnightblue" d="M1645.41,-347.431C1725.91,-312.105 2032.33,-177.653 2128.1,-135.629"/>
<polygon fill="midnightblue" stroke="midnightblue" points="2129.7,-138.747 2137.45,-131.524 2126.89,-132.337 2129.7,-138.747"/>
</g>
<!-- Node47 -->
<g id="node47" class="node"><title>Node47</title>
<g id="a_node47"><a xlink:href="_windows_message_handling_service_8hpp.html" target="_top" xlink:title="../mt/WindowsMessageHandling\lService.hpp">
<polygon fill="none" stroke="black" points="1654.38,-224.5 1654.38,-254.5 1811.38,-254.5 1811.38,-224.5 1654.38,-224.5"/>
<text text-anchor="start" x="1662.38" y="-242.5" font-family="Helvetica,sans-Serif" font-size="10.00">../mt/WindowsMessageHandling</text>
<text text-anchor="middle" x="1732.88" y="-231.5" font-family="Helvetica,sans-Serif" font-size="10.00">Service.hpp</text>
</a>
</g>
</g>
<!-- Node45&#45;&gt;Node47 -->
<g id="edge61" class="edge"><title>Node45&#45;&gt;Node47</title>
<path fill="none" stroke="midnightblue" d="M1646.67,-347.422C1662.91,-339.85 1685.12,-327.454 1699.88,-311 1711.86,-297.643 1720.29,-279.177 1725.63,-264.494"/>
<polygon fill="midnightblue" stroke="midnightblue" points="1729.09,-265.193 1728.98,-254.599 1722.46,-262.949 1729.09,-265.193"/>
</g>
<!-- Node50 -->
<g id="node50" class="node"><title>Node50</title>
<g id="a_node50"><a xlink:href="_command_queue_8hpp.html" target="_top" xlink:title="../mt/CommandQueue.hpp">
<polygon fill="none" stroke="black" points="1560.38,-291.5 1560.38,-310.5 1691.38,-310.5 1691.38,-291.5 1560.38,-291.5"/>
<text text-anchor="middle" x="1625.88" y="-298.5" font-family="Helvetica,sans-Serif" font-size="10.00">../mt/CommandQueue.hpp</text>
</a>
</g>
</g>
<!-- Node45&#45;&gt;Node50 -->
<g id="edge66" class="edge"><title>Node45&#45;&gt;Node50</title>
<path fill="none" stroke="midnightblue" d="M1625.88,-347.083C1625.88,-340.006 1625.88,-329.861 1625.88,-320.986"/>
<polygon fill="midnightblue" stroke="midnightblue" points="1629.38,-320.751 1625.88,-310.751 1622.38,-320.751 1629.38,-320.751"/>
</g>
<!-- Node46&#45;&gt;Node6 -->
<g id="edge58" class="edge"><title>Node46&#45;&gt;Node6</title>
<path fill="none" stroke="midnightblue" d="M2167,-112.324C2176.4,-104.263 2190.62,-92.0765 2201.95,-82.3695"/>
<polygon fill="midnightblue" stroke="midnightblue" points="2204.26,-84.9993 2209.57,-75.8339 2199.7,-79.6844 2204.26,-84.9993"/>
</g>
<!-- Node46&#45;&gt;Node13 -->
<g id="edge59" class="edge"><title>Node46&#45;&gt;Node13</title>
<path fill="none" stroke="midnightblue" d="M2156.88,-112.083C2156.88,-105.006 2156.88,-94.8611 2156.88,-85.9865"/>
<polygon fill="midnightblue" stroke="midnightblue" points="2160.38,-85.751 2156.88,-75.7511 2153.38,-85.7511 2160.38,-85.751"/>
</g>
<!-- Node47&#45;&gt;Node4 -->
<g id="edge62" class="edge"><title>Node47&#45;&gt;Node4</title>
<path fill="none" stroke="midnightblue" d="M1723.56,-224.384C1717.35,-214.507 1709.35,-200.835 1703.88,-188 1697.4,-172.79 1692.3,-154.677 1689.03,-141.439"/>
<polygon fill="midnightblue" stroke="midnightblue" points="1692.42,-140.566 1686.71,-131.637 1685.6,-142.174 1692.42,-140.566"/>
</g>
<!-- Node48 -->
<g id="node48" class="node"><title>Node48</title>
<g id="a_node48"><a xlink:href="_windows_message_handler_8hpp.html" target="_top" xlink:title="../mt/WindowsMessageHandler.hpp">
<polygon fill="none" stroke="black" points="1713.38,-168.5 1713.38,-187.5 1884.38,-187.5 1884.38,-168.5 1713.38,-168.5"/>
<text text-anchor="middle" x="1798.88" y="-175.5" font-family="Helvetica,sans-Serif" font-size="10.00">../mt/WindowsMessageHandler.hpp</text>
</a>
</g>
</g>
<!-- Node47&#45;&gt;Node48 -->
<g id="edge63" class="edge"><title>Node47&#45;&gt;Node48</title>
<path fill="none" stroke="midnightblue" d="M1748.52,-224.399C1758.5,-215.397 1771.46,-203.721 1781.72,-194.465"/>
<polygon fill="midnightblue" stroke="midnightblue" points="1784.19,-196.953 1789.27,-187.658 1779.5,-191.754 1784.19,-196.953"/>
</g>
<!-- Node48&#45;&gt;Node24 -->
<g id="edge64" class="edge"><title>Node48&#45;&gt;Node24</title>
<path fill="none" stroke="midnightblue" d="M1794.91,-168.083C1791.66,-160.77 1786.96,-150.181 1782.92,-141.103"/>
<polygon fill="midnightblue" stroke="midnightblue" points="1786.03,-139.468 1778.77,-131.751 1779.63,-142.311 1786.03,-139.468"/>
</g>
<!-- Node49 -->
<g id="node49" class="node"><title>Node49</title>
<polygon fill="none" stroke="#bfbfbf" points="1823.88,-112.5 1823.88,-131.5 1893.88,-131.5 1893.88,-112.5 1823.88,-112.5"/>
<text text-anchor="middle" x="1858.88" y="-119.5" font-family="Helvetica,sans-Serif" font-size="10.00">WindowsX.h</text>
</g>
<!-- Node48&#45;&gt;Node49 -->
<g id="edge65" class="edge"><title>Node48&#45;&gt;Node49</title>
<path fill="none" stroke="midnightblue" d="M1808.52,-168.324C1817.39,-160.341 1830.75,-148.313 1841.49,-138.653"/>
<polygon fill="midnightblue" stroke="midnightblue" points="1843.97,-141.125 1849.06,-131.834 1839.29,-135.922 1843.97,-141.125"/>
</g>
<!-- Node50&#45;&gt;Node4 -->
<g id="edge67" class="edge"><title>Node50&#45;&gt;Node4</title>
<path fill="none" stroke="midnightblue" d="M1627.63,-291.462C1630.61,-277.29 1637.14,-248.083 1644.88,-224 1654.42,-194.322 1668.31,-160.862 1676.96,-140.877"/>
<polygon fill="midnightblue" stroke="midnightblue" points="1680.26,-142.072 1681.06,-131.507 1673.85,-139.266 1680.26,-142.072"/>
</g>
</g>
</svg>
