<?xml version="1.0" encoding="UTF-8" standalone="no"?>
<!DOCTYPE svg PUBLIC "-//W3C//DTD SVG 1.1//EN"
 "http://www.w3.org/Graphics/SVG/1.1/DTD/svg11.dtd">
<!-- Generated by graphviz version 2.38.0 (20140413.2041)
 -->
<!-- Title: C:/Users/micho/Desktop/mt_engine/mt/DirectXRenderer.hpp Pages: 1 -->
<!--zoomable 319 -->
<svg id="main" version="1.1" xmlns="http://www.w3.org/2000/svg" xmlns:xlink="http://www.w3.org/1999/xlink" xml:space="preserve" onload="init(evt)">
<style type="text/css"><![CDATA[
.edge:hover path { stroke: red; }
.edge:hover polygon { stroke: red; fill: red; }
]]></style>
<script type="text/javascript"><![CDATA[
var edges = document.getElementsByTagName('g');
if (edges && edges.length) {
  for (var i=0;i<edges.length;i++) {
    if (edges[i].id.substr(0,4)=='edge') {
      edges[i].setAttribute('class','edge');
    }
  }
}
]]></script>
        <defs>
                <circle id="rim" cx="0" cy="0" r="7"/>
                <circle id="rim2" cx="0" cy="0" r="3.5"/>
                <g id="zoomPlus">
                        <use xlink:href="#rim" fill="#404040">
                                <set attributeName="fill" to="#808080" begin="zoomplus.mouseover" end="zoomplus.mouseout"/>
                        </use>
                        <path d="M-4,0h8M0,-4v8" fill="none" stroke="white" stroke-width="1.5" pointer-events="none"/>
                </g>
                <g id="zoomMin">
                        <use xlink:href="#rim" fill="#404040">
                                <set attributeName="fill" to="#808080" begin="zoomminus.mouseover" end="zoomminus.mouseout"/>
                        </use>
                        <path d="M-4,0h8" fill="none" stroke="white" stroke-width="1.5" pointer-events="none"/>
                </g>
                <g id="dirArrow">
                        <path fill="none" stroke="white" stroke-width="1.5" d="M0,-3.0v7 M-2.5,-0.5L0,-3.0L2.5,-0.5"/>
                </g>
               <g id="resetDef">
                       <use xlink:href="#rim2" fill="#404040">
                               <set attributeName="fill" to="#808080" begin="reset.mouseover" end="reset.mouseout"/>
                       </use>
               </g>
        </defs>

<script type="text/javascript">
var viewWidth = 2368;
var viewHeight = 319;
var sectionId = 'dynsection-0';
</script>
<script xlink:href="svgpan.js"/>
<svg id="graph" class="graph">
<g id="viewport">
<title>C:/Users/micho/Desktop/mt_engine/mt/DirectXRenderer.hpp</title>
<!-- Node1 -->
<g id="node1" class="node"><title>Node1</title>
<polygon fill="#bfbfbf" stroke="black" points="1328.5,-280.5 1328.5,-310.5 1498.5,-310.5 1498.5,-280.5 1328.5,-280.5"/>
<text text-anchor="start" x="1336.5" y="-298.5" font-family="Helvetica,sans-Serif" font-size="10.00">C:/Users/micho/Desktop</text>
<text text-anchor="middle" x="1413.5" y="-287.5" font-family="Helvetica,sans-Serif" font-size="10.00">/mt_engine/mt/DirectXRenderer.hpp</text>
</g>
<!-- Node2 -->
<g id="node2" class="node"><title>Node2</title>
<g id="a_node2"><a xlink:href="d3d_util_8h.html" target="_top" xlink:title="../mt/d3dUtil.h">
<polygon fill="none" stroke="black" points="1491.5,-168.5 1491.5,-187.5 1569.5,-187.5 1569.5,-168.5 1491.5,-168.5"/>
<text text-anchor="middle" x="1530.5" y="-175.5" font-family="Helvetica,sans-Serif" font-size="10.00">../mt/d3dUtil.h</text>
</a>
</g>
</g>
<!-- Node1&#45;&gt;Node2 -->
<g id="edge1" class="edge"><title>Node1&#45;&gt;Node2</title>
<path fill="none" stroke="midnightblue" d="M1423.04,-280.352C1433.48,-265.436 1451.17,-241.692 1469.5,-224 1481.27,-212.64 1496,-201.702 1508.03,-193.454"/>
<polygon fill="midnightblue" stroke="midnightblue" points="1510.25,-196.18 1516.61,-187.709 1506.35,-190.363 1510.25,-196.18"/>
</g>
<!-- Node15 -->
<g id="node15" class="node"><title>Node15</title>
<polygon fill="none" stroke="#bfbfbf" points="0,-56.5 0,-75.5 41,-75.5 41,-56.5 0,-56.5"/>
<text text-anchor="middle" x="20.5" y="-63.5" font-family="Helvetica,sans-Serif" font-size="10.00">string</text>
</g>
<!-- Node1&#45;&gt;Node15 -->
<g id="edge54" class="edge"><title>Node1&#45;&gt;Node15</title>
<path fill="none" stroke="midnightblue" d="M1328.36,-286.008C1136.64,-266.12 656.931,-212.066 261.5,-132 184.859,-116.482 96.5248,-90.5461 51.059,-76.5885"/>
<polygon fill="midnightblue" stroke="midnightblue" points="51.828,-73.163 41.2404,-73.5555 49.7619,-79.8511 51.828,-73.163"/>
</g>
<!-- Node42 -->
<g id="node42" class="node"><title>Node42</title>
<g id="a_node42"><a xlink:href="_upload_buffer_8h.html" target="_top" xlink:title="../mt/UploadBuffer.h">
<polygon fill="none" stroke="black" points="1479,-224.5 1479,-243.5 1582,-243.5 1582,-224.5 1479,-224.5"/>
<text text-anchor="middle" x="1530.5" y="-231.5" font-family="Helvetica,sans-Serif" font-size="10.00">../mt/UploadBuffer.h</text>
</a>
</g>
</g>
<!-- Node1&#45;&gt;Node42 -->
<g id="edge49" class="edge"><title>Node1&#45;&gt;Node42</title>
<path fill="none" stroke="midnightblue" d="M1441.23,-280.399C1460.33,-270.684 1485.56,-257.855 1504.32,-248.314"/>
<polygon fill="midnightblue" stroke="midnightblue" points="1506.15,-251.311 1513.48,-243.658 1502.98,-245.071 1506.15,-251.311"/>
</g>
<!-- Node43 -->
<g id="node43" class="node"><title>Node43</title>
<g id="a_node43"><a xlink:href="_camera_8hpp.html" target="_top" xlink:title="../mt/Camera.hpp">
<polygon fill="none" stroke="black" points="1330.5,-224.5 1330.5,-243.5 1422.5,-243.5 1422.5,-224.5 1330.5,-224.5"/>
<text text-anchor="middle" x="1376.5" y="-231.5" font-family="Helvetica,sans-Serif" font-size="10.00">../mt/Camera.hpp</text>
</a>
</g>
</g>
<!-- Node1&#45;&gt;Node43 -->
<g id="edge51" class="edge"><title>Node1&#45;&gt;Node43</title>
<path fill="none" stroke="midnightblue" d="M1404.73,-280.399C1399.52,-272.021 1392.87,-261.327 1387.33,-252.423"/>
<polygon fill="midnightblue" stroke="midnightblue" points="1390.14,-250.302 1381.88,-243.658 1384.19,-253.998 1390.14,-250.302"/>
</g>
<!-- Node3 -->
<g id="node3" class="node"><title>Node3</title>
<g id="a_node3"><a xlink:href="utility_8hpp.html" target="_top" xlink:title="../mt/utility.hpp">
<polygon fill="none" stroke="black" points="505.5,-112.5 505.5,-131.5 587.5,-131.5 587.5,-112.5 505.5,-112.5"/>
<text text-anchor="middle" x="546.5" y="-119.5" font-family="Helvetica,sans-Serif" font-size="10.00">../mt/utility.hpp</text>
</a>
</g>
</g>
<!-- Node2&#45;&gt;Node3 -->
<g id="edge2" class="edge"><title>Node2&#45;&gt;Node3</title>
<path fill="none" stroke="midnightblue" d="M1491.32,-174.85C1337.1,-166.387 771.911,-135.37 597.862,-125.819"/>
<polygon fill="midnightblue" stroke="midnightblue" points="597.869,-122.314 587.692,-125.261 597.486,-129.303 597.869,-122.314"/>
</g>
<!-- Node4 -->
<g id="node4" class="node"><title>Node4</title>
<polygon fill="none" stroke="#bfbfbf" points="849.5,-56.5 849.5,-75.5 905.5,-75.5 905.5,-56.5 849.5,-56.5"/>
<text text-anchor="middle" x="877.5" y="-63.5" font-family="Helvetica,sans-Serif" font-size="10.00">algorithm</text>
</g>
<!-- Node2&#45;&gt;Node4 -->
<g id="edge33" class="edge"><title>Node2&#45;&gt;Node4</title>
<path fill="none" stroke="midnightblue" d="M1491.35,-175.851C1366.03,-171.927 980.05,-157.847 930.5,-132 910.591,-121.615 895.435,-100.153 886.53,-84.7291"/>
<polygon fill="midnightblue" stroke="midnightblue" points="889.443,-82.7591 881.595,-75.6424 883.292,-86.1003 889.443,-82.7591"/>
</g>
<!-- Node2&#45;&gt;Node15 -->
<g id="edge31" class="edge"><title>Node2&#45;&gt;Node15</title>
<path fill="none" stroke="midnightblue" d="M1491.46,-176.446C1354.56,-174.259 883.69,-164.679 496.5,-132 300.637,-115.469 247.662,-117.228 50.8281,-75.7277"/>
<polygon fill="midnightblue" stroke="midnightblue" points="51.5486,-72.3027 41.0403,-73.6536 50.0975,-79.1507 51.5486,-72.3027"/>
</g>
<!-- Node19 -->
<g id="node19" class="node"><title>Node19</title>
<g id="a_node19"><a xlink:href="_math_helper_8h.html" target="_top" xlink:title="../mt/MathHelper.h">
<polygon fill="none" stroke="black" points="923.5,-56.5 923.5,-75.5 1021.5,-75.5 1021.5,-56.5 923.5,-56.5"/>
<text text-anchor="middle" x="972.5" y="-63.5" font-family="Helvetica,sans-Serif" font-size="10.00">../mt/MathHelper.h</text>
</a>
</g>
</g>
<!-- Node2&#45;&gt;Node19 -->
<g id="edge48" class="edge"><title>Node2&#45;&gt;Node19</title>
<path fill="none" stroke="midnightblue" d="M1491.46,-177.025C1365.67,-176.705 976.965,-172.426 939.5,-132 926.29,-117.746 940.802,-97.2037 954.531,-83.0466"/>
<polygon fill="midnightblue" stroke="midnightblue" points="957.145,-85.388 961.897,-75.9189 952.277,-80.3576 957.145,-85.388"/>
</g>
<!-- Node21 -->
<g id="node21" class="node"><title>Node21</title>
<polygon fill="none" stroke="#bfbfbf" points="1011,-0.5 1011,-19.5 1088,-19.5 1088,-0.5 1011,-0.5"/>
<text text-anchor="middle" x="1049.5" y="-7.5" font-family="Helvetica,sans-Serif" font-size="10.00">DirectXMath.h</text>
</g>
<!-- Node2&#45;&gt;Node21 -->
<g id="edge27" class="edge"><title>Node2&#45;&gt;Node21</title>
<path fill="none" stroke="midnightblue" d="M1491.1,-176.834C1369.73,-175.917 1007.55,-169.993 972.5,-132 941.541,-98.4433 1009.71,-103.351 1030.5,-76 1040.72,-62.5573 1045.45,-43.7416 1047.64,-29.8115"/>
<polygon fill="midnightblue" stroke="midnightblue" points="1051.11,-30.2452 1048.9,-19.8832 1044.17,-29.361 1051.11,-30.2452"/>
</g>
<!-- Node22 -->
<g id="node22" class="node"><title>Node22</title>
<polygon fill="none" stroke="#bfbfbf" points="1545.5,-0.5 1545.5,-19.5 1591.5,-19.5 1591.5,-0.5 1545.5,-0.5"/>
<text text-anchor="middle" x="1568.5" y="-7.5" font-family="Helvetica,sans-Serif" font-size="10.00">cstdint</text>
</g>
<!-- Node2&#45;&gt;Node22 -->
<g id="edge37" class="edge"><title>Node2&#45;&gt;Node22</title>
<path fill="none" stroke="midnightblue" d="M1569.74,-176.087C1675.37,-173.226 1959.66,-162.717 1987.5,-132 2042.12,-71.7348 1709.95,-27.4003 1601.74,-14.7034"/>
<polygon fill="midnightblue" stroke="midnightblue" points="1602.03,-11.2141 1591.7,-13.5408 1601.23,-18.1676 1602.03,-11.2141"/>
</g>
<!-- Node23 -->
<g id="node23" class="node"><title>Node23</title>
<polygon fill="none" stroke="#bfbfbf" points="2297.5,-112.5 2297.5,-131.5 2359.5,-131.5 2359.5,-112.5 2297.5,-112.5"/>
<text text-anchor="middle" x="2328.5" y="-119.5" font-family="Helvetica,sans-Serif" font-size="10.00">windows.h</text>
</g>
<!-- Node2&#45;&gt;Node23 -->
<g id="edge22" class="edge"><title>Node2&#45;&gt;Node23</title>
<path fill="none" stroke="midnightblue" d="M1569.78,-176.905C1680.99,-176.164 2007.58,-170.707 2287.22,-131.952"/>
<polygon fill="midnightblue" stroke="midnightblue" points="2287.73,-135.415 2297.15,-130.559 2286.76,-128.482 2287.73,-135.415"/>
</g>
<!-- Node24 -->
<g id="node24" class="node"><title>Node24</title>
<polygon fill="none" stroke="#bfbfbf" points="2172,-56.5 2172,-75.5 2209,-75.5 2209,-56.5 2172,-56.5"/>
<text text-anchor="middle" x="2190.5" y="-63.5" font-family="Helvetica,sans-Serif" font-size="10.00">wrl.h</text>
</g>
<!-- Node2&#45;&gt;Node24 -->
<g id="edge23" class="edge"><title>Node2&#45;&gt;Node24</title>
<path fill="none" stroke="midnightblue" d="M1569.65,-176.206C1679.6,-173.601 1989.42,-163.586 2085.5,-132 2118.85,-121.035 2152.5,-97.4992 2172.42,-81.9629"/>
<polygon fill="midnightblue" stroke="midnightblue" points="2174.69,-84.6332 2180.32,-75.6578 2170.32,-79.1635 2174.69,-84.6332"/>
</g>
<!-- Node25 -->
<g id="node25" class="node"><title>Node25</title>
<polygon fill="none" stroke="#bfbfbf" points="982,-112.5 982,-131.5 1041,-131.5 1041,-112.5 982,-112.5"/>
<text text-anchor="middle" x="1011.5" y="-119.5" font-family="Helvetica,sans-Serif" font-size="10.00">dxgi1_4.h</text>
</g>
<!-- Node2&#45;&gt;Node25 -->
<g id="edge24" class="edge"><title>Node2&#45;&gt;Node25</title>
<path fill="none" stroke="midnightblue" d="M1491.39,-175.104C1410.88,-170.821 1220.69,-158.743 1051.33,-131.912"/>
<polygon fill="midnightblue" stroke="midnightblue" points="1051.66,-128.421 1041.23,-130.291 1050.55,-135.332 1051.66,-128.421"/>
</g>
<!-- Node26 -->
<g id="node26" class="node"><title>Node26</title>
<polygon fill="none" stroke="#bfbfbf" points="2054,-0.5 2054,-19.5 2105,-19.5 2105,-0.5 2054,-0.5"/>
<text text-anchor="middle" x="2079.5" y="-7.5" font-family="Helvetica,sans-Serif" font-size="10.00">d3d12.h</text>
</g>
<!-- Node2&#45;&gt;Node26 -->
<g id="edge25" class="edge"><title>Node2&#45;&gt;Node26</title>
<path fill="none" stroke="midnightblue" d="M1569.77,-177.661C1669.95,-178.667 1932.24,-176.831 2004.5,-132 2042.88,-108.19 2064.68,-56.7156 2074.02,-29.2055"/>
<polygon fill="midnightblue" stroke="midnightblue" points="2077.37,-30.2288 2077.09,-19.6376 2070.7,-28.0911 2077.37,-30.2288"/>
</g>
<!-- Node27 -->
<g id="node27" class="node"><title>Node27</title>
<polygon fill="none" stroke="#bfbfbf" points="1059.5,-112.5 1059.5,-131.5 1139.5,-131.5 1139.5,-112.5 1059.5,-112.5"/>
<text text-anchor="middle" x="1099.5" y="-119.5" font-family="Helvetica,sans-Serif" font-size="10.00">D3Dcompiler.h</text>
</g>
<!-- Node2&#45;&gt;Node27 -->
<g id="edge26" class="edge"><title>Node2&#45;&gt;Node27</title>
<path fill="none" stroke="midnightblue" d="M1491.34,-173.228C1423.8,-166.539 1280.81,-151.578 1149.79,-132.109"/>
<polygon fill="midnightblue" stroke="midnightblue" points="1149.98,-128.599 1139.58,-130.578 1148.95,-135.522 1149.98,-128.599"/>
</g>
<!-- Node28 -->
<g id="node28" class="node"><title>Node28</title>
<polygon fill="none" stroke="#bfbfbf" points="1158,-112.5 1158,-131.5 1275,-131.5 1275,-112.5 1158,-112.5"/>
<text text-anchor="middle" x="1216.5" y="-119.5" font-family="Helvetica,sans-Serif" font-size="10.00">DirectXPackedVector.h</text>
</g>
<!-- Node2&#45;&gt;Node28 -->
<g id="edge28" class="edge"><title>Node2&#45;&gt;Node28</title>
<path fill="none" stroke="midnightblue" d="M1491.37,-170.27C1437.33,-160.977 1339.39,-144.133 1276.18,-133.264"/>
<polygon fill="midnightblue" stroke="midnightblue" points="1276.41,-129.752 1265.97,-131.507 1275.23,-136.651 1276.41,-129.752"/>
</g>
<!-- Node29 -->
<g id="node29" class="node"><title>Node29</title>
<polygon fill="none" stroke="#bfbfbf" points="1293,-112.5 1293,-131.5 1376,-131.5 1376,-112.5 1293,-112.5"/>
<text text-anchor="middle" x="1334.5" y="-119.5" font-family="Helvetica,sans-Serif" font-size="10.00">DirectXColors.h</text>
</g>
<!-- Node2&#45;&gt;Node29 -->
<g id="edge29" class="edge"><title>Node2&#45;&gt;Node29</title>
<path fill="none" stroke="midnightblue" d="M1499.44,-168.444C1465.9,-159.201 1412.3,-144.436 1375.36,-134.257"/>
<polygon fill="midnightblue" stroke="midnightblue" points="1375.98,-130.798 1365.41,-131.516 1374.12,-137.547 1375.98,-130.798"/>
</g>
<!-- Node30 -->
<g id="node30" class="node"><title>Node30</title>
<polygon fill="none" stroke="#bfbfbf" points="1394.5,-112.5 1394.5,-131.5 1486.5,-131.5 1486.5,-112.5 1394.5,-112.5"/>
<text text-anchor="middle" x="1440.5" y="-119.5" font-family="Helvetica,sans-Serif" font-size="10.00">DirectXCollision.h</text>
</g>
<!-- Node2&#45;&gt;Node30 -->
<g id="edge30" class="edge"><title>Node2&#45;&gt;Node30</title>
<path fill="none" stroke="midnightblue" d="M1516.04,-168.324C1502,-159.9 1480.45,-146.971 1463.96,-137.074"/>
<polygon fill="midnightblue" stroke="midnightblue" points="1465.3,-133.798 1454.92,-131.655 1461.7,-139.801 1465.3,-133.798"/>
</g>
<!-- Node31 -->
<g id="node31" class="node"><title>Node31</title>
<polygon fill="none" stroke="#bfbfbf" points="1504.5,-112.5 1504.5,-131.5 1556.5,-131.5 1556.5,-112.5 1504.5,-112.5"/>
<text text-anchor="middle" x="1530.5" y="-119.5" font-family="Helvetica,sans-Serif" font-size="10.00">memory</text>
</g>
<!-- Node2&#45;&gt;Node31 -->
<g id="edge32" class="edge"><title>Node2&#45;&gt;Node31</title>
<path fill="none" stroke="midnightblue" d="M1530.5,-168.083C1530.5,-161.006 1530.5,-150.861 1530.5,-141.986"/>
<polygon fill="midnightblue" stroke="midnightblue" points="1534,-141.751 1530.5,-131.751 1527,-141.751 1534,-141.751"/>
</g>
<!-- Node32 -->
<g id="node32" class="node"><title>Node32</title>
<polygon fill="none" stroke="#bfbfbf" points="1574.5,-112.5 1574.5,-131.5 1616.5,-131.5 1616.5,-112.5 1574.5,-112.5"/>
<text text-anchor="middle" x="1595.5" y="-119.5" font-family="Helvetica,sans-Serif" font-size="10.00">vector</text>
</g>
<!-- Node2&#45;&gt;Node32 -->
<g id="edge34" class="edge"><title>Node2&#45;&gt;Node32</title>
<path fill="none" stroke="midnightblue" d="M1540.94,-168.324C1550.65,-160.263 1565.32,-148.077 1577,-138.369"/>
<polygon fill="midnightblue" stroke="midnightblue" points="1579.41,-140.916 1584.87,-131.834 1574.94,-135.532 1579.41,-140.916"/>
</g>
<!-- Node33 -->
<g id="node33" class="node"><title>Node33</title>
<polygon fill="none" stroke="#bfbfbf" points="1634.5,-112.5 1634.5,-131.5 1672.5,-131.5 1672.5,-112.5 1634.5,-112.5"/>
<text text-anchor="middle" x="1653.5" y="-119.5" font-family="Helvetica,sans-Serif" font-size="10.00">array</text>
</g>
<!-- Node2&#45;&gt;Node33 -->
<g id="edge35" class="edge"><title>Node2&#45;&gt;Node33</title>
<path fill="none" stroke="midnightblue" d="M1549.99,-168.444C1570.14,-159.596 1601.82,-145.687 1624.83,-135.586"/>
<polygon fill="midnightblue" stroke="midnightblue" points="1626.35,-138.741 1634.1,-131.516 1623.54,-132.332 1626.35,-138.741"/>
</g>
<!-- Node34 -->
<g id="node34" class="node"><title>Node34</title>
<polygon fill="none" stroke="#bfbfbf" points="1691,-112.5 1691,-131.5 1774,-131.5 1774,-112.5 1691,-112.5"/>
<text text-anchor="middle" x="1732.5" y="-119.5" font-family="Helvetica,sans-Serif" font-size="10.00">unordered_map</text>
</g>
<!-- Node2&#45;&gt;Node34 -->
<g id="edge36" class="edge"><title>Node2&#45;&gt;Node34</title>
<path fill="none" stroke="midnightblue" d="M1562.51,-168.444C1597.23,-159.162 1652.79,-144.309 1690.88,-134.127"/>
<polygon fill="midnightblue" stroke="midnightblue" points="1691.89,-137.48 1700.64,-131.516 1690.08,-130.718 1691.89,-137.48"/>
</g>
<!-- Node35 -->
<g id="node35" class="node"><title>Node35</title>
<polygon fill="none" stroke="#bfbfbf" points="1792,-112.5 1792,-131.5 1841,-131.5 1841,-112.5 1792,-112.5"/>
<text text-anchor="middle" x="1816.5" y="-119.5" font-family="Helvetica,sans-Serif" font-size="10.00">fstream</text>
</g>
<!-- Node2&#45;&gt;Node35 -->
<g id="edge38" class="edge"><title>Node2&#45;&gt;Node35</title>
<path fill="none" stroke="midnightblue" d="M1569.55,-171.046C1617.31,-163.541 1700.8,-149.697 1781.81,-132"/>
<polygon fill="midnightblue" stroke="midnightblue" points="1782.66,-135.396 1791.68,-129.823 1781.16,-128.56 1782.66,-135.396"/>
</g>
<!-- Node36 -->
<g id="node36" class="node"><title>Node36</title>
<polygon fill="none" stroke="#bfbfbf" points="1859.5,-112.5 1859.5,-131.5 1911.5,-131.5 1911.5,-112.5 1859.5,-112.5"/>
<text text-anchor="middle" x="1885.5" y="-119.5" font-family="Helvetica,sans-Serif" font-size="10.00">sstream</text>
</g>
<!-- Node2&#45;&gt;Node36 -->
<g id="edge39" class="edge"><title>Node2&#45;&gt;Node36</title>
<path fill="none" stroke="midnightblue" d="M1569.51,-172.832C1628.02,-166.291 1742.13,-152.408 1849.22,-131.851"/>
<polygon fill="midnightblue" stroke="midnightblue" points="1850.08,-135.25 1859.23,-129.907 1848.74,-128.379 1850.08,-135.25"/>
</g>
<!-- Node37 -->
<g id="node37" class="node"><title>Node37</title>
<polygon fill="none" stroke="#bfbfbf" points="1930,-112.5 1930,-131.5 1979,-131.5 1979,-112.5 1930,-112.5"/>
<text text-anchor="middle" x="1954.5" y="-119.5" font-family="Helvetica,sans-Serif" font-size="10.00">cassert</text>
</g>
<!-- Node2&#45;&gt;Node37 -->
<g id="edge40" class="edge"><title>Node2&#45;&gt;Node37</title>
<path fill="none" stroke="midnightblue" d="M1569.53,-174.365C1638.34,-169.317 1785.82,-156.69 1919.69,-131.888"/>
<polygon fill="midnightblue" stroke="midnightblue" points="1920.53,-135.291 1929.71,-130.003 1919.24,-128.411 1920.53,-135.291"/>
</g>
<!-- Node38 -->
<g id="node38" class="node"><title>Node38</title>
<g id="a_node38"><a xlink:href="d3dx12_8h.html" target="_top" xlink:title="../mt/d3dx12.h">
<polygon fill="none" stroke="black" points="2073.5,-56.5 2073.5,-75.5 2153.5,-75.5 2153.5,-56.5 2073.5,-56.5"/>
<text text-anchor="middle" x="2113.5" y="-63.5" font-family="Helvetica,sans-Serif" font-size="10.00">../mt/d3dx12.h</text>
</a>
</g>
</g>
<!-- Node2&#45;&gt;Node38 -->
<g id="edge41" class="edge"><title>Node2&#45;&gt;Node38</title>
<path fill="none" stroke="midnightblue" d="M1569.58,-177.521C1676.99,-178.355 1974.32,-176.476 2059.5,-132 2079.56,-121.528 2095.04,-100.084 2104.19,-84.6879"/>
<polygon fill="midnightblue" stroke="midnightblue" points="2107.44,-86.055 2109.27,-75.6199 2101.33,-82.6346 2107.44,-86.055"/>
</g>
<!-- Node39 -->
<g id="node39" class="node"><title>Node39</title>
<g id="a_node39"><a xlink:href="_d_d_s_texture_loader_8h.html" target="_top" xlink:title="../mt/DDSTextureLoader.h">
<polygon fill="none" stroke="black" points="2149.5,-112.5 2149.5,-131.5 2279.5,-131.5 2279.5,-112.5 2149.5,-112.5"/>
<text text-anchor="middle" x="2214.5" y="-119.5" font-family="Helvetica,sans-Serif" font-size="10.00">../mt/DDSTextureLoader.h</text>
</a>
</g>
</g>
<!-- Node2&#45;&gt;Node39 -->
<g id="edge43" class="edge"><title>Node2&#45;&gt;Node39</title>
<path fill="none" stroke="midnightblue" d="M1569.83,-174.611C1666.31,-168.632 1922.37,-152.059 2135.5,-132 2136.78,-131.88 2138.06,-131.757 2139.36,-131.631"/>
<polygon fill="midnightblue" stroke="midnightblue" points="2139.82,-135.102 2149.42,-130.618 2139.12,-128.137 2139.82,-135.102"/>
</g>
<!-- Node3&#45;&gt;Node4 -->
<g id="edge3" class="edge"><title>Node3&#45;&gt;Node4</title>
<path fill="none" stroke="midnightblue" d="M587.598,-115.855C642.726,-108.701 743.841,-94.7012 839.446,-76.0688"/>
<polygon fill="midnightblue" stroke="midnightblue" points="840.139,-79.4995 849.274,-74.1327 838.786,-72.6315 840.139,-79.4995"/>
</g>
<!-- Node5 -->
<g id="node5" class="node"><title>Node5</title>
<polygon fill="none" stroke="#bfbfbf" points="173.5,-56.5 173.5,-75.5 219.5,-75.5 219.5,-56.5 173.5,-56.5"/>
<text text-anchor="middle" x="196.5" y="-63.5" font-family="Helvetica,sans-Serif" font-size="10.00">chrono</text>
</g>
<!-- Node3&#45;&gt;Node5 -->
<g id="edge4" class="edge"><title>Node3&#45;&gt;Node5</title>
<path fill="none" stroke="midnightblue" d="M505.283,-116.947C446.259,-110.755 334.14,-97.5518 229.891,-76.0562"/>
<polygon fill="midnightblue" stroke="midnightblue" points="230.334,-72.5732 219.829,-73.9501 228.9,-79.4247 230.334,-72.5732"/>
</g>
<!-- Node6 -->
<g id="node6" class="node"><title>Node6</title>
<polygon fill="none" stroke="#bfbfbf" points="237.5,-56.5 237.5,-75.5 281.5,-75.5 281.5,-56.5 237.5,-56.5"/>
<text text-anchor="middle" x="259.5" y="-63.5" font-family="Helvetica,sans-Serif" font-size="10.00">cmath</text>
</g>
<!-- Node3&#45;&gt;Node6 -->
<g id="edge5" class="edge"><title>Node3&#45;&gt;Node6</title>
<path fill="none" stroke="midnightblue" d="M505.433,-115.187C456.62,-107.968 372.556,-94.5627 291.626,-76.0619"/>
<polygon fill="midnightblue" stroke="midnightblue" points="292.307,-72.6269 281.775,-73.7805 290.727,-79.4464 292.307,-72.6269"/>
</g>
<!-- Node7 -->
<g id="node7" class="node"><title>Node7</title>
<polygon fill="none" stroke="#bfbfbf" points="300,-56.5 300,-75.5 349,-75.5 349,-56.5 300,-56.5"/>
<text text-anchor="middle" x="324.5" y="-63.5" font-family="Helvetica,sans-Serif" font-size="10.00">cstdarg</text>
</g>
<!-- Node3&#45;&gt;Node7 -->
<g id="edge6" class="edge"><title>Node3&#45;&gt;Node7</title>
<path fill="none" stroke="midnightblue" d="M509.117,-112.477C473.014,-104.162 416.554,-90.9397 359.287,-76.4036"/>
<polygon fill="midnightblue" stroke="midnightblue" points="359.898,-72.9476 349.343,-73.8684 358.169,-79.7306 359.898,-72.9476"/>
</g>
<!-- Node8 -->
<g id="node8" class="node"><title>Node8</title>
<polygon fill="none" stroke="#bfbfbf" points="367,-56.5 367,-75.5 410,-75.5 410,-56.5 367,-56.5"/>
<text text-anchor="middle" x="388.5" y="-63.5" font-family="Helvetica,sans-Serif" font-size="10.00">deque</text>
</g>
<!-- Node3&#45;&gt;Node8 -->
<g id="edge7" class="edge"><title>Node3&#45;&gt;Node8</title>
<path fill="none" stroke="midnightblue" d="M521.464,-112.444C493.946,-103.038 449.693,-87.9142 419.878,-77.7242"/>
<polygon fill="midnightblue" stroke="midnightblue" points="420.96,-74.3952 410.365,-74.473 418.696,-81.0191 420.96,-74.3952"/>
</g>
<!-- Node9 -->
<g id="node9" class="node"><title>Node9</title>
<polygon fill="none" stroke="#bfbfbf" points="428,-56.5 428,-75.5 489,-75.5 489,-56.5 428,-56.5"/>
<text text-anchor="middle" x="458.5" y="-63.5" font-family="Helvetica,sans-Serif" font-size="10.00">filesystem</text>
</g>
<!-- Node3&#45;&gt;Node9 -->
<g id="edge8" class="edge"><title>Node3&#45;&gt;Node9</title>
<path fill="none" stroke="midnightblue" d="M532.361,-112.324C518.634,-103.9 497.564,-90.9709 481.436,-81.0741"/>
<polygon fill="midnightblue" stroke="midnightblue" points="482.957,-77.9016 472.604,-75.6545 479.296,-83.8678 482.957,-77.9016"/>
</g>
<!-- Node10 -->
<g id="node10" class="node"><title>Node10</title>
<polygon fill="none" stroke="#bfbfbf" points="507,-56.5 507,-75.5 536,-75.5 536,-56.5 507,-56.5"/>
<text text-anchor="middle" x="521.5" y="-63.5" font-family="Helvetica,sans-Serif" font-size="10.00">list</text>
</g>
<!-- Node3&#45;&gt;Node10 -->
<g id="edge9" class="edge"><title>Node3&#45;&gt;Node10</title>
<path fill="none" stroke="midnightblue" d="M542.372,-112.083C538.986,-104.77 534.084,-94.1814 529.881,-85.1034"/>
<polygon fill="midnightblue" stroke="midnightblue" points="532.929,-83.3553 525.551,-75.7511 526.577,-86.2962 532.929,-83.3553"/>
</g>
<!-- Node11 -->
<g id="node11" class="node"><title>Node11</title>
<polygon fill="none" stroke="#bfbfbf" points="554,-56.5 554,-75.5 589,-75.5 589,-56.5 554,-56.5"/>
<text text-anchor="middle" x="571.5" y="-63.5" font-family="Helvetica,sans-Serif" font-size="10.00">map</text>
</g>
<!-- Node3&#45;&gt;Node11 -->
<g id="edge10" class="edge"><title>Node3&#45;&gt;Node11</title>
<path fill="none" stroke="midnightblue" d="M550.628,-112.083C554.014,-104.77 558.916,-94.1814 563.119,-85.1034"/>
<polygon fill="midnightblue" stroke="midnightblue" points="566.423,-86.2962 567.449,-75.7511 560.071,-83.3553 566.423,-86.2962"/>
</g>
<!-- Node12 -->
<g id="node12" class="node"><title>Node12</title>
<polygon fill="none" stroke="#bfbfbf" points="607,-56.5 607,-75.5 650,-75.5 650,-56.5 607,-56.5"/>
<text text-anchor="middle" x="628.5" y="-63.5" font-family="Helvetica,sans-Serif" font-size="10.00">queue</text>
</g>
<!-- Node3&#45;&gt;Node12 -->
<g id="edge11" class="edge"><title>Node3&#45;&gt;Node12</title>
<path fill="none" stroke="midnightblue" d="M559.675,-112.324C572.347,-103.979 591.733,-91.2122 606.706,-81.3524"/>
<polygon fill="midnightblue" stroke="midnightblue" points="608.931,-84.0776 615.358,-75.6545 605.081,-78.2313 608.931,-84.0776"/>
</g>
<!-- Node13 -->
<g id="node13" class="node"><title>Node13</title>
<polygon fill="none" stroke="#bfbfbf" points="668,-56.5 668,-75.5 703,-75.5 703,-56.5 668,-56.5"/>
<text text-anchor="middle" x="685.5" y="-63.5" font-family="Helvetica,sans-Serif" font-size="10.00">ratio</text>
</g>
<!-- Node3&#45;&gt;Node13 -->
<g id="edge12" class="edge"><title>Node3&#45;&gt;Node13</title>
<path fill="none" stroke="midnightblue" d="M568.525,-112.444C592.962,-102.95 632.398,-87.6297 658.63,-77.4385"/>
<polygon fill="midnightblue" stroke="midnightblue" points="659.925,-80.6904 667.979,-73.8067 657.39,-74.1655 659.925,-80.6904"/>
</g>
<!-- Node14 -->
<g id="node14" class="node"><title>Node14</title>
<polygon fill="none" stroke="#bfbfbf" points="721.5,-56.5 721.5,-75.5 751.5,-75.5 751.5,-56.5 721.5,-56.5"/>
<text text-anchor="middle" x="736.5" y="-63.5" font-family="Helvetica,sans-Serif" font-size="10.00">set</text>
</g>
<!-- Node3&#45;&gt;Node14 -->
<g id="edge13" class="edge"><title>Node3&#45;&gt;Node14</title>
<path fill="none" stroke="midnightblue" d="M580.86,-112.477C614.398,-103.958 666.764,-90.1282 711.5,-76 711.602,-75.9679 711.704,-75.9356 711.806,-75.9032"/>
<polygon fill="midnightblue" stroke="midnightblue" points="713.147,-79.1442 721.495,-72.6199 710.901,-72.5145 713.147,-79.1442"/>
</g>
<!-- Node3&#45;&gt;Node15 -->
<g id="edge14" class="edge"><title>Node3&#45;&gt;Node15</title>
<path fill="none" stroke="midnightblue" d="M505.272,-118.332C405.892,-111.733 154.332,-93.9952 50.8545,-75.5896"/>
<polygon fill="midnightblue" stroke="midnightblue" points="51.4942,-72.1487 41.021,-73.7491 50.2064,-79.0292 51.4942,-72.1487"/>
</g>
<!-- Node16 -->
<g id="node16" class="node"><title>Node16</title>
<polygon fill="none" stroke="#bfbfbf" points="769.5,-56.5 769.5,-75.5 831.5,-75.5 831.5,-56.5 769.5,-56.5"/>
<text text-anchor="middle" x="800.5" y="-63.5" font-family="Helvetica,sans-Serif" font-size="10.00">type_traits</text>
</g>
<!-- Node3&#45;&gt;Node16 -->
<g id="edge15" class="edge"><title>Node3&#45;&gt;Node16</title>
<path fill="none" stroke="midnightblue" d="M587.562,-112.544C628.565,-104.061 693.657,-90.486 759.004,-76.3046"/>
<polygon fill="midnightblue" stroke="midnightblue" points="760.038,-79.6614 769.066,-74.1164 758.551,-72.8213 760.038,-79.6614"/>
</g>
<!-- Node17 -->
<g id="node17" class="node"><title>Node17</title>
<polygon fill="none" stroke="#bfbfbf" points="59.5,-56.5 59.5,-75.5 97.5,-75.5 97.5,-56.5 59.5,-56.5"/>
<text text-anchor="middle" x="78.5" y="-63.5" font-family="Helvetica,sans-Serif" font-size="10.00">tuple</text>
</g>
<!-- Node3&#45;&gt;Node17 -->
<g id="edge16" class="edge"><title>Node3&#45;&gt;Node17</title>
<path fill="none" stroke="midnightblue" d="M505.461,-117.906C414.831,-110.902 199.039,-93.2365 107.637,-75.7538"/>
<polygon fill="midnightblue" stroke="midnightblue" points="108.133,-72.2833 97.6376,-73.7339 106.747,-79.1447 108.133,-72.2833"/>
</g>
<!-- Node18 -->
<g id="node18" class="node"><title>Node18</title>
<polygon fill="none" stroke="#bfbfbf" points="115.5,-56.5 115.5,-75.5 155.5,-75.5 155.5,-56.5 115.5,-56.5"/>
<text text-anchor="middle" x="135.5" y="-63.5" font-family="Helvetica,sans-Serif" font-size="10.00">utility</text>
</g>
<!-- Node3&#45;&gt;Node18 -->
<g id="edge17" class="edge"><title>Node3&#45;&gt;Node18</title>
<path fill="none" stroke="midnightblue" d="M505.394,-118.641C436.756,-114.165 294.447,-102.597 165.69,-75.8925"/>
<polygon fill="midnightblue" stroke="midnightblue" points="166.164,-72.4154 155.656,-73.7744 164.718,-79.2644 166.164,-72.4154"/>
</g>
<!-- Node3&#45;&gt;Node19 -->
<g id="edge18" class="edge"><title>Node3&#45;&gt;Node19</title>
<path fill="none" stroke="midnightblue" d="M587.673,-116.404C653.967,-108.908 788.727,-93.2769 913.366,-76.1193"/>
<polygon fill="midnightblue" stroke="midnightblue" points="914.042,-79.5592 923.469,-74.7221 913.083,-72.6252 914.042,-79.5592"/>
</g>
<!-- Node20 -->
<g id="node20" class="node"><title>Node20</title>
<polygon fill="none" stroke="#bfbfbf" points="928,-0.5 928,-19.5 993,-19.5 993,-0.5 928,-0.5"/>
<text text-anchor="middle" x="960.5" y="-7.5" font-family="Helvetica,sans-Serif" font-size="10.00">Windows.h</text>
</g>
<!-- Node19&#45;&gt;Node20 -->
<g id="edge19" class="edge"><title>Node19&#45;&gt;Node20</title>
<path fill="none" stroke="midnightblue" d="M970.518,-56.083C968.928,-48.9272 966.641,-38.6353 964.654,-29.6911"/>
<polygon fill="midnightblue" stroke="midnightblue" points="968.031,-28.7537 962.445,-19.7511 961.197,-30.2722 968.031,-28.7537"/>
</g>
<!-- Node19&#45;&gt;Node21 -->
<g id="edge20" class="edge"><title>Node19&#45;&gt;Node21</title>
<path fill="none" stroke="midnightblue" d="M984.871,-56.324C996.658,-48.0577 1014.63,-35.4527 1028.64,-25.6322"/>
<polygon fill="midnightblue" stroke="midnightblue" points="1030.98,-28.2619 1037.16,-19.6545 1026.96,-22.5307 1030.98,-28.2619"/>
</g>
<!-- Node19&#45;&gt;Node22 -->
<g id="edge21" class="edge"><title>Node19&#45;&gt;Node22</title>
<path fill="none" stroke="midnightblue" d="M1021.53,-60.558C1139.34,-49.884 1435.94,-23.0109 1535.4,-13.999"/>
<polygon fill="midnightblue" stroke="midnightblue" points="1535.83,-17.4748 1545.47,-13.0867 1535.19,-10.5034 1535.83,-17.4748"/>
</g>
<!-- Node38&#45;&gt;Node26 -->
<g id="edge42" class="edge"><title>Node38&#45;&gt;Node26</title>
<path fill="none" stroke="midnightblue" d="M2107.89,-56.083C2103.13,-48.5341 2096.18,-37.4948 2090.35,-28.2298"/>
<polygon fill="midnightblue" stroke="midnightblue" points="2093.3,-26.3486 2085.01,-19.7511 2087.38,-30.0783 2093.3,-26.3486"/>
</g>
<!-- Node39&#45;&gt;Node24 -->
<g id="edge44" class="edge"><title>Node39&#45;&gt;Node24</title>
<path fill="none" stroke="midnightblue" d="M2210.54,-112.083C2207.29,-104.77 2202.58,-94.1814 2198.55,-85.1034"/>
<polygon fill="midnightblue" stroke="midnightblue" points="2201.65,-83.4677 2194.39,-75.7511 2195.25,-86.3107 2201.65,-83.4677"/>
</g>
<!-- Node39&#45;&gt;Node38 -->
<g id="edge46" class="edge"><title>Node39&#45;&gt;Node38</title>
<path fill="none" stroke="midnightblue" d="M2198.27,-112.324C2182.15,-103.703 2157.2,-90.3643 2138.54,-80.3855"/>
<polygon fill="midnightblue" stroke="midnightblue" points="2140.16,-77.283 2129.69,-75.6545 2136.86,-83.456 2140.16,-77.283"/>
</g>
<!-- Node40 -->
<g id="node40" class="node"><title>Node40</title>
<polygon fill="none" stroke="#bfbfbf" points="2227.5,-56.5 2227.5,-75.5 2289.5,-75.5 2289.5,-56.5 2227.5,-56.5"/>
<text text-anchor="middle" x="2258.5" y="-63.5" font-family="Helvetica,sans-Serif" font-size="10.00">d3d11_1.h</text>
</g>
<!-- Node39&#45;&gt;Node40 -->
<g id="edge45" class="edge"><title>Node39&#45;&gt;Node40</title>
<path fill="none" stroke="midnightblue" d="M2221.77,-112.083C2228.04,-104.377 2237.29,-93.0333 2244.93,-83.6531"/>
<polygon fill="midnightblue" stroke="midnightblue" points="2247.77,-85.7143 2251.37,-75.7511 2242.34,-81.2926 2247.77,-85.7143"/>
</g>
<!-- Node41 -->
<g id="node41" class="node"><title>Node41</title>
<polygon fill="none" stroke="#bfbfbf" points="2308,-56.5 2308,-75.5 2357,-75.5 2357,-56.5 2308,-56.5"/>
<text text-anchor="middle" x="2332.5" y="-63.5" font-family="Helvetica,sans-Serif" font-size="10.00">stdint.h</text>
</g>
<!-- Node39&#45;&gt;Node41 -->
<g id="edge47" class="edge"><title>Node39&#45;&gt;Node41</title>
<path fill="none" stroke="midnightblue" d="M2233.2,-112.444C2252.44,-103.636 2282.65,-89.8116 2304.7,-79.722"/>
<polygon fill="midnightblue" stroke="midnightblue" points="2306.25,-82.8603 2313.89,-75.5164 2303.34,-76.4951 2306.25,-82.8603"/>
</g>
<!-- Node42&#45;&gt;Node2 -->
<g id="edge50" class="edge"><title>Node42&#45;&gt;Node2</title>
<path fill="none" stroke="midnightblue" d="M1530.5,-224.083C1530.5,-217.006 1530.5,-206.861 1530.5,-197.986"/>
<polygon fill="midnightblue" stroke="midnightblue" points="1534,-197.751 1530.5,-187.751 1527,-197.751 1534,-197.751"/>
</g>
<!-- Node43&#45;&gt;Node2 -->
<g id="edge53" class="edge"><title>Node43&#45;&gt;Node2</title>
<path fill="none" stroke="midnightblue" d="M1400.9,-224.444C1426.7,-215.399 1467.58,-201.064 1496.52,-190.916"/>
<polygon fill="midnightblue" stroke="midnightblue" points="1497.93,-194.128 1506.21,-187.516 1495.62,-187.523 1497.93,-194.128"/>
</g>
<!-- Node43&#45;&gt;Node3 -->
<g id="edge52" class="edge"><title>Node43&#45;&gt;Node3</title>
<path fill="none" stroke="midnightblue" d="M1330.4,-226.89C1186.86,-207.867 748.609,-149.786 597.981,-129.823"/>
<polygon fill="midnightblue" stroke="midnightblue" points="598.014,-126.297 587.641,-128.452 597.094,-133.236 598.014,-126.297"/>
</g>
</g>
</svg>
        <g id="navigator" transform="translate(0 0)" fill="#404254">
                <rect fill="#f2f5e9" fill-opacity="0.5" stroke="#606060" stroke-width=".5" x="0" y="0" width="60" height="60"/>
                <use id="zoomplus" xlink:href="#zoomPlus" x="17" y="9" onmousedown="handleZoom(evt,'in')"/>
                <use id="zoomminus" xlink:href="#zoomMin" x="42" y="9" onmousedown="handleZoom(evt,'out')"/>
                <use id="reset" xlink:href="#resetDef" x="30" y="36" onmousedown="handleReset()"/>
                <g id="arrowUp" xlink:href="#dirArrow" transform="translate(30 24)" onmousedown="handlePan(0,-1)">
                  <use xlink:href="#rim" fill="#404040">
                        <set attributeName="fill" to="#808080" begin="arrowUp.mouseover" end="arrowUp.mouseout"/>
                  </use>
                  <path fill="none" stroke="white" stroke-width="1.5" d="M0,-3.0v7 M-2.5,-0.5L0,-3.0L2.5,-0.5"/>
                </g>
                <g id="arrowRight" xlink:href="#dirArrow" transform="rotate(90) translate(36 -43)" onmousedown="handlePan(1,0)">
                  <use xlink:href="#rim" fill="#404040">
                        <set attributeName="fill" to="#808080" begin="arrowRight.mouseover" end="arrowRight.mouseout"/>
                  </use>
                  <path fill="none" stroke="white" stroke-width="1.5" d="M0,-3.0v7 M-2.5,-0.5L0,-3.0L2.5,-0.5"/>
                </g>
                <g id="arrowDown" xlink:href="#dirArrow" transform="rotate(180) translate(-30 -48)" onmousedown="handlePan(0,1)">
                  <use xlink:href="#rim" fill="#404040">
                        <set attributeName="fill" to="#808080" begin="arrowDown.mouseover" end="arrowDown.mouseout"/>
                  </use>
                  <path fill="none" stroke="white" stroke-width="1.5" d="M0,-3.0v7 M-2.5,-0.5L0,-3.0L2.5,-0.5"/>
                </g>
                <g id="arrowLeft" xlink:href="#dirArrow" transform="rotate(270) translate(-36 17)" onmousedown="handlePan(-1,0)">
                  <use xlink:href="#rim" fill="#404040">
                        <set attributeName="fill" to="#808080" begin="arrowLeft.mouseover" end="arrowLeft.mouseout"/>
                  </use>
                  <path fill="none" stroke="white" stroke-width="1.5" d="M0,-3.0v7 M-2.5,-0.5L0,-3.0L2.5,-0.5"/>
                </g>
        </g>
        <svg viewBox="0 0 15 15" width="100%" height="30px" preserveAspectRatio="xMaxYMin meet">
         <g id="arrow_out" transform="scale(0.3 0.3)">
          <a xlink:href="_direct_x_renderer_8hpp__incl_org.svg" target="_base">
           <rect id="button" ry="5" rx="5" y="6" x="6" height="38" width="38"
                fill="#f2f5e9" fill-opacity="0.5" stroke="#606060" stroke-width="1.0"/>
           <path id="arrow"
             d="M 11.500037,31.436501 C 11.940474,20.09759 22.043105,11.32322 32.158766,21.979434 L 37.068811,17.246167 C 37.068811,17.246167 37.088388,32 37.088388,32 L 22.160133,31.978069 C 22.160133,31.978069 26.997745,27.140456 26.997745,27.140456 C 18.528582,18.264221 13.291696,25.230495 11.500037,31.436501 z"
             style="fill:#404040;"/>
          </a>
         </g>
        </svg>
</svg>
