<?xml version="1.0" encoding="UTF-8" standalone="no"?>
<!DOCTYPE svg PUBLIC "-//W3C//DTD SVG 1.1//EN"
 "http://www.w3.org/Graphics/SVG/1.1/DTD/svg11.dtd">
<!-- Generated by graphviz version 2.38.0 (20140413.2041)
 -->
<!-- Title: C:/Users/micho/Desktop/mt_engine/mt/GameTimer.hpp Pages: 1 -->
<svg width="159pt" height="95pt"
 viewBox="0.00 0.00 159.00 95.00" xmlns="http://www.w3.org/2000/svg" xmlns:xlink="http://www.w3.org/1999/xlink">
<g id="graph0" class="graph" transform="scale(1 1) rotate(0) translate(4 91)">
<title>C:/Users/micho/Desktop/mt_engine/mt/GameTimer.hpp</title>
<!-- Node1 -->
<g id="node1" class="node"><title>Node1</title>
<polygon fill="#bfbfbf" stroke="black" points="0,-56.5 0,-86.5 151,-86.5 151,-56.5 0,-56.5"/>
<text text-anchor="start" x="8" y="-74.5" font-family="Helvetica,sans-Serif" font-size="10.00">C:/Users/micho/Desktop</text>
<text text-anchor="middle" x="75.5" y="-63.5" font-family="Helvetica,sans-Serif" font-size="10.00">/mt_engine/mt/GameTimer.hpp</text>
</g>
<!-- Node2 -->
<g id="node2" class="node"><title>Node2</title>
<polygon fill="none" stroke="#bfbfbf" points="21.5,-0.5 21.5,-19.5 67.5,-19.5 67.5,-0.5 21.5,-0.5"/>
<text text-anchor="middle" x="44.5" y="-7.5" font-family="Helvetica,sans-Serif" font-size="10.00">chrono</text>
</g>
<!-- Node1&#45;&gt;Node2 -->
<g id="edge1" class="edge"><title>Node1&#45;&gt;Node2</title>
<path fill="none" stroke="midnightblue" d="M68.1534,-56.3993C63.8345,-48.1098 58.3349,-37.5542 53.7258,-28.7077"/>
<polygon fill="midnightblue" stroke="midnightblue" points="56.7354,-26.9091 49.0108,-19.6578 50.5274,-30.1435 56.7354,-26.9091"/>
</g>
<!-- Node3 -->
<g id="node3" class="node"><title>Node3</title>
<polygon fill="none" stroke="#bfbfbf" points="86,-0.5 86,-19.5 129,-19.5 129,-0.5 86,-0.5"/>
<text text-anchor="middle" x="107.5" y="-7.5" font-family="Helvetica,sans-Serif" font-size="10.00">queue</text>
</g>
<!-- Node1&#45;&gt;Node3 -->
<g id="edge2" class="edge"><title>Node1&#45;&gt;Node3</title>
<path fill="none" stroke="midnightblue" d="M83.0836,-56.3993C87.5418,-48.1098 93.2188,-37.5542 97.9766,-28.7077"/>
<polygon fill="midnightblue" stroke="midnightblue" points="101.19,-30.1227 102.844,-19.6578 95.0246,-26.8071 101.19,-30.1227"/>
</g>
</g>
</svg>
