<?xml version="1.0" encoding="UTF-8" standalone="no"?>
<!DOCTYPE svg PUBLIC "-//W3C//DTD SVG 1.1//EN"
 "http://www.w3.org/Graphics/SVG/1.1/DTD/svg11.dtd">
<!-- Generated by graphviz version 2.38.0 (20140413.2041)
 -->
<!-- Title: C:/Users/micho/Desktop/mt_engine/mt/GameTimer.cpp Pages: 1 -->
<!--zoomable 442 -->
<svg id="main" version="1.1" xmlns="http://www.w3.org/2000/svg" xmlns:xlink="http://www.w3.org/1999/xlink" xml:space="preserve" onload="init(evt)">
<style type="text/css"><![CDATA[
.edge:hover path { stroke: red; }
.edge:hover polygon { stroke: red; fill: red; }
]]></style>
<script type="text/javascript"><![CDATA[
var edges = document.getElementsByTagName('g');
if (edges && edges.length) {
  for (var i=0;i<edges.length;i++) {
    if (edges[i].id.substr(0,4)=='edge') {
      edges[i].setAttribute('class','edge');
    }
  }
}
]]></script>
        <defs>
                <circle id="rim" cx="0" cy="0" r="7"/>
                <circle id="rim2" cx="0" cy="0" r="3.5"/>
                <g id="zoomPlus">
                        <use xlink:href="#rim" fill="#404040">
                                <set attributeName="fill" to="#808080" begin="zoomplus.mouseover" end="zoomplus.mouseout"/>
                        </use>
                        <path d="M-4,0h8M0,-4v8" fill="none" stroke="white" stroke-width="1.5" pointer-events="none"/>
                </g>
                <g id="zoomMin">
                        <use xlink:href="#rim" fill="#404040">
                                <set attributeName="fill" to="#808080" begin="zoomminus.mouseover" end="zoomminus.mouseout"/>
                        </use>
                        <path d="M-4,0h8" fill="none" stroke="white" stroke-width="1.5" pointer-events="none"/>
                </g>
                <g id="dirArrow">
                        <path fill="none" stroke="white" stroke-width="1.5" d="M0,-3.0v7 M-2.5,-0.5L0,-3.0L2.5,-0.5"/>
                </g>
               <g id="resetDef">
                       <use xlink:href="#rim2" fill="#404040">
                               <set attributeName="fill" to="#808080" begin="reset.mouseover" end="reset.mouseout"/>
                       </use>
               </g>
        </defs>

<script type="text/javascript">
var viewWidth = 1956;
var viewHeight = 442;
var sectionId = 'dynsection-0';
</script>
<script xlink:href="svgpan.js"/>
<svg id="graph" class="graph">
<g id="viewport">
<title>C:/Users/micho/Desktop/mt_engine/mt/GameTimer.cpp</title>
<!-- Node1 -->
<g id="node1" class="node"><title>Node1</title>
<polygon fill="#bfbfbf" stroke="black" points="1778,-403.5 1778,-433.5 1929,-433.5 1929,-403.5 1778,-403.5"/>
<text text-anchor="start" x="1786" y="-421.5" font-family="Helvetica,sans-Serif" font-size="10.00">C:/Users/micho/Desktop</text>
<text text-anchor="middle" x="1853.5" y="-410.5" font-family="Helvetica,sans-Serif" font-size="10.00">/mt_engine/mt/GameTimer.cpp</text>
</g>
<!-- Node2 -->
<g id="node2" class="node"><title>Node2</title>
<polygon fill="none" stroke="#bfbfbf" points="1901.5,-56.5 1901.5,-75.5 1947.5,-75.5 1947.5,-56.5 1901.5,-56.5"/>
<text text-anchor="middle" x="1924.5" y="-63.5" font-family="Helvetica,sans-Serif" font-size="10.00">chrono</text>
</g>
<!-- Node1&#45;&gt;Node2 -->
<g id="edge1" class="edge"><title>Node1&#45;&gt;Node2</title>
<path fill="none" stroke="midnightblue" d="M1872.75,-403.444C1897.27,-383.754 1936.5,-345.459 1936.5,-302 1936.5,-302 1936.5,-302 1936.5,-177 1936.5,-144.758 1931.34,-107.512 1927.79,-85.6812"/>
<polygon fill="midnightblue" stroke="midnightblue" points="1931.19,-84.7982 1926.07,-75.5232 1924.29,-85.9673 1931.19,-84.7982"/>
</g>
<!-- Node3 -->
<g id="node3" class="node"><title>Node3</title>
<g id="a_node3"><a xlink:href="_game_timer_8hpp.html" target="_top" xlink:title="../mt/GameTimer.hpp">
<polygon fill="none" stroke="black" points="1799,-168.5 1799,-187.5 1908,-187.5 1908,-168.5 1799,-168.5"/>
<text text-anchor="middle" x="1853.5" y="-175.5" font-family="Helvetica,sans-Serif" font-size="10.00">../mt/GameTimer.hpp</text>
</a>
</g>
</g>
<!-- Node1&#45;&gt;Node3 -->
<g id="edge2" class="edge"><title>Node1&#45;&gt;Node3</title>
<path fill="none" stroke="midnightblue" d="M1853.5,-403.295C1853.5,-362.433 1853.5,-244.551 1853.5,-198.12"/>
<polygon fill="midnightblue" stroke="midnightblue" points="1857,-197.946 1853.5,-187.946 1850,-197.946 1857,-197.946"/>
</g>
<!-- Node5 -->
<g id="node5" class="node"><title>Node5</title>
<g id="a_node5"><a xlink:href="engine_8hpp.html" target="_top" xlink:title="../mt/engine.hpp">
<polygon fill="none" stroke="black" points="1638,-347.5 1638,-366.5 1725,-366.5 1725,-347.5 1638,-347.5"/>
<text text-anchor="middle" x="1681.5" y="-354.5" font-family="Helvetica,sans-Serif" font-size="10.00">../mt/engine.hpp</text>
</a>
</g>
</g>
<!-- Node1&#45;&gt;Node5 -->
<g id="edge5" class="edge"><title>Node1&#45;&gt;Node5</title>
<path fill="none" stroke="midnightblue" d="M1812.74,-403.399C1783.28,-393.207 1743.91,-379.59 1716,-369.935"/>
<polygon fill="midnightblue" stroke="midnightblue" points="1716.87,-366.533 1706.28,-366.571 1714.58,-373.148 1716.87,-366.533"/>
</g>
<!-- Node3&#45;&gt;Node2 -->
<g id="edge3" class="edge"><title>Node3&#45;&gt;Node2</title>
<path fill="none" stroke="midnightblue" d="M1859.07,-168.368C1870.74,-150.296 1897.92,-108.176 1913.33,-84.3074"/>
<polygon fill="midnightblue" stroke="midnightblue" points="1916.47,-85.8913 1918.95,-75.5914 1910.59,-82.0952 1916.47,-85.8913"/>
</g>
<!-- Node4 -->
<g id="node4" class="node"><title>Node4</title>
<polygon fill="none" stroke="#bfbfbf" points="1840,-56.5 1840,-75.5 1883,-75.5 1883,-56.5 1840,-56.5"/>
<text text-anchor="middle" x="1861.5" y="-63.5" font-family="Helvetica,sans-Serif" font-size="10.00">queue</text>
</g>
<!-- Node3&#45;&gt;Node4 -->
<g id="edge4" class="edge"><title>Node3&#45;&gt;Node4</title>
<path fill="none" stroke="midnightblue" d="M1854.13,-168.368C1855.42,-150.617 1858.4,-109.666 1860.15,-85.5974"/>
<polygon fill="midnightblue" stroke="midnightblue" points="1863.64,-85.819 1860.88,-75.5914 1856.66,-85.3112 1863.64,-85.819"/>
</g>
<!-- Node5&#45;&gt;Node3 -->
<g id="edge6" class="edge"><title>Node5&#45;&gt;Node3</title>
<path fill="none" stroke="midnightblue" d="M1689.8,-347.463C1716.75,-319.729 1802.15,-231.846 1837.71,-195.245"/>
<polygon fill="midnightblue" stroke="midnightblue" points="1840.42,-197.479 1844.88,-187.868 1835.4,-192.601 1840.42,-197.479"/>
</g>
<!-- Node6 -->
<g id="node6" class="node"><title>Node6</title>
<g id="a_node6"><a xlink:href="_direct_x_renderer_8hpp.html" target="_top" xlink:title="../mt/DirectXRenderer.hpp">
<polygon fill="none" stroke="black" points="854.5,-291.5 854.5,-310.5 982.5,-310.5 982.5,-291.5 854.5,-291.5"/>
<text text-anchor="middle" x="918.5" y="-298.5" font-family="Helvetica,sans-Serif" font-size="10.00">../mt/DirectXRenderer.hpp</text>
</a>
</g>
</g>
<!-- Node5&#45;&gt;Node6 -->
<g id="edge7" class="edge"><title>Node5&#45;&gt;Node6</title>
<path fill="none" stroke="midnightblue" d="M1637.74,-352.903C1512.17,-344.016 1149.67,-318.361 992.571,-307.242"/>
<polygon fill="midnightblue" stroke="midnightblue" points="992.747,-303.746 982.524,-306.531 992.252,-310.729 992.747,-303.746"/>
</g>
<!-- Node47 -->
<g id="node47" class="node"><title>Node47</title>
<g id="a_node47"><a xlink:href="_windows_message_handling_service_8hpp.html" target="_top" xlink:title="../mt/WindowsMessageHandling\lService.hpp">
<polygon fill="none" stroke="black" points="1603,-224.5 1603,-254.5 1760,-254.5 1760,-224.5 1603,-224.5"/>
<text text-anchor="start" x="1611" y="-242.5" font-family="Helvetica,sans-Serif" font-size="10.00">../mt/WindowsMessageHandling</text>
<text text-anchor="middle" x="1681.5" y="-231.5" font-family="Helvetica,sans-Serif" font-size="10.00">Service.hpp</text>
</a>
</g>
</g>
<!-- Node5&#45;&gt;Node47 -->
<g id="edge62" class="edge"><title>Node5&#45;&gt;Node47</title>
<path fill="none" stroke="midnightblue" d="M1681.5,-347.319C1681.5,-329.967 1681.5,-290.457 1681.5,-264.658"/>
<polygon fill="midnightblue" stroke="midnightblue" points="1685,-264.545 1681.5,-254.545 1678,-264.545 1685,-264.545"/>
</g>
<!-- Node50 -->
<g id="node50" class="node"><title>Node50</title>
<g id="a_node50"><a xlink:href="_command_queue_8hpp.html" target="_top" xlink:title="../mt/CommandQueue.hpp">
<polygon fill="none" stroke="black" points="1493,-291.5 1493,-310.5 1624,-310.5 1624,-291.5 1493,-291.5"/>
<text text-anchor="middle" x="1558.5" y="-298.5" font-family="Helvetica,sans-Serif" font-size="10.00">../mt/CommandQueue.hpp</text>
</a>
</g>
</g>
<!-- Node5&#45;&gt;Node50 -->
<g id="edge67" class="edge"><title>Node5&#45;&gt;Node50</title>
<path fill="none" stroke="midnightblue" d="M1662.01,-347.444C1641.86,-338.596 1610.18,-324.687 1587.17,-314.586"/>
<polygon fill="midnightblue" stroke="midnightblue" points="1588.46,-311.332 1577.9,-310.516 1585.65,-317.741 1588.46,-311.332"/>
</g>
<!-- Node7 -->
<g id="node7" class="node"><title>Node7</title>
<g id="a_node7"><a xlink:href="d3d_util_8h.html" target="_top" xlink:title="../mt/d3dUtil.h">
<polygon fill="none" stroke="black" points="839.5,-168.5 839.5,-187.5 917.5,-187.5 917.5,-168.5 839.5,-168.5"/>
<text text-anchor="middle" x="878.5" y="-175.5" font-family="Helvetica,sans-Serif" font-size="10.00">../mt/d3dUtil.h</text>
</a>
</g>
</g>
<!-- Node6&#45;&gt;Node7 -->
<g id="edge8" class="edge"><title>Node6&#45;&gt;Node7</title>
<path fill="none" stroke="midnightblue" d="M898.594,-291.41C884.275,-284.04 866.042,-271.916 857.5,-255 847.996,-236.178 857.531,-212.492 866.635,-196.609"/>
<polygon fill="midnightblue" stroke="midnightblue" points="869.777,-198.184 872.074,-187.842 863.828,-194.494 869.777,-198.184"/>
</g>
<!-- Node18 -->
<g id="node18" class="node"><title>Node18</title>
<polygon fill="none" stroke="#bfbfbf" points="359,-56.5 359,-75.5 400,-75.5 400,-56.5 359,-56.5"/>
<text text-anchor="middle" x="379.5" y="-63.5" font-family="Helvetica,sans-Serif" font-size="10.00">string</text>
</g>
<!-- Node6&#45;&gt;Node18 -->
<g id="edge61" class="edge"><title>Node6&#45;&gt;Node18</title>
<path fill="none" stroke="midnightblue" d="M864.768,-291.482C739.939,-270.485 436.482,-212.077 377.5,-132 367.682,-118.671 369.767,-99.2877 373.34,-85.1575"/>
<polygon fill="midnightblue" stroke="midnightblue" points="376.698,-86.1461 376.191,-75.5635 369.988,-84.1526 376.698,-86.1461"/>
</g>
<!-- Node45 -->
<g id="node45" class="node"><title>Node45</title>
<g id="a_node45"><a xlink:href="_upload_buffer_8h.html" target="_top" xlink:title="../mt/UploadBuffer.h">
<polygon fill="none" stroke="black" points="867,-230 867,-249 970,-249 970,-230 867,-230"/>
<text text-anchor="middle" x="918.5" y="-237" font-family="Helvetica,sans-Serif" font-size="10.00">../mt/UploadBuffer.h</text>
</a>
</g>
</g>
<!-- Node6&#45;&gt;Node45 -->
<g id="edge56" class="edge"><title>Node6&#45;&gt;Node45</title>
<path fill="none" stroke="midnightblue" d="M918.5,-291.475C918.5,-283.08 918.5,-269.981 918.5,-259.163"/>
<polygon fill="midnightblue" stroke="midnightblue" points="922,-259.009 918.5,-249.009 915,-259.009 922,-259.009"/>
</g>
<!-- Node46 -->
<g id="node46" class="node"><title>Node46</title>
<g id="a_node46"><a xlink:href="_camera_8hpp.html" target="_top" xlink:title="../mt/Camera.hpp">
<polygon fill="none" stroke="black" points="988.5,-230 988.5,-249 1080.5,-249 1080.5,-230 988.5,-230"/>
<text text-anchor="middle" x="1034.5" y="-237" font-family="Helvetica,sans-Serif" font-size="10.00">../mt/Camera.hpp</text>
</a>
</g>
</g>
<!-- Node6&#45;&gt;Node46 -->
<g id="edge58" class="edge"><title>Node6&#45;&gt;Node46</title>
<path fill="none" stroke="midnightblue" d="M935.12,-291.475C954.415,-281.578 986.459,-265.142 1008.93,-253.615"/>
<polygon fill="midnightblue" stroke="midnightblue" points="1010.61,-256.687 1017.91,-249.009 1007.42,-250.459 1010.61,-256.687"/>
</g>
<!-- Node8 -->
<g id="node8" class="node"><title>Node8</title>
<g id="a_node8"><a xlink:href="utility_8hpp.html" target="_top" xlink:title="../mt/utility.hpp">
<polygon fill="none" stroke="black" points="1526.5,-112.5 1526.5,-131.5 1608.5,-131.5 1608.5,-112.5 1526.5,-112.5"/>
<text text-anchor="middle" x="1567.5" y="-119.5" font-family="Helvetica,sans-Serif" font-size="10.00">../mt/utility.hpp</text>
</a>
</g>
</g>
<!-- Node7&#45;&gt;Node8 -->
<g id="edge9" class="edge"><title>Node7&#45;&gt;Node8</title>
<path fill="none" stroke="midnightblue" d="M917.841,-175.653C1016.61,-171.966 1283.16,-160.133 1516.33,-131.868"/>
<polygon fill="midnightblue" stroke="midnightblue" points="1516.86,-135.329 1526.36,-130.64 1516.01,-128.381 1516.86,-135.329"/>
</g>
<!-- Node9 -->
<g id="node9" class="node"><title>Node9</title>
<polygon fill="none" stroke="#bfbfbf" points="1041.5,-56.5 1041.5,-75.5 1097.5,-75.5 1097.5,-56.5 1041.5,-56.5"/>
<text text-anchor="middle" x="1069.5" y="-63.5" font-family="Helvetica,sans-Serif" font-size="10.00">algorithm</text>
</g>
<!-- Node7&#45;&gt;Node9 -->
<g id="edge40" class="edge"><title>Node7&#45;&gt;Node9</title>
<path fill="none" stroke="midnightblue" d="M904.298,-168.476C926.776,-160.537 959.854,-147.597 986.5,-132 1010.98,-117.67 1036.24,-96.8675 1052.36,-82.6814"/>
<polygon fill="midnightblue" stroke="midnightblue" points="1054.79,-85.2097 1059.91,-75.9355 1050.12,-79.991 1054.79,-85.2097"/>
</g>
<!-- Node7&#45;&gt;Node18 -->
<g id="edge38" class="edge"><title>Node7&#45;&gt;Node18</title>
<path fill="none" stroke="midnightblue" d="M839.486,-176.024C729.963,-172.923 425.486,-161.691 392.5,-132 379.822,-120.589 377.467,-100.602 377.731,-85.7953"/>
<polygon fill="midnightblue" stroke="midnightblue" points="381.231,-85.8958 378.316,-75.7099 374.243,-85.4905 381.231,-85.8958"/>
</g>
<!-- Node22 -->
<g id="node22" class="node"><title>Node22</title>
<g id="a_node22"><a xlink:href="_math_helper_8h.html" target="_top" xlink:title="../mt/MathHelper.h">
<polygon fill="none" stroke="black" points="456.5,-56.5 456.5,-75.5 554.5,-75.5 554.5,-56.5 456.5,-56.5"/>
<text text-anchor="middle" x="505.5" y="-63.5" font-family="Helvetica,sans-Serif" font-size="10.00">../mt/MathHelper.h</text>
</a>
</g>
</g>
<!-- Node7&#45;&gt;Node22 -->
<g id="edge55" class="edge"><title>Node7&#45;&gt;Node22</title>
<path fill="none" stroke="midnightblue" d="M839.327,-175.672C740.73,-171.93 488.367,-159.71 463.5,-132 449.465,-116.36 468.257,-95.5684 485.003,-81.7576"/>
<polygon fill="midnightblue" stroke="midnightblue" points="487.175,-84.5024 492.907,-75.5918 482.869,-78.9832 487.175,-84.5024"/>
</g>
<!-- Node24 -->
<g id="node24" class="node"><title>Node24</title>
<polygon fill="none" stroke="#bfbfbf" points="301,-0.5 301,-19.5 378,-19.5 378,-0.5 301,-0.5"/>
<text text-anchor="middle" x="339.5" y="-7.5" font-family="Helvetica,sans-Serif" font-size="10.00">DirectXMath.h</text>
</g>
<!-- Node7&#45;&gt;Node24 -->
<g id="edge34" class="edge"><title>Node7&#45;&gt;Node24</title>
<path fill="none" stroke="midnightblue" d="M839.454,-175.665C728.243,-171.562 415.382,-157.826 377.5,-132 344.401,-109.435 339.155,-57.8303 338.89,-29.8583"/>
<polygon fill="midnightblue" stroke="midnightblue" points="342.391,-29.8193 339.004,-19.7802 335.391,-29.7398 342.391,-29.8193"/>
</g>
<!-- Node25 -->
<g id="node25" class="node"><title>Node25</title>
<polygon fill="none" stroke="#bfbfbf" points="406.5,-0.5 406.5,-19.5 452.5,-19.5 452.5,-0.5 406.5,-0.5"/>
<text text-anchor="middle" x="429.5" y="-7.5" font-family="Helvetica,sans-Serif" font-size="10.00">cstdint</text>
</g>
<!-- Node7&#45;&gt;Node25 -->
<g id="edge44" class="edge"><title>Node7&#45;&gt;Node25</title>
<path fill="none" stroke="midnightblue" d="M839.269,-175.416C739.825,-171.041 483.742,-157.405 455.5,-132 426.706,-106.099 425.57,-56.6849 427.419,-29.7097"/>
<polygon fill="midnightblue" stroke="midnightblue" points="430.913,-29.9298 428.322,-19.6567 423.941,-29.3034 430.913,-29.9298"/>
</g>
<!-- Node26 -->
<g id="node26" class="node"><title>Node26</title>
<polygon fill="none" stroke="#bfbfbf" points="1626.5,-112.5 1626.5,-131.5 1688.5,-131.5 1688.5,-112.5 1626.5,-112.5"/>
<text text-anchor="middle" x="1657.5" y="-119.5" font-family="Helvetica,sans-Serif" font-size="10.00">windows.h</text>
</g>
<!-- Node7&#45;&gt;Node26 -->
<g id="edge29" class="edge"><title>Node7&#45;&gt;Node26</title>
<path fill="none" stroke="midnightblue" d="M917.582,-176.822C1026.71,-175.86 1343.97,-169.874 1616.08,-131.974"/>
<polygon fill="midnightblue" stroke="midnightblue" points="1616.73,-135.417 1626.15,-130.555 1615.75,-128.485 1616.73,-135.417"/>
</g>
<!-- Node27 -->
<g id="node27" class="node"><title>Node27</title>
<polygon fill="none" stroke="#bfbfbf" points="118,-56.5 118,-75.5 155,-75.5 155,-56.5 118,-56.5"/>
<text text-anchor="middle" x="136.5" y="-63.5" font-family="Helvetica,sans-Serif" font-size="10.00">wrl.h</text>
</g>
<!-- Node7&#45;&gt;Node27 -->
<g id="edge30" class="edge"><title>Node7&#45;&gt;Node27</title>
<path fill="none" stroke="midnightblue" d="M839.481,-176.136C688.555,-172.607 150.195,-158.215 125.5,-132 113.767,-119.545 119.49,-99.4699 126.281,-84.922"/>
<polygon fill="midnightblue" stroke="midnightblue" points="129.465,-86.385 130.952,-75.8951 123.248,-83.1678 129.465,-86.385"/>
</g>
<!-- Node28 -->
<g id="node28" class="node"><title>Node28</title>
<polygon fill="none" stroke="#bfbfbf" points="473,-112.5 473,-131.5 532,-131.5 532,-112.5 473,-112.5"/>
<text text-anchor="middle" x="502.5" y="-119.5" font-family="Helvetica,sans-Serif" font-size="10.00">dxgi1_4.h</text>
</g>
<!-- Node7&#45;&gt;Node28 -->
<g id="edge31" class="edge"><title>Node7&#45;&gt;Node28</title>
<path fill="none" stroke="midnightblue" d="M839.395,-172.987C778.179,-166.442 655.832,-152.303 542.166,-131.963"/>
<polygon fill="midnightblue" stroke="midnightblue" points="542.714,-128.506 532.251,-130.169 541.468,-135.394 542.714,-128.506"/>
</g>
<!-- Node29 -->
<g id="node29" class="node"><title>Node29</title>
<polygon fill="none" stroke="#bfbfbf" points="0,-0.5 0,-19.5 51,-19.5 51,-0.5 0,-0.5"/>
<text text-anchor="middle" x="25.5" y="-7.5" font-family="Helvetica,sans-Serif" font-size="10.00">d3d12.h</text>
</g>
<!-- Node7&#45;&gt;Node29 -->
<g id="edge32" class="edge"><title>Node7&#45;&gt;Node29</title>
<path fill="none" stroke="midnightblue" d="M839.383,-176.085C689.636,-172.406 157.639,-157.637 86.5,-132 47.0279,-117.775 29.4226,-113.448 10.5,-76 3.00803,-61.1734 8.62069,-42.5556 15.0049,-29.0496"/>
<polygon fill="midnightblue" stroke="midnightblue" points="18.2778,-30.3454 19.833,-19.8654 12.0818,-27.0881 18.2778,-30.3454"/>
</g>
<!-- Node30 -->
<g id="node30" class="node"><title>Node30</title>
<polygon fill="none" stroke="#bfbfbf" points="550.5,-112.5 550.5,-131.5 630.5,-131.5 630.5,-112.5 550.5,-112.5"/>
<text text-anchor="middle" x="590.5" y="-119.5" font-family="Helvetica,sans-Serif" font-size="10.00">D3Dcompiler.h</text>
</g>
<!-- Node7&#45;&gt;Node30 -->
<g id="edge33" class="edge"><title>Node7&#45;&gt;Node30</title>
<path fill="none" stroke="midnightblue" d="M839.359,-169.661C787.96,-160.024 697.632,-143.087 641.094,-132.486"/>
<polygon fill="midnightblue" stroke="midnightblue" points="641.421,-128.987 630.948,-130.584 640.131,-135.867 641.421,-128.987"/>
</g>
<!-- Node31 -->
<g id="node31" class="node"><title>Node31</title>
<polygon fill="none" stroke="#bfbfbf" points="649,-112.5 649,-131.5 766,-131.5 766,-112.5 649,-112.5"/>
<text text-anchor="middle" x="707.5" y="-119.5" font-family="Helvetica,sans-Serif" font-size="10.00">DirectXPackedVector.h</text>
</g>
<!-- Node7&#45;&gt;Node31 -->
<g id="edge35" class="edge"><title>Node7&#45;&gt;Node31</title>
<path fill="none" stroke="midnightblue" d="M851.405,-168.444C822.512,-159.32 776.575,-144.813 744.395,-134.651"/>
<polygon fill="midnightblue" stroke="midnightblue" points="745.059,-131.19 734.469,-131.516 742.951,-137.865 745.059,-131.19"/>
</g>
<!-- Node32 -->
<g id="node32" class="node"><title>Node32</title>
<polygon fill="none" stroke="#bfbfbf" points="784,-112.5 784,-131.5 867,-131.5 867,-112.5 784,-112.5"/>
<text text-anchor="middle" x="825.5" y="-119.5" font-family="Helvetica,sans-Serif" font-size="10.00">DirectXColors.h</text>
</g>
<!-- Node7&#45;&gt;Node32 -->
<g id="edge36" class="edge"><title>Node7&#45;&gt;Node32</title>
<path fill="none" stroke="midnightblue" d="M869.748,-168.083C862.03,-160.22 850.595,-148.569 841.283,-139.081"/>
<polygon fill="midnightblue" stroke="midnightblue" points="843.592,-136.436 834.089,-131.751 838.596,-141.34 843.592,-136.436"/>
</g>
<!-- Node33 -->
<g id="node33" class="node"><title>Node33</title>
<polygon fill="none" stroke="#bfbfbf" points="885.5,-112.5 885.5,-131.5 977.5,-131.5 977.5,-112.5 885.5,-112.5"/>
<text text-anchor="middle" x="931.5" y="-119.5" font-family="Helvetica,sans-Serif" font-size="10.00">DirectXCollision.h</text>
</g>
<!-- Node7&#45;&gt;Node33 -->
<g id="edge37" class="edge"><title>Node7&#45;&gt;Node33</title>
<path fill="none" stroke="midnightblue" d="M887.252,-168.083C894.97,-160.22 906.405,-148.569 915.717,-139.081"/>
<polygon fill="midnightblue" stroke="midnightblue" points="918.404,-141.34 922.911,-131.751 913.408,-136.436 918.404,-141.34"/>
</g>
<!-- Node34 -->
<g id="node34" class="node"><title>Node34</title>
<polygon fill="none" stroke="#bfbfbf" points="1033.5,-112.5 1033.5,-131.5 1085.5,-131.5 1085.5,-112.5 1033.5,-112.5"/>
<text text-anchor="middle" x="1059.5" y="-119.5" font-family="Helvetica,sans-Serif" font-size="10.00">memory</text>
</g>
<!-- Node7&#45;&gt;Node34 -->
<g id="edge39" class="edge"><title>Node7&#45;&gt;Node34</title>
<path fill="none" stroke="midnightblue" d="M907.18,-168.444C938.753,-159.024 989.554,-143.868 1023.71,-133.677"/>
<polygon fill="midnightblue" stroke="midnightblue" points="1024.72,-137.028 1033.3,-130.815 1022.72,-130.32 1024.72,-137.028"/>
</g>
<!-- Node35 -->
<g id="node35" class="node"><title>Node35</title>
<polygon fill="none" stroke="#bfbfbf" points="1103.5,-112.5 1103.5,-131.5 1145.5,-131.5 1145.5,-112.5 1103.5,-112.5"/>
<text text-anchor="middle" x="1124.5" y="-119.5" font-family="Helvetica,sans-Serif" font-size="10.00">vector</text>
</g>
<!-- Node7&#45;&gt;Node35 -->
<g id="edge41" class="edge"><title>Node7&#45;&gt;Node35</title>
<path fill="none" stroke="midnightblue" d="M917.753,-169.875C959.178,-162.123 1026.55,-148.858 1093.4,-132.114"/>
<polygon fill="midnightblue" stroke="midnightblue" points="1094.42,-135.466 1103.26,-129.619 1092.7,-128.68 1094.42,-135.466"/>
</g>
<!-- Node36 -->
<g id="node36" class="node"><title>Node36</title>
<polygon fill="none" stroke="#bfbfbf" points="1163.5,-112.5 1163.5,-131.5 1201.5,-131.5 1201.5,-112.5 1163.5,-112.5"/>
<text text-anchor="middle" x="1182.5" y="-119.5" font-family="Helvetica,sans-Serif" font-size="10.00">array</text>
</g>
<!-- Node7&#45;&gt;Node36 -->
<g id="edge42" class="edge"><title>Node7&#45;&gt;Node36</title>
<path fill="none" stroke="midnightblue" d="M917.717,-172.48C969.669,-166.084 1064.24,-153.022 1153.58,-131.918"/>
<polygon fill="midnightblue" stroke="midnightblue" points="1154.42,-135.317 1163.33,-129.579 1152.79,-128.51 1154.42,-135.317"/>
</g>
<!-- Node37 -->
<g id="node37" class="node"><title>Node37</title>
<polygon fill="none" stroke="#bfbfbf" points="1220,-112.5 1220,-131.5 1303,-131.5 1303,-112.5 1220,-112.5"/>
<text text-anchor="middle" x="1261.5" y="-119.5" font-family="Helvetica,sans-Serif" font-size="10.00">unordered_map</text>
</g>
<!-- Node7&#45;&gt;Node37 -->
<g id="edge43" class="edge"><title>Node7&#45;&gt;Node37</title>
<path fill="none" stroke="midnightblue" d="M917.672,-172.205C978.024,-164.706 1097.62,-149.399 1209.65,-132.077"/>
<polygon fill="midnightblue" stroke="midnightblue" points="1210.43,-135.498 1219.77,-130.503 1209.35,-128.581 1210.43,-135.498"/>
</g>
<!-- Node38 -->
<g id="node38" class="node"><title>Node38</title>
<polygon fill="none" stroke="#bfbfbf" points="1321,-112.5 1321,-131.5 1370,-131.5 1370,-112.5 1321,-112.5"/>
<text text-anchor="middle" x="1345.5" y="-119.5" font-family="Helvetica,sans-Serif" font-size="10.00">fstream</text>
</g>
<!-- Node7&#45;&gt;Node38 -->
<g id="edge45" class="edge"><title>Node7&#45;&gt;Node38</title>
<path fill="none" stroke="midnightblue" d="M917.602,-174.975C992.238,-170.67 1160.23,-158.871 1310.82,-131.838"/>
<polygon fill="midnightblue" stroke="midnightblue" points="1311.51,-135.272 1320.72,-130.036 1310.25,-128.385 1311.51,-135.272"/>
</g>
<!-- Node39 -->
<g id="node39" class="node"><title>Node39</title>
<polygon fill="none" stroke="#bfbfbf" points="1388.5,-112.5 1388.5,-131.5 1440.5,-131.5 1440.5,-112.5 1388.5,-112.5"/>
<text text-anchor="middle" x="1414.5" y="-119.5" font-family="Helvetica,sans-Serif" font-size="10.00">sstream</text>
</g>
<!-- Node7&#45;&gt;Node39 -->
<g id="edge46" class="edge"><title>Node7&#45;&gt;Node39</title>
<path fill="none" stroke="midnightblue" d="M917.663,-175.544C1000.72,-172.012 1200.74,-161.161 1378.21,-131.75"/>
<polygon fill="midnightblue" stroke="midnightblue" points="1378.97,-135.171 1388.25,-130.062 1377.81,-128.268 1378.97,-135.171"/>
</g>
<!-- Node40 -->
<g id="node40" class="node"><title>Node40</title>
<polygon fill="none" stroke="#bfbfbf" points="1459,-112.5 1459,-131.5 1508,-131.5 1508,-112.5 1459,-112.5"/>
<text text-anchor="middle" x="1483.5" y="-119.5" font-family="Helvetica,sans-Serif" font-size="10.00">cassert</text>
</g>
<!-- Node7&#45;&gt;Node40 -->
<g id="edge47" class="edge"><title>Node7&#45;&gt;Node40</title>
<path fill="none" stroke="midnightblue" d="M917.569,-176.34C1008.95,-174.28 1243.76,-166 1448.69,-131.809"/>
<polygon fill="midnightblue" stroke="midnightblue" points="1449.46,-135.229 1458.73,-130.108 1448.29,-128.327 1449.46,-135.229"/>
</g>
<!-- Node41 -->
<g id="node41" class="node"><title>Node41</title>
<g id="a_node41"><a xlink:href="d3dx12_8h.html" target="_top" xlink:title="../mt/d3dx12.h">
<polygon fill="none" stroke="black" points="19.5,-56.5 19.5,-75.5 99.5,-75.5 99.5,-56.5 19.5,-56.5"/>
<text text-anchor="middle" x="59.5" y="-63.5" font-family="Helvetica,sans-Serif" font-size="10.00">../mt/d3dx12.h</text>
</a>
</g>
</g>
<!-- Node7&#45;&gt;Node41 -->
<g id="edge48" class="edge"><title>Node7&#45;&gt;Node41</title>
<path fill="none" stroke="midnightblue" d="M839.373,-176.47C692.708,-174.242 180.622,-164.206 115.5,-132 94.7131,-121.72 78.4978,-99.9032 68.9817,-84.3841"/>
<polygon fill="midnightblue" stroke="midnightblue" points="71.9864,-82.5885 63.9413,-75.6945 65.9313,-86.1008 71.9864,-82.5885"/>
</g>
<!-- Node42 -->
<g id="node42" class="node"><title>Node42</title>
<g id="a_node42"><a xlink:href="_d_d_s_texture_loader_8h.html" target="_top" xlink:title="../mt/DDSTextureLoader.h">
<polygon fill="none" stroke="black" points="134.5,-112.5 134.5,-131.5 264.5,-131.5 264.5,-112.5 134.5,-112.5"/>
<text text-anchor="middle" x="199.5" y="-119.5" font-family="Helvetica,sans-Serif" font-size="10.00">../mt/DDSTextureLoader.h</text>
</a>
</g>
</g>
<!-- Node7&#45;&gt;Node42 -->
<g id="edge50" class="edge"><title>Node7&#45;&gt;Node42</title>
<path fill="none" stroke="midnightblue" d="M839.059,-173.863C729.258,-165.131 418.677,-140.431 274.612,-128.974"/>
<polygon fill="midnightblue" stroke="midnightblue" points="274.779,-125.476 264.533,-128.172 274.224,-132.454 274.779,-125.476"/>
</g>
<!-- Node8&#45;&gt;Node2 -->
<g id="edge11" class="edge"><title>Node8&#45;&gt;Node2</title>
<path fill="none" stroke="midnightblue" d="M1608.67,-113.429C1611.66,-112.929 1614.62,-112.448 1617.5,-112 1735.66,-93.6133 1769.32,-99.858 1891.07,-75.8084"/>
<polygon fill="midnightblue" stroke="midnightblue" points="1892.04,-79.1835 1901.16,-73.7867 1890.66,-72.3199 1892.04,-79.1835"/>
</g>
<!-- Node8&#45;&gt;Node4 -->
<g id="edge18" class="edge"><title>Node8&#45;&gt;Node4</title>
<path fill="none" stroke="midnightblue" d="M1608.69,-113.549C1611.67,-113.021 1614.63,-112.5 1617.5,-112 1708.94,-96.0436 1735.18,-97.3122 1829.9,-75.9021"/>
<polygon fill="midnightblue" stroke="midnightblue" points="1830.93,-79.2553 1839.9,-73.6144 1829.37,-72.4314 1830.93,-79.2553"/>
</g>
<!-- Node8&#45;&gt;Node9 -->
<g id="edge10" class="edge"><title>Node8&#45;&gt;Node9</title>
<path fill="none" stroke="midnightblue" d="M1526.35,-113.467C1523.02,-112.941 1519.71,-112.444 1516.5,-112 1476.49,-106.463 1208.5,-80.4176 1107.72,-70.6829"/>
<polygon fill="midnightblue" stroke="midnightblue" points="1107.96,-67.1896 1097.67,-69.7123 1107.28,-74.1572 1107.96,-67.1896"/>
</g>
<!-- Node10 -->
<g id="node10" class="node"><title>Node10</title>
<polygon fill="none" stroke="#bfbfbf" points="1174.5,-56.5 1174.5,-75.5 1218.5,-75.5 1218.5,-56.5 1174.5,-56.5"/>
<text text-anchor="middle" x="1196.5" y="-63.5" font-family="Helvetica,sans-Serif" font-size="10.00">cmath</text>
</g>
<!-- Node8&#45;&gt;Node10 -->
<g id="edge12" class="edge"><title>Node8&#45;&gt;Node10</title>
<path fill="none" stroke="midnightblue" d="M1526.33,-113.551C1523.01,-113.005 1519.7,-112.481 1516.5,-112 1391.75,-93.2355 1356.07,-101.668 1228.88,-75.9935"/>
<polygon fill="midnightblue" stroke="midnightblue" points="1229.24,-72.4963 1218.75,-73.9163 1227.84,-79.3536 1229.24,-72.4963"/>
</g>
<!-- Node11 -->
<g id="node11" class="node"><title>Node11</title>
<polygon fill="none" stroke="#bfbfbf" points="1237,-56.5 1237,-75.5 1286,-75.5 1286,-56.5 1237,-56.5"/>
<text text-anchor="middle" x="1261.5" y="-63.5" font-family="Helvetica,sans-Serif" font-size="10.00">cstdarg</text>
</g>
<!-- Node8&#45;&gt;Node11 -->
<g id="edge13" class="edge"><title>Node8&#45;&gt;Node11</title>
<path fill="none" stroke="midnightblue" d="M1526.31,-113.681C1522.99,-113.107 1519.69,-112.54 1516.5,-112 1421.12,-95.8519 1393.92,-97.0785 1296.29,-76.2226"/>
<polygon fill="midnightblue" stroke="midnightblue" points="1296.81,-72.7544 1286.3,-74.0642 1295.33,-79.5967 1296.81,-72.7544"/>
</g>
<!-- Node12 -->
<g id="node12" class="node"><title>Node12</title>
<polygon fill="none" stroke="#bfbfbf" points="1304,-56.5 1304,-75.5 1347,-75.5 1347,-56.5 1304,-56.5"/>
<text text-anchor="middle" x="1325.5" y="-63.5" font-family="Helvetica,sans-Serif" font-size="10.00">deque</text>
</g>
<!-- Node8&#45;&gt;Node12 -->
<g id="edge14" class="edge"><title>Node8&#45;&gt;Node12</title>
<path fill="none" stroke="midnightblue" d="M1526.23,-113.284C1485.43,-105.425 1421.04,-92.4024 1356.94,-76.2195"/>
<polygon fill="midnightblue" stroke="midnightblue" points="1357.63,-72.7829 1347.07,-73.7026 1355.9,-79.5657 1357.63,-72.7829"/>
</g>
<!-- Node13 -->
<g id="node13" class="node"><title>Node13</title>
<polygon fill="none" stroke="#bfbfbf" points="1365,-56.5 1365,-75.5 1426,-75.5 1426,-56.5 1365,-56.5"/>
<text text-anchor="middle" x="1395.5" y="-63.5" font-family="Helvetica,sans-Serif" font-size="10.00">filesystem</text>
</g>
<!-- Node8&#45;&gt;Node13 -->
<g id="edge15" class="edge"><title>Node8&#45;&gt;Node13</title>
<path fill="none" stroke="midnightblue" d="M1540.25,-112.444C1511.06,-103.28 1464.58,-88.6876 1432.19,-78.5192"/>
<polygon fill="midnightblue" stroke="midnightblue" points="1433.22,-75.1726 1422.63,-75.5164 1431.12,-81.8512 1433.22,-75.1726"/>
</g>
<!-- Node14 -->
<g id="node14" class="node"><title>Node14</title>
<polygon fill="none" stroke="#bfbfbf" points="1444,-56.5 1444,-75.5 1473,-75.5 1473,-56.5 1444,-56.5"/>
<text text-anchor="middle" x="1458.5" y="-63.5" font-family="Helvetica,sans-Serif" font-size="10.00">list</text>
</g>
<!-- Node8&#45;&gt;Node14 -->
<g id="edge16" class="edge"><title>Node8&#45;&gt;Node14</title>
<path fill="none" stroke="midnightblue" d="M1549.99,-112.324C1531.6,-103.213 1502.57,-88.8309 1482.15,-78.7162"/>
<polygon fill="midnightblue" stroke="midnightblue" points="1483.69,-75.5726 1473.17,-74.2695 1480.58,-81.845 1483.69,-75.5726"/>
</g>
<!-- Node15 -->
<g id="node15" class="node"><title>Node15</title>
<polygon fill="none" stroke="#bfbfbf" points="1491,-56.5 1491,-75.5 1526,-75.5 1526,-56.5 1491,-56.5"/>
<text text-anchor="middle" x="1508.5" y="-63.5" font-family="Helvetica,sans-Serif" font-size="10.00">map</text>
</g>
<!-- Node8&#45;&gt;Node15 -->
<g id="edge17" class="edge"><title>Node8&#45;&gt;Node15</title>
<path fill="none" stroke="midnightblue" d="M1558.02,-112.324C1549.3,-104.341 1536.16,-92.3128 1525.6,-82.6529"/>
<polygon fill="midnightblue" stroke="midnightblue" points="1527.89,-80.0036 1518.15,-75.8339 1523.17,-85.1674 1527.89,-80.0036"/>
</g>
<!-- Node16 -->
<g id="node16" class="node"><title>Node16</title>
<polygon fill="none" stroke="#bfbfbf" points="1544,-56.5 1544,-75.5 1579,-75.5 1579,-56.5 1544,-56.5"/>
<text text-anchor="middle" x="1561.5" y="-63.5" font-family="Helvetica,sans-Serif" font-size="10.00">ratio</text>
</g>
<!-- Node8&#45;&gt;Node16 -->
<g id="edge19" class="edge"><title>Node8&#45;&gt;Node16</title>
<path fill="none" stroke="midnightblue" d="M1566.51,-112.083C1565.71,-104.927 1564.57,-94.6353 1563.58,-85.6911"/>
<polygon fill="midnightblue" stroke="midnightblue" points="1567.06,-85.3034 1562.47,-75.7511 1560.1,-86.0765 1567.06,-85.3034"/>
</g>
<!-- Node17 -->
<g id="node17" class="node"><title>Node17</title>
<polygon fill="none" stroke="#bfbfbf" points="1597.5,-56.5 1597.5,-75.5 1627.5,-75.5 1627.5,-56.5 1597.5,-56.5"/>
<text text-anchor="middle" x="1612.5" y="-63.5" font-family="Helvetica,sans-Serif" font-size="10.00">set</text>
</g>
<!-- Node8&#45;&gt;Node17 -->
<g id="edge20" class="edge"><title>Node8&#45;&gt;Node17</title>
<path fill="none" stroke="midnightblue" d="M1574.93,-112.083C1581.35,-104.377 1590.81,-93.0333 1598.62,-83.6531"/>
<polygon fill="midnightblue" stroke="midnightblue" points="1601.49,-85.674 1605.21,-75.7511 1596.12,-81.1927 1601.49,-85.674"/>
</g>
<!-- Node8&#45;&gt;Node18 -->
<g id="edge21" class="edge"><title>Node8&#45;&gt;Node18</title>
<path fill="none" stroke="midnightblue" d="M1526.37,-113.23C1523.04,-112.756 1519.72,-112.337 1516.5,-112 1043.7,-62.5701 921.259,-115.234 447.5,-76 435.324,-74.9917 421.986,-73.3461 410.373,-71.7359"/>
<polygon fill="midnightblue" stroke="midnightblue" points="410.672,-68.243 400.276,-70.2865 409.677,-75.172 410.672,-68.243"/>
</g>
<!-- Node19 -->
<g id="node19" class="node"><title>Node19</title>
<polygon fill="none" stroke="#bfbfbf" points="1645.5,-56.5 1645.5,-75.5 1707.5,-75.5 1707.5,-56.5 1645.5,-56.5"/>
<text text-anchor="middle" x="1676.5" y="-63.5" font-family="Helvetica,sans-Serif" font-size="10.00">type_traits</text>
</g>
<!-- Node8&#45;&gt;Node19 -->
<g id="edge22" class="edge"><title>Node8&#45;&gt;Node19</title>
<path fill="none" stroke="midnightblue" d="M1585.01,-112.324C1602.57,-103.625 1629.83,-90.1202 1650.03,-80.113"/>
<polygon fill="midnightblue" stroke="midnightblue" points="1651.62,-83.23 1659.03,-75.6545 1648.52,-76.9575 1651.62,-83.23"/>
</g>
<!-- Node20 -->
<g id="node20" class="node"><title>Node20</title>
<polygon fill="none" stroke="#bfbfbf" points="1725.5,-56.5 1725.5,-75.5 1763.5,-75.5 1763.5,-56.5 1725.5,-56.5"/>
<text text-anchor="middle" x="1744.5" y="-63.5" font-family="Helvetica,sans-Serif" font-size="10.00">tuple</text>
</g>
<!-- Node8&#45;&gt;Node20 -->
<g id="edge23" class="edge"><title>Node8&#45;&gt;Node20</title>
<path fill="none" stroke="midnightblue" d="M1596.39,-112.44C1624.5,-104.073 1668.67,-90.8337 1715.52,-76.2697"/>
<polygon fill="midnightblue" stroke="midnightblue" points="1716.73,-79.5587 1725.23,-73.2419 1714.65,-72.8757 1716.73,-79.5587"/>
</g>
<!-- Node21 -->
<g id="node21" class="node"><title>Node21</title>
<polygon fill="none" stroke="#bfbfbf" points="1781.5,-56.5 1781.5,-75.5 1821.5,-75.5 1821.5,-56.5 1781.5,-56.5"/>
<text text-anchor="middle" x="1801.5" y="-63.5" font-family="Helvetica,sans-Serif" font-size="10.00">utility</text>
</g>
<!-- Node8&#45;&gt;Node21 -->
<g id="edge24" class="edge"><title>Node8&#45;&gt;Node21</title>
<path fill="none" stroke="midnightblue" d="M1608.59,-113.049C1648.04,-105.177 1709.5,-92.296 1771.35,-76.1361"/>
<polygon fill="midnightblue" stroke="midnightblue" points="1772.51,-79.4518 1781.28,-73.5146 1770.72,-72.6837 1772.51,-79.4518"/>
</g>
<!-- Node8&#45;&gt;Node22 -->
<g id="edge25" class="edge"><title>Node8&#45;&gt;Node22</title>
<path fill="none" stroke="midnightblue" d="M1526.37,-113.268C1523.04,-112.786 1519.72,-112.354 1516.5,-112 1156.71,-72.417 721.255,-67.3998 564.926,-66.9496"/>
<polygon fill="midnightblue" stroke="midnightblue" points="564.605,-63.449 554.597,-66.9255 564.588,-70.4489 564.605,-63.449"/>
</g>
<!-- Node23 -->
<g id="node23" class="node"><title>Node23</title>
<polygon fill="none" stroke="#bfbfbf" points="473,-0.5 473,-19.5 538,-19.5 538,-0.5 473,-0.5"/>
<text text-anchor="middle" x="505.5" y="-7.5" font-family="Helvetica,sans-Serif" font-size="10.00">Windows.h</text>
</g>
<!-- Node22&#45;&gt;Node23 -->
<g id="edge26" class="edge"><title>Node22&#45;&gt;Node23</title>
<path fill="none" stroke="midnightblue" d="M505.5,-56.083C505.5,-49.0059 505.5,-38.8611 505.5,-29.9865"/>
<polygon fill="midnightblue" stroke="midnightblue" points="509,-29.751 505.5,-19.7511 502,-29.7511 509,-29.751"/>
</g>
<!-- Node22&#45;&gt;Node24 -->
<g id="edge27" class="edge"><title>Node22&#45;&gt;Node24</title>
<path fill="none" stroke="midnightblue" d="M479.197,-56.4435C451.149,-47.3196 406.556,-32.8133 375.316,-22.6509"/>
<polygon fill="midnightblue" stroke="midnightblue" points="376.272,-19.2816 365.68,-19.5164 374.107,-25.9383 376.272,-19.2816"/>
</g>
<!-- Node22&#45;&gt;Node25 -->
<g id="edge28" class="edge"><title>Node22&#45;&gt;Node25</title>
<path fill="none" stroke="midnightblue" d="M493.289,-56.324C481.724,-48.1066 464.125,-35.6017 450.339,-25.8069"/>
<polygon fill="midnightblue" stroke="midnightblue" points="452.112,-22.7729 441.933,-19.8339 448.057,-28.4791 452.112,-22.7729"/>
</g>
<!-- Node41&#45;&gt;Node29 -->
<g id="edge49" class="edge"><title>Node41&#45;&gt;Node29</title>
<path fill="none" stroke="midnightblue" d="M53.8856,-56.083C49.1326,-48.5341 42.1819,-37.4948 36.3484,-28.2298"/>
<polygon fill="midnightblue" stroke="midnightblue" points="39.2999,-26.3486 31.0099,-19.7511 33.3763,-30.0783 39.2999,-26.3486"/>
</g>
<!-- Node42&#45;&gt;Node27 -->
<g id="edge51" class="edge"><title>Node42&#45;&gt;Node27</title>
<path fill="none" stroke="midnightblue" d="M189.378,-112.324C179.974,-104.263 165.756,-92.0765 154.431,-82.3695"/>
<polygon fill="midnightblue" stroke="midnightblue" points="156.677,-79.6844 146.806,-75.8339 152.121,-84.9993 156.677,-79.6844"/>
</g>
<!-- Node42&#45;&gt;Node41 -->
<g id="edge53" class="edge"><title>Node42&#45;&gt;Node41</title>
<path fill="none" stroke="midnightblue" d="M177.317,-112.444C154.072,-103.478 117.351,-89.314 91.0848,-79.1827"/>
<polygon fill="midnightblue" stroke="midnightblue" points="92.1692,-75.8497 81.5796,-75.5164 89.6501,-82.3807 92.1692,-75.8497"/>
</g>
<!-- Node43 -->
<g id="node43" class="node"><title>Node43</title>
<polygon fill="none" stroke="#bfbfbf" points="240.5,-56.5 240.5,-75.5 302.5,-75.5 302.5,-56.5 240.5,-56.5"/>
<text text-anchor="middle" x="271.5" y="-63.5" font-family="Helvetica,sans-Serif" font-size="10.00">d3d11_1.h</text>
</g>
<!-- Node42&#45;&gt;Node43 -->
<g id="edge52" class="edge"><title>Node42&#45;&gt;Node43</title>
<path fill="none" stroke="midnightblue" d="M211.068,-112.324C221.92,-104.185 238.381,-91.8395 251.383,-82.0874"/>
<polygon fill="midnightblue" stroke="midnightblue" points="253.821,-84.6339 259.721,-75.8339 249.621,-79.0339 253.821,-84.6339"/>
</g>
<!-- Node44 -->
<g id="node44" class="node"><title>Node44</title>
<polygon fill="none" stroke="#bfbfbf" points="173,-56.5 173,-75.5 222,-75.5 222,-56.5 173,-56.5"/>
<text text-anchor="middle" x="197.5" y="-63.5" font-family="Helvetica,sans-Serif" font-size="10.00">stdint.h</text>
</g>
<!-- Node42&#45;&gt;Node44 -->
<g id="edge54" class="edge"><title>Node42&#45;&gt;Node44</title>
<path fill="none" stroke="midnightblue" d="M199.17,-112.083C198.908,-105.006 198.532,-94.8611 198.203,-85.9865"/>
<polygon fill="midnightblue" stroke="midnightblue" points="201.692,-85.6147 197.824,-75.7511 194.697,-85.8738 201.692,-85.6147"/>
</g>
<!-- Node45&#45;&gt;Node7 -->
<g id="edge57" class="edge"><title>Node45&#45;&gt;Node7</title>
<path fill="none" stroke="midnightblue" d="M912.769,-229.975C906.828,-221.138 897.383,-207.089 889.912,-195.975"/>
<polygon fill="midnightblue" stroke="midnightblue" points="892.704,-193.855 884.22,-187.509 886.895,-197.761 892.704,-193.855"/>
</g>
<!-- Node46&#45;&gt;Node7 -->
<g id="edge60" class="edge"><title>Node46&#45;&gt;Node7</title>
<path fill="none" stroke="midnightblue" d="M1012.15,-229.975C985.505,-219.813 940.786,-202.756 910.486,-191.2"/>
<polygon fill="midnightblue" stroke="midnightblue" points="911.4,-187.803 900.81,-187.509 908.906,-194.343 911.4,-187.803"/>
</g>
<!-- Node46&#45;&gt;Node8 -->
<g id="edge59" class="edge"><title>Node46&#45;&gt;Node8</title>
<path fill="none" stroke="midnightblue" d="M1074.13,-229.913C1169.74,-209.194 1412.93,-156.495 1517.95,-133.737"/>
<polygon fill="midnightblue" stroke="midnightblue" points="1518.94,-137.103 1527.98,-131.565 1517.46,-130.262 1518.94,-137.103"/>
</g>
<!-- Node47&#45;&gt;Node8 -->
<g id="edge63" class="edge"><title>Node47&#45;&gt;Node8</title>
<path fill="none" stroke="midnightblue" d="M1650.57,-224.362C1634.13,-215.674 1614.49,-203.275 1600.5,-188 1588.1,-174.465 1579.16,-155.404 1573.74,-141.422"/>
<polygon fill="midnightblue" stroke="midnightblue" points="1576.98,-140.1 1570.28,-131.896 1570.4,-142.49 1576.98,-140.1"/>
</g>
<!-- Node48 -->
<g id="node48" class="node"><title>Node48</title>
<g id="a_node48"><a xlink:href="_windows_message_handler_8hpp.html" target="_top" xlink:title="../mt/WindowsMessageHandler.hpp">
<polygon fill="none" stroke="black" points="1610,-168.5 1610,-187.5 1781,-187.5 1781,-168.5 1610,-168.5"/>
<text text-anchor="middle" x="1695.5" y="-175.5" font-family="Helvetica,sans-Serif" font-size="10.00">../mt/WindowsMessageHandler.hpp</text>
</a>
</g>
</g>
<!-- Node47&#45;&gt;Node48 -->
<g id="edge64" class="edge"><title>Node47&#45;&gt;Node48</title>
<path fill="none" stroke="midnightblue" d="M1684.82,-224.399C1686.71,-216.377 1689.09,-206.233 1691.13,-197.569"/>
<polygon fill="midnightblue" stroke="midnightblue" points="1694.58,-198.194 1693.46,-187.658 1687.77,-196.59 1694.58,-198.194"/>
</g>
<!-- Node48&#45;&gt;Node26 -->
<g id="edge65" class="edge"><title>Node48&#45;&gt;Node26</title>
<path fill="none" stroke="midnightblue" d="M1689.23,-168.083C1683.86,-160.455 1675.98,-149.264 1669.42,-139.941"/>
<polygon fill="midnightblue" stroke="midnightblue" points="1672.28,-137.915 1663.66,-131.751 1666.55,-141.943 1672.28,-137.915"/>
</g>
<!-- Node49 -->
<g id="node49" class="node"><title>Node49</title>
<polygon fill="none" stroke="#bfbfbf" points="1706.5,-112.5 1706.5,-131.5 1776.5,-131.5 1776.5,-112.5 1706.5,-112.5"/>
<text text-anchor="middle" x="1741.5" y="-119.5" font-family="Helvetica,sans-Serif" font-size="10.00">WindowsX.h</text>
</g>
<!-- Node48&#45;&gt;Node49 -->
<g id="edge66" class="edge"><title>Node48&#45;&gt;Node49</title>
<path fill="none" stroke="midnightblue" d="M1703.1,-168.083C1709.73,-160.298 1719.52,-148.801 1727.56,-139.367"/>
<polygon fill="midnightblue" stroke="midnightblue" points="1730.23,-141.633 1734.05,-131.751 1724.9,-137.094 1730.23,-141.633"/>
</g>
<!-- Node50&#45;&gt;Node8 -->
<g id="edge68" class="edge"><title>Node50&#45;&gt;Node8</title>
<path fill="none" stroke="midnightblue" d="M1558.93,-291.463C1560.31,-264.428 1564.59,-180.239 1566.53,-142.109"/>
<polygon fill="midnightblue" stroke="midnightblue" points="1570.04,-142.033 1567.05,-131.868 1563.05,-141.678 1570.04,-142.033"/>
</g>
</g>
</svg>
        <g id="navigator" transform="translate(0 0)" fill="#404254">
                <rect fill="#f2f5e9" fill-opacity="0.5" stroke="#606060" stroke-width=".5" x="0" y="0" width="60" height="60"/>
                <use id="zoomplus" xlink:href="#zoomPlus" x="17" y="9" onmousedown="handleZoom(evt,'in')"/>
                <use id="zoomminus" xlink:href="#zoomMin" x="42" y="9" onmousedown="handleZoom(evt,'out')"/>
                <use id="reset" xlink:href="#resetDef" x="30" y="36" onmousedown="handleReset()"/>
                <g id="arrowUp" xlink:href="#dirArrow" transform="translate(30 24)" onmousedown="handlePan(0,-1)">
                  <use xlink:href="#rim" fill="#404040">
                        <set attributeName="fill" to="#808080" begin="arrowUp.mouseover" end="arrowUp.mouseout"/>
                  </use>
                  <path fill="none" stroke="white" stroke-width="1.5" d="M0,-3.0v7 M-2.5,-0.5L0,-3.0L2.5,-0.5"/>
                </g>
                <g id="arrowRight" xlink:href="#dirArrow" transform="rotate(90) translate(36 -43)" onmousedown="handlePan(1,0)">
                  <use xlink:href="#rim" fill="#404040">
                        <set attributeName="fill" to="#808080" begin="arrowRight.mouseover" end="arrowRight.mouseout"/>
                  </use>
                  <path fill="none" stroke="white" stroke-width="1.5" d="M0,-3.0v7 M-2.5,-0.5L0,-3.0L2.5,-0.5"/>
                </g>
                <g id="arrowDown" xlink:href="#dirArrow" transform="rotate(180) translate(-30 -48)" onmousedown="handlePan(0,1)">
                  <use xlink:href="#rim" fill="#404040">
                        <set attributeName="fill" to="#808080" begin="arrowDown.mouseover" end="arrowDown.mouseout"/>
                  </use>
                  <path fill="none" stroke="white" stroke-width="1.5" d="M0,-3.0v7 M-2.5,-0.5L0,-3.0L2.5,-0.5"/>
                </g>
                <g id="arrowLeft" xlink:href="#dirArrow" transform="rotate(270) translate(-36 17)" onmousedown="handlePan(-1,0)">
                  <use xlink:href="#rim" fill="#404040">
                        <set attributeName="fill" to="#808080" begin="arrowLeft.mouseover" end="arrowLeft.mouseout"/>
                  </use>
                  <path fill="none" stroke="white" stroke-width="1.5" d="M0,-3.0v7 M-2.5,-0.5L0,-3.0L2.5,-0.5"/>
                </g>
        </g>
        <svg viewBox="0 0 15 15" width="100%" height="30px" preserveAspectRatio="xMaxYMin meet">
         <g id="arrow_out" transform="scale(0.3 0.3)">
          <a xlink:href="_game_timer_8cpp__incl_org.svg" target="_base">
           <rect id="button" ry="5" rx="5" y="6" x="6" height="38" width="38"
                fill="#f2f5e9" fill-opacity="0.5" stroke="#606060" stroke-width="1.0"/>
           <path id="arrow"
             d="M 11.500037,31.436501 C 11.940474,20.09759 22.043105,11.32322 32.158766,21.979434 L 37.068811,17.246167 C 37.068811,17.246167 37.088388,32 37.088388,32 L 22.160133,31.978069 C 22.160133,31.978069 26.997745,27.140456 26.997745,27.140456 C 18.528582,18.264221 13.291696,25.230495 11.500037,31.436501 z"
             style="fill:#404040;"/>
          </a>
         </g>
        </svg>
</svg>
