<?xml version="1.0" encoding="UTF-8" standalone="no"?>
<!DOCTYPE svg PUBLIC "-//W3C//DTD SVG 1.1//EN"
 "http://www.w3.org/Graphics/SVG/1.1/DTD/svg11.dtd">
<!-- Generated by graphviz version 2.38.0 (20140413.2041)
 -->
<!-- Title: C:/Users/micho/Desktop/mt_engine/mt/GeometryGenerator.cpp Pages: 1 -->
<svg width="254pt" height="151pt"
 viewBox="0.00 0.00 254.00 151.00" xmlns="http://www.w3.org/2000/svg" xmlns:xlink="http://www.w3.org/1999/xlink">
<g id="graph0" class="graph" transform="scale(1 1) rotate(0) translate(4 147)">
<title>C:/Users/micho/Desktop/mt_engine/mt/GeometryGenerator.cpp</title>
<!-- Node1 -->
<g id="node1" class="node"><title>Node1</title>
<polygon fill="#bfbfbf" stroke="black" points="60,-112.5 60,-142.5 246,-142.5 246,-112.5 60,-112.5"/>
<text text-anchor="start" x="68" y="-130.5" font-family="Helvetica,sans-Serif" font-size="10.00">C:/Users/micho/Desktop</text>
<text text-anchor="middle" x="153" y="-119.5" font-family="Helvetica,sans-Serif" font-size="10.00">/mt_engine/mt/GeometryGenerator.cpp</text>
</g>
<!-- Node2 -->
<g id="node2" class="node"><title>Node2</title>
<g id="a_node2"><a xlink:href="_geometry_generator_8h.html" target="_top" xlink:title="GeometryGenerator.h">
<polygon fill="none" stroke="black" points="48,-56.5 48,-75.5 158,-75.5 158,-56.5 48,-56.5"/>
<text text-anchor="middle" x="103" y="-63.5" font-family="Helvetica,sans-Serif" font-size="10.00">GeometryGenerator.h</text>
</a>
</g>
</g>
<!-- Node1&#45;&gt;Node2 -->
<g id="edge1" class="edge"><title>Node1&#45;&gt;Node2</title>
<path fill="none" stroke="midnightblue" d="M141.151,-112.399C133.885,-103.753 124.548,-92.642 116.929,-83.576"/>
<polygon fill="midnightblue" stroke="midnightblue" points="119.388,-81.0619 110.275,-75.6578 114.029,-85.5653 119.388,-81.0619"/>
</g>
<!-- Node6 -->
<g id="node6" class="node"><title>Node6</title>
<polygon fill="none" stroke="#bfbfbf" points="176,-56.5 176,-75.5 232,-75.5 232,-56.5 176,-56.5"/>
<text text-anchor="middle" x="204" y="-63.5" font-family="Helvetica,sans-Serif" font-size="10.00">algorithm</text>
</g>
<!-- Node1&#45;&gt;Node6 -->
<g id="edge5" class="edge"><title>Node1&#45;&gt;Node6</title>
<path fill="none" stroke="midnightblue" d="M165.086,-112.399C172.574,-103.664 182.218,-92.4126 190.032,-83.2962"/>
<polygon fill="midnightblue" stroke="midnightblue" points="192.729,-85.5281 196.579,-75.6578 187.414,-80.9726 192.729,-85.5281"/>
</g>
<!-- Node3 -->
<g id="node3" class="node"><title>Node3</title>
<polygon fill="none" stroke="#bfbfbf" points="0,-0.5 0,-19.5 46,-19.5 46,-0.5 0,-0.5"/>
<text text-anchor="middle" x="23" y="-7.5" font-family="Helvetica,sans-Serif" font-size="10.00">cstdint</text>
</g>
<!-- Node2&#45;&gt;Node3 -->
<g id="edge2" class="edge"><title>Node2&#45;&gt;Node3</title>
<path fill="none" stroke="midnightblue" d="M90.1466,-56.324C77.7836,-47.979 58.8699,-35.2122 44.2628,-25.3524"/>
<polygon fill="midnightblue" stroke="midnightblue" points="46.0682,-22.3483 35.8215,-19.6545 42.1518,-28.1503 46.0682,-22.3483"/>
</g>
<!-- Node4 -->
<g id="node4" class="node"><title>Node4</title>
<polygon fill="none" stroke="#bfbfbf" points="64.5,-0.5 64.5,-19.5 141.5,-19.5 141.5,-0.5 64.5,-0.5"/>
<text text-anchor="middle" x="103" y="-7.5" font-family="Helvetica,sans-Serif" font-size="10.00">DirectXMath.h</text>
</g>
<!-- Node2&#45;&gt;Node4 -->
<g id="edge3" class="edge"><title>Node2&#45;&gt;Node4</title>
<path fill="none" stroke="midnightblue" d="M103,-56.083C103,-49.0059 103,-38.8611 103,-29.9865"/>
<polygon fill="midnightblue" stroke="midnightblue" points="106.5,-29.751 103,-19.7511 99.5001,-29.7511 106.5,-29.751"/>
</g>
<!-- Node5 -->
<g id="node5" class="node"><title>Node5</title>
<polygon fill="none" stroke="#bfbfbf" points="160,-0.5 160,-19.5 202,-19.5 202,-0.5 160,-0.5"/>
<text text-anchor="middle" x="181" y="-7.5" font-family="Helvetica,sans-Serif" font-size="10.00">vector</text>
</g>
<!-- Node2&#45;&gt;Node5 -->
<g id="edge4" class="edge"><title>Node2&#45;&gt;Node5</title>
<path fill="none" stroke="midnightblue" d="M115.532,-56.324C127.586,-47.979 146.027,-35.2122 160.269,-25.3524"/>
<polygon fill="midnightblue" stroke="midnightblue" points="162.269,-28.2243 168.499,-19.6545 158.285,-22.469 162.269,-28.2243"/>
</g>
</g>
</svg>
