<?xml version="1.0" encoding="UTF-8" standalone="no"?>
<!DOCTYPE svg PUBLIC "-//W3C//DTD SVG 1.1//EN"
 "http://www.w3.org/Graphics/SVG/1.1/DTD/svg11.dtd">
<!-- Generated by graphviz version 2.38.0 (20140413.2041)
 -->
<!-- Title: C:/Users/micho/Desktop/mt_engine/mt/InputHandler.cpp Pages: 1 -->
<svg width="2159pt" height="442pt"
 viewBox="0.00 0.00 2158.50 442.00" xmlns="http://www.w3.org/2000/svg" xmlns:xlink="http://www.w3.org/1999/xlink">
<g id="graph0" class="graph" transform="scale(1 1) rotate(0) translate(4 438)">
<title>C:/Users/micho/Desktop/mt_engine/mt/InputHandler.cpp</title>
<!-- Node1 -->
<g id="node1" class="node"><title>Node1</title>
<polygon fill="#bfbfbf" stroke="black" points="1333.5,-403.5 1333.5,-433.5 1488.5,-433.5 1488.5,-403.5 1333.5,-403.5"/>
<text text-anchor="start" x="1341.5" y="-421.5" font-family="Helvetica,sans-Serif" font-size="10.00">C:/Users/micho/Desktop</text>
<text text-anchor="middle" x="1411" y="-410.5" font-family="Helvetica,sans-Serif" font-size="10.00">/mt_engine/mt/InputHandler.cpp</text>
</g>
<!-- Node2 -->
<g id="node2" class="node"><title>Node2</title>
<g id="a_node2"><a xlink:href="_input_handler_8hpp.html" target="_top" xlink:title="InputHandler.hpp">
<polygon fill="none" stroke="black" points="1688.5,-347.5 1688.5,-366.5 1777.5,-366.5 1777.5,-347.5 1688.5,-347.5"/>
<text text-anchor="middle" x="1733" y="-354.5" font-family="Helvetica,sans-Serif" font-size="10.00">InputHandler.hpp</text>
</a>
</g>
</g>
<!-- Node1&#45;&gt;Node2 -->
<g id="edge1" class="edge"><title>Node1&#45;&gt;Node2</title>
<path fill="none" stroke="midnightblue" d="M1486.9,-403.475C1545.64,-392.62 1625.6,-377.846 1678.22,-368.123"/>
<polygon fill="midnightblue" stroke="midnightblue" points="1679.17,-371.507 1688.36,-366.248 1677.89,-364.624 1679.17,-371.507"/>
</g>
<!-- Node19 -->
<g id="node19" class="node"><title>Node19</title>
<g id="a_node19"><a xlink:href="_math_helper_8h.html" target="_top" xlink:title="../mt/MathHelper.h">
<polygon fill="none" stroke="black" points="827,-56.5 827,-75.5 925,-75.5 925,-56.5 827,-56.5"/>
<text text-anchor="middle" x="876" y="-63.5" font-family="Helvetica,sans-Serif" font-size="10.00">../mt/MathHelper.h</text>
</a>
</g>
</g>
<!-- Node1&#45;&gt;Node19 -->
<g id="edge22" class="edge"><title>Node1&#45;&gt;Node19</title>
<path fill="none" stroke="midnightblue" d="M1333.38,-415.246C1037.92,-406.163 0,-369.456 0,-302 0,-302 0,-302 0,-177 0,-22.4906 82.178,-123.872 774,-76 787.843,-75.0421 802.727,-73.8317 816.73,-72.6117"/>
<polygon fill="midnightblue" stroke="midnightblue" points="817.091,-76.0935 826.743,-71.7252 816.473,-69.1208 817.091,-76.0935"/>
</g>
<!-- Node23 -->
<g id="node23" class="node"><title>Node23</title>
<g id="a_node23"><a xlink:href="_upload_buffer_8h.html" target="_top" xlink:title="../mt/UploadBuffer.h">
<polygon fill="none" stroke="black" points="1172.5,-230 1172.5,-249 1275.5,-249 1275.5,-230 1172.5,-230"/>
<text text-anchor="middle" x="1224" y="-237" font-family="Helvetica,sans-Serif" font-size="10.00">../mt/UploadBuffer.h</text>
</a>
</g>
</g>
<!-- Node1&#45;&gt;Node23 -->
<g id="edge23" class="edge"><title>Node1&#45;&gt;Node23</title>
<path fill="none" stroke="midnightblue" d="M1396.01,-403.315C1361.53,-370.673 1276.75,-290.43 1240.68,-256.289"/>
<polygon fill="midnightblue" stroke="midnightblue" points="1243.04,-253.706 1233.38,-249.374 1238.23,-258.79 1243.04,-253.706"/>
</g>
<!-- Node44 -->
<g id="node44" class="node"><title>Node44</title>
<g id="a_node44"><a xlink:href="engine_8hpp.html" target="_top" xlink:title="../mt/engine.hpp">
<polygon fill="none" stroke="black" points="1523.5,-347.5 1523.5,-366.5 1610.5,-366.5 1610.5,-347.5 1523.5,-347.5"/>
<text text-anchor="middle" x="1567" y="-354.5" font-family="Helvetica,sans-Serif" font-size="10.00">../mt/engine.hpp</text>
</a>
</g>
</g>
<!-- Node1&#45;&gt;Node44 -->
<g id="edge53" class="edge"><title>Node1&#45;&gt;Node44</title>
<path fill="none" stroke="midnightblue" d="M1447.97,-403.399C1474.38,-393.327 1509.56,-379.909 1534.81,-370.277"/>
<polygon fill="midnightblue" stroke="midnightblue" points="1536.2,-373.492 1544.3,-366.658 1533.71,-366.951 1536.2,-373.492"/>
</g>
<!-- Node3 -->
<g id="node3" class="node"><title>Node3</title>
<g id="a_node3"><a xlink:href="utility_8hpp.html" target="_top" xlink:title="../mt/utility.hpp">
<polygon fill="none" stroke="black" points="1677,-112.5 1677,-131.5 1759,-131.5 1759,-112.5 1677,-112.5"/>
<text text-anchor="middle" x="1718" y="-119.5" font-family="Helvetica,sans-Serif" font-size="10.00">../mt/utility.hpp</text>
</a>
</g>
</g>
<!-- Node2&#45;&gt;Node3 -->
<g id="edge2" class="edge"><title>Node2&#45;&gt;Node3</title>
<path fill="none" stroke="midnightblue" d="M1733.83,-347.301C1736.18,-320.408 1742.09,-236.304 1731,-168 1729.55,-159.07 1726.91,-149.403 1724.38,-141.326"/>
<polygon fill="midnightblue" stroke="midnightblue" points="1727.7,-140.215 1721.23,-131.82 1721.05,-142.413 1727.7,-140.215"/>
</g>
<!-- Node4 -->
<g id="node4" class="node"><title>Node4</title>
<polygon fill="none" stroke="#bfbfbf" points="1244,-56.5 1244,-75.5 1300,-75.5 1300,-56.5 1244,-56.5"/>
<text text-anchor="middle" x="1272" y="-63.5" font-family="Helvetica,sans-Serif" font-size="10.00">algorithm</text>
</g>
<!-- Node3&#45;&gt;Node4 -->
<g id="edge3" class="edge"><title>Node3&#45;&gt;Node4</title>
<path fill="none" stroke="midnightblue" d="M1676.95,-117.164C1591.41,-109.064 1395.62,-89.9418 1310.29,-75.9765"/>
<polygon fill="midnightblue" stroke="midnightblue" points="1310.65,-72.4877 1300.2,-74.2572 1309.47,-79.3882 1310.65,-72.4877"/>
</g>
<!-- Node5 -->
<g id="node5" class="node"><title>Node5</title>
<polygon fill="none" stroke="#bfbfbf" points="2043,-56.5 2043,-75.5 2089,-75.5 2089,-56.5 2043,-56.5"/>
<text text-anchor="middle" x="2066" y="-63.5" font-family="Helvetica,sans-Serif" font-size="10.00">chrono</text>
</g>
<!-- Node3&#45;&gt;Node5 -->
<g id="edge4" class="edge"><title>Node3&#45;&gt;Node5</title>
<path fill="none" stroke="midnightblue" d="M1759.21,-116.898C1817.93,-110.667 1929.17,-97.4401 2032.68,-76.0438"/>
<polygon fill="midnightblue" stroke="midnightblue" points="2033.6,-79.4265 2042.67,-73.9477 2032.16,-72.5756 2033.6,-79.4265"/>
</g>
<!-- Node6 -->
<g id="node6" class="node"><title>Node6</title>
<polygon fill="none" stroke="#bfbfbf" points="1436,-56.5 1436,-75.5 1480,-75.5 1480,-56.5 1436,-56.5"/>
<text text-anchor="middle" x="1458" y="-63.5" font-family="Helvetica,sans-Serif" font-size="10.00">cmath</text>
</g>
<!-- Node3&#45;&gt;Node6 -->
<g id="edge5" class="edge"><title>Node3&#45;&gt;Node6</title>
<path fill="none" stroke="midnightblue" d="M1676.81,-114.039C1632.85,-106.36 1560.98,-93.089 1490.26,-76.1419"/>
<polygon fill="midnightblue" stroke="midnightblue" points="1490.83,-72.6798 1480.29,-73.7264 1489.18,-79.4829 1490.83,-72.6798"/>
</g>
<!-- Node7 -->
<g id="node7" class="node"><title>Node7</title>
<polygon fill="none" stroke="#bfbfbf" points="1498.5,-56.5 1498.5,-75.5 1547.5,-75.5 1547.5,-56.5 1498.5,-56.5"/>
<text text-anchor="middle" x="1523" y="-63.5" font-family="Helvetica,sans-Serif" font-size="10.00">cstdarg</text>
</g>
<!-- Node3&#45;&gt;Node7 -->
<g id="edge6" class="edge"><title>Node3&#45;&gt;Node7</title>
<path fill="none" stroke="midnightblue" d="M1687.1,-112.444C1651.76,-102.657 1594.06,-86.6793 1557.34,-76.5107"/>
<polygon fill="midnightblue" stroke="midnightblue" points="1558.15,-73.1025 1547.58,-73.8067 1556.28,-79.8486 1558.15,-73.1025"/>
</g>
<!-- Node8 -->
<g id="node8" class="node"><title>Node8</title>
<polygon fill="none" stroke="#bfbfbf" points="1565.5,-56.5 1565.5,-75.5 1608.5,-75.5 1608.5,-56.5 1565.5,-56.5"/>
<text text-anchor="middle" x="1587" y="-63.5" font-family="Helvetica,sans-Serif" font-size="10.00">deque</text>
</g>
<!-- Node3&#45;&gt;Node8 -->
<g id="edge7" class="edge"><title>Node3&#45;&gt;Node8</title>
<path fill="none" stroke="midnightblue" d="M1697.24,-112.444C1675.68,-103.557 1641.74,-89.5632 1617.21,-79.4514"/>
<polygon fill="midnightblue" stroke="midnightblue" points="1618.24,-76.0917 1607.66,-75.5164 1615.57,-82.5634 1618.24,-76.0917"/>
</g>
<!-- Node9 -->
<g id="node9" class="node"><title>Node9</title>
<polygon fill="none" stroke="#bfbfbf" points="1626.5,-56.5 1626.5,-75.5 1687.5,-75.5 1687.5,-56.5 1626.5,-56.5"/>
<text text-anchor="middle" x="1657" y="-63.5" font-family="Helvetica,sans-Serif" font-size="10.00">filesystem</text>
</g>
<!-- Node3&#45;&gt;Node9 -->
<g id="edge8" class="edge"><title>Node3&#45;&gt;Node9</title>
<path fill="none" stroke="midnightblue" d="M1708.2,-112.324C1699.18,-104.341 1685.59,-92.3128 1674.68,-82.6529"/>
<polygon fill="midnightblue" stroke="midnightblue" points="1676.79,-79.8416 1666.98,-75.8339 1672.15,-85.083 1676.79,-79.8416"/>
</g>
<!-- Node10 -->
<g id="node10" class="node"><title>Node10</title>
<polygon fill="none" stroke="#bfbfbf" points="1705.5,-56.5 1705.5,-75.5 1734.5,-75.5 1734.5,-56.5 1705.5,-56.5"/>
<text text-anchor="middle" x="1720" y="-63.5" font-family="Helvetica,sans-Serif" font-size="10.00">list</text>
</g>
<!-- Node3&#45;&gt;Node10 -->
<g id="edge9" class="edge"><title>Node3&#45;&gt;Node10</title>
<path fill="none" stroke="midnightblue" d="M1718.33,-112.083C1718.59,-105.006 1718.97,-94.8611 1719.3,-85.9865"/>
<polygon fill="midnightblue" stroke="midnightblue" points="1722.8,-85.8738 1719.68,-75.7511 1715.81,-85.6147 1722.8,-85.8738"/>
</g>
<!-- Node11 -->
<g id="node11" class="node"><title>Node11</title>
<polygon fill="none" stroke="#bfbfbf" points="1752.5,-56.5 1752.5,-75.5 1787.5,-75.5 1787.5,-56.5 1752.5,-56.5"/>
<text text-anchor="middle" x="1770" y="-63.5" font-family="Helvetica,sans-Serif" font-size="10.00">map</text>
</g>
<!-- Node3&#45;&gt;Node11 -->
<g id="edge10" class="edge"><title>Node3&#45;&gt;Node11</title>
<path fill="none" stroke="midnightblue" d="M1726.59,-112.083C1734.16,-104.22 1745.38,-92.5688 1754.51,-83.0813"/>
<polygon fill="midnightblue" stroke="midnightblue" points="1757.16,-85.3821 1761.57,-75.7511 1752.12,-80.5266 1757.16,-85.3821"/>
</g>
<!-- Node12 -->
<g id="node12" class="node"><title>Node12</title>
<polygon fill="none" stroke="#bfbfbf" points="2107.5,-56.5 2107.5,-75.5 2150.5,-75.5 2150.5,-56.5 2107.5,-56.5"/>
<text text-anchor="middle" x="2129" y="-63.5" font-family="Helvetica,sans-Serif" font-size="10.00">queue</text>
</g>
<!-- Node3&#45;&gt;Node12 -->
<g id="edge11" class="edge"><title>Node3&#45;&gt;Node12</title>
<path fill="none" stroke="midnightblue" d="M1759.12,-118.36C1827.44,-113.49 1968.68,-101.376 2097.4,-75.7815"/>
<polygon fill="midnightblue" stroke="midnightblue" points="2098.32,-79.1654 2107.43,-73.7536 2096.94,-72.3042 2098.32,-79.1654"/>
</g>
<!-- Node13 -->
<g id="node13" class="node"><title>Node13</title>
<polygon fill="none" stroke="#bfbfbf" points="1805.5,-56.5 1805.5,-75.5 1840.5,-75.5 1840.5,-56.5 1805.5,-56.5"/>
<text text-anchor="middle" x="1823" y="-63.5" font-family="Helvetica,sans-Serif" font-size="10.00">ratio</text>
</g>
<!-- Node3&#45;&gt;Node13 -->
<g id="edge12" class="edge"><title>Node3&#45;&gt;Node13</title>
<path fill="none" stroke="midnightblue" d="M1734.87,-112.324C1751.71,-103.664 1777.81,-90.2424 1797.24,-80.249"/>
<polygon fill="midnightblue" stroke="midnightblue" points="1798.88,-83.3405 1806.17,-75.6545 1795.68,-77.1155 1798.88,-83.3405"/>
</g>
<!-- Node14 -->
<g id="node14" class="node"><title>Node14</title>
<polygon fill="none" stroke="#bfbfbf" points="1859,-56.5 1859,-75.5 1889,-75.5 1889,-56.5 1859,-56.5"/>
<text text-anchor="middle" x="1874" y="-63.5" font-family="Helvetica,sans-Serif" font-size="10.00">set</text>
</g>
<!-- Node3&#45;&gt;Node14 -->
<g id="edge13" class="edge"><title>Node3&#45;&gt;Node14</title>
<path fill="none" stroke="midnightblue" d="M1743.15,-112.482C1769.55,-103.513 1812.25,-88.9262 1849,-76 1849.1,-75.9646 1849.2,-75.9291 1849.3,-75.8935"/>
<polygon fill="midnightblue" stroke="midnightblue" points="1850.7,-79.1129 1858.94,-72.4613 1848.35,-72.5185 1850.7,-79.1129"/>
</g>
<!-- Node15 -->
<g id="node15" class="node"><title>Node15</title>
<polygon fill="none" stroke="#bfbfbf" points="1318.5,-56.5 1318.5,-75.5 1359.5,-75.5 1359.5,-56.5 1318.5,-56.5"/>
<text text-anchor="middle" x="1339" y="-63.5" font-family="Helvetica,sans-Serif" font-size="10.00">string</text>
</g>
<!-- Node3&#45;&gt;Node15 -->
<g id="edge14" class="edge"><title>Node3&#45;&gt;Node15</title>
<path fill="none" stroke="midnightblue" d="M1676.8,-117.88C1612.93,-112.568 1486.12,-100.121 1369.36,-75.7299"/>
<polygon fill="midnightblue" stroke="midnightblue" points="1370.05,-72.2979 1359.54,-73.6444 1368.6,-79.1452 1370.05,-72.2979"/>
</g>
<!-- Node16 -->
<g id="node16" class="node"><title>Node16</title>
<polygon fill="none" stroke="#bfbfbf" points="1907,-56.5 1907,-75.5 1969,-75.5 1969,-56.5 1907,-56.5"/>
<text text-anchor="middle" x="1938" y="-63.5" font-family="Helvetica,sans-Serif" font-size="10.00">type_traits</text>
</g>
<!-- Node3&#45;&gt;Node16 -->
<g id="edge15" class="edge"><title>Node3&#45;&gt;Node16</title>
<path fill="none" stroke="midnightblue" d="M1752.86,-112.444C1792.04,-102.828 1855.57,-87.2332 1897.07,-77.0464"/>
<polygon fill="midnightblue" stroke="midnightblue" points="1897.98,-80.4263 1906.86,-74.6433 1896.31,-73.6281 1897.98,-80.4263"/>
</g>
<!-- Node17 -->
<g id="node17" class="node"><title>Node17</title>
<polygon fill="none" stroke="#bfbfbf" points="1987,-56.5 1987,-75.5 2025,-75.5 2025,-56.5 1987,-56.5"/>
<text text-anchor="middle" x="2006" y="-63.5" font-family="Helvetica,sans-Serif" font-size="10.00">tuple</text>
</g>
<!-- Node3&#45;&gt;Node17 -->
<g id="edge16" class="edge"><title>Node3&#45;&gt;Node17</title>
<path fill="none" stroke="midnightblue" d="M1759.35,-115.662C1808.98,-108.854 1894.85,-95.8084 1977.07,-75.9454"/>
<polygon fill="midnightblue" stroke="midnightblue" points="1977.94,-79.3361 1986.82,-73.5539 1976.28,-72.5377 1977.94,-79.3361"/>
</g>
<!-- Node18 -->
<g id="node18" class="node"><title>Node18</title>
<polygon fill="none" stroke="#bfbfbf" points="1378,-56.5 1378,-75.5 1418,-75.5 1418,-56.5 1378,-56.5"/>
<text text-anchor="middle" x="1398" y="-63.5" font-family="Helvetica,sans-Serif" font-size="10.00">utility</text>
</g>
<!-- Node3&#45;&gt;Node18 -->
<g id="edge17" class="edge"><title>Node3&#45;&gt;Node18</title>
<path fill="none" stroke="midnightblue" d="M1676.67,-116.556C1621.87,-110.236 1522.03,-97.2492 1428.12,-75.9694"/>
<polygon fill="midnightblue" stroke="midnightblue" points="1428.71,-72.5126 1418.18,-73.679 1427.14,-79.334 1428.71,-72.5126"/>
</g>
<!-- Node3&#45;&gt;Node19 -->
<g id="edge18" class="edge"><title>Node3&#45;&gt;Node19</title>
<path fill="none" stroke="midnightblue" d="M1676.79,-117.504C1655.64,-115.756 1629.45,-113.665 1606,-112 1356.84,-94.311 1059.55,-77.2355 935.222,-70.2759"/>
<polygon fill="midnightblue" stroke="midnightblue" points="935.331,-66.7766 925.151,-69.7131 934.941,-73.7657 935.331,-66.7766"/>
</g>
<!-- Node20 -->
<g id="node20" class="node"><title>Node20</title>
<polygon fill="none" stroke="#bfbfbf" points="849.5,-0.5 849.5,-19.5 914.5,-19.5 914.5,-0.5 849.5,-0.5"/>
<text text-anchor="middle" x="882" y="-7.5" font-family="Helvetica,sans-Serif" font-size="10.00">Windows.h</text>
</g>
<!-- Node19&#45;&gt;Node20 -->
<g id="edge19" class="edge"><title>Node19&#45;&gt;Node20</title>
<path fill="none" stroke="midnightblue" d="M876.991,-56.083C877.786,-48.9272 878.929,-38.6353 879.923,-29.6911"/>
<polygon fill="midnightblue" stroke="midnightblue" points="883.402,-30.0765 881.028,-19.7511 876.445,-29.3034 883.402,-30.0765"/>
</g>
<!-- Node21 -->
<g id="node21" class="node"><title>Node21</title>
<polygon fill="none" stroke="#bfbfbf" points="754.5,-0.5 754.5,-19.5 831.5,-19.5 831.5,-0.5 754.5,-0.5"/>
<text text-anchor="middle" x="793" y="-7.5" font-family="Helvetica,sans-Serif" font-size="10.00">DirectXMath.h</text>
</g>
<!-- Node19&#45;&gt;Node21 -->
<g id="edge20" class="edge"><title>Node19&#45;&gt;Node21</title>
<path fill="none" stroke="midnightblue" d="M862.665,-56.324C849.838,-47.979 830.215,-35.2122 815.06,-25.3524"/>
<polygon fill="midnightblue" stroke="midnightblue" points="816.593,-22.1742 806.302,-19.6545 812.776,-28.0417 816.593,-22.1742"/>
</g>
<!-- Node22 -->
<g id="node22" class="node"><title>Node22</title>
<polygon fill="none" stroke="#bfbfbf" points="1063,-0.5 1063,-19.5 1109,-19.5 1109,-0.5 1063,-0.5"/>
<text text-anchor="middle" x="1086" y="-7.5" font-family="Helvetica,sans-Serif" font-size="10.00">cstdint</text>
</g>
<!-- Node19&#45;&gt;Node22 -->
<g id="edge21" class="edge"><title>Node19&#45;&gt;Node22</title>
<path fill="none" stroke="midnightblue" d="M909.275,-56.4435C948.663,-46.3153 1013.84,-29.5546 1053.08,-19.466"/>
<polygon fill="midnightblue" stroke="midnightblue" points="1054.12,-22.811 1062.94,-16.9308 1052.38,-16.0315 1054.12,-22.811"/>
</g>
<!-- Node24 -->
<g id="node24" class="node"><title>Node24</title>
<g id="a_node24"><a xlink:href="d3d_util_8h.html" target="_top" xlink:title="d3dUtil.h">
<polygon fill="none" stroke="black" points="822.5,-168.5 822.5,-187.5 877.5,-187.5 877.5,-168.5 822.5,-168.5"/>
<text text-anchor="middle" x="850" y="-175.5" font-family="Helvetica,sans-Serif" font-size="10.00">d3dUtil.h</text>
</a>
</g>
</g>
<!-- Node23&#45;&gt;Node24 -->
<g id="edge24" class="edge"><title>Node23&#45;&gt;Node24</title>
<path fill="none" stroke="midnightblue" d="M1172.39,-230.289C1096.12,-218.155 955.069,-195.715 887.714,-185"/>
<polygon fill="midnightblue" stroke="midnightblue" points="887.983,-181.499 877.557,-183.384 886.883,-188.412 887.983,-181.499"/>
</g>
<!-- Node24&#45;&gt;Node3 -->
<g id="edge25" class="edge"><title>Node24&#45;&gt;Node3</title>
<path fill="none" stroke="midnightblue" d="M877.816,-175.553C976.873,-170.355 1321.71,-151.881 1606,-132 1625.88,-130.61 1647.72,-128.896 1666.8,-127.339"/>
<polygon fill="midnightblue" stroke="midnightblue" points="1667.11,-130.825 1676.79,-126.517 1666.54,-123.849 1667.11,-130.825"/>
</g>
<!-- Node24&#45;&gt;Node4 -->
<g id="edge37" class="edge"><title>Node24&#45;&gt;Node4</title>
<path fill="none" stroke="midnightblue" d="M852.406,-168.063C856.812,-153.591 867.652,-125.308 888,-112 944.352,-75.1433 1148.23,-68.4175 1233.79,-67.2322"/>
<polygon fill="midnightblue" stroke="midnightblue" points="1233.9,-70.7312 1243.86,-67.1111 1233.82,-63.7318 1233.9,-70.7312"/>
</g>
<!-- Node24&#45;&gt;Node15 -->
<g id="edge35" class="edge"><title>Node24&#45;&gt;Node15</title>
<path fill="none" stroke="midnightblue" d="M877.832,-177.761C942.255,-178.671 1105.84,-176.054 1233,-132 1266.4,-120.427 1300.45,-97.0607 1320.64,-81.7259"/>
<polygon fill="midnightblue" stroke="midnightblue" points="1322.9,-84.4062 1328.65,-75.5099 1318.61,-78.8763 1322.9,-84.4062"/>
</g>
<!-- Node24&#45;&gt;Node19 -->
<g id="edge52" class="edge"><title>Node24&#45;&gt;Node19</title>
<path fill="none" stroke="midnightblue" d="M849.693,-168.425C849.457,-155.835 849.828,-131.705 855,-112 857.49,-102.515 861.913,-92.574 866.06,-84.4556"/>
<polygon fill="midnightblue" stroke="midnightblue" points="869.165,-86.0723 870.833,-75.6096 863.004,-82.7483 869.165,-86.0723"/>
</g>
<!-- Node24&#45;&gt;Node21 -->
<g id="edge31" class="edge"><title>Node24&#45;&gt;Node21</title>
<path fill="none" stroke="midnightblue" d="M846.935,-168.075C837.924,-141.832 811.386,-64.5453 799.221,-29.1165"/>
<polygon fill="midnightblue" stroke="midnightblue" points="802.5,-27.8894 795.942,-19.5681 795.879,-30.1628 802.5,-27.8894"/>
</g>
<!-- Node24&#45;&gt;Node22 -->
<g id="edge41" class="edge"><title>Node24&#45;&gt;Node22</title>
<path fill="none" stroke="midnightblue" d="M877.704,-175.496C956.542,-170.937 1177.82,-156.086 1199,-132 1234.37,-91.7814 1158.39,-46.0079 1114.41,-24.0718"/>
<polygon fill="midnightblue" stroke="midnightblue" points="1115.83,-20.8689 1105.31,-19.6398 1112.77,-27.163 1115.83,-20.8689"/>
</g>
<!-- Node25 -->
<g id="node25" class="node"><title>Node25</title>
<polygon fill="none" stroke="#bfbfbf" points="1535,-112.5 1535,-131.5 1597,-131.5 1597,-112.5 1535,-112.5"/>
<text text-anchor="middle" x="1566" y="-119.5" font-family="Helvetica,sans-Serif" font-size="10.00">windows.h</text>
</g>
<!-- Node24&#45;&gt;Node25 -->
<g id="edge26" class="edge"><title>Node24&#45;&gt;Node25</title>
<path fill="none" stroke="midnightblue" d="M877.708,-175.487C966.545,-170.542 1252.22,-153.906 1488,-132 1499.97,-130.888 1512.94,-129.474 1524.82,-128.099"/>
<polygon fill="midnightblue" stroke="midnightblue" points="1525.39,-131.556 1534.91,-126.908 1524.57,-124.604 1525.39,-131.556"/>
</g>
<!-- Node26 -->
<g id="node26" class="node"><title>Node26</title>
<polygon fill="none" stroke="#bfbfbf" points="482.5,-56.5 482.5,-75.5 519.5,-75.5 519.5,-56.5 482.5,-56.5"/>
<text text-anchor="middle" x="501" y="-63.5" font-family="Helvetica,sans-Serif" font-size="10.00">wrl.h</text>
</g>
<!-- Node24&#45;&gt;Node26 -->
<g id="edge27" class="edge"><title>Node24&#45;&gt;Node26</title>
<path fill="none" stroke="midnightblue" d="M822.413,-176.458C773.308,-174.597 668.353,-166.531 588,-132 560.563,-120.209 533.773,-98.1263 517.333,-83.0005"/>
<polygon fill="midnightblue" stroke="midnightblue" points="519.402,-80.1407 509.73,-75.8163 514.594,-85.2285 519.402,-80.1407"/>
</g>
<!-- Node27 -->
<g id="node27" class="node"><title>Node27</title>
<polygon fill="none" stroke="#bfbfbf" points="897.5,-112.5 897.5,-131.5 956.5,-131.5 956.5,-112.5 897.5,-112.5"/>
<text text-anchor="middle" x="927" y="-119.5" font-family="Helvetica,sans-Serif" font-size="10.00">dxgi1_4.h</text>
</g>
<!-- Node24&#45;&gt;Node27 -->
<g id="edge28" class="edge"><title>Node24&#45;&gt;Node27</title>
<path fill="none" stroke="midnightblue" d="M862.371,-168.324C874.158,-160.058 892.132,-147.453 906.136,-137.632"/>
<polygon fill="midnightblue" stroke="midnightblue" points="908.482,-140.262 914.659,-131.655 904.462,-134.531 908.482,-140.262"/>
</g>
<!-- Node28 -->
<g id="node28" class="node"><title>Node28</title>
<polygon fill="none" stroke="#bfbfbf" points="349.5,-0.5 349.5,-19.5 400.5,-19.5 400.5,-0.5 349.5,-0.5"/>
<text text-anchor="middle" x="375" y="-7.5" font-family="Helvetica,sans-Serif" font-size="10.00">d3d12.h</text>
</g>
<!-- Node24&#45;&gt;Node28 -->
<g id="edge29" class="edge"><title>Node24&#45;&gt;Node28</title>
<path fill="none" stroke="midnightblue" d="M822.36,-176.484C685.274,-173.796 83.8427,-160.409 57,-132 -28.0361,-42.0016 239.379,-18.2622 339.084,-12.6139"/>
<polygon fill="midnightblue" stroke="midnightblue" points="339.492,-16.0972 349.29,-12.0662 339.116,-9.10724 339.492,-16.0972"/>
</g>
<!-- Node29 -->
<g id="node29" class="node"><title>Node29</title>
<polygon fill="none" stroke="#bfbfbf" points="975,-112.5 975,-131.5 1055,-131.5 1055,-112.5 975,-112.5"/>
<text text-anchor="middle" x="1015" y="-119.5" font-family="Helvetica,sans-Serif" font-size="10.00">D3Dcompiler.h</text>
</g>
<!-- Node24&#45;&gt;Node29 -->
<g id="edge30" class="edge"><title>Node24&#45;&gt;Node29</title>
<path fill="none" stroke="midnightblue" d="M876.145,-168.444C904.023,-159.32 948.348,-144.813 979.4,-134.651"/>
<polygon fill="midnightblue" stroke="midnightblue" points="980.562,-137.953 988.978,-131.516 978.385,-131.3 980.562,-137.953"/>
</g>
<!-- Node30 -->
<g id="node30" class="node"><title>Node30</title>
<polygon fill="none" stroke="#bfbfbf" points="1073.5,-112.5 1073.5,-131.5 1190.5,-131.5 1190.5,-112.5 1073.5,-112.5"/>
<text text-anchor="middle" x="1132" y="-119.5" font-family="Helvetica,sans-Serif" font-size="10.00">DirectXPackedVector.h</text>
</g>
<!-- Node24&#45;&gt;Node30 -->
<g id="edge32" class="edge"><title>Node24&#45;&gt;Node30</title>
<path fill="none" stroke="midnightblue" d="M877.553,-171.724C923.669,-162.893 1017.31,-144.961 1077.23,-133.487"/>
<polygon fill="midnightblue" stroke="midnightblue" points="1078.11,-136.882 1087.28,-131.564 1076.8,-130.007 1078.11,-136.882"/>
</g>
<!-- Node31 -->
<g id="node31" class="node"><title>Node31</title>
<polygon fill="none" stroke="#bfbfbf" points="1285.5,-112.5 1285.5,-131.5 1368.5,-131.5 1368.5,-112.5 1285.5,-112.5"/>
<text text-anchor="middle" x="1327" y="-119.5" font-family="Helvetica,sans-Serif" font-size="10.00">DirectXColors.h</text>
</g>
<!-- Node24&#45;&gt;Node31 -->
<g id="edge33" class="edge"><title>Node24&#45;&gt;Node31</title>
<path fill="none" stroke="midnightblue" d="M877.645,-174.555C945.035,-168.484 1123.1,-151.775 1271,-132 1272.46,-131.804 1273.95,-131.601 1275.45,-131.39"/>
<polygon fill="midnightblue" stroke="midnightblue" points="1276.06,-134.838 1285.45,-129.929 1275.05,-127.912 1276.06,-134.838"/>
</g>
<!-- Node32 -->
<g id="node32" class="node"><title>Node32</title>
<polygon fill="none" stroke="#bfbfbf" points="1387,-112.5 1387,-131.5 1479,-131.5 1479,-112.5 1387,-112.5"/>
<text text-anchor="middle" x="1433" y="-119.5" font-family="Helvetica,sans-Serif" font-size="10.00">DirectXCollision.h</text>
</g>
<!-- Node24&#45;&gt;Node32 -->
<g id="edge34" class="edge"><title>Node24&#45;&gt;Node32</title>
<path fill="none" stroke="midnightblue" d="M877.506,-175.373C954.501,-170.667 1178.9,-155.908 1376.89,-131.911"/>
<polygon fill="midnightblue" stroke="midnightblue" points="1377.39,-135.376 1386.89,-130.688 1376.54,-128.427 1377.39,-135.376"/>
</g>
<!-- Node33 -->
<g id="node33" class="node"><title>Node33</title>
<polygon fill="none" stroke="#bfbfbf" points="66,-112.5 66,-131.5 118,-131.5 118,-112.5 66,-112.5"/>
<text text-anchor="middle" x="92" y="-119.5" font-family="Helvetica,sans-Serif" font-size="10.00">memory</text>
</g>
<!-- Node24&#45;&gt;Node33 -->
<g id="edge36" class="edge"><title>Node24&#45;&gt;Node33</title>
<path fill="none" stroke="midnightblue" d="M822.214,-177.157C726.741,-177.301 403.34,-174.523 128.43,-131.92"/>
<polygon fill="midnightblue" stroke="midnightblue" points="128.683,-128.417 118.261,-130.322 127.597,-135.332 128.683,-128.417"/>
</g>
<!-- Node34 -->
<g id="node34" class="node"><title>Node34</title>
<polygon fill="none" stroke="#bfbfbf" points="136,-112.5 136,-131.5 178,-131.5 178,-112.5 136,-112.5"/>
<text text-anchor="middle" x="157" y="-119.5" font-family="Helvetica,sans-Serif" font-size="10.00">vector</text>
</g>
<!-- Node24&#45;&gt;Node34 -->
<g id="edge38" class="edge"><title>Node24&#45;&gt;Node34</title>
<path fill="none" stroke="midnightblue" d="M822.256,-177.323C731.914,-177.914 438.089,-176.204 188.155,-131.791"/>
<polygon fill="midnightblue" stroke="midnightblue" points="188.625,-128.319 178.162,-129.988 187.382,-135.208 188.625,-128.319"/>
</g>
<!-- Node35 -->
<g id="node35" class="node"><title>Node35</title>
<polygon fill="none" stroke="#bfbfbf" points="196,-112.5 196,-131.5 234,-131.5 234,-112.5 196,-112.5"/>
<text text-anchor="middle" x="215" y="-119.5" font-family="Helvetica,sans-Serif" font-size="10.00">array</text>
</g>
<!-- Node24&#45;&gt;Node35 -->
<g id="edge39" class="edge"><title>Node24&#45;&gt;Node35</title>
<path fill="none" stroke="midnightblue" d="M822.469,-177.265C737.408,-177.601 471.354,-175.036 244.226,-131.764"/>
<polygon fill="midnightblue" stroke="midnightblue" points="244.606,-128.272 234.123,-129.807 243.275,-135.145 244.606,-128.272"/>
</g>
<!-- Node36 -->
<g id="node36" class="node"><title>Node36</title>
<polygon fill="none" stroke="#bfbfbf" points="252.5,-112.5 252.5,-131.5 335.5,-131.5 335.5,-112.5 252.5,-112.5"/>
<text text-anchor="middle" x="294" y="-119.5" font-family="Helvetica,sans-Serif" font-size="10.00">unordered_map</text>
</g>
<!-- Node24&#45;&gt;Node36 -->
<g id="edge40" class="edge"><title>Node24&#45;&gt;Node36</title>
<path fill="none" stroke="midnightblue" d="M822.479,-175.42C747.56,-170.937 533.518,-156.903 345.751,-132.133"/>
<polygon fill="midnightblue" stroke="midnightblue" points="346.073,-128.645 335.698,-130.793 345.148,-135.584 346.073,-128.645"/>
</g>
<!-- Node37 -->
<g id="node37" class="node"><title>Node37</title>
<polygon fill="none" stroke="#bfbfbf" points="353.5,-112.5 353.5,-131.5 402.5,-131.5 402.5,-112.5 353.5,-112.5"/>
<text text-anchor="middle" x="378" y="-119.5" font-family="Helvetica,sans-Serif" font-size="10.00">fstream</text>
</g>
<!-- Node24&#45;&gt;Node37 -->
<g id="edge42" class="edge"><title>Node24&#45;&gt;Node37</title>
<path fill="none" stroke="midnightblue" d="M822.37,-175.664C754.338,-172.058 573.227,-160.527 412.828,-131.862"/>
<polygon fill="midnightblue" stroke="midnightblue" points="413.246,-128.381 402.781,-130.039 411.996,-135.268 413.246,-128.381"/>
</g>
<!-- Node38 -->
<g id="node38" class="node"><title>Node38</title>
<polygon fill="none" stroke="#bfbfbf" points="421,-112.5 421,-131.5 473,-131.5 473,-112.5 421,-112.5"/>
<text text-anchor="middle" x="447" y="-119.5" font-family="Helvetica,sans-Serif" font-size="10.00">sstream</text>
</g>
<!-- Node24&#45;&gt;Node38 -->
<g id="edge43" class="edge"><title>Node24&#45;&gt;Node38</title>
<path fill="none" stroke="midnightblue" d="M822.111,-174.836C761.922,-169.902 615.255,-156.451 483.178,-132.007"/>
<polygon fill="midnightblue" stroke="midnightblue" points="483.765,-128.556 473.291,-130.151 482.474,-135.436 483.765,-128.556"/>
</g>
<!-- Node39 -->
<g id="node39" class="node"><title>Node39</title>
<polygon fill="none" stroke="#bfbfbf" points="491.5,-112.5 491.5,-131.5 540.5,-131.5 540.5,-112.5 491.5,-112.5"/>
<text text-anchor="middle" x="516" y="-119.5" font-family="Helvetica,sans-Serif" font-size="10.00">cassert</text>
</g>
<!-- Node24&#45;&gt;Node39 -->
<g id="edge44" class="edge"><title>Node24&#45;&gt;Node39</title>
<path fill="none" stroke="midnightblue" d="M822.225,-173.474C769.786,-166.661 652.698,-150.697 555,-132 553.55,-131.722 552.071,-131.429 550.58,-131.124"/>
<polygon fill="midnightblue" stroke="midnightblue" points="551.211,-127.68 540.698,-128.995 549.737,-134.523 551.211,-127.68"/>
</g>
<!-- Node40 -->
<g id="node40" class="node"><title>Node40</title>
<g id="a_node40"><a xlink:href="d3dx12_8h.html" target="_top" xlink:title="../mt/d3dx12.h">
<polygon fill="none" stroke="black" points="685,-56.5 685,-75.5 765,-75.5 765,-56.5 685,-56.5"/>
<text text-anchor="middle" x="725" y="-63.5" font-family="Helvetica,sans-Serif" font-size="10.00">../mt/d3dx12.h</text>
</a>
</g>
</g>
<!-- Node24&#45;&gt;Node40 -->
<g id="edge45" class="edge"><title>Node24&#45;&gt;Node40</title>
<path fill="none" stroke="midnightblue" d="M833.498,-168.488C818.432,-160.282 795.987,-146.936 779,-132 762.551,-117.537 746.922,-97.8361 736.751,-83.9258"/>
<polygon fill="midnightblue" stroke="midnightblue" points="739.561,-81.8383 730.901,-75.7341 733.864,-85.9062 739.561,-81.8383"/>
</g>
<!-- Node41 -->
<g id="node41" class="node"><title>Node41</title>
<g id="a_node41"><a xlink:href="_d_d_s_texture_loader_8h.html" target="_top" xlink:title="../mt/DDSTextureLoader.h">
<polygon fill="none" stroke="black" points="597,-112.5 597,-131.5 727,-131.5 727,-112.5 597,-112.5"/>
<text text-anchor="middle" x="662" y="-119.5" font-family="Helvetica,sans-Serif" font-size="10.00">../mt/DDSTextureLoader.h</text>
</a>
</g>
</g>
<!-- Node24&#45;&gt;Node41 -->
<g id="edge47" class="edge"><title>Node24&#45;&gt;Node41</title>
<path fill="none" stroke="midnightblue" d="M822.26,-169.032C790.33,-159.861 737.648,-144.729 701.457,-134.333"/>
<polygon fill="midnightblue" stroke="midnightblue" points="702.295,-130.933 691.718,-131.536 700.363,-137.661 702.295,-130.933"/>
</g>
<!-- Node40&#45;&gt;Node28 -->
<g id="edge46" class="edge"><title>Node40&#45;&gt;Node28</title>
<path fill="none" stroke="midnightblue" d="M684.908,-57.524C681.895,-56.9966 678.901,-56.4831 676,-56 580.52,-40.0987 467.554,-23.9116 411.022,-15.9905"/>
<polygon fill="midnightblue" stroke="midnightblue" points="411.202,-12.4819 400.814,-14.5643 410.234,-19.4145 411.202,-12.4819"/>
</g>
<!-- Node41&#45;&gt;Node26 -->
<g id="edge48" class="edge"><title>Node41&#45;&gt;Node26</title>
<path fill="none" stroke="midnightblue" d="M636.489,-112.444C607.333,-102.664 559.741,-86.7021 529.421,-76.5324"/>
<polygon fill="midnightblue" stroke="midnightblue" points="530.446,-73.1846 519.852,-73.323 528.22,-79.8213 530.446,-73.1846"/>
</g>
<!-- Node41&#45;&gt;Node40 -->
<g id="edge50" class="edge"><title>Node41&#45;&gt;Node40</title>
<path fill="none" stroke="midnightblue" d="M672.122,-112.324C681.526,-104.263 695.744,-92.0765 707.069,-82.3695"/>
<polygon fill="midnightblue" stroke="midnightblue" points="709.379,-84.9993 714.694,-75.8339 704.823,-79.6844 709.379,-84.9993"/>
</g>
<!-- Node42 -->
<g id="node42" class="node"><title>Node42</title>
<polygon fill="none" stroke="#bfbfbf" points="605,-56.5 605,-75.5 667,-75.5 667,-56.5 605,-56.5"/>
<text text-anchor="middle" x="636" y="-63.5" font-family="Helvetica,sans-Serif" font-size="10.00">d3d11_1.h</text>
</g>
<!-- Node41&#45;&gt;Node42 -->
<g id="edge49" class="edge"><title>Node41&#45;&gt;Node42</title>
<path fill="none" stroke="midnightblue" d="M657.707,-112.083C654.148,-104.691 648.978,-93.9533 644.576,-84.8111"/>
<polygon fill="midnightblue" stroke="midnightblue" points="647.705,-83.2427 640.213,-75.7511 641.398,-86.2795 647.705,-83.2427"/>
</g>
<!-- Node43 -->
<g id="node43" class="node"><title>Node43</title>
<polygon fill="none" stroke="#bfbfbf" points="537.5,-56.5 537.5,-75.5 586.5,-75.5 586.5,-56.5 537.5,-56.5"/>
<text text-anchor="middle" x="562" y="-63.5" font-family="Helvetica,sans-Serif" font-size="10.00">stdint.h</text>
</g>
<!-- Node41&#45;&gt;Node43 -->
<g id="edge51" class="edge"><title>Node41&#45;&gt;Node43</title>
<path fill="none" stroke="midnightblue" d="M645.933,-112.324C630.042,-103.743 605.493,-90.486 587.042,-80.5224"/>
<polygon fill="midnightblue" stroke="midnightblue" points="588.489,-77.3264 578.027,-75.6545 585.163,-83.4857 588.489,-77.3264"/>
</g>
<!-- Node45 -->
<g id="node45" class="node"><title>Node45</title>
<g id="a_node45"><a xlink:href="_game_timer_8hpp.html" target="_top" xlink:title="../mt/GameTimer.hpp">
<polygon fill="none" stroke="black" points="2011.5,-112.5 2011.5,-131.5 2120.5,-131.5 2120.5,-112.5 2011.5,-112.5"/>
<text text-anchor="middle" x="2066" y="-119.5" font-family="Helvetica,sans-Serif" font-size="10.00">../mt/GameTimer.hpp</text>
</a>
</g>
</g>
<!-- Node44&#45;&gt;Node45 -->
<g id="edge54" class="edge"><title>Node44&#45;&gt;Node45</title>
<path fill="none" stroke="midnightblue" d="M1610.72,-347.604C1645.45,-340.17 1694.84,-327.872 1736,-311 1859.77,-260.262 1994.62,-171.875 2045.25,-137.374"/>
<polygon fill="midnightblue" stroke="midnightblue" points="2047.44,-140.121 2053.71,-131.58 2043.48,-134.347 2047.44,-140.121"/>
</g>
<!-- Node46 -->
<g id="node46" class="node"><title>Node46</title>
<g id="a_node46"><a xlink:href="_direct_x_renderer_8hpp.html" target="_top" xlink:title="../mt/DirectXRenderer.hpp">
<polygon fill="none" stroke="black" points="1314,-291.5 1314,-310.5 1442,-310.5 1442,-291.5 1314,-291.5"/>
<text text-anchor="middle" x="1378" y="-298.5" font-family="Helvetica,sans-Serif" font-size="10.00">../mt/DirectXRenderer.hpp</text>
</a>
</g>
</g>
<!-- Node44&#45;&gt;Node46 -->
<g id="edge57" class="edge"><title>Node44&#45;&gt;Node46</title>
<path fill="none" stroke="midnightblue" d="M1537.05,-347.444C1504.84,-338.241 1453.47,-323.562 1417.86,-313.388"/>
<polygon fill="midnightblue" stroke="midnightblue" points="1418.38,-309.898 1407.81,-310.516 1416.46,-316.629 1418.38,-309.898"/>
</g>
<!-- Node48 -->
<g id="node48" class="node"><title>Node48</title>
<g id="a_node48"><a xlink:href="_windows_message_handling_service_8hpp.html" target="_top" xlink:title="../mt/WindowsMessageHandling\lService.hpp">
<polygon fill="none" stroke="black" points="1488.5,-224.5 1488.5,-254.5 1645.5,-254.5 1645.5,-224.5 1488.5,-224.5"/>
<text text-anchor="start" x="1496.5" y="-242.5" font-family="Helvetica,sans-Serif" font-size="10.00">../mt/WindowsMessageHandling</text>
<text text-anchor="middle" x="1567" y="-231.5" font-family="Helvetica,sans-Serif" font-size="10.00">Service.hpp</text>
</a>
</g>
</g>
<!-- Node44&#45;&gt;Node48 -->
<g id="edge64" class="edge"><title>Node44&#45;&gt;Node48</title>
<path fill="none" stroke="midnightblue" d="M1567,-347.319C1567,-329.967 1567,-290.457 1567,-264.658"/>
<polygon fill="midnightblue" stroke="midnightblue" points="1570.5,-264.545 1567,-254.545 1563.5,-264.545 1570.5,-264.545"/>
</g>
<!-- Node50 -->
<g id="node50" class="node"><title>Node50</title>
<g id="a_node50"><a xlink:href="_command_queue_8hpp.html" target="_top" xlink:title="../mt/CommandQueue.hpp">
<polygon fill="none" stroke="black" points="1596.5,-291.5 1596.5,-310.5 1727.5,-310.5 1727.5,-291.5 1596.5,-291.5"/>
<text text-anchor="middle" x="1662" y="-298.5" font-family="Helvetica,sans-Serif" font-size="10.00">../mt/CommandQueue.hpp</text>
</a>
</g>
</g>
<!-- Node44&#45;&gt;Node50 -->
<g id="edge68" class="edge"><title>Node44&#45;&gt;Node50</title>
<path fill="none" stroke="midnightblue" d="M1582.26,-347.324C1597.22,-338.822 1620.25,-325.729 1637.73,-315.797"/>
<polygon fill="midnightblue" stroke="midnightblue" points="1639.81,-318.639 1646.77,-310.655 1636.35,-312.553 1639.81,-318.639"/>
</g>
<!-- Node45&#45;&gt;Node5 -->
<g id="edge55" class="edge"><title>Node45&#45;&gt;Node5</title>
<path fill="none" stroke="midnightblue" d="M2066,-112.083C2066,-105.006 2066,-94.8611 2066,-85.9865"/>
<polygon fill="midnightblue" stroke="midnightblue" points="2069.5,-85.751 2066,-75.7511 2062.5,-85.7511 2069.5,-85.751"/>
</g>
<!-- Node45&#45;&gt;Node12 -->
<g id="edge56" class="edge"><title>Node45&#45;&gt;Node12</title>
<path fill="none" stroke="midnightblue" d="M2076.12,-112.324C2085.53,-104.263 2099.74,-92.0765 2111.07,-82.3695"/>
<polygon fill="midnightblue" stroke="midnightblue" points="2113.38,-84.9993 2118.69,-75.8339 2108.82,-79.6844 2113.38,-84.9993"/>
</g>
<!-- Node46&#45;&gt;Node15 -->
<g id="edge63" class="edge"><title>Node46&#45;&gt;Node15</title>
<path fill="none" stroke="midnightblue" d="M1391.77,-291.473C1403.95,-283.352 1421.53,-270.143 1433,-255 1458.48,-221.37 1453.55,-206.414 1471,-168 1478.32,-151.891 1484.13,-149.265 1488,-132 1489.94,-123.327 1493.3,-119.136 1488,-112 1487.77,-111.692 1413.01,-89.2129 1369.49,-76.147"/>
<polygon fill="midnightblue" stroke="midnightblue" points="1370.26,-72.725 1359.68,-73.2023 1368.25,-79.4295 1370.26,-72.725"/>
</g>
<!-- Node46&#45;&gt;Node23 -->
<g id="edge59" class="edge"><title>Node46&#45;&gt;Node23</title>
<path fill="none" stroke="midnightblue" d="M1355.94,-291.475C1329.63,-281.313 1285.49,-264.256 1255.58,-252.7"/>
<polygon fill="midnightblue" stroke="midnightblue" points="1256.61,-249.348 1246.02,-249.009 1254.09,-255.878 1256.61,-249.348"/>
</g>
<!-- Node46&#45;&gt;Node24 -->
<g id="edge58" class="edge"><title>Node46&#45;&gt;Node24</title>
<path fill="none" stroke="midnightblue" d="M1367.54,-291.417C1343.56,-271.746 1286.45,-225.011 1284,-224 1212.69,-194.555 980.112,-183.478 888.031,-180.181"/>
<polygon fill="midnightblue" stroke="midnightblue" points="887.889,-176.674 877.774,-179.825 887.646,-183.669 887.889,-176.674"/>
</g>
<!-- Node47 -->
<g id="node47" class="node"><title>Node47</title>
<g id="a_node47"><a xlink:href="_camera_8hpp.html" target="_top" xlink:title="../mt/Camera.hpp">
<polygon fill="none" stroke="black" points="1332,-230 1332,-249 1424,-249 1424,-230 1332,-230"/>
<text text-anchor="middle" x="1378" y="-237" font-family="Helvetica,sans-Serif" font-size="10.00">../mt/Camera.hpp</text>
</a>
</g>
</g>
<!-- Node46&#45;&gt;Node47 -->
<g id="edge60" class="edge"><title>Node46&#45;&gt;Node47</title>
<path fill="none" stroke="midnightblue" d="M1378,-291.475C1378,-283.08 1378,-269.981 1378,-259.163"/>
<polygon fill="midnightblue" stroke="midnightblue" points="1381.5,-259.009 1378,-249.009 1374.5,-259.009 1381.5,-259.009"/>
</g>
<!-- Node47&#45;&gt;Node3 -->
<g id="edge61" class="edge"><title>Node47&#45;&gt;Node3</title>
<path fill="none" stroke="midnightblue" d="M1424.29,-231.901C1498.97,-221.004 1639.73,-199.33 1660,-188 1680.33,-176.633 1697.2,-155.413 1707.4,-140.312"/>
<polygon fill="midnightblue" stroke="midnightblue" points="1710.39,-142.143 1712.87,-131.843 1704.51,-138.347 1710.39,-142.143"/>
</g>
<!-- Node47&#45;&gt;Node24 -->
<g id="edge62" class="edge"><title>Node47&#45;&gt;Node24</title>
<path fill="none" stroke="midnightblue" d="M1346.41,-229.981C1337.3,-227.765 1327.3,-225.563 1318,-224 1159.3,-197.332 967.477,-185.05 887.667,-180.813"/>
<polygon fill="midnightblue" stroke="midnightblue" points="887.776,-177.314 877.608,-180.29 887.413,-184.305 887.776,-177.314"/>
</g>
<!-- Node48&#45;&gt;Node3 -->
<g id="edge65" class="edge"><title>Node48&#45;&gt;Node3</title>
<path fill="none" stroke="midnightblue" d="M1631.23,-224.47C1653.51,-216.86 1677.1,-205.324 1694,-188 1706.2,-175.498 1712.28,-156.27 1715.26,-141.966"/>
<polygon fill="midnightblue" stroke="midnightblue" points="1718.77,-142.226 1717.04,-131.773 1711.87,-141.02 1718.77,-142.226"/>
</g>
<!-- Node49 -->
<g id="node49" class="node"><title>Node49</title>
<g id="a_node49"><a xlink:href="_windows_message_handler_8hpp.html" target="_top" xlink:title="../mt/WindowsMessageHandler.hpp">
<polygon fill="none" stroke="red" points="1480.5,-168.5 1480.5,-187.5 1651.5,-187.5 1651.5,-168.5 1480.5,-168.5"/>
<text text-anchor="middle" x="1566" y="-175.5" font-family="Helvetica,sans-Serif" font-size="10.00">../mt/WindowsMessageHandler.hpp</text>
</a>
</g>
</g>
<!-- Node48&#45;&gt;Node49 -->
<g id="edge66" class="edge"><title>Node48&#45;&gt;Node49</title>
<path fill="none" stroke="midnightblue" d="M1566.76,-224.399C1566.63,-216.466 1566.46,-206.458 1566.32,-197.858"/>
<polygon fill="midnightblue" stroke="midnightblue" points="1569.81,-197.598 1566.15,-187.658 1562.81,-197.715 1569.81,-197.598"/>
</g>
<!-- Node49&#45;&gt;Node25 -->
<g id="edge67" class="edge"><title>Node49&#45;&gt;Node25</title>
<path fill="none" stroke="midnightblue" d="M1566,-168.083C1566,-161.006 1566,-150.861 1566,-141.986"/>
<polygon fill="midnightblue" stroke="midnightblue" points="1569.5,-141.751 1566,-131.751 1562.5,-141.751 1569.5,-141.751"/>
</g>
<!-- Node50&#45;&gt;Node3 -->
<g id="edge69" class="edge"><title>Node50&#45;&gt;Node3</title>
<path fill="none" stroke="midnightblue" d="M1667.52,-291.448C1678.89,-273.279 1704.76,-229.122 1715,-188 1718.8,-172.739 1719.35,-154.853 1719.07,-141.711"/>
<polygon fill="midnightblue" stroke="midnightblue" points="1722.56,-141.42 1718.66,-131.568 1715.57,-141.7 1722.56,-141.42"/>
</g>
</g>
</svg>
