<?xml version="1.0" encoding="UTF-8" standalone="no"?>
<!DOCTYPE svg PUBLIC "-//W3C//DTD SVG 1.1//EN"
 "http://www.w3.org/Graphics/SVG/1.1/DTD/svg11.dtd">
<!-- Generated by graphviz version 2.38.0 (20140413.2041)
 -->
<!-- Title: C:/Users/micho/Desktop/mt_engine/mt/MathHelper.h Pages: 1 -->
<svg width="3936pt" height="541pt"
 viewBox="0.00 0.00 3935.57 541.00" xmlns="http://www.w3.org/2000/svg" xmlns:xlink="http://www.w3.org/1999/xlink">
<g id="graph0" class="graph" transform="scale(1 1) rotate(0) translate(4 537)">
<title>C:/Users/micho/Desktop/mt_engine/mt/MathHelper.h</title>
<!-- Node1 -->
<g id="node1" class="node"><title>Node1</title>
<polygon fill="#bfbfbf" stroke="black" points="3468.57,-502.5 3468.57,-532.5 3608.57,-532.5 3608.57,-502.5 3468.57,-502.5"/>
<text text-anchor="start" x="3476.57" y="-520.5" font-family="Helvetica,sans-Serif" font-size="10.00">C:/Users/micho/Desktop</text>
<text text-anchor="middle" x="3538.57" y="-509.5" font-family="Helvetica,sans-Serif" font-size="10.00">/mt_engine/mt/MathHelper.h</text>
</g>
<!-- Node2 -->
<g id="node2" class="node"><title>Node2</title>
<g id="a_node2"><a xlink:href="utility_8hpp.html" target="_top" xlink:title="C:/Users/micho/Desktop\l/mt_engine/mt/utility.hpp">
<polygon fill="none" stroke="black" points="3265.57,-435.5 3265.57,-465.5 3389.57,-465.5 3389.57,-435.5 3265.57,-435.5"/>
<text text-anchor="start" x="3273.57" y="-453.5" font-family="Helvetica,sans-Serif" font-size="10.00">C:/Users/micho/Desktop</text>
<text text-anchor="middle" x="3327.57" y="-442.5" font-family="Helvetica,sans-Serif" font-size="10.00">/mt_engine/mt/utility.hpp</text>
</a>
</g>
</g>
<!-- Node1&#45;&gt;Node2 -->
<g id="edge1" class="edge"><title>Node1&#45;&gt;Node2</title>
<path fill="none" stroke="midnightblue" d="M3483.2,-499.444C3449,-488.908 3405.63,-475.549 3373.37,-465.611"/>
<polygon fill="midnightblue" stroke="midnightblue" points="3482.46,-502.877 3493.04,-502.476 3484.52,-496.187 3482.46,-502.877"/>
</g>
<!-- Node11 -->
<g id="node11" class="node"><title>Node11</title>
<g id="a_node11"><a xlink:href="_input_handler_8cpp.html" target="_top" xlink:title="C:/Users/micho/Desktop\l/mt_engine/mt/InputHandler.cpp">
<polygon fill="none" stroke="black" points="3672.07,-84 3672.07,-114 3827.07,-114 3827.07,-84 3672.07,-84"/>
<text text-anchor="start" x="3680.07" y="-102" font-family="Helvetica,sans-Serif" font-size="10.00">C:/Users/micho/Desktop</text>
<text text-anchor="middle" x="3749.57" y="-91" font-family="Helvetica,sans-Serif" font-size="10.00">/mt_engine/mt/InputHandler.cpp</text>
</a>
</g>
</g>
<!-- Node1&#45;&gt;Node11 -->
<g id="edge57" class="edge"><title>Node1&#45;&gt;Node11</title>
<path fill="none" stroke="midnightblue" d="M3618.67,-500.241C3678.36,-482.908 3749.57,-448.762 3749.57,-384.5 3749.57,-384.5 3749.57,-384.5 3749.57,-243 3749.57,-195.83 3749.57,-139.907 3749.57,-114.208"/>
<polygon fill="midnightblue" stroke="midnightblue" points="3617.52,-496.929 3608.83,-502.982 3619.4,-503.672 3617.52,-496.929"/>
</g>
<!-- Node29 -->
<g id="node29" class="node"><title>Node29</title>
<g id="a_node29"><a xlink:href="d3d_util_8h.html" target="_top" xlink:title="C:/Users/micho/Desktop\l/mt_engine/mt/d3dUtil.h">
<polygon fill="none" stroke="black" points="3027.07,-368.5 3027.07,-398.5 3150.07,-398.5 3150.07,-368.5 3027.07,-368.5"/>
<text text-anchor="start" x="3035.07" y="-386.5" font-family="Helvetica,sans-Serif" font-size="10.00">C:/Users/micho/Desktop</text>
<text text-anchor="middle" x="3088.57" y="-375.5" font-family="Helvetica,sans-Serif" font-size="10.00">/mt_engine/mt/d3dUtil.h</text>
</a>
</g>
</g>
<!-- Node1&#45;&gt;Node29 -->
<g id="edge56" class="edge"><title>Node1&#45;&gt;Node29</title>
<path fill="none" stroke="midnightblue" d="M3458.23,-508.07C3401.01,-500.637 3322.83,-487.549 3256.57,-466 3202.62,-448.454 3143.92,-416.812 3112.18,-398.545"/>
<polygon fill="midnightblue" stroke="midnightblue" points="3457.95,-511.561 3468.31,-509.348 3458.83,-504.617 3457.95,-511.561"/>
</g>
<!-- Node37 -->
<g id="node37" class="node"><title>Node37</title>
<g id="a_node37"><a xlink:href="_math_helper_8cpp.html" target="_top" xlink:title="C:/Users/micho/Desktop\l/mt_engine/mt/MathHelper.cpp">
<polygon fill="none" stroke="black" points="3777.57,-435.5 3777.57,-465.5 3927.57,-465.5 3927.57,-435.5 3777.57,-435.5"/>
<text text-anchor="start" x="3785.57" y="-453.5" font-family="Helvetica,sans-Serif" font-size="10.00">C:/Users/micho/Desktop</text>
<text text-anchor="middle" x="3852.57" y="-442.5" font-family="Helvetica,sans-Serif" font-size="10.00">/mt_engine/mt/MathHelper.cpp</text>
</a>
</g>
</g>
<!-- Node1&#45;&gt;Node37 -->
<g id="edge58" class="edge"><title>Node1&#45;&gt;Node37</title>
<path fill="none" stroke="midnightblue" d="M3616.43,-500.382C3668.08,-489.691 3735.2,-475.796 3784.67,-465.555"/>
<polygon fill="midnightblue" stroke="midnightblue" points="3615.4,-497.021 3606.31,-502.476 3616.82,-503.876 3615.4,-497.021"/>
</g>
<!-- Node3 -->
<g id="node3" class="node"><title>Node3</title>
<g id="a_node3"><a xlink:href="_camera_8hpp.html" target="_top" xlink:title="C:/Users/micho/Desktop\l/mt_engine/mt/Camera.hpp">
<polygon fill="none" stroke="black" points="3145.57,-301.5 3145.57,-331.5 3279.57,-331.5 3279.57,-301.5 3145.57,-301.5"/>
<text text-anchor="start" x="3153.57" y="-319.5" font-family="Helvetica,sans-Serif" font-size="10.00">C:/Users/micho/Desktop</text>
<text text-anchor="middle" x="3212.57" y="-308.5" font-family="Helvetica,sans-Serif" font-size="10.00">/mt_engine/mt/Camera.hpp</text>
</a>
</g>
</g>
<!-- Node2&#45;&gt;Node3 -->
<g id="edge2" class="edge"><title>Node2&#45;&gt;Node3</title>
<path fill="none" stroke="midnightblue" d="M3274.77,-431.185C3259.18,-423.447 3243.4,-412.923 3232.57,-399 3217.17,-379.226 3213.44,-349.233 3212.64,-331.679"/>
<polygon fill="midnightblue" stroke="midnightblue" points="3273.35,-434.383 3283.89,-435.423 3276.3,-428.035 3273.35,-434.383"/>
</g>
<!-- Node2&#45;&gt;Node29 -->
<g id="edge38" class="edge"><title>Node2&#45;&gt;Node29</title>
<path fill="none" stroke="midnightblue" d="M3266.34,-432.85C3227.38,-422.252 3177.47,-408.677 3140.45,-398.611"/>
<polygon fill="midnightblue" stroke="midnightblue" points="3265.43,-436.229 3276,-435.476 3267.27,-429.474 3265.43,-436.229"/>
</g>
<!-- Node32 -->
<g id="node32" class="node"><title>Node32</title>
<g id="a_node32"><a xlink:href="_windows_message_handling_service_8hpp.html" target="_top" xlink:title="C:/Users/micho/Desktop\l/mt_engine/mt/WindowsMessage\lHandlingService.hpp">
<polygon fill="none" stroke="black" points="2100.07,-223.5 2100.07,-264.5 2261.07,-264.5 2261.07,-223.5 2100.07,-223.5"/>
<text text-anchor="start" x="2108.07" y="-252.5" font-family="Helvetica,sans-Serif" font-size="10.00">C:/Users/micho/Desktop</text>
<text text-anchor="start" x="2108.07" y="-241.5" font-family="Helvetica,sans-Serif" font-size="10.00">/mt_engine/mt/WindowsMessage</text>
<text text-anchor="middle" x="2180.57" y="-230.5" font-family="Helvetica,sans-Serif" font-size="10.00">HandlingService.hpp</text>
</a>
</g>
</g>
<!-- Node2&#45;&gt;Node32 -->
<g id="edge45" class="edge"><title>Node2&#45;&gt;Node32</title>
<path fill="none" stroke="midnightblue" d="M3255.24,-438.148C3192.37,-428.176 3098.87,-413.1 3017.57,-399 2739.51,-350.777 2410.45,-288.787 2261.27,-260.416"/>
<polygon fill="midnightblue" stroke="midnightblue" points="3255.03,-441.657 3265.45,-439.765 3256.12,-434.743 3255.03,-441.657"/>
</g>
<!-- Node33 -->
<g id="node33" class="node"><title>Node33</title>
<g id="a_node33"><a xlink:href="_command_queue_8hpp.html" target="_top" xlink:title="C:/Users/micho/Desktop\l/mt_engine/mt/CommandQueue.hpp">
<polygon fill="none" stroke="black" points="3241.07,-368.5 3241.07,-398.5 3414.07,-398.5 3414.07,-368.5 3241.07,-368.5"/>
<text text-anchor="start" x="3249.07" y="-386.5" font-family="Helvetica,sans-Serif" font-size="10.00">C:/Users/micho/Desktop</text>
<text text-anchor="middle" x="3327.57" y="-375.5" font-family="Helvetica,sans-Serif" font-size="10.00">/mt_engine/mt/CommandQueue.hpp</text>
</a>
</g>
</g>
<!-- Node2&#45;&gt;Node33 -->
<g id="edge48" class="edge"><title>Node2&#45;&gt;Node33</title>
<path fill="none" stroke="midnightblue" d="M3327.57,-425.108C3327.57,-416.154 3327.57,-406.323 3327.57,-398.577"/>
<polygon fill="midnightblue" stroke="midnightblue" points="3324.07,-425.396 3327.57,-435.396 3331.07,-425.396 3324.07,-425.396"/>
</g>
<!-- Node35 -->
<g id="node35" class="node"><title>Node35</title>
<g id="a_node35"><a xlink:href="_command_8hpp.html" target="_top" xlink:title="C:/Users/micho/Desktop\l/mt_engine/mt/Command.hpp">
<polygon fill="none" stroke="black" points="3432.07,-368.5 3432.07,-398.5 3577.07,-398.5 3577.07,-368.5 3432.07,-368.5"/>
<text text-anchor="start" x="3440.07" y="-386.5" font-family="Helvetica,sans-Serif" font-size="10.00">C:/Users/micho/Desktop</text>
<text text-anchor="middle" x="3504.57" y="-375.5" font-family="Helvetica,sans-Serif" font-size="10.00">/mt_engine/mt/Command.hpp</text>
</a>
</g>
</g>
<!-- Node2&#45;&gt;Node35 -->
<g id="edge51" class="edge"><title>Node2&#45;&gt;Node35</title>
<path fill="none" stroke="midnightblue" d="M3375.71,-431.819C3404.16,-421.371 3439.69,-408.323 3466.24,-398.577"/>
<polygon fill="midnightblue" stroke="midnightblue" points="3374.15,-428.663 3365.97,-435.396 3376.57,-435.234 3374.15,-428.663"/>
</g>
<!-- Node36 -->
<g id="node36" class="node"><title>Node36</title>
<g id="a_node36"><a xlink:href="_input_handler_8hpp.html" target="_top" xlink:title="C:/Users/micho/Desktop\l/mt_engine/mt/InputHandler.hpp">
<polygon fill="none" stroke="black" points="3566.07,-156.5 3566.07,-186.5 3721.07,-186.5 3721.07,-156.5 3566.07,-156.5"/>
<text text-anchor="start" x="3574.07" y="-174.5" font-family="Helvetica,sans-Serif" font-size="10.00">C:/Users/micho/Desktop</text>
<text text-anchor="middle" x="3643.57" y="-163.5" font-family="Helvetica,sans-Serif" font-size="10.00">/mt_engine/mt/InputHandler.hpp</text>
</a>
</g>
</g>
<!-- Node2&#45;&gt;Node36 -->
<g id="edge54" class="edge"><title>Node2&#45;&gt;Node36</title>
<path fill="none" stroke="midnightblue" d="M3399.75,-444.013C3466.8,-437.437 3560.15,-424.025 3586.57,-399 3648.09,-340.713 3647.15,-226.631 3644.73,-186.706"/>
<polygon fill="midnightblue" stroke="midnightblue" points="3399.27,-440.543 3389.64,-444.973 3399.93,-447.512 3399.27,-440.543"/>
</g>
<!-- Node4 -->
<g id="node4" class="node"><title>Node4</title>
<g id="a_node4"><a xlink:href="_camera_8cpp.html" target="_top" xlink:title="C:/Users/micho/Desktop\l/mt_engine/mt/Camera.cpp">
<polygon fill="none" stroke="black" points="3356.57,-84 3356.57,-114 3490.57,-114 3490.57,-84 3356.57,-84"/>
<text text-anchor="start" x="3364.57" y="-102" font-family="Helvetica,sans-Serif" font-size="10.00">C:/Users/micho/Desktop</text>
<text text-anchor="middle" x="3423.57" y="-91" font-family="Helvetica,sans-Serif" font-size="10.00">/mt_engine/mt/Camera.cpp</text>
</a>
</g>
</g>
<!-- Node3&#45;&gt;Node4 -->
<g id="edge3" class="edge"><title>Node3&#45;&gt;Node4</title>
<path fill="none" stroke="midnightblue" d="M3233.54,-294.077C3276.51,-250.188 3373.55,-151.086 3409.67,-114.192"/>
<polygon fill="midnightblue" stroke="midnightblue" points="3230.91,-291.767 3226.41,-301.36 3235.91,-296.664 3230.91,-291.767"/>
</g>
<!-- Node5 -->
<g id="node5" class="node"><title>Node5</title>
<g id="a_node5"><a xlink:href="_direct_x_renderer_8hpp.html" target="_top" xlink:title="C:/Users/micho/Desktop\l/mt_engine/mt/DirectXRenderer.hpp">
<polygon fill="none" stroke="black" points="2868.57,-229 2868.57,-259 3038.57,-259 3038.57,-229 2868.57,-229"/>
<text text-anchor="start" x="2876.57" y="-247" font-family="Helvetica,sans-Serif" font-size="10.00">C:/Users/micho/Desktop</text>
<text text-anchor="middle" x="2953.57" y="-236" font-family="Helvetica,sans-Serif" font-size="10.00">/mt_engine/mt/DirectXRenderer.hpp</text>
</a>
</g>
</g>
<!-- Node3&#45;&gt;Node5 -->
<g id="edge4" class="edge"><title>Node3&#45;&gt;Node5</title>
<path fill="none" stroke="midnightblue" d="M3151.28,-298.818C3106.86,-286.727 3047.46,-270.557 3005.39,-259.107"/>
<polygon fill="midnightblue" stroke="midnightblue" points="3150.52,-302.238 3161.09,-301.487 3152.36,-295.484 3150.52,-302.238"/>
</g>
<!-- Node6 -->
<g id="node6" class="node"><title>Node6</title>
<g id="a_node6"><a xlink:href="engine_8hpp.html" target="_top" xlink:title="C:/Users/micho/Desktop\l/mt_engine/mt/engine.hpp">
<polygon fill="none" stroke="black" points="2116.07,-156.5 2116.07,-186.5 2245.07,-186.5 2245.07,-156.5 2116.07,-156.5"/>
<text text-anchor="start" x="2124.07" y="-174.5" font-family="Helvetica,sans-Serif" font-size="10.00">C:/Users/micho/Desktop</text>
<text text-anchor="middle" x="2180.57" y="-163.5" font-family="Helvetica,sans-Serif" font-size="10.00">/mt_engine/mt/engine.hpp</text>
</a>
</g>
</g>
<!-- Node5&#45;&gt;Node6 -->
<g id="edge5" class="edge"><title>Node5&#45;&gt;Node6</title>
<path fill="none" stroke="midnightblue" d="M2857.97,-234.282C2698.28,-219.717 2381.37,-190.814 2245.21,-178.395"/>
<polygon fill="midnightblue" stroke="midnightblue" points="2857.98,-237.797 2868.26,-235.22 2858.62,-230.826 2857.98,-237.797"/>
</g>
<!-- Node8 -->
<g id="node8" class="node"><title>Node8</title>
<g id="a_node8"><a xlink:href="_direct_x_renderer_8cpp.html" target="_top" xlink:title="C:/Users/micho/Desktop\l/mt_engine/mt/DirectXRenderer.cpp">
<polygon fill="none" stroke="black" points="18.5665,-84 18.5665,-114 188.566,-114 188.566,-84 18.5665,-84"/>
<text text-anchor="start" x="26.5665" y="-102" font-family="Helvetica,sans-Serif" font-size="10.00">C:/Users/micho/Desktop</text>
<text text-anchor="middle" x="103.566" y="-91" font-family="Helvetica,sans-Serif" font-size="10.00">/mt_engine/mt/DirectXRenderer.cpp</text>
</a>
</g>
</g>
<!-- Node5&#45;&gt;Node8 -->
<g id="edge37" class="edge"><title>Node5&#45;&gt;Node8</title>
<path fill="none" stroke="midnightblue" d="M2858.24,-239.682C2403.51,-223.727 465.652,-154.264 197.566,-120 186.064,-118.53 173.879,-116.384 162.23,-114.037"/>
<polygon fill="midnightblue" stroke="midnightblue" points="2858.27,-243.185 2868.39,-240.038 2858.52,-236.189 2858.27,-243.185"/>
</g>
<!-- Node6&#45;&gt;Node4 -->
<g id="edge6" class="edge"><title>Node6&#45;&gt;Node4</title>
<path fill="none" stroke="midnightblue" d="M2255.6,-169.351C2478.72,-165.603 3135.76,-152.073 3347.57,-120 3357.01,-118.57 3366.97,-116.427 3376.46,-114.067"/>
<polygon fill="midnightblue" stroke="midnightblue" points="2255.24,-165.856 2245.3,-169.522 2255.36,-172.855 2255.24,-165.856"/>
</g>
<!-- Node7 -->
<g id="node7" class="node"><title>Node7</title>
<g id="a_node7"><a xlink:href="_command_8cpp.html" target="_top" xlink:title="C:/Users/micho/Desktop\l/mt_engine/mt/Command.cpp">
<polygon fill="none" stroke="black" points="3509.07,-84 3509.07,-114 3654.07,-114 3654.07,-84 3509.07,-84"/>
<text text-anchor="start" x="3517.07" y="-102" font-family="Helvetica,sans-Serif" font-size="10.00">C:/Users/micho/Desktop</text>
<text text-anchor="middle" x="3581.57" y="-91" font-family="Helvetica,sans-Serif" font-size="10.00">/mt_engine/mt/Command.cpp</text>
</a>
</g>
</g>
<!-- Node6&#45;&gt;Node7 -->
<g id="edge7" class="edge"><title>Node6&#45;&gt;Node7</title>
<path fill="none" stroke="midnightblue" d="M2255.23,-169.614C2496.94,-166.437 3256.52,-153.94 3499.57,-120 3509.73,-118.581 3520.46,-116.443 3530.69,-114.085"/>
<polygon fill="midnightblue" stroke="midnightblue" points="2255.09,-166.116 2245.13,-169.746 2255.18,-173.115 2255.09,-166.116"/>
</g>
<!-- Node6&#45;&gt;Node8 -->
<g id="edge8" class="edge"><title>Node6&#45;&gt;Node8</title>
<path fill="none" stroke="midnightblue" d="M2105.71,-169.411C1767.38,-164.377 389.347,-142.648 197.566,-120 185.719,-118.601 173.157,-116.423 161.204,-114.011"/>
<polygon fill="midnightblue" stroke="midnightblue" points="2105.83,-172.913 2115.88,-169.562 2105.94,-165.914 2105.83,-172.913"/>
</g>
<!-- Node9 -->
<g id="node9" class="node"><title>Node9</title>
<g id="a_node9"><a xlink:href="engine_8cpp.html" target="_top" xlink:title="C:/Users/micho/Desktop\l/mt_engine/mt/engine.cpp">
<polygon fill="none" stroke="black" points="2840.07,-84 2840.07,-114 2969.07,-114 2969.07,-84 2840.07,-84"/>
<text text-anchor="start" x="2848.07" y="-102" font-family="Helvetica,sans-Serif" font-size="10.00">C:/Users/micho/Desktop</text>
<text text-anchor="middle" x="2904.57" y="-91" font-family="Helvetica,sans-Serif" font-size="10.00">/mt_engine/mt/engine.cpp</text>
</a>
</g>
</g>
<!-- Node6&#45;&gt;Node9 -->
<g id="edge9" class="edge"><title>Node6&#45;&gt;Node9</title>
<path fill="none" stroke="midnightblue" d="M2255.48,-169.205C2377.02,-166.093 2624.37,-155.554 2830.57,-120 2839.48,-118.462 2848.89,-116.33 2857.88,-114.028"/>
<polygon fill="midnightblue" stroke="midnightblue" points="2255.09,-165.713 2245.18,-169.459 2255.26,-172.711 2255.09,-165.713"/>
</g>
<!-- Node10 -->
<g id="node10" class="node"><title>Node10</title>
<g id="a_node10"><a xlink:href="_game_timer_8cpp.html" target="_top" xlink:title="C:/Users/micho/Desktop\l/mt_engine/mt/GameTimer.cpp">
<polygon fill="none" stroke="black" points="2987.07,-84 2987.07,-114 3138.07,-114 3138.07,-84 2987.07,-84"/>
<text text-anchor="start" x="2995.07" y="-102" font-family="Helvetica,sans-Serif" font-size="10.00">C:/Users/micho/Desktop</text>
<text text-anchor="middle" x="3062.57" y="-91" font-family="Helvetica,sans-Serif" font-size="10.00">/mt_engine/mt/GameTimer.cpp</text>
</a>
</g>
</g>
<!-- Node6&#45;&gt;Node10 -->
<g id="edge10" class="edge"><title>Node6&#45;&gt;Node10</title>
<path fill="none" stroke="midnightblue" d="M2255.57,-169.931C2397.37,-167.932 2714.15,-159.053 2977.57,-120 2987.76,-118.488 2998.54,-116.368 3008.87,-114.07"/>
<polygon fill="midnightblue" stroke="midnightblue" points="2255.21,-166.436 2245.26,-170.069 2255.31,-173.435 2255.21,-166.436"/>
</g>
<!-- Node6&#45;&gt;Node11 -->
<g id="edge11" class="edge"><title>Node6&#45;&gt;Node11</title>
<path fill="none" stroke="midnightblue" d="M2255.46,-169.875C2516.73,-167.393 3386.96,-156.519 3663.57,-120 3674.36,-118.575 3685.78,-116.403 3696.65,-114.006"/>
<polygon fill="midnightblue" stroke="midnightblue" points="2255.28,-166.376 2245.32,-169.97 2255.35,-173.376 2255.28,-166.376"/>
</g>
<!-- Node12 -->
<g id="node12" class="node"><title>Node12</title>
<g id="a_node12"><a xlink:href="_windows_message_handler_8cpp.html" target="_top" xlink:title="C:/Users/micho/Desktop\l/mt_engine/mt/WindowsMessage\lHandler.cpp">
<polygon fill="none" stroke="black" points="207.066,-78.5 207.066,-119.5 368.066,-119.5 368.066,-78.5 207.066,-78.5"/>
<text text-anchor="start" x="215.066" y="-107.5" font-family="Helvetica,sans-Serif" font-size="10.00">C:/Users/micho/Desktop</text>
<text text-anchor="start" x="215.066" y="-96.5" font-family="Helvetica,sans-Serif" font-size="10.00">/mt_engine/mt/WindowsMessage</text>
<text text-anchor="middle" x="287.566" y="-85.5" font-family="Helvetica,sans-Serif" font-size="10.00">Handler.cpp</text>
</a>
</g>
</g>
<!-- Node6&#45;&gt;Node12 -->
<g id="edge12" class="edge"><title>Node6&#45;&gt;Node12</title>
<path fill="none" stroke="midnightblue" d="M2106.01,-169.264C1787.56,-163.866 549.708,-141.671 376.566,-120 373.895,-119.666 371.186,-119.287 368.456,-118.873"/>
<polygon fill="midnightblue" stroke="midnightblue" points="2106,-172.764 2116.06,-169.433 2106.12,-165.765 2106,-172.764"/>
</g>
<!-- Node13 -->
<g id="node13" class="node"><title>Node13</title>
<g id="a_node13"><a xlink:href="_w_m___l_b_u_t_t_o_n_d_o_w_n___handler_8hpp.html" target="_top" xlink:title="C:/Users/micho/Desktop\l/mt_engine/mt/WM_LBUTTONDOWN\l_Handler.hpp">
<polygon fill="none" stroke="black" points="1439.07,-78.5 1439.07,-119.5 1618.07,-119.5 1618.07,-78.5 1439.07,-78.5"/>
<text text-anchor="start" x="1447.07" y="-107.5" font-family="Helvetica,sans-Serif" font-size="10.00">C:/Users/micho/Desktop</text>
<text text-anchor="start" x="1447.07" y="-96.5" font-family="Helvetica,sans-Serif" font-size="10.00">/mt_engine/mt/WM_LBUTTONDOWN</text>
<text text-anchor="middle" x="1528.57" y="-85.5" font-family="Helvetica,sans-Serif" font-size="10.00">_Handler.hpp</text>
</a>
</g>
</g>
<!-- Node6&#45;&gt;Node13 -->
<g id="edge13" class="edge"><title>Node6&#45;&gt;Node13</title>
<path fill="none" stroke="midnightblue" d="M2106.01,-166.263C1999.5,-159.627 1797.83,-144.898 1627.57,-120 1624.44,-119.543 1621.27,-119.052 1618.07,-118.533"/>
<polygon fill="midnightblue" stroke="midnightblue" points="2105.82,-169.757 2116.02,-166.88 2106.25,-162.771 2105.82,-169.757"/>
</g>
<!-- Node15 -->
<g id="node15" class="node"><title>Node15</title>
<g id="a_node15"><a xlink:href="_w_m___l_b_u_t_t_o_n_u_p___handler_8hpp.html" target="_top" xlink:title="C:/Users/micho/Desktop\l/mt_engine/mt/WM_LBUTTONUP\l_Handler.hpp">
<polygon fill="none" stroke="black" points="1636.57,-78.5 1636.57,-119.5 1798.57,-119.5 1798.57,-78.5 1636.57,-78.5"/>
<text text-anchor="start" x="1644.57" y="-107.5" font-family="Helvetica,sans-Serif" font-size="10.00">C:/Users/micho/Desktop</text>
<text text-anchor="start" x="1644.57" y="-96.5" font-family="Helvetica,sans-Serif" font-size="10.00">/mt_engine/mt/WM_LBUTTONUP</text>
<text text-anchor="middle" x="1717.57" y="-85.5" font-family="Helvetica,sans-Serif" font-size="10.00">_Handler.hpp</text>
</a>
</g>
</g>
<!-- Node6&#45;&gt;Node15 -->
<g id="edge15" class="edge"><title>Node6&#45;&gt;Node15</title>
<path fill="none" stroke="midnightblue" d="M2105.6,-162.228C2030.07,-153.455 1910.33,-138.341 1807.57,-120 1804.73,-119.494 1801.85,-118.96 1798.94,-118.405"/>
<polygon fill="midnightblue" stroke="midnightblue" points="2105.62,-165.754 2115.95,-163.424 2106.42,-158.8 2105.62,-165.754"/>
</g>
<!-- Node16 -->
<g id="node16" class="node"><title>Node16</title>
<g id="a_node16"><a xlink:href="_w_m___m_b_u_t_t_o_n_d_o_w_n___handler_8hpp.html" target="_top" xlink:title="C:/Users/micho/Desktop\l/mt_engine/mt/WM_MBUTTONDOWN\l_Handler.hpp">
<polygon fill="none" stroke="black" points="3156.57,-78.5 3156.57,-119.5 3338.57,-119.5 3338.57,-78.5 3156.57,-78.5"/>
<text text-anchor="start" x="3164.57" y="-107.5" font-family="Helvetica,sans-Serif" font-size="10.00">C:/Users/micho/Desktop</text>
<text text-anchor="start" x="3164.57" y="-96.5" font-family="Helvetica,sans-Serif" font-size="10.00">/mt_engine/mt/WM_MBUTTONDOWN</text>
<text text-anchor="middle" x="3247.57" y="-85.5" font-family="Helvetica,sans-Serif" font-size="10.00">_Handler.hpp</text>
</a>
</g>
</g>
<!-- Node6&#45;&gt;Node16 -->
<g id="edge17" class="edge"><title>Node6&#45;&gt;Node16</title>
<path fill="none" stroke="midnightblue" d="M2255.45,-170.283C2418.36,-169.002 2816.84,-161.485 3147.57,-120 3150.47,-119.636 3153.41,-119.237 3156.37,-118.807"/>
<polygon fill="midnightblue" stroke="midnightblue" points="2255.04,-166.786 2245.07,-170.359 2255.09,-173.786 2255.04,-166.786"/>
</g>
<!-- Node17 -->
<g id="node17" class="node"><title>Node17</title>
<g id="a_node17"><a xlink:href="_w_m___m_b_u_t_t_o_n_u_p___handler_8hpp.html" target="_top" xlink:title="C:/Users/micho/Desktop\l/mt_engine/mt/WM_MBUTTONUP\l_Handler.hpp">
<polygon fill="none" stroke="black" points="386.066,-78.5 386.066,-119.5 551.066,-119.5 551.066,-78.5 386.066,-78.5"/>
<text text-anchor="start" x="394.066" y="-107.5" font-family="Helvetica,sans-Serif" font-size="10.00">C:/Users/micho/Desktop</text>
<text text-anchor="start" x="394.066" y="-96.5" font-family="Helvetica,sans-Serif" font-size="10.00">/mt_engine/mt/WM_MBUTTONUP</text>
<text text-anchor="middle" x="468.566" y="-85.5" font-family="Helvetica,sans-Serif" font-size="10.00">_Handler.hpp</text>
</a>
</g>
</g>
<!-- Node6&#45;&gt;Node17 -->
<g id="edge19" class="edge"><title>Node6&#45;&gt;Node17</title>
<path fill="none" stroke="midnightblue" d="M2105.41,-169.981C1828.5,-167.787 865.419,-157.567 560.566,-120 557.484,-119.62 554.353,-119.187 551.196,-118.709"/>
<polygon fill="midnightblue" stroke="midnightblue" points="2105.73,-173.484 2115.75,-170.062 2105.78,-166.484 2105.73,-173.484"/>
</g>
<!-- Node18 -->
<g id="node18" class="node"><title>Node18</title>
<g id="a_node18"><a xlink:href="_w_m___m_o_u_s_e_m_o_v_e___handler_8hpp.html" target="_top" xlink:title="C:/Users/micho/Desktop\l/mt_engine/mt/WM_MOUSEMOVE\l_Handler.hpp">
<polygon fill="none" stroke="black" points="569.566,-78.5 569.566,-119.5 739.566,-119.5 739.566,-78.5 569.566,-78.5"/>
<text text-anchor="start" x="577.566" y="-107.5" font-family="Helvetica,sans-Serif" font-size="10.00">C:/Users/micho/Desktop</text>
<text text-anchor="start" x="577.566" y="-96.5" font-family="Helvetica,sans-Serif" font-size="10.00">/mt_engine/mt/WM_MOUSEMOVE</text>
<text text-anchor="middle" x="654.566" y="-85.5" font-family="Helvetica,sans-Serif" font-size="10.00">_Handler.hpp</text>
</a>
</g>
</g>
<!-- Node6&#45;&gt;Node18 -->
<g id="edge21" class="edge"><title>Node6&#45;&gt;Node18</title>
<path fill="none" stroke="midnightblue" d="M2105.72,-169.584C1850.45,-166.192 1015.08,-152.797 748.566,-120 745.668,-119.643 742.727,-119.242 739.763,-118.804"/>
<polygon fill="midnightblue" stroke="midnightblue" points="2105.96,-173.088 2116,-169.72 2106.05,-166.088 2105.96,-173.088"/>
</g>
<!-- Node19 -->
<g id="node19" class="node"><title>Node19</title>
<g id="a_node19"><a xlink:href="_w_m___q_u_i_t___handler_8hpp.html" target="_top" xlink:title="C:/Users/micho/Desktop\l/mt_engine/mt/WM_QUIT\l_Handler.hpp">
<polygon fill="none" stroke="black" points="758.066,-78.5 758.066,-119.5 885.066,-119.5 885.066,-78.5 758.066,-78.5"/>
<text text-anchor="start" x="766.066" y="-107.5" font-family="Helvetica,sans-Serif" font-size="10.00">C:/Users/micho/Desktop</text>
<text text-anchor="start" x="766.066" y="-96.5" font-family="Helvetica,sans-Serif" font-size="10.00">/mt_engine/mt/WM_QUIT</text>
<text text-anchor="middle" x="821.566" y="-85.5" font-family="Helvetica,sans-Serif" font-size="10.00">_Handler.hpp</text>
</a>
</g>
</g>
<!-- Node6&#45;&gt;Node19 -->
<g id="edge23" class="edge"><title>Node6&#45;&gt;Node19</title>
<path fill="none" stroke="midnightblue" d="M2105.68,-169.838C1867.54,-167.374 1129.49,-156.883 893.566,-120 890.875,-119.579 888.14,-119.093 885.388,-118.555"/>
<polygon fill="midnightblue" stroke="midnightblue" points="2105.93,-173.34 2115.97,-169.942 2106,-166.341 2105.93,-173.34"/>
</g>
<!-- Node20 -->
<g id="node20" class="node"><title>Node20</title>
<g id="a_node20"><a xlink:href="_w_m___r_b_u_t_t_o_n_d_o_w_n___handler_8hpp.html" target="_top" xlink:title="C:/Users/micho/Desktop\l/mt_engine/mt/WM_RBUTTONDOWN\l_Handler.hpp">
<polygon fill="none" stroke="black" points="903.066,-78.5 903.066,-119.5 1084.07,-119.5 1084.07,-78.5 903.066,-78.5"/>
<text text-anchor="start" x="911.066" y="-107.5" font-family="Helvetica,sans-Serif" font-size="10.00">C:/Users/micho/Desktop</text>
<text text-anchor="start" x="911.066" y="-96.5" font-family="Helvetica,sans-Serif" font-size="10.00">/mt_engine/mt/WM_RBUTTONDOWN</text>
<text text-anchor="middle" x="993.566" y="-85.5" font-family="Helvetica,sans-Serif" font-size="10.00">_Handler.hpp</text>
</a>
</g>
</g>
<!-- Node6&#45;&gt;Node20 -->
<g id="edge25" class="edge"><title>Node6&#45;&gt;Node20</title>
<path fill="none" stroke="midnightblue" d="M2105.73,-170.902C1928.94,-171.008 1471.85,-166.346 1093.57,-120 1090.49,-119.623 1087.37,-119.204 1084.22,-118.751"/>
<polygon fill="midnightblue" stroke="midnightblue" points="2105.96,-174.402 2115.96,-170.89 2105.96,-167.402 2105.96,-174.402"/>
</g>
<!-- Node21 -->
<g id="node21" class="node"><title>Node21</title>
<g id="a_node21"><a xlink:href="_w_m___r_b_u_t_t_o_n_u_p___handler_8hpp.html" target="_top" xlink:title="C:/Users/micho/Desktop\l/mt_engine/mt/WM_RBUTTONUP\l_Handler.hpp">
<polygon fill="none" stroke="black" points="1102.57,-78.5 1102.57,-119.5 1266.57,-119.5 1266.57,-78.5 1102.57,-78.5"/>
<text text-anchor="start" x="1110.57" y="-107.5" font-family="Helvetica,sans-Serif" font-size="10.00">C:/Users/micho/Desktop</text>
<text text-anchor="start" x="1110.57" y="-96.5" font-family="Helvetica,sans-Serif" font-size="10.00">/mt_engine/mt/WM_RBUTTONUP</text>
<text text-anchor="middle" x="1184.57" y="-85.5" font-family="Helvetica,sans-Serif" font-size="10.00">_Handler.hpp</text>
</a>
</g>
</g>
<!-- Node6&#45;&gt;Node21 -->
<g id="edge27" class="edge"><title>Node6&#45;&gt;Node21</title>
<path fill="none" stroke="midnightblue" d="M2105.66,-170.376C1950.21,-169.228 1581.52,-161.882 1275.57,-120 1272.68,-119.605 1269.75,-119.167 1266.8,-118.693"/>
<polygon fill="midnightblue" stroke="midnightblue" points="2106.01,-173.878 2116.04,-170.445 2106.06,-166.878 2106.01,-173.878"/>
</g>
<!-- Node22 -->
<g id="node22" class="node"><title>Node22</title>
<g id="a_node22"><a xlink:href="_w_m___s_i_z_i_n_g___handler_8hpp.html" target="_top" xlink:title="C:/Users/micho/Desktop\l/mt_engine/mt/WM_SIZING\l_Handler.hpp">
<polygon fill="none" stroke="black" points="1284.57,-78.5 1284.57,-119.5 1420.57,-119.5 1420.57,-78.5 1284.57,-78.5"/>
<text text-anchor="start" x="1292.57" y="-107.5" font-family="Helvetica,sans-Serif" font-size="10.00">C:/Users/micho/Desktop</text>
<text text-anchor="start" x="1292.57" y="-96.5" font-family="Helvetica,sans-Serif" font-size="10.00">/mt_engine/mt/WM_SIZING</text>
<text text-anchor="middle" x="1352.57" y="-85.5" font-family="Helvetica,sans-Serif" font-size="10.00">_Handler.hpp</text>
</a>
</g>
</g>
<!-- Node6&#45;&gt;Node22 -->
<g id="edge29" class="edge"><title>Node6&#45;&gt;Node22</title>
<path fill="none" stroke="midnightblue" d="M2105.53,-170.081C1969.77,-168.298 1674.72,-159.722 1429.57,-120 1426.7,-119.536 1423.79,-119.014 1420.86,-118.446"/>
<polygon fill="midnightblue" stroke="midnightblue" points="2105.77,-173.584 2115.81,-170.207 2105.86,-166.585 2105.77,-173.584"/>
</g>
<!-- Node23 -->
<g id="node23" class="node"><title>Node23</title>
<g id="a_node23"><a xlink:href="_w_m___a_c_t_i_v_a_t_e___handler_8cpp.html" target="_top" xlink:title="C:/Users/micho/Desktop\l/mt_engine/mt/WM_ACTIVATE\l_Handler.cpp">
<polygon fill="none" stroke="black" points="1816.57,-78.5 1816.57,-119.5 1968.57,-119.5 1968.57,-78.5 1816.57,-78.5"/>
<text text-anchor="start" x="1824.57" y="-107.5" font-family="Helvetica,sans-Serif" font-size="10.00">C:/Users/micho/Desktop</text>
<text text-anchor="start" x="1824.57" y="-96.5" font-family="Helvetica,sans-Serif" font-size="10.00">/mt_engine/mt/WM_ACTIVATE</text>
<text text-anchor="middle" x="1892.57" y="-85.5" font-family="Helvetica,sans-Serif" font-size="10.00">_Handler.cpp</text>
</a>
</g>
</g>
<!-- Node6&#45;&gt;Node23 -->
<g id="edge31" class="edge"><title>Node6&#45;&gt;Node23</title>
<path fill="none" stroke="midnightblue" d="M2113.46,-154.073C2070.18,-143.477 2013.78,-129.672 1968.8,-118.663"/>
<polygon fill="midnightblue" stroke="midnightblue" points="2112.78,-157.509 2123.32,-156.487 2114.44,-150.71 2112.78,-157.509"/>
</g>
<!-- Node24 -->
<g id="node24" class="node"><title>Node24</title>
<g id="a_node24"><a xlink:href="_w_m___e_n_t_e_r_s_i_z_e_m_o_v_e___handler_8cpp.html" target="_top" xlink:title="C:/Users/micho/Desktop\l/mt_engine/mt/WM_ENTERSIZEMOVE\l_Handler.cpp">
<polygon fill="none" stroke="black" points="1986.57,-78.5 1986.57,-119.5 2174.57,-119.5 2174.57,-78.5 1986.57,-78.5"/>
<text text-anchor="start" x="1994.57" y="-107.5" font-family="Helvetica,sans-Serif" font-size="10.00">C:/Users/micho/Desktop</text>
<text text-anchor="start" x="1994.57" y="-96.5" font-family="Helvetica,sans-Serif" font-size="10.00">/mt_engine/mt/WM_ENTERSIZEMOVE</text>
<text text-anchor="middle" x="2080.57" y="-85.5" font-family="Helvetica,sans-Serif" font-size="10.00">_Handler.cpp</text>
</a>
</g>
</g>
<!-- Node6&#45;&gt;Node24 -->
<g id="edge32" class="edge"><title>Node6&#45;&gt;Node24</title>
<path fill="none" stroke="midnightblue" d="M2151.78,-150.209C2138.13,-140.581 2121.88,-129.125 2108.35,-119.588"/>
<polygon fill="midnightblue" stroke="midnightblue" points="2150.14,-153.332 2160.33,-156.233 2154.17,-147.611 2150.14,-153.332"/>
</g>
<!-- Node25 -->
<g id="node25" class="node"><title>Node25</title>
<g id="a_node25"><a xlink:href="_w_m___e_x_i_t_s_i_z_e_m_o_v_e___handler_8cpp.html" target="_top" xlink:title="C:/Users/micho/Desktop\l/mt_engine/mt/WM_EXITSIZEMOVE\l_Handler.cpp">
<polygon fill="none" stroke="black" points="2193.07,-78.5 2193.07,-119.5 2368.07,-119.5 2368.07,-78.5 2193.07,-78.5"/>
<text text-anchor="start" x="2201.07" y="-107.5" font-family="Helvetica,sans-Serif" font-size="10.00">C:/Users/micho/Desktop</text>
<text text-anchor="start" x="2201.07" y="-96.5" font-family="Helvetica,sans-Serif" font-size="10.00">/mt_engine/mt/WM_EXITSIZEMOVE</text>
<text text-anchor="middle" x="2280.57" y="-85.5" font-family="Helvetica,sans-Serif" font-size="10.00">_Handler.cpp</text>
</a>
</g>
</g>
<!-- Node6&#45;&gt;Node25 -->
<g id="edge33" class="edge"><title>Node6&#45;&gt;Node25</title>
<path fill="none" stroke="midnightblue" d="M2209.35,-150.209C2223.01,-140.581 2239.25,-129.125 2252.78,-119.588"/>
<polygon fill="midnightblue" stroke="midnightblue" points="2206.96,-147.611 2200.8,-156.233 2210.99,-153.332 2206.96,-147.611"/>
</g>
<!-- Node26 -->
<g id="node26" class="node"><title>Node26</title>
<g id="a_node26"><a xlink:href="_w_m___k_e_y_u_p___handler_8cpp.html" target="_top" xlink:title="C:/Users/micho/Desktop\l/mt_engine/mt/WM_KEYUP\l_Handler.cpp">
<polygon fill="none" stroke="black" points="2386.07,-78.5 2386.07,-119.5 2525.07,-119.5 2525.07,-78.5 2386.07,-78.5"/>
<text text-anchor="start" x="2394.07" y="-107.5" font-family="Helvetica,sans-Serif" font-size="10.00">C:/Users/micho/Desktop</text>
<text text-anchor="start" x="2394.07" y="-96.5" font-family="Helvetica,sans-Serif" font-size="10.00">/mt_engine/mt/WM_KEYUP</text>
<text text-anchor="middle" x="2455.57" y="-85.5" font-family="Helvetica,sans-Serif" font-size="10.00">_Handler.cpp</text>
</a>
</g>
</g>
<!-- Node6&#45;&gt;Node26 -->
<g id="edge34" class="edge"><title>Node6&#45;&gt;Node26</title>
<path fill="none" stroke="midnightblue" d="M2245.13,-153.949C2287.38,-143.116 2342.58,-128.966 2385.84,-117.876"/>
<polygon fill="midnightblue" stroke="midnightblue" points="2244.04,-150.613 2235.23,-156.487 2245.78,-157.394 2244.04,-150.613"/>
</g>
<!-- Node27 -->
<g id="node27" class="node"><title>Node27</title>
<g id="a_node27"><a xlink:href="_w_m___s_i_z_e___handler_8cpp.html" target="_top" xlink:title="C:/Users/micho/Desktop\l/mt_engine/mt/WM_SIZE\l_Handler.cpp">
<polygon fill="none" stroke="black" points="2543.57,-78.5 2543.57,-119.5 2669.57,-119.5 2669.57,-78.5 2543.57,-78.5"/>
<text text-anchor="start" x="2551.57" y="-107.5" font-family="Helvetica,sans-Serif" font-size="10.00">C:/Users/micho/Desktop</text>
<text text-anchor="start" x="2551.57" y="-96.5" font-family="Helvetica,sans-Serif" font-size="10.00">/mt_engine/mt/WM_SIZE</text>
<text text-anchor="middle" x="2606.57" y="-85.5" font-family="Helvetica,sans-Serif" font-size="10.00">_Handler.cpp</text>
</a>
</g>
</g>
<!-- Node6&#45;&gt;Node27 -->
<g id="edge35" class="edge"><title>Node6&#45;&gt;Node27</title>
<path fill="none" stroke="midnightblue" d="M2255.38,-162.555C2327.15,-154.284 2438.38,-139.766 2533.57,-120 2536.78,-119.332 2540.07,-118.604 2543.38,-117.833"/>
<polygon fill="midnightblue" stroke="midnightblue" points="2254.62,-159.119 2245.08,-163.73 2255.41,-166.074 2254.62,-159.119"/>
</g>
<!-- Node28 -->
<g id="node28" class="node"><title>Node28</title>
<g id="a_node28"><a xlink:href="_w_m___t_i_m_e_r___handler_8cpp.html" target="_top" xlink:title="C:/Users/micho/Desktop\l/mt_engine/mt/WM_TIMER\l_Handler.cpp">
<polygon fill="none" stroke="black" points="2687.57,-78.5 2687.57,-119.5 2821.57,-119.5 2821.57,-78.5 2687.57,-78.5"/>
<text text-anchor="start" x="2695.57" y="-107.5" font-family="Helvetica,sans-Serif" font-size="10.00">C:/Users/micho/Desktop</text>
<text text-anchor="start" x="2695.57" y="-96.5" font-family="Helvetica,sans-Serif" font-size="10.00">/mt_engine/mt/WM_TIMER</text>
<text text-anchor="middle" x="2754.57" y="-85.5" font-family="Helvetica,sans-Serif" font-size="10.00">_Handler.cpp</text>
</a>
</g>
</g>
<!-- Node6&#45;&gt;Node28 -->
<g id="edge36" class="edge"><title>Node6&#45;&gt;Node28</title>
<path fill="none" stroke="midnightblue" d="M2255.17,-166.58C2353,-160.609 2529.7,-146.964 2678.57,-120 2681.52,-119.465 2684.53,-118.874 2687.56,-118.241"/>
<polygon fill="midnightblue" stroke="midnightblue" points="2254.86,-163.092 2245.09,-167.185 2255.28,-170.08 2254.86,-163.092"/>
</g>
<!-- Node14 -->
<g id="node14" class="node"><title>Node14</title>
<g id="a_node14"><a xlink:href="_windows_message_handling_service_8cpp.html" target="_top" xlink:title="C:/Users/micho/Desktop\l/mt_engine/mt/WindowsMessage\lHandlingService.cpp">
<polygon fill="none" stroke="black" points="1008.07,-0.5 1008.07,-41.5 1169.07,-41.5 1169.07,-0.5 1008.07,-0.5"/>
<text text-anchor="start" x="1016.07" y="-29.5" font-family="Helvetica,sans-Serif" font-size="10.00">C:/Users/micho/Desktop</text>
<text text-anchor="start" x="1016.07" y="-18.5" font-family="Helvetica,sans-Serif" font-size="10.00">/mt_engine/mt/WindowsMessage</text>
<text text-anchor="middle" x="1088.57" y="-7.5" font-family="Helvetica,sans-Serif" font-size="10.00">HandlingService.cpp</text>
</a>
</g>
</g>
<!-- Node13&#45;&gt;Node14 -->
<g id="edge14" class="edge"><title>Node13&#45;&gt;Node14</title>
<path fill="none" stroke="midnightblue" d="M1428.93,-77.9147C1333.8,-60.6205 1236.14,-44.8747 1169.32,-34.4095"/>
<polygon fill="midnightblue" stroke="midnightblue" points="1428.55,-81.4035 1439.02,-79.7564 1429.81,-74.5173 1428.55,-81.4035"/>
</g>
<!-- Node15&#45;&gt;Node14 -->
<g id="edge16" class="edge"><title>Node15&#45;&gt;Node14</title>
<path fill="none" stroke="midnightblue" d="M1626.25,-78.0513C1457.84,-51.3213 1272.62,-35.295 1169.15,-27.5419"/>
<polygon fill="midnightblue" stroke="midnightblue" points="1625.86,-81.5342 1636.29,-79.6615 1626.97,-74.6225 1625.86,-81.5342"/>
</g>
<!-- Node16&#45;&gt;Node14 -->
<g id="edge18" class="edge"><title>Node16&#45;&gt;Node14</title>
<path fill="none" stroke="midnightblue" d="M3146.19,-77.973C2733.27,-33.4636 1497.32,-24.1006 1169.23,-22.359"/>
<polygon fill="midnightblue" stroke="midnightblue" points="3146.06,-81.48 3156.38,-79.0981 3146.83,-74.5222 3146.06,-81.48"/>
</g>
<!-- Node17&#45;&gt;Node14 -->
<g id="edge20" class="edge"><title>Node17&#45;&gt;Node14</title>
<path fill="none" stroke="midnightblue" d="M561.521,-77.9389C725.591,-51.9353 905.914,-35.7984 1007.7,-27.8373"/>
<polygon fill="midnightblue" stroke="midnightblue" points="560.559,-74.5483 551.238,-79.5853 561.666,-81.4603 560.559,-74.5483"/>
</g>
<!-- Node18&#45;&gt;Node14 -->
<g id="edge22" class="edge"><title>Node18&#45;&gt;Node14</title>
<path fill="none" stroke="midnightblue" d="M749.592,-77.8451C843.971,-60.1953 941.356,-44.5246 1008.01,-34.1902"/>
<polygon fill="midnightblue" stroke="midnightblue" points="748.767,-74.4389 739.585,-79.7262 750.06,-81.3185 748.767,-74.4389"/>
</g>
<!-- Node19&#45;&gt;Node14 -->
<g id="edge24" class="edge"><title>Node19&#45;&gt;Node14</title>
<path fill="none" stroke="midnightblue" d="M894.897,-77.127C933.891,-66.0274 981.547,-52.4626 1019.83,-41.5663"/>
<polygon fill="midnightblue" stroke="midnightblue" points="893.84,-73.7886 885.18,-79.8927 895.757,-80.5212 893.84,-73.7886"/>
</g>
<!-- Node20&#45;&gt;Node14 -->
<g id="edge26" class="edge"><title>Node20&#45;&gt;Node14</title>
<path fill="none" stroke="midnightblue" d="M1025.99,-72.0648C1038.49,-62.0574 1052.56,-50.8045 1064.18,-41.5056"/>
<polygon fill="midnightblue" stroke="midnightblue" points="1023.65,-69.4481 1018.03,-78.4281 1028.03,-74.9142 1023.65,-69.4481"/>
</g>
<!-- Node21&#45;&gt;Node14 -->
<g id="edge28" class="edge"><title>Node21&#45;&gt;Node14</title>
<path fill="none" stroke="midnightblue" d="M1151.81,-72.0648C1139.17,-62.0574 1124.95,-50.8045 1113.21,-41.5056"/>
<polygon fill="midnightblue" stroke="midnightblue" points="1149.83,-74.9652 1159.84,-78.4281 1154.18,-69.4769 1149.83,-74.9652"/>
</g>
<!-- Node22&#45;&gt;Node14 -->
<g id="edge30" class="edge"><title>Node22&#45;&gt;Node14</title>
<path fill="none" stroke="midnightblue" d="M1274.69,-75.5805C1237.12,-64.7644 1192.47,-51.9115 1156.32,-41.5056"/>
<polygon fill="midnightblue" stroke="midnightblue" points="1274,-79.025 1284.58,-78.4281 1275.94,-72.2982 1274,-79.025"/>
</g>
<!-- Node29&#45;&gt;Node3 -->
<g id="edge39" class="edge"><title>Node29&#45;&gt;Node3</title>
<path fill="none" stroke="midnightblue" d="M3124.4,-363.714C3143.96,-353.463 3167.77,-340.983 3185.71,-331.577"/>
<polygon fill="midnightblue" stroke="midnightblue" points="3122.7,-360.653 3115.47,-368.396 3125.95,-366.853 3122.7,-360.653"/>
</g>
<!-- Node29&#45;&gt;Node5 -->
<g id="edge40" class="edge"><title>Node29&#45;&gt;Node5</title>
<path fill="none" stroke="midnightblue" d="M3018.94,-364.596C3001.61,-357.101 2984.56,-346.608 2972.57,-332 2955.3,-310.973 2952.79,-277.737 2952.91,-259.018"/>
<polygon fill="midnightblue" stroke="midnightblue" points="3017.99,-367.985 3028.57,-368.458 3020.6,-361.488 3017.99,-367.985"/>
</g>
<!-- Node30 -->
<g id="node30" class="node"><title>Node30</title>
<g id="a_node30"><a xlink:href="_upload_buffer_8h.html" target="_top" xlink:title="C:/Users/micho/Desktop\l/mt_engine/mt/UploadBuffer.h">
<polygon fill="none" stroke="black" points="2982.07,-301.5 2982.07,-331.5 3127.07,-331.5 3127.07,-301.5 2982.07,-301.5"/>
<text text-anchor="start" x="2990.07" y="-319.5" font-family="Helvetica,sans-Serif" font-size="10.00">C:/Users/micho/Desktop</text>
<text text-anchor="middle" x="3054.57" y="-308.5" font-family="Helvetica,sans-Serif" font-size="10.00">/mt_engine/mt/UploadBuffer.h</text>
</a>
</g>
</g>
<!-- Node29&#45;&gt;Node30 -->
<g id="edge41" class="edge"><title>Node29&#45;&gt;Node30</title>
<path fill="none" stroke="midnightblue" d="M3076.42,-359.283C3071.58,-350.022 3066.16,-339.663 3061.93,-331.577"/>
<polygon fill="midnightblue" stroke="midnightblue" points="3073.45,-361.157 3081.19,-368.396 3079.66,-357.913 3073.45,-361.157"/>
</g>
<!-- Node31 -->
<g id="node31" class="node"><title>Node31</title>
<g id="a_node31"><a xlink:href="d3d_util_8cpp.html" target="_top" xlink:title="C:/Users/micho/Desktop\l/mt_engine/mt/d3dUtil.cpp">
<polygon fill="none" stroke="black" points="2794.07,-301.5 2794.07,-331.5 2925.07,-331.5 2925.07,-301.5 2794.07,-301.5"/>
<text text-anchor="start" x="2802.07" y="-319.5" font-family="Helvetica,sans-Serif" font-size="10.00">C:/Users/micho/Desktop</text>
<text text-anchor="middle" x="2859.57" y="-308.5" font-family="Helvetica,sans-Serif" font-size="10.00">/mt_engine/mt/d3dUtil.cpp</text>
</a>
</g>
</g>
<!-- Node29&#45;&gt;Node31 -->
<g id="edge44" class="edge"><title>Node29&#45;&gt;Node31</title>
<path fill="none" stroke="midnightblue" d="M3029.43,-365.715C2992.17,-355.137 2944.6,-341.635 2909.28,-331.611"/>
<polygon fill="midnightblue" stroke="midnightblue" points="3028.58,-369.112 3039.16,-368.476 3030.49,-362.378 3028.58,-369.112"/>
</g>
<!-- Node30&#45;&gt;Node5 -->
<g id="edge42" class="edge"><title>Node30&#45;&gt;Node5</title>
<path fill="none" stroke="midnightblue" d="M3025.82,-295.431C3009.14,-283.792 2988.56,-269.424 2973.63,-259.005"/>
<polygon fill="midnightblue" stroke="midnightblue" points="3023.92,-298.379 3034.13,-301.233 3027.93,-292.64 3023.92,-298.379"/>
</g>
<!-- Node30&#45;&gt;Node11 -->
<g id="edge43" class="edge"><title>Node30&#45;&gt;Node11</title>
<path fill="none" stroke="midnightblue" d="M3107.45,-298.286C3198.96,-268.595 3392.88,-206.119 3557.57,-156 3605.9,-141.291 3661.31,-125.212 3700.15,-114.072"/>
<polygon fill="midnightblue" stroke="midnightblue" points="3106.29,-294.982 3097.86,-301.398 3108.45,-301.64 3106.29,-294.982"/>
</g>
<!-- Node32&#45;&gt;Node6 -->
<g id="edge46" class="edge"><title>Node32&#45;&gt;Node6</title>
<path fill="none" stroke="midnightblue" d="M2180.57,-213.08C2180.57,-204.006 2180.57,-194.45 2180.57,-186.892"/>
<polygon fill="midnightblue" stroke="midnightblue" points="2177.07,-213.362 2180.57,-223.362 2184.07,-213.362 2177.07,-213.362"/>
</g>
<!-- Node32&#45;&gt;Node14 -->
<g id="edge47" class="edge"><title>Node32&#45;&gt;Node14</title>
<path fill="none" stroke="midnightblue" d="M2089.67,-241.347C1687.03,-233.588 80.9663,-197.83 9.56646,-120 -3.0524,-106.245 -3.28626,-91.5371 9.56646,-78 43.8329,-41.909 762.993,-27.1693 1007.8,-23.1854"/>
<polygon fill="midnightblue" stroke="midnightblue" points="2089.74,-244.849 2099.81,-241.542 2089.88,-237.851 2089.74,-244.849"/>
</g>
<!-- Node33&#45;&gt;Node6 -->
<g id="edge49" class="edge"><title>Node33&#45;&gt;Node6</title>
<path fill="none" stroke="midnightblue" d="M3321.64,-358.437C3315.99,-340.284 3305.74,-316.023 3288.57,-301 3203.83,-226.872 3158.21,-243.775 3047.57,-223 2893.73,-194.116 2419.13,-178.866 2245.26,-174.134"/>
<polygon fill="midnightblue" stroke="midnightblue" points="3318.34,-359.645 3324.45,-368.303 3325.07,-357.726 3318.34,-359.645"/>
</g>
<!-- Node34 -->
<g id="node34" class="node"><title>Node34</title>
<g id="a_node34"><a xlink:href="_command_queue_8cpp.html" target="_top" xlink:title="C:/Users/micho/Desktop\l/mt_engine/mt/CommandQueue.cpp">
<polygon fill="none" stroke="black" points="3336.07,-301.5 3336.07,-331.5 3509.07,-331.5 3509.07,-301.5 3336.07,-301.5"/>
<text text-anchor="start" x="3344.07" y="-319.5" font-family="Helvetica,sans-Serif" font-size="10.00">C:/Users/micho/Desktop</text>
<text text-anchor="middle" x="3422.57" y="-308.5" font-family="Helvetica,sans-Serif" font-size="10.00">/mt_engine/mt/CommandQueue.cpp</text>
</a>
</g>
</g>
<!-- Node33&#45;&gt;Node34 -->
<g id="edge50" class="edge"><title>Node33&#45;&gt;Node34</title>
<path fill="none" stroke="midnightblue" d="M3356.46,-362.734C3371.16,-352.676 3388.68,-340.685 3401.99,-331.577"/>
<polygon fill="midnightblue" stroke="midnightblue" points="3354.46,-359.861 3348.18,-368.396 3358.41,-365.638 3354.46,-359.861"/>
</g>
<!-- Node35&#45;&gt;Node7 -->
<g id="edge52" class="edge"><title>Node35&#45;&gt;Node7</title>
<path fill="none" stroke="midnightblue" d="M3511.49,-358.534C3513.83,-350.164 3516.4,-340.69 3518.57,-332 3537.94,-254.258 3533.01,-232.264 3557.57,-156 3562.23,-141.501 3569.24,-125.595 3574.49,-114.452"/>
<polygon fill="midnightblue" stroke="midnightblue" points="3508.05,-357.828 3508.69,-368.403 3514.78,-359.738 3508.05,-357.828"/>
</g>
<!-- Node35&#45;&gt;Node34 -->
<g id="edge53" class="edge"><title>Node35&#45;&gt;Node34</title>
<path fill="none" stroke="midnightblue" d="M3478.92,-362.168C3466.38,-352.228 3451.6,-340.514 3440.32,-331.577"/>
<polygon fill="midnightblue" stroke="midnightblue" points="3476.76,-364.927 3486.77,-368.396 3481.11,-359.441 3476.76,-364.927"/>
</g>
<!-- Node36&#45;&gt;Node11 -->
<g id="edge55" class="edge"><title>Node36&#45;&gt;Node11</title>
<path fill="none" stroke="midnightblue" d="M3673.48,-150.603C3690.99,-138.959 3712.67,-124.538 3728.41,-114.073"/>
<polygon fill="midnightblue" stroke="midnightblue" points="3671.15,-147.95 3664.76,-156.403 3675.03,-153.779 3671.15,-147.95"/>
</g>
</g>
</svg>
