<?xml version="1.0" encoding="UTF-8" standalone="no"?>
<!DOCTYPE svg PUBLIC "-//W3C//DTD SVG 1.1//EN"
 "http://www.w3.org/Graphics/SVG/1.1/DTD/svg11.dtd">
<!-- Generated by graphviz version 2.38.0 (20140413.2041)
 -->
<!-- Title: C:/Users/micho/Desktop/mt_engine/mt/MathHelper.cpp Pages: 1 -->
<svg width="291pt" height="151pt"
 viewBox="0.00 0.00 290.50 151.00" xmlns="http://www.w3.org/2000/svg" xmlns:xlink="http://www.w3.org/1999/xlink">
<g id="graph0" class="graph" transform="scale(1 1) rotate(0) translate(4 147)">
<title>C:/Users/micho/Desktop/mt_engine/mt/MathHelper.cpp</title>
<!-- Node1 -->
<g id="node1" class="node"><title>Node1</title>
<polygon fill="#bfbfbf" stroke="black" points="123.5,-112.5 123.5,-142.5 273.5,-142.5 273.5,-112.5 123.5,-112.5"/>
<text text-anchor="start" x="131.5" y="-130.5" font-family="Helvetica,sans-Serif" font-size="10.00">C:/Users/micho/Desktop</text>
<text text-anchor="middle" x="198.5" y="-119.5" font-family="Helvetica,sans-Serif" font-size="10.00">/mt_engine/mt/MathHelper.cpp</text>
</g>
<!-- Node2 -->
<g id="node2" class="node"><title>Node2</title>
<g id="a_node2"><a xlink:href="_math_helper_8h.html" target="_top" xlink:title="MathHelper.h">
<polygon fill="none" stroke="black" points="84.5,-56.5 84.5,-75.5 158.5,-75.5 158.5,-56.5 84.5,-56.5"/>
<text text-anchor="middle" x="121.5" y="-63.5" font-family="Helvetica,sans-Serif" font-size="10.00">MathHelper.h</text>
</a>
</g>
</g>
<!-- Node1&#45;&gt;Node2 -->
<g id="edge1" class="edge"><title>Node1&#45;&gt;Node2</title>
<path fill="none" stroke="midnightblue" d="M180.252,-112.399C168.371,-103.218 152.893,-91.2579 140.806,-81.9182"/>
<polygon fill="midnightblue" stroke="midnightblue" points="142.757,-79.0028 132.704,-75.6578 138.477,-84.5418 142.757,-79.0028"/>
</g>
<!-- Node6 -->
<g id="node6" class="node"><title>Node6</title>
<polygon fill="none" stroke="#bfbfbf" points="177,-56.5 177,-75.5 220,-75.5 220,-56.5 177,-56.5"/>
<text text-anchor="middle" x="198.5" y="-63.5" font-family="Helvetica,sans-Serif" font-size="10.00">float.h</text>
</g>
<!-- Node1&#45;&gt;Node6 -->
<g id="edge5" class="edge"><title>Node1&#45;&gt;Node6</title>
<path fill="none" stroke="midnightblue" d="M198.5,-112.399C198.5,-104.466 198.5,-94.458 198.5,-85.8583"/>
<polygon fill="midnightblue" stroke="midnightblue" points="202,-85.6577 198.5,-75.6578 195,-85.6578 202,-85.6577"/>
</g>
<!-- Node7 -->
<g id="node7" class="node"><title>Node7</title>
<polygon fill="none" stroke="#bfbfbf" points="238.5,-56.5 238.5,-75.5 282.5,-75.5 282.5,-56.5 238.5,-56.5"/>
<text text-anchor="middle" x="260.5" y="-63.5" font-family="Helvetica,sans-Serif" font-size="10.00">cmath</text>
</g>
<!-- Node1&#45;&gt;Node7 -->
<g id="edge6" class="edge"><title>Node1&#45;&gt;Node7</title>
<path fill="none" stroke="midnightblue" d="M213.193,-112.399C222.481,-103.486 234.499,-91.9523 244.098,-82.7408"/>
<polygon fill="midnightblue" stroke="midnightblue" points="246.687,-85.1072 251.478,-75.6578 241.84,-80.0566 246.687,-85.1072"/>
</g>
<!-- Node3 -->
<g id="node3" class="node"><title>Node3</title>
<polygon fill="none" stroke="#bfbfbf" points="0,-0.5 0,-19.5 65,-19.5 65,-0.5 0,-0.5"/>
<text text-anchor="middle" x="32.5" y="-7.5" font-family="Helvetica,sans-Serif" font-size="10.00">Windows.h</text>
</g>
<!-- Node2&#45;&gt;Node3 -->
<g id="edge2" class="edge"><title>Node2&#45;&gt;Node3</title>
<path fill="none" stroke="midnightblue" d="M107.201,-56.324C93.3171,-47.9002 72.0076,-34.9709 55.6963,-25.0741"/>
<polygon fill="midnightblue" stroke="midnightblue" points="57.1289,-21.8495 46.7639,-19.6545 53.4978,-27.8341 57.1289,-21.8495"/>
</g>
<!-- Node4 -->
<g id="node4" class="node"><title>Node4</title>
<polygon fill="none" stroke="#bfbfbf" points="83,-0.5 83,-19.5 160,-19.5 160,-0.5 83,-0.5"/>
<text text-anchor="middle" x="121.5" y="-7.5" font-family="Helvetica,sans-Serif" font-size="10.00">DirectXMath.h</text>
</g>
<!-- Node2&#45;&gt;Node4 -->
<g id="edge3" class="edge"><title>Node2&#45;&gt;Node4</title>
<path fill="none" stroke="midnightblue" d="M121.5,-56.083C121.5,-49.0059 121.5,-38.8611 121.5,-29.9865"/>
<polygon fill="midnightblue" stroke="midnightblue" points="125,-29.751 121.5,-19.7511 118,-29.7511 125,-29.751"/>
</g>
<!-- Node5 -->
<g id="node5" class="node"><title>Node5</title>
<polygon fill="none" stroke="#bfbfbf" points="178.5,-0.5 178.5,-19.5 224.5,-19.5 224.5,-0.5 178.5,-0.5"/>
<text text-anchor="middle" x="201.5" y="-7.5" font-family="Helvetica,sans-Serif" font-size="10.00">cstdint</text>
</g>
<!-- Node2&#45;&gt;Node5 -->
<g id="edge4" class="edge"><title>Node2&#45;&gt;Node5</title>
<path fill="none" stroke="midnightblue" d="M134.353,-56.324C146.716,-47.979 165.63,-35.2122 180.237,-25.3524"/>
<polygon fill="midnightblue" stroke="midnightblue" points="182.348,-28.1503 188.679,-19.6545 178.432,-22.3483 182.348,-28.1503"/>
</g>
</g>
</svg>
