<?xml version="1.0" encoding="UTF-8" standalone="no"?>
<!DOCTYPE svg PUBLIC "-//W3C//DTD SVG 1.1//EN"
 "http://www.w3.org/Graphics/SVG/1.1/DTD/svg11.dtd">
<!-- Generated by graphviz version 2.38.0 (20140413.2041)
 -->
<!-- Title: C:/Users/micho/Desktop/mt_engine/mt/UploadBuffer.h Pages: 1 -->
<svg width="3816pt" height="329pt"
 viewBox="0.00 0.00 3815.50 329.00" xmlns="http://www.w3.org/2000/svg" xmlns:xlink="http://www.w3.org/1999/xlink">
<g id="graph0" class="graph" transform="scale(1 1) rotate(0) translate(4 325)">
<title>C:/Users/micho/Desktop/mt_engine/mt/UploadBuffer.h</title>
<!-- Node1 -->
<g id="node1" class="node"><title>Node1</title>
<polygon fill="#bfbfbf" stroke="black" points="2347.5,-290.5 2347.5,-320.5 2492.5,-320.5 2492.5,-290.5 2347.5,-290.5"/>
<text text-anchor="start" x="2355.5" y="-308.5" font-family="Helvetica,sans-Serif" font-size="10.00">C:/Users/micho/Desktop</text>
<text text-anchor="middle" x="2420" y="-297.5" font-family="Helvetica,sans-Serif" font-size="10.00">/mt_engine/mt/UploadBuffer.h</text>
</g>
<!-- Node2 -->
<g id="node2" class="node"><title>Node2</title>
<g id="a_node2"><a xlink:href="_direct_x_renderer_8hpp.html" target="_top" xlink:title="C:/Users/micho/Desktop\l/mt_engine/mt/DirectXRenderer.hpp">
<polygon fill="none" stroke="black" points="1861,-223.5 1861,-253.5 2031,-253.5 2031,-223.5 1861,-223.5"/>
<text text-anchor="start" x="1869" y="-241.5" font-family="Helvetica,sans-Serif" font-size="10.00">C:/Users/micho/Desktop</text>
<text text-anchor="middle" x="1946" y="-230.5" font-family="Helvetica,sans-Serif" font-size="10.00">/mt_engine/mt/DirectXRenderer.hpp</text>
</a>
</g>
</g>
<!-- Node1&#45;&gt;Node2 -->
<g id="edge1" class="edge"><title>Node1&#45;&gt;Node2</title>
<path fill="none" stroke="midnightblue" d="M2337.54,-293.192C2251.78,-281.431 2118.14,-263.106 2031.33,-251.202"/>
<polygon fill="midnightblue" stroke="midnightblue" points="2337.11,-296.666 2347.49,-294.557 2338.06,-289.731 2337.11,-296.666"/>
</g>
<!-- Node9 -->
<g id="node9" class="node"><title>Node9</title>
<g id="a_node9"><a xlink:href="_input_handler_8cpp.html" target="_top" xlink:title="C:/Users/micho/Desktop\l/mt_engine/mt/InputHandler.cpp">
<polygon fill="none" stroke="black" points="3652.5,-84 3652.5,-114 3807.5,-114 3807.5,-84 3652.5,-84"/>
<text text-anchor="start" x="3660.5" y="-102" font-family="Helvetica,sans-Serif" font-size="10.00">C:/Users/micho/Desktop</text>
<text text-anchor="middle" x="3730" y="-91" font-family="Helvetica,sans-Serif" font-size="10.00">/mt_engine/mt/InputHandler.cpp</text>
</a>
</g>
</g>
<!-- Node1&#45;&gt;Node9 -->
<g id="edge35" class="edge"><title>Node1&#45;&gt;Node9</title>
<path fill="none" stroke="midnightblue" d="M2502.73,-294.235C2700.57,-269.203 3216.38,-201.093 3643,-120 3652.29,-118.235 3662.09,-116.175 3671.63,-114.061"/>
<polygon fill="midnightblue" stroke="midnightblue" points="2502.18,-290.776 2492.7,-295.501 2503.06,-297.721 2502.18,-290.776"/>
</g>
<!-- Node3 -->
<g id="node3" class="node"><title>Node3</title>
<g id="a_node3"><a xlink:href="engine_8hpp.html" target="_top" xlink:title="C:/Users/micho/Desktop\l/mt_engine/mt/engine.hpp">
<polygon fill="none" stroke="black" points="1881.5,-156.5 1881.5,-186.5 2010.5,-186.5 2010.5,-156.5 1881.5,-156.5"/>
<text text-anchor="start" x="1889.5" y="-174.5" font-family="Helvetica,sans-Serif" font-size="10.00">C:/Users/micho/Desktop</text>
<text text-anchor="middle" x="1946" y="-163.5" font-family="Helvetica,sans-Serif" font-size="10.00">/mt_engine/mt/engine.hpp</text>
</a>
</g>
</g>
<!-- Node2&#45;&gt;Node3 -->
<g id="edge2" class="edge"><title>Node2&#45;&gt;Node3</title>
<path fill="none" stroke="midnightblue" d="M1946,-213.108C1946,-204.154 1946,-194.323 1946,-186.577"/>
<polygon fill="midnightblue" stroke="midnightblue" points="1942.5,-213.396 1946,-223.396 1949.5,-213.396 1942.5,-213.396"/>
</g>
<!-- Node6 -->
<g id="node6" class="node"><title>Node6</title>
<g id="a_node6"><a xlink:href="_direct_x_renderer_8cpp.html" target="_top" xlink:title="C:/Users/micho/Desktop\l/mt_engine/mt/DirectXRenderer.cpp">
<polygon fill="none" stroke="black" points="0,-84 0,-114 170,-114 170,-84 0,-84"/>
<text text-anchor="start" x="8" y="-102" font-family="Helvetica,sans-Serif" font-size="10.00">C:/Users/micho/Desktop</text>
<text text-anchor="middle" x="85" y="-91" font-family="Helvetica,sans-Serif" font-size="10.00">/mt_engine/mt/DirectXRenderer.cpp</text>
</a>
</g>
</g>
<!-- Node2&#45;&gt;Node6 -->
<g id="edge34" class="edge"><title>Node2&#45;&gt;Node6</title>
<path fill="none" stroke="midnightblue" d="M1850.58,-235.953C1584.64,-230.609 813.076,-208.075 179,-120 167.845,-118.451 156.037,-116.328 144.697,-114.042"/>
<polygon fill="midnightblue" stroke="midnightblue" points="1850.89,-239.46 1860.96,-236.158 1851.03,-232.461 1850.89,-239.46"/>
</g>
<!-- Node4 -->
<g id="node4" class="node"><title>Node4</title>
<g id="a_node4"><a xlink:href="_camera_8cpp.html" target="_top" xlink:title="C:/Users/micho/Desktop\l/mt_engine/mt/Camera.cpp">
<polygon fill="none" stroke="black" points="3500,-84 3500,-114 3634,-114 3634,-84 3500,-84"/>
<text text-anchor="start" x="3508" y="-102" font-family="Helvetica,sans-Serif" font-size="10.00">C:/Users/micho/Desktop</text>
<text text-anchor="middle" x="3567" y="-91" font-family="Helvetica,sans-Serif" font-size="10.00">/mt_engine/mt/Camera.cpp</text>
</a>
</g>
</g>
<!-- Node3&#45;&gt;Node4 -->
<g id="edge3" class="edge"><title>Node3&#45;&gt;Node4</title>
<path fill="none" stroke="midnightblue" d="M2021.25,-169.033C2310.93,-163.251 3345.09,-141.307 3491,-120 3500.59,-118.6 3510.7,-116.439 3520.31,-114.045"/>
<polygon fill="midnightblue" stroke="midnightblue" points="2020.79,-165.542 2010.86,-169.24 2020.93,-172.54 2020.79,-165.542"/>
</g>
<!-- Node5 -->
<g id="node5" class="node"><title>Node5</title>
<g id="a_node5"><a xlink:href="_command_8cpp.html" target="_top" xlink:title="C:/Users/micho/Desktop\l/mt_engine/mt/Command.cpp">
<polygon fill="none" stroke="black" points="188.5,-84 188.5,-114 333.5,-114 333.5,-84 188.5,-84"/>
<text text-anchor="start" x="196.5" y="-102" font-family="Helvetica,sans-Serif" font-size="10.00">C:/Users/micho/Desktop</text>
<text text-anchor="middle" x="261" y="-91" font-family="Helvetica,sans-Serif" font-size="10.00">/mt_engine/mt/Command.cpp</text>
</a>
</g>
</g>
<!-- Node3&#45;&gt;Node5 -->
<g id="edge4" class="edge"><title>Node3&#45;&gt;Node5</title>
<path fill="none" stroke="midnightblue" d="M1870.84,-169.065C1574.28,-163.275 494.157,-140.942 342,-120 331.812,-118.598 321.044,-116.435 310.803,-114.041"/>
<polygon fill="midnightblue" stroke="midnightblue" points="1870.99,-172.568 1881.06,-169.264 1871.13,-165.57 1870.99,-172.568"/>
</g>
<!-- Node3&#45;&gt;Node6 -->
<g id="edge5" class="edge"><title>Node3&#45;&gt;Node6</title>
<path fill="none" stroke="midnightblue" d="M1870.69,-169.153C1555.18,-163.4 348.293,-140.26 179,-120 167.238,-118.592 154.769,-116.427 142.891,-114.033"/>
<polygon fill="midnightblue" stroke="midnightblue" points="1871.03,-172.66 1881.09,-169.342 1871.16,-165.661 1871.03,-172.66"/>
</g>
<!-- Node7 -->
<g id="node7" class="node"><title>Node7</title>
<g id="a_node7"><a xlink:href="engine_8cpp.html" target="_top" xlink:title="C:/Users/micho/Desktop\l/mt_engine/mt/engine.cpp">
<polygon fill="none" stroke="black" points="351.5,-84 351.5,-114 480.5,-114 480.5,-84 351.5,-84"/>
<text text-anchor="start" x="359.5" y="-102" font-family="Helvetica,sans-Serif" font-size="10.00">C:/Users/micho/Desktop</text>
<text text-anchor="middle" x="416" y="-91" font-family="Helvetica,sans-Serif" font-size="10.00">/mt_engine/mt/engine.cpp</text>
</a>
</g>
</g>
<!-- Node3&#45;&gt;Node7 -->
<g id="edge6" class="edge"><title>Node3&#45;&gt;Node7</title>
<path fill="none" stroke="midnightblue" d="M1871.04,-170.203C1612.57,-168.821 759.535,-161.172 489,-120 479.776,-118.596 470.054,-116.433 460.819,-114.039"/>
<polygon fill="midnightblue" stroke="midnightblue" points="1871.06,-173.703 1881.08,-170.255 1871.1,-166.703 1871.06,-173.703"/>
</g>
<!-- Node8 -->
<g id="node8" class="node"><title>Node8</title>
<g id="a_node8"><a xlink:href="_game_timer_8cpp.html" target="_top" xlink:title="C:/Users/micho/Desktop\l/mt_engine/mt/GameTimer.cpp">
<polygon fill="none" stroke="black" points="498.5,-84 498.5,-114 649.5,-114 649.5,-84 498.5,-84"/>
<text text-anchor="start" x="506.5" y="-102" font-family="Helvetica,sans-Serif" font-size="10.00">C:/Users/micho/Desktop</text>
<text text-anchor="middle" x="574" y="-91" font-family="Helvetica,sans-Serif" font-size="10.00">/mt_engine/mt/GameTimer.cpp</text>
</a>
</g>
</g>
<!-- Node3&#45;&gt;Node8 -->
<g id="edge7" class="edge"><title>Node3&#45;&gt;Node8</title>
<path fill="none" stroke="midnightblue" d="M1871.11,-169.477C1632.94,-165.924 894.75,-152.51 658,-120 647.604,-118.572 636.613,-116.43 626.129,-114.071"/>
<polygon fill="midnightblue" stroke="midnightblue" points="1871.35,-172.981 1881.4,-169.629 1871.45,-165.982 1871.35,-172.981"/>
</g>
<!-- Node3&#45;&gt;Node9 -->
<g id="edge8" class="edge"><title>Node3&#45;&gt;Node9</title>
<path fill="none" stroke="midnightblue" d="M2020.88,-169.138C2327.82,-163.437 3481.04,-140.821 3643,-120 3653.91,-118.597 3665.47,-116.434 3676.46,-114.04"/>
<polygon fill="midnightblue" stroke="midnightblue" points="2020.69,-165.641 2010.76,-169.326 2020.82,-172.64 2020.69,-165.641"/>
</g>
<!-- Node10 -->
<g id="node10" class="node"><title>Node10</title>
<g id="a_node10"><a xlink:href="_windows_message_handler_8cpp.html" target="_top" xlink:title="C:/Users/micho/Desktop\l/mt_engine/mt/WindowsMessage\lHandler.cpp">
<polygon fill="none" stroke="black" points="667.5,-78.5 667.5,-119.5 828.5,-119.5 828.5,-78.5 667.5,-78.5"/>
<text text-anchor="start" x="675.5" y="-107.5" font-family="Helvetica,sans-Serif" font-size="10.00">C:/Users/micho/Desktop</text>
<text text-anchor="start" x="675.5" y="-96.5" font-family="Helvetica,sans-Serif" font-size="10.00">/mt_engine/mt/WindowsMessage</text>
<text text-anchor="middle" x="748" y="-85.5" font-family="Helvetica,sans-Serif" font-size="10.00">Handler.cpp</text>
</a>
</g>
</g>
<!-- Node3&#45;&gt;Node10 -->
<g id="edge9" class="edge"><title>Node3&#45;&gt;Node10</title>
<path fill="none" stroke="midnightblue" d="M1871.06,-168.804C1655.69,-163.656 1037.63,-146.899 837,-120 834.332,-119.642 831.625,-119.244 828.897,-118.812"/>
<polygon fill="midnightblue" stroke="midnightblue" points="1871.23,-172.309 1881.31,-169.047 1871.4,-165.311 1871.23,-172.309"/>
</g>
<!-- Node11 -->
<g id="node11" class="node"><title>Node11</title>
<g id="a_node11"><a xlink:href="_w_m___l_b_u_t_t_o_n_d_o_w_n___handler_8hpp.html" target="_top" xlink:title="C:/Users/micho/Desktop\l/mt_engine/mt/WM_LBUTTONDOWN\l_Handler.hpp">
<polygon fill="none" stroke="black" points="846.5,-78.5 846.5,-119.5 1025.5,-119.5 1025.5,-78.5 846.5,-78.5"/>
<text text-anchor="start" x="854.5" y="-107.5" font-family="Helvetica,sans-Serif" font-size="10.00">C:/Users/micho/Desktop</text>
<text text-anchor="start" x="854.5" y="-96.5" font-family="Helvetica,sans-Serif" font-size="10.00">/mt_engine/mt/WM_LBUTTONDOWN</text>
<text text-anchor="middle" x="936" y="-85.5" font-family="Helvetica,sans-Serif" font-size="10.00">_Handler.hpp</text>
</a>
</g>
</g>
<!-- Node3&#45;&gt;Node11 -->
<g id="edge10" class="edge"><title>Node3&#45;&gt;Node11</title>
<path fill="none" stroke="midnightblue" d="M1870.95,-169.987C1714.74,-168.119 1343.53,-159.507 1035,-120 1031.96,-119.61 1028.87,-119.18 1025.75,-118.718"/>
<polygon fill="midnightblue" stroke="midnightblue" points="1871.33,-173.492 1881.37,-170.105 1871.41,-166.492 1871.33,-173.492"/>
</g>
<!-- Node13 -->
<g id="node13" class="node"><title>Node13</title>
<g id="a_node13"><a xlink:href="_w_m___l_b_u_t_t_o_n_u_p___handler_8hpp.html" target="_top" xlink:title="C:/Users/micho/Desktop\l/mt_engine/mt/WM_LBUTTONUP\l_Handler.hpp">
<polygon fill="none" stroke="black" points="1044,-78.5 1044,-119.5 1206,-119.5 1206,-78.5 1044,-78.5"/>
<text text-anchor="start" x="1052" y="-107.5" font-family="Helvetica,sans-Serif" font-size="10.00">C:/Users/micho/Desktop</text>
<text text-anchor="start" x="1052" y="-96.5" font-family="Helvetica,sans-Serif" font-size="10.00">/mt_engine/mt/WM_LBUTTONUP</text>
<text text-anchor="middle" x="1125" y="-85.5" font-family="Helvetica,sans-Serif" font-size="10.00">_Handler.hpp</text>
</a>
</g>
</g>
<!-- Node3&#45;&gt;Node13 -->
<g id="edge12" class="edge"><title>Node3&#45;&gt;Node13</title>
<path fill="none" stroke="midnightblue" d="M1871.05,-169.019C1738.21,-165.572 1453.04,-154.474 1215,-120 1212.15,-119.587 1209.25,-119.133 1206.33,-118.647"/>
<polygon fill="midnightblue" stroke="midnightblue" points="1871.03,-172.519 1881.12,-169.273 1871.21,-165.521 1871.03,-172.519"/>
</g>
<!-- Node14 -->
<g id="node14" class="node"><title>Node14</title>
<g id="a_node14"><a xlink:href="_w_m___m_b_u_t_t_o_n_d_o_w_n___handler_8hpp.html" target="_top" xlink:title="C:/Users/micho/Desktop\l/mt_engine/mt/WM_MBUTTONDOWN\l_Handler.hpp">
<polygon fill="none" stroke="black" points="1224,-78.5 1224,-119.5 1406,-119.5 1406,-78.5 1224,-78.5"/>
<text text-anchor="start" x="1232" y="-107.5" font-family="Helvetica,sans-Serif" font-size="10.00">C:/Users/micho/Desktop</text>
<text text-anchor="start" x="1232" y="-96.5" font-family="Helvetica,sans-Serif" font-size="10.00">/mt_engine/mt/WM_MBUTTONDOWN</text>
<text text-anchor="middle" x="1315" y="-85.5" font-family="Helvetica,sans-Serif" font-size="10.00">_Handler.hpp</text>
</a>
</g>
</g>
<!-- Node3&#45;&gt;Node14 -->
<g id="edge14" class="edge"><title>Node3&#45;&gt;Node14</title>
<path fill="none" stroke="midnightblue" d="M1871.32,-165.76C1768.45,-158.69 1577.53,-143.628 1416,-120 1412.73,-119.521 1409.4,-119.007 1406.05,-118.466"/>
<polygon fill="midnightblue" stroke="midnightblue" points="1871.08,-169.252 1881.3,-166.44 1871.56,-162.268 1871.08,-169.252"/>
</g>
<!-- Node15 -->
<g id="node15" class="node"><title>Node15</title>
<g id="a_node15"><a xlink:href="_w_m___m_b_u_t_t_o_n_u_p___handler_8hpp.html" target="_top" xlink:title="C:/Users/micho/Desktop\l/mt_engine/mt/WM_MBUTTONUP\l_Handler.hpp">
<polygon fill="none" stroke="black" points="1424.5,-78.5 1424.5,-119.5 1589.5,-119.5 1589.5,-78.5 1424.5,-78.5"/>
<text text-anchor="start" x="1432.5" y="-107.5" font-family="Helvetica,sans-Serif" font-size="10.00">C:/Users/micho/Desktop</text>
<text text-anchor="start" x="1432.5" y="-96.5" font-family="Helvetica,sans-Serif" font-size="10.00">/mt_engine/mt/WM_MBUTTONUP</text>
<text text-anchor="middle" x="1507" y="-85.5" font-family="Helvetica,sans-Serif" font-size="10.00">_Handler.hpp</text>
</a>
</g>
</g>
<!-- Node3&#45;&gt;Node15 -->
<g id="edge16" class="edge"><title>Node3&#45;&gt;Node15</title>
<path fill="none" stroke="midnightblue" d="M1871.08,-161.127C1800.63,-151.952 1692.35,-136.918 1599,-120 1595.94,-119.446 1592.84,-118.864 1589.7,-118.262"/>
<polygon fill="midnightblue" stroke="midnightblue" points="1870.82,-164.623 1881.19,-162.437 1871.72,-157.681 1870.82,-164.623"/>
</g>
<!-- Node16 -->
<g id="node16" class="node"><title>Node16</title>
<g id="a_node16"><a xlink:href="_w_m___m_o_u_s_e_m_o_v_e___handler_8hpp.html" target="_top" xlink:title="C:/Users/micho/Desktop\l/mt_engine/mt/WM_MOUSEMOVE\l_Handler.hpp">
<polygon fill="none" stroke="black" points="1608,-78.5 1608,-119.5 1778,-119.5 1778,-78.5 1608,-78.5"/>
<text text-anchor="start" x="1616" y="-107.5" font-family="Helvetica,sans-Serif" font-size="10.00">C:/Users/micho/Desktop</text>
<text text-anchor="start" x="1616" y="-96.5" font-family="Helvetica,sans-Serif" font-size="10.00">/mt_engine/mt/WM_MOUSEMOVE</text>
<text text-anchor="middle" x="1693" y="-85.5" font-family="Helvetica,sans-Serif" font-size="10.00">_Handler.hpp</text>
</a>
</g>
</g>
<!-- Node3&#45;&gt;Node16 -->
<g id="edge18" class="edge"><title>Node3&#45;&gt;Node16</title>
<path fill="none" stroke="midnightblue" d="M1885.64,-153.679C1848.87,-143.435 1801.75,-130.303 1763.31,-119.592"/>
<polygon fill="midnightblue" stroke="midnightblue" points="1885.14,-157.174 1895.71,-156.487 1887.02,-150.431 1885.14,-157.174"/>
</g>
<!-- Node17 -->
<g id="node17" class="node"><title>Node17</title>
<g id="a_node17"><a xlink:href="_w_m___q_u_i_t___handler_8hpp.html" target="_top" xlink:title="C:/Users/micho/Desktop\l/mt_engine/mt/WM_QUIT\l_Handler.hpp">
<polygon fill="none" stroke="black" points="1796.5,-78.5 1796.5,-119.5 1923.5,-119.5 1923.5,-78.5 1796.5,-78.5"/>
<text text-anchor="start" x="1804.5" y="-107.5" font-family="Helvetica,sans-Serif" font-size="10.00">C:/Users/micho/Desktop</text>
<text text-anchor="start" x="1804.5" y="-96.5" font-family="Helvetica,sans-Serif" font-size="10.00">/mt_engine/mt/WM_QUIT</text>
<text text-anchor="middle" x="1860" y="-85.5" font-family="Helvetica,sans-Serif" font-size="10.00">_Handler.hpp</text>
</a>
</g>
</g>
<!-- Node3&#45;&gt;Node17 -->
<g id="edge20" class="edge"><title>Node3&#45;&gt;Node17</title>
<path fill="none" stroke="midnightblue" d="M1920.57,-149.657C1908.97,-140.145 1895.31,-128.943 1883.9,-119.588"/>
<polygon fill="midnightblue" stroke="midnightblue" points="1918.64,-152.6 1928.6,-156.233 1923.08,-147.187 1918.64,-152.6"/>
</g>
<!-- Node18 -->
<g id="node18" class="node"><title>Node18</title>
<g id="a_node18"><a xlink:href="_w_m___r_b_u_t_t_o_n_d_o_w_n___handler_8hpp.html" target="_top" xlink:title="C:/Users/micho/Desktop\l/mt_engine/mt/WM_RBUTTONDOWN\l_Handler.hpp">
<polygon fill="none" stroke="black" points="1941.5,-78.5 1941.5,-119.5 2122.5,-119.5 2122.5,-78.5 1941.5,-78.5"/>
<text text-anchor="start" x="1949.5" y="-107.5" font-family="Helvetica,sans-Serif" font-size="10.00">C:/Users/micho/Desktop</text>
<text text-anchor="start" x="1949.5" y="-96.5" font-family="Helvetica,sans-Serif" font-size="10.00">/mt_engine/mt/WM_RBUTTONDOWN</text>
<text text-anchor="middle" x="2032" y="-85.5" font-family="Helvetica,sans-Serif" font-size="10.00">_Handler.hpp</text>
</a>
</g>
</g>
<!-- Node3&#45;&gt;Node18 -->
<g id="edge22" class="edge"><title>Node3&#45;&gt;Node18</title>
<path fill="none" stroke="midnightblue" d="M1971.43,-149.657C1983.03,-140.145 1996.69,-128.943 2008.1,-119.588"/>
<polygon fill="midnightblue" stroke="midnightblue" points="1968.92,-147.187 1963.4,-156.233 1973.36,-152.6 1968.92,-147.187"/>
</g>
<!-- Node19 -->
<g id="node19" class="node"><title>Node19</title>
<g id="a_node19"><a xlink:href="_w_m___r_b_u_t_t_o_n_u_p___handler_8hpp.html" target="_top" xlink:title="C:/Users/micho/Desktop\l/mt_engine/mt/WM_RBUTTONUP\l_Handler.hpp">
<polygon fill="none" stroke="black" points="2141,-78.5 2141,-119.5 2305,-119.5 2305,-78.5 2141,-78.5"/>
<text text-anchor="start" x="2149" y="-107.5" font-family="Helvetica,sans-Serif" font-size="10.00">C:/Users/micho/Desktop</text>
<text text-anchor="start" x="2149" y="-96.5" font-family="Helvetica,sans-Serif" font-size="10.00">/mt_engine/mt/WM_RBUTTONUP</text>
<text text-anchor="middle" x="2223" y="-85.5" font-family="Helvetica,sans-Serif" font-size="10.00">_Handler.hpp</text>
</a>
</g>
</g>
<!-- Node3&#45;&gt;Node19 -->
<g id="edge24" class="edge"><title>Node3&#45;&gt;Node19</title>
<path fill="none" stroke="midnightblue" d="M2010.82,-154.001C2051.33,-143.691 2103.71,-130.361 2146.28,-119.525"/>
<polygon fill="midnightblue" stroke="midnightblue" points="2009.89,-150.629 2001.06,-156.487 2011.61,-157.412 2009.89,-150.629"/>
</g>
<!-- Node20 -->
<g id="node20" class="node"><title>Node20</title>
<g id="a_node20"><a xlink:href="_w_m___s_i_z_i_n_g___handler_8hpp.html" target="_top" xlink:title="C:/Users/micho/Desktop\l/mt_engine/mt/WM_SIZING\l_Handler.hpp">
<polygon fill="none" stroke="black" points="2323,-78.5 2323,-119.5 2459,-119.5 2459,-78.5 2323,-78.5"/>
<text text-anchor="start" x="2331" y="-107.5" font-family="Helvetica,sans-Serif" font-size="10.00">C:/Users/micho/Desktop</text>
<text text-anchor="start" x="2331" y="-96.5" font-family="Helvetica,sans-Serif" font-size="10.00">/mt_engine/mt/WM_SIZING</text>
<text text-anchor="middle" x="2391" y="-85.5" font-family="Helvetica,sans-Serif" font-size="10.00">_Handler.hpp</text>
</a>
</g>
</g>
<!-- Node3&#45;&gt;Node20 -->
<g id="edge26" class="edge"><title>Node3&#45;&gt;Node20</title>
<path fill="none" stroke="midnightblue" d="M2020.77,-162.852C2095.43,-154.604 2213.25,-139.926 2314,-120 2316.85,-119.437 2319.74,-118.832 2322.66,-118.196"/>
<polygon fill="midnightblue" stroke="midnightblue" points="2020.09,-159.406 2010.53,-163.973 2020.85,-166.364 2020.09,-159.406"/>
</g>
<!-- Node21 -->
<g id="node21" class="node"><title>Node21</title>
<g id="a_node21"><a xlink:href="_w_m___a_c_t_i_v_a_t_e___handler_8cpp.html" target="_top" xlink:title="C:/Users/micho/Desktop\l/mt_engine/mt/WM_ACTIVATE\l_Handler.cpp">
<polygon fill="none" stroke="black" points="2477,-78.5 2477,-119.5 2629,-119.5 2629,-78.5 2477,-78.5"/>
<text text-anchor="start" x="2485" y="-107.5" font-family="Helvetica,sans-Serif" font-size="10.00">C:/Users/micho/Desktop</text>
<text text-anchor="start" x="2485" y="-96.5" font-family="Helvetica,sans-Serif" font-size="10.00">/mt_engine/mt/WM_ACTIVATE</text>
<text text-anchor="middle" x="2553" y="-85.5" font-family="Helvetica,sans-Serif" font-size="10.00">_Handler.cpp</text>
</a>
</g>
</g>
<!-- Node3&#45;&gt;Node21 -->
<g id="edge28" class="edge"><title>Node3&#45;&gt;Node21</title>
<path fill="none" stroke="midnightblue" d="M2020.83,-166.437C2122.55,-160.191 2309.94,-146.119 2468,-120 2470.84,-119.53 2473.73,-119.02 2476.64,-118.478"/>
<polygon fill="midnightblue" stroke="midnightblue" points="2020.42,-162.955 2010.65,-167.053 2020.85,-169.942 2020.42,-162.955"/>
</g>
<!-- Node22 -->
<g id="node22" class="node"><title>Node22</title>
<g id="a_node22"><a xlink:href="_w_m___e_n_t_e_r_s_i_z_e_m_o_v_e___handler_8cpp.html" target="_top" xlink:title="C:/Users/micho/Desktop\l/mt_engine/mt/WM_ENTERSIZEMOVE\l_Handler.cpp">
<polygon fill="none" stroke="black" points="2647,-78.5 2647,-119.5 2835,-119.5 2835,-78.5 2647,-78.5"/>
<text text-anchor="start" x="2655" y="-107.5" font-family="Helvetica,sans-Serif" font-size="10.00">C:/Users/micho/Desktop</text>
<text text-anchor="start" x="2655" y="-96.5" font-family="Helvetica,sans-Serif" font-size="10.00">/mt_engine/mt/WM_ENTERSIZEMOVE</text>
<text text-anchor="middle" x="2741" y="-85.5" font-family="Helvetica,sans-Serif" font-size="10.00">_Handler.cpp</text>
</a>
</g>
</g>
<!-- Node3&#45;&gt;Node22 -->
<g id="edge29" class="edge"><title>Node3&#45;&gt;Node22</title>
<path fill="none" stroke="midnightblue" d="M2020.68,-167.963C2147.88,-162.992 2414.5,-149.747 2638,-120 2640.89,-119.615 2643.82,-119.201 2646.77,-118.762"/>
<polygon fill="midnightblue" stroke="midnightblue" points="2020.52,-164.467 2010.66,-168.349 2020.79,-171.461 2020.52,-164.467"/>
</g>
<!-- Node23 -->
<g id="node23" class="node"><title>Node23</title>
<g id="a_node23"><a xlink:href="_w_m___e_x_i_t_s_i_z_e_m_o_v_e___handler_8cpp.html" target="_top" xlink:title="C:/Users/micho/Desktop\l/mt_engine/mt/WM_EXITSIZEMOVE\l_Handler.cpp">
<polygon fill="none" stroke="black" points="2853.5,-78.5 2853.5,-119.5 3028.5,-119.5 3028.5,-78.5 2853.5,-78.5"/>
<text text-anchor="start" x="2861.5" y="-107.5" font-family="Helvetica,sans-Serif" font-size="10.00">C:/Users/micho/Desktop</text>
<text text-anchor="start" x="2861.5" y="-96.5" font-family="Helvetica,sans-Serif" font-size="10.00">/mt_engine/mt/WM_EXITSIZEMOVE</text>
<text text-anchor="middle" x="2941" y="-85.5" font-family="Helvetica,sans-Serif" font-size="10.00">_Handler.cpp</text>
</a>
</g>
</g>
<!-- Node3&#45;&gt;Node23 -->
<g id="edge30" class="edge"><title>Node3&#45;&gt;Node23</title>
<path fill="none" stroke="midnightblue" d="M2020.86,-170.004C2175.37,-168.165 2540.53,-159.6 2844,-120 2847.07,-119.6 2850.19,-119.156 2853.33,-118.679"/>
<polygon fill="midnightblue" stroke="midnightblue" points="2020.51,-166.508 2010.55,-170.121 2020.58,-173.507 2020.51,-166.508"/>
</g>
<!-- Node24 -->
<g id="node24" class="node"><title>Node24</title>
<g id="a_node24"><a xlink:href="_w_m___k_e_y_u_p___handler_8cpp.html" target="_top" xlink:title="C:/Users/micho/Desktop\l/mt_engine/mt/WM_KEYUP\l_Handler.cpp">
<polygon fill="none" stroke="black" points="3046.5,-78.5 3046.5,-119.5 3185.5,-119.5 3185.5,-78.5 3046.5,-78.5"/>
<text text-anchor="start" x="3054.5" y="-107.5" font-family="Helvetica,sans-Serif" font-size="10.00">C:/Users/micho/Desktop</text>
<text text-anchor="start" x="3054.5" y="-96.5" font-family="Helvetica,sans-Serif" font-size="10.00">/mt_engine/mt/WM_KEYUP</text>
<text text-anchor="middle" x="3116" y="-85.5" font-family="Helvetica,sans-Serif" font-size="10.00">_Handler.cpp</text>
</a>
</g>
</g>
<!-- Node3&#45;&gt;Node24 -->
<g id="edge31" class="edge"><title>Node3&#45;&gt;Node24</title>
<path fill="none" stroke="midnightblue" d="M2020.95,-169.033C2234.15,-164.541 2841.21,-149.462 3038,-120 3040.77,-119.586 3043.57,-119.115 3046.4,-118.597"/>
<polygon fill="midnightblue" stroke="midnightblue" points="2020.72,-165.536 2010.8,-169.245 2020.87,-172.535 2020.72,-165.536"/>
</g>
<!-- Node25 -->
<g id="node25" class="node"><title>Node25</title>
<g id="a_node25"><a xlink:href="_w_m___s_i_z_e___handler_8cpp.html" target="_top" xlink:title="C:/Users/micho/Desktop\l/mt_engine/mt/WM_SIZE\l_Handler.cpp">
<polygon fill="none" stroke="black" points="3204,-78.5 3204,-119.5 3330,-119.5 3330,-78.5 3204,-78.5"/>
<text text-anchor="start" x="3212" y="-107.5" font-family="Helvetica,sans-Serif" font-size="10.00">C:/Users/micho/Desktop</text>
<text text-anchor="start" x="3212" y="-96.5" font-family="Helvetica,sans-Serif" font-size="10.00">/mt_engine/mt/WM_SIZE</text>
<text text-anchor="middle" x="3267" y="-85.5" font-family="Helvetica,sans-Serif" font-size="10.00">_Handler.cpp</text>
</a>
</g>
</g>
<!-- Node3&#45;&gt;Node25 -->
<g id="edge32" class="edge"><title>Node3&#45;&gt;Node25</title>
<path fill="none" stroke="midnightblue" d="M2020.69,-169.736C2253.92,-166.994 2966.72,-155.829 3195,-120 3197.95,-119.537 3200.95,-118.996 3203.96,-118.395"/>
<polygon fill="midnightblue" stroke="midnightblue" points="2020.56,-166.237 2010.61,-169.853 2020.65,-173.236 2020.56,-166.237"/>
</g>
<!-- Node26 -->
<g id="node26" class="node"><title>Node26</title>
<g id="a_node26"><a xlink:href="_w_m___t_i_m_e_r___handler_8cpp.html" target="_top" xlink:title="C:/Users/micho/Desktop\l/mt_engine/mt/WM_TIMER\l_Handler.cpp">
<polygon fill="none" stroke="black" points="3348,-78.5 3348,-119.5 3482,-119.5 3482,-78.5 3348,-78.5"/>
<text text-anchor="start" x="3356" y="-107.5" font-family="Helvetica,sans-Serif" font-size="10.00">C:/Users/micho/Desktop</text>
<text text-anchor="start" x="3356" y="-96.5" font-family="Helvetica,sans-Serif" font-size="10.00">/mt_engine/mt/WM_TIMER</text>
<text text-anchor="middle" x="3415" y="-85.5" font-family="Helvetica,sans-Serif" font-size="10.00">_Handler.cpp</text>
</a>
</g>
</g>
<!-- Node3&#45;&gt;Node26 -->
<g id="edge33" class="edge"><title>Node3&#45;&gt;Node26</title>
<path fill="none" stroke="midnightblue" d="M2021.01,-169.965C2272.03,-167.831 3081.33,-158.095 3339,-120 3341.83,-119.581 3344.72,-119.096 3347.62,-118.559"/>
<polygon fill="midnightblue" stroke="midnightblue" points="2020.87,-166.466 2010.9,-170.049 2020.92,-173.465 2020.87,-166.466"/>
</g>
<!-- Node12 -->
<g id="node12" class="node"><title>Node12</title>
<g id="a_node12"><a xlink:href="_windows_message_handling_service_8cpp.html" target="_top" xlink:title="C:/Users/micho/Desktop\l/mt_engine/mt/WindowsMessage\lHandlingService.cpp">
<polygon fill="none" stroke="black" points="1612.5,-0.5 1612.5,-41.5 1773.5,-41.5 1773.5,-0.5 1612.5,-0.5"/>
<text text-anchor="start" x="1620.5" y="-29.5" font-family="Helvetica,sans-Serif" font-size="10.00">C:/Users/micho/Desktop</text>
<text text-anchor="start" x="1620.5" y="-18.5" font-family="Helvetica,sans-Serif" font-size="10.00">/mt_engine/mt/WindowsMessage</text>
<text text-anchor="middle" x="1693" y="-7.5" font-family="Helvetica,sans-Serif" font-size="10.00">HandlingService.cpp</text>
</a>
</g>
</g>
<!-- Node11&#45;&gt;Node12 -->
<g id="edge11" class="edge"><title>Node11&#45;&gt;Node12</title>
<path fill="none" stroke="midnightblue" d="M1035.92,-77.9566C1249.64,-47.8912 1489.95,-32.44 1612.39,-25.8826"/>
<polygon fill="midnightblue" stroke="midnightblue" points="1035.17,-74.5276 1025.77,-79.3993 1036.16,-81.4581 1035.17,-74.5276"/>
</g>
<!-- Node13&#45;&gt;Node12 -->
<g id="edge13" class="edge"><title>Node13&#45;&gt;Node12</title>
<path fill="none" stroke="midnightblue" d="M1216.32,-77.8557C1361.11,-53.756 1519.12,-37.4832 1612.3,-28.921"/>
<polygon fill="midnightblue" stroke="midnightblue" points="1215.64,-74.4203 1206.36,-79.5293 1216.8,-81.3235 1215.64,-74.4203"/>
</g>
<!-- Node14&#45;&gt;Node12 -->
<g id="edge15" class="edge"><title>Node14&#45;&gt;Node12</title>
<path fill="none" stroke="midnightblue" d="M1416.14,-77.6658C1477.62,-65.3035 1555.07,-49.7327 1612.4,-38.2049"/>
<polygon fill="midnightblue" stroke="midnightblue" points="1415.14,-74.2968 1406.02,-79.6994 1416.52,-81.1595 1415.14,-74.2968"/>
</g>
<!-- Node15&#45;&gt;Node12 -->
<g id="edge17" class="edge"><title>Node15&#45;&gt;Node12</title>
<path fill="none" stroke="midnightblue" d="M1564.25,-74.6086C1590.21,-64.0008 1620.55,-51.6015 1645.26,-41.5056"/>
<polygon fill="midnightblue" stroke="midnightblue" points="1562.83,-71.4056 1554.9,-78.4281 1565.48,-77.8856 1562.83,-71.4056"/>
</g>
<!-- Node16&#45;&gt;Node12 -->
<g id="edge19" class="edge"><title>Node16&#45;&gt;Node12</title>
<path fill="none" stroke="midnightblue" d="M1693,-68.2965C1693,-59.3009 1693,-49.6532 1693,-41.5056"/>
<polygon fill="midnightblue" stroke="midnightblue" points="1689.5,-68.4281 1693,-78.4281 1696.5,-68.4281 1689.5,-68.4281"/>
</g>
<!-- Node17&#45;&gt;Node12 -->
<g id="edge21" class="edge"><title>Node17&#45;&gt;Node12</title>
<path fill="none" stroke="midnightblue" d="M1807.68,-74.189C1784.58,-63.6749 1757.75,-51.4687 1735.86,-41.5056"/>
<polygon fill="midnightblue" stroke="midnightblue" points="1806.44,-77.4716 1816.99,-78.4281 1809.34,-71.1003 1806.44,-77.4716"/>
</g>
<!-- Node18&#45;&gt;Node12 -->
<g id="edge23" class="edge"><title>Node18&#45;&gt;Node12</title>
<path fill="none" stroke="midnightblue" d="M1934.65,-76.1746C1883.64,-64.7387 1821.91,-50.9 1773.61,-40.0719"/>
<polygon fill="midnightblue" stroke="midnightblue" points="1934.18,-79.6557 1944.7,-78.4281 1935.71,-72.8252 1934.18,-79.6557"/>
</g>
<!-- Node19&#45;&gt;Node12 -->
<g id="edge25" class="edge"><title>Node19&#45;&gt;Node12</title>
<path fill="none" stroke="midnightblue" d="M2130.57,-77.8226C2000.3,-55.5936 1859.91,-39.2619 1773.83,-30.119"/>
<polygon fill="midnightblue" stroke="midnightblue" points="2130.28,-81.3242 2140.73,-79.572 2131.46,-74.4257 2130.28,-81.3242"/>
</g>
<!-- Node20&#45;&gt;Node12 -->
<g id="edge27" class="edge"><title>Node20&#45;&gt;Node12</title>
<path fill="none" stroke="midnightblue" d="M2312.68,-77.9113C2114.45,-44.1782 1891.03,-30.4195 1773.94,-25.057"/>
<polygon fill="midnightblue" stroke="midnightblue" points="2312.24,-81.3883 2322.69,-79.6368 2313.43,-74.4899 2312.24,-81.3883"/>
</g>
</g>
</svg>
