<?xml version="1.0" encoding="UTF-8" standalone="no"?>
<!DOCTYPE svg PUBLIC "-//W3C//DTD SVG 1.1//EN"
 "http://www.w3.org/Graphics/SVG/1.1/DTD/svg11.dtd">
<!-- Generated by graphviz version 2.38.0 (20140413.2041)
 -->
<!-- Title: C:/Users/micho/Desktop/mt_engine/mt/UploadBuffer.h Pages: 1 -->
<!--zoomable 263 -->
<svg id="main" version="1.1" xmlns="http://www.w3.org/2000/svg" xmlns:xlink="http://www.w3.org/1999/xlink" xml:space="preserve" onload="init(evt)">
<style type="text/css"><![CDATA[
.edge:hover path { stroke: red; }
.edge:hover polygon { stroke: red; fill: red; }
]]></style>
<script type="text/javascript"><![CDATA[
var edges = document.getElementsByTagName('g');
if (edges && edges.length) {
  for (var i=0;i<edges.length;i++) {
    if (edges[i].id.substr(0,4)=='edge') {
      edges[i].setAttribute('class','edge');
    }
  }
}
]]></script>
        <defs>
                <circle id="rim" cx="0" cy="0" r="7"/>
                <circle id="rim2" cx="0" cy="0" r="3.5"/>
                <g id="zoomPlus">
                        <use xlink:href="#rim" fill="#404040">
                                <set attributeName="fill" to="#808080" begin="zoomplus.mouseover" end="zoomplus.mouseout"/>
                        </use>
                        <path d="M-4,0h8M0,-4v8" fill="none" stroke="white" stroke-width="1.5" pointer-events="none"/>
                </g>
                <g id="zoomMin">
                        <use xlink:href="#rim" fill="#404040">
                                <set attributeName="fill" to="#808080" begin="zoomminus.mouseover" end="zoomminus.mouseout"/>
                        </use>
                        <path d="M-4,0h8" fill="none" stroke="white" stroke-width="1.5" pointer-events="none"/>
                </g>
                <g id="dirArrow">
                        <path fill="none" stroke="white" stroke-width="1.5" d="M0,-3.0v7 M-2.5,-0.5L0,-3.0L2.5,-0.5"/>
                </g>
               <g id="resetDef">
                       <use xlink:href="#rim2" fill="#404040">
                               <set attributeName="fill" to="#808080" begin="reset.mouseover" end="reset.mouseout"/>
                       </use>
               </g>
        </defs>

<script type="text/javascript">
var viewWidth = 2425;
var viewHeight = 263;
var sectionId = 'dynsection-0';
</script>
<script xlink:href="svgpan.js"/>
<svg id="graph" class="graph">
<g id="viewport">
<title>C:/Users/micho/Desktop/mt_engine/mt/UploadBuffer.h</title>
<!-- Node1 -->
<g id="node1" class="node"><title>Node1</title>
<polygon fill="#bfbfbf" stroke="black" points="1376.5,-224.5 1376.5,-254.5 1521.5,-254.5 1521.5,-224.5 1376.5,-224.5"/>
<text text-anchor="start" x="1384.5" y="-242.5" font-family="Helvetica,sans-Serif" font-size="10.00">C:/Users/micho/Desktop</text>
<text text-anchor="middle" x="1449" y="-231.5" font-family="Helvetica,sans-Serif" font-size="10.00">/mt_engine/mt/UploadBuffer.h</text>
</g>
<!-- Node2 -->
<g id="node2" class="node"><title>Node2</title>
<g id="a_node2"><a xlink:href="d3d_util_8h.html" target="_top" xlink:title="d3dUtil.h">
<polygon fill="none" stroke="black" points="1421.5,-168.5 1421.5,-187.5 1476.5,-187.5 1476.5,-168.5 1421.5,-168.5"/>
<text text-anchor="middle" x="1449" y="-175.5" font-family="Helvetica,sans-Serif" font-size="10.00">d3dUtil.h</text>
</a>
</g>
</g>
<!-- Node1&#45;&gt;Node2 -->
<g id="edge1" class="edge"><title>Node1&#45;&gt;Node2</title>
<path fill="none" stroke="midnightblue" d="M1449,-224.399C1449,-216.466 1449,-206.458 1449,-197.858"/>
<polygon fill="midnightblue" stroke="midnightblue" points="1452.5,-197.658 1449,-187.658 1445.5,-197.658 1452.5,-197.658"/>
</g>
<!-- Node3 -->
<g id="node3" class="node"><title>Node3</title>
<g id="a_node3"><a xlink:href="utility_8hpp.html" target="_top" xlink:title="../mt/utility.hpp">
<polygon fill="none" stroke="black" points="481,-112.5 481,-131.5 563,-131.5 563,-112.5 481,-112.5"/>
<text text-anchor="middle" x="522" y="-119.5" font-family="Helvetica,sans-Serif" font-size="10.00">../mt/utility.hpp</text>
</a>
</g>
</g>
<!-- Node2&#45;&gt;Node3 -->
<g id="edge2" class="edge"><title>Node2&#45;&gt;Node3</title>
<path fill="none" stroke="midnightblue" d="M1421.26,-175.384C1291.57,-167.829 744.247,-135.946 573.26,-125.986"/>
<polygon fill="midnightblue" stroke="midnightblue" points="573.209,-122.477 563.022,-125.39 572.802,-129.465 573.209,-122.477"/>
</g>
<!-- Node4 -->
<g id="node4" class="node"><title>Node4</title>
<polygon fill="none" stroke="#bfbfbf" points="0,-56.5 0,-75.5 56,-75.5 56,-56.5 0,-56.5"/>
<text text-anchor="middle" x="28" y="-63.5" font-family="Helvetica,sans-Serif" font-size="10.00">algorithm</text>
</g>
<!-- Node2&#45;&gt;Node4 -->
<g id="edge33" class="edge"><title>Node2&#45;&gt;Node4</title>
<path fill="none" stroke="midnightblue" d="M1421.35,-176.644C1305.39,-174.958 846.956,-166.359 472,-132 293.454,-115.639 246.086,-110.261 66.2781,-76.0927"/>
<polygon fill="midnightblue" stroke="midnightblue" points="66.6954,-72.6093 56.2173,-74.1772 65.3862,-79.4858 66.6954,-72.6093"/>
</g>
<!-- Node15 -->
<g id="node15" class="node"><title>Node15</title>
<polygon fill="none" stroke="#bfbfbf" points="864.5,-56.5 864.5,-75.5 905.5,-75.5 905.5,-56.5 864.5,-56.5"/>
<text text-anchor="middle" x="885" y="-63.5" font-family="Helvetica,sans-Serif" font-size="10.00">string</text>
</g>
<!-- Node2&#45;&gt;Node15 -->
<g id="edge31" class="edge"><title>Node2&#45;&gt;Node15</title>
<path fill="none" stroke="midnightblue" d="M1421.34,-176.176C1318.52,-172.907 962.139,-159.66 920,-132 903.791,-121.36 894.517,-100.597 889.641,-85.3899"/>
<polygon fill="midnightblue" stroke="midnightblue" points="892.937,-84.183 886.833,-75.5234 886.204,-86.0996 892.937,-84.183"/>
</g>
<!-- Node19 -->
<g id="node19" class="node"><title>Node19</title>
<g id="a_node19"><a xlink:href="_math_helper_8h.html" target="_top" xlink:title="../mt/MathHelper.h">
<polygon fill="none" stroke="black" points="962,-56.5 962,-75.5 1060,-75.5 1060,-56.5 962,-56.5"/>
<text text-anchor="middle" x="1011" y="-63.5" font-family="Helvetica,sans-Serif" font-size="10.00">../mt/MathHelper.h</text>
</a>
</g>
</g>
<!-- Node2&#45;&gt;Node19 -->
<g id="edge48" class="edge"><title>Node2&#45;&gt;Node19</title>
<path fill="none" stroke="midnightblue" d="M1421.38,-175.67C1333.68,-171.218 1065.46,-155.769 1035,-132 1020.94,-121.031 1015.12,-100.974 1012.71,-86.0302"/>
<polygon fill="midnightblue" stroke="midnightblue" points="1016.15,-85.3294 1011.45,-75.8343 1009.2,-86.1882 1016.15,-85.3294"/>
</g>
<!-- Node21 -->
<g id="node21" class="node"><title>Node21</title>
<polygon fill="none" stroke="#bfbfbf" points="886.5,-0.5 886.5,-19.5 963.5,-19.5 963.5,-0.5 886.5,-0.5"/>
<text text-anchor="middle" x="925" y="-7.5" font-family="Helvetica,sans-Serif" font-size="10.00">DirectXMath.h</text>
</g>
<!-- Node2&#45;&gt;Node21 -->
<g id="edge27" class="edge"><title>Node2&#45;&gt;Node21</title>
<path fill="none" stroke="midnightblue" d="M1421.3,-176.292C1337.86,-173.822 1090.18,-163.919 1017,-132 982.356,-116.889 975.248,-106.555 953,-76 942.613,-61.7352 935.069,-43.0198 930.446,-29.3361"/>
<polygon fill="midnightblue" stroke="midnightblue" points="933.725,-28.0969 927.367,-19.622 927.052,-30.2122 933.725,-28.0969"/>
</g>
<!-- Node22 -->
<g id="node22" class="node"><title>Node22</title>
<polygon fill="none" stroke="#bfbfbf" points="1065,-0.5 1065,-19.5 1111,-19.5 1111,-0.5 1065,-0.5"/>
<text text-anchor="middle" x="1088" y="-7.5" font-family="Helvetica,sans-Serif" font-size="10.00">cstdint</text>
</g>
<!-- Node2&#45;&gt;Node22 -->
<g id="edge37" class="edge"><title>Node2&#45;&gt;Node22</title>
<path fill="none" stroke="midnightblue" d="M1421.48,-175.821C1337.93,-171.962 1091.48,-158.416 1068,-132 1061.29,-124.455 1075.5,-61.6884 1083.31,-29.6551"/>
<polygon fill="midnightblue" stroke="midnightblue" points="1086.76,-30.2953 1085.77,-19.7472 1079.97,-28.613 1086.76,-30.2953"/>
</g>
<!-- Node23 -->
<g id="node23" class="node"><title>Node23</title>
<polygon fill="none" stroke="#bfbfbf" points="1077,-112.5 1077,-131.5 1139,-131.5 1139,-112.5 1077,-112.5"/>
<text text-anchor="middle" x="1108" y="-119.5" font-family="Helvetica,sans-Serif" font-size="10.00">windows.h</text>
</g>
<!-- Node2&#45;&gt;Node23 -->
<g id="edge22" class="edge"><title>Node2&#45;&gt;Node23</title>
<path fill="none" stroke="midnightblue" d="M1421.18,-173.211C1368.65,-165.958 1251.29,-149.291 1153,-132 1151.9,-131.807 1150.79,-131.608 1149.67,-131.404"/>
<polygon fill="midnightblue" stroke="midnightblue" points="1149.91,-127.889 1139.44,-129.481 1148.62,-134.768 1149.91,-127.889"/>
</g>
<!-- Node24 -->
<g id="node24" class="node"><title>Node24</title>
<polygon fill="none" stroke="#bfbfbf" points="1195.5,-56.5 1195.5,-75.5 1232.5,-75.5 1232.5,-56.5 1195.5,-56.5"/>
<text text-anchor="middle" x="1214" y="-63.5" font-family="Helvetica,sans-Serif" font-size="10.00">wrl.h</text>
</g>
<!-- Node2&#45;&gt;Node24 -->
<g id="edge23" class="edge"><title>Node2&#45;&gt;Node24</title>
<path fill="none" stroke="midnightblue" d="M1421.34,-175.334C1367.34,-171.488 1250.84,-160.072 1224,-132 1212.54,-120.019 1210.87,-100.721 1211.56,-86.2588"/>
<polygon fill="midnightblue" stroke="midnightblue" points="1215.08,-86.2015 1212.48,-75.9295 1208.11,-85.5781 1215.08,-86.2015"/>
</g>
<!-- Node25 -->
<g id="node25" class="node"><title>Node25</title>
<polygon fill="none" stroke="#bfbfbf" points="1419.5,-112.5 1419.5,-131.5 1478.5,-131.5 1478.5,-112.5 1419.5,-112.5"/>
<text text-anchor="middle" x="1449" y="-119.5" font-family="Helvetica,sans-Serif" font-size="10.00">dxgi1_4.h</text>
</g>
<!-- Node2&#45;&gt;Node25 -->
<g id="edge24" class="edge"><title>Node2&#45;&gt;Node25</title>
<path fill="none" stroke="midnightblue" d="M1449,-168.083C1449,-161.006 1449,-150.861 1449,-141.986"/>
<polygon fill="midnightblue" stroke="midnightblue" points="1452.5,-141.751 1449,-131.751 1445.5,-141.751 1452.5,-141.751"/>
</g>
<!-- Node26 -->
<g id="node26" class="node"><title>Node26</title>
<polygon fill="none" stroke="#bfbfbf" points="1277.5,-0.5 1277.5,-19.5 1328.5,-19.5 1328.5,-0.5 1277.5,-0.5"/>
<text text-anchor="middle" x="1303" y="-7.5" font-family="Helvetica,sans-Serif" font-size="10.00">d3d12.h</text>
</g>
<!-- Node2&#45;&gt;Node26 -->
<g id="edge25" class="edge"><title>Node2&#45;&gt;Node26</title>
<path fill="none" stroke="midnightblue" d="M1421.09,-175.009C1365.23,-170.514 1242.28,-157.889 1210,-132 1182.37,-109.837 1165.95,-85.1987 1186,-56 1204.14,-29.5938 1240.1,-18.6766 1267.39,-14.1666"/>
<polygon fill="midnightblue" stroke="midnightblue" points="1267.97,-17.6193 1277.37,-12.7329 1266.97,-10.6905 1267.97,-17.6193"/>
</g>
<!-- Node27 -->
<g id="node27" class="node"><title>Node27</title>
<polygon fill="none" stroke="#bfbfbf" points="1497,-112.5 1497,-131.5 1577,-131.5 1577,-112.5 1497,-112.5"/>
<text text-anchor="middle" x="1537" y="-119.5" font-family="Helvetica,sans-Serif" font-size="10.00">D3Dcompiler.h</text>
</g>
<!-- Node2&#45;&gt;Node27 -->
<g id="edge26" class="edge"><title>Node2&#45;&gt;Node27</title>
<path fill="none" stroke="midnightblue" d="M1463.14,-168.324C1476.87,-159.9 1497.94,-146.971 1514.06,-137.074"/>
<polygon fill="midnightblue" stroke="midnightblue" points="1516.2,-139.868 1522.9,-131.655 1512.54,-133.902 1516.2,-139.868"/>
</g>
<!-- Node28 -->
<g id="node28" class="node"><title>Node28</title>
<polygon fill="none" stroke="#bfbfbf" points="1595.5,-112.5 1595.5,-131.5 1712.5,-131.5 1712.5,-112.5 1595.5,-112.5"/>
<text text-anchor="middle" x="1654" y="-119.5" font-family="Helvetica,sans-Serif" font-size="10.00">DirectXPackedVector.h</text>
</g>
<!-- Node2&#45;&gt;Node28 -->
<g id="edge28" class="edge"><title>Node2&#45;&gt;Node28</title>
<path fill="none" stroke="midnightblue" d="M1476.65,-169.717C1511.31,-160.588 1571.07,-144.845 1611.54,-134.184"/>
<polygon fill="midnightblue" stroke="midnightblue" points="1612.61,-137.522 1621.39,-131.59 1610.83,-130.753 1612.61,-137.522"/>
</g>
<!-- Node29 -->
<g id="node29" class="node"><title>Node29</title>
<polygon fill="none" stroke="#bfbfbf" points="1730.5,-112.5 1730.5,-131.5 1813.5,-131.5 1813.5,-112.5 1730.5,-112.5"/>
<text text-anchor="middle" x="1772" y="-119.5" font-family="Helvetica,sans-Serif" font-size="10.00">DirectXColors.h</text>
</g>
<!-- Node2&#45;&gt;Node29 -->
<g id="edge29" class="edge"><title>Node2&#45;&gt;Node29</title>
<path fill="none" stroke="midnightblue" d="M1476.53,-172.599C1524.12,-164.963 1625.08,-148.632 1720.19,-132.294"/>
<polygon fill="midnightblue" stroke="midnightblue" points="1721.01,-135.706 1730.27,-130.559 1719.82,-128.807 1721.01,-135.706"/>
</g>
<!-- Node30 -->
<g id="node30" class="node"><title>Node30</title>
<polygon fill="none" stroke="#bfbfbf" points="1832,-112.5 1832,-131.5 1924,-131.5 1924,-112.5 1832,-112.5"/>
<text text-anchor="middle" x="1878" y="-119.5" font-family="Helvetica,sans-Serif" font-size="10.00">DirectXCollision.h</text>
</g>
<!-- Node2&#45;&gt;Node30 -->
<g id="edge30" class="edge"><title>Node2&#45;&gt;Node30</title>
<path fill="none" stroke="midnightblue" d="M1476.73,-174.071C1537.33,-167.583 1686.31,-151.16 1821.67,-132.138"/>
<polygon fill="midnightblue" stroke="midnightblue" points="1822.4,-135.57 1831.81,-130.705 1821.42,-128.639 1822.4,-135.57"/>
</g>
<!-- Node31 -->
<g id="node31" class="node"><title>Node31</title>
<polygon fill="none" stroke="#bfbfbf" points="1942,-112.5 1942,-131.5 1994,-131.5 1994,-112.5 1942,-112.5"/>
<text text-anchor="middle" x="1968" y="-119.5" font-family="Helvetica,sans-Serif" font-size="10.00">memory</text>
</g>
<!-- Node2&#45;&gt;Node31 -->
<g id="edge32" class="edge"><title>Node2&#45;&gt;Node31</title>
<path fill="none" stroke="midnightblue" d="M1476.76,-175.964C1549.79,-172.912 1753.36,-162.3 1931.64,-131.975"/>
<polygon fill="midnightblue" stroke="midnightblue" points="1932.47,-135.385 1941.72,-130.234 1931.27,-128.487 1932.47,-135.385"/>
</g>
<!-- Node32 -->
<g id="node32" class="node"><title>Node32</title>
<polygon fill="none" stroke="#bfbfbf" points="2012,-112.5 2012,-131.5 2054,-131.5 2054,-112.5 2012,-112.5"/>
<text text-anchor="middle" x="2033" y="-119.5" font-family="Helvetica,sans-Serif" font-size="10.00">vector</text>
</g>
<!-- Node2&#45;&gt;Node32 -->
<g id="edge34" class="edge"><title>Node2&#45;&gt;Node32</title>
<path fill="none" stroke="midnightblue" d="M1476.65,-176.802C1556.75,-175.798 1795.75,-169.769 2001.74,-131.841"/>
<polygon fill="midnightblue" stroke="midnightblue" points="2002.65,-135.232 2011.83,-129.952 2001.36,-128.352 2002.65,-135.232"/>
</g>
<!-- Node33 -->
<g id="node33" class="node"><title>Node33</title>
<polygon fill="none" stroke="#bfbfbf" points="2072,-112.5 2072,-131.5 2110,-131.5 2110,-112.5 2072,-112.5"/>
<text text-anchor="middle" x="2091" y="-119.5" font-family="Helvetica,sans-Serif" font-size="10.00">array</text>
</g>
<!-- Node2&#45;&gt;Node33 -->
<g id="edge35" class="edge"><title>Node2&#45;&gt;Node33</title>
<path fill="none" stroke="midnightblue" d="M1476.54,-177.298C1562.29,-177.741 1832,-175.475 2061.99,-131.72"/>
<polygon fill="midnightblue" stroke="midnightblue" points="2062.72,-135.144 2071.88,-129.809 2061.39,-128.271 2062.72,-135.144"/>
</g>
<!-- Node34 -->
<g id="node34" class="node"><title>Node34</title>
<polygon fill="none" stroke="#bfbfbf" points="2128.5,-112.5 2128.5,-131.5 2211.5,-131.5 2211.5,-112.5 2128.5,-112.5"/>
<text text-anchor="middle" x="2170" y="-119.5" font-family="Helvetica,sans-Serif" font-size="10.00">unordered_map</text>
</g>
<!-- Node2&#45;&gt;Node34 -->
<g id="edge36" class="edge"><title>Node2&#45;&gt;Node34</title>
<path fill="none" stroke="midnightblue" d="M1476.54,-176.213C1566.93,-173.406 1862.81,-162.446 2118.1,-131.966"/>
<polygon fill="midnightblue" stroke="midnightblue" points="2118.8,-135.407 2128.31,-130.734 2117.96,-128.458 2118.8,-135.407"/>
</g>
<!-- Node35 -->
<g id="node35" class="node"><title>Node35</title>
<polygon fill="none" stroke="#bfbfbf" points="2229.5,-112.5 2229.5,-131.5 2278.5,-131.5 2278.5,-112.5 2229.5,-112.5"/>
<text text-anchor="middle" x="2254" y="-119.5" font-family="Helvetica,sans-Serif" font-size="10.00">fstream</text>
</g>
<!-- Node2&#45;&gt;Node35 -->
<g id="edge38" class="edge"><title>Node2&#45;&gt;Node35</title>
<path fill="none" stroke="midnightblue" d="M1476.58,-177.453C1575.94,-178.656 1924.87,-179.156 2219.25,-131.968"/>
<polygon fill="midnightblue" stroke="midnightblue" points="2219.95,-135.401 2229.26,-130.342 2218.82,-128.491 2219.95,-135.401"/>
</g>
<!-- Node36 -->
<g id="node36" class="node"><title>Node36</title>
<polygon fill="none" stroke="#bfbfbf" points="2297,-112.5 2297,-131.5 2349,-131.5 2349,-112.5 2297,-112.5"/>
<text text-anchor="middle" x="2323" y="-119.5" font-family="Helvetica,sans-Serif" font-size="10.00">sstream</text>
</g>
<!-- Node2&#45;&gt;Node36 -->
<g id="edge39" class="edge"><title>Node2&#45;&gt;Node36</title>
<path fill="none" stroke="midnightblue" d="M1476.63,-176.254C1600.54,-172.801 2106.38,-157.494 2286.62,-131.852"/>
<polygon fill="midnightblue" stroke="midnightblue" points="2287.37,-135.279 2296.74,-130.347 2286.34,-128.355 2287.37,-135.279"/>
</g>
<!-- Node37 -->
<g id="node37" class="node"><title>Node37</title>
<polygon fill="none" stroke="#bfbfbf" points="2367.5,-112.5 2367.5,-131.5 2416.5,-131.5 2416.5,-112.5 2367.5,-112.5"/>
<text text-anchor="middle" x="2392" y="-119.5" font-family="Helvetica,sans-Serif" font-size="10.00">cassert</text>
</g>
<!-- Node2&#45;&gt;Node37 -->
<g id="edge40" class="edge"><title>Node2&#45;&gt;Node37</title>
<path fill="none" stroke="midnightblue" d="M1476.69,-176.41C1607.15,-173.516 2161.78,-159.87 2357.11,-131.719"/>
<polygon fill="midnightblue" stroke="midnightblue" points="2357.88,-135.143 2367.24,-130.194 2356.84,-128.221 2357.88,-135.143"/>
</g>
<!-- Node38 -->
<g id="node38" class="node"><title>Node38</title>
<g id="a_node38"><a xlink:href="d3dx12_8h.html" target="_top" xlink:title="../mt/d3dx12.h">
<polygon fill="none" stroke="black" points="1399,-56.5 1399,-75.5 1479,-75.5 1479,-56.5 1399,-56.5"/>
<text text-anchor="middle" x="1439" y="-63.5" font-family="Helvetica,sans-Serif" font-size="10.00">../mt/d3dx12.h</text>
</a>
</g>
</g>
<!-- Node2&#45;&gt;Node38 -->
<g id="edge41" class="edge"><title>Node2&#45;&gt;Node38</title>
<path fill="none" stroke="midnightblue" d="M1438.29,-168.305C1429.06,-160.069 1416.41,-146.789 1411,-132 1404.9,-115.311 1414.63,-96.7332 1424.25,-83.7272"/>
<polygon fill="midnightblue" stroke="midnightblue" points="1427.16,-85.6922 1430.69,-75.705 1421.7,-81.3071 1427.16,-85.6922"/>
</g>
<!-- Node39 -->
<g id="node39" class="node"><title>Node39</title>
<g id="a_node39"><a xlink:href="_d_d_s_texture_loader_8h.html" target="_top" xlink:title="../mt/DDSTextureLoader.h">
<polygon fill="none" stroke="black" points="1233,-112.5 1233,-131.5 1363,-131.5 1363,-112.5 1233,-112.5"/>
<text text-anchor="middle" x="1298" y="-119.5" font-family="Helvetica,sans-Serif" font-size="10.00">../mt/DDSTextureLoader.h</text>
</a>
</g>
</g>
<!-- Node2&#45;&gt;Node39 -->
<g id="edge43" class="edge"><title>Node2&#45;&gt;Node39</title>
<path fill="none" stroke="midnightblue" d="M1425.07,-168.444C1399.78,-159.399 1359.7,-145.064 1331.32,-134.916"/>
<polygon fill="midnightblue" stroke="midnightblue" points="1332.41,-131.588 1321.81,-131.516 1330.05,-138.179 1332.41,-131.588"/>
</g>
<!-- Node3&#45;&gt;Node4 -->
<g id="edge3" class="edge"><title>Node3&#45;&gt;Node4</title>
<path fill="none" stroke="midnightblue" d="M480.777,-118.886C402.004,-114.426 224.558,-102.361 66.1223,-75.9676"/>
<polygon fill="midnightblue" stroke="midnightblue" points="66.6401,-72.5056 56.1968,-74.2909 65.4741,-79.4078 66.6401,-72.5056"/>
</g>
<!-- Node5 -->
<g id="node5" class="node"><title>Node5</title>
<polygon fill="none" stroke="#bfbfbf" points="800,-56.5 800,-75.5 846,-75.5 846,-56.5 800,-56.5"/>
<text text-anchor="middle" x="823" y="-63.5" font-family="Helvetica,sans-Serif" font-size="10.00">chrono</text>
</g>
<!-- Node3&#45;&gt;Node5 -->
<g id="edge4" class="edge"><title>Node3&#45;&gt;Node5</title>
<path fill="none" stroke="midnightblue" d="M563.284,-115.513C614.347,-108.414 704.083,-94.9227 789.769,-76.0831"/>
<polygon fill="midnightblue" stroke="midnightblue" points="790.656,-79.4715 799.656,-73.8811 789.134,-72.6389 790.656,-79.4715"/>
</g>
<!-- Node6 -->
<g id="node6" class="node"><title>Node6</title>
<polygon fill="none" stroke="#bfbfbf" points="74,-56.5 74,-75.5 118,-75.5 118,-56.5 74,-56.5"/>
<text text-anchor="middle" x="96" y="-63.5" font-family="Helvetica,sans-Serif" font-size="10.00">cmath</text>
</g>
<!-- Node3&#45;&gt;Node6 -->
<g id="edge5" class="edge"><title>Node3&#45;&gt;Node6</title>
<path fill="none" stroke="midnightblue" d="M480.989,-118.621C410.599,-114.041 262.206,-102.222 128.266,-75.9448"/>
<polygon fill="midnightblue" stroke="midnightblue" points="128.731,-72.4686 118.239,-73.9448 127.361,-79.3334 128.731,-72.4686"/>
</g>
<!-- Node7 -->
<g id="node7" class="node"><title>Node7</title>
<polygon fill="none" stroke="#bfbfbf" points="136.5,-56.5 136.5,-75.5 185.5,-75.5 185.5,-56.5 136.5,-56.5"/>
<text text-anchor="middle" x="161" y="-63.5" font-family="Helvetica,sans-Serif" font-size="10.00">cstdarg</text>
</g>
<!-- Node3&#45;&gt;Node7 -->
<g id="edge6" class="edge"><title>Node3&#45;&gt;Node7</title>
<path fill="none" stroke="midnightblue" d="M480.803,-117.084C420.255,-110.951 303.557,-97.6931 195.843,-76.17"/>
<polygon fill="midnightblue" stroke="midnightblue" points="196.279,-72.6874 185.783,-74.1301 194.888,-79.5477 196.279,-72.6874"/>
</g>
<!-- Node8 -->
<g id="node8" class="node"><title>Node8</title>
<polygon fill="none" stroke="#bfbfbf" points="203.5,-56.5 203.5,-75.5 246.5,-75.5 246.5,-56.5 203.5,-56.5"/>
<text text-anchor="middle" x="225" y="-63.5" font-family="Helvetica,sans-Serif" font-size="10.00">deque</text>
</g>
<!-- Node3&#45;&gt;Node8 -->
<g id="edge7" class="edge"><title>Node3&#45;&gt;Node8</title>
<path fill="none" stroke="midnightblue" d="M480.975,-115.703C430.243,-108.798 341.123,-95.5113 256.326,-76.0862"/>
<polygon fill="midnightblue" stroke="midnightblue" points="257.076,-72.6674 246.544,-73.8129 255.492,-79.4857 257.076,-72.6674"/>
</g>
<!-- Node9 -->
<g id="node9" class="node"><title>Node9</title>
<polygon fill="none" stroke="#bfbfbf" points="264.5,-56.5 264.5,-75.5 325.5,-75.5 325.5,-56.5 264.5,-56.5"/>
<text text-anchor="middle" x="295" y="-63.5" font-family="Helvetica,sans-Serif" font-size="10.00">filesystem</text>
</g>
<!-- Node3&#45;&gt;Node9 -->
<g id="edge8" class="edge"><title>Node3&#45;&gt;Node9</title>
<path fill="none" stroke="midnightblue" d="M486.031,-112.444C445.06,-102.697 378.271,-86.809 335.502,-76.6348"/>
<polygon fill="midnightblue" stroke="midnightblue" points="336.243,-73.2135 325.705,-74.3042 334.623,-80.0235 336.243,-73.2135"/>
</g>
<!-- Node10 -->
<g id="node10" class="node"><title>Node10</title>
<polygon fill="none" stroke="#bfbfbf" points="343.5,-56.5 343.5,-75.5 372.5,-75.5 372.5,-56.5 343.5,-56.5"/>
<text text-anchor="middle" x="358" y="-63.5" font-family="Helvetica,sans-Serif" font-size="10.00">list</text>
</g>
<!-- Node3&#45;&gt;Node10 -->
<g id="edge9" class="edge"><title>Node3&#45;&gt;Node10</title>
<path fill="none" stroke="midnightblue" d="M493.464,-112.48C466.81,-104.394 425.731,-91.6067 382.172,-76.2709"/>
<polygon fill="midnightblue" stroke="midnightblue" points="383.143,-72.9017 372.548,-72.8548 380.801,-79.4984 383.143,-72.9017"/>
</g>
<!-- Node11 -->
<g id="node11" class="node"><title>Node11</title>
<polygon fill="none" stroke="#bfbfbf" points="390.5,-56.5 390.5,-75.5 425.5,-75.5 425.5,-56.5 390.5,-56.5"/>
<text text-anchor="middle" x="408" y="-63.5" font-family="Helvetica,sans-Serif" font-size="10.00">map</text>
</g>
<!-- Node3&#45;&gt;Node11 -->
<g id="edge10" class="edge"><title>Node3&#45;&gt;Node11</title>
<path fill="none" stroke="midnightblue" d="M503.936,-112.444C485.316,-103.624 456.078,-89.7736 434.77,-79.6805"/>
<polygon fill="midnightblue" stroke="midnightblue" points="436.14,-76.4568 425.605,-75.339 433.144,-82.783 436.14,-76.4568"/>
</g>
<!-- Node12 -->
<g id="node12" class="node"><title>Node12</title>
<polygon fill="none" stroke="#bfbfbf" points="443.5,-56.5 443.5,-75.5 486.5,-75.5 486.5,-56.5 443.5,-56.5"/>
<text text-anchor="middle" x="465" y="-63.5" font-family="Helvetica,sans-Serif" font-size="10.00">queue</text>
</g>
<!-- Node3&#45;&gt;Node12 -->
<g id="edge11" class="edge"><title>Node3&#45;&gt;Node12</title>
<path fill="none" stroke="midnightblue" d="M512.842,-112.324C504.499,-104.42 491.968,-92.5482 481.823,-82.9377"/>
<polygon fill="midnightblue" stroke="midnightblue" points="483.991,-80.1705 474.325,-75.8339 479.177,-85.2522 483.991,-80.1705"/>
</g>
<!-- Node13 -->
<g id="node13" class="node"><title>Node13</title>
<polygon fill="none" stroke="#bfbfbf" points="504.5,-56.5 504.5,-75.5 539.5,-75.5 539.5,-56.5 504.5,-56.5"/>
<text text-anchor="middle" x="522" y="-63.5" font-family="Helvetica,sans-Serif" font-size="10.00">ratio</text>
</g>
<!-- Node3&#45;&gt;Node13 -->
<g id="edge12" class="edge"><title>Node3&#45;&gt;Node13</title>
<path fill="none" stroke="midnightblue" d="M522,-112.083C522,-105.006 522,-94.8611 522,-85.9865"/>
<polygon fill="midnightblue" stroke="midnightblue" points="525.5,-85.751 522,-75.7511 518.5,-85.7511 525.5,-85.751"/>
</g>
<!-- Node14 -->
<g id="node14" class="node"><title>Node14</title>
<polygon fill="none" stroke="#bfbfbf" points="558,-56.5 558,-75.5 588,-75.5 588,-56.5 558,-56.5"/>
<text text-anchor="middle" x="573" y="-63.5" font-family="Helvetica,sans-Serif" font-size="10.00">set</text>
</g>
<!-- Node3&#45;&gt;Node14 -->
<g id="edge13" class="edge"><title>Node3&#45;&gt;Node14</title>
<path fill="none" stroke="midnightblue" d="M530.422,-112.083C537.848,-104.22 548.852,-92.5688 557.812,-83.0813"/>
<polygon fill="midnightblue" stroke="midnightblue" points="560.413,-85.4244 564.735,-75.7511 555.324,-80.618 560.413,-85.4244"/>
</g>
<!-- Node3&#45;&gt;Node15 -->
<g id="edge14" class="edge"><title>Node3&#45;&gt;Node15</title>
<path fill="none" stroke="midnightblue" d="M563.113,-117.541C624.499,-111.92 743.824,-99.236 854.462,-75.7808"/>
<polygon fill="midnightblue" stroke="midnightblue" points="855.416,-79.1557 864.454,-73.6275 853.941,-72.3128 855.416,-79.1557"/>
</g>
<!-- Node16 -->
<g id="node16" class="node"><title>Node16</title>
<polygon fill="none" stroke="#bfbfbf" points="606,-56.5 606,-75.5 668,-75.5 668,-56.5 606,-56.5"/>
<text text-anchor="middle" x="637" y="-63.5" font-family="Helvetica,sans-Serif" font-size="10.00">type_traits</text>
</g>
<!-- Node3&#45;&gt;Node16 -->
<g id="edge15" class="edge"><title>Node3&#45;&gt;Node16</title>
<path fill="none" stroke="midnightblue" d="M540.222,-112.444C558.896,-103.675 588.156,-89.9355 609.617,-79.8579"/>
<polygon fill="midnightblue" stroke="midnightblue" points="611.299,-82.935 618.863,-75.5164 608.324,-76.5988 611.299,-82.935"/>
</g>
<!-- Node17 -->
<g id="node17" class="node"><title>Node17</title>
<polygon fill="none" stroke="#bfbfbf" points="686,-56.5 686,-75.5 724,-75.5 724,-56.5 686,-56.5"/>
<text text-anchor="middle" x="705" y="-63.5" font-family="Helvetica,sans-Serif" font-size="10.00">tuple</text>
</g>
<!-- Node3&#45;&gt;Node17 -->
<g id="edge16" class="edge"><title>Node3&#45;&gt;Node17</title>
<path fill="none" stroke="midnightblue" d="M552.37,-112.459C581.718,-104.144 627.659,-90.971 676.039,-76.236"/>
<polygon fill="midnightblue" stroke="midnightblue" points="677.203,-79.54 685.743,-73.2692 675.157,-72.8459 677.203,-79.54"/>
</g>
<!-- Node18 -->
<g id="node18" class="node"><title>Node18</title>
<polygon fill="none" stroke="#bfbfbf" points="742,-56.5 742,-75.5 782,-75.5 782,-56.5 742,-56.5"/>
<text text-anchor="middle" x="762" y="-63.5" font-family="Helvetica,sans-Serif" font-size="10.00">utility</text>
</g>
<!-- Node3&#45;&gt;Node18 -->
<g id="edge17" class="edge"><title>Node3&#45;&gt;Node18</title>
<path fill="none" stroke="midnightblue" d="M563.103,-113.381C603.73,-105.597 667.83,-92.6336 731.919,-76.1038"/>
<polygon fill="midnightblue" stroke="midnightblue" points="732.993,-79.4409 741.786,-73.5302 731.226,-72.6675 732.993,-79.4409"/>
</g>
<!-- Node3&#45;&gt;Node19 -->
<g id="edge18" class="edge"><title>Node3&#45;&gt;Node19</title>
<path fill="none" stroke="midnightblue" d="M563.27,-116.443C649.978,-106.868 851.334,-84.6318 951.792,-73.5383"/>
<polygon fill="midnightblue" stroke="midnightblue" points="952.221,-77.0123 961.776,-72.4357 951.453,-70.0546 952.221,-77.0123"/>
</g>
<!-- Node20 -->
<g id="node20" class="node"><title>Node20</title>
<polygon fill="none" stroke="#bfbfbf" points="981.5,-0.5 981.5,-19.5 1046.5,-19.5 1046.5,-0.5 981.5,-0.5"/>
<text text-anchor="middle" x="1014" y="-7.5" font-family="Helvetica,sans-Serif" font-size="10.00">Windows.h</text>
</g>
<!-- Node19&#45;&gt;Node20 -->
<g id="edge19" class="edge"><title>Node19&#45;&gt;Node20</title>
<path fill="none" stroke="midnightblue" d="M1011.5,-56.083C1011.89,-49.0059 1012.45,-38.8611 1012.95,-29.9865"/>
<polygon fill="midnightblue" stroke="midnightblue" points="1016.45,-29.9299 1013.51,-19.7511 1009.46,-29.5415 1016.45,-29.9299"/>
</g>
<!-- Node19&#45;&gt;Node21 -->
<g id="edge20" class="edge"><title>Node19&#45;&gt;Node21</title>
<path fill="none" stroke="midnightblue" d="M997.183,-56.324C983.767,-47.9002 963.176,-34.9709 947.414,-25.0741"/>
<polygon fill="midnightblue" stroke="midnightblue" points="949.113,-22.0081 938.783,-19.6545 945.391,-27.9364 949.113,-22.0081"/>
</g>
<!-- Node19&#45;&gt;Node22 -->
<g id="edge21" class="edge"><title>Node19&#45;&gt;Node22</title>
<path fill="none" stroke="midnightblue" d="M1023.37,-56.324C1035.16,-48.0577 1053.13,-35.4527 1067.14,-25.6322"/>
<polygon fill="midnightblue" stroke="midnightblue" points="1069.48,-28.2619 1075.66,-19.6545 1065.46,-22.5307 1069.48,-28.2619"/>
</g>
<!-- Node38&#45;&gt;Node26 -->
<g id="edge42" class="edge"><title>Node38&#45;&gt;Node26</title>
<path fill="none" stroke="midnightblue" d="M1417.45,-56.4435C1394.97,-47.5171 1359.51,-33.4387 1334.02,-23.3168"/>
<polygon fill="midnightblue" stroke="midnightblue" points="1335.03,-19.9539 1324.45,-19.5164 1332.45,-26.4598 1335.03,-19.9539"/>
</g>
<!-- Node39&#45;&gt;Node24 -->
<g id="edge44" class="edge"><title>Node39&#45;&gt;Node24</title>
<path fill="none" stroke="midnightblue" d="M1284.5,-112.324C1271.4,-103.9 1251.29,-90.9709 1235.89,-81.0741"/>
<polygon fill="midnightblue" stroke="midnightblue" points="1237.77,-78.118 1227.46,-75.6545 1233.98,-84.0063 1237.77,-78.118"/>
</g>
<!-- Node39&#45;&gt;Node38 -->
<g id="edge46" class="edge"><title>Node39&#45;&gt;Node38</title>
<path fill="none" stroke="midnightblue" d="M1320.34,-112.444C1343.75,-103.478 1380.74,-89.314 1407.19,-79.1827"/>
<polygon fill="midnightblue" stroke="midnightblue" points="1408.68,-82.3615 1416.76,-75.5164 1406.17,-75.8245 1408.68,-82.3615"/>
</g>
<!-- Node40 -->
<g id="node40" class="node"><title>Node40</title>
<polygon fill="none" stroke="#bfbfbf" points="1251,-56.5 1251,-75.5 1313,-75.5 1313,-56.5 1251,-56.5"/>
<text text-anchor="middle" x="1282" y="-63.5" font-family="Helvetica,sans-Serif" font-size="10.00">d3d11_1.h</text>
</g>
<!-- Node39&#45;&gt;Node40 -->
<g id="edge45" class="edge"><title>Node39&#45;&gt;Node40</title>
<path fill="none" stroke="midnightblue" d="M1295.36,-112.083C1293.21,-104.849 1290.12,-94.4087 1287.45,-85.3968"/>
<polygon fill="midnightblue" stroke="midnightblue" points="1290.79,-84.3447 1284.59,-75.7511 1284.08,-86.3334 1290.79,-84.3447"/>
</g>
<!-- Node41 -->
<g id="node41" class="node"><title>Node41</title>
<polygon fill="none" stroke="#bfbfbf" points="1331.5,-56.5 1331.5,-75.5 1380.5,-75.5 1380.5,-56.5 1331.5,-56.5"/>
<text text-anchor="middle" x="1356" y="-63.5" font-family="Helvetica,sans-Serif" font-size="10.00">stdint.h</text>
</g>
<!-- Node39&#45;&gt;Node41 -->
<g id="edge47" class="edge"><title>Node39&#45;&gt;Node41</title>
<path fill="none" stroke="midnightblue" d="M1307.32,-112.324C1315.89,-104.341 1328.81,-92.3128 1339.19,-82.6529"/>
<polygon fill="midnightblue" stroke="midnightblue" points="1341.58,-85.2098 1346.51,-75.8339 1336.81,-80.0865 1341.58,-85.2098"/>
</g>
</g>
</svg>
        <g id="navigator" transform="translate(0 0)" fill="#404254">
                <rect fill="#f2f5e9" fill-opacity="0.5" stroke="#606060" stroke-width=".5" x="0" y="0" width="60" height="60"/>
                <use id="zoomplus" xlink:href="#zoomPlus" x="17" y="9" onmousedown="handleZoom(evt,'in')"/>
                <use id="zoomminus" xlink:href="#zoomMin" x="42" y="9" onmousedown="handleZoom(evt,'out')"/>
                <use id="reset" xlink:href="#resetDef" x="30" y="36" onmousedown="handleReset()"/>
                <g id="arrowUp" xlink:href="#dirArrow" transform="translate(30 24)" onmousedown="handlePan(0,-1)">
                  <use xlink:href="#rim" fill="#404040">
                        <set attributeName="fill" to="#808080" begin="arrowUp.mouseover" end="arrowUp.mouseout"/>
                  </use>
                  <path fill="none" stroke="white" stroke-width="1.5" d="M0,-3.0v7 M-2.5,-0.5L0,-3.0L2.5,-0.5"/>
                </g>
                <g id="arrowRight" xlink:href="#dirArrow" transform="rotate(90) translate(36 -43)" onmousedown="handlePan(1,0)">
                  <use xlink:href="#rim" fill="#404040">
                        <set attributeName="fill" to="#808080" begin="arrowRight.mouseover" end="arrowRight.mouseout"/>
                  </use>
                  <path fill="none" stroke="white" stroke-width="1.5" d="M0,-3.0v7 M-2.5,-0.5L0,-3.0L2.5,-0.5"/>
                </g>
                <g id="arrowDown" xlink:href="#dirArrow" transform="rotate(180) translate(-30 -48)" onmousedown="handlePan(0,1)">
                  <use xlink:href="#rim" fill="#404040">
                        <set attributeName="fill" to="#808080" begin="arrowDown.mouseover" end="arrowDown.mouseout"/>
                  </use>
                  <path fill="none" stroke="white" stroke-width="1.5" d="M0,-3.0v7 M-2.5,-0.5L0,-3.0L2.5,-0.5"/>
                </g>
                <g id="arrowLeft" xlink:href="#dirArrow" transform="rotate(270) translate(-36 17)" onmousedown="handlePan(-1,0)">
                  <use xlink:href="#rim" fill="#404040">
                        <set attributeName="fill" to="#808080" begin="arrowLeft.mouseover" end="arrowLeft.mouseout"/>
                  </use>
                  <path fill="none" stroke="white" stroke-width="1.5" d="M0,-3.0v7 M-2.5,-0.5L0,-3.0L2.5,-0.5"/>
                </g>
        </g>
        <svg viewBox="0 0 15 15" width="100%" height="30px" preserveAspectRatio="xMaxYMin meet">
         <g id="arrow_out" transform="scale(0.3 0.3)">
          <a xlink:href="_upload_buffer_8h__incl_org.svg" target="_base">
           <rect id="button" ry="5" rx="5" y="6" x="6" height="38" width="38"
                fill="#f2f5e9" fill-opacity="0.5" stroke="#606060" stroke-width="1.0"/>
           <path id="arrow"
             d="M 11.500037,31.436501 C 11.940474,20.09759 22.043105,11.32322 32.158766,21.979434 L 37.068811,17.246167 C 37.068811,17.246167 37.088388,32 37.088388,32 L 22.160133,31.978069 C 22.160133,31.978069 26.997745,27.140456 26.997745,27.140456 C 18.528582,18.264221 13.291696,25.230495 11.500037,31.436501 z"
             style="fill:#404040;"/>
          </a>
         </g>
        </svg>
</svg>
