<?xml version="1.0" encoding="UTF-8" standalone="no"?>
<!DOCTYPE svg PUBLIC "-//W3C//DTD SVG 1.1//EN"
 "http://www.w3.org/Graphics/SVG/1.1/DTD/svg11.dtd">
<!-- Generated by graphviz version 2.38.0 (20140413.2041)
 -->
<!-- Title: C:/Users/micho/Desktop/mt_engine/mt/WM_LBUTTONUP_Handler.hpp Pages: 1 -->
<svg width="2384pt" height="453pt"
 viewBox="0.00 0.00 2383.50 453.00" xmlns="http://www.w3.org/2000/svg" xmlns:xlink="http://www.w3.org/1999/xlink">
<g id="graph0" class="graph" transform="scale(1 1) rotate(0) translate(4 449)">
<title>C:/Users/micho/Desktop/mt_engine/mt/WM_LBUTTONUP_Handler.hpp</title>
<!-- Node1 -->
<g id="node1" class="node"><title>Node1</title>
<polygon fill="#bfbfbf" stroke="black" points="1670.5,-403.5 1670.5,-444.5 1832.5,-444.5 1832.5,-403.5 1670.5,-403.5"/>
<text text-anchor="start" x="1678.5" y="-432.5" font-family="Helvetica,sans-Serif" font-size="10.00">C:/Users/micho/Desktop</text>
<text text-anchor="start" x="1678.5" y="-421.5" font-family="Helvetica,sans-Serif" font-size="10.00">/mt_engine/mt/WM_LBUTTONUP</text>
<text text-anchor="middle" x="1751.5" y="-410.5" font-family="Helvetica,sans-Serif" font-size="10.00">_Handler.hpp</text>
</g>
<!-- Node2 -->
<g id="node2" class="node"><title>Node2</title>
<g id="a_node2"><a xlink:href="_windows_message_handler_8hpp.html" target="_top" xlink:title="../mt/WindowsMessageHandler.hpp">
<polygon fill="none" stroke="black" points="1616,-224.5 1616,-243.5 1787,-243.5 1787,-224.5 1616,-224.5"/>
<text text-anchor="middle" x="1701.5" y="-231.5" font-family="Helvetica,sans-Serif" font-size="10.00">../mt/WindowsMessageHandler.hpp</text>
</a>
</g>
</g>
<!-- Node1&#45;&gt;Node2 -->
<g id="edge1" class="edge"><title>Node1&#45;&gt;Node2</title>
<path fill="none" stroke="midnightblue" d="M1745.26,-403.284C1738.3,-380.998 1726.93,-343.576 1718.5,-311 1713.48,-291.62 1708.58,-269.235 1705.34,-253.803"/>
<polygon fill="midnightblue" stroke="midnightblue" points="1708.75,-253.02 1703.3,-243.938 1701.9,-254.441 1708.75,-253.02"/>
</g>
<!-- Node5 -->
<g id="node5" class="node"><title>Node5</title>
<g id="a_node5"><a xlink:href="engine_8hpp.html" target="_top" xlink:title="../mt/engine.hpp">
<polygon fill="none" stroke="black" points="1762,-347.5 1762,-366.5 1849,-366.5 1849,-347.5 1762,-347.5"/>
<text text-anchor="middle" x="1805.5" y="-354.5" font-family="Helvetica,sans-Serif" font-size="10.00">../mt/engine.hpp</text>
</a>
</g>
</g>
<!-- Node1&#45;&gt;Node5 -->
<g id="edge4" class="edge"><title>Node1&#45;&gt;Node5</title>
<path fill="none" stroke="midnightblue" d="M1767.7,-403.498C1775.42,-394.203 1784.56,-383.21 1791.91,-374.358"/>
<polygon fill="midnightblue" stroke="midnightblue" points="1794.61,-376.581 1798.31,-366.652 1789.23,-372.108 1794.61,-376.581"/>
</g>
<!-- Node3 -->
<g id="node3" class="node"><title>Node3</title>
<polygon fill="none" stroke="#bfbfbf" points="1544.5,-112.5 1544.5,-131.5 1606.5,-131.5 1606.5,-112.5 1544.5,-112.5"/>
<text text-anchor="middle" x="1575.5" y="-119.5" font-family="Helvetica,sans-Serif" font-size="10.00">windows.h</text>
</g>
<!-- Node2&#45;&gt;Node3 -->
<g id="edge2" class="edge"><title>Node2&#45;&gt;Node3</title>
<path fill="none" stroke="midnightblue" d="M1691.61,-224.368C1670.36,-205.814 1620.07,-161.913 1593.18,-138.438"/>
<polygon fill="midnightblue" stroke="midnightblue" points="1595.18,-135.531 1585.34,-131.591 1590.57,-140.805 1595.18,-135.531"/>
</g>
<!-- Node4 -->
<g id="node4" class="node"><title>Node4</title>
<polygon fill="none" stroke="#bfbfbf" points="1666.5,-168.5 1666.5,-187.5 1736.5,-187.5 1736.5,-168.5 1666.5,-168.5"/>
<text text-anchor="middle" x="1701.5" y="-175.5" font-family="Helvetica,sans-Serif" font-size="10.00">WindowsX.h</text>
</g>
<!-- Node2&#45;&gt;Node4 -->
<g id="edge3" class="edge"><title>Node2&#45;&gt;Node4</title>
<path fill="none" stroke="midnightblue" d="M1701.5,-224.083C1701.5,-217.006 1701.5,-206.861 1701.5,-197.986"/>
<polygon fill="midnightblue" stroke="midnightblue" points="1705,-197.751 1701.5,-187.751 1698,-197.751 1705,-197.751"/>
</g>
<!-- Node6 -->
<g id="node6" class="node"><title>Node6</title>
<g id="a_node6"><a xlink:href="_game_timer_8hpp.html" target="_top" xlink:title="../mt/GameTimer.hpp">
<polygon fill="none" stroke="black" points="2235,-112.5 2235,-131.5 2344,-131.5 2344,-112.5 2235,-112.5"/>
<text text-anchor="middle" x="2289.5" y="-119.5" font-family="Helvetica,sans-Serif" font-size="10.00">../mt/GameTimer.hpp</text>
</a>
</g>
</g>
<!-- Node5&#45;&gt;Node6 -->
<g id="edge5" class="edge"><title>Node5&#45;&gt;Node6</title>
<path fill="none" stroke="midnightblue" d="M1827.42,-347.499C1849.57,-338.778 1884.7,-324.599 1914.5,-311 2048.18,-249.995 2204.08,-168.369 2264.14,-136.523"/>
<polygon fill="midnightblue" stroke="midnightblue" points="2266.07,-139.462 2273.26,-131.68 2262.79,-133.28 2266.07,-139.462"/>
</g>
<!-- Node9 -->
<g id="node9" class="node"><title>Node9</title>
<g id="a_node9"><a xlink:href="_direct_x_renderer_8hpp.html" target="_top" xlink:title="../mt/DirectXRenderer.hpp">
<polygon fill="none" stroke="black" points="1413.5,-286 1413.5,-305 1541.5,-305 1541.5,-286 1413.5,-286"/>
<text text-anchor="middle" x="1477.5" y="-293" font-family="Helvetica,sans-Serif" font-size="10.00">../mt/DirectXRenderer.hpp</text>
</a>
</g>
</g>
<!-- Node5&#45;&gt;Node9 -->
<g id="edge8" class="edge"><title>Node5&#45;&gt;Node9</title>
<path fill="none" stroke="midnightblue" d="M1761.94,-348.099C1703.39,-337.477 1599.18,-318.572 1534.46,-306.832"/>
<polygon fill="midnightblue" stroke="midnightblue" points="1534.89,-303.353 1524.42,-305.012 1533.64,-310.24 1534.89,-303.353"/>
</g>
<!-- Node49 -->
<g id="node49" class="node"><title>Node49</title>
<g id="a_node49"><a xlink:href="_windows_message_handling_service_8hpp.html" target="_top" xlink:title="../mt/WindowsMessageHandling\lService.hpp">
<polygon fill="none" stroke="black" points="1727,-280.5 1727,-310.5 1884,-310.5 1884,-280.5 1727,-280.5"/>
<text text-anchor="start" x="1735" y="-298.5" font-family="Helvetica,sans-Serif" font-size="10.00">../mt/WindowsMessageHandling</text>
<text text-anchor="middle" x="1805.5" y="-287.5" font-family="Helvetica,sans-Serif" font-size="10.00">Service.hpp</text>
</a>
</g>
</g>
<!-- Node5&#45;&gt;Node49 -->
<g id="edge63" class="edge"><title>Node5&#45;&gt;Node49</title>
<path fill="none" stroke="midnightblue" d="M1805.5,-347.475C1805.5,-340.471 1805.5,-330.192 1805.5,-320.696"/>
<polygon fill="midnightblue" stroke="midnightblue" points="1809,-320.523 1805.5,-310.523 1802,-320.523 1809,-320.523"/>
</g>
<!-- Node50 -->
<g id="node50" class="node"><title>Node50</title>
<g id="a_node50"><a xlink:href="_command_queue_8hpp.html" target="_top" xlink:title="../mt/CommandQueue.hpp">
<polygon fill="none" stroke="black" points="1846,-168.5 1846,-187.5 1977,-187.5 1977,-168.5 1846,-168.5"/>
<text text-anchor="middle" x="1911.5" y="-175.5" font-family="Helvetica,sans-Serif" font-size="10.00">../mt/CommandQueue.hpp</text>
</a>
</g>
</g>
<!-- Node5&#45;&gt;Node50 -->
<g id="edge66" class="edge"><title>Node5&#45;&gt;Node50</title>
<path fill="none" stroke="midnightblue" d="M1838.65,-347.406C1857.76,-340.69 1880.5,-329.337 1893.5,-311 1917.61,-276.993 1916.69,-225.434 1914.04,-197.9"/>
<polygon fill="midnightblue" stroke="midnightblue" points="1917.48,-197.225 1912.86,-187.691 1910.53,-198.026 1917.48,-197.225"/>
</g>
<!-- Node7 -->
<g id="node7" class="node"><title>Node7</title>
<polygon fill="none" stroke="#bfbfbf" points="2329.5,-56.5 2329.5,-75.5 2375.5,-75.5 2375.5,-56.5 2329.5,-56.5"/>
<text text-anchor="middle" x="2352.5" y="-63.5" font-family="Helvetica,sans-Serif" font-size="10.00">chrono</text>
</g>
<!-- Node6&#45;&gt;Node7 -->
<g id="edge6" class="edge"><title>Node6&#45;&gt;Node7</title>
<path fill="none" stroke="midnightblue" d="M2299.62,-112.324C2309.03,-104.263 2323.24,-92.0765 2334.57,-82.3695"/>
<polygon fill="midnightblue" stroke="midnightblue" points="2336.88,-84.9993 2342.19,-75.8339 2332.32,-79.6844 2336.88,-84.9993"/>
</g>
<!-- Node8 -->
<g id="node8" class="node"><title>Node8</title>
<polygon fill="none" stroke="#bfbfbf" points="2268,-56.5 2268,-75.5 2311,-75.5 2311,-56.5 2268,-56.5"/>
<text text-anchor="middle" x="2289.5" y="-63.5" font-family="Helvetica,sans-Serif" font-size="10.00">queue</text>
</g>
<!-- Node6&#45;&gt;Node8 -->
<g id="edge7" class="edge"><title>Node6&#45;&gt;Node8</title>
<path fill="none" stroke="midnightblue" d="M2289.5,-112.083C2289.5,-105.006 2289.5,-94.8611 2289.5,-85.9865"/>
<polygon fill="midnightblue" stroke="midnightblue" points="2293,-85.751 2289.5,-75.7511 2286,-85.7511 2293,-85.751"/>
</g>
<!-- Node10 -->
<g id="node10" class="node"><title>Node10</title>
<g id="a_node10"><a xlink:href="d3d_util_8h.html" target="_top" xlink:title="../mt/d3dUtil.h">
<polygon fill="none" stroke="black" points="1088.5,-168.5 1088.5,-187.5 1166.5,-187.5 1166.5,-168.5 1088.5,-168.5"/>
<text text-anchor="middle" x="1127.5" y="-175.5" font-family="Helvetica,sans-Serif" font-size="10.00">../mt/d3dUtil.h</text>
</a>
</g>
</g>
<!-- Node9&#45;&gt;Node10 -->
<g id="edge9" class="edge"><title>Node9&#45;&gt;Node10</title>
<path fill="none" stroke="midnightblue" d="M1451.48,-285.913C1389.72,-265.533 1234.19,-214.209 1163.49,-190.876"/>
<polygon fill="midnightblue" stroke="midnightblue" points="1164.29,-187.454 1153.69,-187.643 1162.09,-194.101 1164.29,-187.454"/>
</g>
<!-- Node21 -->
<g id="node21" class="node"><title>Node21</title>
<polygon fill="none" stroke="#bfbfbf" points="1544,-56.5 1544,-75.5 1585,-75.5 1585,-56.5 1544,-56.5"/>
<text text-anchor="middle" x="1564.5" y="-63.5" font-family="Helvetica,sans-Serif" font-size="10.00">string</text>
</g>
<!-- Node9&#45;&gt;Node21 -->
<g id="edge62" class="edge"><title>Node9&#45;&gt;Node21</title>
<path fill="none" stroke="midnightblue" d="M1479.31,-285.794C1485.1,-258.933 1504.6,-175.348 1535.5,-112 1540.24,-102.289 1546.65,-92.118 1552.24,-83.9075"/>
<polygon fill="midnightblue" stroke="midnightblue" points="1555.19,-85.7954 1558.07,-75.5995 1549.46,-81.774 1555.19,-85.7954"/>
</g>
<!-- Node47 -->
<g id="node47" class="node"><title>Node47</title>
<g id="a_node47"><a xlink:href="_upload_buffer_8h.html" target="_top" xlink:title="../mt/UploadBuffer.h">
<polygon fill="none" stroke="black" points="1134,-224.5 1134,-243.5 1237,-243.5 1237,-224.5 1134,-224.5"/>
<text text-anchor="middle" x="1185.5" y="-231.5" font-family="Helvetica,sans-Serif" font-size="10.00">../mt/UploadBuffer.h</text>
</a>
</g>
</g>
<!-- Node9&#45;&gt;Node47 -->
<g id="edge57" class="edge"><title>Node9&#45;&gt;Node47</title>
<path fill="none" stroke="midnightblue" d="M1435.66,-285.975C1383.3,-275.305 1293.63,-257.034 1237.07,-245.509"/>
<polygon fill="midnightblue" stroke="midnightblue" points="1237.76,-242.076 1227.26,-243.509 1236.36,-248.935 1237.76,-242.076"/>
</g>
<!-- Node48 -->
<g id="node48" class="node"><title>Node48</title>
<g id="a_node48"><a xlink:href="_camera_8hpp.html" target="_top" xlink:title="../mt/Camera.hpp">
<polygon fill="none" stroke="black" points="1505.5,-224.5 1505.5,-243.5 1597.5,-243.5 1597.5,-224.5 1505.5,-224.5"/>
<text text-anchor="middle" x="1551.5" y="-231.5" font-family="Helvetica,sans-Serif" font-size="10.00">../mt/Camera.hpp</text>
</a>
</g>
</g>
<!-- Node9&#45;&gt;Node48 -->
<g id="edge59" class="edge"><title>Node9&#45;&gt;Node48</title>
<path fill="none" stroke="midnightblue" d="M1488.1,-285.975C1499.75,-276.608 1518.69,-261.384 1532.83,-250.008"/>
<polygon fill="midnightblue" stroke="midnightblue" points="1535.32,-252.503 1540.92,-243.509 1530.93,-247.048 1535.32,-252.503"/>
</g>
<!-- Node10&#45;&gt;Node3 -->
<g id="edge30" class="edge"><title>Node10&#45;&gt;Node3</title>
<path fill="none" stroke="midnightblue" d="M1166.86,-172.255C1251.11,-162.101 1448.17,-138.348 1534.15,-127.984"/>
<polygon fill="midnightblue" stroke="midnightblue" points="1534.8,-131.431 1544.31,-126.759 1533.97,-124.481 1534.8,-131.431"/>
</g>
<!-- Node11 -->
<g id="node11" class="node"><title>Node11</title>
<g id="a_node11"><a xlink:href="utility_8hpp.html" target="_top" xlink:title="../mt/utility.hpp">
<polygon fill="none" stroke="black" points="1808.5,-112.5 1808.5,-131.5 1890.5,-131.5 1890.5,-112.5 1808.5,-112.5"/>
<text text-anchor="middle" x="1849.5" y="-119.5" font-family="Helvetica,sans-Serif" font-size="10.00">../mt/utility.hpp</text>
</a>
</g>
</g>
<!-- Node10&#45;&gt;Node11 -->
<g id="edge10" class="edge"><title>Node10&#45;&gt;Node11</title>
<path fill="none" stroke="midnightblue" d="M1166.57,-174.078C1288.32,-164.972 1660.87,-137.108 1798.07,-126.847"/>
<polygon fill="midnightblue" stroke="midnightblue" points="1798.59,-130.317 1808.31,-126.081 1798.07,-123.337 1798.59,-130.317"/>
</g>
<!-- Node12 -->
<g id="node12" class="node"><title>Node12</title>
<polygon fill="none" stroke="#bfbfbf" points="1353.5,-56.5 1353.5,-75.5 1409.5,-75.5 1409.5,-56.5 1353.5,-56.5"/>
<text text-anchor="middle" x="1381.5" y="-63.5" font-family="Helvetica,sans-Serif" font-size="10.00">algorithm</text>
</g>
<!-- Node10&#45;&gt;Node12 -->
<g id="edge41" class="edge"><title>Node10&#45;&gt;Node12</title>
<path fill="none" stroke="midnightblue" d="M1166.57,-177.426C1211.96,-176.079 1287.29,-167.962 1339.5,-132 1356.22,-120.483 1367.84,-99.9114 1374.55,-84.9896"/>
<polygon fill="midnightblue" stroke="midnightblue" points="1377.79,-86.3187 1378.41,-75.7424 1371.33,-83.6194 1377.79,-86.3187"/>
</g>
<!-- Node10&#45;&gt;Node21 -->
<g id="edge39" class="edge"><title>Node10&#45;&gt;Node21</title>
<path fill="none" stroke="midnightblue" d="M1166.95,-173.005C1220.03,-167.046 1317.08,-154.098 1397.5,-132 1447.8,-118.179 1503.84,-94.5825 1536.53,-79.9421"/>
<polygon fill="midnightblue" stroke="midnightblue" points="1538.23,-83.017 1545.9,-75.7069 1535.34,-76.6391 1538.23,-83.017"/>
</g>
<!-- Node25 -->
<g id="node25" class="node"><title>Node25</title>
<g id="a_node25"><a xlink:href="_math_helper_8h.html" target="_top" xlink:title="../mt/MathHelper.h">
<polygon fill="none" stroke="black" points="1427.5,-56.5 1427.5,-75.5 1525.5,-75.5 1525.5,-56.5 1427.5,-56.5"/>
<text text-anchor="middle" x="1476.5" y="-63.5" font-family="Helvetica,sans-Serif" font-size="10.00">../mt/MathHelper.h</text>
</a>
</g>
</g>
<!-- Node10&#45;&gt;Node25 -->
<g id="edge56" class="edge"><title>Node10&#45;&gt;Node25</title>
<path fill="none" stroke="midnightblue" d="M1166.81,-173.458C1214.36,-168.278 1296.25,-156.46 1362.5,-132 1397.28,-119.157 1433.92,-96.3727 1455.99,-81.4781"/>
<polygon fill="midnightblue" stroke="midnightblue" points="1458.24,-84.1746 1464.51,-75.6297 1454.28,-78.4034 1458.24,-84.1746"/>
</g>
<!-- Node27 -->
<g id="node27" class="node"><title>Node27</title>
<polygon fill="none" stroke="#bfbfbf" points="1258,-0.5 1258,-19.5 1335,-19.5 1335,-0.5 1258,-0.5"/>
<text text-anchor="middle" x="1296.5" y="-7.5" font-family="Helvetica,sans-Serif" font-size="10.00">DirectXMath.h</text>
</g>
<!-- Node10&#45;&gt;Node27 -->
<g id="edge35" class="edge"><title>Node10&#45;&gt;Node27</title>
<path fill="none" stroke="midnightblue" d="M1152.61,-168.371C1171.69,-160.913 1197.75,-148.693 1216.5,-132 1250.23,-101.977 1275.95,-54.6551 1288.34,-28.9927"/>
<polygon fill="midnightblue" stroke="midnightblue" points="1291.61,-30.261 1292.69,-19.7209 1285.27,-27.2893 1291.61,-30.261"/>
</g>
<!-- Node28 -->
<g id="node28" class="node"><title>Node28</title>
<polygon fill="none" stroke="#bfbfbf" points="1370.5,-0.5 1370.5,-19.5 1416.5,-19.5 1416.5,-0.5 1370.5,-0.5"/>
<text text-anchor="middle" x="1393.5" y="-7.5" font-family="Helvetica,sans-Serif" font-size="10.00">cstdint</text>
</g>
<!-- Node10&#45;&gt;Node28 -->
<g id="edge45" class="edge"><title>Node10&#45;&gt;Node28</title>
<path fill="none" stroke="midnightblue" d="M1154.48,-168.428C1177.58,-160.544 1211.31,-147.71 1238.5,-132 1293.15,-100.422 1349.7,-51.3485 1376.91,-26.5177"/>
<polygon fill="midnightblue" stroke="midnightblue" points="1379.39,-28.9867 1384.38,-19.6361 1374.65,-23.8393 1379.39,-28.9867"/>
</g>
<!-- Node29 -->
<g id="node29" class="node"><title>Node29</title>
<polygon fill="none" stroke="#bfbfbf" points="1086,-56.5 1086,-75.5 1123,-75.5 1123,-56.5 1086,-56.5"/>
<text text-anchor="middle" x="1104.5" y="-63.5" font-family="Helvetica,sans-Serif" font-size="10.00">wrl.h</text>
</g>
<!-- Node10&#45;&gt;Node29 -->
<g id="edge31" class="edge"><title>Node10&#45;&gt;Node29</title>
<path fill="none" stroke="midnightblue" d="M1135.96,-168.108C1146.84,-155.533 1163.35,-131.869 1154.5,-112 1148.93,-99.4981 1137.98,-89.0124 1127.75,-81.3167"/>
<polygon fill="midnightblue" stroke="midnightblue" points="1129.66,-78.3794 1119.45,-75.5256 1125.65,-84.1193 1129.66,-78.3794"/>
</g>
<!-- Node30 -->
<g id="node30" class="node"><title>Node30</title>
<polygon fill="none" stroke="#bfbfbf" points="0,-112.5 0,-131.5 59,-131.5 59,-112.5 0,-112.5"/>
<text text-anchor="middle" x="29.5" y="-119.5" font-family="Helvetica,sans-Serif" font-size="10.00">dxgi1_4.h</text>
</g>
<!-- Node10&#45;&gt;Node30 -->
<g id="edge32" class="edge"><title>Node10&#45;&gt;Node30</title>
<path fill="none" stroke="midnightblue" d="M1088.26,-176.302C924.092,-173.232 290.943,-159.892 69.1386,-131.757"/>
<polygon fill="midnightblue" stroke="midnightblue" points="69.5777,-128.285 59.2063,-130.449 68.6638,-135.225 69.5777,-128.285"/>
</g>
<!-- Node31 -->
<g id="node31" class="node"><title>Node31</title>
<polygon fill="none" stroke="#bfbfbf" points="1168,-0.5 1168,-19.5 1219,-19.5 1219,-0.5 1168,-0.5"/>
<text text-anchor="middle" x="1193.5" y="-7.5" font-family="Helvetica,sans-Serif" font-size="10.00">d3d12.h</text>
</g>
<!-- Node10&#45;&gt;Node31 -->
<g id="edge33" class="edge"><title>Node10&#45;&gt;Node31</title>
<path fill="none" stroke="midnightblue" d="M1143.09,-168.388C1168.07,-153.485 1215.77,-120.192 1230.5,-76 1233.31,-67.5673 1233.5,-64.3679 1230.5,-56 1226.56,-45.0027 1218.64,-34.7688 1211.14,-26.8479"/>
<polygon fill="midnightblue" stroke="midnightblue" points="1213.52,-24.2784 1203.94,-19.7555 1208.61,-29.2659 1213.52,-24.2784"/>
</g>
<!-- Node32 -->
<g id="node32" class="node"><title>Node32</title>
<polygon fill="none" stroke="#bfbfbf" points="77.5,-112.5 77.5,-131.5 157.5,-131.5 157.5,-112.5 77.5,-112.5"/>
<text text-anchor="middle" x="117.5" y="-119.5" font-family="Helvetica,sans-Serif" font-size="10.00">D3Dcompiler.h</text>
</g>
<!-- Node10&#45;&gt;Node32 -->
<g id="edge34" class="edge"><title>Node10&#45;&gt;Node32</title>
<path fill="none" stroke="midnightblue" d="M1088.44,-177.056C958.806,-176.843 530.885,-172.953 167.73,-131.971"/>
<polygon fill="midnightblue" stroke="midnightblue" points="167.878,-128.465 157.545,-130.81 167.085,-135.42 167.878,-128.465"/>
</g>
<!-- Node33 -->
<g id="node33" class="node"><title>Node33</title>
<polygon fill="none" stroke="#bfbfbf" points="176,-112.5 176,-131.5 293,-131.5 293,-112.5 176,-112.5"/>
<text text-anchor="middle" x="234.5" y="-119.5" font-family="Helvetica,sans-Serif" font-size="10.00">DirectXPackedVector.h</text>
</g>
<!-- Node10&#45;&gt;Node33 -->
<g id="edge36" class="edge"><title>Node10&#45;&gt;Node33</title>
<path fill="none" stroke="midnightblue" d="M1088.29,-175.965C970.837,-172.632 611.384,-160.729 303.313,-132.104"/>
<polygon fill="midnightblue" stroke="midnightblue" points="303.579,-128.614 293.296,-131.166 302.926,-135.583 303.579,-128.614"/>
</g>
<!-- Node34 -->
<g id="node34" class="node"><title>Node34</title>
<polygon fill="none" stroke="#bfbfbf" points="311,-112.5 311,-131.5 394,-131.5 394,-112.5 311,-112.5"/>
<text text-anchor="middle" x="352.5" y="-119.5" font-family="Helvetica,sans-Serif" font-size="10.00">DirectXColors.h</text>
</g>
<!-- Node10&#45;&gt;Node34 -->
<g id="edge37" class="edge"><title>Node10&#45;&gt;Node34</title>
<path fill="none" stroke="midnightblue" d="M1088.12,-176.11C980.382,-173.343 671.59,-163.198 404.475,-131.967"/>
<polygon fill="midnightblue" stroke="midnightblue" points="404.534,-128.449 394.192,-130.751 403.712,-135.401 404.534,-128.449"/>
</g>
<!-- Node35 -->
<g id="node35" class="node"><title>Node35</title>
<polygon fill="none" stroke="#bfbfbf" points="412.5,-112.5 412.5,-131.5 504.5,-131.5 504.5,-112.5 412.5,-112.5"/>
<text text-anchor="middle" x="458.5" y="-119.5" font-family="Helvetica,sans-Serif" font-size="10.00">DirectXCollision.h</text>
</g>
<!-- Node10&#45;&gt;Node35 -->
<g id="edge38" class="edge"><title>Node10&#45;&gt;Node35</title>
<path fill="none" stroke="midnightblue" d="M1088.24,-175.337C992.198,-171.009 737.631,-157.971 514.917,-132.065"/>
<polygon fill="midnightblue" stroke="midnightblue" points="515.011,-128.552 504.671,-130.861 514.195,-135.504 515.011,-128.552"/>
</g>
<!-- Node36 -->
<g id="node36" class="node"><title>Node36</title>
<polygon fill="none" stroke="#bfbfbf" points="522.5,-112.5 522.5,-131.5 574.5,-131.5 574.5,-112.5 522.5,-112.5"/>
<text text-anchor="middle" x="548.5" y="-119.5" font-family="Helvetica,sans-Serif" font-size="10.00">memory</text>
</g>
<!-- Node10&#45;&gt;Node36 -->
<g id="edge40" class="edge"><title>Node10&#45;&gt;Node36</title>
<path fill="none" stroke="midnightblue" d="M1088.3,-176.028C999.968,-173.354 778.599,-163.934 584.851,-131.952"/>
<polygon fill="midnightblue" stroke="midnightblue" points="585.212,-128.464 574.771,-130.264 584.055,-135.368 585.212,-128.464"/>
</g>
<!-- Node37 -->
<g id="node37" class="node"><title>Node37</title>
<polygon fill="none" stroke="#bfbfbf" points="592.5,-112.5 592.5,-131.5 634.5,-131.5 634.5,-112.5 592.5,-112.5"/>
<text text-anchor="middle" x="613.5" y="-119.5" font-family="Helvetica,sans-Serif" font-size="10.00">vector</text>
</g>
<!-- Node10&#45;&gt;Node37 -->
<g id="edge42" class="edge"><title>Node10&#45;&gt;Node37</title>
<path fill="none" stroke="midnightblue" d="M1088.23,-175.988C1006.91,-173.329 814.215,-164.098 644.53,-131.826"/>
<polygon fill="midnightblue" stroke="midnightblue" points="645.157,-128.383 634.675,-129.921 643.828,-135.255 645.157,-128.383"/>
</g>
<!-- Node38 -->
<g id="node38" class="node"><title>Node38</title>
<polygon fill="none" stroke="#bfbfbf" points="652.5,-112.5 652.5,-131.5 690.5,-131.5 690.5,-112.5 652.5,-112.5"/>
<text text-anchor="middle" x="671.5" y="-119.5" font-family="Helvetica,sans-Serif" font-size="10.00">array</text>
</g>
<!-- Node10&#45;&gt;Node38 -->
<g id="edge43" class="edge"><title>Node10&#45;&gt;Node38</title>
<path fill="none" stroke="midnightblue" d="M1088.43,-175.586C1014.36,-172.327 848.451,-162.265 700.788,-131.855"/>
<polygon fill="midnightblue" stroke="midnightblue" points="701.145,-128.354 690.639,-129.727 699.708,-135.205 701.145,-128.354"/>
</g>
<!-- Node39 -->
<g id="node39" class="node"><title>Node39</title>
<polygon fill="none" stroke="#bfbfbf" points="709,-112.5 709,-131.5 792,-131.5 792,-112.5 709,-112.5"/>
<text text-anchor="middle" x="750.5" y="-119.5" font-family="Helvetica,sans-Serif" font-size="10.00">unordered_map</text>
</g>
<!-- Node10&#45;&gt;Node39 -->
<g id="edge44" class="edge"><title>Node10&#45;&gt;Node39</title>
<path fill="none" stroke="midnightblue" d="M1088.41,-172.152C1028.86,-164.649 911.593,-149.422 802.419,-132.256"/>
<polygon fill="midnightblue" stroke="midnightblue" points="802.644,-128.748 792.22,-130.643 801.55,-135.662 802.644,-128.748"/>
</g>
<!-- Node40 -->
<g id="node40" class="node"><title>Node40</title>
<polygon fill="none" stroke="#bfbfbf" points="810,-112.5 810,-131.5 859,-131.5 859,-112.5 810,-112.5"/>
<text text-anchor="middle" x="834.5" y="-119.5" font-family="Helvetica,sans-Serif" font-size="10.00">fstream</text>
</g>
<!-- Node10&#45;&gt;Node40 -->
<g id="edge46" class="edge"><title>Node10&#45;&gt;Node40</title>
<path fill="none" stroke="midnightblue" d="M1088.24,-171.265C1039.26,-163.871 952.762,-150.031 869.228,-131.998"/>
<polygon fill="midnightblue" stroke="midnightblue" points="869.838,-128.549 859.322,-129.837 868.346,-135.388 869.838,-128.549"/>
</g>
<!-- Node41 -->
<g id="node41" class="node"><title>Node41</title>
<polygon fill="none" stroke="#bfbfbf" points="877.5,-112.5 877.5,-131.5 929.5,-131.5 929.5,-112.5 877.5,-112.5"/>
<text text-anchor="middle" x="903.5" y="-119.5" font-family="Helvetica,sans-Serif" font-size="10.00">sstream</text>
</g>
<!-- Node10&#45;&gt;Node41 -->
<g id="edge47" class="edge"><title>Node10&#45;&gt;Node41</title>
<path fill="none" stroke="midnightblue" d="M1090.87,-168.483C1054.77,-160.045 997.786,-146.604 939.588,-132.239"/>
<polygon fill="midnightblue" stroke="midnightblue" points="940.408,-128.837 929.86,-129.832 938.727,-135.632 940.408,-128.837"/>
</g>
<!-- Node42 -->
<g id="node42" class="node"><title>Node42</title>
<polygon fill="none" stroke="#bfbfbf" points="948,-112.5 948,-131.5 997,-131.5 997,-112.5 948,-112.5"/>
<text text-anchor="middle" x="972.5" y="-119.5" font-family="Helvetica,sans-Serif" font-size="10.00">cassert</text>
</g>
<!-- Node10&#45;&gt;Node42 -->
<g id="edge48" class="edge"><title>Node10&#45;&gt;Node42</title>
<path fill="none" stroke="midnightblue" d="M1102.94,-168.444C1076.98,-159.399 1035.83,-145.064 1006.7,-134.916"/>
<polygon fill="midnightblue" stroke="midnightblue" points="1007.54,-131.501 996.945,-131.516 1005.24,-138.112 1007.54,-131.501"/>
</g>
<!-- Node43 -->
<g id="node43" class="node"><title>Node43</title>
<g id="a_node43"><a xlink:href="d3dx12_8h.html" target="_top" xlink:title="../mt/d3dx12.h">
<polygon fill="none" stroke="black" points="1141.5,-56.5 1141.5,-75.5 1221.5,-75.5 1221.5,-56.5 1141.5,-56.5"/>
<text text-anchor="middle" x="1181.5" y="-63.5" font-family="Helvetica,sans-Serif" font-size="10.00">../mt/d3dx12.h</text>
</a>
</g>
</g>
<!-- Node10&#45;&gt;Node43 -->
<g id="edge49" class="edge"><title>Node10&#45;&gt;Node43</title>
<path fill="none" stroke="midnightblue" d="M1138.98,-168.344C1148.99,-160.136 1163.04,-146.873 1170.5,-132 1177.72,-117.615 1180.33,-99.4204 1181.21,-85.942"/>
<polygon fill="midnightblue" stroke="midnightblue" points="1184.71,-86.0482 1181.61,-75.9165 1177.71,-85.7689 1184.71,-86.0482"/>
</g>
<!-- Node44 -->
<g id="node44" class="node"><title>Node44</title>
<g id="a_node44"><a xlink:href="_d_d_s_texture_loader_8h.html" target="_top" xlink:title="../mt/DDSTextureLoader.h">
<polygon fill="none" stroke="black" points="1015.5,-112.5 1015.5,-131.5 1145.5,-131.5 1145.5,-112.5 1015.5,-112.5"/>
<text text-anchor="middle" x="1080.5" y="-119.5" font-family="Helvetica,sans-Serif" font-size="10.00">../mt/DDSTextureLoader.h</text>
</a>
</g>
</g>
<!-- Node10&#45;&gt;Node44 -->
<g id="edge51" class="edge"><title>Node10&#45;&gt;Node44</title>
<path fill="none" stroke="midnightblue" d="M1119.74,-168.083C1112.96,-160.298 1102.96,-148.801 1094.74,-139.367"/>
<polygon fill="midnightblue" stroke="midnightblue" points="1097.32,-136.996 1088.12,-131.751 1092.04,-141.592 1097.32,-136.996"/>
</g>
<!-- Node11&#45;&gt;Node7 -->
<g id="edge12" class="edge"><title>Node11&#45;&gt;Node7</title>
<path fill="none" stroke="midnightblue" d="M1890.8,-119.537C1971.47,-116.146 2155.69,-105.78 2318.97,-75.9726"/>
<polygon fill="midnightblue" stroke="midnightblue" points="2320,-79.3406 2329.2,-74.0747 2318.72,-72.4581 2320,-79.3406"/>
</g>
<!-- Node11&#45;&gt;Node8 -->
<g id="edge19" class="edge"><title>Node11&#45;&gt;Node8</title>
<path fill="none" stroke="midnightblue" d="M1890.79,-118.824C1963.25,-114.494 2118.07,-102.965 2257.9,-75.7627"/>
<polygon fill="midnightblue" stroke="midnightblue" points="2258.81,-79.1507 2267.94,-73.7769 2257.45,-72.2837 2258.81,-79.1507"/>
</g>
<!-- Node11&#45;&gt;Node12 -->
<g id="edge11" class="edge"><title>Node11&#45;&gt;Node12</title>
<path fill="none" stroke="midnightblue" d="M1808.24,-118.547C1732.94,-113.67 1568.09,-101.142 1419.89,-76.0248"/>
<polygon fill="midnightblue" stroke="midnightblue" points="1420.15,-72.5184 1409.7,-74.2735 1418.96,-79.4172 1420.15,-72.5184"/>
</g>
<!-- Node13 -->
<g id="node13" class="node"><title>Node13</title>
<polygon fill="none" stroke="#bfbfbf" points="2205.5,-56.5 2205.5,-75.5 2249.5,-75.5 2249.5,-56.5 2205.5,-56.5"/>
<text text-anchor="middle" x="2227.5" y="-63.5" font-family="Helvetica,sans-Serif" font-size="10.00">cmath</text>
</g>
<!-- Node11&#45;&gt;Node13 -->
<g id="edge13" class="edge"><title>Node11&#45;&gt;Node13</title>
<path fill="none" stroke="midnightblue" d="M1890.71,-117.72C1954.2,-112.217 2079.85,-99.5503 2195.19,-75.9905"/>
<polygon fill="midnightblue" stroke="midnightblue" points="2196.17,-79.3623 2205.25,-73.9026 2194.75,-72.5084 2196.17,-79.3623"/>
</g>
<!-- Node14 -->
<g id="node14" class="node"><title>Node14</title>
<polygon fill="none" stroke="#bfbfbf" points="1603,-56.5 1603,-75.5 1652,-75.5 1652,-56.5 1603,-56.5"/>
<text text-anchor="middle" x="1627.5" y="-63.5" font-family="Helvetica,sans-Serif" font-size="10.00">cstdarg</text>
</g>
<!-- Node11&#45;&gt;Node14 -->
<g id="edge14" class="edge"><title>Node11&#45;&gt;Node14</title>
<path fill="none" stroke="midnightblue" d="M1812.69,-112.463C1776.75,-104.065 1720.25,-90.7061 1662.09,-76.1045"/>
<polygon fill="midnightblue" stroke="midnightblue" points="1662.92,-72.7034 1652.36,-73.6549 1661.21,-79.4914 1662.92,-72.7034"/>
</g>
<!-- Node15 -->
<g id="node15" class="node"><title>Node15</title>
<polygon fill="none" stroke="#bfbfbf" points="1670,-56.5 1670,-75.5 1713,-75.5 1713,-56.5 1670,-56.5"/>
<text text-anchor="middle" x="1691.5" y="-63.5" font-family="Helvetica,sans-Serif" font-size="10.00">deque</text>
</g>
<!-- Node11&#45;&gt;Node15 -->
<g id="edge15" class="edge"><title>Node11&#45;&gt;Node15</title>
<path fill="none" stroke="midnightblue" d="M1824.46,-112.444C1796.95,-103.038 1752.69,-87.9142 1722.88,-77.7242"/>
<polygon fill="midnightblue" stroke="midnightblue" points="1723.96,-74.3952 1713.37,-74.473 1721.7,-81.0191 1723.96,-74.3952"/>
</g>
<!-- Node16 -->
<g id="node16" class="node"><title>Node16</title>
<polygon fill="none" stroke="#bfbfbf" points="1731,-56.5 1731,-75.5 1792,-75.5 1792,-56.5 1731,-56.5"/>
<text text-anchor="middle" x="1761.5" y="-63.5" font-family="Helvetica,sans-Serif" font-size="10.00">filesystem</text>
</g>
<!-- Node11&#45;&gt;Node16 -->
<g id="edge16" class="edge"><title>Node11&#45;&gt;Node16</title>
<path fill="none" stroke="midnightblue" d="M1835.36,-112.324C1821.63,-103.9 1800.56,-90.9709 1784.44,-81.0741"/>
<polygon fill="midnightblue" stroke="midnightblue" points="1785.96,-77.9016 1775.6,-75.6545 1782.3,-83.8678 1785.96,-77.9016"/>
</g>
<!-- Node17 -->
<g id="node17" class="node"><title>Node17</title>
<polygon fill="none" stroke="#bfbfbf" points="1810,-56.5 1810,-75.5 1839,-75.5 1839,-56.5 1810,-56.5"/>
<text text-anchor="middle" x="1824.5" y="-63.5" font-family="Helvetica,sans-Serif" font-size="10.00">list</text>
</g>
<!-- Node11&#45;&gt;Node17 -->
<g id="edge17" class="edge"><title>Node11&#45;&gt;Node17</title>
<path fill="none" stroke="midnightblue" d="M1845.37,-112.083C1841.99,-104.77 1837.08,-94.1814 1832.88,-85.1034"/>
<polygon fill="midnightblue" stroke="midnightblue" points="1835.93,-83.3553 1828.55,-75.7511 1829.58,-86.2962 1835.93,-83.3553"/>
</g>
<!-- Node18 -->
<g id="node18" class="node"><title>Node18</title>
<polygon fill="none" stroke="#bfbfbf" points="1857,-56.5 1857,-75.5 1892,-75.5 1892,-56.5 1857,-56.5"/>
<text text-anchor="middle" x="1874.5" y="-63.5" font-family="Helvetica,sans-Serif" font-size="10.00">map</text>
</g>
<!-- Node11&#45;&gt;Node18 -->
<g id="edge18" class="edge"><title>Node11&#45;&gt;Node18</title>
<path fill="none" stroke="midnightblue" d="M1853.63,-112.083C1857.01,-104.77 1861.92,-94.1814 1866.12,-85.1034"/>
<polygon fill="midnightblue" stroke="midnightblue" points="1869.42,-86.2962 1870.45,-75.7511 1863.07,-83.3553 1869.42,-86.2962"/>
</g>
<!-- Node19 -->
<g id="node19" class="node"><title>Node19</title>
<polygon fill="none" stroke="#bfbfbf" points="1910,-56.5 1910,-75.5 1945,-75.5 1945,-56.5 1910,-56.5"/>
<text text-anchor="middle" x="1927.5" y="-63.5" font-family="Helvetica,sans-Serif" font-size="10.00">ratio</text>
</g>
<!-- Node11&#45;&gt;Node19 -->
<g id="edge20" class="edge"><title>Node11&#45;&gt;Node19</title>
<path fill="none" stroke="midnightblue" d="M1862.03,-112.324C1874.09,-103.979 1892.53,-91.2122 1906.77,-81.3524"/>
<polygon fill="midnightblue" stroke="midnightblue" points="1908.77,-84.2243 1915,-75.6545 1904.78,-78.469 1908.77,-84.2243"/>
</g>
<!-- Node20 -->
<g id="node20" class="node"><title>Node20</title>
<polygon fill="none" stroke="#bfbfbf" points="1963.5,-56.5 1963.5,-75.5 1993.5,-75.5 1993.5,-56.5 1963.5,-56.5"/>
<text text-anchor="middle" x="1978.5" y="-63.5" font-family="Helvetica,sans-Serif" font-size="10.00">set</text>
</g>
<!-- Node11&#45;&gt;Node20 -->
<g id="edge21" class="edge"><title>Node11&#45;&gt;Node20</title>
<path fill="none" stroke="midnightblue" d="M1869.94,-112.444C1892.79,-102.877 1929.78,-87.3932 1954.12,-77.2038"/>
<polygon fill="midnightblue" stroke="midnightblue" points="1955.52,-80.413 1963.4,-73.323 1952.82,-73.9559 1955.52,-80.413"/>
</g>
<!-- Node11&#45;&gt;Node21 -->
<g id="edge22" class="edge"><title>Node11&#45;&gt;Node21</title>
<path fill="none" stroke="midnightblue" d="M1808.12,-115.218C1759.41,-108.076 1675.92,-94.7928 1594.93,-75.8538"/>
<polygon fill="midnightblue" stroke="midnightblue" points="1595.61,-72.4171 1585.07,-73.5162 1593.99,-79.2284 1595.61,-72.4171"/>
</g>
<!-- Node22 -->
<g id="node22" class="node"><title>Node22</title>
<polygon fill="none" stroke="#bfbfbf" points="2011.5,-56.5 2011.5,-75.5 2073.5,-75.5 2073.5,-56.5 2011.5,-56.5"/>
<text text-anchor="middle" x="2042.5" y="-63.5" font-family="Helvetica,sans-Serif" font-size="10.00">type_traits</text>
</g>
<!-- Node11&#45;&gt;Node22 -->
<g id="edge23" class="edge"><title>Node11&#45;&gt;Node22</title>
<path fill="none" stroke="midnightblue" d="M1880.08,-112.444C1913.11,-103.201 1965.89,-88.4356 2002.27,-78.2572"/>
<polygon fill="midnightblue" stroke="midnightblue" points="2003.37,-81.5815 2012.06,-75.5164 2001.49,-74.8404 2003.37,-81.5815"/>
</g>
<!-- Node23 -->
<g id="node23" class="node"><title>Node23</title>
<polygon fill="none" stroke="#bfbfbf" points="2091.5,-56.5 2091.5,-75.5 2129.5,-75.5 2129.5,-56.5 2091.5,-56.5"/>
<text text-anchor="middle" x="2110.5" y="-63.5" font-family="Helvetica,sans-Serif" font-size="10.00">tuple</text>
</g>
<!-- Node11&#45;&gt;Node23 -->
<g id="edge24" class="edge"><title>Node11&#45;&gt;Node23</title>
<path fill="none" stroke="midnightblue" d="M1890.66,-114.59C1935.47,-107.272 2009.36,-94.2143 2081.59,-75.9898"/>
<polygon fill="midnightblue" stroke="midnightblue" points="2082.49,-79.3733 2091.31,-73.5039 2080.75,-72.5918 2082.49,-79.3733"/>
</g>
<!-- Node24 -->
<g id="node24" class="node"><title>Node24</title>
<polygon fill="none" stroke="#bfbfbf" points="2147.5,-56.5 2147.5,-75.5 2187.5,-75.5 2187.5,-56.5 2147.5,-56.5"/>
<text text-anchor="middle" x="2167.5" y="-63.5" font-family="Helvetica,sans-Serif" font-size="10.00">utility</text>
</g>
<!-- Node11&#45;&gt;Node24 -->
<g id="edge25" class="edge"><title>Node11&#45;&gt;Node24</title>
<path fill="none" stroke="midnightblue" d="M1890.54,-116.529C1944.97,-110.181 2044.12,-97.1608 2137.44,-75.9581"/>
<polygon fill="midnightblue" stroke="midnightblue" points="2138.37,-79.3361 2147.32,-73.6762 2136.79,-72.5156 2138.37,-79.3361"/>
</g>
<!-- Node11&#45;&gt;Node25 -->
<g id="edge26" class="edge"><title>Node11&#45;&gt;Node25</title>
<path fill="none" stroke="midnightblue" d="M1808.34,-115.222C1750.19,-107.033 1640.42,-91.4765 1535.85,-76.04"/>
<polygon fill="midnightblue" stroke="midnightblue" points="1536.15,-72.5468 1525.75,-74.5468 1535.13,-79.4716 1536.15,-72.5468"/>
</g>
<!-- Node26 -->
<g id="node26" class="node"><title>Node26</title>
<polygon fill="none" stroke="#bfbfbf" points="1444,-0.5 1444,-19.5 1509,-19.5 1509,-0.5 1444,-0.5"/>
<text text-anchor="middle" x="1476.5" y="-7.5" font-family="Helvetica,sans-Serif" font-size="10.00">Windows.h</text>
</g>
<!-- Node25&#45;&gt;Node26 -->
<g id="edge27" class="edge"><title>Node25&#45;&gt;Node26</title>
<path fill="none" stroke="midnightblue" d="M1476.5,-56.083C1476.5,-49.0059 1476.5,-38.8611 1476.5,-29.9865"/>
<polygon fill="midnightblue" stroke="midnightblue" points="1480,-29.751 1476.5,-19.7511 1473,-29.7511 1480,-29.751"/>
</g>
<!-- Node25&#45;&gt;Node27 -->
<g id="edge28" class="edge"><title>Node25&#45;&gt;Node27</title>
<path fill="none" stroke="midnightblue" d="M1447.98,-56.4435C1417.43,-47.2801 1368.79,-32.6876 1334.9,-22.5192"/>
<polygon fill="midnightblue" stroke="midnightblue" points="1335.47,-19.0376 1324.89,-19.5164 1333.46,-25.7424 1335.47,-19.0376"/>
</g>
<!-- Node25&#45;&gt;Node28 -->
<g id="edge29" class="edge"><title>Node25&#45;&gt;Node28</title>
<path fill="none" stroke="midnightblue" d="M1463.16,-56.324C1450.34,-47.979 1430.72,-35.2122 1415.56,-25.3524"/>
<polygon fill="midnightblue" stroke="midnightblue" points="1417.09,-22.1742 1406.8,-19.6545 1413.28,-28.0417 1417.09,-22.1742"/>
</g>
<!-- Node43&#45;&gt;Node31 -->
<g id="edge50" class="edge"><title>Node43&#45;&gt;Node31</title>
<path fill="none" stroke="midnightblue" d="M1183.48,-56.083C1185.07,-48.9272 1187.36,-38.6353 1189.35,-29.6911"/>
<polygon fill="midnightblue" stroke="midnightblue" points="1192.8,-30.2722 1191.56,-19.7511 1185.97,-28.7537 1192.8,-30.2722"/>
</g>
<!-- Node44&#45;&gt;Node29 -->
<g id="edge52" class="edge"><title>Node44&#45;&gt;Node29</title>
<path fill="none" stroke="midnightblue" d="M1084.46,-112.083C1087.71,-104.77 1092.42,-94.1814 1096.45,-85.1034"/>
<polygon fill="midnightblue" stroke="midnightblue" points="1099.75,-86.3107 1100.61,-75.7511 1093.35,-83.4677 1099.75,-86.3107"/>
</g>
<!-- Node44&#45;&gt;Node43 -->
<g id="edge54" class="edge"><title>Node44&#45;&gt;Node43</title>
<path fill="none" stroke="midnightblue" d="M1096.73,-112.324C1112.85,-103.703 1137.8,-90.3643 1156.46,-80.3855"/>
<polygon fill="midnightblue" stroke="midnightblue" points="1158.14,-83.456 1165.31,-75.6545 1154.84,-77.283 1158.14,-83.456"/>
</g>
<!-- Node45 -->
<g id="node45" class="node"><title>Node45</title>
<polygon fill="none" stroke="#bfbfbf" points="1005.5,-56.5 1005.5,-75.5 1067.5,-75.5 1067.5,-56.5 1005.5,-56.5"/>
<text text-anchor="middle" x="1036.5" y="-63.5" font-family="Helvetica,sans-Serif" font-size="10.00">d3d11_1.h</text>
</g>
<!-- Node44&#45;&gt;Node45 -->
<g id="edge53" class="edge"><title>Node44&#45;&gt;Node45</title>
<path fill="none" stroke="midnightblue" d="M1073.23,-112.083C1066.96,-104.377 1057.71,-93.0333 1050.07,-83.6531"/>
<polygon fill="midnightblue" stroke="midnightblue" points="1052.66,-81.2926 1043.63,-75.7511 1047.23,-85.7143 1052.66,-81.2926"/>
</g>
<!-- Node46 -->
<g id="node46" class="node"><title>Node46</title>
<polygon fill="none" stroke="#bfbfbf" points="938,-56.5 938,-75.5 987,-75.5 987,-56.5 938,-56.5"/>
<text text-anchor="middle" x="962.5" y="-63.5" font-family="Helvetica,sans-Serif" font-size="10.00">stdint.h</text>
</g>
<!-- Node44&#45;&gt;Node46 -->
<g id="edge55" class="edge"><title>Node44&#45;&gt;Node46</title>
<path fill="none" stroke="midnightblue" d="M1061.8,-112.444C1042.56,-103.636 1012.35,-89.8116 990.3,-79.722"/>
<polygon fill="midnightblue" stroke="midnightblue" points="991.66,-76.4951 981.11,-75.5164 988.747,-82.8603 991.66,-76.4951"/>
</g>
<!-- Node47&#45;&gt;Node10 -->
<g id="edge58" class="edge"><title>Node47&#45;&gt;Node10</title>
<path fill="none" stroke="midnightblue" d="M1176.18,-224.324C1167.61,-216.341 1154.69,-204.313 1144.31,-194.653"/>
<polygon fill="midnightblue" stroke="midnightblue" points="1146.69,-192.086 1136.99,-187.834 1141.92,-197.21 1146.69,-192.086"/>
</g>
<!-- Node48&#45;&gt;Node10 -->
<g id="edge61" class="edge"><title>Node48&#45;&gt;Node10</title>
<path fill="none" stroke="midnightblue" d="M1505.32,-227.118C1424.84,-216.869 1259.6,-195.824 1176.91,-185.293"/>
<polygon fill="midnightblue" stroke="midnightblue" points="1177.13,-181.793 1166.77,-184.001 1176.25,-188.737 1177.13,-181.793"/>
</g>
<!-- Node48&#45;&gt;Node11 -->
<g id="edge60" class="edge"><title>Node48&#45;&gt;Node11</title>
<path fill="none" stroke="midnightblue" d="M1562.91,-224.279C1581.66,-210.37 1620.56,-183.189 1657.5,-168 1703.38,-149.134 1758.83,-137.209 1798.32,-130.411"/>
<polygon fill="midnightblue" stroke="midnightblue" points="1798.96,-133.851 1808.25,-128.751 1797.81,-126.947 1798.96,-133.851"/>
</g>
<!-- Node49&#45;&gt;Node2 -->
<g id="edge65" class="edge"><title>Node49&#45;&gt;Node2</title>
<path fill="none" stroke="midnightblue" d="M1780.85,-280.399C1764.18,-270.862 1742.27,-258.325 1725.69,-248.842"/>
<polygon fill="midnightblue" stroke="midnightblue" points="1727.05,-245.586 1716.63,-243.658 1723.57,-251.662 1727.05,-245.586"/>
</g>
<!-- Node49&#45;&gt;Node11 -->
<g id="edge64" class="edge"><title>Node49&#45;&gt;Node11</title>
<path fill="none" stroke="midnightblue" d="M1808.99,-280.445C1814.81,-257.081 1826.9,-208.782 1837.5,-168 1839.76,-159.284 1842.33,-149.635 1844.51,-141.514"/>
<polygon fill="midnightblue" stroke="midnightblue" points="1847.95,-142.184 1847.17,-131.618 1841.19,-140.366 1847.95,-142.184"/>
</g>
<!-- Node50&#45;&gt;Node11 -->
<g id="edge67" class="edge"><title>Node50&#45;&gt;Node11</title>
<path fill="none" stroke="midnightblue" d="M1901.54,-168.324C1892.37,-160.341 1878.56,-148.313 1867.47,-138.653"/>
<polygon fill="midnightblue" stroke="midnightblue" points="1869.48,-135.762 1859.64,-131.834 1864.88,-141.041 1869.48,-135.762"/>
</g>
</g>
</svg>
