<?xml version="1.0" encoding="UTF-8" standalone="no"?>
<!DOCTYPE svg PUBLIC "-//W3C//DTD SVG 1.1//EN"
 "http://www.w3.org/Graphics/SVG/1.1/DTD/svg11.dtd">
<!-- Generated by graphviz version 2.38.0 (20140413.2041)
 -->
<!-- Title: C:/Users/micho/Desktop/mt_engine/mt/WM_KEYUP_Handler.hpp Pages: 1 -->
<svg width="326pt" height="128pt"
 viewBox="0.00 0.00 326.00 128.00" xmlns="http://www.w3.org/2000/svg" xmlns:xlink="http://www.w3.org/1999/xlink">
<g id="graph0" class="graph" transform="scale(1 1) rotate(0) translate(4 124)">
<title>C:/Users/micho/Desktop/mt_engine/mt/WM_KEYUP_Handler.hpp</title>
<!-- Node1 -->
<g id="node1" class="node"><title>Node1</title>
<polygon fill="#bfbfbf" stroke="black" points="95,-78.5 95,-119.5 234,-119.5 234,-78.5 95,-78.5"/>
<text text-anchor="start" x="103" y="-107.5" font-family="Helvetica,sans-Serif" font-size="10.00">C:/Users/micho/Desktop</text>
<text text-anchor="start" x="103" y="-96.5" font-family="Helvetica,sans-Serif" font-size="10.00">/mt_engine/mt/WM_KEYUP</text>
<text text-anchor="middle" x="164.5" y="-85.5" font-family="Helvetica,sans-Serif" font-size="10.00">_Handler.hpp</text>
</g>
<!-- Node2 -->
<g id="node2" class="node"><title>Node2</title>
<g id="a_node2"><a xlink:href="_windows_message_handling_service_8cpp.html" target="_top" xlink:title="C:/Users/micho/Desktop\l/mt_engine/mt/WindowsMessage\lHandlingService.cpp">
<polygon fill="none" stroke="black" points="0,-0.5 0,-41.5 161,-41.5 161,-0.5 0,-0.5"/>
<text text-anchor="start" x="8" y="-29.5" font-family="Helvetica,sans-Serif" font-size="10.00">C:/Users/micho/Desktop</text>
<text text-anchor="start" x="8" y="-18.5" font-family="Helvetica,sans-Serif" font-size="10.00">/mt_engine/mt/WindowsMessage</text>
<text text-anchor="middle" x="80.5" y="-7.5" font-family="Helvetica,sans-Serif" font-size="10.00">HandlingService.cpp</text>
</a>
</g>
</g>
<!-- Node1&#45;&gt;Node2 -->
<g id="edge1" class="edge"><title>Node1&#45;&gt;Node2</title>
<path fill="none" stroke="midnightblue" d="M135.201,-71.4916C124.301,-61.6294 112.141,-50.6273 102.059,-41.5056"/>
<polygon fill="midnightblue" stroke="midnightblue" points="133.104,-74.3143 142.868,-78.4281 137.801,-69.1236 133.104,-74.3143"/>
</g>
<!-- Node3 -->
<g id="node3" class="node"><title>Node3</title>
<g id="a_node3"><a xlink:href="_w_m___k_e_y_u_p___handler_8cpp.html" target="_top" xlink:title="C:/Users/micho/Desktop\l/mt_engine/mt/WM_KEYUP\l_Handler.cpp">
<polygon fill="none" stroke="black" points="179,-0.5 179,-41.5 318,-41.5 318,-0.5 179,-0.5"/>
<text text-anchor="start" x="187" y="-29.5" font-family="Helvetica,sans-Serif" font-size="10.00">C:/Users/micho/Desktop</text>
<text text-anchor="start" x="187" y="-18.5" font-family="Helvetica,sans-Serif" font-size="10.00">/mt_engine/mt/WM_KEYUP</text>
<text text-anchor="middle" x="248.5" y="-7.5" font-family="Helvetica,sans-Serif" font-size="10.00">_Handler.cpp</text>
</a>
</g>
</g>
<!-- Node1&#45;&gt;Node3 -->
<g id="edge2" class="edge"><title>Node1&#45;&gt;Node3</title>
<path fill="none" stroke="midnightblue" d="M193.799,-71.4916C204.699,-61.6294 216.859,-50.6273 226.941,-41.5056"/>
<polygon fill="midnightblue" stroke="midnightblue" points="191.199,-69.1236 186.132,-78.4281 195.896,-74.3143 191.199,-69.1236"/>
</g>
</g>
</svg>
