<?xml version="1.0" encoding="UTF-8" standalone="no"?>
<!DOCTYPE svg PUBLIC "-//W3C//DTD SVG 1.1//EN"
 "http://www.w3.org/Graphics/SVG/1.1/DTD/svg11.dtd">
<!-- Generated by graphviz version 2.38.0 (20140413.2041)
 -->
<!-- Title: C:/Users/micho/Desktop/mt_engine/mt/WM_ERASEBKGND_Handler.hpp Pages: 1 -->
<svg width="181pt" height="162pt"
 viewBox="0.00 0.00 181.00 162.00" xmlns="http://www.w3.org/2000/svg" xmlns:xlink="http://www.w3.org/1999/xlink">
<g id="graph0" class="graph" transform="scale(1 1) rotate(0) translate(4 158)">
<title>C:/Users/micho/Desktop/mt_engine/mt/WM_ERASEBKGND_Handler.hpp</title>
<!-- Node1 -->
<g id="node1" class="node"><title>Node1</title>
<polygon fill="#bfbfbf" stroke="black" points="0,-112.5 0,-153.5 173,-153.5 173,-112.5 0,-112.5"/>
<text text-anchor="start" x="8" y="-141.5" font-family="Helvetica,sans-Serif" font-size="10.00">C:/Users/micho/Desktop</text>
<text text-anchor="start" x="8" y="-130.5" font-family="Helvetica,sans-Serif" font-size="10.00">/mt_engine/mt/WM_ERASEBKGND</text>
<text text-anchor="middle" x="86.5" y="-119.5" font-family="Helvetica,sans-Serif" font-size="10.00">_Handler.hpp</text>
</g>
<!-- Node2 -->
<g id="node2" class="node"><title>Node2</title>
<g id="a_node2"><a xlink:href="_windows_message_handler_8hpp.html" target="_top" xlink:title="../mt/WindowsMessageHandler.hpp">
<polygon fill="none" stroke="black" points="1,-56.5 1,-75.5 172,-75.5 172,-56.5 1,-56.5"/>
<text text-anchor="middle" x="86.5" y="-63.5" font-family="Helvetica,sans-Serif" font-size="10.00">../mt/WindowsMessageHandler.hpp</text>
</a>
</g>
</g>
<!-- Node1&#45;&gt;Node2 -->
<g id="edge1" class="edge"><title>Node1&#45;&gt;Node2</title>
<path fill="none" stroke="midnightblue" d="M86.5,-112.498C86.5,-104.065 86.5,-94.2351 86.5,-85.874"/>
<polygon fill="midnightblue" stroke="midnightblue" points="90.0001,-85.6525 86.5,-75.6525 83.0001,-85.6525 90.0001,-85.6525"/>
</g>
<!-- Node3 -->
<g id="node3" class="node"><title>Node3</title>
<polygon fill="none" stroke="#bfbfbf" points="13.5,-0.5 13.5,-19.5 75.5,-19.5 75.5,-0.5 13.5,-0.5"/>
<text text-anchor="middle" x="44.5" y="-7.5" font-family="Helvetica,sans-Serif" font-size="10.00">windows.h</text>
</g>
<!-- Node2&#45;&gt;Node3 -->
<g id="edge2" class="edge"><title>Node2&#45;&gt;Node3</title>
<path fill="none" stroke="midnightblue" d="M79.5646,-56.083C73.5708,-48.3768 64.7482,-37.0333 57.4524,-27.6531"/>
<polygon fill="midnightblue" stroke="midnightblue" points="60.2086,-25.4958 51.3064,-19.7511 54.6831,-29.7934 60.2086,-25.4958"/>
</g>
<!-- Node4 -->
<g id="node4" class="node"><title>Node4</title>
<polygon fill="none" stroke="#bfbfbf" points="93.5,-0.5 93.5,-19.5 163.5,-19.5 163.5,-0.5 93.5,-0.5"/>
<text text-anchor="middle" x="128.5" y="-7.5" font-family="Helvetica,sans-Serif" font-size="10.00">WindowsX.h</text>
</g>
<!-- Node2&#45;&gt;Node4 -->
<g id="edge3" class="edge"><title>Node2&#45;&gt;Node4</title>
<path fill="none" stroke="midnightblue" d="M93.4354,-56.083C99.4292,-48.3768 108.252,-37.0333 115.548,-27.6531"/>
<polygon fill="midnightblue" stroke="midnightblue" points="118.317,-29.7934 121.694,-19.7511 112.791,-25.4958 118.317,-29.7934"/>
</g>
</g>
</svg>
