<?xml version="1.0" encoding="UTF-8" standalone="no"?>
<!DOCTYPE svg PUBLIC "-//W3C//DTD SVG 1.1//EN"
 "http://www.w3.org/Graphics/SVG/1.1/DTD/svg11.dtd">
<!-- Generated by graphviz version 2.38.0 (20140413.2041)
 -->
<!-- Title: C:/Users/micho/Desktop/mt_engine/mt/WM_GETMINMAXINFO_Handler.hpp Pages: 1 -->
<svg width="193pt" height="162pt"
 viewBox="0.00 0.00 193.00 162.00" xmlns="http://www.w3.org/2000/svg" xmlns:xlink="http://www.w3.org/1999/xlink">
<g id="graph0" class="graph" transform="scale(1 1) rotate(0) translate(4 158)">
<title>C:/Users/micho/Desktop/mt_engine/mt/WM_GETMINMAXINFO_Handler.hpp</title>
<!-- Node1 -->
<g id="node1" class="node"><title>Node1</title>
<polygon fill="#bfbfbf" stroke="black" points="0,-112.5 0,-153.5 185,-153.5 185,-112.5 0,-112.5"/>
<text text-anchor="start" x="8" y="-141.5" font-family="Helvetica,sans-Serif" font-size="10.00">C:/Users/micho/Desktop</text>
<text text-anchor="start" x="8" y="-130.5" font-family="Helvetica,sans-Serif" font-size="10.00">/mt_engine/mt/WM_GETMINMAXINFO</text>
<text text-anchor="middle" x="92.5" y="-119.5" font-family="Helvetica,sans-Serif" font-size="10.00">_Handler.hpp</text>
</g>
<!-- Node2 -->
<g id="node2" class="node"><title>Node2</title>
<g id="a_node2"><a xlink:href="_windows_message_handler_8hpp.html" target="_top" xlink:title="../mt/WindowsMessageHandler.hpp">
<polygon fill="none" stroke="black" points="7,-56.5 7,-75.5 178,-75.5 178,-56.5 7,-56.5"/>
<text text-anchor="middle" x="92.5" y="-63.5" font-family="Helvetica,sans-Serif" font-size="10.00">../mt/WindowsMessageHandler.hpp</text>
</a>
</g>
</g>
<!-- Node1&#45;&gt;Node2 -->
<g id="edge1" class="edge"><title>Node1&#45;&gt;Node2</title>
<path fill="none" stroke="midnightblue" d="M92.5,-112.498C92.5,-104.065 92.5,-94.2351 92.5,-85.874"/>
<polygon fill="midnightblue" stroke="midnightblue" points="96.0001,-85.6525 92.5,-75.6525 89.0001,-85.6525 96.0001,-85.6525"/>
</g>
<!-- Node3 -->
<g id="node3" class="node"><title>Node3</title>
<polygon fill="none" stroke="#bfbfbf" points="19.5,-0.5 19.5,-19.5 81.5,-19.5 81.5,-0.5 19.5,-0.5"/>
<text text-anchor="middle" x="50.5" y="-7.5" font-family="Helvetica,sans-Serif" font-size="10.00">windows.h</text>
</g>
<!-- Node2&#45;&gt;Node3 -->
<g id="edge2" class="edge"><title>Node2&#45;&gt;Node3</title>
<path fill="none" stroke="midnightblue" d="M85.5646,-56.083C79.5708,-48.3768 70.7482,-37.0333 63.4524,-27.6531"/>
<polygon fill="midnightblue" stroke="midnightblue" points="66.2086,-25.4958 57.3064,-19.7511 60.6831,-29.7934 66.2086,-25.4958"/>
</g>
<!-- Node4 -->
<g id="node4" class="node"><title>Node4</title>
<polygon fill="none" stroke="#bfbfbf" points="99.5,-0.5 99.5,-19.5 169.5,-19.5 169.5,-0.5 99.5,-0.5"/>
<text text-anchor="middle" x="134.5" y="-7.5" font-family="Helvetica,sans-Serif" font-size="10.00">WindowsX.h</text>
</g>
<!-- Node2&#45;&gt;Node4 -->
<g id="edge3" class="edge"><title>Node2&#45;&gt;Node4</title>
<path fill="none" stroke="midnightblue" d="M99.4354,-56.083C105.429,-48.3768 114.252,-37.0333 121.548,-27.6531"/>
<polygon fill="midnightblue" stroke="midnightblue" points="124.317,-29.7934 127.694,-19.7511 118.791,-25.4958 124.317,-29.7934"/>
</g>
</g>
</svg>
