<?xml version="1.0" encoding="UTF-8" standalone="no"?>
<!DOCTYPE svg PUBLIC "-//W3C//DTD SVG 1.1//EN"
 "http://www.w3.org/Graphics/SVG/1.1/DTD/svg11.dtd">
<!-- Generated by graphviz version 2.38.0 (20140413.2041)
 -->
<!-- Title: C:/Users/micho/Desktop/mt_engine/mt/WM_ACTIVATE_Handler.cpp Pages: 1 -->
<!--zoomable 453 -->
<svg id="main" version="1.1" xmlns="http://www.w3.org/2000/svg" xmlns:xlink="http://www.w3.org/1999/xlink" xml:space="preserve" onload="init(evt)">
<style type="text/css"><![CDATA[
.edge:hover path { stroke: red; }
.edge:hover polygon { stroke: red; fill: red; }
]]></style>
<script type="text/javascript"><![CDATA[
var edges = document.getElementsByTagName('g');
if (edges && edges.length) {
  for (var i=0;i<edges.length;i++) {
    if (edges[i].id.substr(0,4)=='edge') {
      edges[i].setAttribute('class','edge');
    }
  }
}
]]></script>
        <defs>
                <circle id="rim" cx="0" cy="0" r="7"/>
                <circle id="rim2" cx="0" cy="0" r="3.5"/>
                <g id="zoomPlus">
                        <use xlink:href="#rim" fill="#404040">
                                <set attributeName="fill" to="#808080" begin="zoomplus.mouseover" end="zoomplus.mouseout"/>
                        </use>
                        <path d="M-4,0h8M0,-4v8" fill="none" stroke="white" stroke-width="1.5" pointer-events="none"/>
                </g>
                <g id="zoomMin">
                        <use xlink:href="#rim" fill="#404040">
                                <set attributeName="fill" to="#808080" begin="zoomminus.mouseover" end="zoomminus.mouseout"/>
                        </use>
                        <path d="M-4,0h8" fill="none" stroke="white" stroke-width="1.5" pointer-events="none"/>
                </g>
                <g id="dirArrow">
                        <path fill="none" stroke="white" stroke-width="1.5" d="M0,-3.0v7 M-2.5,-0.5L0,-3.0L2.5,-0.5"/>
                </g>
               <g id="resetDef">
                       <use xlink:href="#rim2" fill="#404040">
                               <set attributeName="fill" to="#808080" begin="reset.mouseover" end="reset.mouseout"/>
                       </use>
               </g>
        </defs>

<script type="text/javascript">
var viewWidth = 2243;
var viewHeight = 453;
var sectionId = 'dynsection-0';
</script>
<script xlink:href="svgpan.js"/>
<svg id="graph" class="graph">
<g id="viewport">
<title>C:/Users/micho/Desktop/mt_engine/mt/WM_ACTIVATE_Handler.cpp</title>
<!-- Node1 -->
<g id="node1" class="node"><title>Node1</title>
<polygon fill="#bfbfbf" stroke="black" points="1547.6,-403.5 1547.6,-444.5 1699.6,-444.5 1699.6,-403.5 1547.6,-403.5"/>
<text text-anchor="start" x="1555.6" y="-432.5" font-family="Helvetica,sans-Serif" font-size="10.00">C:/Users/micho/Desktop</text>
<text text-anchor="start" x="1555.6" y="-421.5" font-family="Helvetica,sans-Serif" font-size="10.00">/mt_engine/mt/WM_ACTIVATE</text>
<text text-anchor="middle" x="1623.6" y="-410.5" font-family="Helvetica,sans-Serif" font-size="10.00">_Handler.cpp</text>
</g>
<!-- Node2 -->
<g id="node2" class="node"><title>Node2</title>
<g id="a_node2"><a xlink:href="engine_8hpp.html" target="_top" xlink:title="../mt/engine.hpp">
<polygon fill="none" stroke="black" points="1653.1,-347.5 1653.1,-366.5 1740.1,-366.5 1740.1,-347.5 1653.1,-347.5"/>
<text text-anchor="middle" x="1696.6" y="-354.5" font-family="Helvetica,sans-Serif" font-size="10.00">../mt/engine.hpp</text>
</a>
</g>
</g>
<!-- Node1&#45;&gt;Node2 -->
<g id="edge1" class="edge"><title>Node1&#45;&gt;Node2</title>
<path fill="none" stroke="midnightblue" d="M1645.5,-403.498C1656.26,-393.915 1669.05,-382.528 1679.14,-373.543"/>
<polygon fill="midnightblue" stroke="midnightblue" points="1681.74,-375.916 1686.88,-366.652 1677.08,-370.689 1681.74,-375.916"/>
</g>
<!-- Node50 -->
<g id="node50" class="node"><title>Node50</title>
<g id="a_node50"><a xlink:href="_w_m___a_c_t_i_v_a_t_e___handler_8hpp.html" target="_top" xlink:title="../mt/WM_ACTIVATE_Handler.hpp">
<polygon fill="none" stroke="black" points="1468.1,-347.5 1468.1,-366.5 1635.1,-366.5 1635.1,-347.5 1468.1,-347.5"/>
<text text-anchor="middle" x="1551.6" y="-354.5" font-family="Helvetica,sans-Serif" font-size="10.00">../mt/WM_ACTIVATE_Handler.hpp</text>
</a>
</g>
</g>
<!-- Node1&#45;&gt;Node50 -->
<g id="edge66" class="edge"><title>Node1&#45;&gt;Node50</title>
<path fill="none" stroke="midnightblue" d="M1602,-403.498C1591.38,-393.915 1578.77,-382.528 1568.81,-373.543"/>
<polygon fill="midnightblue" stroke="midnightblue" points="1570.95,-370.756 1561.18,-366.652 1566.26,-375.952 1570.95,-370.756"/>
</g>
<!-- Node3 -->
<g id="node3" class="node"><title>Node3</title>
<g id="a_node3"><a xlink:href="_game_timer_8hpp.html" target="_top" xlink:title="../mt/GameTimer.hpp">
<polygon fill="none" stroke="black" points="2096.1,-112.5 2096.1,-131.5 2205.1,-131.5 2205.1,-112.5 2096.1,-112.5"/>
<text text-anchor="middle" x="2150.6" y="-119.5" font-family="Helvetica,sans-Serif" font-size="10.00">../mt/GameTimer.hpp</text>
</a>
</g>
</g>
<!-- Node2&#45;&gt;Node3 -->
<g id="edge2" class="edge"><title>Node2&#45;&gt;Node3</title>
<path fill="none" stroke="midnightblue" d="M1713.29,-347.431C1781.77,-312.287 2041.41,-179.038 2124.71,-136.288"/>
<polygon fill="midnightblue" stroke="midnightblue" points="2126.45,-139.327 2133.75,-131.647 2123.25,-133.099 2126.45,-139.327"/>
</g>
<!-- Node6 -->
<g id="node6" class="node"><title>Node6</title>
<g id="a_node6"><a xlink:href="_direct_x_renderer_8hpp.html" target="_top" xlink:title="../mt/DirectXRenderer.hpp">
<polygon fill="none" stroke="black" points="1244.6,-286 1244.6,-305 1372.6,-305 1372.6,-286 1244.6,-286"/>
<text text-anchor="middle" x="1308.6" y="-293" font-family="Helvetica,sans-Serif" font-size="10.00">../mt/DirectXRenderer.hpp</text>
</a>
</g>
</g>
<!-- Node2&#45;&gt;Node6 -->
<g id="edge5" class="edge"><title>Node2&#45;&gt;Node6</title>
<path fill="none" stroke="midnightblue" d="M1652.94,-348.52C1649.78,-347.999 1646.64,-347.487 1643.6,-347 1551.62,-332.26 1445.24,-316.43 1377.47,-306.501"/>
<polygon fill="midnightblue" stroke="midnightblue" points="1377.75,-303.004 1367.35,-305.019 1376.74,-309.93 1377.75,-303.004"/>
</g>
<!-- Node46 -->
<g id="node46" class="node"><title>Node46</title>
<g id="a_node46"><a xlink:href="_windows_message_handling_service_8hpp.html" target="_top" xlink:title="../mt/WindowsMessageHandling\lService.hpp">
<polygon fill="none" stroke="black" points="1580.1,-280.5 1580.1,-310.5 1737.1,-310.5 1737.1,-280.5 1580.1,-280.5"/>
<text text-anchor="start" x="1588.1" y="-298.5" font-family="Helvetica,sans-Serif" font-size="10.00">../mt/WindowsMessageHandling</text>
<text text-anchor="middle" x="1658.6" y="-287.5" font-family="Helvetica,sans-Serif" font-size="10.00">Service.hpp</text>
</a>
</g>
</g>
<!-- Node2&#45;&gt;Node46 -->
<g id="edge59" class="edge"><title>Node2&#45;&gt;Node46</title>
<path fill="none" stroke="midnightblue" d="M1691.15,-347.475C1686.44,-340.094 1679.4,-329.077 1673.08,-319.171"/>
<polygon fill="midnightblue" stroke="midnightblue" points="1675.89,-317.067 1667.55,-310.523 1669.99,-320.835 1675.89,-317.067"/>
</g>
<!-- Node49 -->
<g id="node49" class="node"><title>Node49</title>
<g id="a_node49"><a xlink:href="_command_queue_8hpp.html" target="_top" xlink:title="../mt/CommandQueue.hpp">
<polygon fill="none" stroke="black" points="1699.1,-168.5 1699.1,-187.5 1830.1,-187.5 1830.1,-168.5 1699.1,-168.5"/>
<text text-anchor="middle" x="1764.6" y="-175.5" font-family="Helvetica,sans-Serif" font-size="10.00">../mt/CommandQueue.hpp</text>
</a>
</g>
</g>
<!-- Node2&#45;&gt;Node49 -->
<g id="edge64" class="edge"><title>Node2&#45;&gt;Node49</title>
<path fill="none" stroke="midnightblue" d="M1710.23,-347.442C1721.67,-339.481 1737.41,-326.528 1745.6,-311 1764.89,-274.432 1766.51,-224.651 1765.73,-197.884"/>
<polygon fill="midnightblue" stroke="midnightblue" points="1769.21,-197.465 1765.27,-187.631 1762.22,-197.777 1769.21,-197.465"/>
</g>
<!-- Node4 -->
<g id="node4" class="node"><title>Node4</title>
<polygon fill="none" stroke="#bfbfbf" points="2127.6,-56.5 2127.6,-75.5 2173.6,-75.5 2173.6,-56.5 2127.6,-56.5"/>
<text text-anchor="middle" x="2150.6" y="-63.5" font-family="Helvetica,sans-Serif" font-size="10.00">chrono</text>
</g>
<!-- Node3&#45;&gt;Node4 -->
<g id="edge3" class="edge"><title>Node3&#45;&gt;Node4</title>
<path fill="none" stroke="midnightblue" d="M2150.6,-112.083C2150.6,-105.006 2150.6,-94.8611 2150.6,-85.9865"/>
<polygon fill="midnightblue" stroke="midnightblue" points="2154.1,-85.751 2150.6,-75.7511 2147.1,-85.7511 2154.1,-85.751"/>
</g>
<!-- Node5 -->
<g id="node5" class="node"><title>Node5</title>
<polygon fill="none" stroke="#bfbfbf" points="2192.1,-56.5 2192.1,-75.5 2235.1,-75.5 2235.1,-56.5 2192.1,-56.5"/>
<text text-anchor="middle" x="2213.6" y="-63.5" font-family="Helvetica,sans-Serif" font-size="10.00">queue</text>
</g>
<!-- Node3&#45;&gt;Node5 -->
<g id="edge4" class="edge"><title>Node3&#45;&gt;Node5</title>
<path fill="none" stroke="midnightblue" d="M2160.72,-112.324C2170.12,-104.263 2184.34,-92.0765 2195.67,-82.3695"/>
<polygon fill="midnightblue" stroke="midnightblue" points="2197.98,-84.9993 2203.29,-75.8339 2193.42,-79.6844 2197.98,-84.9993"/>
</g>
<!-- Node7 -->
<g id="node7" class="node"><title>Node7</title>
<g id="a_node7"><a xlink:href="d3d_util_8h.html" target="_top" xlink:title="../mt/d3dUtil.h">
<polygon fill="none" stroke="black" points="980.598,-168.5 980.598,-187.5 1058.6,-187.5 1058.6,-168.5 980.598,-168.5"/>
<text text-anchor="middle" x="1019.6" y="-175.5" font-family="Helvetica,sans-Serif" font-size="10.00">../mt/d3dUtil.h</text>
</a>
</g>
</g>
<!-- Node6&#45;&gt;Node7 -->
<g id="edge6" class="edge"><title>Node6&#45;&gt;Node7</title>
<path fill="none" stroke="midnightblue" d="M1244.52,-294.053C1192.19,-290.846 1118.35,-279.575 1064.6,-244 1047.3,-232.552 1034.74,-211.968 1027.36,-197.025"/>
<polygon fill="midnightblue" stroke="midnightblue" points="1030.45,-195.37 1023.08,-187.762 1024.1,-198.307 1030.45,-195.37"/>
</g>
<!-- Node18 -->
<g id="node18" class="node"><title>Node18</title>
<polygon fill="none" stroke="#bfbfbf" points="1328.1,-56.5 1328.1,-75.5 1369.1,-75.5 1369.1,-56.5 1328.1,-56.5"/>
<text text-anchor="middle" x="1348.6" y="-63.5" font-family="Helvetica,sans-Serif" font-size="10.00">string</text>
</g>
<!-- Node6&#45;&gt;Node18 -->
<g id="edge58" class="edge"><title>Node6&#45;&gt;Node18</title>
<path fill="none" stroke="midnightblue" d="M1321.37,-285.948C1333.89,-276.929 1352.63,-261.603 1363.6,-244 1391.04,-199.958 1389.19,-183.362 1396.6,-132 1397.87,-123.202 1400.13,-120.156 1396.6,-112 1391.33,-99.8399 1380.98,-89.4594 1371.23,-81.7429"/>
<polygon fill="midnightblue" stroke="midnightblue" points="1373.1,-78.7707 1362.97,-75.6698 1368.95,-84.4116 1373.1,-78.7707"/>
</g>
<!-- Node44 -->
<g id="node44" class="node"><title>Node44</title>
<g id="a_node44"><a xlink:href="_upload_buffer_8h.html" target="_top" xlink:title="../mt/UploadBuffer.h">
<polygon fill="none" stroke="black" points="1074.1,-224.5 1074.1,-243.5 1177.1,-243.5 1177.1,-224.5 1074.1,-224.5"/>
<text text-anchor="middle" x="1125.6" y="-231.5" font-family="Helvetica,sans-Serif" font-size="10.00">../mt/UploadBuffer.h</text>
</a>
</g>
</g>
<!-- Node6&#45;&gt;Node44 -->
<g id="edge53" class="edge"><title>Node6&#45;&gt;Node44</title>
<path fill="none" stroke="midnightblue" d="M1282.38,-285.975C1250.58,-275.636 1196.83,-258.161 1161.28,-246.602"/>
<polygon fill="midnightblue" stroke="midnightblue" points="1162.36,-243.273 1151.77,-243.509 1160.2,-249.93 1162.36,-243.273"/>
</g>
<!-- Node45 -->
<g id="node45" class="node"><title>Node45</title>
<g id="a_node45"><a xlink:href="_camera_8hpp.html" target="_top" xlink:title="../mt/Camera.hpp">
<polygon fill="none" stroke="black" points="1262.6,-224.5 1262.6,-243.5 1354.6,-243.5 1354.6,-224.5 1262.6,-224.5"/>
<text text-anchor="middle" x="1308.6" y="-231.5" font-family="Helvetica,sans-Serif" font-size="10.00">../mt/Camera.hpp</text>
</a>
</g>
</g>
<!-- Node6&#45;&gt;Node45 -->
<g id="edge55" class="edge"><title>Node6&#45;&gt;Node45</title>
<path fill="none" stroke="midnightblue" d="M1308.6,-285.975C1308.6,-277.58 1308.6,-264.481 1308.6,-253.663"/>
<polygon fill="midnightblue" stroke="midnightblue" points="1312.1,-253.509 1308.6,-243.509 1305.1,-253.509 1312.1,-253.509"/>
</g>
<!-- Node8 -->
<g id="node8" class="node"><title>Node8</title>
<g id="a_node8"><a xlink:href="utility_8hpp.html" target="_top" xlink:title="../mt/utility.hpp">
<polygon fill="none" stroke="black" points="1663.6,-112.5 1663.6,-131.5 1745.6,-131.5 1745.6,-112.5 1663.6,-112.5"/>
<text text-anchor="middle" x="1704.6" y="-119.5" font-family="Helvetica,sans-Serif" font-size="10.00">../mt/utility.hpp</text>
</a>
</g>
</g>
<!-- Node7&#45;&gt;Node8 -->
<g id="edge7" class="edge"><title>Node7&#45;&gt;Node8</title>
<path fill="none" stroke="midnightblue" d="M1058.64,-173.922C1175.32,-164.724 1521.48,-137.435 1653.06,-127.063"/>
<polygon fill="midnightblue" stroke="midnightblue" points="1653.58,-130.533 1663.27,-126.258 1653.03,-123.555 1653.58,-130.533"/>
</g>
<!-- Node9 -->
<g id="node9" class="node"><title>Node9</title>
<polygon fill="none" stroke="#bfbfbf" points="1387.6,-56.5 1387.6,-75.5 1443.6,-75.5 1443.6,-56.5 1387.6,-56.5"/>
<text text-anchor="middle" x="1415.6" y="-63.5" font-family="Helvetica,sans-Serif" font-size="10.00">algorithm</text>
</g>
<!-- Node7&#45;&gt;Node9 -->
<g id="edge37" class="edge"><title>Node7&#45;&gt;Node9</title>
<path fill="none" stroke="midnightblue" d="M1058.6,-177.597C1144.49,-178.101 1346.29,-174.596 1396.6,-132 1409.9,-120.739 1414.17,-100.729 1415.4,-85.8753"/>
<polygon fill="midnightblue" stroke="midnightblue" points="1418.9,-85.8992 1415.86,-75.7523 1411.91,-85.5853 1418.9,-85.8992"/>
</g>
<!-- Node7&#45;&gt;Node18 -->
<g id="edge35" class="edge"><title>Node7&#45;&gt;Node18</title>
<path fill="none" stroke="midnightblue" d="M1058.64,-174.58C1106.66,-170.488 1189.88,-159.723 1255.6,-132 1284.76,-119.696 1313.96,-97.225 1331.66,-82.2005"/>
<polygon fill="midnightblue" stroke="midnightblue" points="1334.11,-84.7009 1339.37,-75.5002 1329.52,-79.4166 1334.11,-84.7009"/>
</g>
<!-- Node22 -->
<g id="node22" class="node"><title>Node22</title>
<g id="a_node22"><a xlink:href="_math_helper_8h.html" target="_top" xlink:title="../mt/MathHelper.h">
<polygon fill="none" stroke="red" points="1173.6,-56.5 1173.6,-75.5 1271.6,-75.5 1271.6,-56.5 1173.6,-56.5"/>
<text text-anchor="middle" x="1222.6" y="-63.5" font-family="Helvetica,sans-Serif" font-size="10.00">../mt/MathHelper.h</text>
</a>
</g>
</g>
<!-- Node7&#45;&gt;Node22 -->
<g id="edge52" class="edge"><title>Node7&#45;&gt;Node22</title>
<path fill="none" stroke="midnightblue" d="M1058.8,-173.689C1093.42,-169.083 1143.81,-158.104 1179.6,-132 1196.12,-119.949 1208.12,-99.4741 1215.18,-84.7209"/>
<polygon fill="midnightblue" stroke="midnightblue" points="1218.37,-86.1517 1219.27,-75.5951 1211.99,-83.2869 1218.37,-86.1517"/>
</g>
<!-- Node23 -->
<g id="node23" class="node"><title>Node23</title>
<polygon fill="none" stroke="#bfbfbf" points="1242.1,-0.5 1242.1,-19.5 1319.1,-19.5 1319.1,-0.5 1242.1,-0.5"/>
<text text-anchor="middle" x="1280.6" y="-7.5" font-family="Helvetica,sans-Serif" font-size="10.00">DirectXMath.h</text>
</g>
<!-- Node7&#45;&gt;Node23 -->
<g id="edge31" class="edge"><title>Node7&#45;&gt;Node23</title>
<path fill="none" stroke="midnightblue" d="M1058.76,-171.935C1097.05,-165.957 1156.31,-153.934 1203.6,-132 1241.98,-114.194 1261.4,-113.708 1280.6,-76 1287.88,-61.7016 1287.07,-43.2345 1284.92,-29.6404"/>
<polygon fill="midnightblue" stroke="midnightblue" points="1288.3,-28.7027 1282.93,-19.566 1281.43,-30.0534 1288.3,-28.7027"/>
</g>
<!-- Node24 -->
<g id="node24" class="node"><title>Node24</title>
<polygon fill="none" stroke="#bfbfbf" points="1140.6,-0.5 1140.6,-19.5 1186.6,-19.5 1186.6,-0.5 1140.6,-0.5"/>
<text text-anchor="middle" x="1163.6" y="-7.5" font-family="Helvetica,sans-Serif" font-size="10.00">cstdint</text>
</g>
<!-- Node7&#45;&gt;Node24 -->
<g id="edge41" class="edge"><title>Node7&#45;&gt;Node24</title>
<path fill="none" stroke="midnightblue" d="M1058.85,-168.436C1080.6,-161.832 1106.6,-150.582 1123.6,-132 1150.26,-102.846 1159.19,-55.4885 1162.15,-29.5092"/>
<polygon fill="midnightblue" stroke="midnightblue" points="1165.64,-29.7974 1163.11,-19.5085 1158.67,-29.128 1165.64,-29.7974"/>
</g>
<!-- Node25 -->
<g id="node25" class="node"><title>Node25</title>
<polygon fill="none" stroke="#bfbfbf" points="1481.6,-112.5 1481.6,-131.5 1543.6,-131.5 1543.6,-112.5 1481.6,-112.5"/>
<text text-anchor="middle" x="1512.6" y="-119.5" font-family="Helvetica,sans-Serif" font-size="10.00">windows.h</text>
</g>
<!-- Node7&#45;&gt;Node25 -->
<g id="edge26" class="edge"><title>Node7&#45;&gt;Node25</title>
<path fill="none" stroke="midnightblue" d="M1058.71,-174.358C1136.75,-168.802 1317.24,-154.533 1467.6,-132 1468.7,-131.835 1469.82,-131.661 1470.94,-131.479"/>
<polygon fill="midnightblue" stroke="midnightblue" points="1471.95,-134.857 1481.2,-129.686 1470.74,-127.961 1471.95,-134.857"/>
</g>
<!-- Node26 -->
<g id="node26" class="node"><title>Node26</title>
<polygon fill="none" stroke="#bfbfbf" points="993.098,-56.5 993.098,-75.5 1030.1,-75.5 1030.1,-56.5 993.098,-56.5"/>
<text text-anchor="middle" x="1011.6" y="-63.5" font-family="Helvetica,sans-Serif" font-size="10.00">wrl.h</text>
</g>
<!-- Node7&#45;&gt;Node26 -->
<g id="edge27" class="edge"><title>Node7&#45;&gt;Node26</title>
<path fill="none" stroke="midnightblue" d="M1018.97,-168.368C1017.68,-150.617 1014.7,-109.666 1012.95,-85.5974"/>
<polygon fill="midnightblue" stroke="midnightblue" points="1016.44,-85.3112 1012.22,-75.5914 1009.46,-85.819 1016.44,-85.3112"/>
</g>
<!-- Node27 -->
<g id="node27" class="node"><title>Node27</title>
<polygon fill="none" stroke="#bfbfbf" points="1040.1,-112.5 1040.1,-131.5 1099.1,-131.5 1099.1,-112.5 1040.1,-112.5"/>
<text text-anchor="middle" x="1069.6" y="-119.5" font-family="Helvetica,sans-Serif" font-size="10.00">dxgi1_4.h</text>
</g>
<!-- Node7&#45;&gt;Node27 -->
<g id="edge28" class="edge"><title>Node7&#45;&gt;Node27</title>
<path fill="none" stroke="midnightblue" d="M1027.85,-168.083C1035.06,-160.298 1045.71,-148.801 1054.44,-139.367"/>
<polygon fill="midnightblue" stroke="midnightblue" points="1057.27,-141.467 1061.5,-131.751 1052.13,-136.711 1057.27,-141.467"/>
</g>
<!-- Node28 -->
<g id="node28" class="node"><title>Node28</title>
<polygon fill="none" stroke="#bfbfbf" points="926.098,-0.5 926.098,-19.5 977.098,-19.5 977.098,-0.5 926.098,-0.5"/>
<text text-anchor="middle" x="951.598" y="-7.5" font-family="Helvetica,sans-Serif" font-size="10.00">d3d12.h</text>
</g>
<!-- Node7&#45;&gt;Node28 -->
<g id="edge29" class="edge"><title>Node7&#45;&gt;Node28</title>
<path fill="none" stroke="midnightblue" d="M1051.55,-168.473C1081.84,-158.545 1120.87,-139.865 1107.6,-112 1084.48,-63.4683 1025.38,-35.327 986.92,-21.5916"/>
<polygon fill="midnightblue" stroke="midnightblue" points="987.74,-18.1731 977.145,-18.2502 985.476,-24.7968 987.74,-18.1731"/>
</g>
<!-- Node29 -->
<g id="node29" class="node"><title>Node29</title>
<polygon fill="none" stroke="#bfbfbf" points="1307.6,-112.5 1307.6,-131.5 1387.6,-131.5 1387.6,-112.5 1307.6,-112.5"/>
<text text-anchor="middle" x="1347.6" y="-119.5" font-family="Helvetica,sans-Serif" font-size="10.00">D3Dcompiler.h</text>
</g>
<!-- Node7&#45;&gt;Node29 -->
<g id="edge30" class="edge"><title>Node7&#45;&gt;Node29</title>
<path fill="none" stroke="midnightblue" d="M1058.62,-170.62C1111.77,-161.925 1209.89,-145.849 1293.6,-132 1294.86,-131.791 1296.15,-131.578 1297.44,-131.364"/>
<polygon fill="midnightblue" stroke="midnightblue" points="1298.2,-134.785 1307.5,-129.695 1297.06,-127.88 1298.2,-134.785"/>
</g>
<!-- Node30 -->
<g id="node30" class="node"><title>Node30</title>
<polygon fill="none" stroke="#bfbfbf" points="14.0979,-112.5 14.0979,-131.5 131.098,-131.5 131.098,-112.5 14.0979,-112.5"/>
<text text-anchor="middle" x="72.5979" y="-119.5" font-family="Helvetica,sans-Serif" font-size="10.00">DirectXPackedVector.h</text>
</g>
<!-- Node7&#45;&gt;Node30 -->
<g id="edge32" class="edge"><title>Node7&#45;&gt;Node30</title>
<path fill="none" stroke="midnightblue" d="M980.482,-176.15C858.141,-173.246 471.707,-162.23 141.633,-132.119"/>
<polygon fill="midnightblue" stroke="midnightblue" points="141.671,-128.608 131.393,-131.177 141.03,-135.578 141.671,-128.608"/>
</g>
<!-- Node31 -->
<g id="node31" class="node"><title>Node31</title>
<polygon fill="none" stroke="#bfbfbf" points="149.098,-112.5 149.098,-131.5 232.098,-131.5 232.098,-112.5 149.098,-112.5"/>
<text text-anchor="middle" x="190.598" y="-119.5" font-family="Helvetica,sans-Serif" font-size="10.00">DirectXColors.h</text>
</g>
<!-- Node7&#45;&gt;Node31 -->
<g id="edge33" class="edge"><title>Node7&#45;&gt;Node31</title>
<path fill="none" stroke="midnightblue" d="M980.193,-176.347C867.066,-174.126 531.456,-165.123 242.545,-131.956"/>
<polygon fill="midnightblue" stroke="midnightblue" points="242.625,-128.442 232.288,-130.766 241.818,-135.395 242.625,-128.442"/>
</g>
<!-- Node32 -->
<g id="node32" class="node"><title>Node32</title>
<polygon fill="none" stroke="#bfbfbf" points="250.598,-112.5 250.598,-131.5 342.598,-131.5 342.598,-112.5 250.598,-112.5"/>
<text text-anchor="middle" x="296.598" y="-119.5" font-family="Helvetica,sans-Serif" font-size="10.00">DirectXCollision.h</text>
</g>
<!-- Node7&#45;&gt;Node32 -->
<g id="edge34" class="edge"><title>Node7&#45;&gt;Node32</title>
<path fill="none" stroke="midnightblue" d="M980.327,-175.658C878.472,-171.898 597.297,-159.75 352.908,-132.042"/>
<polygon fill="midnightblue" stroke="midnightblue" points="353.1,-128.542 342.767,-130.881 352.304,-135.496 353.1,-128.542"/>
</g>
<!-- Node33 -->
<g id="node33" class="node"><title>Node33</title>
<polygon fill="none" stroke="#bfbfbf" points="360.598,-112.5 360.598,-131.5 412.598,-131.5 412.598,-112.5 360.598,-112.5"/>
<text text-anchor="middle" x="386.598" y="-119.5" font-family="Helvetica,sans-Serif" font-size="10.00">memory</text>
</g>
<!-- Node7&#45;&gt;Node33 -->
<g id="edge36" class="edge"><title>Node7&#45;&gt;Node33</title>
<path fill="none" stroke="midnightblue" d="M980.486,-176.44C886.043,-174.58 638.048,-166.668 422.768,-131.907"/>
<polygon fill="midnightblue" stroke="midnightblue" points="423.299,-128.447 412.865,-130.285 422.168,-135.355 423.299,-128.447"/>
</g>
<!-- Node34 -->
<g id="node34" class="node"><title>Node34</title>
<polygon fill="none" stroke="#bfbfbf" points="430.598,-112.5 430.598,-131.5 472.598,-131.5 472.598,-112.5 430.598,-112.5"/>
<text text-anchor="middle" x="451.598" y="-119.5" font-family="Helvetica,sans-Serif" font-size="10.00">vector</text>
</g>
<!-- Node7&#45;&gt;Node34 -->
<g id="edge38" class="edge"><title>Node7&#45;&gt;Node34</title>
<path fill="none" stroke="midnightblue" d="M980.403,-176.504C892.631,-174.799 673.656,-167.242 482.702,-131.819"/>
<polygon fill="midnightblue" stroke="midnightblue" points="483.243,-128.359 472.768,-129.945 481.946,-135.238 483.243,-128.359"/>
</g>
<!-- Node35 -->
<g id="node35" class="node"><title>Node35</title>
<polygon fill="none" stroke="#bfbfbf" points="490.598,-112.5 490.598,-131.5 528.598,-131.5 528.598,-112.5 490.598,-112.5"/>
<text text-anchor="middle" x="509.598" y="-119.5" font-family="Helvetica,sans-Serif" font-size="10.00">array</text>
</g>
<!-- Node7&#45;&gt;Node35 -->
<g id="edge39" class="edge"><title>Node7&#45;&gt;Node35</title>
<path fill="none" stroke="midnightblue" d="M980.439,-176.225C899.366,-174.006 707.297,-165.555 538.532,-131.754"/>
<polygon fill="midnightblue" stroke="midnightblue" points="539.228,-128.324 528.731,-129.757 537.83,-135.183 539.228,-128.324"/>
</g>
<!-- Node36 -->
<g id="node36" class="node"><title>Node36</title>
<polygon fill="none" stroke="#bfbfbf" points="547.098,-112.5 547.098,-131.5 630.098,-131.5 630.098,-112.5 547.098,-112.5"/>
<text text-anchor="middle" x="588.598" y="-119.5" font-family="Helvetica,sans-Serif" font-size="10.00">unordered_map</text>
</g>
<!-- Node7&#45;&gt;Node36 -->
<g id="edge40" class="edge"><title>Node7&#45;&gt;Node36</title>
<path fill="none" stroke="midnightblue" d="M980.552,-173.177C913.194,-166.409 770.591,-151.333 640.453,-132.206"/>
<polygon fill="midnightblue" stroke="midnightblue" points="640.714,-128.706 630.309,-130.703 639.688,-135.631 640.714,-128.706"/>
</g>
<!-- Node37 -->
<g id="node37" class="node"><title>Node37</title>
<polygon fill="none" stroke="#bfbfbf" points="648.098,-112.5 648.098,-131.5 697.098,-131.5 697.098,-112.5 648.098,-112.5"/>
<text text-anchor="middle" x="672.598" y="-119.5" font-family="Helvetica,sans-Serif" font-size="10.00">fstream</text>
</g>
<!-- Node7&#45;&gt;Node37 -->
<g id="edge42" class="edge"><title>Node7&#45;&gt;Node37</title>
<path fill="none" stroke="midnightblue" d="M980.31,-172.834C922.621,-166.394 811.465,-152.759 707.444,-131.957"/>
<polygon fill="midnightblue" stroke="midnightblue" points="707.898,-128.478 697.402,-129.921 706.507,-135.338 707.898,-128.478"/>
</g>
<!-- Node38 -->
<g id="node38" class="node"><title>Node38</title>
<polygon fill="none" stroke="#bfbfbf" points="715.598,-112.5 715.598,-131.5 767.598,-131.5 767.598,-112.5 715.598,-112.5"/>
<text text-anchor="middle" x="741.598" y="-119.5" font-family="Helvetica,sans-Serif" font-size="10.00">sstream</text>
</g>
<!-- Node7&#45;&gt;Node38 -->
<g id="edge43" class="edge"><title>Node7&#45;&gt;Node38</title>
<path fill="none" stroke="midnightblue" d="M980.29,-170.574C934.077,-162.832 854.865,-148.975 777.799,-132.151"/>
<polygon fill="midnightblue" stroke="midnightblue" points="778.444,-128.709 767.925,-129.976 776.938,-135.545 778.444,-128.709"/>
</g>
<!-- Node39 -->
<g id="node39" class="node"><title>Node39</title>
<polygon fill="none" stroke="#bfbfbf" points="786.098,-112.5 786.098,-131.5 835.098,-131.5 835.098,-112.5 786.098,-112.5"/>
<text text-anchor="middle" x="810.598" y="-119.5" font-family="Helvetica,sans-Serif" font-size="10.00">cassert</text>
</g>
<!-- Node7&#45;&gt;Node39 -->
<g id="edge44" class="edge"><title>Node7&#45;&gt;Node39</title>
<path fill="none" stroke="midnightblue" d="M986.031,-168.444C952.785,-159.952 900.161,-146.468 845.055,-132.105"/>
<polygon fill="midnightblue" stroke="midnightblue" points="845.666,-128.648 835.106,-129.51 843.899,-135.421 845.666,-128.648"/>
</g>
<!-- Node40 -->
<g id="node40" class="node"><title>Node40</title>
<g id="a_node40"><a xlink:href="d3dx12_8h.html" target="_top" xlink:title="../mt/d3dx12.h">
<polygon fill="none" stroke="black" points="747.598,-56.5 747.598,-75.5 827.598,-75.5 827.598,-56.5 747.598,-56.5"/>
<text text-anchor="middle" x="787.598" y="-63.5" font-family="Helvetica,sans-Serif" font-size="10.00">../mt/d3dx12.h</text>
</a>
</g>
</g>
<!-- Node7&#45;&gt;Node40 -->
<g id="edge45" class="edge"><title>Node7&#45;&gt;Node40</title>
<path fill="none" stroke="midnightblue" d="M980.365,-176.759C797.809,-175.452 38.9103,-167.867 4.59791,-132 -1.54671,-125.577 -1.5045,-118.463 4.59791,-112 29.8058,-85.3018 568.58,-71.6441 737.447,-68.0082"/>
<polygon fill="midnightblue" stroke="midnightblue" points="737.636,-71.505 747.559,-67.7929 737.487,-64.5066 737.636,-71.505"/>
</g>
<!-- Node41 -->
<g id="node41" class="node"><title>Node41</title>
<g id="a_node41"><a xlink:href="_d_d_s_texture_loader_8h.html" target="_top" xlink:title="../mt/DDSTextureLoader.h">
<polygon fill="none" stroke="black" points="853.598,-112.5 853.598,-131.5 983.598,-131.5 983.598,-112.5 853.598,-112.5"/>
<text text-anchor="middle" x="918.598" y="-119.5" font-family="Helvetica,sans-Serif" font-size="10.00">../mt/DDSTextureLoader.h</text>
</a>
</g>
</g>
<!-- Node7&#45;&gt;Node41 -->
<g id="edge47" class="edge"><title>Node7&#45;&gt;Node41</title>
<path fill="none" stroke="midnightblue" d="M1003.37,-168.324C987.247,-159.703 962.298,-146.364 943.634,-136.386"/>
<polygon fill="midnightblue" stroke="midnightblue" points="945.254,-133.283 934.785,-131.655 941.953,-139.456 945.254,-133.283"/>
</g>
<!-- Node8&#45;&gt;Node4 -->
<g id="edge9" class="edge"><title>Node8&#45;&gt;Node4</title>
<path fill="none" stroke="midnightblue" d="M1745.65,-118.678C1818.5,-114.094 1975.21,-102.141 2117.08,-75.7751"/>
<polygon fill="midnightblue" stroke="midnightblue" points="2118.09,-79.1462 2127.27,-73.8517 2116.79,-72.2677 2118.09,-79.1462"/>
</g>
<!-- Node8&#45;&gt;Node5 -->
<g id="edge16" class="edge"><title>Node8&#45;&gt;Node5</title>
<path fill="none" stroke="midnightblue" d="M1745.89,-119.733C1827.54,-116.664 2015.4,-106.807 2182.11,-75.7053"/>
<polygon fill="midnightblue" stroke="midnightblue" points="2182.87,-79.123 2192.04,-73.8213 2181.57,-72.2455 2182.87,-79.123"/>
</g>
<!-- Node8&#45;&gt;Node9 -->
<g id="edge8" class="edge"><title>Node8&#45;&gt;Node9</title>
<path fill="none" stroke="midnightblue" d="M1663.42,-114.45C1615.45,-106.643 1533.59,-92.7739 1454.03,-76.201"/>
<polygon fill="midnightblue" stroke="midnightblue" points="1454.34,-72.6905 1443.84,-74.06 1452.91,-79.541 1454.34,-72.6905"/>
</g>
<!-- Node10 -->
<g id="node10" class="node"><title>Node10</title>
<polygon fill="none" stroke="#bfbfbf" points="1997.6,-56.5 1997.6,-75.5 2041.6,-75.5 2041.6,-56.5 1997.6,-56.5"/>
<text text-anchor="middle" x="2019.6" y="-63.5" font-family="Helvetica,sans-Serif" font-size="10.00">cmath</text>
</g>
<!-- Node8&#45;&gt;Node10 -->
<g id="edge10" class="edge"><title>Node8&#45;&gt;Node10</title>
<path fill="none" stroke="midnightblue" d="M1745.82,-116.117C1799.4,-109.409 1896,-96.0861 1987.37,-76.0438"/>
<polygon fill="midnightblue" stroke="midnightblue" points="1988.33,-79.415 1997.33,-73.8261 1986.81,-72.5822 1988.33,-79.415"/>
</g>
<!-- Node11 -->
<g id="node11" class="node"><title>Node11</title>
<polygon fill="none" stroke="#bfbfbf" points="2060.1,-56.5 2060.1,-75.5 2109.1,-75.5 2109.1,-56.5 2060.1,-56.5"/>
<text text-anchor="middle" x="2084.6" y="-63.5" font-family="Helvetica,sans-Serif" font-size="10.00">cstdarg</text>
</g>
<!-- Node8&#45;&gt;Node11 -->
<g id="edge11" class="edge"><title>Node8&#45;&gt;Node11</title>
<path fill="none" stroke="midnightblue" d="M1745.62,-117.399C1808.85,-111.472 1934.03,-98.2415 2049.71,-75.9341"/>
<polygon fill="midnightblue" stroke="midnightblue" points="2050.66,-79.3153 2059.8,-73.9605 2049.32,-72.4455 2050.66,-79.3153"/>
</g>
<!-- Node12 -->
<g id="node12" class="node"><title>Node12</title>
<polygon fill="none" stroke="#bfbfbf" points="1462.1,-56.5 1462.1,-75.5 1505.1,-75.5 1505.1,-56.5 1462.1,-56.5"/>
<text text-anchor="middle" x="1483.6" y="-63.5" font-family="Helvetica,sans-Serif" font-size="10.00">deque</text>
</g>
<!-- Node8&#45;&gt;Node12 -->
<g id="edge12" class="edge"><title>Node8&#45;&gt;Node12</title>
<path fill="none" stroke="midnightblue" d="M1665.28,-112.463C1628.67,-104.35 1572.34,-91.4627 1515.12,-76.2988"/>
<polygon fill="midnightblue" stroke="midnightblue" points="1515.75,-72.8439 1505.18,-73.6447 1513.94,-79.6068 1515.75,-72.8439"/>
</g>
<!-- Node13 -->
<g id="node13" class="node"><title>Node13</title>
<polygon fill="none" stroke="#bfbfbf" points="1523.1,-56.5 1523.1,-75.5 1584.1,-75.5 1584.1,-56.5 1523.1,-56.5"/>
<text text-anchor="middle" x="1553.6" y="-63.5" font-family="Helvetica,sans-Serif" font-size="10.00">filesystem</text>
</g>
<!-- Node8&#45;&gt;Node13 -->
<g id="edge13" class="edge"><title>Node8&#45;&gt;Node13</title>
<path fill="none" stroke="midnightblue" d="M1680.67,-112.444C1655.38,-103.399 1615.3,-89.064 1586.92,-78.9158"/>
<polygon fill="midnightblue" stroke="midnightblue" points="1588.01,-75.5882 1577.41,-75.5164 1585.65,-82.1794 1588.01,-75.5882"/>
</g>
<!-- Node14 -->
<g id="node14" class="node"><title>Node14</title>
<polygon fill="none" stroke="#bfbfbf" points="1602.1,-56.5 1602.1,-75.5 1631.1,-75.5 1631.1,-56.5 1602.1,-56.5"/>
<text text-anchor="middle" x="1616.6" y="-63.5" font-family="Helvetica,sans-Serif" font-size="10.00">list</text>
</g>
<!-- Node8&#45;&gt;Node14 -->
<g id="edge14" class="edge"><title>Node8&#45;&gt;Node14</title>
<path fill="none" stroke="midnightblue" d="M1690.46,-112.324C1676.73,-103.9 1655.66,-90.9709 1639.53,-81.0741"/>
<polygon fill="midnightblue" stroke="midnightblue" points="1641.06,-77.9016 1630.7,-75.6545 1637.39,-83.8678 1641.06,-77.9016"/>
</g>
<!-- Node15 -->
<g id="node15" class="node"><title>Node15</title>
<polygon fill="none" stroke="#bfbfbf" points="1649.1,-56.5 1649.1,-75.5 1684.1,-75.5 1684.1,-56.5 1649.1,-56.5"/>
<text text-anchor="middle" x="1666.6" y="-63.5" font-family="Helvetica,sans-Serif" font-size="10.00">map</text>
</g>
<!-- Node8&#45;&gt;Node15 -->
<g id="edge15" class="edge"><title>Node8&#45;&gt;Node15</title>
<path fill="none" stroke="midnightblue" d="M1698.32,-112.083C1692.96,-104.455 1685.08,-93.2645 1678.52,-83.9408"/>
<polygon fill="midnightblue" stroke="midnightblue" points="1681.37,-81.9149 1672.76,-75.7511 1675.65,-85.9434 1681.37,-81.9149"/>
</g>
<!-- Node16 -->
<g id="node16" class="node"><title>Node16</title>
<polygon fill="none" stroke="#bfbfbf" points="1702.1,-56.5 1702.1,-75.5 1737.1,-75.5 1737.1,-56.5 1702.1,-56.5"/>
<text text-anchor="middle" x="1719.6" y="-63.5" font-family="Helvetica,sans-Serif" font-size="10.00">ratio</text>
</g>
<!-- Node8&#45;&gt;Node16 -->
<g id="edge17" class="edge"><title>Node8&#45;&gt;Node16</title>
<path fill="none" stroke="midnightblue" d="M1707.07,-112.083C1709.08,-104.849 1711.98,-94.4087 1714.49,-85.3968"/>
<polygon fill="midnightblue" stroke="midnightblue" points="1717.86,-86.323 1717.17,-75.7511 1711.12,-84.4495 1717.86,-86.323"/>
</g>
<!-- Node17 -->
<g id="node17" class="node"><title>Node17</title>
<polygon fill="none" stroke="#bfbfbf" points="1755.6,-56.5 1755.6,-75.5 1785.6,-75.5 1785.6,-56.5 1755.6,-56.5"/>
<text text-anchor="middle" x="1770.6" y="-63.5" font-family="Helvetica,sans-Serif" font-size="10.00">set</text>
</g>
<!-- Node8&#45;&gt;Node17 -->
<g id="edge18" class="edge"><title>Node8&#45;&gt;Node17</title>
<path fill="none" stroke="midnightblue" d="M1715.2,-112.324C1725.05,-104.263 1739.95,-92.0765 1751.81,-82.3695"/>
<polygon fill="midnightblue" stroke="midnightblue" points="1754.28,-84.8752 1759.8,-75.8339 1749.84,-79.4575 1754.28,-84.8752"/>
</g>
<!-- Node8&#45;&gt;Node18 -->
<g id="edge19" class="edge"><title>Node8&#45;&gt;Node18</title>
<path fill="none" stroke="midnightblue" d="M1663.58,-117.388C1603.32,-111.635 1487.23,-98.8587 1379.23,-75.8086"/>
<polygon fill="midnightblue" stroke="midnightblue" points="1379.66,-72.3197 1369.15,-73.6197 1378.18,-79.1605 1379.66,-72.3197"/>
</g>
<!-- Node19 -->
<g id="node19" class="node"><title>Node19</title>
<polygon fill="none" stroke="#bfbfbf" points="1803.6,-56.5 1803.6,-75.5 1865.6,-75.5 1865.6,-56.5 1803.6,-56.5"/>
<text text-anchor="middle" x="1834.6" y="-63.5" font-family="Helvetica,sans-Serif" font-size="10.00">type_traits</text>
</g>
<!-- Node8&#45;&gt;Node19 -->
<g id="edge20" class="edge"><title>Node8&#45;&gt;Node19</title>
<path fill="none" stroke="midnightblue" d="M1725.2,-112.444C1746.59,-103.557 1780.28,-89.5632 1804.62,-79.4514"/>
<polygon fill="midnightblue" stroke="midnightblue" points="1806.2,-82.5848 1814.1,-75.5164 1803.52,-76.1203 1806.2,-82.5848"/>
</g>
<!-- Node20 -->
<g id="node20" class="node"><title>Node20</title>
<polygon fill="none" stroke="#bfbfbf" points="1883.6,-56.5 1883.6,-75.5 1921.6,-75.5 1921.6,-56.5 1883.6,-56.5"/>
<text text-anchor="middle" x="1902.6" y="-63.5" font-family="Helvetica,sans-Serif" font-size="10.00">tuple</text>
</g>
<!-- Node8&#45;&gt;Node20 -->
<g id="edge21" class="edge"><title>Node8&#45;&gt;Node20</title>
<path fill="none" stroke="midnightblue" d="M1738.93,-112.472C1771.36,-104.295 1821.55,-91.3196 1873.62,-76.1809"/>
<polygon fill="midnightblue" stroke="midnightblue" points="1874.74,-79.4981 1883.36,-73.3297 1872.78,-72.78 1874.74,-79.4981"/>
</g>
<!-- Node21 -->
<g id="node21" class="node"><title>Node21</title>
<polygon fill="none" stroke="#bfbfbf" points="1939.6,-56.5 1939.6,-75.5 1979.6,-75.5 1979.6,-56.5 1939.6,-56.5"/>
<text text-anchor="middle" x="1959.6" y="-63.5" font-family="Helvetica,sans-Serif" font-size="10.00">utility</text>
</g>
<!-- Node8&#45;&gt;Node21 -->
<g id="edge22" class="edge"><title>Node8&#45;&gt;Node21</title>
<path fill="none" stroke="midnightblue" d="M1745.71,-114.144C1789.18,-106.602 1859.91,-93.4954 1929.57,-76.0552"/>
<polygon fill="midnightblue" stroke="midnightblue" points="1930.56,-79.4158 1939.39,-73.5657 1928.84,-72.6304 1930.56,-79.4158"/>
</g>
<!-- Node8&#45;&gt;Node22 -->
<g id="edge23" class="edge"><title>Node8&#45;&gt;Node22</title>
<path fill="none" stroke="midnightblue" d="M1663.5,-116.396C1578.08,-106.826 1381.06,-84.7534 1281.9,-73.6433"/>
<polygon fill="midnightblue" stroke="midnightblue" points="1282.07,-70.1412 1271.74,-72.5059 1281.29,-77.0976 1282.07,-70.1412"/>
</g>
<!-- Node22&#45;&gt;Node23 -->
<g id="edge24" class="edge"><title>Node22&#45;&gt;Node23</title>
<path fill="none" stroke="midnightblue" d="M1231.92,-56.324C1240.49,-48.3414 1253.41,-36.3128 1263.79,-26.6529"/>
<polygon fill="midnightblue" stroke="midnightblue" points="1266.18,-29.2098 1271.11,-19.8339 1261.41,-24.0865 1266.18,-29.2098"/>
</g>
<!-- Node22&#45;&gt;Node24 -->
<g id="edge25" class="edge"><title>Node22&#45;&gt;Node24</title>
<path fill="none" stroke="midnightblue" d="M1213.12,-56.324C1204.4,-48.3414 1191.25,-36.3128 1180.7,-26.6529"/>
<polygon fill="midnightblue" stroke="midnightblue" points="1182.99,-24.0036 1173.25,-19.8339 1178.26,-29.1674 1182.99,-24.0036"/>
</g>
<!-- Node40&#45;&gt;Node28 -->
<g id="edge46" class="edge"><title>Node40&#45;&gt;Node28</title>
<path fill="none" stroke="midnightblue" d="M813.584,-56.4435C841.375,-47.2928 885.61,-32.7279 916.486,-22.5614"/>
<polygon fill="midnightblue" stroke="midnightblue" points="917.599,-25.8795 926.003,-19.4275 915.41,-19.2307 917.599,-25.8795"/>
</g>
<!-- Node41&#45;&gt;Node26 -->
<g id="edge48" class="edge"><title>Node41&#45;&gt;Node26</title>
<path fill="none" stroke="midnightblue" d="M933.54,-112.324C948.183,-103.822 970.732,-90.7288 987.836,-80.7975"/>
<polygon fill="midnightblue" stroke="midnightblue" points="989.803,-83.7027 996.693,-75.6545 986.288,-77.6491 989.803,-83.7027"/>
</g>
<!-- Node41&#45;&gt;Node40 -->
<g id="edge50" class="edge"><title>Node41&#45;&gt;Node40</title>
<path fill="none" stroke="midnightblue" d="M897.841,-112.444C876.281,-103.557 842.335,-89.5632 817.804,-79.4514"/>
<polygon fill="midnightblue" stroke="midnightblue" points="818.837,-76.0917 808.258,-75.5164 816.17,-82.5634 818.837,-76.0917"/>
</g>
<!-- Node42 -->
<g id="node42" class="node"><title>Node42</title>
<polygon fill="none" stroke="#bfbfbf" points="845.598,-56.5 845.598,-75.5 907.598,-75.5 907.598,-56.5 845.598,-56.5"/>
<text text-anchor="middle" x="876.598" y="-63.5" font-family="Helvetica,sans-Serif" font-size="10.00">d3d11_1.h</text>
</g>
<!-- Node41&#45;&gt;Node42 -->
<g id="edge49" class="edge"><title>Node41&#45;&gt;Node42</title>
<path fill="none" stroke="midnightblue" d="M911.662,-112.083C905.669,-104.377 896.846,-93.0333 889.55,-83.6531"/>
<polygon fill="midnightblue" stroke="midnightblue" points="892.306,-81.4958 883.404,-75.7511 886.781,-85.7934 892.306,-81.4958"/>
</g>
<!-- Node43 -->
<g id="node43" class="node"><title>Node43</title>
<polygon fill="none" stroke="#bfbfbf" points="926.098,-56.5 926.098,-75.5 975.098,-75.5 975.098,-56.5 926.098,-56.5"/>
<text text-anchor="middle" x="950.598" y="-63.5" font-family="Helvetica,sans-Serif" font-size="10.00">stdint.h</text>
</g>
<!-- Node41&#45;&gt;Node43 -->
<g id="edge51" class="edge"><title>Node41&#45;&gt;Node43</title>
<path fill="none" stroke="midnightblue" d="M923.882,-112.083C928.309,-104.613 934.761,-93.7244 940.216,-84.5199"/>
<polygon fill="midnightblue" stroke="midnightblue" points="943.325,-86.1383 945.412,-75.7511 937.303,-82.5697 943.325,-86.1383"/>
</g>
<!-- Node44&#45;&gt;Node7 -->
<g id="edge54" class="edge"><title>Node44&#45;&gt;Node7</title>
<path fill="none" stroke="midnightblue" d="M1108.57,-224.324C1091.57,-215.664 1065.22,-202.242 1045.61,-192.249"/>
<polygon fill="midnightblue" stroke="midnightblue" points="1047.09,-189.075 1036.59,-187.655 1043.91,-195.312 1047.09,-189.075"/>
</g>
<!-- Node45&#45;&gt;Node7 -->
<g id="edge57" class="edge"><title>Node45&#45;&gt;Node7</title>
<path fill="none" stroke="midnightblue" d="M1262.81,-224.444C1209.87,-214.553 1123.09,-198.338 1068.77,-188.188"/>
<polygon fill="midnightblue" stroke="midnightblue" points="1069.16,-184.701 1058.69,-186.304 1067.88,-191.581 1069.16,-184.701"/>
</g>
<!-- Node45&#45;&gt;Node8 -->
<g id="edge56" class="edge"><title>Node45&#45;&gt;Node8</title>
<path fill="none" stroke="midnightblue" d="M1337.04,-224.423C1379.35,-211.726 1461.43,-187.348 1531.6,-168 1575.44,-155.912 1625.77,-142.918 1660.8,-134.016"/>
<polygon fill="midnightblue" stroke="midnightblue" points="1661.87,-137.355 1670.71,-131.505 1660.15,-130.57 1661.87,-137.355"/>
</g>
<!-- Node46&#45;&gt;Node8 -->
<g id="edge60" class="edge"><title>Node46&#45;&gt;Node8</title>
<path fill="none" stroke="midnightblue" d="M1661.67,-280.362C1666.85,-256.876 1677.93,-208.408 1689.6,-168 1692.17,-159.088 1695.38,-149.306 1698.17,-141.146"/>
<polygon fill="midnightblue" stroke="midnightblue" points="1701.53,-142.156 1701.51,-131.562 1694.92,-139.854 1701.53,-142.156"/>
</g>
<!-- Node47 -->
<g id="node47" class="node"><title>Node47</title>
<g id="a_node47"><a xlink:href="_windows_message_handler_8hpp.html" target="_top" xlink:title="../mt/WindowsMessageHandler.hpp">
<polygon fill="none" stroke="black" points="1467.1,-224.5 1467.1,-243.5 1638.1,-243.5 1638.1,-224.5 1467.1,-224.5"/>
<text text-anchor="middle" x="1552.6" y="-231.5" font-family="Helvetica,sans-Serif" font-size="10.00">../mt/WindowsMessageHandler.hpp</text>
</a>
</g>
</g>
<!-- Node46&#45;&gt;Node47 -->
<g id="edge61" class="edge"><title>Node46&#45;&gt;Node47</title>
<path fill="none" stroke="midnightblue" d="M1633.48,-280.399C1616.33,-270.773 1593.73,-258.09 1576.79,-248.577"/>
<polygon fill="midnightblue" stroke="midnightblue" points="1578.46,-245.501 1568.02,-243.658 1575.03,-251.605 1578.46,-245.501"/>
</g>
<!-- Node47&#45;&gt;Node25 -->
<g id="edge62" class="edge"><title>Node47&#45;&gt;Node25</title>
<path fill="none" stroke="midnightblue" d="M1548.01,-224.207C1543.45,-215.259 1536.46,-200.907 1531.6,-188 1525.77,-172.53 1520.61,-154.442 1517.14,-141.28"/>
<polygon fill="midnightblue" stroke="midnightblue" points="1520.52,-140.369 1514.65,-131.549 1513.74,-142.105 1520.52,-140.369"/>
</g>
<!-- Node48 -->
<g id="node48" class="node"><title>Node48</title>
<polygon fill="none" stroke="#bfbfbf" points="1540.6,-168.5 1540.6,-187.5 1610.6,-187.5 1610.6,-168.5 1540.6,-168.5"/>
<text text-anchor="middle" x="1575.6" y="-175.5" font-family="Helvetica,sans-Serif" font-size="10.00">WindowsX.h</text>
</g>
<!-- Node47&#45;&gt;Node48 -->
<g id="edge63" class="edge"><title>Node47&#45;&gt;Node48</title>
<path fill="none" stroke="midnightblue" d="M1556.4,-224.083C1559.51,-216.77 1564.02,-206.181 1567.89,-197.103"/>
<polygon fill="midnightblue" stroke="midnightblue" points="1571.17,-198.323 1571.87,-187.751 1564.73,-195.58 1571.17,-198.323"/>
</g>
<!-- Node49&#45;&gt;Node8 -->
<g id="edge65" class="edge"><title>Node49&#45;&gt;Node8</title>
<path fill="none" stroke="midnightblue" d="M1754.96,-168.324C1746.09,-160.341 1732.72,-148.313 1721.99,-138.653"/>
<polygon fill="midnightblue" stroke="midnightblue" points="1724.19,-135.922 1714.41,-131.834 1719.5,-141.125 1724.19,-135.922"/>
</g>
<!-- Node50&#45;&gt;Node47 -->
<g id="edge67" class="edge"><title>Node50&#45;&gt;Node47</title>
<path fill="none" stroke="midnightblue" d="M1551.67,-347.298C1551.83,-327.85 1552.22,-280.49 1552.44,-253.904"/>
<polygon fill="midnightblue" stroke="midnightblue" points="1555.94,-253.652 1552.53,-243.623 1548.94,-253.594 1555.94,-253.652"/>
</g>
</g>
</svg>
        <g id="navigator" transform="translate(0 0)" fill="#404254">
                <rect fill="#f2f5e9" fill-opacity="0.5" stroke="#606060" stroke-width=".5" x="0" y="0" width="60" height="60"/>
                <use id="zoomplus" xlink:href="#zoomPlus" x="17" y="9" onmousedown="handleZoom(evt,'in')"/>
                <use id="zoomminus" xlink:href="#zoomMin" x="42" y="9" onmousedown="handleZoom(evt,'out')"/>
                <use id="reset" xlink:href="#resetDef" x="30" y="36" onmousedown="handleReset()"/>
                <g id="arrowUp" xlink:href="#dirArrow" transform="translate(30 24)" onmousedown="handlePan(0,-1)">
                  <use xlink:href="#rim" fill="#404040">
                        <set attributeName="fill" to="#808080" begin="arrowUp.mouseover" end="arrowUp.mouseout"/>
                  </use>
                  <path fill="none" stroke="white" stroke-width="1.5" d="M0,-3.0v7 M-2.5,-0.5L0,-3.0L2.5,-0.5"/>
                </g>
                <g id="arrowRight" xlink:href="#dirArrow" transform="rotate(90) translate(36 -43)" onmousedown="handlePan(1,0)">
                  <use xlink:href="#rim" fill="#404040">
                        <set attributeName="fill" to="#808080" begin="arrowRight.mouseover" end="arrowRight.mouseout"/>
                  </use>
                  <path fill="none" stroke="white" stroke-width="1.5" d="M0,-3.0v7 M-2.5,-0.5L0,-3.0L2.5,-0.5"/>
                </g>
                <g id="arrowDown" xlink:href="#dirArrow" transform="rotate(180) translate(-30 -48)" onmousedown="handlePan(0,1)">
                  <use xlink:href="#rim" fill="#404040">
                        <set attributeName="fill" to="#808080" begin="arrowDown.mouseover" end="arrowDown.mouseout"/>
                  </use>
                  <path fill="none" stroke="white" stroke-width="1.5" d="M0,-3.0v7 M-2.5,-0.5L0,-3.0L2.5,-0.5"/>
                </g>
                <g id="arrowLeft" xlink:href="#dirArrow" transform="rotate(270) translate(-36 17)" onmousedown="handlePan(-1,0)">
                  <use xlink:href="#rim" fill="#404040">
                        <set attributeName="fill" to="#808080" begin="arrowLeft.mouseover" end="arrowLeft.mouseout"/>
                  </use>
                  <path fill="none" stroke="white" stroke-width="1.5" d="M0,-3.0v7 M-2.5,-0.5L0,-3.0L2.5,-0.5"/>
                </g>
        </g>
        <svg viewBox="0 0 15 15" width="100%" height="30px" preserveAspectRatio="xMaxYMin meet">
         <g id="arrow_out" transform="scale(0.3 0.3)">
          <a xlink:href="_w_m___a_c_t_i_v_a_t_e___handler_8cpp__incl_org.svg" target="_base">
           <rect id="button" ry="5" rx="5" y="6" x="6" height="38" width="38"
                fill="#f2f5e9" fill-opacity="0.5" stroke="#606060" stroke-width="1.0"/>
           <path id="arrow"
             d="M 11.500037,31.436501 C 11.940474,20.09759 22.043105,11.32322 32.158766,21.979434 L 37.068811,17.246167 C 37.068811,17.246167 37.088388,32 37.088388,32 L 22.160133,31.978069 C 22.160133,31.978069 26.997745,27.140456 26.997745,27.140456 C 18.528582,18.264221 13.291696,25.230495 11.500037,31.436501 z"
             style="fill:#404040;"/>
          </a>
         </g>
        </svg>
</svg>
