<?xml version="1.0" encoding="UTF-8" standalone="no"?>
<!DOCTYPE svg PUBLIC "-//W3C//DTD SVG 1.1//EN"
 "http://www.w3.org/Graphics/SVG/1.1/DTD/svg11.dtd">
<!-- Generated by graphviz version 2.38.0 (20140413.2041)
 -->
<!-- Title: C:/Users/micho/Desktop/mt_engine/mt/WM_SIZE_Handler.hpp Pages: 1 -->
<svg width="314pt" height="128pt"
 viewBox="0.00 0.00 313.50 128.00" xmlns="http://www.w3.org/2000/svg" xmlns:xlink="http://www.w3.org/1999/xlink">
<g id="graph0" class="graph" transform="scale(1 1) rotate(0) translate(4 124)">
<title>C:/Users/micho/Desktop/mt_engine/mt/WM_SIZE_Handler.hpp</title>
<!-- Node1 -->
<g id="node1" class="node"><title>Node1</title>
<polygon fill="#bfbfbf" stroke="black" points="98.5,-78.5 98.5,-119.5 224.5,-119.5 224.5,-78.5 98.5,-78.5"/>
<text text-anchor="start" x="106.5" y="-107.5" font-family="Helvetica,sans-Serif" font-size="10.00">C:/Users/micho/Desktop</text>
<text text-anchor="start" x="106.5" y="-96.5" font-family="Helvetica,sans-Serif" font-size="10.00">/mt_engine/mt/WM_SIZE</text>
<text text-anchor="middle" x="161.5" y="-85.5" font-family="Helvetica,sans-Serif" font-size="10.00">_Handler.hpp</text>
</g>
<!-- Node2 -->
<g id="node2" class="node"><title>Node2</title>
<g id="a_node2"><a xlink:href="_windows_message_handling_service_8cpp.html" target="_top" xlink:title="C:/Users/micho/Desktop\l/mt_engine/mt/WindowsMessage\lHandlingService.cpp">
<polygon fill="none" stroke="black" points="0,-0.5 0,-41.5 161,-41.5 161,-0.5 0,-0.5"/>
<text text-anchor="start" x="8" y="-29.5" font-family="Helvetica,sans-Serif" font-size="10.00">C:/Users/micho/Desktop</text>
<text text-anchor="start" x="8" y="-18.5" font-family="Helvetica,sans-Serif" font-size="10.00">/mt_engine/mt/WindowsMessage</text>
<text text-anchor="middle" x="80.5" y="-7.5" font-family="Helvetica,sans-Serif" font-size="10.00">HandlingService.cpp</text>
</a>
</g>
</g>
<!-- Node1&#45;&gt;Node2 -->
<g id="edge1" class="edge"><title>Node1&#45;&gt;Node2</title>
<path fill="none" stroke="midnightblue" d="M133.248,-71.4916C122.737,-61.6294 111.011,-50.6273 101.289,-41.5056"/>
<polygon fill="midnightblue" stroke="midnightblue" points="130.953,-74.1381 140.64,-78.4281 135.743,-69.0333 130.953,-74.1381"/>
</g>
<!-- Node3 -->
<g id="node3" class="node"><title>Node3</title>
<g id="a_node3"><a xlink:href="_w_m___s_i_z_e___handler_8cpp.html" target="_top" xlink:title="C:/Users/micho/Desktop\l/mt_engine/mt/WM_SIZE\l_Handler.cpp">
<polygon fill="none" stroke="black" points="179.5,-0.5 179.5,-41.5 305.5,-41.5 305.5,-0.5 179.5,-0.5"/>
<text text-anchor="start" x="187.5" y="-29.5" font-family="Helvetica,sans-Serif" font-size="10.00">C:/Users/micho/Desktop</text>
<text text-anchor="start" x="187.5" y="-18.5" font-family="Helvetica,sans-Serif" font-size="10.00">/mt_engine/mt/WM_SIZE</text>
<text text-anchor="middle" x="242.5" y="-7.5" font-family="Helvetica,sans-Serif" font-size="10.00">_Handler.cpp</text>
</a>
</g>
</g>
<!-- Node1&#45;&gt;Node3 -->
<g id="edge2" class="edge"><title>Node1&#45;&gt;Node3</title>
<path fill="none" stroke="midnightblue" d="M189.752,-71.4916C200.263,-61.6294 211.989,-50.6273 221.711,-41.5056"/>
<polygon fill="midnightblue" stroke="midnightblue" points="187.257,-69.0333 182.36,-78.4281 192.047,-74.1381 187.257,-69.0333"/>
</g>
</g>
</svg>
