<?xml version="1.0" encoding="UTF-8" standalone="no"?>
<!DOCTYPE svg PUBLIC "-//W3C//DTD SVG 1.1//EN"
 "http://www.w3.org/Graphics/SVG/1.1/DTD/svg11.dtd">
<!-- Generated by graphviz version 2.38.0 (20140413.2041)
 -->
<!-- Title: C:/Users/micho/Desktop/mt_engine/mt/WM_ACTIVATE_Handler.hpp Pages: 1 -->
<svg width="179pt" height="162pt"
 viewBox="0.00 0.00 179.00 162.00" xmlns="http://www.w3.org/2000/svg" xmlns:xlink="http://www.w3.org/1999/xlink">
<g id="graph0" class="graph" transform="scale(1 1) rotate(0) translate(4 158)">
<title>C:/Users/micho/Desktop/mt_engine/mt/WM_ACTIVATE_Handler.hpp</title>
<!-- Node1 -->
<g id="node1" class="node"><title>Node1</title>
<polygon fill="#bfbfbf" stroke="black" points="9.5,-112.5 9.5,-153.5 161.5,-153.5 161.5,-112.5 9.5,-112.5"/>
<text text-anchor="start" x="17.5" y="-141.5" font-family="Helvetica,sans-Serif" font-size="10.00">C:/Users/micho/Desktop</text>
<text text-anchor="start" x="17.5" y="-130.5" font-family="Helvetica,sans-Serif" font-size="10.00">/mt_engine/mt/WM_ACTIVATE</text>
<text text-anchor="middle" x="85.5" y="-119.5" font-family="Helvetica,sans-Serif" font-size="10.00">_Handler.hpp</text>
</g>
<!-- Node2 -->
<g id="node2" class="node"><title>Node2</title>
<g id="a_node2"><a xlink:href="_windows_message_handler_8hpp.html" target="_top" xlink:title="../mt/WindowsMessageHandler.hpp">
<polygon fill="none" stroke="black" points="0,-56.5 0,-75.5 171,-75.5 171,-56.5 0,-56.5"/>
<text text-anchor="middle" x="85.5" y="-63.5" font-family="Helvetica,sans-Serif" font-size="10.00">../mt/WindowsMessageHandler.hpp</text>
</a>
</g>
</g>
<!-- Node1&#45;&gt;Node2 -->
<g id="edge1" class="edge"><title>Node1&#45;&gt;Node2</title>
<path fill="none" stroke="midnightblue" d="M85.5,-112.498C85.5,-104.065 85.5,-94.2351 85.5,-85.874"/>
<polygon fill="midnightblue" stroke="midnightblue" points="89.0001,-85.6525 85.5,-75.6525 82.0001,-85.6525 89.0001,-85.6525"/>
</g>
<!-- Node3 -->
<g id="node3" class="node"><title>Node3</title>
<polygon fill="none" stroke="#bfbfbf" points="12.5,-0.5 12.5,-19.5 74.5,-19.5 74.5,-0.5 12.5,-0.5"/>
<text text-anchor="middle" x="43.5" y="-7.5" font-family="Helvetica,sans-Serif" font-size="10.00">windows.h</text>
</g>
<!-- Node2&#45;&gt;Node3 -->
<g id="edge2" class="edge"><title>Node2&#45;&gt;Node3</title>
<path fill="none" stroke="midnightblue" d="M78.5646,-56.083C72.5708,-48.3768 63.7482,-37.0333 56.4524,-27.6531"/>
<polygon fill="midnightblue" stroke="midnightblue" points="59.2086,-25.4958 50.3064,-19.7511 53.6831,-29.7934 59.2086,-25.4958"/>
</g>
<!-- Node4 -->
<g id="node4" class="node"><title>Node4</title>
<polygon fill="none" stroke="#bfbfbf" points="92.5,-0.5 92.5,-19.5 162.5,-19.5 162.5,-0.5 92.5,-0.5"/>
<text text-anchor="middle" x="127.5" y="-7.5" font-family="Helvetica,sans-Serif" font-size="10.00">WindowsX.h</text>
</g>
<!-- Node2&#45;&gt;Node4 -->
<g id="edge3" class="edge"><title>Node2&#45;&gt;Node4</title>
<path fill="none" stroke="midnightblue" d="M92.4354,-56.083C98.4292,-48.3768 107.252,-37.0333 114.548,-27.6531"/>
<polygon fill="midnightblue" stroke="midnightblue" points="117.317,-29.7934 120.694,-19.7511 111.791,-25.4958 117.317,-29.7934"/>
</g>
</g>
</svg>
