<?xml version="1.0" encoding="UTF-8" standalone="no"?>
<!DOCTYPE svg PUBLIC "-//W3C//DTD SVG 1.1//EN"
 "http://www.w3.org/Graphics/SVG/1.1/DTD/svg11.dtd">
<!-- Generated by graphviz version 2.38.0 (20140413.2041)
 -->
<!-- Title: C:/Users/micho/Desktop/mt_engine/mt/WM_EXITSIZEMOVE_Handler.hpp Pages: 1 -->
<svg width="362pt" height="128pt"
 viewBox="0.00 0.00 362.00 128.00" xmlns="http://www.w3.org/2000/svg" xmlns:xlink="http://www.w3.org/1999/xlink">
<g id="graph0" class="graph" transform="scale(1 1) rotate(0) translate(4 124)">
<title>C:/Users/micho/Desktop/mt_engine/mt/WM_EXITSIZEMOVE_Handler.hpp</title>
<!-- Node1 -->
<g id="node1" class="node"><title>Node1</title>
<polygon fill="#bfbfbf" stroke="black" points="86,-78.5 86,-119.5 261,-119.5 261,-78.5 86,-78.5"/>
<text text-anchor="start" x="94" y="-107.5" font-family="Helvetica,sans-Serif" font-size="10.00">C:/Users/micho/Desktop</text>
<text text-anchor="start" x="94" y="-96.5" font-family="Helvetica,sans-Serif" font-size="10.00">/mt_engine/mt/WM_EXITSIZEMOVE</text>
<text text-anchor="middle" x="173.5" y="-85.5" font-family="Helvetica,sans-Serif" font-size="10.00">_Handler.hpp</text>
</g>
<!-- Node2 -->
<g id="node2" class="node"><title>Node2</title>
<g id="a_node2"><a xlink:href="_windows_message_handling_service_8cpp.html" target="_top" xlink:title="C:/Users/micho/Desktop\l/mt_engine/mt/WindowsMessage\lHandlingService.cpp">
<polygon fill="none" stroke="black" points="0,-0.5 0,-41.5 161,-41.5 161,-0.5 0,-0.5"/>
<text text-anchor="start" x="8" y="-29.5" font-family="Helvetica,sans-Serif" font-size="10.00">C:/Users/micho/Desktop</text>
<text text-anchor="start" x="8" y="-18.5" font-family="Helvetica,sans-Serif" font-size="10.00">/mt_engine/mt/WindowsMessage</text>
<text text-anchor="middle" x="80.5" y="-7.5" font-family="Helvetica,sans-Serif" font-size="10.00">HandlingService.cpp</text>
</a>
</g>
</g>
<!-- Node1&#45;&gt;Node2 -->
<g id="edge1" class="edge"><title>Node1&#45;&gt;Node2</title>
<path fill="none" stroke="midnightblue" d="M141.763,-72.0648C129.518,-62.0574 115.748,-50.8045 104.369,-41.5056"/>
<polygon fill="midnightblue" stroke="midnightblue" points="139.592,-74.8104 149.55,-78.4281 144.022,-69.3901 139.592,-74.8104"/>
</g>
<!-- Node3 -->
<g id="node3" class="node"><title>Node3</title>
<g id="a_node3"><a xlink:href="_w_m___e_x_i_t_s_i_z_e_m_o_v_e___handler_8cpp.html" target="_top" xlink:title="C:/Users/micho/Desktop\l/mt_engine/mt/WM_EXITSIZEMOVE\l_Handler.cpp">
<polygon fill="none" stroke="black" points="179,-0.5 179,-41.5 354,-41.5 354,-0.5 179,-0.5"/>
<text text-anchor="start" x="187" y="-29.5" font-family="Helvetica,sans-Serif" font-size="10.00">C:/Users/micho/Desktop</text>
<text text-anchor="start" x="187" y="-18.5" font-family="Helvetica,sans-Serif" font-size="10.00">/mt_engine/mt/WM_EXITSIZEMOVE</text>
<text text-anchor="middle" x="266.5" y="-7.5" font-family="Helvetica,sans-Serif" font-size="10.00">_Handler.cpp</text>
</a>
</g>
</g>
<!-- Node1&#45;&gt;Node3 -->
<g id="edge2" class="edge"><title>Node1&#45;&gt;Node3</title>
<path fill="none" stroke="midnightblue" d="M205.237,-72.0648C217.482,-62.0574 231.252,-50.8045 242.631,-41.5056"/>
<polygon fill="midnightblue" stroke="midnightblue" points="202.978,-69.3901 197.45,-78.4281 207.408,-74.8104 202.978,-69.3901"/>
</g>
</g>
</svg>
