<?xml version="1.0" encoding="UTF-8" standalone="no"?>
<!DOCTYPE svg PUBLIC "-//W3C//DTD SVG 1.1//EN"
 "http://www.w3.org/Graphics/SVG/1.1/DTD/svg11.dtd">
<!-- Generated by graphviz version 2.38.0 (20140413.2041)
 -->
<!-- Title: C:/Users/micho/Desktop/mt_engine/mt/WM_KEYUP_Handler.cpp Pages: 1 -->
<svg width="2383pt" height="453pt"
 viewBox="0.00 0.00 2383.00 453.00" xmlns="http://www.w3.org/2000/svg" xmlns:xlink="http://www.w3.org/1999/xlink">
<g id="graph0" class="graph" transform="scale(1 1) rotate(0) translate(4 449)">
<title>C:/Users/micho/Desktop/mt_engine/mt/WM_KEYUP_Handler.cpp</title>
<!-- Node1 -->
<g id="node1" class="node"><title>Node1</title>
<polygon fill="#bfbfbf" stroke="black" points="1732,-403.5 1732,-444.5 1871,-444.5 1871,-403.5 1732,-403.5"/>
<text text-anchor="start" x="1740" y="-432.5" font-family="Helvetica,sans-Serif" font-size="10.00">C:/Users/micho/Desktop</text>
<text text-anchor="start" x="1740" y="-421.5" font-family="Helvetica,sans-Serif" font-size="10.00">/mt_engine/mt/WM_KEYUP</text>
<text text-anchor="middle" x="1801.5" y="-410.5" font-family="Helvetica,sans-Serif" font-size="10.00">_Handler.cpp</text>
</g>
<!-- Node2 -->
<g id="node2" class="node"><title>Node2</title>
<g id="a_node2"><a xlink:href="_w_m___k_e_y_u_p___handler_8hpp.html" target="_top" xlink:title="../mt/WM_KEYUP_Handler.hpp">
<polygon fill="none" stroke="black" points="1655.5,-347.5 1655.5,-366.5 1809.5,-366.5 1809.5,-347.5 1655.5,-347.5"/>
<text text-anchor="middle" x="1732.5" y="-354.5" font-family="Helvetica,sans-Serif" font-size="10.00">../mt/WM_KEYUP_Handler.hpp</text>
</a>
</g>
</g>
<!-- Node1&#45;&gt;Node2 -->
<g id="edge1" class="edge"><title>Node1&#45;&gt;Node2</title>
<path fill="none" stroke="midnightblue" d="M1780.8,-403.498C1770.63,-393.915 1758.54,-382.528 1749,-373.543"/>
<polygon fill="midnightblue" stroke="midnightblue" points="1751.36,-370.962 1741.68,-366.652 1746.56,-376.057 1751.36,-370.962"/>
</g>
<!-- Node6 -->
<g id="node6" class="node"><title>Node6</title>
<g id="a_node6"><a xlink:href="engine_8hpp.html" target="_top" xlink:title="../mt/engine.hpp">
<polygon fill="none" stroke="black" points="1828,-347.5 1828,-366.5 1915,-366.5 1915,-347.5 1828,-347.5"/>
<text text-anchor="middle" x="1871.5" y="-354.5" font-family="Helvetica,sans-Serif" font-size="10.00">../mt/engine.hpp</text>
</a>
</g>
</g>
<!-- Node1&#45;&gt;Node6 -->
<g id="edge5" class="edge"><title>Node1&#45;&gt;Node6</title>
<path fill="none" stroke="midnightblue" d="M1822.5,-403.498C1832.82,-393.915 1845.09,-382.528 1854.76,-373.543"/>
<polygon fill="midnightblue" stroke="midnightblue" points="1857.24,-376.022 1862.18,-366.652 1852.47,-370.892 1857.24,-376.022"/>
</g>
<!-- Node3 -->
<g id="node3" class="node"><title>Node3</title>
<g id="a_node3"><a xlink:href="_windows_message_handler_8hpp.html" target="_top" xlink:title="../mt/WindowsMessageHandler.hpp">
<polygon fill="none" stroke="black" points="1648,-224.5 1648,-243.5 1819,-243.5 1819,-224.5 1648,-224.5"/>
<text text-anchor="middle" x="1733.5" y="-231.5" font-family="Helvetica,sans-Serif" font-size="10.00">../mt/WindowsMessageHandler.hpp</text>
</a>
</g>
</g>
<!-- Node2&#45;&gt;Node3 -->
<g id="edge2" class="edge"><title>Node2&#45;&gt;Node3</title>
<path fill="none" stroke="midnightblue" d="M1732.57,-347.298C1732.73,-327.85 1733.12,-280.49 1733.34,-253.904"/>
<polygon fill="midnightblue" stroke="midnightblue" points="1736.85,-253.652 1733.43,-243.623 1729.85,-253.594 1736.85,-253.652"/>
</g>
<!-- Node4 -->
<g id="node4" class="node"><title>Node4</title>
<polygon fill="none" stroke="#bfbfbf" points="1526.5,-112.5 1526.5,-131.5 1588.5,-131.5 1588.5,-112.5 1526.5,-112.5"/>
<text text-anchor="middle" x="1557.5" y="-119.5" font-family="Helvetica,sans-Serif" font-size="10.00">windows.h</text>
</g>
<!-- Node3&#45;&gt;Node4 -->
<g id="edge3" class="edge"><title>Node3&#45;&gt;Node4</title>
<path fill="none" stroke="midnightblue" d="M1719.69,-224.368C1689.36,-205.412 1616.7,-160.001 1579.81,-136.942"/>
<polygon fill="midnightblue" stroke="midnightblue" points="1581.58,-133.923 1571.25,-131.591 1577.87,-139.859 1581.58,-133.923"/>
</g>
<!-- Node5 -->
<g id="node5" class="node"><title>Node5</title>
<polygon fill="none" stroke="#bfbfbf" points="1720.5,-168.5 1720.5,-187.5 1790.5,-187.5 1790.5,-168.5 1720.5,-168.5"/>
<text text-anchor="middle" x="1755.5" y="-175.5" font-family="Helvetica,sans-Serif" font-size="10.00">WindowsX.h</text>
</g>
<!-- Node3&#45;&gt;Node5 -->
<g id="edge4" class="edge"><title>Node3&#45;&gt;Node5</title>
<path fill="none" stroke="midnightblue" d="M1737.13,-224.083C1740.11,-216.77 1744.43,-206.181 1748.12,-197.103"/>
<polygon fill="midnightblue" stroke="midnightblue" points="1751.4,-198.333 1751.93,-187.751 1744.92,-195.691 1751.4,-198.333"/>
</g>
<!-- Node7 -->
<g id="node7" class="node"><title>Node7</title>
<g id="a_node7"><a xlink:href="_game_timer_8hpp.html" target="_top" xlink:title="../mt/GameTimer.hpp">
<polygon fill="none" stroke="black" points="2236,-112.5 2236,-131.5 2345,-131.5 2345,-112.5 2236,-112.5"/>
<text text-anchor="middle" x="2290.5" y="-119.5" font-family="Helvetica,sans-Serif" font-size="10.00">../mt/GameTimer.hpp</text>
</a>
</g>
</g>
<!-- Node6&#45;&gt;Node7 -->
<g id="edge6" class="edge"><title>Node6&#45;&gt;Node7</title>
<path fill="none" stroke="midnightblue" d="M1886.91,-347.431C1949.92,-312.394 2188.27,-179.849 2265.9,-136.681"/>
<polygon fill="midnightblue" stroke="midnightblue" points="2267.91,-139.566 2274.95,-131.647 2264.51,-133.448 2267.91,-139.566"/>
</g>
<!-- Node10 -->
<g id="node10" class="node"><title>Node10</title>
<g id="a_node10"><a xlink:href="_direct_x_renderer_8hpp.html" target="_top" xlink:title="../mt/DirectXRenderer.hpp">
<polygon fill="none" stroke="black" points="1436.5,-286 1436.5,-305 1564.5,-305 1564.5,-286 1436.5,-286"/>
<text text-anchor="middle" x="1500.5" y="-293" font-family="Helvetica,sans-Serif" font-size="10.00">../mt/DirectXRenderer.hpp</text>
</a>
</g>
</g>
<!-- Node6&#45;&gt;Node10 -->
<g id="edge9" class="edge"><title>Node6&#45;&gt;Node10</title>
<path fill="none" stroke="midnightblue" d="M1827.83,-348.547C1824.68,-348.02 1821.54,-347.499 1818.5,-347 1730.93,-332.612 1629.68,-316.648 1565.39,-306.596"/>
<polygon fill="midnightblue" stroke="midnightblue" points="1565.82,-303.12 1555.39,-305.035 1564.73,-310.037 1565.82,-303.12"/>
</g>
<!-- Node49 -->
<g id="node49" class="node"><title>Node49</title>
<g id="a_node49"><a xlink:href="_windows_message_handling_service_8hpp.html" target="_top" xlink:title="../mt/WindowsMessageHandling\lService.hpp">
<polygon fill="none" stroke="black" points="1761,-280.5 1761,-310.5 1918,-310.5 1918,-280.5 1761,-280.5"/>
<text text-anchor="start" x="1769" y="-298.5" font-family="Helvetica,sans-Serif" font-size="10.00">../mt/WindowsMessageHandling</text>
<text text-anchor="middle" x="1839.5" y="-287.5" font-family="Helvetica,sans-Serif" font-size="10.00">Service.hpp</text>
</a>
</g>
</g>
<!-- Node6&#45;&gt;Node49 -->
<g id="edge63" class="edge"><title>Node6&#45;&gt;Node49</title>
<path fill="none" stroke="midnightblue" d="M1866.92,-347.475C1862.99,-340.17 1857.14,-329.302 1851.86,-319.475"/>
<polygon fill="midnightblue" stroke="midnightblue" points="1854.86,-317.672 1847.04,-310.523 1848.7,-320.988 1854.86,-317.672"/>
</g>
<!-- Node50 -->
<g id="node50" class="node"><title>Node50</title>
<g id="a_node50"><a xlink:href="_command_queue_8hpp.html" target="_top" xlink:title="../mt/CommandQueue.hpp">
<polygon fill="none" stroke="black" points="1880,-168.5 1880,-187.5 2011,-187.5 2011,-168.5 1880,-168.5"/>
<text text-anchor="middle" x="1945.5" y="-175.5" font-family="Helvetica,sans-Serif" font-size="10.00">../mt/CommandQueue.hpp</text>
</a>
</g>
</g>
<!-- Node6&#45;&gt;Node50 -->
<g id="edge66" class="edge"><title>Node6&#45;&gt;Node50</title>
<path fill="none" stroke="midnightblue" d="M1887.88,-347.465C1900.88,-339.766 1918.35,-327.176 1927.5,-311 1947.92,-274.888 1948.56,-224.576 1947.12,-197.693"/>
<polygon fill="midnightblue" stroke="midnightblue" points="1950.61,-197.447 1946.42,-187.715 1943.63,-197.935 1950.61,-197.447"/>
</g>
<!-- Node8 -->
<g id="node8" class="node"><title>Node8</title>
<polygon fill="none" stroke="#bfbfbf" points="2267.5,-56.5 2267.5,-75.5 2313.5,-75.5 2313.5,-56.5 2267.5,-56.5"/>
<text text-anchor="middle" x="2290.5" y="-63.5" font-family="Helvetica,sans-Serif" font-size="10.00">chrono</text>
</g>
<!-- Node7&#45;&gt;Node8 -->
<g id="edge7" class="edge"><title>Node7&#45;&gt;Node8</title>
<path fill="none" stroke="midnightblue" d="M2290.5,-112.083C2290.5,-105.006 2290.5,-94.8611 2290.5,-85.9865"/>
<polygon fill="midnightblue" stroke="midnightblue" points="2294,-85.751 2290.5,-75.7511 2287,-85.7511 2294,-85.751"/>
</g>
<!-- Node9 -->
<g id="node9" class="node"><title>Node9</title>
<polygon fill="none" stroke="#bfbfbf" points="2332,-56.5 2332,-75.5 2375,-75.5 2375,-56.5 2332,-56.5"/>
<text text-anchor="middle" x="2353.5" y="-63.5" font-family="Helvetica,sans-Serif" font-size="10.00">queue</text>
</g>
<!-- Node7&#45;&gt;Node9 -->
<g id="edge8" class="edge"><title>Node7&#45;&gt;Node9</title>
<path fill="none" stroke="midnightblue" d="M2300.62,-112.324C2310.03,-104.263 2324.24,-92.0765 2335.57,-82.3695"/>
<polygon fill="midnightblue" stroke="midnightblue" points="2337.88,-84.9993 2343.19,-75.8339 2333.32,-79.6844 2337.88,-84.9993"/>
</g>
<!-- Node11 -->
<g id="node11" class="node"><title>Node11</title>
<g id="a_node11"><a xlink:href="d3d_util_8h.html" target="_top" xlink:title="../mt/d3dUtil.h">
<polygon fill="none" stroke="black" points="1033.5,-168.5 1033.5,-187.5 1111.5,-187.5 1111.5,-168.5 1033.5,-168.5"/>
<text text-anchor="middle" x="1072.5" y="-175.5" font-family="Helvetica,sans-Serif" font-size="10.00">../mt/d3dUtil.h</text>
</a>
</g>
</g>
<!-- Node10&#45;&gt;Node11 -->
<g id="edge10" class="edge"><title>Node10&#45;&gt;Node11</title>
<path fill="none" stroke="midnightblue" d="M1468.68,-285.913C1392.45,-265.341 1199.37,-213.238 1114.09,-190.223"/>
<polygon fill="midnightblue" stroke="midnightblue" points="1114.81,-186.791 1104.24,-187.565 1112.98,-193.55 1114.81,-186.791"/>
</g>
<!-- Node22 -->
<g id="node22" class="node"><title>Node22</title>
<polygon fill="none" stroke="#bfbfbf" points="1544,-56.5 1544,-75.5 1585,-75.5 1585,-56.5 1544,-56.5"/>
<text text-anchor="middle" x="1564.5" y="-63.5" font-family="Helvetica,sans-Serif" font-size="10.00">string</text>
</g>
<!-- Node10&#45;&gt;Node22 -->
<g id="edge62" class="edge"><title>Node10&#45;&gt;Node22</title>
<path fill="none" stroke="midnightblue" d="M1513.01,-285.776C1525.32,-276.623 1543.9,-261.195 1555.5,-244 1585.23,-199.926 1588.01,-184.31 1597.5,-132 1599.09,-123.254 1600.27,-120.448 1597.5,-112 1594.01,-101.34 1586.93,-91.1174 1580.21,-83.1175"/>
<polygon fill="midnightblue" stroke="midnightblue" points="1582.8,-80.7633 1573.52,-75.66 1577.6,-85.4395 1582.8,-80.7633"/>
</g>
<!-- Node47 -->
<g id="node47" class="node"><title>Node47</title>
<g id="a_node47"><a xlink:href="_upload_buffer_8h.html" target="_top" xlink:title="../mt/UploadBuffer.h">
<polygon fill="none" stroke="black" points="1044,-224.5 1044,-243.5 1147,-243.5 1147,-224.5 1044,-224.5"/>
<text text-anchor="middle" x="1095.5" y="-231.5" font-family="Helvetica,sans-Serif" font-size="10.00">../mt/UploadBuffer.h</text>
</a>
</g>
</g>
<!-- Node10&#45;&gt;Node47 -->
<g id="edge57" class="edge"><title>Node10&#45;&gt;Node47</title>
<path fill="none" stroke="midnightblue" d="M1442.47,-285.975C1366.7,-274.843 1234.61,-255.436 1157.1,-244.051"/>
<polygon fill="midnightblue" stroke="midnightblue" points="1157.41,-240.558 1147.01,-242.567 1156.39,-247.483 1157.41,-240.558"/>
</g>
<!-- Node48 -->
<g id="node48" class="node"><title>Node48</title>
<g id="a_node48"><a xlink:href="_camera_8hpp.html" target="_top" xlink:title="../mt/Camera.hpp">
<polygon fill="none" stroke="black" points="1454.5,-224.5 1454.5,-243.5 1546.5,-243.5 1546.5,-224.5 1454.5,-224.5"/>
<text text-anchor="middle" x="1500.5" y="-231.5" font-family="Helvetica,sans-Serif" font-size="10.00">../mt/Camera.hpp</text>
</a>
</g>
</g>
<!-- Node10&#45;&gt;Node48 -->
<g id="edge59" class="edge"><title>Node10&#45;&gt;Node48</title>
<path fill="none" stroke="midnightblue" d="M1500.5,-285.975C1500.5,-277.58 1500.5,-264.481 1500.5,-253.663"/>
<polygon fill="midnightblue" stroke="midnightblue" points="1504,-253.509 1500.5,-243.509 1497,-253.509 1504,-253.509"/>
</g>
<!-- Node11&#45;&gt;Node4 -->
<g id="edge30" class="edge"><title>Node11&#45;&gt;Node4</title>
<path fill="none" stroke="midnightblue" d="M1111.5,-174.268C1188.47,-168.601 1365.2,-154.211 1512.5,-132 1513.6,-131.834 1514.72,-131.659 1515.85,-131.476"/>
<polygon fill="midnightblue" stroke="midnightblue" points="1516.85,-134.854 1526.1,-129.678 1515.64,-127.959 1516.85,-134.854"/>
</g>
<!-- Node12 -->
<g id="node12" class="node"><title>Node12</title>
<g id="a_node12"><a xlink:href="utility_8hpp.html" target="_top" xlink:title="../mt/utility.hpp">
<polygon fill="none" stroke="black" points="1812.5,-112.5 1812.5,-131.5 1894.5,-131.5 1894.5,-112.5 1812.5,-112.5"/>
<text text-anchor="middle" x="1853.5" y="-119.5" font-family="Helvetica,sans-Serif" font-size="10.00">../mt/utility.hpp</text>
</a>
</g>
</g>
<!-- Node11&#45;&gt;Node12 -->
<g id="edge11" class="edge"><title>Node11&#45;&gt;Node12</title>
<path fill="none" stroke="midnightblue" d="M1111.77,-174.285C1241.51,-165.315 1656.46,-136.624 1802.25,-126.543"/>
<polygon fill="midnightblue" stroke="midnightblue" points="1802.55,-130.032 1812.28,-125.85 1802.06,-123.048 1802.55,-130.032"/>
</g>
<!-- Node13 -->
<g id="node13" class="node"><title>Node13</title>
<polygon fill="none" stroke="#bfbfbf" points="1469.5,-56.5 1469.5,-75.5 1525.5,-75.5 1525.5,-56.5 1469.5,-56.5"/>
<text text-anchor="middle" x="1497.5" y="-63.5" font-family="Helvetica,sans-Serif" font-size="10.00">algorithm</text>
</g>
<!-- Node11&#45;&gt;Node13 -->
<g id="edge41" class="edge"><title>Node11&#45;&gt;Node13</title>
<path fill="none" stroke="midnightblue" d="M1111.74,-175.5C1193.76,-171.829 1380.37,-160.517 1436.5,-132 1457.98,-121.087 1475.9,-99.407 1486.64,-84.0925"/>
<polygon fill="midnightblue" stroke="midnightblue" points="1489.71,-85.7899 1492.37,-75.5327 1483.89,-81.8966 1489.71,-85.7899"/>
</g>
<!-- Node11&#45;&gt;Node22 -->
<g id="edge39" class="edge"><title>Node11&#45;&gt;Node22</title>
<path fill="none" stroke="midnightblue" d="M1111.74,-174.715C1197.37,-169.368 1398.43,-154.745 1462.5,-132 1494.76,-120.547 1527.3,-97.3199 1546.68,-81.9598"/>
<polygon fill="midnightblue" stroke="midnightblue" points="1549.05,-84.5451 1554.61,-75.5267 1544.64,-79.1091 1549.05,-84.5451"/>
</g>
<!-- Node26 -->
<g id="node26" class="node"><title>Node26</title>
<g id="a_node26"><a xlink:href="_math_helper_8h.html" target="_top" xlink:title="../mt/MathHelper.h">
<polygon fill="none" stroke="red" points="1315.5,-56.5 1315.5,-75.5 1413.5,-75.5 1413.5,-56.5 1315.5,-56.5"/>
<text text-anchor="middle" x="1364.5" y="-63.5" font-family="Helvetica,sans-Serif" font-size="10.00">../mt/MathHelper.h</text>
</a>
</g>
</g>
<!-- Node11&#45;&gt;Node26 -->
<g id="edge56" class="edge"><title>Node11&#45;&gt;Node26</title>
<path fill="none" stroke="midnightblue" d="M1111.75,-176.327C1159.37,-173.984 1240.79,-164.97 1301.5,-132 1322.77,-120.447 1341.25,-99.2652 1352.6,-84.2237"/>
<polygon fill="midnightblue" stroke="midnightblue" points="1355.68,-85.9451 1358.71,-75.7929 1350.01,-81.8395 1355.68,-85.9451"/>
</g>
<!-- Node27 -->
<g id="node27" class="node"><title>Node27</title>
<polygon fill="none" stroke="#bfbfbf" points="1285,-0.5 1285,-19.5 1362,-19.5 1362,-0.5 1285,-0.5"/>
<text text-anchor="middle" x="1323.5" y="-7.5" font-family="Helvetica,sans-Serif" font-size="10.00">DirectXMath.h</text>
</g>
<!-- Node11&#45;&gt;Node27 -->
<g id="edge35" class="edge"><title>Node11&#45;&gt;Node27</title>
<path fill="none" stroke="midnightblue" d="M1063.47,-168.097C1050.66,-155.508 1026.45,-131.828 1005.5,-112 988.367,-95.7861 975.961,-97.6087 966.5,-76 962.935,-67.8574 960.608,-62.6552 966.5,-56 1010.28,-6.55374 1196.04,-28.7442 1261.5,-20 1265.74,-19.433 1270.15,-18.8274 1274.57,-18.2087"/>
<polygon fill="midnightblue" stroke="midnightblue" points="1275.41,-21.6237 1284.82,-16.7528 1274.43,-14.6931 1275.41,-21.6237"/>
</g>
<!-- Node28 -->
<g id="node28" class="node"><title>Node28</title>
<polygon fill="none" stroke="#bfbfbf" points="1410.5,-0.5 1410.5,-19.5 1456.5,-19.5 1456.5,-0.5 1410.5,-0.5"/>
<text text-anchor="middle" x="1433.5" y="-7.5" font-family="Helvetica,sans-Serif" font-size="10.00">cstdint</text>
</g>
<!-- Node11&#45;&gt;Node28 -->
<g id="edge45" class="edge"><title>Node11&#45;&gt;Node28</title>
<path fill="none" stroke="midnightblue" d="M1111.64,-174.445C1162.69,-170.144 1254.12,-159.091 1327.5,-132 1373.48,-115.026 1394.71,-116.371 1422.5,-76 1431.73,-62.5955 1434.1,-44.0293 1434.38,-30.1704"/>
<polygon fill="midnightblue" stroke="midnightblue" points="1437.88,-29.8017 1434.23,-19.8528 1430.88,-29.9018 1437.88,-29.8017"/>
</g>
<!-- Node29 -->
<g id="node29" class="node"><title>Node29</title>
<polygon fill="none" stroke="#bfbfbf" points="1124,-56.5 1124,-75.5 1161,-75.5 1161,-56.5 1124,-56.5"/>
<text text-anchor="middle" x="1142.5" y="-63.5" font-family="Helvetica,sans-Serif" font-size="10.00">wrl.h</text>
</g>
<!-- Node11&#45;&gt;Node29 -->
<g id="edge31" class="edge"><title>Node11&#45;&gt;Node29</title>
<path fill="none" stroke="midnightblue" d="M1111.7,-173.675C1139.3,-169.051 1174.44,-158.06 1192.5,-132 1204.9,-114.1 1184.63,-94.3835 1166.31,-81.4127"/>
<polygon fill="midnightblue" stroke="midnightblue" points="1167.88,-78.2557 1157.62,-75.6246 1164,-84.0815 1167.88,-78.2557"/>
</g>
<!-- Node30 -->
<g id="node30" class="node"><title>Node30</title>
<polygon fill="none" stroke="#bfbfbf" points="0,-112.5 0,-131.5 59,-131.5 59,-112.5 0,-112.5"/>
<text text-anchor="middle" x="29.5" y="-119.5" font-family="Helvetica,sans-Serif" font-size="10.00">dxgi1_4.h</text>
</g>
<!-- Node11&#45;&gt;Node30 -->
<g id="edge32" class="edge"><title>Node11&#45;&gt;Node30</title>
<path fill="none" stroke="midnightblue" d="M1033.42,-176.2C875.014,-172.811 279.683,-158.642 69.2337,-131.773"/>
<polygon fill="midnightblue" stroke="midnightblue" points="69.5808,-128.288 59.2073,-130.442 68.66,-135.227 69.5808,-128.288"/>
</g>
<!-- Node31 -->
<g id="node31" class="node"><title>Node31</title>
<polygon fill="none" stroke="#bfbfbf" points="1201,-0.5 1201,-19.5 1252,-19.5 1252,-0.5 1201,-0.5"/>
<text text-anchor="middle" x="1226.5" y="-7.5" font-family="Helvetica,sans-Serif" font-size="10.00">d3d12.h</text>
</g>
<!-- Node11&#45;&gt;Node31 -->
<g id="edge33" class="edge"><title>Node11&#45;&gt;Node31</title>
<path fill="none" stroke="midnightblue" d="M1111.52,-172.586C1144.56,-167.302 1191.92,-155.949 1226.5,-132 1258.22,-110.025 1282.65,-91.9041 1268.5,-56 1263.99,-44.5479 1255.03,-34.291 1246.55,-26.4724"/>
<polygon fill="midnightblue" stroke="midnightblue" points="1248.59,-23.6113 1238.71,-19.7638 1244.03,-28.9275 1248.59,-23.6113"/>
</g>
<!-- Node32 -->
<g id="node32" class="node"><title>Node32</title>
<polygon fill="none" stroke="#bfbfbf" points="77.5,-112.5 77.5,-131.5 157.5,-131.5 157.5,-112.5 77.5,-112.5"/>
<text text-anchor="middle" x="117.5" y="-119.5" font-family="Helvetica,sans-Serif" font-size="10.00">D3Dcompiler.h</text>
</g>
<!-- Node11&#45;&gt;Node32 -->
<g id="edge34" class="edge"><title>Node11&#45;&gt;Node32</title>
<path fill="none" stroke="midnightblue" d="M1033.49,-176.899C908.774,-176.187 508.41,-170.899 167.612,-131.962"/>
<polygon fill="midnightblue" stroke="midnightblue" points="167.882,-128.47 157.546,-130.8 167.079,-135.424 167.882,-128.47"/>
</g>
<!-- Node33 -->
<g id="node33" class="node"><title>Node33</title>
<polygon fill="none" stroke="#bfbfbf" points="176,-112.5 176,-131.5 293,-131.5 293,-112.5 176,-112.5"/>
<text text-anchor="middle" x="234.5" y="-119.5" font-family="Helvetica,sans-Serif" font-size="10.00">DirectXPackedVector.h</text>
</g>
<!-- Node11&#45;&gt;Node33 -->
<g id="edge36" class="edge"><title>Node11&#45;&gt;Node33</title>
<path fill="none" stroke="midnightblue" d="M1033.1,-175.748C920.757,-171.955 589.009,-159.205 303.436,-132.122"/>
<polygon fill="midnightblue" stroke="midnightblue" points="303.585,-128.621 293.297,-131.153 302.919,-135.589 303.585,-128.621"/>
</g>
<!-- Node34 -->
<g id="node34" class="node"><title>Node34</title>
<polygon fill="none" stroke="#bfbfbf" points="311,-112.5 311,-131.5 394,-131.5 394,-112.5 311,-112.5"/>
<text text-anchor="middle" x="352.5" y="-119.5" font-family="Helvetica,sans-Serif" font-size="10.00">DirectXColors.h</text>
</g>
<!-- Node11&#45;&gt;Node34 -->
<g id="edge37" class="edge"><title>Node11&#45;&gt;Node34</title>
<path fill="none" stroke="midnightblue" d="M1033.15,-175.831C931.095,-172.484 649.394,-161.239 404.362,-131.962"/>
<polygon fill="midnightblue" stroke="midnightblue" points="404.541,-128.458 394.194,-130.734 403.702,-135.408 404.541,-128.458"/>
</g>
<!-- Node35 -->
<g id="node35" class="node"><title>Node35</title>
<polygon fill="none" stroke="#bfbfbf" points="412.5,-112.5 412.5,-131.5 504.5,-131.5 504.5,-112.5 412.5,-112.5"/>
<text text-anchor="middle" x="458.5" y="-119.5" font-family="Helvetica,sans-Serif" font-size="10.00">DirectXCollision.h</text>
</g>
<!-- Node11&#45;&gt;Node35 -->
<g id="edge38" class="edge"><title>Node11&#45;&gt;Node35</title>
<path fill="none" stroke="midnightblue" d="M1033.42,-174.958C943.675,-170.032 715.739,-156.173 514.826,-132.067"/>
<polygon fill="midnightblue" stroke="midnightblue" points="515.023,-128.565 504.674,-130.837 514.181,-135.514 515.023,-128.565"/>
</g>
<!-- Node36 -->
<g id="node36" class="node"><title>Node36</title>
<polygon fill="none" stroke="#bfbfbf" points="522.5,-112.5 522.5,-131.5 574.5,-131.5 574.5,-112.5 522.5,-112.5"/>
<text text-anchor="middle" x="548.5" y="-119.5" font-family="Helvetica,sans-Serif" font-size="10.00">memory</text>
</g>
<!-- Node11&#45;&gt;Node36 -->
<g id="edge40" class="edge"><title>Node11&#45;&gt;Node36</title>
<path fill="none" stroke="midnightblue" d="M1033.24,-175.518C951.448,-171.974 756.791,-161.159 584.767,-131.959"/>
<polygon fill="midnightblue" stroke="midnightblue" points="585.224,-128.486 574.775,-130.237 584.036,-135.384 585.224,-128.486"/>
</g>
<!-- Node37 -->
<g id="node37" class="node"><title>Node37</title>
<polygon fill="none" stroke="#bfbfbf" points="592.5,-112.5 592.5,-131.5 634.5,-131.5 634.5,-112.5 592.5,-112.5"/>
<text text-anchor="middle" x="613.5" y="-119.5" font-family="Helvetica,sans-Serif" font-size="10.00">vector</text>
</g>
<!-- Node11&#45;&gt;Node37 -->
<g id="edge42" class="edge"><title>Node11&#45;&gt;Node37</title>
<path fill="none" stroke="midnightblue" d="M1033.39,-175.345C959.23,-171.682 793.077,-160.962 644.868,-131.92"/>
<polygon fill="midnightblue" stroke="midnightblue" points="645.172,-128.412 634.681,-129.889 643.804,-135.277 645.172,-128.412"/>
</g>
<!-- Node38 -->
<g id="node38" class="node"><title>Node38</title>
<polygon fill="none" stroke="#bfbfbf" points="652.5,-112.5 652.5,-131.5 690.5,-131.5 690.5,-112.5 652.5,-112.5"/>
<text text-anchor="middle" x="671.5" y="-119.5" font-family="Helvetica,sans-Serif" font-size="10.00">array</text>
</g>
<!-- Node11&#45;&gt;Node38 -->
<g id="edge43" class="edge"><title>Node11&#45;&gt;Node38</title>
<path fill="none" stroke="midnightblue" d="M1033.43,-174.749C966.806,-170.379 826.944,-158.898 700.501,-131.834"/>
<polygon fill="midnightblue" stroke="midnightblue" points="701.164,-128.396 690.648,-129.687 699.673,-135.236 701.164,-128.396"/>
</g>
<!-- Node39 -->
<g id="node39" class="node"><title>Node39</title>
<polygon fill="none" stroke="#bfbfbf" points="709,-112.5 709,-131.5 792,-131.5 792,-112.5 709,-112.5"/>
<text text-anchor="middle" x="750.5" y="-119.5" font-family="Helvetica,sans-Serif" font-size="10.00">unordered_map</text>
</g>
<!-- Node11&#45;&gt;Node39 -->
<g id="edge44" class="edge"><title>Node11&#45;&gt;Node39</title>
<path fill="none" stroke="midnightblue" d="M1033.28,-170.69C982.303,-162.449 890.236,-147.432 802.124,-132.264"/>
<polygon fill="midnightblue" stroke="midnightblue" points="802.684,-128.809 792.234,-130.558 801.494,-135.707 802.684,-128.809"/>
</g>
<!-- Node40 -->
<g id="node40" class="node"><title>Node40</title>
<polygon fill="none" stroke="#bfbfbf" points="810,-112.5 810,-131.5 859,-131.5 859,-112.5 810,-112.5"/>
<text text-anchor="middle" x="834.5" y="-119.5" font-family="Helvetica,sans-Serif" font-size="10.00">fstream</text>
</g>
<!-- Node11&#45;&gt;Node40 -->
<g id="edge46" class="edge"><title>Node11&#45;&gt;Node40</title>
<path fill="none" stroke="midnightblue" d="M1033.28,-168.855C994.214,-160.63 932.29,-147.29 869.443,-132.151"/>
<polygon fill="midnightblue" stroke="midnightblue" points="869.895,-128.659 859.352,-129.706 868.247,-135.462 869.895,-128.659"/>
</g>
<!-- Node41 -->
<g id="node41" class="node"><title>Node41</title>
<polygon fill="none" stroke="#bfbfbf" points="877.5,-112.5 877.5,-131.5 929.5,-131.5 929.5,-112.5 877.5,-112.5"/>
<text text-anchor="middle" x="903.5" y="-119.5" font-family="Helvetica,sans-Serif" font-size="10.00">sstream</text>
</g>
<!-- Node11&#45;&gt;Node41 -->
<g id="edge47" class="edge"><title>Node11&#45;&gt;Node41</title>
<path fill="none" stroke="midnightblue" d="M1045.72,-168.444C1017,-159.266 971.233,-144.642 939.403,-134.472"/>
<polygon fill="midnightblue" stroke="midnightblue" points="940.189,-131.049 929.598,-131.339 938.058,-137.717 940.189,-131.049"/>
</g>
<!-- Node42 -->
<g id="node42" class="node"><title>Node42</title>
<polygon fill="none" stroke="#bfbfbf" points="948,-112.5 948,-131.5 997,-131.5 997,-112.5 948,-112.5"/>
<text text-anchor="middle" x="972.5" y="-119.5" font-family="Helvetica,sans-Serif" font-size="10.00">cassert</text>
</g>
<!-- Node11&#45;&gt;Node42 -->
<g id="edge48" class="edge"><title>Node11&#45;&gt;Node42</title>
<path fill="none" stroke="midnightblue" d="M1056.43,-168.324C1040.54,-159.743 1015.99,-146.486 997.542,-136.522"/>
<polygon fill="midnightblue" stroke="midnightblue" points="998.989,-133.326 988.527,-131.655 995.663,-139.486 998.989,-133.326"/>
</g>
<!-- Node43 -->
<g id="node43" class="node"><title>Node43</title>
<g id="a_node43"><a xlink:href="d3dx12_8h.html" target="_top" xlink:title="../mt/d3dx12.h">
<polygon fill="none" stroke="black" points="1179.5,-56.5 1179.5,-75.5 1259.5,-75.5 1259.5,-56.5 1179.5,-56.5"/>
<text text-anchor="middle" x="1219.5" y="-63.5" font-family="Helvetica,sans-Serif" font-size="10.00">../mt/d3dx12.h</text>
</a>
</g>
</g>
<!-- Node11&#45;&gt;Node43 -->
<g id="edge49" class="edge"><title>Node11&#45;&gt;Node43</title>
<path fill="none" stroke="midnightblue" d="M1111.58,-174.682C1142.53,-170.675 1184.44,-160.021 1208.5,-132 1219.32,-119.392 1221.41,-100.178 1221.19,-85.9065"/>
<polygon fill="midnightblue" stroke="midnightblue" points="1224.67,-85.5368 1220.63,-75.741 1217.68,-85.9159 1224.67,-85.5368"/>
</g>
<!-- Node44 -->
<g id="node44" class="node"><title>Node44</title>
<g id="a_node44"><a xlink:href="_d_d_s_texture_loader_8h.html" target="_top" xlink:title="../mt/DDSTextureLoader.h">
<polygon fill="none" stroke="black" points="1053.5,-112.5 1053.5,-131.5 1183.5,-131.5 1183.5,-112.5 1053.5,-112.5"/>
<text text-anchor="middle" x="1118.5" y="-119.5" font-family="Helvetica,sans-Serif" font-size="10.00">../mt/DDSTextureLoader.h</text>
</a>
</g>
</g>
<!-- Node11&#45;&gt;Node44 -->
<g id="edge51" class="edge"><title>Node11&#45;&gt;Node44</title>
<path fill="none" stroke="midnightblue" d="M1080.1,-168.083C1086.73,-160.298 1096.52,-148.801 1104.56,-139.367"/>
<polygon fill="midnightblue" stroke="midnightblue" points="1107.23,-141.633 1111.05,-131.751 1101.9,-137.094 1107.23,-141.633"/>
</g>
<!-- Node12&#45;&gt;Node8 -->
<g id="edge13" class="edge"><title>Node12&#45;&gt;Node8</title>
<path fill="none" stroke="midnightblue" d="M1894.65,-118.658C1966.49,-114.086 2119.52,-102.211 2257.3,-75.9481"/>
<polygon fill="midnightblue" stroke="midnightblue" points="2258.04,-79.3699 2267.19,-74.0322 2256.7,-72.4976 2258.04,-79.3699"/>
</g>
<!-- Node12&#45;&gt;Node9 -->
<g id="edge20" class="edge"><title>Node12&#45;&gt;Node9</title>
<path fill="none" stroke="midnightblue" d="M1894.64,-119.635C1975.01,-116.413 2158.51,-106.332 2321.72,-75.7633"/>
<polygon fill="midnightblue" stroke="midnightblue" points="2322.78,-79.1254 2331.95,-73.8162 2321.47,-72.249 2322.78,-79.1254"/>
</g>
<!-- Node12&#45;&gt;Node13 -->
<g id="edge12" class="edge"><title>Node12&#45;&gt;Node13</title>
<path fill="none" stroke="midnightblue" d="M1812.39,-116.408C1751.6,-109.342 1634.26,-94.6422 1535.5,-76 1535.4,-75.9811 1535.3,-75.9622 1535.2,-75.9431"/>
<polygon fill="midnightblue" stroke="midnightblue" points="1536.16,-72.5679 1525.66,-73.974 1534.75,-79.4233 1536.16,-72.5679"/>
</g>
<!-- Node14 -->
<g id="node14" class="node"><title>Node14</title>
<polygon fill="none" stroke="#bfbfbf" points="2205.5,-56.5 2205.5,-75.5 2249.5,-75.5 2249.5,-56.5 2205.5,-56.5"/>
<text text-anchor="middle" x="2227.5" y="-63.5" font-family="Helvetica,sans-Serif" font-size="10.00">cmath</text>
</g>
<!-- Node12&#45;&gt;Node14 -->
<g id="edge14" class="edge"><title>Node12&#45;&gt;Node14</title>
<path fill="none" stroke="midnightblue" d="M1894.76,-117.63C1957.69,-112.046 2081.51,-99.3143 2195.33,-75.9671"/>
<polygon fill="midnightblue" stroke="midnightblue" points="2196.18,-79.3654 2205.25,-73.8986 2194.75,-72.5127 2196.18,-79.3654"/>
</g>
<!-- Node15 -->
<g id="node15" class="node"><title>Node15</title>
<polygon fill="none" stroke="#bfbfbf" points="1603,-56.5 1603,-75.5 1652,-75.5 1652,-56.5 1603,-56.5"/>
<text text-anchor="middle" x="1627.5" y="-63.5" font-family="Helvetica,sans-Serif" font-size="10.00">cstdarg</text>
</g>
<!-- Node12&#45;&gt;Node15 -->
<g id="edge15" class="edge"><title>Node12&#45;&gt;Node15</title>
<path fill="none" stroke="midnightblue" d="M1815.54,-112.438C1778.79,-104.078 1721.28,-90.7956 1662.23,-76.1301"/>
<polygon fill="midnightblue" stroke="midnightblue" points="1662.91,-72.6918 1652.36,-73.6685 1661.22,-79.4838 1662.91,-72.6918"/>
</g>
<!-- Node16 -->
<g id="node16" class="node"><title>Node16</title>
<polygon fill="none" stroke="#bfbfbf" points="1670,-56.5 1670,-75.5 1713,-75.5 1713,-56.5 1670,-56.5"/>
<text text-anchor="middle" x="1691.5" y="-63.5" font-family="Helvetica,sans-Serif" font-size="10.00">deque</text>
</g>
<!-- Node12&#45;&gt;Node16 -->
<g id="edge16" class="edge"><title>Node12&#45;&gt;Node16</title>
<path fill="none" stroke="midnightblue" d="M1827.83,-112.444C1799.37,-102.958 1753.47,-87.656 1722.89,-77.4647"/>
<polygon fill="midnightblue" stroke="midnightblue" points="1723.75,-74.0623 1713.16,-74.2203 1721.54,-80.703 1723.75,-74.0623"/>
</g>
<!-- Node17 -->
<g id="node17" class="node"><title>Node17</title>
<polygon fill="none" stroke="#bfbfbf" points="1731,-56.5 1731,-75.5 1792,-75.5 1792,-56.5 1731,-56.5"/>
<text text-anchor="middle" x="1761.5" y="-63.5" font-family="Helvetica,sans-Serif" font-size="10.00">filesystem</text>
</g>
<!-- Node12&#45;&gt;Node17 -->
<g id="edge17" class="edge"><title>Node12&#45;&gt;Node17</title>
<path fill="none" stroke="midnightblue" d="M1838.72,-112.324C1824.23,-103.822 1801.93,-90.7288 1785.01,-80.7975"/>
<polygon fill="midnightblue" stroke="midnightblue" points="1786.64,-77.6981 1776.24,-75.6545 1783.1,-83.735 1786.64,-77.6981"/>
</g>
<!-- Node18 -->
<g id="node18" class="node"><title>Node18</title>
<polygon fill="none" stroke="#bfbfbf" points="1810,-56.5 1810,-75.5 1839,-75.5 1839,-56.5 1810,-56.5"/>
<text text-anchor="middle" x="1824.5" y="-63.5" font-family="Helvetica,sans-Serif" font-size="10.00">list</text>
</g>
<!-- Node12&#45;&gt;Node18 -->
<g id="edge18" class="edge"><title>Node12&#45;&gt;Node18</title>
<path fill="none" stroke="midnightblue" d="M1848.71,-112.083C1844.74,-104.691 1838.97,-93.9533 1834.07,-84.8111"/>
<polygon fill="midnightblue" stroke="midnightblue" points="1837.01,-82.9051 1829.2,-75.7511 1830.85,-86.217 1837.01,-82.9051"/>
</g>
<!-- Node19 -->
<g id="node19" class="node"><title>Node19</title>
<polygon fill="none" stroke="#bfbfbf" points="1857,-56.5 1857,-75.5 1892,-75.5 1892,-56.5 1857,-56.5"/>
<text text-anchor="middle" x="1874.5" y="-63.5" font-family="Helvetica,sans-Serif" font-size="10.00">map</text>
</g>
<!-- Node12&#45;&gt;Node19 -->
<g id="edge19" class="edge"><title>Node12&#45;&gt;Node19</title>
<path fill="none" stroke="midnightblue" d="M1856.97,-112.083C1859.81,-104.77 1863.93,-94.1814 1867.46,-85.1034"/>
<polygon fill="midnightblue" stroke="midnightblue" points="1870.73,-86.3397 1871.1,-75.7511 1864.21,-83.8025 1870.73,-86.3397"/>
</g>
<!-- Node20 -->
<g id="node20" class="node"><title>Node20</title>
<polygon fill="none" stroke="#bfbfbf" points="1910,-56.5 1910,-75.5 1945,-75.5 1945,-56.5 1910,-56.5"/>
<text text-anchor="middle" x="1927.5" y="-63.5" font-family="Helvetica,sans-Serif" font-size="10.00">ratio</text>
</g>
<!-- Node12&#45;&gt;Node20 -->
<g id="edge21" class="edge"><title>Node12&#45;&gt;Node20</title>
<path fill="none" stroke="midnightblue" d="M1865.39,-112.324C1876.65,-104.107 1893.79,-91.6017 1907.21,-81.8069"/>
<polygon fill="midnightblue" stroke="midnightblue" points="1909.38,-84.5559 1915.39,-75.8339 1905.25,-78.9014 1909.38,-84.5559"/>
</g>
<!-- Node21 -->
<g id="node21" class="node"><title>Node21</title>
<polygon fill="none" stroke="#bfbfbf" points="1963.5,-56.5 1963.5,-75.5 1993.5,-75.5 1993.5,-56.5 1963.5,-56.5"/>
<text text-anchor="middle" x="1978.5" y="-63.5" font-family="Helvetica,sans-Serif" font-size="10.00">set</text>
</g>
<!-- Node12&#45;&gt;Node21 -->
<g id="edge22" class="edge"><title>Node12&#45;&gt;Node21</title>
<path fill="none" stroke="midnightblue" d="M1873.31,-112.444C1895.23,-102.972 1930.59,-87.6987 1954.18,-77.5075"/>
<polygon fill="midnightblue" stroke="midnightblue" points="1955.7,-80.6615 1963.49,-73.4826 1952.93,-74.2354 1955.7,-80.6615"/>
</g>
<!-- Node12&#45;&gt;Node22 -->
<g id="edge23" class="edge"><title>Node12&#45;&gt;Node22</title>
<path fill="none" stroke="midnightblue" d="M1812.37,-115.404C1762.98,-108.343 1677.5,-95.0399 1594.87,-75.8327"/>
<polygon fill="midnightblue" stroke="midnightblue" points="1595.61,-72.4104 1585.07,-73.5235 1594,-79.2238 1595.61,-72.4104"/>
</g>
<!-- Node23 -->
<g id="node23" class="node"><title>Node23</title>
<polygon fill="none" stroke="#bfbfbf" points="2011.5,-56.5 2011.5,-75.5 2073.5,-75.5 2073.5,-56.5 2011.5,-56.5"/>
<text text-anchor="middle" x="2042.5" y="-63.5" font-family="Helvetica,sans-Serif" font-size="10.00">type_traits</text>
</g>
<!-- Node12&#45;&gt;Node23 -->
<g id="edge24" class="edge"><title>Node12&#45;&gt;Node23</title>
<path fill="none" stroke="midnightblue" d="M1883.45,-112.444C1915.66,-103.241 1967.03,-88.5617 2002.64,-78.3879"/>
<polygon fill="midnightblue" stroke="midnightblue" points="2004.04,-81.629 2012.69,-75.5164 2002.12,-74.8984 2004.04,-81.629"/>
</g>
<!-- Node24 -->
<g id="node24" class="node"><title>Node24</title>
<polygon fill="none" stroke="#bfbfbf" points="2091.5,-56.5 2091.5,-75.5 2129.5,-75.5 2129.5,-56.5 2091.5,-56.5"/>
<text text-anchor="middle" x="2110.5" y="-63.5" font-family="Helvetica,sans-Serif" font-size="10.00">tuple</text>
</g>
<!-- Node12&#45;&gt;Node24 -->
<g id="edge25" class="edge"><title>Node12&#45;&gt;Node24</title>
<path fill="none" stroke="midnightblue" d="M1894.78,-114.386C1938.81,-107 2010.74,-93.9897 2081.35,-76.0583"/>
<polygon fill="midnightblue" stroke="midnightblue" points="2082.5,-79.3788 2091.31,-73.4956 2080.75,-72.6 2082.5,-79.3788"/>
</g>
<!-- Node25 -->
<g id="node25" class="node"><title>Node25</title>
<polygon fill="none" stroke="#bfbfbf" points="2147.5,-56.5 2147.5,-75.5 2187.5,-75.5 2187.5,-56.5 2147.5,-56.5"/>
<text text-anchor="middle" x="2167.5" y="-63.5" font-family="Helvetica,sans-Serif" font-size="10.00">utility</text>
</g>
<!-- Node12&#45;&gt;Node25 -->
<g id="edge26" class="edge"><title>Node12&#45;&gt;Node25</title>
<path fill="none" stroke="midnightblue" d="M1894.92,-116.363C1948.75,-109.921 2045.75,-96.8939 2137.33,-75.9874"/>
<polygon fill="midnightblue" stroke="midnightblue" points="2138.37,-79.3399 2147.32,-73.6706 2136.79,-72.521 2138.37,-79.3399"/>
</g>
<!-- Node12&#45;&gt;Node26 -->
<g id="edge27" class="edge"><title>Node12&#45;&gt;Node26</title>
<path fill="none" stroke="midnightblue" d="M1812.23,-116.443C1725.52,-106.868 1524.17,-84.6318 1423.71,-73.5383"/>
<polygon fill="midnightblue" stroke="midnightblue" points="1424.05,-70.0546 1413.72,-72.4357 1423.28,-77.0123 1424.05,-70.0546"/>
</g>
<!-- Node26&#45;&gt;Node27 -->
<g id="edge28" class="edge"><title>Node26&#45;&gt;Node27</title>
<path fill="none" stroke="midnightblue" d="M1357.73,-56.083C1351.94,-48.4554 1343.44,-37.2645 1336.36,-27.9408"/>
<polygon fill="midnightblue" stroke="midnightblue" points="1338.98,-25.5991 1330.14,-19.7511 1333.4,-29.8321 1338.98,-25.5991"/>
</g>
<!-- Node26&#45;&gt;Node28 -->
<g id="edge29" class="edge"><title>Node26&#45;&gt;Node28</title>
<path fill="none" stroke="midnightblue" d="M1375.59,-56.324C1385.99,-48.1849 1401.76,-35.8395 1414.22,-26.0874"/>
<polygon fill="midnightblue" stroke="midnightblue" points="1416.49,-28.7533 1422.21,-19.8339 1412.18,-23.2407 1416.49,-28.7533"/>
</g>
<!-- Node43&#45;&gt;Node31 -->
<g id="edge50" class="edge"><title>Node43&#45;&gt;Node31</title>
<path fill="none" stroke="midnightblue" d="M1220.66,-56.083C1221.58,-48.9272 1222.92,-38.6353 1224.08,-29.6911"/>
<polygon fill="midnightblue" stroke="midnightblue" points="1227.55,-30.1181 1225.37,-19.7511 1220.61,-29.2181 1227.55,-30.1181"/>
</g>
<!-- Node44&#45;&gt;Node29 -->
<g id="edge52" class="edge"><title>Node44&#45;&gt;Node29</title>
<path fill="none" stroke="midnightblue" d="M1122.46,-112.083C1125.71,-104.77 1130.42,-94.1814 1134.45,-85.1034"/>
<polygon fill="midnightblue" stroke="midnightblue" points="1137.75,-86.3107 1138.61,-75.7511 1131.35,-83.4677 1137.75,-86.3107"/>
</g>
<!-- Node44&#45;&gt;Node43 -->
<g id="edge54" class="edge"><title>Node44&#45;&gt;Node43</title>
<path fill="none" stroke="midnightblue" d="M1134.73,-112.324C1150.85,-103.703 1175.8,-90.3643 1194.46,-80.3855"/>
<polygon fill="midnightblue" stroke="midnightblue" points="1196.14,-83.456 1203.31,-75.6545 1192.84,-77.283 1196.14,-83.456"/>
</g>
<!-- Node45 -->
<g id="node45" class="node"><title>Node45</title>
<polygon fill="none" stroke="#bfbfbf" points="1043.5,-56.5 1043.5,-75.5 1105.5,-75.5 1105.5,-56.5 1043.5,-56.5"/>
<text text-anchor="middle" x="1074.5" y="-63.5" font-family="Helvetica,sans-Serif" font-size="10.00">d3d11_1.h</text>
</g>
<!-- Node44&#45;&gt;Node45 -->
<g id="edge53" class="edge"><title>Node44&#45;&gt;Node45</title>
<path fill="none" stroke="midnightblue" d="M1111.23,-112.083C1104.96,-104.377 1095.71,-93.0333 1088.07,-83.6531"/>
<polygon fill="midnightblue" stroke="midnightblue" points="1090.66,-81.2926 1081.63,-75.7511 1085.23,-85.7143 1090.66,-81.2926"/>
</g>
<!-- Node46 -->
<g id="node46" class="node"><title>Node46</title>
<polygon fill="none" stroke="#bfbfbf" points="976,-56.5 976,-75.5 1025,-75.5 1025,-56.5 976,-56.5"/>
<text text-anchor="middle" x="1000.5" y="-63.5" font-family="Helvetica,sans-Serif" font-size="10.00">stdint.h</text>
</g>
<!-- Node44&#45;&gt;Node46 -->
<g id="edge55" class="edge"><title>Node44&#45;&gt;Node46</title>
<path fill="none" stroke="midnightblue" d="M1099.8,-112.444C1080.56,-103.636 1050.35,-89.8116 1028.3,-79.722"/>
<polygon fill="midnightblue" stroke="midnightblue" points="1029.66,-76.4951 1019.11,-75.5164 1026.75,-82.8603 1029.66,-76.4951"/>
</g>
<!-- Node47&#45;&gt;Node11 -->
<g id="edge58" class="edge"><title>Node47&#45;&gt;Node11</title>
<path fill="none" stroke="midnightblue" d="M1091.7,-224.083C1088.59,-216.77 1084.08,-206.181 1080.21,-197.103"/>
<polygon fill="midnightblue" stroke="midnightblue" points="1083.37,-195.58 1076.23,-187.751 1076.93,-198.323 1083.37,-195.58"/>
</g>
<!-- Node48&#45;&gt;Node11 -->
<g id="edge61" class="edge"><title>Node48&#45;&gt;Node11</title>
<path fill="none" stroke="midnightblue" d="M1454.29,-227.17C1372.95,-216.907 1204.94,-195.71 1121.6,-185.194"/>
<polygon fill="midnightblue" stroke="midnightblue" points="1121.98,-181.715 1111.62,-183.936 1121.11,-188.66 1121.98,-181.715"/>
</g>
<!-- Node48&#45;&gt;Node12 -->
<g id="edge60" class="edge"><title>Node48&#45;&gt;Node12</title>
<path fill="none" stroke="midnightblue" d="M1527.91,-224.46C1590.59,-204.926 1744.51,-156.963 1815.95,-134.702"/>
<polygon fill="midnightblue" stroke="midnightblue" points="1817.36,-137.927 1825.87,-131.61 1815.28,-131.244 1817.36,-137.927"/>
</g>
<!-- Node49&#45;&gt;Node3 -->
<g id="edge65" class="edge"><title>Node49&#45;&gt;Node3</title>
<path fill="none" stroke="midnightblue" d="M1814.38,-280.399C1797.23,-270.773 1774.64,-258.09 1757.69,-248.577"/>
<polygon fill="midnightblue" stroke="midnightblue" points="1759.36,-245.501 1748.92,-243.658 1755.93,-251.605 1759.36,-245.501"/>
</g>
<!-- Node49&#45;&gt;Node12 -->
<g id="edge64" class="edge"><title>Node49&#45;&gt;Node12</title>
<path fill="none" stroke="midnightblue" d="M1840.65,-280.465C1843.16,-249.704 1849.15,-176.329 1851.97,-141.7"/>
<polygon fill="midnightblue" stroke="midnightblue" points="1855.48,-141.811 1852.8,-131.56 1848.5,-141.242 1855.48,-141.811"/>
</g>
<!-- Node50&#45;&gt;Node12 -->
<g id="edge67" class="edge"><title>Node50&#45;&gt;Node12</title>
<path fill="none" stroke="midnightblue" d="M1930.72,-168.324C1916.23,-159.822 1893.93,-146.729 1877.01,-136.797"/>
<polygon fill="midnightblue" stroke="midnightblue" points="1878.64,-133.698 1868.24,-131.655 1875.1,-139.735 1878.64,-133.698"/>
</g>
</g>
</svg>
