<?xml version="1.0" encoding="UTF-8" standalone="no"?>
<!DOCTYPE svg PUBLIC "-//W3C//DTD SVG 1.1//EN"
 "http://www.w3.org/Graphics/SVG/1.1/DTD/svg11.dtd">
<!-- Generated by graphviz version 2.38.0 (20140413.2041)
 -->
<!-- Title: d3dUtil::CalcConstantBufferByteSize Pages: 1 -->
<svg width="1165pt" height="104pt"
 viewBox="0.00 0.00 1165.00 104.00" xmlns="http://www.w3.org/2000/svg" xmlns:xlink="http://www.w3.org/1999/xlink">
<g id="graph0" class="graph" transform="scale(1 1) rotate(0) translate(4 100)">
<title>d3dUtil::CalcConstantBufferByteSize</title>
<!-- Node1 -->
<g id="node1" class="node"><title>Node1</title>
<polygon fill="#bfbfbf" stroke="black" points="0,-27 0,-57 136,-57 136,-27 0,-27"/>
<text text-anchor="start" x="8" y="-45" font-family="Helvetica,sans-Serif" font-size="10.00">d3dUtil::CalcConstantBuffer</text>
<text text-anchor="middle" x="68" y="-34" font-family="Helvetica,sans-Serif" font-size="10.00">ByteSize</text>
</g>
<!-- Node2 -->
<g id="node2" class="node"><title>Node2</title>
<g id="a_node2"><a xlink:href="class_direct_x_renderer.html#a09278f83b0f7f134871bb21c72e07587" target="_top" xlink:title="DirectXRenderer::create\l_constant_buffers">
<polygon fill="none" stroke="black" points="189,-52 189,-82 308,-82 308,-52 189,-52"/>
<text text-anchor="start" x="197" y="-70" font-family="Helvetica,sans-Serif" font-size="10.00">DirectXRenderer::create</text>
<text text-anchor="middle" x="248.5" y="-59" font-family="Helvetica,sans-Serif" font-size="10.00">_constant_buffers</text>
</a>
</g>
</g>
<!-- Node1&#45;&gt;Node2 -->
<g id="edge1" class="edge"><title>Node1&#45;&gt;Node2</title>
<path fill="none" stroke="midnightblue" d="M146.476,-52.851C160.676,-54.8398 175.281,-56.8853 188.818,-58.7813"/>
<polygon fill="midnightblue" stroke="midnightblue" points="146.618,-49.3367 136.229,-51.4158 145.647,-56.2691 146.618,-49.3367"/>
</g>
<!-- Node11 -->
<g id="node11" class="node"><title>Node11</title>
<g id="a_node11"><a xlink:href="class_upload_buffer.html#a622fad9645e52e4d6074a2e533165855" target="_top" xlink:title="UploadBuffer\&lt; ObjectConstants\l \&gt;::UploadBuffer">
<polygon fill="none" stroke="black" points="172,-3 172,-33 325,-33 325,-3 172,-3"/>
<text text-anchor="start" x="180" y="-21" font-family="Helvetica,sans-Serif" font-size="10.00">UploadBuffer&lt; ObjectConstants</text>
<text text-anchor="middle" x="248.5" y="-10" font-family="Helvetica,sans-Serif" font-size="10.00"> &gt;::UploadBuffer</text>
</a>
</g>
</g>
<!-- Node1&#45;&gt;Node11 -->
<g id="edge13" class="edge"><title>Node1&#45;&gt;Node11</title>
<path fill="none" stroke="midnightblue" d="M146.176,-31.6234C154.725,-30.474 163.424,-29.3043 171.953,-28.1576"/>
<polygon fill="midnightblue" stroke="midnightblue" points="145.673,-28.1594 136.229,-32.9608 146.606,-35.097 145.673,-28.1594"/>
</g>
<!-- Node3 -->
<g id="node3" class="node"><title>Node3</title>
<g id="a_node3"><a xlink:href="class_direct_x_renderer.html#a0d6aef4c838ac765f726391ee65c346c" target="_top" xlink:title="DirectXRenderer::initialize\l_direct3d">
<polygon fill="none" stroke="black" points="361,-52 361,-82 489,-82 489,-52 361,-52"/>
<text text-anchor="start" x="369" y="-70" font-family="Helvetica,sans-Serif" font-size="10.00">DirectXRenderer::initialize</text>
<text text-anchor="middle" x="425" y="-59" font-family="Helvetica,sans-Serif" font-size="10.00">_direct3d</text>
</a>
</g>
</g>
<!-- Node2&#45;&gt;Node3 -->
<g id="edge2" class="edge"><title>Node2&#45;&gt;Node3</title>
<path fill="none" stroke="midnightblue" d="M318.175,-67C332.217,-67 346.933,-67 360.773,-67"/>
<polygon fill="midnightblue" stroke="midnightblue" points="318.091,-63.5001 308.091,-67 318.091,-70.5001 318.091,-63.5001"/>
</g>
<!-- Node4 -->
<g id="node4" class="node"><title>Node4</title>
<g id="a_node4"><a xlink:href="classengine.html#a8b8dd82e72fd73e0601c30041529c4c0" target="_top" xlink:title="engine::_initialize">
<polygon fill="none" stroke="black" points="525,-57.5 525,-76.5 617,-76.5 617,-57.5 525,-57.5"/>
<text text-anchor="middle" x="571" y="-64.5" font-family="Helvetica,sans-Serif" font-size="10.00">engine::_initialize</text>
</a>
</g>
</g>
<!-- Node3&#45;&gt;Node4 -->
<g id="edge3" class="edge"><title>Node3&#45;&gt;Node4</title>
<path fill="none" stroke="midnightblue" d="M499.283,-67C507.922,-67 516.536,-67 524.627,-67"/>
<polygon fill="midnightblue" stroke="midnightblue" points="499.161,-63.5001 489.16,-67 499.16,-70.5001 499.161,-63.5001"/>
</g>
<!-- Node5 -->
<g id="node5" class="node"><title>Node5</title>
<g id="a_node5"><a xlink:href="classengine.html#a6809dcdfe78011851e377d4729a87ee4" target="_top" xlink:title="engine::initialize">
<polygon fill="none" stroke="black" points="653,-76.5 653,-95.5 739,-95.5 739,-76.5 653,-76.5"/>
<text text-anchor="middle" x="696" y="-83.5" font-family="Helvetica,sans-Serif" font-size="10.00">engine::initialize</text>
</a>
</g>
</g>
<!-- Node4&#45;&gt;Node5 -->
<g id="edge4" class="edge"><title>Node4&#45;&gt;Node5</title>
<path fill="none" stroke="midnightblue" d="M627.097,-75.5109C635.712,-76.8417 644.497,-78.1987 652.765,-79.4758"/>
<polygon fill="midnightblue" stroke="midnightblue" points="627.519,-72.0347 617.102,-73.967 626.451,-78.9527 627.519,-72.0347"/>
</g>
<!-- Node6 -->
<g id="node6" class="node"><title>Node6</title>
<g id="a_node6"><a xlink:href="classengine.html#ada832d0a14502f1b99fdbd5c72cab01b" target="_top" xlink:title="engine::Draw">
<polygon fill="none" stroke="black" points="659.5,-38.5 659.5,-57.5 732.5,-57.5 732.5,-38.5 659.5,-38.5"/>
<text text-anchor="middle" x="696" y="-45.5" font-family="Helvetica,sans-Serif" font-size="10.00">engine::Draw</text>
</a>
</g>
</g>
<!-- Node4&#45;&gt;Node6 -->
<g id="edge5" class="edge"><title>Node4&#45;&gt;Node6</title>
<path fill="none" stroke="midnightblue" d="M626.998,-58.5044C637.9,-56.8203 649.079,-55.0935 659.142,-53.5391"/>
<polygon fill="midnightblue" stroke="midnightblue" points="626.451,-55.0473 617.102,-60.033 627.519,-61.9653 626.451,-55.0473"/>
</g>
<!-- Node7 -->
<g id="node7" class="node"><title>Node7</title>
<g id="a_node7"><a xlink:href="classengine.html#a90418b124cd07d7d2f057e7d401ed641" target="_top" xlink:title="engine::_tick">
<polygon fill="none" stroke="black" points="775,-57.5 775,-76.5 847,-76.5 847,-57.5 775,-57.5"/>
<text text-anchor="middle" x="811" y="-64.5" font-family="Helvetica,sans-Serif" font-size="10.00">engine::_tick</text>
</a>
</g>
</g>
<!-- Node6&#45;&gt;Node7 -->
<g id="edge6" class="edge"><title>Node6&#45;&gt;Node7</title>
<path fill="none" stroke="midnightblue" d="M742.921,-49.0775C757.923,-51.2953 773.957,-54.3417 786.586,-57.4705"/>
<polygon fill="midnightblue" stroke="midnightblue" points="743.137,-45.5744 732.754,-47.6836 742.186,-52.5095 743.137,-45.5744"/>
</g>
<!-- Node7&#45;&gt;Node6 -->
<g id="edge12" class="edge"><title>Node7&#45;&gt;Node6</title>
<path fill="none" stroke="midnightblue" d="M764.371,-65.9655C749.285,-63.7442 733.125,-60.6786 720.414,-57.5295"/>
<polygon fill="midnightblue" stroke="midnightblue" points="764.206,-69.4754 774.588,-67.3592 765.152,-62.5397 764.206,-69.4754"/>
</g>
<!-- Node8 -->
<g id="node8" class="node"><title>Node8</title>
<g id="a_node8"><a xlink:href="classengine.html#a4bca5e9257e46c09a63f71227fc25a12" target="_top" xlink:title="engine::tick">
<polygon fill="none" stroke="black" points="883,-19.5 883,-38.5 950,-38.5 950,-19.5 883,-19.5"/>
<text text-anchor="middle" x="916.5" y="-26.5" font-family="Helvetica,sans-Serif" font-size="10.00">engine::tick</text>
</a>
</g>
</g>
<!-- Node7&#45;&gt;Node8 -->
<g id="edge7" class="edge"><title>Node7&#45;&gt;Node8</title>
<path fill="none" stroke="midnightblue" d="M847.729,-53.882C861.418,-48.8561 876.767,-43.2209 889.391,-38.5859"/>
<polygon fill="midnightblue" stroke="midnightblue" points="846.298,-50.6788 838.117,-57.411 848.711,-57.2499 846.298,-50.6788"/>
</g>
<!-- Node8&#45;&gt;Node6 -->
<g id="edge11" class="edge"><title>Node8&#45;&gt;Node6</title>
<path fill="none" stroke="midnightblue" d="M872.585,-32.7318C831.696,-36.2873 770.86,-41.5774 732.592,-44.905"/>
<polygon fill="midnightblue" stroke="midnightblue" points="873.122,-36.1984 882.781,-31.8451 872.515,-29.2247 873.122,-36.1984"/>
</g>
<!-- Node9 -->
<g id="node9" class="node"><title>Node9</title>
<g id="a_node9"><a xlink:href="classengine.html#a1d9b806d03be0255a8ac3c119e181cc5" target="_top" xlink:title="engine::_run">
<polygon fill="none" stroke="black" points="986,-0.5 986,-19.5 1056,-19.5 1056,-0.5 986,-0.5"/>
<text text-anchor="middle" x="1021" y="-7.5" font-family="Helvetica,sans-Serif" font-size="10.00">engine::_run</text>
</a>
</g>
</g>
<!-- Node8&#45;&gt;Node9 -->
<g id="edge8" class="edge"><title>Node8&#45;&gt;Node9</title>
<path fill="none" stroke="midnightblue" d="M960.077,-21.1076C968.662,-19.5164 977.581,-17.8631 985.832,-16.3335"/>
<polygon fill="midnightblue" stroke="midnightblue" points="959.408,-17.672 950.213,-22.936 960.684,-24.5547 959.408,-17.672"/>
</g>
<!-- Node9&#45;&gt;Node6 -->
<g id="edge10" class="edge"><title>Node9&#45;&gt;Node6</title>
<path fill="none" stroke="midnightblue" d="M975.606,-7.84934C948.741,-7.08197 913.829,-7.03059 883,-10 834.326,-14.6883 822.892,-21.1262 775,-31 761.154,-33.8545 745.959,-37.1331 732.688,-40.0447"/>
<polygon fill="midnightblue" stroke="midnightblue" points="975.741,-11.3556 985.851,-8.1874 975.972,-4.35941 975.741,-11.3556"/>
</g>
<!-- Node10 -->
<g id="node10" class="node"><title>Node10</title>
<g id="a_node10"><a xlink:href="classengine.html#aecb22d51cc8f83cacbf3696a18d66c30" target="_top" xlink:title="engine::run">
<polygon fill="none" stroke="black" points="1092,-0.5 1092,-19.5 1157,-19.5 1157,-0.5 1092,-0.5"/>
<text text-anchor="middle" x="1124.5" y="-7.5" font-family="Helvetica,sans-Serif" font-size="10.00">engine::run</text>
</a>
</g>
</g>
<!-- Node9&#45;&gt;Node10 -->
<g id="edge9" class="edge"><title>Node9&#45;&gt;Node10</title>
<path fill="none" stroke="midnightblue" d="M1066.33,-10C1074.88,-10 1083.68,-10 1091.74,-10"/>
<polygon fill="midnightblue" stroke="midnightblue" points="1066.08,-6.5001 1056.08,-10 1066.08,-13.5001 1066.08,-6.5001"/>
</g>
</g>
</svg>
