<?xml version="1.0" encoding="UTF-8" standalone="no"?>
<!DOCTYPE svg PUBLIC "-//W3C//DTD SVG 1.1//EN"
 "http://www.w3.org/Graphics/SVG/1.1/DTD/svg11.dtd">
<!-- Generated by graphviz version 2.38.0 (20140413.2041)
 -->
<!-- Title: GameTimer::end_render_timer Pages: 1 -->
<svg width="555pt" height="119pt"
 viewBox="0.00 0.00 555.00 118.50" xmlns="http://www.w3.org/2000/svg" xmlns:xlink="http://www.w3.org/1999/xlink">
<g id="graph0" class="graph" transform="scale(1 1) rotate(0) translate(4 114.5)">
<title>GameTimer::end_render_timer</title>
<!-- Node1 -->
<g id="node1" class="node"><title>Node1</title>
<polygon fill="#bfbfbf" stroke="black" points="0,-0.5 0,-30.5 121,-30.5 121,-0.5 0,-0.5"/>
<text text-anchor="start" x="8" y="-18.5" font-family="Helvetica,sans-Serif" font-size="10.00">GameTimer::end_render</text>
<text text-anchor="middle" x="60.5" y="-7.5" font-family="Helvetica,sans-Serif" font-size="10.00">_timer</text>
</g>
<!-- Node2 -->
<g id="node2" class="node"><title>Node2</title>
<g id="a_node2"><a xlink:href="classengine.html#a90418b124cd07d7d2f057e7d401ed641" target="_top" xlink:title="engine::_tick">
<polygon fill="none" stroke="black" points="157,-6 157,-25 229,-25 229,-6 157,-6"/>
<text text-anchor="middle" x="193" y="-13" font-family="Helvetica,sans-Serif" font-size="10.00">engine::_tick</text>
</a>
</g>
</g>
<!-- Node1&#45;&gt;Node2 -->
<g id="edge1" class="edge"><title>Node1&#45;&gt;Node2</title>
<path fill="none" stroke="midnightblue" d="M131.083,-15.5C139.985,-15.5 148.78,-15.5 156.799,-15.5"/>
<polygon fill="midnightblue" stroke="midnightblue" points="131.022,-12.0001 121.022,-15.5 131.022,-19.0001 131.022,-12.0001"/>
</g>
<!-- Node3 -->
<g id="node3" class="node"><title>Node3</title>
<g id="a_node3"><a xlink:href="classengine.html#a4bca5e9257e46c09a63f71227fc25a12" target="_top" xlink:title="engine::tick">
<polygon fill="none" stroke="black" points="265,-53 265,-72 332,-72 332,-53 265,-53"/>
<text text-anchor="middle" x="298.5" y="-60" font-family="Helvetica,sans-Serif" font-size="10.00">engine::tick</text>
</a>
</g>
</g>
<!-- Node2&#45;&gt;Node3 -->
<g id="edge2" class="edge"><title>Node2&#45;&gt;Node3</title>
<path fill="none" stroke="midnightblue" d="M224.277,-29.2491C240.952,-36.8212 261.242,-46.035 276.231,-52.8417"/>
<polygon fill="midnightblue" stroke="midnightblue" points="225.497,-25.9591 214.945,-25.0112 222.603,-32.3327 225.497,-25.9591"/>
</g>
<!-- Node6 -->
<g id="node6" class="node"><title>Node6</title>
<g id="a_node6"><a xlink:href="classengine.html#ada832d0a14502f1b99fdbd5c72cab01b" target="_top" xlink:title="engine::Draw">
<polygon fill="none" stroke="black" points="474,-29 474,-48 547,-48 547,-29 474,-29"/>
<text text-anchor="middle" x="510.5" y="-36" font-family="Helvetica,sans-Serif" font-size="10.00">engine::Draw</text>
</a>
</g>
</g>
<!-- Node2&#45;&gt;Node6 -->
<g id="edge8" class="edge"><title>Node2&#45;&gt;Node6</title>
<path fill="none" stroke="midnightblue" d="M239.368,-13.9C302.723,-15.9209 416.381,-24.3554 473.971,-31.449"/>
<polygon fill="midnightblue" stroke="midnightblue" points="239.366,-10.3987 229.273,-13.6234 239.174,-17.3961 239.366,-10.3987"/>
</g>
<!-- Node4 -->
<g id="node4" class="node"><title>Node4</title>
<g id="a_node4"><a xlink:href="classengine.html#a1d9b806d03be0255a8ac3c119e181cc5" target="_top" xlink:title="engine::_run">
<polygon fill="none" stroke="black" points="368,-91 368,-110 438,-110 438,-91 368,-91"/>
<text text-anchor="middle" x="403" y="-98" font-family="Helvetica,sans-Serif" font-size="10.00">engine::_run</text>
</a>
</g>
</g>
<!-- Node3&#45;&gt;Node4 -->
<g id="edge3" class="edge"><title>Node3&#45;&gt;Node4</title>
<path fill="none" stroke="midnightblue" d="M334.884,-75.618C348.441,-80.6439 363.641,-86.2791 376.143,-90.9141"/>
<polygon fill="midnightblue" stroke="midnightblue" points="335.958,-72.2835 325.365,-72.089 333.525,-78.8469 335.958,-72.2835"/>
</g>
<!-- Node3&#45;&gt;Node6 -->
<g id="edge7" class="edge"><title>Node3&#45;&gt;Node6</title>
<path fill="none" stroke="midnightblue" d="M342.739,-57.5584C381.447,-53.1346 437.53,-46.7252 473.757,-42.5849"/>
<polygon fill="midnightblue" stroke="midnightblue" points="341.85,-54.1371 332.313,-58.75 342.645,-61.0918 341.85,-54.1371"/>
</g>
<!-- Node5 -->
<g id="node5" class="node"><title>Node5</title>
<g id="a_node5"><a xlink:href="classengine.html#aecb22d51cc8f83cacbf3696a18d66c30" target="_top" xlink:title="engine::run">
<polygon fill="none" stroke="black" points="478,-91 478,-110 543,-110 543,-91 478,-91"/>
<text text-anchor="middle" x="510.5" y="-98" font-family="Helvetica,sans-Serif" font-size="10.00">engine::run</text>
</a>
</g>
</g>
<!-- Node4&#45;&gt;Node5 -->
<g id="edge4" class="edge"><title>Node4&#45;&gt;Node5</title>
<path fill="none" stroke="midnightblue" d="M448.387,-100.5C458.311,-100.5 468.639,-100.5 477.92,-100.5"/>
<polygon fill="midnightblue" stroke="midnightblue" points="448.253,-97.0001 438.253,-100.5 448.253,-104 448.253,-97.0001"/>
</g>
<!-- Node4&#45;&gt;Node6 -->
<g id="edge5" class="edge"><title>Node4&#45;&gt;Node6</title>
<path fill="none" stroke="midnightblue" d="M429.288,-85.6387C449.095,-73.9984 476.066,-58.1485 493.131,-48.1195"/>
<polygon fill="midnightblue" stroke="midnightblue" points="427.332,-82.7283 420.484,-90.8125 430.879,-88.7633 427.332,-82.7283"/>
</g>
<!-- Node6&#45;&gt;Node2 -->
<g id="edge6" class="edge"><title>Node6&#45;&gt;Node2</title>
<path fill="none" stroke="midnightblue" d="M463.85,-40.091C400.347,-38.0511 286.698,-29.6091 229.273,-22.5194"/>
<polygon fill="midnightblue" stroke="midnightblue" points="463.878,-43.593 473.971,-40.3708 464.072,-36.5957 463.878,-43.593"/>
</g>
</g>
</svg>
