<?xml version="1.0" encoding="UTF-8" standalone="no"?>
<!DOCTYPE svg PUBLIC "-//W3C//DTD SVG 1.1//EN"
 "http://www.w3.org/Graphics/SVG/1.1/DTD/svg11.dtd">
<!-- Generated by graphviz version 2.38.0 (20140413.2041)
 -->
<!-- Title: GameTimer::start_new_idle_interval Pages: 1 -->
<svg width="549pt" height="119pt"
 viewBox="0.00 0.00 549.00 118.50" xmlns="http://www.w3.org/2000/svg" xmlns:xlink="http://www.w3.org/1999/xlink">
<g id="graph0" class="graph" transform="scale(1 1) rotate(0) translate(4 114.5)">
<title>GameTimer::start_new_idle_interval</title>
<!-- Node1 -->
<g id="node1" class="node"><title>Node1</title>
<polygon fill="#bfbfbf" stroke="black" points="0,-0.5 0,-30.5 115,-30.5 115,-0.5 0,-0.5"/>
<text text-anchor="start" x="8" y="-18.5" font-family="Helvetica,sans-Serif" font-size="10.00">GameTimer::start_new</text>
<text text-anchor="middle" x="57.5" y="-7.5" font-family="Helvetica,sans-Serif" font-size="10.00">_idle_interval</text>
</g>
<!-- Node2 -->
<g id="node2" class="node"><title>Node2</title>
<g id="a_node2"><a xlink:href="classengine.html#a90418b124cd07d7d2f057e7d401ed641" target="_top" xlink:title="engine::_tick">
<polygon fill="none" stroke="black" points="151,-6 151,-25 223,-25 223,-6 151,-6"/>
<text text-anchor="middle" x="187" y="-13" font-family="Helvetica,sans-Serif" font-size="10.00">engine::_tick</text>
</a>
</g>
</g>
<!-- Node1&#45;&gt;Node2 -->
<g id="edge1" class="edge"><title>Node1&#45;&gt;Node2</title>
<path fill="none" stroke="midnightblue" d="M125.421,-15.5C134.16,-15.5 142.819,-15.5 150.739,-15.5"/>
<polygon fill="midnightblue" stroke="midnightblue" points="125.166,-12.0001 115.166,-15.5 125.166,-19.0001 125.166,-12.0001"/>
</g>
<!-- Node3 -->
<g id="node3" class="node"><title>Node3</title>
<g id="a_node3"><a xlink:href="classengine.html#a4bca5e9257e46c09a63f71227fc25a12" target="_top" xlink:title="engine::tick">
<polygon fill="none" stroke="black" points="259,-53 259,-72 326,-72 326,-53 259,-53"/>
<text text-anchor="middle" x="292.5" y="-60" font-family="Helvetica,sans-Serif" font-size="10.00">engine::tick</text>
</a>
</g>
</g>
<!-- Node2&#45;&gt;Node3 -->
<g id="edge2" class="edge"><title>Node2&#45;&gt;Node3</title>
<path fill="none" stroke="midnightblue" d="M218.277,-29.2491C234.952,-36.8212 255.242,-46.035 270.231,-52.8417"/>
<polygon fill="midnightblue" stroke="midnightblue" points="219.497,-25.9591 208.945,-25.0112 216.603,-32.3327 219.497,-25.9591"/>
</g>
<!-- Node6 -->
<g id="node6" class="node"><title>Node6</title>
<g id="a_node6"><a xlink:href="classengine.html#ada832d0a14502f1b99fdbd5c72cab01b" target="_top" xlink:title="engine::Draw">
<polygon fill="none" stroke="black" points="468,-29 468,-48 541,-48 541,-29 468,-29"/>
<text text-anchor="middle" x="504.5" y="-36" font-family="Helvetica,sans-Serif" font-size="10.00">engine::Draw</text>
</a>
</g>
</g>
<!-- Node2&#45;&gt;Node6 -->
<g id="edge8" class="edge"><title>Node2&#45;&gt;Node6</title>
<path fill="none" stroke="midnightblue" d="M233.368,-13.9C296.723,-15.9209 410.381,-24.3554 467.971,-31.449"/>
<polygon fill="midnightblue" stroke="midnightblue" points="233.366,-10.3987 223.273,-13.6234 233.174,-17.3961 233.366,-10.3987"/>
</g>
<!-- Node4 -->
<g id="node4" class="node"><title>Node4</title>
<g id="a_node4"><a xlink:href="classengine.html#a1d9b806d03be0255a8ac3c119e181cc5" target="_top" xlink:title="engine::_run">
<polygon fill="none" stroke="black" points="362,-91 362,-110 432,-110 432,-91 362,-91"/>
<text text-anchor="middle" x="397" y="-98" font-family="Helvetica,sans-Serif" font-size="10.00">engine::_run</text>
</a>
</g>
</g>
<!-- Node3&#45;&gt;Node4 -->
<g id="edge3" class="edge"><title>Node3&#45;&gt;Node4</title>
<path fill="none" stroke="midnightblue" d="M328.884,-75.618C342.441,-80.6439 357.641,-86.2791 370.143,-90.9141"/>
<polygon fill="midnightblue" stroke="midnightblue" points="329.958,-72.2835 319.365,-72.089 327.525,-78.8469 329.958,-72.2835"/>
</g>
<!-- Node3&#45;&gt;Node6 -->
<g id="edge7" class="edge"><title>Node3&#45;&gt;Node6</title>
<path fill="none" stroke="midnightblue" d="M336.739,-57.5584C375.447,-53.1346 431.53,-46.7252 467.757,-42.5849"/>
<polygon fill="midnightblue" stroke="midnightblue" points="335.85,-54.1371 326.313,-58.75 336.645,-61.0918 335.85,-54.1371"/>
</g>
<!-- Node5 -->
<g id="node5" class="node"><title>Node5</title>
<g id="a_node5"><a xlink:href="classengine.html#aecb22d51cc8f83cacbf3696a18d66c30" target="_top" xlink:title="engine::run">
<polygon fill="none" stroke="black" points="472,-91 472,-110 537,-110 537,-91 472,-91"/>
<text text-anchor="middle" x="504.5" y="-98" font-family="Helvetica,sans-Serif" font-size="10.00">engine::run</text>
</a>
</g>
</g>
<!-- Node4&#45;&gt;Node5 -->
<g id="edge4" class="edge"><title>Node4&#45;&gt;Node5</title>
<path fill="none" stroke="midnightblue" d="M442.387,-100.5C452.311,-100.5 462.639,-100.5 471.92,-100.5"/>
<polygon fill="midnightblue" stroke="midnightblue" points="442.253,-97.0001 432.253,-100.5 442.253,-104 442.253,-97.0001"/>
</g>
<!-- Node4&#45;&gt;Node6 -->
<g id="edge5" class="edge"><title>Node4&#45;&gt;Node6</title>
<path fill="none" stroke="midnightblue" d="M423.288,-85.6387C443.095,-73.9984 470.066,-58.1485 487.131,-48.1195"/>
<polygon fill="midnightblue" stroke="midnightblue" points="421.332,-82.7283 414.484,-90.8125 424.879,-88.7633 421.332,-82.7283"/>
</g>
<!-- Node6&#45;&gt;Node2 -->
<g id="edge6" class="edge"><title>Node6&#45;&gt;Node2</title>
<path fill="none" stroke="midnightblue" d="M457.85,-40.091C394.347,-38.0511 280.698,-29.6091 223.273,-22.5194"/>
<polygon fill="midnightblue" stroke="midnightblue" points="457.878,-43.593 467.971,-40.3708 458.072,-36.5957 457.878,-43.593"/>
</g>
</g>
</svg>
