<?xml version="1.0" encoding="UTF-8" standalone="no"?>
<!DOCTYPE svg PUBLIC "-//W3C//DTD SVG 1.1//EN"
 "http://www.w3.org/Graphics/SVG/1.1/DTD/svg11.dtd">
<!-- Generated by graphviz version 2.38.0 (20140413.2041)
 -->
<!-- Title: engine::Update Pages: 1 -->
<svg width="516pt" height="113pt"
 viewBox="0.00 0.00 516.00 113.00" xmlns="http://www.w3.org/2000/svg" xmlns:xlink="http://www.w3.org/1999/xlink">
<g id="graph0" class="graph" transform="scale(1 1) rotate(0) translate(4 109)">
<title>engine::Update</title>
<!-- Node1 -->
<g id="node1" class="node"><title>Node1</title>
<polygon fill="#bfbfbf" stroke="black" points="0,-0.5 0,-19.5 82,-19.5 82,-0.5 0,-0.5"/>
<text text-anchor="middle" x="41" y="-7.5" font-family="Helvetica,sans-Serif" font-size="10.00">engine::Update</text>
</g>
<!-- Node2 -->
<g id="node2" class="node"><title>Node2</title>
<g id="a_node2"><a xlink:href="classengine.html#a90418b124cd07d7d2f057e7d401ed641" target="_top" xlink:title="engine::_tick">
<polygon fill="none" stroke="black" points="118,-0.5 118,-19.5 190,-19.5 190,-0.5 118,-0.5"/>
<text text-anchor="middle" x="154" y="-7.5" font-family="Helvetica,sans-Serif" font-size="10.00">engine::_tick</text>
</a>
</g>
</g>
<!-- Node1&#45;&gt;Node2 -->
<g id="edge1" class="edge"><title>Node1&#45;&gt;Node2</title>
<path fill="none" stroke="midnightblue" d="M92.1076,-10C100.768,-10 109.605,-10 117.765,-10"/>
<polygon fill="midnightblue" stroke="midnightblue" points="92.0736,-6.5001 82.0735,-10 92.0735,-13.5001 92.0736,-6.5001"/>
</g>
<!-- Node3 -->
<g id="node3" class="node"><title>Node3</title>
<g id="a_node3"><a xlink:href="classengine.html#a4bca5e9257e46c09a63f71227fc25a12" target="_top" xlink:title="engine::tick">
<polygon fill="none" stroke="black" points="226,-47.5 226,-66.5 293,-66.5 293,-47.5 226,-47.5"/>
<text text-anchor="middle" x="259.5" y="-54.5" font-family="Helvetica,sans-Serif" font-size="10.00">engine::tick</text>
</a>
</g>
</g>
<!-- Node2&#45;&gt;Node3 -->
<g id="edge2" class="edge"><title>Node2&#45;&gt;Node3</title>
<path fill="none" stroke="midnightblue" d="M185.277,-23.7491C201.952,-31.3212 222.242,-40.535 237.231,-47.3417"/>
<polygon fill="midnightblue" stroke="midnightblue" points="186.497,-20.4591 175.945,-19.5112 183.603,-26.8327 186.497,-20.4591"/>
</g>
<!-- Node6 -->
<g id="node6" class="node"><title>Node6</title>
<g id="a_node6"><a xlink:href="classengine.html#ada832d0a14502f1b99fdbd5c72cab01b" target="_top" xlink:title="engine::Draw">
<polygon fill="none" stroke="black" points="435,-23.5 435,-42.5 508,-42.5 508,-23.5 435,-23.5"/>
<text text-anchor="middle" x="471.5" y="-30.5" font-family="Helvetica,sans-Serif" font-size="10.00">engine::Draw</text>
</a>
</g>
</g>
<!-- Node2&#45;&gt;Node6 -->
<g id="edge8" class="edge"><title>Node2&#45;&gt;Node6</title>
<path fill="none" stroke="midnightblue" d="M200.368,-8.4C263.723,-10.4209 377.381,-18.8554 434.971,-25.949"/>
<polygon fill="midnightblue" stroke="midnightblue" points="200.366,-4.89871 190.273,-8.12345 200.174,-11.8961 200.366,-4.89871"/>
</g>
<!-- Node4 -->
<g id="node4" class="node"><title>Node4</title>
<g id="a_node4"><a xlink:href="classengine.html#a1d9b806d03be0255a8ac3c119e181cc5" target="_top" xlink:title="engine::_run">
<polygon fill="none" stroke="black" points="329,-85.5 329,-104.5 399,-104.5 399,-85.5 329,-85.5"/>
<text text-anchor="middle" x="364" y="-92.5" font-family="Helvetica,sans-Serif" font-size="10.00">engine::_run</text>
</a>
</g>
</g>
<!-- Node3&#45;&gt;Node4 -->
<g id="edge3" class="edge"><title>Node3&#45;&gt;Node4</title>
<path fill="none" stroke="midnightblue" d="M295.884,-70.118C309.441,-75.1439 324.641,-80.7791 337.143,-85.4141"/>
<polygon fill="midnightblue" stroke="midnightblue" points="296.958,-66.7835 286.365,-66.589 294.525,-73.3469 296.958,-66.7835"/>
</g>
<!-- Node3&#45;&gt;Node6 -->
<g id="edge7" class="edge"><title>Node3&#45;&gt;Node6</title>
<path fill="none" stroke="midnightblue" d="M303.739,-52.0584C342.447,-47.6346 398.53,-41.2252 434.757,-37.0849"/>
<polygon fill="midnightblue" stroke="midnightblue" points="302.85,-48.6371 293.313,-53.25 303.645,-55.5918 302.85,-48.6371"/>
</g>
<!-- Node5 -->
<g id="node5" class="node"><title>Node5</title>
<g id="a_node5"><a xlink:href="classengine.html#aecb22d51cc8f83cacbf3696a18d66c30" target="_top" xlink:title="engine::run">
<polygon fill="none" stroke="black" points="439,-85.5 439,-104.5 504,-104.5 504,-85.5 439,-85.5"/>
<text text-anchor="middle" x="471.5" y="-92.5" font-family="Helvetica,sans-Serif" font-size="10.00">engine::run</text>
</a>
</g>
</g>
<!-- Node4&#45;&gt;Node5 -->
<g id="edge4" class="edge"><title>Node4&#45;&gt;Node5</title>
<path fill="none" stroke="midnightblue" d="M409.387,-95C419.311,-95 429.639,-95 438.92,-95"/>
<polygon fill="midnightblue" stroke="midnightblue" points="409.253,-91.5001 399.253,-95 409.253,-98.5001 409.253,-91.5001"/>
</g>
<!-- Node4&#45;&gt;Node6 -->
<g id="edge5" class="edge"><title>Node4&#45;&gt;Node6</title>
<path fill="none" stroke="midnightblue" d="M390.288,-80.1387C410.095,-68.4984 437.066,-52.6485 454.131,-42.6195"/>
<polygon fill="midnightblue" stroke="midnightblue" points="388.332,-77.2283 381.484,-85.3125 391.879,-83.2633 388.332,-77.2283"/>
</g>
<!-- Node6&#45;&gt;Node2 -->
<g id="edge6" class="edge"><title>Node6&#45;&gt;Node2</title>
<path fill="none" stroke="midnightblue" d="M424.85,-34.591C361.347,-32.5511 247.698,-24.1091 190.273,-17.0194"/>
<polygon fill="midnightblue" stroke="midnightblue" points="424.878,-38.093 434.971,-34.8708 425.072,-31.0957 424.878,-38.093"/>
</g>
</g>
</svg>
