<?xml version="1.0" encoding="UTF-8" standalone="no"?>
<!DOCTYPE svg PUBLIC "-//W3C//DTD SVG 1.1//EN"
 "http://www.w3.org/Graphics/SVG/1.1/DTD/svg11.dtd">
<!-- Generated by graphviz version 2.38.0 (20140413.2041)
 -->
<!-- Title: DirectXRenderer::create_constant_buffers Pages: 1 -->
<svg width="471pt" height="104pt"
 viewBox="0.00 0.00 471.00 104.00" xmlns="http://www.w3.org/2000/svg" xmlns:xlink="http://www.w3.org/1999/xlink">
<g id="graph0" class="graph" transform="scale(1 1) rotate(0) translate(4 100)">
<title>DirectXRenderer::create_constant_buffers</title>
<!-- Node1 -->
<g id="node1" class="node"><title>Node1</title>
<polygon fill="#bfbfbf" stroke="black" points="0,-33 0,-63 119,-63 119,-33 0,-33"/>
<text text-anchor="start" x="8" y="-51" font-family="Helvetica,sans-Serif" font-size="10.00">DirectXRenderer::create</text>
<text text-anchor="middle" x="59.5" y="-40" font-family="Helvetica,sans-Serif" font-size="10.00">_constant_buffers</text>
</g>
<!-- Node2 -->
<g id="node2" class="node"><title>Node2</title>
<g id="a_node2"><a xlink:href="classd3d_util.html#a0883e0848cae813b2bc71570f3303e92" target="_top" xlink:title="d3dUtil::CalcConstantBuffer\lByteSize">
<polygon fill="none" stroke="black" points="155,-33 155,-63 291,-63 291,-33 155,-33"/>
<text text-anchor="start" x="163" y="-51" font-family="Helvetica,sans-Serif" font-size="10.00">d3dUtil::CalcConstantBuffer</text>
<text text-anchor="middle" x="223" y="-40" font-family="Helvetica,sans-Serif" font-size="10.00">ByteSize</text>
</a>
</g>
</g>
<!-- Node1&#45;&gt;Node2 -->
<g id="edge1" class="edge"><title>Node1&#45;&gt;Node2</title>
<path fill="none" stroke="midnightblue" d="M119.262,-48C127.559,-48 136.192,-48 144.772,-48"/>
<polygon fill="midnightblue" stroke="midnightblue" points="144.796,-51.5001 154.796,-48 144.796,-44.5001 144.796,-51.5001"/>
</g>
<!-- Node3 -->
<g id="node3" class="node"><title>Node3</title>
<g id="a_node3"><a xlink:href="classd3d_util.html#a374c360bb2668c34223e74fbf0f1402b" target="_top" xlink:title="d3dUtil::LoadBinary">
<polygon fill="none" stroke="black" points="344.5,-76.5 344.5,-95.5 445.5,-95.5 445.5,-76.5 344.5,-76.5"/>
<text text-anchor="middle" x="395" y="-83.5" font-family="Helvetica,sans-Serif" font-size="10.00">d3dUtil::LoadBinary</text>
</a>
</g>
</g>
<!-- Node2&#45;&gt;Node3 -->
<g id="edge2" class="edge"><title>Node2&#45;&gt;Node3</title>
<path fill="none" stroke="midnightblue" d="M291.189,-63.0186C307.785,-66.7285 325.331,-70.6504 341.137,-74.1836"/>
<polygon fill="midnightblue" stroke="midnightblue" points="340.723,-77.6774 351.246,-76.4432 342.25,-70.8459 340.723,-77.6774"/>
</g>
<!-- Node4 -->
<g id="node4" class="node"><title>Node4</title>
<g id="a_node4"><a xlink:href="classd3d_util.html#ae4a68e5b73f032619ee5c2db64f57899" target="_top" xlink:title="d3dUtil::CreateDefaultBuffer">
<polygon fill="none" stroke="black" points="327,-38.5 327,-57.5 463,-57.5 463,-38.5 327,-38.5"/>
<text text-anchor="middle" x="395" y="-45.5" font-family="Helvetica,sans-Serif" font-size="10.00">d3dUtil::CreateDefaultBuffer</text>
</a>
</g>
</g>
<!-- Node2&#45;&gt;Node4 -->
<g id="edge3" class="edge"><title>Node2&#45;&gt;Node4</title>
<path fill="none" stroke="midnightblue" d="M291.189,-48C299.502,-48 308.054,-48 316.506,-48"/>
<polygon fill="midnightblue" stroke="midnightblue" points="316.743,-51.5001 326.743,-48 316.743,-44.5001 316.743,-51.5001"/>
</g>
<!-- Node5 -->
<g id="node5" class="node"><title>Node5</title>
<g id="a_node5"><a xlink:href="classd3d_util.html#acac6acd838913d63466e4f0159bfe8b0" target="_top" xlink:title="d3dUtil::CompileShader">
<polygon fill="none" stroke="black" points="335.5,-0.5 335.5,-19.5 454.5,-19.5 454.5,-0.5 335.5,-0.5"/>
<text text-anchor="middle" x="395" y="-7.5" font-family="Helvetica,sans-Serif" font-size="10.00">d3dUtil::CompileShader</text>
</a>
</g>
</g>
<!-- Node2&#45;&gt;Node5 -->
<g id="edge4" class="edge"><title>Node2&#45;&gt;Node5</title>
<path fill="none" stroke="midnightblue" d="M291.189,-32.9814C307.785,-29.2715 325.331,-25.3496 341.137,-21.8164"/>
<polygon fill="midnightblue" stroke="midnightblue" points="342.25,-25.1541 351.246,-19.5568 340.723,-18.3226 342.25,-25.1541"/>
</g>
</g>
</svg>
