<?xml version="1.0" encoding="UTF-8" standalone="no"?>
<!DOCTYPE svg PUBLIC "-//W3C//DTD SVG 1.1//EN"
 "http://www.w3.org/Graphics/SVG/1.1/DTD/svg11.dtd">
<!-- Generated by graphviz version 2.38.0 (20140413.2041)
 -->
<!-- Title: DirectXRenderer::get_current_camera Pages: 1 -->
<!--zoomable 135 -->
<svg id="main" version="1.1" xmlns="http://www.w3.org/2000/svg" xmlns:xlink="http://www.w3.org/1999/xlink" xml:space="preserve" onload="init(evt)">
<style type="text/css"><![CDATA[
.edge:hover path { stroke: red; }
.edge:hover polygon { stroke: red; fill: red; }
]]></style>
<script type="text/javascript"><![CDATA[
var edges = document.getElementsByTagName('g');
if (edges && edges.length) {
  for (var i=0;i<edges.length;i++) {
    if (edges[i].id.substr(0,4)=='edge') {
      edges[i].setAttribute('class','edge');
    }
  }
}
]]></script>
        <defs>
                <circle id="rim" cx="0" cy="0" r="7"/>
                <circle id="rim2" cx="0" cy="0" r="3.5"/>
                <g id="zoomPlus">
                        <use xlink:href="#rim" fill="#404040">
                                <set attributeName="fill" to="#808080" begin="zoomplus.mouseover" end="zoomplus.mouseout"/>
                        </use>
                        <path d="M-4,0h8M0,-4v8" fill="none" stroke="white" stroke-width="1.5" pointer-events="none"/>
                </g>
                <g id="zoomMin">
                        <use xlink:href="#rim" fill="#404040">
                                <set attributeName="fill" to="#808080" begin="zoomminus.mouseover" end="zoomminus.mouseout"/>
                        </use>
                        <path d="M-4,0h8" fill="none" stroke="white" stroke-width="1.5" pointer-events="none"/>
                </g>
                <g id="dirArrow">
                        <path fill="none" stroke="white" stroke-width="1.5" d="M0,-3.0v7 M-2.5,-0.5L0,-3.0L2.5,-0.5"/>
                </g>
               <g id="resetDef">
                       <use xlink:href="#rim2" fill="#404040">
                               <set attributeName="fill" to="#808080" begin="reset.mouseover" end="reset.mouseout"/>
                       </use>
               </g>
        </defs>

<script type="text/javascript">
var viewWidth = 1364;
var viewHeight = 135;
var sectionId = 'dynsection-18';
</script>
<script xlink:href="svgpan.js"/>
<svg id="graph" class="graph">
<g id="viewport">
<title>DirectXRenderer::get_current_camera</title>
<!-- Node1 -->
<g id="node1" class="node"><title>Node1</title>
<polygon fill="#bfbfbf" stroke="black" points="0,-74 0,-104 106,-104 106,-74 0,-74"/>
<text text-anchor="start" x="8" y="-92" font-family="Helvetica,sans-Serif" font-size="10.00">DirectXRenderer::get</text>
<text text-anchor="middle" x="53" y="-81" font-family="Helvetica,sans-Serif" font-size="10.00">_current_camera</text>
</g>
<!-- Node2 -->
<g id="node2" class="node"><title>Node2</title>
<g id="a_node2"><a xlink:href="classengine.html#a54e5e763df5801c9289a2030635b3d52" target="_top" xlink:title="engine::get_current\l_camera">
<polygon fill="none" stroke="black" points="142,-74 142,-104 242,-104 242,-74 142,-74"/>
<text text-anchor="start" x="150" y="-92" font-family="Helvetica,sans-Serif" font-size="10.00">engine::get_current</text>
<text text-anchor="middle" x="192" y="-81" font-family="Helvetica,sans-Serif" font-size="10.00">_camera</text>
</a>
</g>
</g>
<!-- Node1&#45;&gt;Node2 -->
<g id="edge1" class="edge"><title>Node1&#45;&gt;Node2</title>
<path fill="none" stroke="midnightblue" d="M116.415,-89C124.882,-89 133.474,-89 141.668,-89"/>
<polygon fill="midnightblue" stroke="midnightblue" points="116.185,-85.5001 106.185,-89 116.185,-92.5001 116.185,-85.5001"/>
</g>
<!-- Node3 -->
<g id="node3" class="node"><title>Node3</title>
<g id="a_node3"><a xlink:href="class_direct_x_renderer.html#ae823daf9d77db0f506320f7171cb117d" target="_top" xlink:title="DirectXRenderer::resize">
<polygon fill="none" stroke="black" points="278,-79.5 278,-98.5 397,-98.5 397,-79.5 278,-79.5"/>
<text text-anchor="middle" x="337.5" y="-86.5" font-family="Helvetica,sans-Serif" font-size="10.00">DirectXRenderer::resize</text>
</a>
</g>
</g>
<!-- Node2&#45;&gt;Node3 -->
<g id="edge2" class="edge"><title>Node2&#45;&gt;Node3</title>
<path fill="none" stroke="midnightblue" d="M252.476,-89C260.87,-89 269.495,-89 277.873,-89"/>
<polygon fill="midnightblue" stroke="midnightblue" points="252.385,-85.5001 242.385,-89 252.385,-92.5001 252.385,-85.5001"/>
</g>
<!-- Node4 -->
<g id="node4" class="node"><title>Node4</title>
<g id="a_node4"><a xlink:href="class_direct_x_renderer.html#a252d9ba8d713ba462c54a3dadfda2f59" target="_top" xlink:title="DirectXRenderer::Set4xMsaa\lState">
<polygon fill="none" stroke="black" points="433,-96 433,-126 575,-126 575,-96 433,-96"/>
<text text-anchor="start" x="441" y="-114" font-family="Helvetica,sans-Serif" font-size="10.00">DirectXRenderer::Set4xMsaa</text>
<text text-anchor="middle" x="504" y="-103" font-family="Helvetica,sans-Serif" font-size="10.00">State</text>
</a>
</g>
</g>
<!-- Node3&#45;&gt;Node4 -->
<g id="edge3" class="edge"><title>Node3&#45;&gt;Node4</title>
<path fill="none" stroke="midnightblue" d="M407.559,-98.2359C415.966,-99.3602 424.561,-100.51 432.981,-101.636"/>
<polygon fill="midnightblue" stroke="midnightblue" points="407.799,-94.7369 397.424,-96.8804 406.871,-101.675 407.799,-94.7369"/>
</g>
<!-- Node5 -->
<g id="node5" class="node"><title>Node5</title>
<g id="a_node5"><a xlink:href="classengine.html#a097517979864142f35d1969b5cf3d437" target="_top" xlink:title="engine::_resize">
<polygon fill="none" stroke="black" points="462.5,-57.5 462.5,-76.5 545.5,-76.5 545.5,-57.5 462.5,-57.5"/>
<text text-anchor="middle" x="504" y="-64.5" font-family="Helvetica,sans-Serif" font-size="10.00">engine::_resize</text>
</a>
</g>
</g>
<!-- Node3&#45;&gt;Node5 -->
<g id="edge4" class="edge"><title>Node3&#45;&gt;Node5</title>
<path fill="none" stroke="midnightblue" d="M407.379,-79.7882C426.055,-77.2905 445.677,-74.6663 462.252,-72.4496"/>
<polygon fill="midnightblue" stroke="midnightblue" points="406.871,-76.3249 397.424,-81.1196 407.799,-83.2631 406.871,-76.3249"/>
</g>
<!-- Node6 -->
<g id="node6" class="node"><title>Node6</title>
<g id="a_node6"><a xlink:href="classengine.html#a2a83502d17f32c78093028f6009df8ba" target="_top" xlink:title="engine::resize">
<polygon fill="none" stroke="black" points="611,-57.5 611,-76.5 688,-76.5 688,-57.5 611,-57.5"/>
<text text-anchor="middle" x="649.5" y="-64.5" font-family="Helvetica,sans-Serif" font-size="10.00">engine::resize</text>
</a>
</g>
</g>
<!-- Node5&#45;&gt;Node6 -->
<g id="edge5" class="edge"><title>Node5&#45;&gt;Node6</title>
<path fill="none" stroke="midnightblue" d="M555.814,-67C573.859,-67 593.839,-67 610.615,-67"/>
<polygon fill="midnightblue" stroke="midnightblue" points="555.738,-63.5001 545.737,-67 555.737,-70.5001 555.738,-63.5001"/>
</g>
<!-- Node7 -->
<g id="node7" class="node"><title>Node7</title>
<g id="a_node7"><a xlink:href="classengine.html#a8b8dd82e72fd73e0601c30041529c4c0" target="_top" xlink:title="engine::_initialize">
<polygon fill="none" stroke="black" points="724,-57.5 724,-76.5 816,-76.5 816,-57.5 724,-57.5"/>
<text text-anchor="middle" x="770" y="-64.5" font-family="Helvetica,sans-Serif" font-size="10.00">engine::_initialize</text>
</a>
</g>
</g>
<!-- Node6&#45;&gt;Node7 -->
<g id="edge6" class="edge"><title>Node6&#45;&gt;Node7</title>
<path fill="none" stroke="midnightblue" d="M698.322,-67C706.688,-67 715.371,-67 723.668,-67"/>
<polygon fill="midnightblue" stroke="midnightblue" points="698.32,-63.5001 688.32,-67 698.32,-70.5001 698.32,-63.5001"/>
</g>
<!-- Node8 -->
<g id="node8" class="node"><title>Node8</title>
<g id="a_node8"><a xlink:href="classengine.html#a6809dcdfe78011851e377d4729a87ee4" target="_top" xlink:title="engine::initialize">
<polygon fill="none" stroke="black" points="852,-76.5 852,-95.5 938,-95.5 938,-76.5 852,-76.5"/>
<text text-anchor="middle" x="895" y="-83.5" font-family="Helvetica,sans-Serif" font-size="10.00">engine::initialize</text>
</a>
</g>
</g>
<!-- Node7&#45;&gt;Node8 -->
<g id="edge7" class="edge"><title>Node7&#45;&gt;Node8</title>
<path fill="none" stroke="midnightblue" d="M826.097,-75.5109C834.712,-76.8417 843.497,-78.1987 851.765,-79.4758"/>
<polygon fill="midnightblue" stroke="midnightblue" points="826.519,-72.0347 816.102,-73.967 825.451,-78.9527 826.519,-72.0347"/>
</g>
<!-- Node9 -->
<g id="node9" class="node"><title>Node9</title>
<g id="a_node9"><a xlink:href="classengine.html#ada832d0a14502f1b99fdbd5c72cab01b" target="_top" xlink:title="engine::Draw">
<polygon fill="none" stroke="black" points="858.5,-38.5 858.5,-57.5 931.5,-57.5 931.5,-38.5 858.5,-38.5"/>
<text text-anchor="middle" x="895" y="-45.5" font-family="Helvetica,sans-Serif" font-size="10.00">engine::Draw</text>
</a>
</g>
</g>
<!-- Node7&#45;&gt;Node9 -->
<g id="edge8" class="edge"><title>Node7&#45;&gt;Node9</title>
<path fill="none" stroke="midnightblue" d="M825.998,-58.5044C836.9,-56.8203 848.079,-55.0935 858.142,-53.5391"/>
<polygon fill="midnightblue" stroke="midnightblue" points="825.451,-55.0473 816.102,-60.033 826.519,-61.9653 825.451,-55.0473"/>
</g>
<!-- Node10 -->
<g id="node10" class="node"><title>Node10</title>
<g id="a_node10"><a xlink:href="classengine.html#a90418b124cd07d7d2f057e7d401ed641" target="_top" xlink:title="engine::_tick">
<polygon fill="none" stroke="black" points="974,-57.5 974,-76.5 1046,-76.5 1046,-57.5 974,-57.5"/>
<text text-anchor="middle" x="1010" y="-64.5" font-family="Helvetica,sans-Serif" font-size="10.00">engine::_tick</text>
</a>
</g>
</g>
<!-- Node9&#45;&gt;Node10 -->
<g id="edge9" class="edge"><title>Node9&#45;&gt;Node10</title>
<path fill="none" stroke="midnightblue" d="M941.921,-49.0775C956.923,-51.2953 972.957,-54.3417 985.586,-57.4705"/>
<polygon fill="midnightblue" stroke="midnightblue" points="942.137,-45.5744 931.754,-47.6836 941.186,-52.5095 942.137,-45.5744"/>
</g>
<!-- Node10&#45;&gt;Node9 -->
<g id="edge15" class="edge"><title>Node10&#45;&gt;Node9</title>
<path fill="none" stroke="midnightblue" d="M963.371,-65.9655C948.285,-63.7442 932.125,-60.6786 919.414,-57.5295"/>
<polygon fill="midnightblue" stroke="midnightblue" points="963.206,-69.4754 973.588,-67.3592 964.152,-62.5397 963.206,-69.4754"/>
</g>
<!-- Node11 -->
<g id="node11" class="node"><title>Node11</title>
<g id="a_node11"><a xlink:href="classengine.html#a4bca5e9257e46c09a63f71227fc25a12" target="_top" xlink:title="engine::tick">
<polygon fill="none" stroke="black" points="1082,-19.5 1082,-38.5 1149,-38.5 1149,-19.5 1082,-19.5"/>
<text text-anchor="middle" x="1115.5" y="-26.5" font-family="Helvetica,sans-Serif" font-size="10.00">engine::tick</text>
</a>
</g>
</g>
<!-- Node10&#45;&gt;Node11 -->
<g id="edge10" class="edge"><title>Node10&#45;&gt;Node11</title>
<path fill="none" stroke="midnightblue" d="M1046.73,-53.882C1060.42,-48.8561 1075.77,-43.2209 1088.39,-38.5859"/>
<polygon fill="midnightblue" stroke="midnightblue" points="1045.3,-50.6788 1037.12,-57.411 1047.71,-57.2499 1045.3,-50.6788"/>
</g>
<!-- Node11&#45;&gt;Node9 -->
<g id="edge14" class="edge"><title>Node11&#45;&gt;Node9</title>
<path fill="none" stroke="midnightblue" d="M1071.58,-32.7318C1030.7,-36.2873 969.86,-41.5774 931.592,-44.905"/>
<polygon fill="midnightblue" stroke="midnightblue" points="1072.12,-36.1984 1081.78,-31.8451 1071.52,-29.2247 1072.12,-36.1984"/>
</g>
<!-- Node12 -->
<g id="node12" class="node"><title>Node12</title>
<g id="a_node12"><a xlink:href="classengine.html#a1d9b806d03be0255a8ac3c119e181cc5" target="_top" xlink:title="engine::_run">
<polygon fill="none" stroke="black" points="1185,-0.5 1185,-19.5 1255,-19.5 1255,-0.5 1185,-0.5"/>
<text text-anchor="middle" x="1220" y="-7.5" font-family="Helvetica,sans-Serif" font-size="10.00">engine::_run</text>
</a>
</g>
</g>
<!-- Node11&#45;&gt;Node12 -->
<g id="edge11" class="edge"><title>Node11&#45;&gt;Node12</title>
<path fill="none" stroke="midnightblue" d="M1159.08,-21.1076C1167.66,-19.5164 1176.58,-17.8631 1184.83,-16.3335"/>
<polygon fill="midnightblue" stroke="midnightblue" points="1158.41,-17.672 1149.21,-22.936 1159.68,-24.5547 1158.41,-17.672"/>
</g>
<!-- Node12&#45;&gt;Node9 -->
<g id="edge13" class="edge"><title>Node12&#45;&gt;Node9</title>
<path fill="none" stroke="midnightblue" d="M1174.61,-7.84934C1147.74,-7.08197 1112.83,-7.03059 1082,-10 1033.33,-14.6883 1021.89,-21.1262 974,-31 960.154,-33.8545 944.959,-37.1331 931.688,-40.0447"/>
<polygon fill="midnightblue" stroke="midnightblue" points="1174.74,-11.3556 1184.85,-8.1874 1174.97,-4.35941 1174.74,-11.3556"/>
</g>
<!-- Node13 -->
<g id="node13" class="node"><title>Node13</title>
<g id="a_node13"><a xlink:href="classengine.html#aecb22d51cc8f83cacbf3696a18d66c30" target="_top" xlink:title="engine::run">
<polygon fill="none" stroke="black" points="1291,-0.5 1291,-19.5 1356,-19.5 1356,-0.5 1291,-0.5"/>
<text text-anchor="middle" x="1323.5" y="-7.5" font-family="Helvetica,sans-Serif" font-size="10.00">engine::run</text>
</a>
</g>
</g>
<!-- Node12&#45;&gt;Node13 -->
<g id="edge12" class="edge"><title>Node12&#45;&gt;Node13</title>
<path fill="none" stroke="midnightblue" d="M1265.33,-10C1273.88,-10 1282.68,-10 1290.74,-10"/>
<polygon fill="midnightblue" stroke="midnightblue" points="1265.08,-6.5001 1255.08,-10 1265.08,-13.5001 1265.08,-6.5001"/>
</g>
</g>
</svg>
        <g id="navigator" transform="translate(0 0)" fill="#404254">
                <rect fill="#f2f5e9" fill-opacity="0.5" stroke="#606060" stroke-width=".5" x="0" y="0" width="60" height="60"/>
                <use id="zoomplus" xlink:href="#zoomPlus" x="17" y="9" onmousedown="handleZoom(evt,'in')"/>
                <use id="zoomminus" xlink:href="#zoomMin" x="42" y="9" onmousedown="handleZoom(evt,'out')"/>
                <use id="reset" xlink:href="#resetDef" x="30" y="36" onmousedown="handleReset()"/>
                <g id="arrowUp" xlink:href="#dirArrow" transform="translate(30 24)" onmousedown="handlePan(0,-1)">
                  <use xlink:href="#rim" fill="#404040">
                        <set attributeName="fill" to="#808080" begin="arrowUp.mouseover" end="arrowUp.mouseout"/>
                  </use>
                  <path fill="none" stroke="white" stroke-width="1.5" d="M0,-3.0v7 M-2.5,-0.5L0,-3.0L2.5,-0.5"/>
                </g>
                <g id="arrowRight" xlink:href="#dirArrow" transform="rotate(90) translate(36 -43)" onmousedown="handlePan(1,0)">
                  <use xlink:href="#rim" fill="#404040">
                        <set attributeName="fill" to="#808080" begin="arrowRight.mouseover" end="arrowRight.mouseout"/>
                  </use>
                  <path fill="none" stroke="white" stroke-width="1.5" d="M0,-3.0v7 M-2.5,-0.5L0,-3.0L2.5,-0.5"/>
                </g>
                <g id="arrowDown" xlink:href="#dirArrow" transform="rotate(180) translate(-30 -48)" onmousedown="handlePan(0,1)">
                  <use xlink:href="#rim" fill="#404040">
                        <set attributeName="fill" to="#808080" begin="arrowDown.mouseover" end="arrowDown.mouseout"/>
                  </use>
                  <path fill="none" stroke="white" stroke-width="1.5" d="M0,-3.0v7 M-2.5,-0.5L0,-3.0L2.5,-0.5"/>
                </g>
                <g id="arrowLeft" xlink:href="#dirArrow" transform="rotate(270) translate(-36 17)" onmousedown="handlePan(-1,0)">
                  <use xlink:href="#rim" fill="#404040">
                        <set attributeName="fill" to="#808080" begin="arrowLeft.mouseover" end="arrowLeft.mouseout"/>
                  </use>
                  <path fill="none" stroke="white" stroke-width="1.5" d="M0,-3.0v7 M-2.5,-0.5L0,-3.0L2.5,-0.5"/>
                </g>
        </g>
        <svg viewBox="0 0 15 15" width="100%" height="30px" preserveAspectRatio="xMaxYMin meet">
         <g id="arrow_out" transform="scale(0.3 0.3)">
          <a xlink:href="class_direct_x_renderer_a8232561ca218d26c0f70d9f9b3dbcea6_icgraph_org.svg" target="_base">
           <rect id="button" ry="5" rx="5" y="6" x="6" height="38" width="38"
                fill="#f2f5e9" fill-opacity="0.5" stroke="#606060" stroke-width="1.0"/>
           <path id="arrow"
             d="M 11.500037,31.436501 C 11.940474,20.09759 22.043105,11.32322 32.158766,21.979434 L 37.068811,17.246167 C 37.068811,17.246167 37.088388,32 37.088388,32 L 22.160133,31.978069 C 22.160133,31.978069 26.997745,27.140456 26.997745,27.140456 C 18.528582,18.264221 13.291696,25.230495 11.500037,31.436501 z"
             style="fill:#404040;"/>
          </a>
         </g>
        </svg>
</svg>
