<?xml version="1.0" encoding="UTF-8" standalone="no"?>
<!DOCTYPE svg PUBLIC "-//W3C//DTD SVG 1.1//EN"
 "http://www.w3.org/Graphics/SVG/1.1/DTD/svg11.dtd">
<!-- Generated by graphviz version 2.38.0 (20140413.2041)
 -->
<!-- Title: engine::get_engine Pages: 1 -->
<svg width="1094pt" height="976pt"
 viewBox="0.00 0.00 1094.00 975.67" xmlns="http://www.w3.org/2000/svg" xmlns:xlink="http://www.w3.org/1999/xlink">
<g id="graph0" class="graph" transform="scale(1 1) rotate(0) translate(4 971.673)">
<title>engine::get_engine</title>
<!-- Node1 -->
<g id="node1" class="node"><title>Node1</title>
<polygon fill="#bfbfbf" stroke="black" points="0,-448 0,-467 98,-467 98,-448 0,-448"/>
<text text-anchor="middle" x="49" y="-455" font-family="Helvetica,sans-Serif" font-size="10.00">engine::get_engine</text>
</g>
<!-- Node2 -->
<g id="node2" class="node"><title>Node2</title>
<g id="a_node2"><a xlink:href="classengine.html#a4bca5e9257e46c09a63f71227fc25a12" target="_top" xlink:title="engine::tick">
<polygon fill="none" stroke="black" points="165.5,-829 165.5,-848 232.5,-848 232.5,-829 165.5,-829"/>
<text text-anchor="middle" x="199" y="-836" font-family="Helvetica,sans-Serif" font-size="10.00">engine::tick</text>
</a>
</g>
</g>
<!-- Node1&#45;&gt;Node2 -->
<g id="edge1" class="edge"><title>Node1&#45;&gt;Node2</title>
<path fill="none" stroke="midnightblue" d="M49.4278,-477.482C48.8185,-534.743 54.3619,-701.884 134,-804.5 142.64,-815.632 155.97,-823.532 168.232,-828.896"/>
<polygon fill="midnightblue" stroke="midnightblue" points="52.9311,-477.332 49.6192,-467.269 45.9324,-477.201 52.9311,-477.332"/>
</g>
<!-- Node4 -->
<g id="node4" class="node"><title>Node4</title>
<g id="a_node4"><a xlink:href="classengine.html#aecb22d51cc8f83cacbf3696a18d66c30" target="_top" xlink:title="engine::run">
<polygon fill="none" stroke="black" points="493.5,-925 493.5,-944 558.5,-944 558.5,-925 493.5,-925"/>
<text text-anchor="middle" x="526" y="-932" font-family="Helvetica,sans-Serif" font-size="10.00">engine::run</text>
</a>
</g>
</g>
<!-- Node1&#45;&gt;Node4 -->
<g id="edge38" class="edge"><title>Node1&#45;&gt;Node4</title>
<path fill="none" stroke="midnightblue" d="M50.5873,-477.073C53.3939,-556.072 68.1781,-850.005 134,-908.5 236.469,-999.562 419.87,-963.381 493.314,-943.848"/>
<polygon fill="midnightblue" stroke="midnightblue" points="54.0839,-476.909 50.2555,-467.03 47.0878,-477.14 54.0839,-476.909"/>
</g>
<!-- Node7 -->
<g id="node7" class="node"><title>Node7</title>
<g id="a_node7"><a xlink:href="classengine.html#ac0dc17b9397ed8545aec886720e42215" target="_top" xlink:title="engine::get_game_timer">
<polygon fill="none" stroke="black" points="138.5,-530 138.5,-549 259.5,-549 259.5,-530 138.5,-530"/>
<text text-anchor="middle" x="199" y="-537" font-family="Helvetica,sans-Serif" font-size="10.00">engine::get_game_timer</text>
</a>
</g>
</g>
<!-- Node1&#45;&gt;Node7 -->
<g id="edge9" class="edge"><title>Node1&#45;&gt;Node7</title>
<path fill="none" stroke="midnightblue" d="M67.9329,-473.96C84.1335,-488.061 109.177,-508.014 134,-520.5 141.455,-524.25 149.779,-527.393 157.894,-529.975"/>
<polygon fill="midnightblue" stroke="midnightblue" points="70.115,-471.217 60.3151,-467.191 65.465,-476.45 70.115,-471.217"/>
</g>
<!-- Node8 -->
<g id="node8" class="node"><title>Node8</title>
<g id="a_node8"><a xlink:href="classengine.html#a06cd2ddd20745b1c8ef79e7a861bb6bd" target="_top" xlink:title="engine::get_renderer">
<polygon fill="none" stroke="black" points="146.5,-492 146.5,-511 251.5,-511 251.5,-492 146.5,-492"/>
<text text-anchor="middle" x="199" y="-499" font-family="Helvetica,sans-Serif" font-size="10.00">engine::get_renderer</text>
</a>
</g>
</g>
<!-- Node1&#45;&gt;Node8 -->
<g id="edge10" class="edge"><title>Node1&#45;&gt;Node8</title>
<path fill="none" stroke="midnightblue" d="M91.8571,-469.964C105.313,-473.969 120.286,-478.423 134,-482.5 144.332,-485.571 155.604,-488.919 165.769,-491.936"/>
<polygon fill="midnightblue" stroke="midnightblue" points="92.4917,-466.501 81.9087,-467.002 90.4945,-473.21 92.4917,-466.501"/>
</g>
<!-- Node9 -->
<g id="node9" class="node"><title>Node9</title>
<g id="a_node9"><a xlink:href="classengine.html#a54e5e763df5801c9289a2030635b3d52" target="_top" xlink:title="engine::get_current\l_camera">
<polygon fill="none" stroke="black" points="149,-731.5 149,-761.5 249,-761.5 249,-731.5 149,-731.5"/>
<text text-anchor="start" x="157" y="-749.5" font-family="Helvetica,sans-Serif" font-size="10.00">engine::get_current</text>
<text text-anchor="middle" x="199" y="-738.5" font-family="Helvetica,sans-Serif" font-size="10.00">_camera</text>
</a>
</g>
</g>
<!-- Node1&#45;&gt;Node9 -->
<g id="edge11" class="edge"><title>Node1&#45;&gt;Node9</title>
<path fill="none" stroke="midnightblue" d="M50.6104,-477.255C53.1607,-525.621 66.3164,-651.216 134,-722.5 138.249,-726.975 143.412,-730.622 148.943,-733.593"/>
<polygon fill="midnightblue" stroke="midnightblue" points="54.1037,-477.021 50.1789,-467.179 47.1101,-477.32 54.1037,-477.021"/>
</g>
<!-- Node13 -->
<g id="node13" class="node"><title>Node13</title>
<g id="a_node13"><a xlink:href="classengine.html#a2a83502d17f32c78093028f6009df8ba" target="_top" xlink:title="engine::resize">
<polygon fill="none" stroke="black" points="642,-773 642,-792 719,-792 719,-773 642,-773"/>
<text text-anchor="middle" x="680.5" y="-780" font-family="Helvetica,sans-Serif" font-size="10.00">engine::resize</text>
</a>
</g>
</g>
<!-- Node1&#45;&gt;Node13 -->
<g id="edge39" class="edge"><title>Node1&#45;&gt;Node13</title>
<path fill="none" stroke="midnightblue" d="M52.2354,-477.34C59.7833,-540.404 86.5439,-734.304 134,-771.5 173.699,-802.616 524.973,-789.568 641.859,-784.307"/>
<polygon fill="midnightblue" stroke="midnightblue" points="55.6825,-476.682 51.0489,-467.154 48.7295,-477.492 55.6825,-476.682"/>
</g>
<!-- Node16 -->
<g id="node16" class="node"><title>Node16</title>
<g id="a_node16"><a xlink:href="classengine.html#a1c22e1de5498965992bc25cfba715c99" target="_top" xlink:title="engine::get_windows\l_message_handler">
<polygon fill="none" stroke="black" points="306,-641.5 306,-671.5 413,-671.5 413,-641.5 306,-641.5"/>
<text text-anchor="start" x="314" y="-659.5" font-family="Helvetica,sans-Serif" font-size="10.00">engine::get_windows</text>
<text text-anchor="middle" x="359.5" y="-648.5" font-family="Helvetica,sans-Serif" font-size="10.00">_message_handler</text>
</a>
</g>
</g>
<!-- Node1&#45;&gt;Node16 -->
<g id="edge19" class="edge"><title>Node1&#45;&gt;Node16</title>
<path fill="none" stroke="midnightblue" d="M53.724,-477.168C61.6115,-512.934 83.586,-588.267 134,-624.5 184.032,-660.458 256.793,-664.411 305.795,-662.052"/>
<polygon fill="midnightblue" stroke="midnightblue" points="57.0847,-476.134 51.64,-467.046 50.2285,-477.546 57.0847,-476.134"/>
</g>
<!-- Node19 -->
<g id="node19" class="node"><title>Node19</title>
<g id="a_node19"><a xlink:href="classengine.html#a3351563741589b6f8f05a53bbbe544a7" target="_top" xlink:title="engine::get_command\l_manager">
<polygon fill="none" stroke="black" points="142.5,-442.5 142.5,-472.5 255.5,-472.5 255.5,-442.5 142.5,-442.5"/>
<text text-anchor="start" x="150.5" y="-460.5" font-family="Helvetica,sans-Serif" font-size="10.00">engine::get_command</text>
<text text-anchor="middle" x="199" y="-449.5" font-family="Helvetica,sans-Serif" font-size="10.00">_manager</text>
</a>
</g>
</g>
<!-- Node1&#45;&gt;Node19 -->
<g id="edge24" class="edge"><title>Node1&#45;&gt;Node19</title>
<path fill="none" stroke="midnightblue" d="M108.23,-457.5C119.504,-457.5 131.291,-457.5 142.476,-457.5"/>
<polygon fill="midnightblue" stroke="midnightblue" points="108.051,-454 98.0514,-457.5 108.051,-461 108.051,-454"/>
</g>
<!-- Node21 -->
<g id="node21" class="node"><title>Node21</title>
<g id="a_node21"><a xlink:href="classengine.html#aa0d5e48083116ded90d019bffcfa2d39" target="_top" xlink:title="engine::get_app_inst">
<polygon fill="none" stroke="black" points="145.5,-404 145.5,-423 252.5,-423 252.5,-404 145.5,-404"/>
<text text-anchor="middle" x="199" y="-411" font-family="Helvetica,sans-Serif" font-size="10.00">engine::get_app_inst</text>
</a>
</g>
</g>
<!-- Node1&#45;&gt;Node21 -->
<g id="edge26" class="edge"><title>Node1&#45;&gt;Node21</title>
<path fill="none" stroke="midnightblue" d="M91.8259,-445.065C115.342,-438.074 144.241,-429.482 165.949,-423.029"/>
<polygon fill="midnightblue" stroke="midnightblue" points="90.7017,-441.748 82.1138,-447.953 92.6966,-448.458 90.7017,-441.748"/>
</g>
<!-- Node22 -->
<g id="node22" class="node"><title>Node22</title>
<g id="a_node22"><a xlink:href="classengine.html#a7fa93c3ca0e4346f17ff90410e3377ea" target="_top" xlink:title="engine::get_main_window\l_handle">
<polygon fill="none" stroke="black" points="135,-354.5 135,-384.5 263,-384.5 263,-354.5 135,-354.5"/>
<text text-anchor="start" x="143" y="-372.5" font-family="Helvetica,sans-Serif" font-size="10.00">engine::get_main_window</text>
<text text-anchor="middle" x="199" y="-361.5" font-family="Helvetica,sans-Serif" font-size="10.00">_handle</text>
</a>
</g>
</g>
<!-- Node1&#45;&gt;Node22 -->
<g id="edge27" class="edge"><title>Node1&#45;&gt;Node22</title>
<path fill="none" stroke="midnightblue" d="M68.4757,-441.313C84.8553,-427.551 109.857,-407.94 134,-394.5 140.462,-390.903 147.548,-387.582 154.576,-384.614"/>
<polygon fill="midnightblue" stroke="midnightblue" points="66.0783,-438.758 60.7464,-447.914 70.6239,-444.081 66.0783,-438.758"/>
</g>
<!-- Node23 -->
<g id="node23" class="node"><title>Node23</title>
<g id="a_node23"><a xlink:href="classengine.html#a84cfa36c736c00778ca2a51b13bd96d9" target="_top" xlink:title="engine::get_is_maximized">
<polygon fill="none" stroke="black" points="134,-316 134,-335 264,-335 264,-316 134,-316"/>
<text text-anchor="middle" x="199" y="-323" font-family="Helvetica,sans-Serif" font-size="10.00">engine::get_is_maximized</text>
</a>
</g>
</g>
<!-- Node1&#45;&gt;Node23 -->
<g id="edge28" class="edge"><title>Node1&#45;&gt;Node23</title>
<path fill="none" stroke="midnightblue" d="M59.2962,-438.662C72.5271,-413.757 99.1059,-370.153 134,-345.5 140.085,-341.201 147.127,-337.801 154.268,-335.12"/>
<polygon fill="midnightblue" stroke="midnightblue" points="56.0612,-437.3 54.6007,-447.793 62.2864,-440.501 56.0612,-437.3"/>
</g>
<!-- Node24 -->
<g id="node24" class="node"><title>Node24</title>
<g id="a_node24"><a xlink:href="classengine.html#ad361c7acfc6f8e41646610bcc2bbbc5c" target="_top" xlink:title="engine::get_is_minimized">
<polygon fill="none" stroke="black" points="135.5,-278 135.5,-297 262.5,-297 262.5,-278 135.5,-278"/>
<text text-anchor="middle" x="199" y="-285" font-family="Helvetica,sans-Serif" font-size="10.00">engine::get_is_minimized</text>
</a>
</g>
</g>
<!-- Node1&#45;&gt;Node24 -->
<g id="edge29" class="edge"><title>Node1&#45;&gt;Node24</title>
<path fill="none" stroke="midnightblue" d="M55.4995,-438.088C65.6196,-405.902 90.2639,-341.569 134,-306.5 138.883,-302.585 144.554,-299.476 150.462,-297.007"/>
<polygon fill="midnightblue" stroke="midnightblue" points="52.1425,-437.098 52.6177,-447.682 58.8466,-439.111 52.1425,-437.098"/>
</g>
<!-- Node25 -->
<g id="node25" class="node"><title>Node25</title>
<g id="a_node25"><a xlink:href="classengine.html#a8afc7b29034df66b7dd991dff06c0118" target="_top" xlink:title="engine::get_is_resizing">
<polygon fill="none" stroke="black" points="141,-568 141,-587 257,-587 257,-568 141,-568"/>
<text text-anchor="middle" x="199" y="-575" font-family="Helvetica,sans-Serif" font-size="10.00">engine::get_is_resizing</text>
</a>
</g>
</g>
<!-- Node1&#45;&gt;Node25 -->
<g id="edge30" class="edge"><title>Node1&#45;&gt;Node25</title>
<path fill="none" stroke="midnightblue" d="M60.5268,-475.865C74.4716,-498.572 101.177,-536.863 134,-558.5 139.903,-562.391 146.627,-565.507 153.445,-567.995"/>
<polygon fill="midnightblue" stroke="midnightblue" points="63.4775,-473.979 55.3512,-467.181 57.4645,-477.563 63.4775,-473.979"/>
</g>
<!-- Node26 -->
<g id="node26" class="node"><title>Node26</title>
<g id="a_node26"><a xlink:href="class_game_timer.html#a20aa18e5ab02ae786083c131107afe32" target="_top" xlink:title="GameTimer::tick">
<polygon fill="none" stroke="black" points="315,-603 315,-622 404,-622 404,-603 315,-603"/>
<text text-anchor="middle" x="359.5" y="-610" font-family="Helvetica,sans-Serif" font-size="10.00">GameTimer::tick</text>
</a>
</g>
</g>
<!-- Node1&#45;&gt;Node26 -->
<g id="edge46" class="edge"><title>Node1&#45;&gt;Node26</title>
<path fill="none" stroke="midnightblue" d="M55.3632,-476.823C65.1774,-508.111 89.2519,-569.115 134,-596.5 189.159,-630.256 266.827,-627.054 314.848,-620.571"/>
<polygon fill="midnightblue" stroke="midnightblue" points="58.6777,-475.689 52.476,-467.099 51.9672,-477.681 58.6777,-475.689"/>
</g>
<!-- Node27 -->
<g id="node27" class="node"><title>Node27</title>
<g id="a_node27"><a xlink:href="classengine.html#a6e9b91614ba8c7d01b25427466df632e" target="_top" xlink:title="engine::get_is_fullscreen">
<polygon fill="none" stroke="black" points="137,-240 137,-259 261,-259 261,-240 137,-240"/>
<text text-anchor="middle" x="199" y="-247" font-family="Helvetica,sans-Serif" font-size="10.00">engine::get_is_fullscreen</text>
</a>
</g>
</g>
<!-- Node1&#45;&gt;Node27 -->
<g id="edge33" class="edge"><title>Node1&#45;&gt;Node27</title>
<path fill="none" stroke="midnightblue" d="M53.1991,-437.619C60.4362,-399.183 81.6926,-314.431 134,-268.5 138.442,-264.6 143.654,-261.499 149.153,-259.035"/>
<polygon fill="midnightblue" stroke="midnightblue" points="49.7349,-437.11 51.4493,-447.566 56.629,-438.323 49.7349,-437.11"/>
</g>
<!-- Node28 -->
<g id="node28" class="node"><title>Node28</title>
<g id="a_node28"><a xlink:href="classengine.html#aec4a8646ae5139982a23f45ee38b3224" target="_top" xlink:title="engine::get_aspect\l_ratio">
<polygon fill="none" stroke="black" points="149.5,-682.5 149.5,-712.5 248.5,-712.5 248.5,-682.5 149.5,-682.5"/>
<text text-anchor="start" x="157.5" y="-700.5" font-family="Helvetica,sans-Serif" font-size="10.00">engine::get_aspect</text>
<text text-anchor="middle" x="199" y="-689.5" font-family="Helvetica,sans-Serif" font-size="10.00">_ratio</text>
</a>
</g>
</g>
<!-- Node1&#45;&gt;Node28 -->
<g id="edge34" class="edge"><title>Node1&#45;&gt;Node28</title>
<path fill="none" stroke="midnightblue" d="M52.9186,-477.151C59.8862,-517.666 81.034,-611.379 134,-667.5 139.643,-673.479 146.716,-678.384 154.084,-682.366"/>
<polygon fill="midnightblue" stroke="midnightblue" points="56.3629,-476.524 51.3147,-467.21 49.4522,-477.639 56.3629,-476.524"/>
</g>
<!-- Node29 -->
<g id="node29" class="node"><title>Node29</title>
<g id="a_node29"><a xlink:href="classengine.html#af69a23a9ad0d8c51fb10c92dd495fc4b" target="_top" xlink:title="engine::get_width">
<polygon fill="none" stroke="black" points="153,-202 153,-221 245,-221 245,-202 153,-202"/>
<text text-anchor="middle" x="199" y="-209" font-family="Helvetica,sans-Serif" font-size="10.00">engine::get_width</text>
</a>
</g>
</g>
<!-- Node1&#45;&gt;Node29 -->
<g id="edge36" class="edge"><title>Node1&#45;&gt;Node29</title>
<path fill="none" stroke="midnightblue" d="M51.5178,-437.663C55.9528,-393.779 72.7648,-287.831 134,-230.5 139.33,-225.509 145.913,-221.825 152.809,-219.105"/>
<polygon fill="midnightblue" stroke="midnightblue" points="48.0305,-437.366 50.6199,-447.639 55.0024,-437.993 48.0305,-437.366"/>
</g>
<!-- Node30 -->
<g id="node30" class="node"><title>Node30</title>
<g id="a_node30"><a xlink:href="classengine.html#a6f588380d288dbff7f305cf5bd5351bc" target="_top" xlink:title="engine::get_height">
<polygon fill="none" stroke="black" points="151,-164 151,-183 247,-183 247,-164 151,-164"/>
<text text-anchor="middle" x="199" y="-171" font-family="Helvetica,sans-Serif" font-size="10.00">engine::get_height</text>
</a>
</g>
</g>
<!-- Node1&#45;&gt;Node30 -->
<g id="edge37" class="edge"><title>Node1&#45;&gt;Node30</title>
<path fill="none" stroke="midnightblue" d="M50.2896,-437.775C52.1024,-388.968 63.6977,-261.522 134,-192.5 138.797,-187.79 144.705,-184.24 150.976,-181.564"/>
<polygon fill="midnightblue" stroke="midnightblue" points="46.7868,-437.836 50.0171,-447.927 53.7843,-438.024 46.7868,-437.836"/>
</g>
<!-- Node31 -->
<g id="node31" class="node"><title>Node31</title>
<g id="a_node31"><a xlink:href="classengine.html#a4ddea571d75d76bd775e956be861e90e" target="_top" xlink:title="engine::set_is_resizing">
<polygon fill="none" stroke="black" points="141,-126 141,-145 257,-145 257,-126 141,-126"/>
<text text-anchor="middle" x="199" y="-133" font-family="Helvetica,sans-Serif" font-size="10.00">engine::set_is_resizing</text>
</a>
</g>
</g>
<!-- Node1&#45;&gt;Node31 -->
<g id="edge40" class="edge"><title>Node1&#45;&gt;Node31</title>
<path fill="none" stroke="midnightblue" d="M49.3549,-437.534C48.7536,-383.888 54.7161,-235.236 134,-154.5 137.817,-150.613 142.389,-147.513 147.312,-145.042"/>
<polygon fill="midnightblue" stroke="midnightblue" points="45.86,-437.819 49.567,-447.744 52.8585,-437.673 45.86,-437.819"/>
</g>
<!-- Node32 -->
<g id="node32" class="node"><title>Node32</title>
<g id="a_node32"><a xlink:href="classengine.html#acfc30003bb6439de35729c4605a96b59" target="_top" xlink:title="engine::set_is_maximized">
<polygon fill="none" stroke="black" points="134,-88 134,-107 264,-107 264,-88 134,-88"/>
<text text-anchor="middle" x="199" y="-95" font-family="Helvetica,sans-Serif" font-size="10.00">engine::set_is_maximized</text>
</a>
</g>
</g>
<!-- Node1&#45;&gt;Node32 -->
<g id="edge41" class="edge"><title>Node1&#45;&gt;Node32</title>
<path fill="none" stroke="midnightblue" d="M52.2826,-437.789C60.2369,-372.377 88.7386,-163.943 134,-116.5 137.68,-112.642 142.104,-109.558 146.886,-107.092"/>
<polygon fill="midnightblue" stroke="midnightblue" points="48.7787,-437.616 51.0729,-447.959 55.7297,-438.443 48.7787,-437.616"/>
</g>
<!-- Node33 -->
<g id="node33" class="node"><title>Node33</title>
<g id="a_node33"><a xlink:href="classengine.html#a7a9c852daa149d85f1032dbf59784fab" target="_top" xlink:title="engine::set_is_minimized">
<polygon fill="none" stroke="black" points="135.5,-50 135.5,-69 262.5,-69 262.5,-50 135.5,-50"/>
<text text-anchor="middle" x="199" y="-57" font-family="Helvetica,sans-Serif" font-size="10.00">engine::set_is_minimized</text>
</a>
</g>
</g>
<!-- Node1&#45;&gt;Node33 -->
<g id="edge42" class="edge"><title>Node1&#45;&gt;Node33</title>
<path fill="none" stroke="midnightblue" d="M51.7471,-437.902C58.3607,-367.981 84.056,-132.094 134,-78.5 137.635,-74.5995 142.03,-71.4873 146.794,-69.006"/>
<polygon fill="midnightblue" stroke="midnightblue" points="48.2512,-437.697 50.8191,-447.976 55.2217,-438.339 48.2512,-437.697"/>
</g>
<!-- Node34 -->
<g id="node34" class="node"><title>Node34</title>
<g id="a_node34"><a xlink:href="classengine.html#a94d7b7fe4658a482d6cd4ce747ab35da" target="_top" xlink:title="engine::set_window\l_dimensions">
<polygon fill="none" stroke="black" points="148.5,-0.5 148.5,-30.5 249.5,-30.5 249.5,-0.5 148.5,-0.5"/>
<text text-anchor="start" x="156.5" y="-18.5" font-family="Helvetica,sans-Serif" font-size="10.00">engine::set_window</text>
<text text-anchor="middle" x="199" y="-7.5" font-family="Helvetica,sans-Serif" font-size="10.00">_dimensions</text>
</a>
</g>
</g>
<!-- Node1&#45;&gt;Node34 -->
<g id="edge43" class="edge"><title>Node1&#45;&gt;Node34</title>
<path fill="none" stroke="midnightblue" d="M51.5146,-437.557C57.5389,-363.082 82.0409,-102.365 134,-40.5 137.989,-35.7501 142.999,-31.8983 148.449,-28.7758"/>
<polygon fill="midnightblue" stroke="midnightblue" points="47.9998,-437.608 50.705,-447.852 54.9783,-438.157 47.9998,-437.608"/>
</g>
<!-- Node35 -->
<g id="node35" class="node"><title>Node35</title>
<g id="a_node35"><a xlink:href="classengine.html#a560e0bbabb0933eb66db1070a9cfa4ff" target="_top" xlink:title="engine::shutdown">
<polygon fill="none" stroke="black" points="153,-880 153,-899 245,-899 245,-880 153,-880"/>
<text text-anchor="middle" x="199" y="-887" font-family="Helvetica,sans-Serif" font-size="10.00">engine::shutdown</text>
</a>
</g>
</g>
<!-- Node1&#45;&gt;Node35 -->
<g id="edge44" class="edge"><title>Node1&#45;&gt;Node35</title>
<path fill="none" stroke="midnightblue" d="M51.893,-477.404C59.0943,-549.548 86.7853,-796.295 134,-857.5 141.891,-867.729 153.933,-874.929 165.451,-879.872"/>
<polygon fill="midnightblue" stroke="midnightblue" points="55.3364,-476.653 50.881,-467.04 48.3696,-477.333 55.3364,-476.653"/>
</g>
<!-- Node3 -->
<g id="node3" class="node"><title>Node3</title>
<g id="a_node3"><a xlink:href="classengine.html#a1d9b806d03be0255a8ac3c119e181cc5" target="_top" xlink:title="engine::_run">
<polygon fill="none" stroke="black" points="324.5,-887 324.5,-906 394.5,-906 394.5,-887 324.5,-887"/>
<text text-anchor="middle" x="359.5" y="-894" font-family="Helvetica,sans-Serif" font-size="10.00">engine::_run</text>
</a>
</g>
</g>
<!-- Node2&#45;&gt;Node3 -->
<g id="edge2" class="edge"><title>Node2&#45;&gt;Node3</title>
<path fill="none" stroke="midnightblue" d="M235.64,-851.542C264.976,-862.277 305.889,-877.248 332.288,-886.908"/>
<polygon fill="midnightblue" stroke="midnightblue" points="236.767,-848.227 226.173,-848.078 234.361,-854.801 236.767,-848.227"/>
</g>
<!-- Node5 -->
<g id="node5" class="node"><title>Node5</title>
<g id="a_node5"><a xlink:href="classengine.html#ada832d0a14502f1b99fdbd5c72cab01b" target="_top" xlink:title="engine::Draw">
<polygon fill="none" stroke="black" points="898.5,-811 898.5,-830 971.5,-830 971.5,-811 898.5,-811"/>
<text text-anchor="middle" x="935" y="-818" font-family="Helvetica,sans-Serif" font-size="10.00">engine::Draw</text>
</a>
</g>
</g>
<!-- Node2&#45;&gt;Node5 -->
<g id="edge8" class="edge"><title>Node2&#45;&gt;Node5</title>
<path fill="none" stroke="midnightblue" d="M242.924,-834.606C305.074,-829.314 423.77,-820.5 525,-820.5 525,-820.5 525,-820.5 681.5,-820.5 758.872,-820.5 849.58,-820.5 898.457,-820.5"/>
<polygon fill="midnightblue" stroke="midnightblue" points="242.382,-831.14 232.72,-835.487 242.984,-838.114 242.382,-831.14"/>
</g>
<!-- Node3&#45;&gt;Node4 -->
<g id="edge3" class="edge"><title>Node3&#45;&gt;Node4</title>
<path fill="none" stroke="midnightblue" d="M404.538,-906.673C432.58,-913.151 468.243,-921.389 493.467,-927.216"/>
<polygon fill="midnightblue" stroke="midnightblue" points="405.116,-903.214 394.585,-904.374 403.54,-910.035 405.116,-903.214"/>
</g>
<!-- Node3&#45;&gt;Node5 -->
<g id="edge4" class="edge"><title>Node3&#45;&gt;Node5</title>
<path fill="none" stroke="midnightblue" d="M404.587,-892.618C452.137,-888.292 530.036,-880.806 597,-872.5 712.459,-858.179 741.173,-853.224 856,-834.5 869.85,-832.242 885.046,-829.56 898.317,-827.152"/>
<polygon fill="midnightblue" stroke="midnightblue" points="404.271,-889.132 394.627,-893.518 404.901,-896.103 404.271,-889.132"/>
</g>
<!-- Node6 -->
<g id="node6" class="node"><title>Node6</title>
<g id="a_node6"><a xlink:href="classengine.html#a90418b124cd07d7d2f057e7d401ed641" target="_top" xlink:title="engine::_tick">
<polygon fill="none" stroke="black" points="1014,-811 1014,-830 1086,-830 1086,-811 1014,-811"/>
<text text-anchor="middle" x="1050" y="-818" font-family="Helvetica,sans-Serif" font-size="10.00">engine::_tick</text>
</a>
</g>
</g>
<!-- Node5&#45;&gt;Node6 -->
<g id="edge5" class="edge"><title>Node5&#45;&gt;Node6</title>
<path fill="none" stroke="midnightblue" d="M981.793,-813.859C992.489,-813.639 1003.72,-813.752 1013.87,-814.199"/>
<polygon fill="midnightblue" stroke="midnightblue" points="981.64,-810.362 971.754,-814.172 981.858,-817.358 981.64,-810.362"/>
</g>
<!-- Node6&#45;&gt;Node2 -->
<g id="edge6" class="edge"><title>Node6&#45;&gt;Node2</title>
<path fill="none" stroke="midnightblue" d="M1007.64,-832.674C997.973,-835.21 987.677,-837.665 978,-839.5 904.607,-853.416 885.701,-858.5 811,-858.5 525,-858.5 525,-858.5 525,-858.5 417.875,-858.5 291.262,-847.541 232.712,-841.848"/>
<polygon fill="midnightblue" stroke="midnightblue" points="1008.68,-836.017 1017.42,-830.026 1006.86,-829.259 1008.68,-836.017"/>
</g>
<!-- Node6&#45;&gt;Node5 -->
<g id="edge7" class="edge"><title>Node6&#45;&gt;Node5</title>
<path fill="none" stroke="midnightblue" d="M1003.86,-827.127C993.184,-827.361 981.946,-827.261 971.754,-826.828"/>
<polygon fill="midnightblue" stroke="midnightblue" points="1003.98,-830.625 1013.87,-826.801 1003.76,-823.629 1003.98,-830.625"/>
</g>
<!-- Node10 -->
<g id="node10" class="node"><title>Node10</title>
<g id="a_node10"><a xlink:href="class_direct_x_renderer.html#ae823daf9d77db0f506320f7171cb117d" target="_top" xlink:title="DirectXRenderer::resize">
<polygon fill="none" stroke="black" points="300,-713 300,-732 419,-732 419,-713 300,-713"/>
<text text-anchor="middle" x="359.5" y="-720" font-family="Helvetica,sans-Serif" font-size="10.00">DirectXRenderer::resize</text>
</a>
</g>
</g>
<!-- Node9&#45;&gt;Node10 -->
<g id="edge12" class="edge"><title>Node9&#45;&gt;Node10</title>
<path fill="none" stroke="midnightblue" d="M259.237,-737.53C272.496,-735.523 286.553,-733.394 299.79,-731.39"/>
<polygon fill="midnightblue" stroke="midnightblue" points="258.645,-734.08 249.282,-739.038 259.693,-741.001 258.645,-734.08"/>
</g>
<!-- Node11 -->
<g id="node11" class="node"><title>Node11</title>
<g id="a_node11"><a xlink:href="class_direct_x_renderer.html#a252d9ba8d713ba462c54a3dadfda2f59" target="_top" xlink:title="DirectXRenderer::Set4xMsaa\lState">
<polygon fill="none" stroke="black" points="455,-685.5 455,-715.5 597,-715.5 597,-685.5 455,-685.5"/>
<text text-anchor="start" x="463" y="-703.5" font-family="Helvetica,sans-Serif" font-size="10.00">DirectXRenderer::Set4xMsaa</text>
<text text-anchor="middle" x="526" y="-692.5" font-family="Helvetica,sans-Serif" font-size="10.00">State</text>
</a>
</g>
</g>
<!-- Node10&#45;&gt;Node11 -->
<g id="edge13" class="edge"><title>Node10&#45;&gt;Node11</title>
<path fill="none" stroke="midnightblue" d="M429.559,-713.264C437.966,-712.14 446.561,-710.99 454.981,-709.864"/>
<polygon fill="midnightblue" stroke="midnightblue" points="428.871,-709.825 419.424,-714.62 429.799,-716.763 428.871,-709.825"/>
</g>
<!-- Node12 -->
<g id="node12" class="node"><title>Node12</title>
<g id="a_node12"><a xlink:href="classengine.html#a097517979864142f35d1969b5cf3d437" target="_top" xlink:title="engine::_resize">
<polygon fill="none" stroke="black" points="484.5,-735 484.5,-754 567.5,-754 567.5,-735 484.5,-735"/>
<text text-anchor="middle" x="526" y="-742" font-family="Helvetica,sans-Serif" font-size="10.00">engine::_resize</text>
</a>
</g>
</g>
<!-- Node10&#45;&gt;Node12 -->
<g id="edge14" class="edge"><title>Node10&#45;&gt;Node12</title>
<path fill="none" stroke="midnightblue" d="M429.379,-731.712C448.055,-734.21 467.677,-736.834 484.252,-739.05"/>
<polygon fill="midnightblue" stroke="midnightblue" points="429.799,-728.237 419.424,-730.38 428.871,-735.175 429.799,-728.237"/>
</g>
<!-- Node12&#45;&gt;Node13 -->
<g id="edge15" class="edge"><title>Node12&#45;&gt;Node13</title>
<path fill="none" stroke="midnightblue" d="M575.395,-756.559C596.871,-761.91 621.763,-768.113 641.822,-773.111"/>
<polygon fill="midnightblue" stroke="midnightblue" points="576.032,-753.111 565.482,-754.089 574.339,-759.903 576.032,-753.111"/>
</g>
<!-- Node14 -->
<g id="node14" class="node"><title>Node14</title>
<g id="a_node14"><a xlink:href="classengine.html#a8b8dd82e72fd73e0601c30041529c4c0" target="_top" xlink:title="engine::_initialize">
<polygon fill="none" stroke="black" points="764,-773 764,-792 856,-792 856,-773 764,-773"/>
<text text-anchor="middle" x="810" y="-780" font-family="Helvetica,sans-Serif" font-size="10.00">engine::_initialize</text>
</a>
</g>
</g>
<!-- Node13&#45;&gt;Node14 -->
<g id="edge16" class="edge"><title>Node13&#45;&gt;Node14</title>
<path fill="none" stroke="midnightblue" d="M729.168,-782.5C740.436,-782.5 752.423,-782.5 763.588,-782.5"/>
<polygon fill="midnightblue" stroke="midnightblue" points="729.065,-779 719.065,-782.5 729.065,-786 729.065,-779"/>
</g>
<!-- Node14&#45;&gt;Node5 -->
<g id="edge18" class="edge"><title>Node14&#45;&gt;Node5</title>
<path fill="none" stroke="midnightblue" d="M852.045,-795.18C868.664,-800.315 887.532,-806.144 902.972,-810.914"/>
<polygon fill="midnightblue" stroke="midnightblue" points="852.626,-791.697 842.038,-792.089 850.559,-798.385 852.626,-791.697"/>
</g>
<!-- Node15 -->
<g id="node15" class="node"><title>Node15</title>
<g id="a_node15"><a xlink:href="classengine.html#a6809dcdfe78011851e377d4729a87ee4" target="_top" xlink:title="engine::initialize">
<polygon fill="none" stroke="black" points="892,-773 892,-792 978,-792 978,-773 892,-773"/>
<text text-anchor="middle" x="935" y="-780" font-family="Helvetica,sans-Serif" font-size="10.00">engine::initialize</text>
</a>
</g>
</g>
<!-- Node14&#45;&gt;Node15 -->
<g id="edge17" class="edge"><title>Node14&#45;&gt;Node15</title>
<path fill="none" stroke="midnightblue" d="M866.378,-782.5C874.903,-782.5 883.586,-782.5 891.765,-782.5"/>
<polygon fill="midnightblue" stroke="midnightblue" points="866.102,-779 856.102,-782.5 866.102,-786 866.102,-779"/>
</g>
<!-- Node17 -->
<g id="node17" class="node"><title>Node17</title>
<g id="a_node17"><a xlink:href="engine_8cpp.html#a6430a76bf18e17d995aa340aaf8c30a9" target="_top" xlink:title="MainWndProc">
<polygon fill="none" stroke="black" points="487,-647 487,-666 565,-666 565,-647 487,-647"/>
<text text-anchor="middle" x="526" y="-654" font-family="Helvetica,sans-Serif" font-size="10.00">MainWndProc</text>
</a>
</g>
</g>
<!-- Node16&#45;&gt;Node17 -->
<g id="edge20" class="edge"><title>Node16&#45;&gt;Node17</title>
<path fill="none" stroke="midnightblue" d="M423.029,-656.5C444.489,-656.5 467.853,-656.5 486.796,-656.5"/>
<polygon fill="midnightblue" stroke="midnightblue" points="423.001,-653 413.001,-656.5 423.001,-660 423.001,-653"/>
</g>
<!-- Node18 -->
<g id="node18" class="node"><title>Node18</title>
<g id="a_node18"><a xlink:href="classengine.html#a958aa4120f21278468225415ffe5ac92" target="_top" xlink:title="engine::_init_main\l_window">
<polygon fill="none" stroke="black" points="633,-723.5 633,-753.5 728,-753.5 728,-723.5 633,-723.5"/>
<text text-anchor="start" x="641" y="-741.5" font-family="Helvetica,sans-Serif" font-size="10.00">engine::_init_main</text>
<text text-anchor="middle" x="680.5" y="-730.5" font-family="Helvetica,sans-Serif" font-size="10.00">_window</text>
</a>
</g>
</g>
<!-- Node17&#45;&gt;Node18 -->
<g id="edge21" class="edge"><title>Node17&#45;&gt;Node18</title>
<path fill="none" stroke="midnightblue" d="M574.629,-667.554C582.29,-670.051 589.997,-673.018 597,-676.5 622.188,-689.023 647.511,-709.505 663.329,-723.473"/>
<polygon fill="midnightblue" stroke="midnightblue" points="575.59,-664.188 565.005,-664.638 573.56,-670.887 575.59,-664.188"/>
</g>
<!-- Node18&#45;&gt;Node5 -->
<g id="edge23" class="edge"><title>Node18&#45;&gt;Node5</title>
<path fill="none" stroke="midnightblue" d="M738.331,-737.306C773.927,-738.751 819.754,-744.752 856,-763.5 876.664,-774.188 873.047,-788.009 892,-801.5 897.086,-805.12 902.971,-808.298 908.697,-810.967"/>
<polygon fill="midnightblue" stroke="midnightblue" points="738.208,-733.801 728.108,-737.003 738,-740.797 738.208,-733.801"/>
</g>
<!-- Node18&#45;&gt;Node14 -->
<g id="edge22" class="edge"><title>Node18&#45;&gt;Node14</title>
<path fill="none" stroke="midnightblue" d="M734.809,-756.897C750.774,-762.406 767.637,-768.226 781.245,-772.922"/>
<polygon fill="midnightblue" stroke="midnightblue" points="735.616,-753.473 725.022,-753.519 733.333,-760.09 735.616,-753.473"/>
</g>
<!-- Node20 -->
<g id="node20" class="node"><title>Node20</title>
<g id="a_node20"><a xlink:href="classmt_1_1_command.html#a2c5624d20b5fe630cb6321b071911be2" target="_top" xlink:title="mt::Command::add_to\l_command_queue">
<polygon fill="none" stroke="black" points="303,-442.5 303,-472.5 416,-472.5 416,-442.5 303,-442.5"/>
<text text-anchor="start" x="311" y="-460.5" font-family="Helvetica,sans-Serif" font-size="10.00">mt::Command::add_to</text>
<text text-anchor="middle" x="359.5" y="-449.5" font-family="Helvetica,sans-Serif" font-size="10.00">_command_queue</text>
</a>
</g>
</g>
<!-- Node19&#45;&gt;Node20 -->
<g id="edge25" class="edge"><title>Node19&#45;&gt;Node20</title>
<path fill="none" stroke="midnightblue" d="M266.038,-457.5C278.283,-457.5 290.96,-457.5 302.856,-457.5"/>
<polygon fill="midnightblue" stroke="midnightblue" points="265.881,-454 255.881,-457.5 265.881,-461 265.881,-454"/>
</g>
<!-- Node25&#45;&gt;Node26 -->
<g id="edge31" class="edge"><title>Node25&#45;&gt;Node26</title>
<path fill="none" stroke="midnightblue" d="M253.282,-589.266C273.439,-593.717 296.116,-598.724 315.242,-602.948"/>
<polygon fill="midnightblue" stroke="midnightblue" points="253.83,-585.803 243.311,-587.064 252.321,-592.638 253.83,-585.803"/>
</g>
<!-- Node26&#45;&gt;Node6 -->
<g id="edge32" class="edge"><title>Node26&#45;&gt;Node6</title>
<path fill="none" stroke="midnightblue" d="M414.258,-613.314C477.664,-614.202 586.246,-615.5 679.5,-615.5 679.5,-615.5 679.5,-615.5 811,-615.5 932.338,-615.5 1022.54,-770.358 1044.07,-810.887"/>
<polygon fill="midnightblue" stroke="midnightblue" points="414.148,-609.812 404.099,-613.17 414.049,-616.811 414.148,-609.812"/>
</g>
<!-- Node28&#45;&gt;Node10 -->
<g id="edge35" class="edge"><title>Node28&#45;&gt;Node10</title>
<path fill="none" stroke="midnightblue" d="M258.876,-706.786C272.236,-708.894 286.425,-711.132 299.779,-713.238"/>
<polygon fill="midnightblue" stroke="midnightblue" points="259.272,-703.306 248.849,-705.205 258.181,-710.22 259.272,-703.306"/>
</g>
<!-- Node35&#45;&gt;Node3 -->
<g id="edge45" class="edge"><title>Node35&#45;&gt;Node3</title>
<path fill="none" stroke="midnightblue" d="M255.708,-891.96C278.61,-892.972 304.397,-894.111 324.413,-894.995"/>
<polygon fill="midnightblue" stroke="midnightblue" points="255.564,-888.451 245.42,-891.506 255.256,-895.444 255.564,-888.451"/>
</g>
</g>
</svg>
