<?xml version="1.0" encoding="UTF-8" standalone="no"?>
<!DOCTYPE svg PUBLIC "-//W3C//DTD SVG 1.1//EN"
 "http://www.w3.org/Graphics/SVG/1.1/DTD/svg11.dtd">
<!-- Generated by graphviz version 2.38.0 (20140413.2041)
 -->
<!-- Title: GameTimer::delta_time Pages: 1 -->
<svg width="703pt" height="143pt"
 viewBox="0.00 0.00 703.00 142.50" xmlns="http://www.w3.org/2000/svg" xmlns:xlink="http://www.w3.org/1999/xlink">
<g id="graph0" class="graph" transform="scale(1 1) rotate(0) translate(4 138.5)">
<title>GameTimer::delta_time</title>
<!-- Node1 -->
<g id="node1" class="node"><title>Node1</title>
<polygon fill="#bfbfbf" stroke="black" points="0,-6 0,-25 118,-25 118,-6 0,-6"/>
<text text-anchor="middle" x="59" y="-13" font-family="Helvetica,sans-Serif" font-size="10.00">GameTimer::delta_time</text>
</g>
<!-- Node2 -->
<g id="node2" class="node"><title>Node2</title>
<g id="a_node2"><a xlink:href="classengine.html#aef40b48edcc51792bb523f80c4eebbd3" target="_top" xlink:title="engine::_update_frame\l_stats">
<polygon fill="none" stroke="black" points="154,-0.5 154,-30.5 269,-30.5 269,-0.5 154,-0.5"/>
<text text-anchor="start" x="162" y="-18.5" font-family="Helvetica,sans-Serif" font-size="10.00">engine::_update_frame</text>
<text text-anchor="middle" x="211.5" y="-7.5" font-family="Helvetica,sans-Serif" font-size="10.00">_stats</text>
</a>
</g>
</g>
<!-- Node1&#45;&gt;Node2 -->
<g id="edge1" class="edge"><title>Node1&#45;&gt;Node2</title>
<path fill="none" stroke="midnightblue" d="M128.209,-15.5C136.818,-15.5 145.551,-15.5 153.952,-15.5"/>
<polygon fill="midnightblue" stroke="midnightblue" points="128.187,-12.0001 118.187,-15.5 128.187,-19.0001 128.187,-12.0001"/>
</g>
<!-- Node3 -->
<g id="node3" class="node"><title>Node3</title>
<g id="a_node3"><a xlink:href="classengine.html#a90418b124cd07d7d2f057e7d401ed641" target="_top" xlink:title="engine::_tick">
<polygon fill="none" stroke="black" points="305,-30 305,-49 377,-49 377,-30 305,-30"/>
<text text-anchor="middle" x="341" y="-37" font-family="Helvetica,sans-Serif" font-size="10.00">engine::_tick</text>
</a>
</g>
</g>
<!-- Node2&#45;&gt;Node3 -->
<g id="edge2" class="edge"><title>Node2&#45;&gt;Node3</title>
<path fill="none" stroke="midnightblue" d="M279.136,-28.0433C287.972,-29.7064 296.733,-31.3556 304.739,-32.8627"/>
<polygon fill="midnightblue" stroke="midnightblue" points="279.641,-24.5769 269.166,-26.1665 278.346,-31.4561 279.641,-24.5769"/>
</g>
<!-- Node7 -->
<g id="node7" class="node"><title>Node7</title>
<g id="a_node7"><a xlink:href="classengine.html#ada832d0a14502f1b99fdbd5c72cab01b" target="_top" xlink:title="engine::Draw">
<polygon fill="none" stroke="black" points="622,-30 622,-49 695,-49 695,-30 622,-30"/>
<text text-anchor="middle" x="658.5" y="-37" font-family="Helvetica,sans-Serif" font-size="10.00">engine::Draw</text>
</a>
</g>
</g>
<!-- Node2&#45;&gt;Node7 -->
<g id="edge10" class="edge"><title>Node2&#45;&gt;Node7</title>
<path fill="none" stroke="midnightblue" d="M279.542,-16.9726C309.389,-17.7739 344.962,-18.9286 377,-20.5 464.995,-24.8161 568.35,-32.4914 621.659,-36.6432"/>
<polygon fill="midnightblue" stroke="midnightblue" points="279.326,-13.4658 269.239,-16.7038 279.144,-20.4635 279.326,-13.4658"/>
</g>
<!-- Node4 -->
<g id="node4" class="node"><title>Node4</title>
<g id="a_node4"><a xlink:href="classengine.html#a4bca5e9257e46c09a63f71227fc25a12" target="_top" xlink:title="engine::tick">
<polygon fill="none" stroke="black" points="413,-77 413,-96 480,-96 480,-77 413,-77"/>
<text text-anchor="middle" x="446.5" y="-84" font-family="Helvetica,sans-Serif" font-size="10.00">engine::tick</text>
</a>
</g>
</g>
<!-- Node3&#45;&gt;Node4 -->
<g id="edge3" class="edge"><title>Node3&#45;&gt;Node4</title>
<path fill="none" stroke="midnightblue" d="M372.277,-53.2491C388.952,-60.8212 409.242,-70.035 424.231,-76.8417"/>
<polygon fill="midnightblue" stroke="midnightblue" points="373.497,-49.9591 362.945,-49.0112 370.603,-56.3327 373.497,-49.9591"/>
</g>
<!-- Node3&#45;&gt;Node7 -->
<g id="edge9" class="edge"><title>Node3&#45;&gt;Node7</title>
<path fill="none" stroke="midnightblue" d="M387.368,-34.5926C450.723,-31.995 564.381,-32.1439 621.971,-35.0391"/>
<polygon fill="midnightblue" stroke="midnightblue" points="387.104,-31.1009 377.273,-35.052 387.422,-38.0937 387.104,-31.1009"/>
</g>
<!-- Node5 -->
<g id="node5" class="node"><title>Node5</title>
<g id="a_node5"><a xlink:href="classengine.html#a1d9b806d03be0255a8ac3c119e181cc5" target="_top" xlink:title="engine::_run">
<polygon fill="none" stroke="black" points="516,-115 516,-134 586,-134 586,-115 516,-115"/>
<text text-anchor="middle" x="551" y="-122" font-family="Helvetica,sans-Serif" font-size="10.00">engine::_run</text>
</a>
</g>
</g>
<!-- Node4&#45;&gt;Node5 -->
<g id="edge4" class="edge"><title>Node4&#45;&gt;Node5</title>
<path fill="none" stroke="midnightblue" d="M482.884,-99.618C496.441,-104.644 511.641,-110.279 524.143,-114.914"/>
<polygon fill="midnightblue" stroke="midnightblue" points="483.958,-96.2835 473.365,-96.089 481.525,-102.847 483.958,-96.2835"/>
</g>
<!-- Node4&#45;&gt;Node7 -->
<g id="edge8" class="edge"><title>Node4&#45;&gt;Node7</title>
<path fill="none" stroke="midnightblue" d="M490.315,-80.6597C517.846,-76.517 554.273,-70.3114 586,-62.5 601.067,-58.7904 617.576,-53.5597 630.931,-49.0237"/>
<polygon fill="midnightblue" stroke="midnightblue" points="489.611,-77.2256 480.228,-82.1455 490.631,-84.1509 489.611,-77.2256"/>
</g>
<!-- Node6 -->
<g id="node6" class="node"><title>Node6</title>
<g id="a_node6"><a xlink:href="classengine.html#aecb22d51cc8f83cacbf3696a18d66c30" target="_top" xlink:title="engine::run">
<polygon fill="none" stroke="black" points="626,-115 626,-134 691,-134 691,-115 626,-115"/>
<text text-anchor="middle" x="658.5" y="-122" font-family="Helvetica,sans-Serif" font-size="10.00">engine::run</text>
</a>
</g>
</g>
<!-- Node5&#45;&gt;Node6 -->
<g id="edge5" class="edge"><title>Node5&#45;&gt;Node6</title>
<path fill="none" stroke="midnightblue" d="M596.387,-124.5C606.311,-124.5 616.639,-124.5 625.92,-124.5"/>
<polygon fill="midnightblue" stroke="midnightblue" points="596.253,-121 586.253,-124.5 596.253,-128 596.253,-121"/>
</g>
<!-- Node5&#45;&gt;Node7 -->
<g id="edge6" class="edge"><title>Node5&#45;&gt;Node7</title>
<path fill="none" stroke="midnightblue" d="M574.389,-109.135C578.305,-106.324 582.306,-103.37 586,-100.5 608.163,-83.282 632.821,-61.6643 646.616,-49.3315"/>
<polygon fill="midnightblue" stroke="midnightblue" points="572.262,-106.352 566.105,-114.974 576.295,-112.074 572.262,-106.352"/>
</g>
<!-- Node7&#45;&gt;Node3 -->
<g id="edge7" class="edge"><title>Node7&#45;&gt;Node3</title>
<path fill="none" stroke="midnightblue" d="M611.85,-44.4189C548.347,-47.0084 434.698,-46.8514 377.273,-43.948"/>
<polygon fill="midnightblue" stroke="midnightblue" points="612.139,-47.9095 621.971,-43.9609 611.823,-40.9166 612.139,-47.9095"/>
</g>
</g>
</svg>
