<?xml version="1.0" encoding="UTF-8" standalone="no"?>
<!DOCTYPE svg PUBLIC "-//W3C//DTD SVG 1.1//EN"
 "http://www.w3.org/Graphics/SVG/1.1/DTD/svg11.dtd">
<!-- Generated by graphviz version 2.38.0 (20140413.2041)
 -->
<!-- Title: mt::CommandQueue::CommandQueue Pages: 1 -->
<svg width="355pt" height="78pt"
 viewBox="0.00 0.00 355.00 77.50" xmlns="http://www.w3.org/2000/svg" xmlns:xlink="http://www.w3.org/1999/xlink">
<g id="graph0" class="graph" transform="scale(1 1) rotate(0) translate(4 73.5)">
<title>mt::CommandQueue::CommandQueue</title>
<!-- Node1 -->
<g id="node1" class="node"><title>Node1</title>
<polygon fill="#bfbfbf" stroke="black" points="0,-17 0,-47 157,-47 157,-17 0,-17"/>
<text text-anchor="start" x="8" y="-35" font-family="Helvetica,sans-Serif" font-size="10.00">mt::CommandQueue::Command</text>
<text text-anchor="middle" x="78.5" y="-24" font-family="Helvetica,sans-Serif" font-size="10.00">Queue</text>
</g>
<!-- Node2 -->
<g id="node2" class="node"><title>Node2</title>
<g id="a_node2"><a xlink:href="classmt_1_1_command_queue.html#aa193a8792c8fa9705945dcdec70f4c59" target="_top" xlink:title="mt::CommandQueue::\l~CommandQueue">
<polygon fill="none" stroke="black" points="213.5,-39 213.5,-69 326.5,-69 326.5,-39 213.5,-39"/>
<text text-anchor="start" x="221.5" y="-57" font-family="Helvetica,sans-Serif" font-size="10.00">mt::CommandQueue::</text>
<text text-anchor="middle" x="270" y="-46" font-family="Helvetica,sans-Serif" font-size="10.00">~CommandQueue</text>
</a>
</g>
</g>
<!-- Node1&#45;&gt;Node2 -->
<g id="edge1" class="edge"><title>Node1&#45;&gt;Node2</title>
<path fill="none" stroke="midnightblue" d="M157.124,-41.0117C172.405,-42.7857 188.3,-44.6311 203.149,-46.355"/>
<polygon fill="midnightblue" stroke="midnightblue" points="202.904,-49.85 213.241,-47.5266 203.711,-42.8967 202.904,-49.85"/>
</g>
<!-- Node3 -->
<g id="node3" class="node"><title>Node3</title>
<g id="a_node3"><a xlink:href="classmt_1_1_command_queue.html#a2b65fc85016dac2dec92fab725d70e39" target="_top" xlink:title="mt::CommandQueue::operator=">
<polygon fill="none" stroke="black" points="193,-0.5 193,-19.5 347,-19.5 347,-0.5 193,-0.5"/>
<text text-anchor="middle" x="270" y="-7.5" font-family="Helvetica,sans-Serif" font-size="10.00">mt::CommandQueue::operator=</text>
</a>
</g>
</g>
<!-- Node1&#45;&gt;Node3 -->
<g id="edge2" class="edge"><title>Node1&#45;&gt;Node3</title>
<path fill="none" stroke="midnightblue" d="M157.124,-22.9883C165.572,-22.0074 174.209,-21.0048 182.752,-20.0129"/>
<polygon fill="midnightblue" stroke="midnightblue" points="183.192,-23.4854 192.722,-18.8555 182.385,-16.5321 183.192,-23.4854"/>
</g>
</g>
</svg>
