<?xml version="1.0" encoding="UTF-8" standalone="no"?>
<!DOCTYPE svg PUBLIC "-//W3C//DTD SVG 1.1//EN"
 "http://www.w3.org/Graphics/SVG/1.1/DTD/svg11.dtd">
<!-- Generated by graphviz version 2.38.0 (20140413.2041)
 -->
<!-- Title: GameTimer::initialize Pages: 1 -->
<svg width="542pt" height="85pt"
 viewBox="0.00 0.00 542.00 85.00" xmlns="http://www.w3.org/2000/svg" xmlns:xlink="http://www.w3.org/1999/xlink">
<g id="graph0" class="graph" transform="scale(1 1) rotate(0) translate(4 81)">
<title>GameTimer::initialize</title>
<!-- Node1 -->
<g id="node1" class="node"><title>Node1</title>
<polygon fill="#bfbfbf" stroke="black" points="0,-19.5 0,-38.5 108,-38.5 108,-19.5 0,-19.5"/>
<text text-anchor="middle" x="54" y="-26.5" font-family="Helvetica,sans-Serif" font-size="10.00">GameTimer::initialize</text>
</g>
<!-- Node2 -->
<g id="node2" class="node"><title>Node2</title>
<g id="a_node2"><a xlink:href="classengine.html#a1d9b806d03be0255a8ac3c119e181cc5" target="_top" xlink:title="engine::_run">
<polygon fill="none" stroke="black" points="144,-19.5 144,-38.5 214,-38.5 214,-19.5 144,-19.5"/>
<text text-anchor="middle" x="179" y="-26.5" font-family="Helvetica,sans-Serif" font-size="10.00">engine::_run</text>
</a>
</g>
</g>
<!-- Node1&#45;&gt;Node2 -->
<g id="edge1" class="edge"><title>Node1&#45;&gt;Node2</title>
<path fill="none" stroke="midnightblue" d="M118.484,-29C127.23,-29 135.923,-29 143.854,-29"/>
<polygon fill="midnightblue" stroke="midnightblue" points="118.234,-25.5001 108.234,-29 118.234,-32.5001 118.234,-25.5001"/>
</g>
<!-- Node3 -->
<g id="node3" class="node"><title>Node3</title>
<g id="a_node3"><a xlink:href="classengine.html#aecb22d51cc8f83cacbf3696a18d66c30" target="_top" xlink:title="engine::run">
<polygon fill="none" stroke="black" points="254,-57.5 254,-76.5 319,-76.5 319,-57.5 254,-57.5"/>
<text text-anchor="middle" x="286.5" y="-64.5" font-family="Helvetica,sans-Serif" font-size="10.00">engine::run</text>
</a>
</g>
</g>
<!-- Node2&#45;&gt;Node3 -->
<g id="edge2" class="edge"><title>Node2&#45;&gt;Node3</title>
<path fill="none" stroke="midnightblue" d="M216.42,-42.118C230.373,-47.1439 246.018,-52.7791 258.886,-57.4141"/>
<polygon fill="midnightblue" stroke="midnightblue" points="217.217,-38.6849 206.622,-38.589 214.844,-45.2708 217.217,-38.6849"/>
</g>
<!-- Node4 -->
<g id="node4" class="node"><title>Node4</title>
<g id="a_node4"><a xlink:href="classengine.html#ada832d0a14502f1b99fdbd5c72cab01b" target="_top" xlink:title="engine::Draw">
<polygon fill="none" stroke="black" points="250,-19.5 250,-38.5 323,-38.5 323,-19.5 250,-19.5"/>
<text text-anchor="middle" x="286.5" y="-26.5" font-family="Helvetica,sans-Serif" font-size="10.00">engine::Draw</text>
</a>
</g>
</g>
<!-- Node2&#45;&gt;Node4 -->
<g id="edge3" class="edge"><title>Node2&#45;&gt;Node4</title>
<path fill="none" stroke="midnightblue" d="M224.437,-29C232.958,-29 241.775,-29 249.97,-29"/>
<polygon fill="midnightblue" stroke="midnightblue" points="224.253,-25.5001 214.253,-29 224.253,-32.5001 224.253,-25.5001"/>
</g>
<!-- Node5 -->
<g id="node5" class="node"><title>Node5</title>
<g id="a_node5"><a xlink:href="classengine.html#a90418b124cd07d7d2f057e7d401ed641" target="_top" xlink:title="engine::_tick">
<polygon fill="none" stroke="black" points="359,-38.5 359,-57.5 431,-57.5 431,-38.5 359,-38.5"/>
<text text-anchor="middle" x="395" y="-45.5" font-family="Helvetica,sans-Serif" font-size="10.00">engine::_tick</text>
</a>
</g>
</g>
<!-- Node4&#45;&gt;Node5 -->
<g id="edge4" class="edge"><title>Node4&#45;&gt;Node5</title>
<path fill="none" stroke="midnightblue" d="M333.293,-30.4789C346.652,-32.6489 360.65,-35.5093 371.833,-38.4442"/>
<polygon fill="midnightblue" stroke="midnightblue" points="333.67,-26.9961 323.259,-28.9642 332.625,-33.9177 333.67,-26.9961"/>
</g>
<!-- Node5&#45;&gt;Node4 -->
<g id="edge8" class="edge"><title>Node5&#45;&gt;Node4</title>
<path fill="none" stroke="midnightblue" d="M348.785,-46.6147C335.213,-44.4273 320.928,-41.516 309.567,-38.5295"/>
<polygon fill="midnightblue" stroke="midnightblue" points="348.557,-50.1194 358.964,-48.1355 349.591,-43.1962 348.557,-50.1194"/>
</g>
<!-- Node6 -->
<g id="node6" class="node"><title>Node6</title>
<g id="a_node6"><a xlink:href="classengine.html#a4bca5e9257e46c09a63f71227fc25a12" target="_top" xlink:title="engine::tick">
<polygon fill="none" stroke="black" points="467,-0.5 467,-19.5 534,-19.5 534,-0.5 467,-0.5"/>
<text text-anchor="middle" x="500.5" y="-7.5" font-family="Helvetica,sans-Serif" font-size="10.00">engine::tick</text>
</a>
</g>
</g>
<!-- Node5&#45;&gt;Node6 -->
<g id="edge5" class="edge"><title>Node5&#45;&gt;Node6</title>
<path fill="none" stroke="midnightblue" d="M431.729,-34.882C445.418,-29.8561 460.767,-24.2209 473.391,-19.5859"/>
<polygon fill="midnightblue" stroke="midnightblue" points="430.298,-31.6788 422.117,-38.411 432.711,-38.2499 430.298,-31.6788"/>
</g>
<!-- Node6&#45;&gt;Node2 -->
<g id="edge6" class="edge"><title>Node6&#45;&gt;Node2</title>
<path fill="none" stroke="midnightblue" d="M456.519,-6.56738C406.618,-3.37441 321.952,-0.408542 250,-10 236.02,-11.8636 220.874,-15.7332 208.258,-19.497"/>
<polygon fill="midnightblue" stroke="midnightblue" points="456.41,-10.0679 466.623,-7.24773 456.881,-3.0837 456.41,-10.0679"/>
</g>
<!-- Node6&#45;&gt;Node4 -->
<g id="edge7" class="edge"><title>Node6&#45;&gt;Node4</title>
<path fill="none" stroke="midnightblue" d="M456.815,-13.8255C417.667,-17.334 360.334,-22.4725 323.463,-25.7769"/>
<polygon fill="midnightblue" stroke="midnightblue" points="457.199,-17.3052 466.847,-12.9265 456.574,-10.3332 457.199,-17.3052"/>
</g>
</g>
</svg>
