<?xml version="1.0" encoding="UTF-8" standalone="no"?>
<!DOCTYPE svg PUBLIC "-//W3C//DTD SVG 1.1//EN"
 "http://www.w3.org/Graphics/SVG/1.1/DTD/svg11.dtd">
<!-- Generated by graphviz version 2.38.0 (20140413.2041)
 -->
<!-- Title: mt::CommandQueue::execute_commands Pages: 1 -->
<svg width="468pt" height="39pt"
 viewBox="0.00 0.00 468.00 39.00" xmlns="http://www.w3.org/2000/svg" xmlns:xlink="http://www.w3.org/1999/xlink">
<g id="graph0" class="graph" transform="scale(1 1) rotate(0) translate(4 35)">
<title>mt::CommandQueue::execute_commands</title>
<!-- Node1 -->
<g id="node1" class="node"><title>Node1</title>
<polygon fill="#bfbfbf" stroke="black" points="0,-0.5 0,-30.5 147,-30.5 147,-0.5 0,-0.5"/>
<text text-anchor="start" x="8" y="-18.5" font-family="Helvetica,sans-Serif" font-size="10.00">mt::CommandQueue::execute</text>
<text text-anchor="middle" x="73.5" y="-7.5" font-family="Helvetica,sans-Serif" font-size="10.00">_commands</text>
</g>
<!-- Node2 -->
<g id="node2" class="node"><title>Node2</title>
<g id="a_node2"><a xlink:href="classmt_1_1_command_queue.html#a1e236f8d899abf2bc6b0e52e0b2bf691" target="_top" xlink:title="mt::CommandQueue::add\l_command">
<polygon fill="none" stroke="black" points="183,-0.5 183,-30.5 311,-30.5 311,-0.5 183,-0.5"/>
<text text-anchor="start" x="191" y="-18.5" font-family="Helvetica,sans-Serif" font-size="10.00">mt::CommandQueue::add</text>
<text text-anchor="middle" x="247" y="-7.5" font-family="Helvetica,sans-Serif" font-size="10.00">_command</text>
</a>
</g>
</g>
<!-- Node1&#45;&gt;Node2 -->
<g id="edge1" class="edge"><title>Node1&#45;&gt;Node2</title>
<path fill="none" stroke="midnightblue" d="M157.305,-15.5C165.92,-15.5 174.574,-15.5 182.92,-15.5"/>
<polygon fill="midnightblue" stroke="midnightblue" points="157.231,-12.0001 147.231,-15.5 157.231,-19.0001 157.231,-12.0001"/>
</g>
<!-- Node3 -->
<g id="node3" class="node"><title>Node3</title>
<g id="a_node3"><a xlink:href="classmt_1_1_command.html#a2c5624d20b5fe630cb6321b071911be2" target="_top" xlink:title="mt::Command::add_to\l_command_queue">
<polygon fill="none" stroke="black" points="347,-0.5 347,-30.5 460,-30.5 460,-0.5 347,-0.5"/>
<text text-anchor="start" x="355" y="-18.5" font-family="Helvetica,sans-Serif" font-size="10.00">mt::Command::add_to</text>
<text text-anchor="middle" x="403.5" y="-7.5" font-family="Helvetica,sans-Serif" font-size="10.00">_command_queue</text>
</a>
</g>
</g>
<!-- Node2&#45;&gt;Node3 -->
<g id="edge2" class="edge"><title>Node2&#45;&gt;Node3</title>
<path fill="none" stroke="midnightblue" d="M321.353,-15.5C329.975,-15.5 338.662,-15.5 346.983,-15.5"/>
<polygon fill="midnightblue" stroke="midnightblue" points="321.287,-12.0001 311.287,-15.5 321.287,-19.0001 321.287,-12.0001"/>
</g>
</g>
</svg>
