<?xml version="1.0" encoding="UTF-8" standalone="no"?>
<!DOCTYPE svg PUBLIC "-//W3C//DTD SVG 1.1//EN"
 "http://www.w3.org/Graphics/SVG/1.1/DTD/svg11.dtd">
<!-- Generated by graphviz version 2.38.0 (20140413.2041)
 -->
<!-- Title: DirectXRenderer::log_adapter_outputs Pages: 1 -->
<svg width="1086pt" height="104pt"
 viewBox="0.00 0.00 1086.00 104.00" xmlns="http://www.w3.org/2000/svg" xmlns:xlink="http://www.w3.org/1999/xlink">
<g id="graph0" class="graph" transform="scale(1 1) rotate(0) translate(4 100)">
<title>DirectXRenderer::log_adapter_outputs</title>
<!-- Node1 -->
<g id="node1" class="node"><title>Node1</title>
<polygon fill="#bfbfbf" stroke="black" points="0,-52 0,-82 105,-82 105,-52 0,-52"/>
<text text-anchor="start" x="8" y="-70" font-family="Helvetica,sans-Serif" font-size="10.00">DirectXRenderer::log</text>
<text text-anchor="middle" x="52.5" y="-59" font-family="Helvetica,sans-Serif" font-size="10.00">_adapter_outputs</text>
</g>
<!-- Node2 -->
<g id="node2" class="node"><title>Node2</title>
<g id="a_node2"><a xlink:href="class_direct_x_renderer.html#a8bf63477a5f9f210b627c2d07d54caa5" target="_top" xlink:title="DirectXRenderer::log\l_adapters">
<polygon fill="none" stroke="black" points="141,-52 141,-82 246,-82 246,-52 141,-52"/>
<text text-anchor="start" x="149" y="-70" font-family="Helvetica,sans-Serif" font-size="10.00">DirectXRenderer::log</text>
<text text-anchor="middle" x="193.5" y="-59" font-family="Helvetica,sans-Serif" font-size="10.00">_adapters</text>
</a>
</g>
</g>
<!-- Node1&#45;&gt;Node2 -->
<g id="edge1" class="edge"><title>Node1&#45;&gt;Node2</title>
<path fill="none" stroke="midnightblue" d="M115.441,-67C123.878,-67 132.466,-67 140.698,-67"/>
<polygon fill="midnightblue" stroke="midnightblue" points="115.259,-63.5001 105.258,-67 115.258,-70.5001 115.259,-63.5001"/>
</g>
<!-- Node3 -->
<g id="node3" class="node"><title>Node3</title>
<g id="a_node3"><a xlink:href="class_direct_x_renderer.html#a0d6aef4c838ac765f726391ee65c346c" target="_top" xlink:title="DirectXRenderer::initialize\l_direct3d">
<polygon fill="none" stroke="black" points="282,-52 282,-82 410,-82 410,-52 282,-52"/>
<text text-anchor="start" x="290" y="-70" font-family="Helvetica,sans-Serif" font-size="10.00">DirectXRenderer::initialize</text>
<text text-anchor="middle" x="346" y="-59" font-family="Helvetica,sans-Serif" font-size="10.00">_direct3d</text>
</a>
</g>
</g>
<!-- Node2&#45;&gt;Node3 -->
<g id="edge2" class="edge"><title>Node2&#45;&gt;Node3</title>
<path fill="none" stroke="midnightblue" d="M256.421,-67C264.842,-67 273.492,-67 281.932,-67"/>
<polygon fill="midnightblue" stroke="midnightblue" points="256.294,-63.5001 246.294,-67 256.294,-70.5001 256.294,-63.5001"/>
</g>
<!-- Node4 -->
<g id="node4" class="node"><title>Node4</title>
<g id="a_node4"><a xlink:href="classengine.html#a8b8dd82e72fd73e0601c30041529c4c0" target="_top" xlink:title="engine::_initialize">
<polygon fill="none" stroke="black" points="446,-57.5 446,-76.5 538,-76.5 538,-57.5 446,-57.5"/>
<text text-anchor="middle" x="492" y="-64.5" font-family="Helvetica,sans-Serif" font-size="10.00">engine::_initialize</text>
</a>
</g>
</g>
<!-- Node3&#45;&gt;Node4 -->
<g id="edge3" class="edge"><title>Node3&#45;&gt;Node4</title>
<path fill="none" stroke="midnightblue" d="M420.283,-67C428.922,-67 437.536,-67 445.627,-67"/>
<polygon fill="midnightblue" stroke="midnightblue" points="420.161,-63.5001 410.16,-67 420.16,-70.5001 420.161,-63.5001"/>
</g>
<!-- Node5 -->
<g id="node5" class="node"><title>Node5</title>
<g id="a_node5"><a xlink:href="classengine.html#a6809dcdfe78011851e377d4729a87ee4" target="_top" xlink:title="engine::initialize">
<polygon fill="none" stroke="black" points="574,-76.5 574,-95.5 660,-95.5 660,-76.5 574,-76.5"/>
<text text-anchor="middle" x="617" y="-83.5" font-family="Helvetica,sans-Serif" font-size="10.00">engine::initialize</text>
</a>
</g>
</g>
<!-- Node4&#45;&gt;Node5 -->
<g id="edge4" class="edge"><title>Node4&#45;&gt;Node5</title>
<path fill="none" stroke="midnightblue" d="M548.097,-75.5109C556.712,-76.8417 565.497,-78.1987 573.765,-79.4758"/>
<polygon fill="midnightblue" stroke="midnightblue" points="548.519,-72.0347 538.102,-73.967 547.451,-78.9527 548.519,-72.0347"/>
</g>
<!-- Node6 -->
<g id="node6" class="node"><title>Node6</title>
<g id="a_node6"><a xlink:href="classengine.html#ada832d0a14502f1b99fdbd5c72cab01b" target="_top" xlink:title="engine::Draw">
<polygon fill="none" stroke="black" points="580.5,-38.5 580.5,-57.5 653.5,-57.5 653.5,-38.5 580.5,-38.5"/>
<text text-anchor="middle" x="617" y="-45.5" font-family="Helvetica,sans-Serif" font-size="10.00">engine::Draw</text>
</a>
</g>
</g>
<!-- Node4&#45;&gt;Node6 -->
<g id="edge5" class="edge"><title>Node4&#45;&gt;Node6</title>
<path fill="none" stroke="midnightblue" d="M547.998,-58.5044C558.9,-56.8203 570.079,-55.0935 580.142,-53.5391"/>
<polygon fill="midnightblue" stroke="midnightblue" points="547.451,-55.0473 538.102,-60.033 548.519,-61.9653 547.451,-55.0473"/>
</g>
<!-- Node7 -->
<g id="node7" class="node"><title>Node7</title>
<g id="a_node7"><a xlink:href="classengine.html#a90418b124cd07d7d2f057e7d401ed641" target="_top" xlink:title="engine::_tick">
<polygon fill="none" stroke="black" points="696,-57.5 696,-76.5 768,-76.5 768,-57.5 696,-57.5"/>
<text text-anchor="middle" x="732" y="-64.5" font-family="Helvetica,sans-Serif" font-size="10.00">engine::_tick</text>
</a>
</g>
</g>
<!-- Node6&#45;&gt;Node7 -->
<g id="edge6" class="edge"><title>Node6&#45;&gt;Node7</title>
<path fill="none" stroke="midnightblue" d="M663.921,-49.0775C678.923,-51.2953 694.957,-54.3417 707.586,-57.4705"/>
<polygon fill="midnightblue" stroke="midnightblue" points="664.137,-45.5744 653.754,-47.6836 663.186,-52.5095 664.137,-45.5744"/>
</g>
<!-- Node7&#45;&gt;Node6 -->
<g id="edge12" class="edge"><title>Node7&#45;&gt;Node6</title>
<path fill="none" stroke="midnightblue" d="M685.371,-65.9655C670.285,-63.7442 654.125,-60.6786 641.414,-57.5295"/>
<polygon fill="midnightblue" stroke="midnightblue" points="685.206,-69.4754 695.588,-67.3592 686.152,-62.5397 685.206,-69.4754"/>
</g>
<!-- Node8 -->
<g id="node8" class="node"><title>Node8</title>
<g id="a_node8"><a xlink:href="classengine.html#a4bca5e9257e46c09a63f71227fc25a12" target="_top" xlink:title="engine::tick">
<polygon fill="none" stroke="black" points="804,-19.5 804,-38.5 871,-38.5 871,-19.5 804,-19.5"/>
<text text-anchor="middle" x="837.5" y="-26.5" font-family="Helvetica,sans-Serif" font-size="10.00">engine::tick</text>
</a>
</g>
</g>
<!-- Node7&#45;&gt;Node8 -->
<g id="edge7" class="edge"><title>Node7&#45;&gt;Node8</title>
<path fill="none" stroke="midnightblue" d="M768.729,-53.882C782.418,-48.8561 797.767,-43.2209 810.391,-38.5859"/>
<polygon fill="midnightblue" stroke="midnightblue" points="767.298,-50.6788 759.117,-57.411 769.711,-57.2499 767.298,-50.6788"/>
</g>
<!-- Node8&#45;&gt;Node6 -->
<g id="edge11" class="edge"><title>Node8&#45;&gt;Node6</title>
<path fill="none" stroke="midnightblue" d="M793.585,-32.7318C752.696,-36.2873 691.86,-41.5774 653.592,-44.905"/>
<polygon fill="midnightblue" stroke="midnightblue" points="794.122,-36.1984 803.781,-31.8451 793.515,-29.2247 794.122,-36.1984"/>
</g>
<!-- Node9 -->
<g id="node9" class="node"><title>Node9</title>
<g id="a_node9"><a xlink:href="classengine.html#a1d9b806d03be0255a8ac3c119e181cc5" target="_top" xlink:title="engine::_run">
<polygon fill="none" stroke="black" points="907,-0.5 907,-19.5 977,-19.5 977,-0.5 907,-0.5"/>
<text text-anchor="middle" x="942" y="-7.5" font-family="Helvetica,sans-Serif" font-size="10.00">engine::_run</text>
</a>
</g>
</g>
<!-- Node8&#45;&gt;Node9 -->
<g id="edge8" class="edge"><title>Node8&#45;&gt;Node9</title>
<path fill="none" stroke="midnightblue" d="M881.077,-21.1076C889.662,-19.5164 898.581,-17.8631 906.832,-16.3335"/>
<polygon fill="midnightblue" stroke="midnightblue" points="880.408,-17.672 871.213,-22.936 881.684,-24.5547 880.408,-17.672"/>
</g>
<!-- Node9&#45;&gt;Node6 -->
<g id="edge10" class="edge"><title>Node9&#45;&gt;Node6</title>
<path fill="none" stroke="midnightblue" d="M896.606,-7.84934C869.741,-7.08197 834.829,-7.03059 804,-10 755.326,-14.6883 743.892,-21.1262 696,-31 682.154,-33.8545 666.959,-37.1331 653.688,-40.0447"/>
<polygon fill="midnightblue" stroke="midnightblue" points="896.741,-11.3556 906.851,-8.1874 896.972,-4.35941 896.741,-11.3556"/>
</g>
<!-- Node10 -->
<g id="node10" class="node"><title>Node10</title>
<g id="a_node10"><a xlink:href="classengine.html#aecb22d51cc8f83cacbf3696a18d66c30" target="_top" xlink:title="engine::run">
<polygon fill="none" stroke="black" points="1013,-0.5 1013,-19.5 1078,-19.5 1078,-0.5 1013,-0.5"/>
<text text-anchor="middle" x="1045.5" y="-7.5" font-family="Helvetica,sans-Serif" font-size="10.00">engine::run</text>
</a>
</g>
</g>
<!-- Node9&#45;&gt;Node10 -->
<g id="edge9" class="edge"><title>Node9&#45;&gt;Node10</title>
<path fill="none" stroke="midnightblue" d="M987.325,-10C995.879,-10 1004.68,-10 1012.74,-10"/>
<polygon fill="midnightblue" stroke="midnightblue" points="987.08,-6.5001 977.08,-10 987.08,-13.5001 987.08,-6.5001"/>
</g>
</g>
</svg>
