<?xml version="1.0" encoding="UTF-8" standalone="no"?>
<!DOCTYPE svg PUBLIC "-//W3C//DTD SVG 1.1//EN"
 "http://www.w3.org/Graphics/SVG/1.1/DTD/svg11.dtd">
<!-- Generated by graphviz version 2.38.0 (20140413.2041)
 -->
<!-- Title: DirectXRenderer::create_descriptor_heaps Pages: 1 -->
<svg width="959pt" height="104pt"
 viewBox="0.00 0.00 959.00 104.00" xmlns="http://www.w3.org/2000/svg" xmlns:xlink="http://www.w3.org/1999/xlink">
<g id="graph0" class="graph" transform="scale(1 1) rotate(0) translate(4 100)">
<title>DirectXRenderer::create_descriptor_heaps</title>
<!-- Node1 -->
<g id="node1" class="node"><title>Node1</title>
<polygon fill="#bfbfbf" stroke="black" points="0,-52 0,-82 119,-82 119,-52 0,-52"/>
<text text-anchor="start" x="8" y="-70" font-family="Helvetica,sans-Serif" font-size="10.00">DirectXRenderer::create</text>
<text text-anchor="middle" x="59.5" y="-59" font-family="Helvetica,sans-Serif" font-size="10.00">_descriptor_heaps</text>
</g>
<!-- Node2 -->
<g id="node2" class="node"><title>Node2</title>
<g id="a_node2"><a xlink:href="class_direct_x_renderer.html#a0d6aef4c838ac765f726391ee65c346c" target="_top" xlink:title="DirectXRenderer::initialize\l_direct3d">
<polygon fill="none" stroke="black" points="155,-52 155,-82 283,-82 283,-52 155,-52"/>
<text text-anchor="start" x="163" y="-70" font-family="Helvetica,sans-Serif" font-size="10.00">DirectXRenderer::initialize</text>
<text text-anchor="middle" x="219" y="-59" font-family="Helvetica,sans-Serif" font-size="10.00">_direct3d</text>
</a>
</g>
</g>
<!-- Node1&#45;&gt;Node2 -->
<g id="edge1" class="edge"><title>Node1&#45;&gt;Node2</title>
<path fill="none" stroke="midnightblue" d="M129.365,-67C137.826,-67 146.443,-67 154.814,-67"/>
<polygon fill="midnightblue" stroke="midnightblue" points="129.147,-63.5001 119.147,-67 129.147,-70.5001 129.147,-63.5001"/>
</g>
<!-- Node3 -->
<g id="node3" class="node"><title>Node3</title>
<g id="a_node3"><a xlink:href="classengine.html#a8b8dd82e72fd73e0601c30041529c4c0" target="_top" xlink:title="engine::_initialize">
<polygon fill="none" stroke="black" points="319,-57.5 319,-76.5 411,-76.5 411,-57.5 319,-57.5"/>
<text text-anchor="middle" x="365" y="-64.5" font-family="Helvetica,sans-Serif" font-size="10.00">engine::_initialize</text>
</a>
</g>
</g>
<!-- Node2&#45;&gt;Node3 -->
<g id="edge2" class="edge"><title>Node2&#45;&gt;Node3</title>
<path fill="none" stroke="midnightblue" d="M293.283,-67C301.922,-67 310.536,-67 318.627,-67"/>
<polygon fill="midnightblue" stroke="midnightblue" points="293.161,-63.5001 283.16,-67 293.16,-70.5001 293.161,-63.5001"/>
</g>
<!-- Node4 -->
<g id="node4" class="node"><title>Node4</title>
<g id="a_node4"><a xlink:href="classengine.html#a6809dcdfe78011851e377d4729a87ee4" target="_top" xlink:title="engine::initialize">
<polygon fill="none" stroke="black" points="447,-76.5 447,-95.5 533,-95.5 533,-76.5 447,-76.5"/>
<text text-anchor="middle" x="490" y="-83.5" font-family="Helvetica,sans-Serif" font-size="10.00">engine::initialize</text>
</a>
</g>
</g>
<!-- Node3&#45;&gt;Node4 -->
<g id="edge3" class="edge"><title>Node3&#45;&gt;Node4</title>
<path fill="none" stroke="midnightblue" d="M421.097,-75.5109C429.712,-76.8417 438.497,-78.1987 446.765,-79.4758"/>
<polygon fill="midnightblue" stroke="midnightblue" points="421.519,-72.0347 411.102,-73.967 420.451,-78.9527 421.519,-72.0347"/>
</g>
<!-- Node5 -->
<g id="node5" class="node"><title>Node5</title>
<g id="a_node5"><a xlink:href="classengine.html#ada832d0a14502f1b99fdbd5c72cab01b" target="_top" xlink:title="engine::Draw">
<polygon fill="none" stroke="black" points="453.5,-38.5 453.5,-57.5 526.5,-57.5 526.5,-38.5 453.5,-38.5"/>
<text text-anchor="middle" x="490" y="-45.5" font-family="Helvetica,sans-Serif" font-size="10.00">engine::Draw</text>
</a>
</g>
</g>
<!-- Node3&#45;&gt;Node5 -->
<g id="edge4" class="edge"><title>Node3&#45;&gt;Node5</title>
<path fill="none" stroke="midnightblue" d="M420.998,-58.5044C431.9,-56.8203 443.079,-55.0935 453.142,-53.5391"/>
<polygon fill="midnightblue" stroke="midnightblue" points="420.451,-55.0473 411.102,-60.033 421.519,-61.9653 420.451,-55.0473"/>
</g>
<!-- Node6 -->
<g id="node6" class="node"><title>Node6</title>
<g id="a_node6"><a xlink:href="classengine.html#a90418b124cd07d7d2f057e7d401ed641" target="_top" xlink:title="engine::_tick">
<polygon fill="none" stroke="black" points="569,-57.5 569,-76.5 641,-76.5 641,-57.5 569,-57.5"/>
<text text-anchor="middle" x="605" y="-64.5" font-family="Helvetica,sans-Serif" font-size="10.00">engine::_tick</text>
</a>
</g>
</g>
<!-- Node5&#45;&gt;Node6 -->
<g id="edge5" class="edge"><title>Node5&#45;&gt;Node6</title>
<path fill="none" stroke="midnightblue" d="M536.921,-49.0775C551.923,-51.2953 567.957,-54.3417 580.586,-57.4705"/>
<polygon fill="midnightblue" stroke="midnightblue" points="537.137,-45.5744 526.754,-47.6836 536.186,-52.5095 537.137,-45.5744"/>
</g>
<!-- Node6&#45;&gt;Node5 -->
<g id="edge11" class="edge"><title>Node6&#45;&gt;Node5</title>
<path fill="none" stroke="midnightblue" d="M558.371,-65.9655C543.285,-63.7442 527.125,-60.6786 514.414,-57.5295"/>
<polygon fill="midnightblue" stroke="midnightblue" points="558.206,-69.4754 568.588,-67.3592 559.152,-62.5397 558.206,-69.4754"/>
</g>
<!-- Node7 -->
<g id="node7" class="node"><title>Node7</title>
<g id="a_node7"><a xlink:href="classengine.html#a4bca5e9257e46c09a63f71227fc25a12" target="_top" xlink:title="engine::tick">
<polygon fill="none" stroke="black" points="677,-19.5 677,-38.5 744,-38.5 744,-19.5 677,-19.5"/>
<text text-anchor="middle" x="710.5" y="-26.5" font-family="Helvetica,sans-Serif" font-size="10.00">engine::tick</text>
</a>
</g>
</g>
<!-- Node6&#45;&gt;Node7 -->
<g id="edge6" class="edge"><title>Node6&#45;&gt;Node7</title>
<path fill="none" stroke="midnightblue" d="M641.729,-53.882C655.418,-48.8561 670.767,-43.2209 683.391,-38.5859"/>
<polygon fill="midnightblue" stroke="midnightblue" points="640.298,-50.6788 632.117,-57.411 642.711,-57.2499 640.298,-50.6788"/>
</g>
<!-- Node7&#45;&gt;Node5 -->
<g id="edge10" class="edge"><title>Node7&#45;&gt;Node5</title>
<path fill="none" stroke="midnightblue" d="M666.585,-32.7318C625.696,-36.2873 564.86,-41.5774 526.592,-44.905"/>
<polygon fill="midnightblue" stroke="midnightblue" points="667.122,-36.1984 676.781,-31.8451 666.515,-29.2247 667.122,-36.1984"/>
</g>
<!-- Node8 -->
<g id="node8" class="node"><title>Node8</title>
<g id="a_node8"><a xlink:href="classengine.html#a1d9b806d03be0255a8ac3c119e181cc5" target="_top" xlink:title="engine::_run">
<polygon fill="none" stroke="black" points="780,-0.5 780,-19.5 850,-19.5 850,-0.5 780,-0.5"/>
<text text-anchor="middle" x="815" y="-7.5" font-family="Helvetica,sans-Serif" font-size="10.00">engine::_run</text>
</a>
</g>
</g>
<!-- Node7&#45;&gt;Node8 -->
<g id="edge7" class="edge"><title>Node7&#45;&gt;Node8</title>
<path fill="none" stroke="midnightblue" d="M754.077,-21.1076C762.662,-19.5164 771.581,-17.8631 779.832,-16.3335"/>
<polygon fill="midnightblue" stroke="midnightblue" points="753.408,-17.672 744.213,-22.936 754.684,-24.5547 753.408,-17.672"/>
</g>
<!-- Node8&#45;&gt;Node5 -->
<g id="edge9" class="edge"><title>Node8&#45;&gt;Node5</title>
<path fill="none" stroke="midnightblue" d="M769.606,-7.84934C742.741,-7.08197 707.829,-7.03059 677,-10 628.326,-14.6883 616.892,-21.1262 569,-31 555.154,-33.8545 539.959,-37.1331 526.688,-40.0447"/>
<polygon fill="midnightblue" stroke="midnightblue" points="769.741,-11.3556 779.851,-8.1874 769.972,-4.35941 769.741,-11.3556"/>
</g>
<!-- Node9 -->
<g id="node9" class="node"><title>Node9</title>
<g id="a_node9"><a xlink:href="classengine.html#aecb22d51cc8f83cacbf3696a18d66c30" target="_top" xlink:title="engine::run">
<polygon fill="none" stroke="black" points="886,-0.5 886,-19.5 951,-19.5 951,-0.5 886,-0.5"/>
<text text-anchor="middle" x="918.5" y="-7.5" font-family="Helvetica,sans-Serif" font-size="10.00">engine::run</text>
</a>
</g>
</g>
<!-- Node8&#45;&gt;Node9 -->
<g id="edge8" class="edge"><title>Node8&#45;&gt;Node9</title>
<path fill="none" stroke="midnightblue" d="M860.325,-10C868.879,-10 877.681,-10 885.737,-10"/>
<polygon fill="midnightblue" stroke="midnightblue" points="860.08,-6.5001 850.08,-10 860.08,-13.5001 860.08,-6.5001"/>
</g>
</g>
</svg>
