<?xml version="1.0" encoding="UTF-8" standalone="no"?>
<!DOCTYPE svg PUBLIC "-//W3C//DTD SVG 1.1//EN"
 "http://www.w3.org/Graphics/SVG/1.1/DTD/svg11.dtd">
<!-- Generated by graphviz version 2.38.0 (20140413.2041)
 -->
<!-- Title: engine::_resize Pages: 1 -->
<!--zoomable 225 -->
<svg id="main" version="1.1" xmlns="http://www.w3.org/2000/svg" xmlns:xlink="http://www.w3.org/1999/xlink" xml:space="preserve" onload="init(evt)">
<style type="text/css"><![CDATA[
.edge:hover path { stroke: red; }
.edge:hover polygon { stroke: red; fill: red; }
]]></style>
<script type="text/javascript"><![CDATA[
var edges = document.getElementsByTagName('g');
if (edges && edges.length) {
  for (var i=0;i<edges.length;i++) {
    if (edges[i].id.substr(0,4)=='edge') {
      edges[i].setAttribute('class','edge');
    }
  }
}
]]></script>
        <defs>
                <circle id="rim" cx="0" cy="0" r="7"/>
                <circle id="rim2" cx="0" cy="0" r="3.5"/>
                <g id="zoomPlus">
                        <use xlink:href="#rim" fill="#404040">
                                <set attributeName="fill" to="#808080" begin="zoomplus.mouseover" end="zoomplus.mouseout"/>
                        </use>
                        <path d="M-4,0h8M0,-4v8" fill="none" stroke="white" stroke-width="1.5" pointer-events="none"/>
                </g>
                <g id="zoomMin">
                        <use xlink:href="#rim" fill="#404040">
                                <set attributeName="fill" to="#808080" begin="zoomminus.mouseover" end="zoomminus.mouseout"/>
                        </use>
                        <path d="M-4,0h8" fill="none" stroke="white" stroke-width="1.5" pointer-events="none"/>
                </g>
                <g id="dirArrow">
                        <path fill="none" stroke="white" stroke-width="1.5" d="M0,-3.0v7 M-2.5,-0.5L0,-3.0L2.5,-0.5"/>
                </g>
               <g id="resetDef">
                       <use xlink:href="#rim2" fill="#404040">
                               <set attributeName="fill" to="#808080" begin="reset.mouseover" end="reset.mouseout"/>
                       </use>
               </g>
        </defs>

<script type="text/javascript">
var viewWidth = 537;
var viewHeight = 225;
var sectionId = 'dynsection-16';
</script>
<script xlink:href="svgpan.js"/>
<svg id="graph" class="graph">
<g id="viewport">
<title>engine::_resize</title>
<!-- Node1 -->
<g id="node1" class="node"><title>Node1</title>
<polygon fill="#bfbfbf" stroke="black" points="0,-93.5 0,-112.5 83,-112.5 83,-93.5 0,-93.5"/>
<text text-anchor="middle" x="41.5" y="-100.5" font-family="Helvetica,sans-Serif" font-size="10.00">engine::_resize</text>
</g>
<!-- Node2 -->
<g id="node2" class="node"><title>Node2</title>
<g id="a_node2"><a xlink:href="class_direct_x_renderer.html#aceda888b20469930d5a99edc842d21a6" target="_top" xlink:title="DirectXRenderer::get\l_is_rendering">
<polygon fill="none" stroke="black" points="125.5,-132 125.5,-162 231.5,-162 231.5,-132 125.5,-132"/>
<text text-anchor="start" x="133.5" y="-150" font-family="Helvetica,sans-Serif" font-size="10.00">DirectXRenderer::get</text>
<text text-anchor="middle" x="178.5" y="-139" font-family="Helvetica,sans-Serif" font-size="10.00">_is_rendering</text>
</a>
</g>
</g>
<!-- Node1&#45;&gt;Node2 -->
<g id="edge1" class="edge"><title>Node1&#45;&gt;Node2</title>
<path fill="none" stroke="midnightblue" d="M71.793,-112.547C86.3139,-117.28 104.352,-123.159 121.393,-128.713"/>
<polygon fill="midnightblue" stroke="midnightblue" points="120.684,-132.163 131.277,-131.935 122.854,-125.508 120.684,-132.163"/>
</g>
<!-- Node3 -->
<g id="node3" class="node"><title>Node3</title>
<g id="a_node3"><a xlink:href="class_direct_x_renderer.html#ae823daf9d77db0f506320f7171cb117d" target="_top" xlink:title="DirectXRenderer::resize">
<polygon fill="none" stroke="black" points="119,-93.5 119,-112.5 238,-112.5 238,-93.5 119,-93.5"/>
<text text-anchor="middle" x="178.5" y="-100.5" font-family="Helvetica,sans-Serif" font-size="10.00">DirectXRenderer::resize</text>
</a>
</g>
</g>
<!-- Node1&#45;&gt;Node3 -->
<g id="edge2" class="edge"><title>Node1&#45;&gt;Node3</title>
<path fill="none" stroke="midnightblue" d="M83.0045,-103C91.0429,-103 99.6929,-103 108.379,-103"/>
<polygon fill="midnightblue" stroke="midnightblue" points="108.557,-106.5 118.557,-103 108.557,-99.5001 108.557,-106.5"/>
</g>
<!-- Node13 -->
<g id="node13" class="node"><title>Node13</title>
<g id="a_node13"><a xlink:href="classengine.html#aad7508d4c4c0c045e5335387422bf56d" target="_top" xlink:title="engine::OnResize">
<polygon fill="none" stroke="black" points="131.5,-55.5 131.5,-74.5 225.5,-74.5 225.5,-55.5 131.5,-55.5"/>
<text text-anchor="middle" x="178.5" y="-62.5" font-family="Helvetica,sans-Serif" font-size="10.00">engine::OnResize</text>
</a>
</g>
</g>
<!-- Node1&#45;&gt;Node13 -->
<g id="edge13" class="edge"><title>Node1&#45;&gt;Node13</title>
<path fill="none" stroke="midnightblue" d="M76.5662,-93.411C93.9135,-88.5281 115.202,-82.5357 133.749,-77.315"/>
<polygon fill="midnightblue" stroke="midnightblue" points="134.767,-80.6646 143.445,-74.5859 132.87,-73.9265 134.767,-80.6646"/>
</g>
<!-- Node4 -->
<g id="node4" class="node"><title>Node4</title>
<g id="a_node4"><a xlink:href="class_direct_x_renderer.html#ab1ac2acccb63781ec8ccce58fe351c63" target="_top" xlink:title="DirectXRenderer::flush\l_command_queue">
<polygon fill="none" stroke="black" points="274,-186 274,-216 387,-216 387,-186 274,-186"/>
<text text-anchor="start" x="282" y="-204" font-family="Helvetica,sans-Serif" font-size="10.00">DirectXRenderer::flush</text>
<text text-anchor="middle" x="330.5" y="-193" font-family="Helvetica,sans-Serif" font-size="10.00">_command_queue</text>
</a>
</g>
</g>
<!-- Node3&#45;&gt;Node4 -->
<g id="edge3" class="edge"><title>Node3&#45;&gt;Node4</title>
<path fill="none" stroke="midnightblue" d="M219.064,-112.556C225.78,-115.256 232.387,-118.678 238,-123 260.856,-140.596 251.855,-158.518 274,-177 275.511,-178.261 277.099,-179.466 278.743,-180.617"/>
<polygon fill="midnightblue" stroke="midnightblue" points="277.003,-183.656 287.353,-185.922 280.675,-177.696 277.003,-183.656"/>
</g>
<!-- Node5 -->
<g id="node5" class="node"><title>Node5</title>
<g id="a_node5"><a xlink:href="class_direct_x_renderer.html#a3fd16381af742f128d5a7138d65be695" target="_top" xlink:title="DirectXRenderer::get\l_depth_stencil_view">
<polygon fill="none" stroke="black" points="277.5,-137 277.5,-167 383.5,-167 383.5,-137 277.5,-137"/>
<text text-anchor="start" x="285.5" y="-155" font-family="Helvetica,sans-Serif" font-size="10.00">DirectXRenderer::get</text>
<text text-anchor="middle" x="330.5" y="-144" font-family="Helvetica,sans-Serif" font-size="10.00">_depth_stencil_view</text>
</a>
</g>
</g>
<!-- Node3&#45;&gt;Node5 -->
<g id="edge4" class="edge"><title>Node3&#45;&gt;Node5</title>
<path fill="none" stroke="midnightblue" d="M208.778,-112.564C227.271,-118.605 251.761,-126.605 273.848,-133.82"/>
<polygon fill="midnightblue" stroke="midnightblue" points="272.876,-137.185 283.468,-136.963 275.05,-130.531 272.876,-137.185"/>
</g>
<!-- Node6 -->
<g id="node6" class="node"><title>Node6</title>
<g id="a_node6"><a xlink:href="classengine.html#a54e5e763df5801c9289a2030635b3d52" target="_top" xlink:title="engine::get_current\l_camera">
<polygon fill="none" stroke="black" points="280.5,-88 280.5,-118 380.5,-118 380.5,-88 280.5,-88"/>
<text text-anchor="start" x="288.5" y="-106" font-family="Helvetica,sans-Serif" font-size="10.00">engine::get_current</text>
<text text-anchor="middle" x="330.5" y="-95" font-family="Helvetica,sans-Serif" font-size="10.00">_camera</text>
</a>
</g>
</g>
<!-- Node3&#45;&gt;Node6 -->
<g id="edge5" class="edge"><title>Node3&#45;&gt;Node6</title>
<path fill="none" stroke="midnightblue" d="M238.353,-103C248.695,-103 259.467,-103 269.831,-103"/>
<polygon fill="midnightblue" stroke="midnightblue" points="270.027,-106.5 280.027,-103 270.027,-99.5001 270.027,-106.5"/>
</g>
<!-- Node9 -->
<g id="node9" class="node"><title>Node9</title>
<g id="a_node9"><a xlink:href="class_camera.html#a5619188052108689a7a3171597fca7b6" target="_top" xlink:title="Camera::SetLens">
<polygon fill="none" stroke="black" points="284.5,-0.5 284.5,-19.5 376.5,-19.5 376.5,-0.5 284.5,-0.5"/>
<text text-anchor="middle" x="330.5" y="-7.5" font-family="Helvetica,sans-Serif" font-size="10.00">Camera::SetLens</text>
</a>
</g>
</g>
<!-- Node3&#45;&gt;Node9 -->
<g id="edge8" class="edge"><title>Node3&#45;&gt;Node9</title>
<path fill="none" stroke="midnightblue" d="M220.914,-93.4842C226.992,-91.0017 232.91,-87.8909 238,-84 261.211,-66.2581 250.93,-46.9247 274,-29 276.415,-27.1235 279.027,-25.4258 281.757,-23.8907"/>
<polygon fill="midnightblue" stroke="midnightblue" points="283.305,-27.0304 290.78,-19.5221 280.254,-20.7301 283.305,-27.0304"/>
</g>
<!-- Node11 -->
<g id="node11" class="node"><title>Node11</title>
<g id="a_node11"><a xlink:href="classengine.html#aec4a8646ae5139982a23f45ee38b3224" target="_top" xlink:title="engine::get_aspect\l_ratio">
<polygon fill="none" stroke="black" points="281,-39 281,-69 380,-69 380,-39 281,-39"/>
<text text-anchor="start" x="289" y="-57" font-family="Helvetica,sans-Serif" font-size="10.00">engine::get_aspect</text>
<text text-anchor="middle" x="330.5" y="-46" font-family="Helvetica,sans-Serif" font-size="10.00">_ratio</text>
</a>
</g>
</g>
<!-- Node3&#45;&gt;Node11 -->
<g id="edge10" class="edge"><title>Node3&#45;&gt;Node11</title>
<path fill="none" stroke="midnightblue" d="M208.966,-93.4477C218.257,-90.4308 228.559,-87.0809 238,-84 249.547,-80.2319 261.91,-76.1862 273.696,-72.3239"/>
<polygon fill="midnightblue" stroke="midnightblue" points="275.017,-75.574 283.429,-69.1329 272.836,-68.9224 275.017,-75.574"/>
</g>
<!-- Node7 -->
<g id="node7" class="node"><title>Node7</title>
<g id="a_node7"><a xlink:href="classengine.html#a240cde5717390f5f154bc9e4af2c36eb" target="_top" xlink:title="engine::get_engine">
<polygon fill="none" stroke="black" points="427,-88.5 427,-107.5 525,-107.5 525,-88.5 427,-88.5"/>
<text text-anchor="middle" x="476" y="-95.5" font-family="Helvetica,sans-Serif" font-size="10.00">engine::get_engine</text>
</a>
</g>
</g>
<!-- Node6&#45;&gt;Node7 -->
<g id="edge6" class="edge"><title>Node6&#45;&gt;Node7</title>
<path fill="none" stroke="midnightblue" d="M380.885,-101.279C392.422,-100.877 404.817,-100.445 416.702,-100.031"/>
<polygon fill="midnightblue" stroke="midnightblue" points="417.108,-103.519 426.98,-99.6732 416.864,-96.5236 417.108,-103.519"/>
</g>
<!-- Node8 -->
<g id="node8" class="node"><title>Node8</title>
<g id="a_node8"><a xlink:href="class_direct_x_renderer.html#a8232561ca218d26c0f70d9f9b3dbcea6" target="_top" xlink:title="DirectXRenderer::get\l_current_camera">
<polygon fill="none" stroke="black" points="423,-127 423,-157 529,-157 529,-127 423,-127"/>
<text text-anchor="start" x="431" y="-145" font-family="Helvetica,sans-Serif" font-size="10.00">DirectXRenderer::get</text>
<text text-anchor="middle" x="476" y="-134" font-family="Helvetica,sans-Serif" font-size="10.00">_current_camera</text>
</a>
</g>
</g>
<!-- Node6&#45;&gt;Node8 -->
<g id="edge7" class="edge"><title>Node6&#45;&gt;Node8</title>
<path fill="none" stroke="midnightblue" d="M380.885,-116.422C391.188,-119.222 402.176,-122.208 412.873,-125.115"/>
<polygon fill="midnightblue" stroke="midnightblue" points="412.019,-128.51 422.587,-127.755 413.855,-121.755 412.019,-128.51"/>
</g>
<!-- Node10 -->
<g id="node10" class="node"><title>Node10</title>
<g id="a_node10"><a xlink:href="class_camera.html#a34d7f37c11a8e47788cd360940076874" target="_top" xlink:title="Camera::LookAt">
<polygon fill="none" stroke="black" points="432.5,-0.5 432.5,-19.5 519.5,-19.5 519.5,-0.5 432.5,-0.5"/>
<text text-anchor="middle" x="476" y="-7.5" font-family="Helvetica,sans-Serif" font-size="10.00">Camera::LookAt</text>
</a>
</g>
</g>
<!-- Node9&#45;&gt;Node10 -->
<g id="edge9" class="edge"><title>Node9&#45;&gt;Node10</title>
<path fill="none" stroke="midnightblue" d="M376.511,-10C390.936,-10 407.044,-10 421.986,-10"/>
<polygon fill="midnightblue" stroke="midnightblue" points="422.109,-13.5001 432.109,-10 422.109,-6.5001 422.109,-13.5001"/>
</g>
<!-- Node11&#45;&gt;Node7 -->
<g id="edge11" class="edge"><title>Node11&#45;&gt;Node7</title>
<path fill="none" stroke="midnightblue" d="M380.083,-68.8964C397.455,-74.2231 416.857,-80.1722 433.57,-85.2966"/>
<polygon fill="midnightblue" stroke="midnightblue" points="432.999,-88.7825 443.586,-88.3678 435.051,-82.09 432.999,-88.7825"/>
</g>
<!-- Node12 -->
<g id="node12" class="node"><title>Node12</title>
<g id="a_node12"><a xlink:href="classengine.html#ad86c3cbf7b32238e3220bf099d9f3f07" target="_top" xlink:title="engine::_get_aspect\l_ratio">
<polygon fill="none" stroke="black" points="424,-39 424,-69 528,-69 528,-39 424,-39"/>
<text text-anchor="start" x="432" y="-57" font-family="Helvetica,sans-Serif" font-size="10.00">engine::_get_aspect</text>
<text text-anchor="middle" x="476" y="-46" font-family="Helvetica,sans-Serif" font-size="10.00">_ratio</text>
</a>
</g>
</g>
<!-- Node11&#45;&gt;Node12 -->
<g id="edge12" class="edge"><title>Node11&#45;&gt;Node12</title>
<path fill="none" stroke="midnightblue" d="M380.083,-54C390.79,-54 402.269,-54 413.413,-54"/>
<polygon fill="midnightblue" stroke="midnightblue" points="413.523,-57.5001 423.523,-54 413.523,-50.5001 413.523,-57.5001"/>
</g>
</g>
</svg>
        <g id="navigator" transform="translate(0 0)" fill="#404254">
                <rect fill="#f2f5e9" fill-opacity="0.5" stroke="#606060" stroke-width=".5" x="0" y="0" width="60" height="60"/>
                <use id="zoomplus" xlink:href="#zoomPlus" x="17" y="9" onmousedown="handleZoom(evt,'in')"/>
                <use id="zoomminus" xlink:href="#zoomMin" x="42" y="9" onmousedown="handleZoom(evt,'out')"/>
                <use id="reset" xlink:href="#resetDef" x="30" y="36" onmousedown="handleReset()"/>
                <g id="arrowUp" xlink:href="#dirArrow" transform="translate(30 24)" onmousedown="handlePan(0,-1)">
                  <use xlink:href="#rim" fill="#404040">
                        <set attributeName="fill" to="#808080" begin="arrowUp.mouseover" end="arrowUp.mouseout"/>
                  </use>
                  <path fill="none" stroke="white" stroke-width="1.5" d="M0,-3.0v7 M-2.5,-0.5L0,-3.0L2.5,-0.5"/>
                </g>
                <g id="arrowRight" xlink:href="#dirArrow" transform="rotate(90) translate(36 -43)" onmousedown="handlePan(1,0)">
                  <use xlink:href="#rim" fill="#404040">
                        <set attributeName="fill" to="#808080" begin="arrowRight.mouseover" end="arrowRight.mouseout"/>
                  </use>
                  <path fill="none" stroke="white" stroke-width="1.5" d="M0,-3.0v7 M-2.5,-0.5L0,-3.0L2.5,-0.5"/>
                </g>
                <g id="arrowDown" xlink:href="#dirArrow" transform="rotate(180) translate(-30 -48)" onmousedown="handlePan(0,1)">
                  <use xlink:href="#rim" fill="#404040">
                        <set attributeName="fill" to="#808080" begin="arrowDown.mouseover" end="arrowDown.mouseout"/>
                  </use>
                  <path fill="none" stroke="white" stroke-width="1.5" d="M0,-3.0v7 M-2.5,-0.5L0,-3.0L2.5,-0.5"/>
                </g>
                <g id="arrowLeft" xlink:href="#dirArrow" transform="rotate(270) translate(-36 17)" onmousedown="handlePan(-1,0)">
                  <use xlink:href="#rim" fill="#404040">
                        <set attributeName="fill" to="#808080" begin="arrowLeft.mouseover" end="arrowLeft.mouseout"/>
                  </use>
                  <path fill="none" stroke="white" stroke-width="1.5" d="M0,-3.0v7 M-2.5,-0.5L0,-3.0L2.5,-0.5"/>
                </g>
        </g>
        <svg viewBox="0 0 15 15" width="100%" height="30px" preserveAspectRatio="xMaxYMin meet">
         <g id="arrow_out" transform="scale(0.3 0.3)">
          <a xlink:href="classengine_a097517979864142f35d1969b5cf3d437_cgraph_org.svg" target="_base">
           <rect id="button" ry="5" rx="5" y="6" x="6" height="38" width="38"
                fill="#f2f5e9" fill-opacity="0.5" stroke="#606060" stroke-width="1.0"/>
           <path id="arrow"
             d="M 11.500037,31.436501 C 11.940474,20.09759 22.043105,11.32322 32.158766,21.979434 L 37.068811,17.246167 C 37.068811,17.246167 37.088388,32 37.088388,32 L 22.160133,31.978069 C 22.160133,31.978069 26.997745,27.140456 26.997745,27.140456 C 18.528582,18.264221 13.291696,25.230495 11.500037,31.436501 z"
             style="fill:#404040;"/>
          </a>
         </g>
        </svg>
</svg>
