<?xml version="1.0" encoding="UTF-8" standalone="no"?>
<!DOCTYPE svg PUBLIC "-//W3C//DTD SVG 1.1//EN"
 "http://www.w3.org/Graphics/SVG/1.1/DTD/svg11.dtd">
<!-- Generated by graphviz version 2.38.0 (20140413.2041)
 -->
<!-- Title: engine::get_current_camera Pages: 1 -->
<svg width="1222pt" height="135pt"
 viewBox="0.00 0.00 1222.00 134.50" xmlns="http://www.w3.org/2000/svg" xmlns:xlink="http://www.w3.org/1999/xlink">
<g id="graph0" class="graph" transform="scale(1 1) rotate(0) translate(4 130.5)">
<title>engine::get_current_camera</title>
<!-- Node1 -->
<g id="node1" class="node"><title>Node1</title>
<polygon fill="#bfbfbf" stroke="black" points="0,-74 0,-104 100,-104 100,-74 0,-74"/>
<text text-anchor="start" x="8" y="-92" font-family="Helvetica,sans-Serif" font-size="10.00">engine::get_current</text>
<text text-anchor="middle" x="50" y="-81" font-family="Helvetica,sans-Serif" font-size="10.00">_camera</text>
</g>
<!-- Node2 -->
<g id="node2" class="node"><title>Node2</title>
<g id="a_node2"><a xlink:href="class_direct_x_renderer.html#ae823daf9d77db0f506320f7171cb117d" target="_top" xlink:title="DirectXRenderer::resize">
<polygon fill="none" stroke="black" points="136,-79.5 136,-98.5 255,-98.5 255,-79.5 136,-79.5"/>
<text text-anchor="middle" x="195.5" y="-86.5" font-family="Helvetica,sans-Serif" font-size="10.00">DirectXRenderer::resize</text>
</a>
</g>
</g>
<!-- Node1&#45;&gt;Node2 -->
<g id="edge1" class="edge"><title>Node1&#45;&gt;Node2</title>
<path fill="none" stroke="midnightblue" d="M110.476,-89C118.87,-89 127.495,-89 135.873,-89"/>
<polygon fill="midnightblue" stroke="midnightblue" points="110.385,-85.5001 100.385,-89 110.385,-92.5001 110.385,-85.5001"/>
</g>
<!-- Node3 -->
<g id="node3" class="node"><title>Node3</title>
<g id="a_node3"><a xlink:href="class_direct_x_renderer.html#a252d9ba8d713ba462c54a3dadfda2f59" target="_top" xlink:title="DirectXRenderer::Set4xMsaa\lState">
<polygon fill="none" stroke="black" points="291,-96 291,-126 433,-126 433,-96 291,-96"/>
<text text-anchor="start" x="299" y="-114" font-family="Helvetica,sans-Serif" font-size="10.00">DirectXRenderer::Set4xMsaa</text>
<text text-anchor="middle" x="362" y="-103" font-family="Helvetica,sans-Serif" font-size="10.00">State</text>
</a>
</g>
</g>
<!-- Node2&#45;&gt;Node3 -->
<g id="edge2" class="edge"><title>Node2&#45;&gt;Node3</title>
<path fill="none" stroke="midnightblue" d="M265.559,-98.2359C273.966,-99.3602 282.561,-100.51 290.981,-101.636"/>
<polygon fill="midnightblue" stroke="midnightblue" points="265.799,-94.7369 255.424,-96.8804 264.871,-101.675 265.799,-94.7369"/>
</g>
<!-- Node4 -->
<g id="node4" class="node"><title>Node4</title>
<g id="a_node4"><a xlink:href="classengine.html#a097517979864142f35d1969b5cf3d437" target="_top" xlink:title="engine::_resize">
<polygon fill="none" stroke="black" points="320.5,-57.5 320.5,-76.5 403.5,-76.5 403.5,-57.5 320.5,-57.5"/>
<text text-anchor="middle" x="362" y="-64.5" font-family="Helvetica,sans-Serif" font-size="10.00">engine::_resize</text>
</a>
</g>
</g>
<!-- Node2&#45;&gt;Node4 -->
<g id="edge3" class="edge"><title>Node2&#45;&gt;Node4</title>
<path fill="none" stroke="midnightblue" d="M265.379,-79.7882C284.055,-77.2905 303.677,-74.6663 320.252,-72.4496"/>
<polygon fill="midnightblue" stroke="midnightblue" points="264.871,-76.3249 255.424,-81.1196 265.799,-83.2631 264.871,-76.3249"/>
</g>
<!-- Node5 -->
<g id="node5" class="node"><title>Node5</title>
<g id="a_node5"><a xlink:href="classengine.html#a2a83502d17f32c78093028f6009df8ba" target="_top" xlink:title="engine::resize">
<polygon fill="none" stroke="black" points="469,-57.5 469,-76.5 546,-76.5 546,-57.5 469,-57.5"/>
<text text-anchor="middle" x="507.5" y="-64.5" font-family="Helvetica,sans-Serif" font-size="10.00">engine::resize</text>
</a>
</g>
</g>
<!-- Node4&#45;&gt;Node5 -->
<g id="edge4" class="edge"><title>Node4&#45;&gt;Node5</title>
<path fill="none" stroke="midnightblue" d="M413.814,-67C431.859,-67 451.839,-67 468.615,-67"/>
<polygon fill="midnightblue" stroke="midnightblue" points="413.738,-63.5001 403.737,-67 413.737,-70.5001 413.738,-63.5001"/>
</g>
<!-- Node6 -->
<g id="node6" class="node"><title>Node6</title>
<g id="a_node6"><a xlink:href="classengine.html#a8b8dd82e72fd73e0601c30041529c4c0" target="_top" xlink:title="engine::_initialize">
<polygon fill="none" stroke="black" points="582,-57.5 582,-76.5 674,-76.5 674,-57.5 582,-57.5"/>
<text text-anchor="middle" x="628" y="-64.5" font-family="Helvetica,sans-Serif" font-size="10.00">engine::_initialize</text>
</a>
</g>
</g>
<!-- Node5&#45;&gt;Node6 -->
<g id="edge5" class="edge"><title>Node5&#45;&gt;Node6</title>
<path fill="none" stroke="midnightblue" d="M556.322,-67C564.688,-67 573.371,-67 581.668,-67"/>
<polygon fill="midnightblue" stroke="midnightblue" points="556.32,-63.5001 546.32,-67 556.32,-70.5001 556.32,-63.5001"/>
</g>
<!-- Node7 -->
<g id="node7" class="node"><title>Node7</title>
<g id="a_node7"><a xlink:href="classengine.html#a6809dcdfe78011851e377d4729a87ee4" target="_top" xlink:title="engine::initialize">
<polygon fill="none" stroke="black" points="710,-76.5 710,-95.5 796,-95.5 796,-76.5 710,-76.5"/>
<text text-anchor="middle" x="753" y="-83.5" font-family="Helvetica,sans-Serif" font-size="10.00">engine::initialize</text>
</a>
</g>
</g>
<!-- Node6&#45;&gt;Node7 -->
<g id="edge6" class="edge"><title>Node6&#45;&gt;Node7</title>
<path fill="none" stroke="midnightblue" d="M684.097,-75.5109C692.712,-76.8417 701.497,-78.1987 709.765,-79.4758"/>
<polygon fill="midnightblue" stroke="midnightblue" points="684.519,-72.0347 674.102,-73.967 683.451,-78.9527 684.519,-72.0347"/>
</g>
<!-- Node8 -->
<g id="node8" class="node"><title>Node8</title>
<g id="a_node8"><a xlink:href="classengine.html#ada832d0a14502f1b99fdbd5c72cab01b" target="_top" xlink:title="engine::Draw">
<polygon fill="none" stroke="black" points="716.5,-38.5 716.5,-57.5 789.5,-57.5 789.5,-38.5 716.5,-38.5"/>
<text text-anchor="middle" x="753" y="-45.5" font-family="Helvetica,sans-Serif" font-size="10.00">engine::Draw</text>
</a>
</g>
</g>
<!-- Node6&#45;&gt;Node8 -->
<g id="edge7" class="edge"><title>Node6&#45;&gt;Node8</title>
<path fill="none" stroke="midnightblue" d="M683.998,-58.5044C694.9,-56.8203 706.079,-55.0935 716.142,-53.5391"/>
<polygon fill="midnightblue" stroke="midnightblue" points="683.451,-55.0473 674.102,-60.033 684.519,-61.9653 683.451,-55.0473"/>
</g>
<!-- Node9 -->
<g id="node9" class="node"><title>Node9</title>
<g id="a_node9"><a xlink:href="classengine.html#a90418b124cd07d7d2f057e7d401ed641" target="_top" xlink:title="engine::_tick">
<polygon fill="none" stroke="black" points="832,-57.5 832,-76.5 904,-76.5 904,-57.5 832,-57.5"/>
<text text-anchor="middle" x="868" y="-64.5" font-family="Helvetica,sans-Serif" font-size="10.00">engine::_tick</text>
</a>
</g>
</g>
<!-- Node8&#45;&gt;Node9 -->
<g id="edge8" class="edge"><title>Node8&#45;&gt;Node9</title>
<path fill="none" stroke="midnightblue" d="M799.921,-49.0775C814.923,-51.2953 830.957,-54.3417 843.586,-57.4705"/>
<polygon fill="midnightblue" stroke="midnightblue" points="800.137,-45.5744 789.754,-47.6836 799.186,-52.5095 800.137,-45.5744"/>
</g>
<!-- Node9&#45;&gt;Node8 -->
<g id="edge14" class="edge"><title>Node9&#45;&gt;Node8</title>
<path fill="none" stroke="midnightblue" d="M821.371,-65.9655C806.285,-63.7442 790.125,-60.6786 777.414,-57.5295"/>
<polygon fill="midnightblue" stroke="midnightblue" points="821.206,-69.4754 831.588,-67.3592 822.152,-62.5397 821.206,-69.4754"/>
</g>
<!-- Node10 -->
<g id="node10" class="node"><title>Node10</title>
<g id="a_node10"><a xlink:href="classengine.html#a4bca5e9257e46c09a63f71227fc25a12" target="_top" xlink:title="engine::tick">
<polygon fill="none" stroke="black" points="940,-19.5 940,-38.5 1007,-38.5 1007,-19.5 940,-19.5"/>
<text text-anchor="middle" x="973.5" y="-26.5" font-family="Helvetica,sans-Serif" font-size="10.00">engine::tick</text>
</a>
</g>
</g>
<!-- Node9&#45;&gt;Node10 -->
<g id="edge9" class="edge"><title>Node9&#45;&gt;Node10</title>
<path fill="none" stroke="midnightblue" d="M904.729,-53.882C918.418,-48.8561 933.767,-43.2209 946.391,-38.5859"/>
<polygon fill="midnightblue" stroke="midnightblue" points="903.298,-50.6788 895.117,-57.411 905.711,-57.2499 903.298,-50.6788"/>
</g>
<!-- Node10&#45;&gt;Node8 -->
<g id="edge13" class="edge"><title>Node10&#45;&gt;Node8</title>
<path fill="none" stroke="midnightblue" d="M929.585,-32.7318C888.696,-36.2873 827.86,-41.5774 789.592,-44.905"/>
<polygon fill="midnightblue" stroke="midnightblue" points="930.122,-36.1984 939.781,-31.8451 929.515,-29.2247 930.122,-36.1984"/>
</g>
<!-- Node11 -->
<g id="node11" class="node"><title>Node11</title>
<g id="a_node11"><a xlink:href="classengine.html#a1d9b806d03be0255a8ac3c119e181cc5" target="_top" xlink:title="engine::_run">
<polygon fill="none" stroke="black" points="1043,-0.5 1043,-19.5 1113,-19.5 1113,-0.5 1043,-0.5"/>
<text text-anchor="middle" x="1078" y="-7.5" font-family="Helvetica,sans-Serif" font-size="10.00">engine::_run</text>
</a>
</g>
</g>
<!-- Node10&#45;&gt;Node11 -->
<g id="edge10" class="edge"><title>Node10&#45;&gt;Node11</title>
<path fill="none" stroke="midnightblue" d="M1017.08,-21.1076C1025.66,-19.5164 1034.58,-17.8631 1042.83,-16.3335"/>
<polygon fill="midnightblue" stroke="midnightblue" points="1016.41,-17.672 1007.21,-22.936 1017.68,-24.5547 1016.41,-17.672"/>
</g>
<!-- Node11&#45;&gt;Node8 -->
<g id="edge12" class="edge"><title>Node11&#45;&gt;Node8</title>
<path fill="none" stroke="midnightblue" d="M1032.61,-7.84934C1005.74,-7.08197 970.829,-7.03059 940,-10 891.326,-14.6883 879.892,-21.1262 832,-31 818.154,-33.8545 802.959,-37.1331 789.688,-40.0447"/>
<polygon fill="midnightblue" stroke="midnightblue" points="1032.74,-11.3556 1042.85,-8.1874 1032.97,-4.35941 1032.74,-11.3556"/>
</g>
<!-- Node12 -->
<g id="node12" class="node"><title>Node12</title>
<g id="a_node12"><a xlink:href="classengine.html#aecb22d51cc8f83cacbf3696a18d66c30" target="_top" xlink:title="engine::run">
<polygon fill="none" stroke="black" points="1149,-0.5 1149,-19.5 1214,-19.5 1214,-0.5 1149,-0.5"/>
<text text-anchor="middle" x="1181.5" y="-7.5" font-family="Helvetica,sans-Serif" font-size="10.00">engine::run</text>
</a>
</g>
</g>
<!-- Node11&#45;&gt;Node12 -->
<g id="edge11" class="edge"><title>Node11&#45;&gt;Node12</title>
<path fill="none" stroke="midnightblue" d="M1123.33,-10C1131.88,-10 1140.68,-10 1148.74,-10"/>
<polygon fill="midnightblue" stroke="midnightblue" points="1123.08,-6.5001 1113.08,-10 1123.08,-13.5001 1123.08,-6.5001"/>
</g>
</g>
</svg>
