<?xml version="1.0" encoding="UTF-8" standalone="no"?>
<!DOCTYPE svg PUBLIC "-//W3C//DTD SVG 1.1//EN"
 "http://www.w3.org/Graphics/SVG/1.1/DTD/svg11.dtd">
<!-- Generated by graphviz version 2.38.0 (20140413.2041)
 -->
<!-- Title: DirectXRenderer::get_current_back_buffer_view Pages: 1 -->
<svg width="719pt" height="119pt"
 viewBox="0.00 0.00 719.00 118.50" xmlns="http://www.w3.org/2000/svg" xmlns:xlink="http://www.w3.org/1999/xlink">
<g id="graph0" class="graph" transform="scale(1 1) rotate(0) translate(4 114.5)">
<title>DirectXRenderer::get_current_back_buffer_view</title>
<!-- Node1 -->
<g id="node1" class="node"><title>Node1</title>
<polygon fill="#bfbfbf" stroke="black" points="0,-0.5 0,-30.5 130,-30.5 130,-0.5 0,-0.5"/>
<text text-anchor="start" x="8" y="-18.5" font-family="Helvetica,sans-Serif" font-size="10.00">DirectXRenderer::get</text>
<text text-anchor="middle" x="65" y="-7.5" font-family="Helvetica,sans-Serif" font-size="10.00">_current_back_buffer_view</text>
</g>
<!-- Node2 -->
<g id="node2" class="node"><title>Node2</title>
<g id="a_node2"><a xlink:href="class_direct_x_renderer.html#a2f3ecabf3d5e9d76b7754d66a6a346d3" target="_top" xlink:title="DirectXRenderer::render">
<polygon fill="none" stroke="black" points="166,-6 166,-25 285,-25 285,-6 166,-6"/>
<text text-anchor="middle" x="225.5" y="-13" font-family="Helvetica,sans-Serif" font-size="10.00">DirectXRenderer::render</text>
</a>
</g>
</g>
<!-- Node1&#45;&gt;Node2 -->
<g id="edge1" class="edge"><title>Node1&#45;&gt;Node2</title>
<path fill="none" stroke="midnightblue" d="M140.103,-15.5C148.752,-15.5 157.484,-15.5 165.883,-15.5"/>
<polygon fill="midnightblue" stroke="midnightblue" points="140.011,-12.0001 130.011,-15.5 140.011,-19.0001 140.011,-12.0001"/>
</g>
<!-- Node3 -->
<g id="node3" class="node"><title>Node3</title>
<g id="a_node3"><a xlink:href="classengine.html#a90418b124cd07d7d2f057e7d401ed641" target="_top" xlink:title="engine::_tick">
<polygon fill="none" stroke="black" points="321,-6 321,-25 393,-25 393,-6 321,-6"/>
<text text-anchor="middle" x="357" y="-13" font-family="Helvetica,sans-Serif" font-size="10.00">engine::_tick</text>
</a>
</g>
</g>
<!-- Node2&#45;&gt;Node3 -->
<g id="edge2" class="edge"><title>Node2&#45;&gt;Node3</title>
<path fill="none" stroke="midnightblue" d="M295.208,-15.5C304.077,-15.5 312.847,-15.5 320.849,-15.5"/>
<polygon fill="midnightblue" stroke="midnightblue" points="295.188,-12.0001 285.188,-15.5 295.188,-19.0001 295.188,-12.0001"/>
</g>
<!-- Node4 -->
<g id="node4" class="node"><title>Node4</title>
<g id="a_node4"><a xlink:href="classengine.html#a4bca5e9257e46c09a63f71227fc25a12" target="_top" xlink:title="engine::tick">
<polygon fill="none" stroke="black" points="429,-53 429,-72 496,-72 496,-53 429,-53"/>
<text text-anchor="middle" x="462.5" y="-60" font-family="Helvetica,sans-Serif" font-size="10.00">engine::tick</text>
</a>
</g>
</g>
<!-- Node3&#45;&gt;Node4 -->
<g id="edge3" class="edge"><title>Node3&#45;&gt;Node4</title>
<path fill="none" stroke="midnightblue" d="M388.277,-29.2491C404.952,-36.8212 425.242,-46.035 440.231,-52.8417"/>
<polygon fill="midnightblue" stroke="midnightblue" points="389.497,-25.9591 378.945,-25.0112 386.603,-32.3327 389.497,-25.9591"/>
</g>
<!-- Node7 -->
<g id="node7" class="node"><title>Node7</title>
<g id="a_node7"><a xlink:href="classengine.html#ada832d0a14502f1b99fdbd5c72cab01b" target="_top" xlink:title="engine::Draw">
<polygon fill="none" stroke="black" points="638,-29 638,-48 711,-48 711,-29 638,-29"/>
<text text-anchor="middle" x="674.5" y="-36" font-family="Helvetica,sans-Serif" font-size="10.00">engine::Draw</text>
</a>
</g>
</g>
<!-- Node3&#45;&gt;Node7 -->
<g id="edge9" class="edge"><title>Node3&#45;&gt;Node7</title>
<path fill="none" stroke="midnightblue" d="M403.368,-13.9C466.723,-15.9209 580.381,-24.3554 637.971,-31.449"/>
<polygon fill="midnightblue" stroke="midnightblue" points="403.366,-10.3987 393.273,-13.6234 403.174,-17.3961 403.366,-10.3987"/>
</g>
<!-- Node5 -->
<g id="node5" class="node"><title>Node5</title>
<g id="a_node5"><a xlink:href="classengine.html#a1d9b806d03be0255a8ac3c119e181cc5" target="_top" xlink:title="engine::_run">
<polygon fill="none" stroke="black" points="532,-91 532,-110 602,-110 602,-91 532,-91"/>
<text text-anchor="middle" x="567" y="-98" font-family="Helvetica,sans-Serif" font-size="10.00">engine::_run</text>
</a>
</g>
</g>
<!-- Node4&#45;&gt;Node5 -->
<g id="edge4" class="edge"><title>Node4&#45;&gt;Node5</title>
<path fill="none" stroke="midnightblue" d="M498.884,-75.618C512.441,-80.6439 527.641,-86.2791 540.143,-90.9141"/>
<polygon fill="midnightblue" stroke="midnightblue" points="499.958,-72.2835 489.365,-72.089 497.525,-78.8469 499.958,-72.2835"/>
</g>
<!-- Node4&#45;&gt;Node7 -->
<g id="edge8" class="edge"><title>Node4&#45;&gt;Node7</title>
<path fill="none" stroke="midnightblue" d="M506.739,-57.5584C545.447,-53.1346 601.53,-46.7252 637.757,-42.5849"/>
<polygon fill="midnightblue" stroke="midnightblue" points="505.85,-54.1371 496.313,-58.75 506.645,-61.0918 505.85,-54.1371"/>
</g>
<!-- Node6 -->
<g id="node6" class="node"><title>Node6</title>
<g id="a_node6"><a xlink:href="classengine.html#aecb22d51cc8f83cacbf3696a18d66c30" target="_top" xlink:title="engine::run">
<polygon fill="none" stroke="black" points="642,-91 642,-110 707,-110 707,-91 642,-91"/>
<text text-anchor="middle" x="674.5" y="-98" font-family="Helvetica,sans-Serif" font-size="10.00">engine::run</text>
</a>
</g>
</g>
<!-- Node5&#45;&gt;Node6 -->
<g id="edge5" class="edge"><title>Node5&#45;&gt;Node6</title>
<path fill="none" stroke="midnightblue" d="M612.387,-100.5C622.311,-100.5 632.639,-100.5 641.92,-100.5"/>
<polygon fill="midnightblue" stroke="midnightblue" points="612.253,-97.0001 602.253,-100.5 612.253,-104 612.253,-97.0001"/>
</g>
<!-- Node5&#45;&gt;Node7 -->
<g id="edge6" class="edge"><title>Node5&#45;&gt;Node7</title>
<path fill="none" stroke="midnightblue" d="M593.288,-85.6387C613.095,-73.9984 640.066,-58.1485 657.131,-48.1195"/>
<polygon fill="midnightblue" stroke="midnightblue" points="591.332,-82.7283 584.484,-90.8125 594.879,-88.7633 591.332,-82.7283"/>
</g>
<!-- Node7&#45;&gt;Node3 -->
<g id="edge7" class="edge"><title>Node7&#45;&gt;Node3</title>
<path fill="none" stroke="midnightblue" d="M627.85,-40.091C564.347,-38.0511 450.698,-29.6091 393.273,-22.5194"/>
<polygon fill="midnightblue" stroke="midnightblue" points="627.878,-43.593 637.971,-40.3708 628.072,-36.5957 627.878,-43.593"/>
</g>
</g>
</svg>
