<?xml version="1.0" encoding="UTF-8" standalone="no"?>
<!DOCTYPE svg PUBLIC "-//W3C//DTD SVG 1.1//EN"
 "http://www.w3.org/Graphics/SVG/1.1/DTD/svg11.dtd">
<!-- Generated by graphviz version 2.38.0 (20140413.2041)
 -->
<!-- Title: DirectXRenderer::render Pages: 1 -->
<svg width="293pt" height="186pt"
 viewBox="0.00 0.00 293.00 186.00" xmlns="http://www.w3.org/2000/svg" xmlns:xlink="http://www.w3.org/1999/xlink">
<g id="graph0" class="graph" transform="scale(1 1) rotate(0) translate(4 182)">
<title>DirectXRenderer::render</title>
<!-- Node1 -->
<g id="node1" class="node"><title>Node1</title>
<polygon fill="#bfbfbf" stroke="black" points="0,-79 0,-98 119,-98 119,-79 0,-79"/>
<text text-anchor="middle" x="59.5" y="-86" font-family="Helvetica,sans-Serif" font-size="10.00">DirectXRenderer::render</text>
</g>
<!-- Node2 -->
<g id="node2" class="node"><title>Node2</title>
<g id="a_node2"><a xlink:href="class_direct_x_renderer.html#a94f4585e3451924820e261e01d8cfc89" target="_top" xlink:title="DirectXRenderer::get\l_current_back_buffer">
<polygon fill="none" stroke="black" points="166.5,-147.5 166.5,-177.5 273.5,-177.5 273.5,-147.5 166.5,-147.5"/>
<text text-anchor="start" x="174.5" y="-165.5" font-family="Helvetica,sans-Serif" font-size="10.00">DirectXRenderer::get</text>
<text text-anchor="middle" x="220" y="-154.5" font-family="Helvetica,sans-Serif" font-size="10.00">_current_back_buffer</text>
</a>
</g>
</g>
<!-- Node1&#45;&gt;Node2 -->
<g id="edge1" class="edge"><title>Node1&#45;&gt;Node2</title>
<path fill="none" stroke="midnightblue" d="M76.9082,-98.0075C95.508,-108.589 126.901,-125.86 155,-138.5 158.835,-140.225 162.835,-141.933 166.88,-143.594"/>
<polygon fill="midnightblue" stroke="midnightblue" points="165.761,-146.916 176.346,-147.375 168.357,-140.415 165.761,-146.916"/>
</g>
<!-- Node3 -->
<g id="node3" class="node"><title>Node3</title>
<g id="a_node3"><a xlink:href="class_direct_x_renderer.html#a7bfc3b725a9ecb5e47889f0e9627f0c8" target="_top" xlink:title="DirectXRenderer::get\l_current_back_buffer_view">
<polygon fill="none" stroke="black" points="155,-98.5 155,-128.5 285,-128.5 285,-98.5 155,-98.5"/>
<text text-anchor="start" x="163" y="-116.5" font-family="Helvetica,sans-Serif" font-size="10.00">DirectXRenderer::get</text>
<text text-anchor="middle" x="220" y="-105.5" font-family="Helvetica,sans-Serif" font-size="10.00">_current_back_buffer_view</text>
</a>
</g>
</g>
<!-- Node1&#45;&gt;Node3 -->
<g id="edge2" class="edge"><title>Node1&#45;&gt;Node3</title>
<path fill="none" stroke="midnightblue" d="M119.069,-97.738C127.436,-99.0577 136.133,-100.429 144.751,-101.789"/>
<polygon fill="midnightblue" stroke="midnightblue" points="144.384,-105.274 154.807,-103.375 145.474,-98.3595 144.384,-105.274"/>
</g>
<!-- Node4 -->
<g id="node4" class="node"><title>Node4</title>
<g id="a_node4"><a xlink:href="class_direct_x_renderer.html#a3fd16381af742f128d5a7138d65be695" target="_top" xlink:title="DirectXRenderer::get\l_depth_stencil_view">
<polygon fill="none" stroke="black" points="167,-49.5 167,-79.5 273,-79.5 273,-49.5 167,-49.5"/>
<text text-anchor="start" x="175" y="-67.5" font-family="Helvetica,sans-Serif" font-size="10.00">DirectXRenderer::get</text>
<text text-anchor="middle" x="220" y="-56.5" font-family="Helvetica,sans-Serif" font-size="10.00">_depth_stencil_view</text>
</a>
</g>
</g>
<!-- Node1&#45;&gt;Node4 -->
<g id="edge3" class="edge"><title>Node1&#45;&gt;Node4</title>
<path fill="none" stroke="midnightblue" d="M119.069,-79.6315C131.332,-77.7746 144.306,-75.8101 156.699,-73.9335"/>
<polygon fill="midnightblue" stroke="midnightblue" points="157.582,-77.3399 166.945,-72.3821 156.534,-70.4188 157.582,-77.3399"/>
</g>
<!-- Node5 -->
<g id="node5" class="node"><title>Node5</title>
<g id="a_node5"><a xlink:href="class_direct_x_renderer.html#ab1ac2acccb63781ec8ccce58fe351c63" target="_top" xlink:title="DirectXRenderer::flush\l_command_queue">
<polygon fill="none" stroke="black" points="163.5,-0.5 163.5,-30.5 276.5,-30.5 276.5,-0.5 163.5,-0.5"/>
<text text-anchor="start" x="171.5" y="-18.5" font-family="Helvetica,sans-Serif" font-size="10.00">DirectXRenderer::flush</text>
<text text-anchor="middle" x="220" y="-7.5" font-family="Helvetica,sans-Serif" font-size="10.00">_command_queue</text>
</a>
</g>
</g>
<!-- Node1&#45;&gt;Node5 -->
<g id="edge4" class="edge"><title>Node1&#45;&gt;Node5</title>
<path fill="none" stroke="midnightblue" d="M78.0157,-78.9536C96.8006,-68.8695 127.627,-52.763 155,-40.5 159.644,-38.4197 164.517,-36.3385 169.414,-34.3145"/>
<polygon fill="midnightblue" stroke="midnightblue" points="170.853,-37.5077 178.807,-30.5081 168.224,-31.0201 170.853,-37.5077"/>
</g>
</g>
</svg>
