<?xml version="1.0" encoding="UTF-8" standalone="no"?>
<!DOCTYPE svg PUBLIC "-//W3C//DTD SVG 1.1//EN"
 "http://www.w3.org/Graphics/SVG/1.1/DTD/svg11.dtd">
<!-- Generated by graphviz version 2.38.0 (20140413.2041)
 -->
<!-- Title: WM_NCMOUSELEAVE_Handler Pages: 1 -->
<svg width="168pt" height="160pt"
 viewBox="0.00 0.00 168.00 160.00" xmlns="http://www.w3.org/2000/svg" xmlns:xlink="http://www.w3.org/1999/xlink">
<g id="graph0" class="graph" transform="scale(1 1) rotate(0) translate(4 156)">
<title>WM_NCMOUSELEAVE_Handler</title>
<!-- Node1 -->
<g id="node1" class="node"><title>Node1</title>
<polygon fill="#bfbfbf" stroke="black" points="0,-0.5 0,-57.5 160,-57.5 160,-0.5 0,-0.5"/>
<text text-anchor="middle" x="80" y="-45.5" font-family="Helvetica,sans-Serif" font-size="10.00">WM_NCMOUSELEAVE_Handler</text>
<polyline fill="none" stroke="black" points="0,-38.5 160,-38.5 "/>
<text text-anchor="middle" x="80" y="-26.5" font-family="Helvetica,sans-Serif" font-size="10.00"> </text>
<polyline fill="none" stroke="black" points="0,-19.5 160,-19.5 "/>
<text text-anchor="middle" x="80" y="-7.5" font-family="Helvetica,sans-Serif" font-size="10.00"> </text>
</g>
<!-- Node2 -->
<g id="node2" class="node"><title>Node2</title>
<g id="a_node2"><a xlink:href="class_windows_message_handler.html" target="_top" xlink:title="{WindowsMessageHandler\n||+ execute()\l}">
<polygon fill="none" stroke="black" points="15.5,-94.5 15.5,-151.5 144.5,-151.5 144.5,-94.5 15.5,-94.5"/>
<text text-anchor="middle" x="80" y="-139.5" font-family="Helvetica,sans-Serif" font-size="10.00">WindowsMessageHandler</text>
<polyline fill="none" stroke="black" points="15.5,-132.5 144.5,-132.5 "/>
<text text-anchor="middle" x="80" y="-120.5" font-family="Helvetica,sans-Serif" font-size="10.00"> </text>
<polyline fill="none" stroke="black" points="15.5,-113.5 144.5,-113.5 "/>
<text text-anchor="start" x="23.5" y="-101.5" font-family="Helvetica,sans-Serif" font-size="10.00">+ execute()</text>
</a>
</g>
</g>
<!-- Node2&#45;&gt;Node1 -->
<g id="edge1" class="edge"><title>Node2&#45;&gt;Node1</title>
<path fill="none" stroke="midnightblue" d="M80,-84.2092C80,-75.2929 80,-65.9513 80,-57.5836"/>
<polygon fill="none" stroke="midnightblue" points="76.5001,-84.3969 80,-94.397 83.5001,-84.397 76.5001,-84.3969"/>
</g>
</g>
</svg>
