<?xml version="1.0" encoding="UTF-8" standalone="no"?>
<!DOCTYPE svg PUBLIC "-//W3C//DTD SVG 1.1//EN"
 "http://www.w3.org/Graphics/SVG/1.1/DTD/svg11.dtd">
<!-- Generated by graphviz version 2.38.0 (20140413.2041)
 -->
<!-- Title: WindowsMessageHandlingService::handle_message Pages: 1 -->
<svg width="1086pt" height="104pt"
 viewBox="0.00 0.00 1086.00 104.00" xmlns="http://www.w3.org/2000/svg" xmlns:xlink="http://www.w3.org/1999/xlink">
<g id="graph0" class="graph" transform="scale(1 1) rotate(0) translate(4 100)">
<title>WindowsMessageHandlingService::handle_message</title>
<!-- Node1 -->
<g id="node1" class="node"><title>Node1</title>
<polygon fill="#bfbfbf" stroke="black" points="0,-52 0,-82 165,-82 165,-52 0,-52"/>
<text text-anchor="start" x="8" y="-70" font-family="Helvetica,sans-Serif" font-size="10.00">WindowsMessageHandlingService</text>
<text text-anchor="middle" x="82.5" y="-59" font-family="Helvetica,sans-Serif" font-size="10.00">::handle_message</text>
</g>
<!-- Node2 -->
<g id="node2" class="node"><title>Node2</title>
<g id="a_node2"><a xlink:href="engine_8cpp.html#a6430a76bf18e17d995aa340aaf8c30a9" target="_top" xlink:title="MainWndProc">
<polygon fill="none" stroke="black" points="201,-57.5 201,-76.5 279,-76.5 279,-57.5 201,-57.5"/>
<text text-anchor="middle" x="240" y="-64.5" font-family="Helvetica,sans-Serif" font-size="10.00">MainWndProc</text>
</a>
</g>
</g>
<!-- Node1&#45;&gt;Node2 -->
<g id="edge1" class="edge"><title>Node1&#45;&gt;Node2</title>
<path fill="none" stroke="midnightblue" d="M175.494,-67C184.407,-67 193.06,-67 200.965,-67"/>
<polygon fill="midnightblue" stroke="midnightblue" points="175.348,-63.5001 165.348,-67 175.348,-70.5001 175.348,-63.5001"/>
</g>
<!-- Node3 -->
<g id="node3" class="node"><title>Node3</title>
<g id="a_node3"><a xlink:href="classengine.html#a958aa4120f21278468225415ffe5ac92" target="_top" xlink:title="engine::_init_main\l_window">
<polygon fill="none" stroke="black" points="315,-52 315,-82 410,-82 410,-52 315,-52"/>
<text text-anchor="start" x="323" y="-70" font-family="Helvetica,sans-Serif" font-size="10.00">engine::_init_main</text>
<text text-anchor="middle" x="362.5" y="-59" font-family="Helvetica,sans-Serif" font-size="10.00">_window</text>
</a>
</g>
</g>
<!-- Node2&#45;&gt;Node3 -->
<g id="edge2" class="edge"><title>Node2&#45;&gt;Node3</title>
<path fill="none" stroke="midnightblue" d="M289.189,-67C297.61,-67 306.358,-67 314.739,-67"/>
<polygon fill="midnightblue" stroke="midnightblue" points="289.127,-63.5001 279.127,-67 289.127,-70.5001 289.127,-63.5001"/>
</g>
<!-- Node4 -->
<g id="node4" class="node"><title>Node4</title>
<g id="a_node4"><a xlink:href="classengine.html#a8b8dd82e72fd73e0601c30041529c4c0" target="_top" xlink:title="engine::_initialize">
<polygon fill="none" stroke="black" points="446,-76.5 446,-95.5 538,-95.5 538,-76.5 446,-76.5"/>
<text text-anchor="middle" x="492" y="-83.5" font-family="Helvetica,sans-Serif" font-size="10.00">engine::_initialize</text>
</a>
</g>
</g>
<!-- Node3&#45;&gt;Node4 -->
<g id="edge3" class="edge"><title>Node3&#45;&gt;Node4</title>
<path fill="none" stroke="midnightblue" d="M420.243,-75.4558C428.853,-76.7389 437.636,-78.0477 445.953,-79.2871"/>
<polygon fill="midnightblue" stroke="midnightblue" points="420.659,-71.9792 410.252,-73.967 419.627,-78.9028 420.659,-71.9792"/>
</g>
<!-- Node6 -->
<g id="node6" class="node"><title>Node6</title>
<g id="a_node6"><a xlink:href="classengine.html#ada832d0a14502f1b99fdbd5c72cab01b" target="_top" xlink:title="engine::Draw">
<polygon fill="none" stroke="black" points="580.5,-38.5 580.5,-57.5 653.5,-57.5 653.5,-38.5 580.5,-38.5"/>
<text text-anchor="middle" x="617" y="-45.5" font-family="Helvetica,sans-Serif" font-size="10.00">engine::Draw</text>
</a>
</g>
</g>
<!-- Node3&#45;&gt;Node6 -->
<g id="edge13" class="edge"><title>Node3&#45;&gt;Node6</title>
<path fill="none" stroke="midnightblue" d="M420.244,-62.7302C469.274,-59.0408 538.624,-53.8224 580.266,-50.6889"/>
<polygon fill="midnightblue" stroke="midnightblue" points="419.816,-59.2524 410.107,-63.493 420.341,-66.2327 419.816,-59.2524"/>
</g>
<!-- Node5 -->
<g id="node5" class="node"><title>Node5</title>
<g id="a_node5"><a xlink:href="classengine.html#a6809dcdfe78011851e377d4729a87ee4" target="_top" xlink:title="engine::initialize">
<polygon fill="none" stroke="black" points="574,-76.5 574,-95.5 660,-95.5 660,-76.5 574,-76.5"/>
<text text-anchor="middle" x="617" y="-83.5" font-family="Helvetica,sans-Serif" font-size="10.00">engine::initialize</text>
</a>
</g>
</g>
<!-- Node4&#45;&gt;Node5 -->
<g id="edge4" class="edge"><title>Node4&#45;&gt;Node5</title>
<path fill="none" stroke="midnightblue" d="M548.378,-86C556.903,-86 565.586,-86 573.765,-86"/>
<polygon fill="midnightblue" stroke="midnightblue" points="548.102,-82.5001 538.102,-86 548.102,-89.5001 548.102,-82.5001"/>
</g>
<!-- Node4&#45;&gt;Node6 -->
<g id="edge5" class="edge"><title>Node4&#45;&gt;Node6</title>
<path fill="none" stroke="midnightblue" d="M534.045,-73.3196C550.664,-68.1852 569.532,-62.3559 584.972,-57.5859"/>
<polygon fill="midnightblue" stroke="midnightblue" points="532.559,-70.1151 524.038,-76.411 534.626,-76.8032 532.559,-70.1151"/>
</g>
<!-- Node7 -->
<g id="node7" class="node"><title>Node7</title>
<g id="a_node7"><a xlink:href="classengine.html#a90418b124cd07d7d2f057e7d401ed641" target="_top" xlink:title="engine::_tick">
<polygon fill="none" stroke="black" points="696,-57.5 696,-76.5 768,-76.5 768,-57.5 696,-57.5"/>
<text text-anchor="middle" x="732" y="-64.5" font-family="Helvetica,sans-Serif" font-size="10.00">engine::_tick</text>
</a>
</g>
</g>
<!-- Node6&#45;&gt;Node7 -->
<g id="edge6" class="edge"><title>Node6&#45;&gt;Node7</title>
<path fill="none" stroke="midnightblue" d="M663.921,-49.0775C678.923,-51.2953 694.957,-54.3417 707.586,-57.4705"/>
<polygon fill="midnightblue" stroke="midnightblue" points="664.137,-45.5744 653.754,-47.6836 663.186,-52.5095 664.137,-45.5744"/>
</g>
<!-- Node7&#45;&gt;Node6 -->
<g id="edge12" class="edge"><title>Node7&#45;&gt;Node6</title>
<path fill="none" stroke="midnightblue" d="M685.371,-65.9655C670.285,-63.7442 654.125,-60.6786 641.414,-57.5295"/>
<polygon fill="midnightblue" stroke="midnightblue" points="685.206,-69.4754 695.588,-67.3592 686.152,-62.5397 685.206,-69.4754"/>
</g>
<!-- Node8 -->
<g id="node8" class="node"><title>Node8</title>
<g id="a_node8"><a xlink:href="classengine.html#a4bca5e9257e46c09a63f71227fc25a12" target="_top" xlink:title="engine::tick">
<polygon fill="none" stroke="black" points="804,-19.5 804,-38.5 871,-38.5 871,-19.5 804,-19.5"/>
<text text-anchor="middle" x="837.5" y="-26.5" font-family="Helvetica,sans-Serif" font-size="10.00">engine::tick</text>
</a>
</g>
</g>
<!-- Node7&#45;&gt;Node8 -->
<g id="edge7" class="edge"><title>Node7&#45;&gt;Node8</title>
<path fill="none" stroke="midnightblue" d="M768.729,-53.882C782.418,-48.8561 797.767,-43.2209 810.391,-38.5859"/>
<polygon fill="midnightblue" stroke="midnightblue" points="767.298,-50.6788 759.117,-57.411 769.711,-57.2499 767.298,-50.6788"/>
</g>
<!-- Node8&#45;&gt;Node6 -->
<g id="edge11" class="edge"><title>Node8&#45;&gt;Node6</title>
<path fill="none" stroke="midnightblue" d="M793.585,-32.7318C752.696,-36.2873 691.86,-41.5774 653.592,-44.905"/>
<polygon fill="midnightblue" stroke="midnightblue" points="794.122,-36.1984 803.781,-31.8451 793.515,-29.2247 794.122,-36.1984"/>
</g>
<!-- Node9 -->
<g id="node9" class="node"><title>Node9</title>
<g id="a_node9"><a xlink:href="classengine.html#a1d9b806d03be0255a8ac3c119e181cc5" target="_top" xlink:title="engine::_run">
<polygon fill="none" stroke="black" points="907,-0.5 907,-19.5 977,-19.5 977,-0.5 907,-0.5"/>
<text text-anchor="middle" x="942" y="-7.5" font-family="Helvetica,sans-Serif" font-size="10.00">engine::_run</text>
</a>
</g>
</g>
<!-- Node8&#45;&gt;Node9 -->
<g id="edge8" class="edge"><title>Node8&#45;&gt;Node9</title>
<path fill="none" stroke="midnightblue" d="M881.077,-21.1076C889.662,-19.5164 898.581,-17.8631 906.832,-16.3335"/>
<polygon fill="midnightblue" stroke="midnightblue" points="880.408,-17.672 871.213,-22.936 881.684,-24.5547 880.408,-17.672"/>
</g>
<!-- Node9&#45;&gt;Node6 -->
<g id="edge10" class="edge"><title>Node9&#45;&gt;Node6</title>
<path fill="none" stroke="midnightblue" d="M896.596,-7.74994C869.727,-6.94709 834.815,-6.89333 804,-10 755.261,-14.9137 743.993,-22.1894 696,-32 682.186,-34.8239 666.997,-37.9375 653.722,-40.6617"/>
<polygon fill="midnightblue" stroke="midnightblue" points="896.728,-11.2565 906.842,-8.10361 896.969,-4.26063 896.728,-11.2565"/>
</g>
<!-- Node10 -->
<g id="node10" class="node"><title>Node10</title>
<g id="a_node10"><a xlink:href="classengine.html#aecb22d51cc8f83cacbf3696a18d66c30" target="_top" xlink:title="engine::run">
<polygon fill="none" stroke="black" points="1013,-0.5 1013,-19.5 1078,-19.5 1078,-0.5 1013,-0.5"/>
<text text-anchor="middle" x="1045.5" y="-7.5" font-family="Helvetica,sans-Serif" font-size="10.00">engine::run</text>
</a>
</g>
</g>
<!-- Node9&#45;&gt;Node10 -->
<g id="edge9" class="edge"><title>Node9&#45;&gt;Node10</title>
<path fill="none" stroke="midnightblue" d="M987.325,-10C995.879,-10 1004.68,-10 1012.74,-10"/>
<polygon fill="midnightblue" stroke="midnightblue" points="987.08,-6.5001 977.08,-10 987.08,-13.5001 987.08,-6.5001"/>
</g>
</g>
</svg>
