<?xml version="1.0" encoding="UTF-8" standalone="no"?>
<!DOCTYPE svg PUBLIC "-//W3C//DTD SVG 1.1//EN"
 "http://www.w3.org/Graphics/SVG/1.1/DTD/svg11.dtd">
<!-- Generated by graphviz version 2.38.0 (20140413.2041)
 -->
<!-- Title: GameTimer::end_update_timer Pages: 1 -->
<svg width="557pt" height="119pt"
 viewBox="0.00 0.00 557.00 118.50" xmlns="http://www.w3.org/2000/svg" xmlns:xlink="http://www.w3.org/1999/xlink">
<g id="graph0" class="graph" transform="scale(1 1) rotate(0) translate(4 114.5)">
<title>GameTimer::end_update_timer</title>
<!-- Node1 -->
<g id="node1" class="node"><title>Node1</title>
<polygon fill="#bfbfbf" stroke="black" points="0,-0.5 0,-30.5 123,-30.5 123,-0.5 0,-0.5"/>
<text text-anchor="start" x="8" y="-18.5" font-family="Helvetica,sans-Serif" font-size="10.00">GameTimer::end_update</text>
<text text-anchor="middle" x="61.5" y="-7.5" font-family="Helvetica,sans-Serif" font-size="10.00">_timer</text>
</g>
<!-- Node2 -->
<g id="node2" class="node"><title>Node2</title>
<g id="a_node2"><a xlink:href="classengine.html#a90418b124cd07d7d2f057e7d401ed641" target="_top" xlink:title="engine::_tick">
<polygon fill="none" stroke="black" points="159,-6 159,-25 231,-25 231,-6 159,-6"/>
<text text-anchor="middle" x="195" y="-13" font-family="Helvetica,sans-Serif" font-size="10.00">engine::_tick</text>
</a>
</g>
</g>
<!-- Node1&#45;&gt;Node2 -->
<g id="edge1" class="edge"><title>Node1&#45;&gt;Node2</title>
<path fill="none" stroke="midnightblue" d="M133.31,-15.5C142.209,-15.5 150.982,-15.5 158.975,-15.5"/>
<polygon fill="midnightblue" stroke="midnightblue" points="133.246,-12.0001 123.246,-15.5 133.246,-19.0001 133.246,-12.0001"/>
</g>
<!-- Node3 -->
<g id="node3" class="node"><title>Node3</title>
<g id="a_node3"><a xlink:href="classengine.html#a4bca5e9257e46c09a63f71227fc25a12" target="_top" xlink:title="engine::tick">
<polygon fill="none" stroke="black" points="267,-53 267,-72 334,-72 334,-53 267,-53"/>
<text text-anchor="middle" x="300.5" y="-60" font-family="Helvetica,sans-Serif" font-size="10.00">engine::tick</text>
</a>
</g>
</g>
<!-- Node2&#45;&gt;Node3 -->
<g id="edge2" class="edge"><title>Node2&#45;&gt;Node3</title>
<path fill="none" stroke="midnightblue" d="M226.277,-29.2491C242.952,-36.8212 263.242,-46.035 278.231,-52.8417"/>
<polygon fill="midnightblue" stroke="midnightblue" points="227.497,-25.9591 216.945,-25.0112 224.603,-32.3327 227.497,-25.9591"/>
</g>
<!-- Node6 -->
<g id="node6" class="node"><title>Node6</title>
<g id="a_node6"><a xlink:href="classengine.html#ada832d0a14502f1b99fdbd5c72cab01b" target="_top" xlink:title="engine::Draw">
<polygon fill="none" stroke="black" points="476,-29 476,-48 549,-48 549,-29 476,-29"/>
<text text-anchor="middle" x="512.5" y="-36" font-family="Helvetica,sans-Serif" font-size="10.00">engine::Draw</text>
</a>
</g>
</g>
<!-- Node2&#45;&gt;Node6 -->
<g id="edge8" class="edge"><title>Node2&#45;&gt;Node6</title>
<path fill="none" stroke="midnightblue" d="M241.368,-13.9C304.723,-15.9209 418.381,-24.3554 475.971,-31.449"/>
<polygon fill="midnightblue" stroke="midnightblue" points="241.366,-10.3987 231.273,-13.6234 241.174,-17.3961 241.366,-10.3987"/>
</g>
<!-- Node4 -->
<g id="node4" class="node"><title>Node4</title>
<g id="a_node4"><a xlink:href="classengine.html#a1d9b806d03be0255a8ac3c119e181cc5" target="_top" xlink:title="engine::_run">
<polygon fill="none" stroke="black" points="370,-91 370,-110 440,-110 440,-91 370,-91"/>
<text text-anchor="middle" x="405" y="-98" font-family="Helvetica,sans-Serif" font-size="10.00">engine::_run</text>
</a>
</g>
</g>
<!-- Node3&#45;&gt;Node4 -->
<g id="edge3" class="edge"><title>Node3&#45;&gt;Node4</title>
<path fill="none" stroke="midnightblue" d="M336.884,-75.618C350.441,-80.6439 365.641,-86.2791 378.143,-90.9141"/>
<polygon fill="midnightblue" stroke="midnightblue" points="337.958,-72.2835 327.365,-72.089 335.525,-78.8469 337.958,-72.2835"/>
</g>
<!-- Node3&#45;&gt;Node6 -->
<g id="edge7" class="edge"><title>Node3&#45;&gt;Node6</title>
<path fill="none" stroke="midnightblue" d="M344.739,-57.5584C383.447,-53.1346 439.53,-46.7252 475.757,-42.5849"/>
<polygon fill="midnightblue" stroke="midnightblue" points="343.85,-54.1371 334.313,-58.75 344.645,-61.0918 343.85,-54.1371"/>
</g>
<!-- Node5 -->
<g id="node5" class="node"><title>Node5</title>
<g id="a_node5"><a xlink:href="classengine.html#aecb22d51cc8f83cacbf3696a18d66c30" target="_top" xlink:title="engine::run">
<polygon fill="none" stroke="black" points="480,-91 480,-110 545,-110 545,-91 480,-91"/>
<text text-anchor="middle" x="512.5" y="-98" font-family="Helvetica,sans-Serif" font-size="10.00">engine::run</text>
</a>
</g>
</g>
<!-- Node4&#45;&gt;Node5 -->
<g id="edge4" class="edge"><title>Node4&#45;&gt;Node5</title>
<path fill="none" stroke="midnightblue" d="M450.387,-100.5C460.311,-100.5 470.639,-100.5 479.92,-100.5"/>
<polygon fill="midnightblue" stroke="midnightblue" points="450.253,-97.0001 440.253,-100.5 450.253,-104 450.253,-97.0001"/>
</g>
<!-- Node4&#45;&gt;Node6 -->
<g id="edge5" class="edge"><title>Node4&#45;&gt;Node6</title>
<path fill="none" stroke="midnightblue" d="M431.288,-85.6387C451.095,-73.9984 478.066,-58.1485 495.131,-48.1195"/>
<polygon fill="midnightblue" stroke="midnightblue" points="429.332,-82.7283 422.484,-90.8125 432.879,-88.7633 429.332,-82.7283"/>
</g>
<!-- Node6&#45;&gt;Node2 -->
<g id="edge6" class="edge"><title>Node6&#45;&gt;Node2</title>
<path fill="none" stroke="midnightblue" d="M465.85,-40.091C402.347,-38.0511 288.698,-29.6091 231.273,-22.5194"/>
<polygon fill="midnightblue" stroke="midnightblue" points="465.878,-43.593 475.971,-40.3708 466.072,-36.5957 465.878,-43.593"/>
</g>
</g>
</svg>
