<?xml version="1.0" encoding="UTF-8" standalone="no"?>
<!DOCTYPE svg PUBLIC "-//W3C//DTD SVG 1.1//EN"
 "http://www.w3.org/Graphics/SVG/1.1/DTD/svg11.dtd">
<!-- Generated by graphviz version 2.38.0 (20140413.2041)
 -->
<!-- Title: MathHelper::Identity4x4 Pages: 1 -->
<svg width="446pt" height="78pt"
 viewBox="0.00 0.00 446.00 77.50" xmlns="http://www.w3.org/2000/svg" xmlns:xlink="http://www.w3.org/1999/xlink">
<g id="graph0" class="graph" transform="scale(1 1) rotate(0) translate(4 73.5)">
<title>MathHelper::Identity4x4</title>
<!-- Node1 -->
<g id="node1" class="node"><title>Node1</title>
<polygon fill="#bfbfbf" stroke="black" points="0,-28 0,-47 119,-47 119,-28 0,-28"/>
<text text-anchor="middle" x="59.5" y="-35" font-family="Helvetica,sans-Serif" font-size="10.00">MathHelper::Identity4x4</text>
</g>
<!-- Node2 -->
<g id="node2" class="node"><title>Node2</title>
<g id="a_node2"><a xlink:href="class_math_helper.html#ad28ffa12ec507b33bd45dd3a842173a6" target="_top" xlink:title="MathHelper::RandUnitVec3">
<polygon fill="none" stroke="black" points="161,-50 161,-69 295,-69 295,-50 161,-50"/>
<text text-anchor="middle" x="228" y="-57" font-family="Helvetica,sans-Serif" font-size="10.00">MathHelper::RandUnitVec3</text>
</a>
</g>
</g>
<!-- Node1&#45;&gt;Node2 -->
<g id="edge1" class="edge"><title>Node1&#45;&gt;Node2</title>
<path fill="none" stroke="midnightblue" d="M119.202,-45.2564C129.419,-46.6064 140.177,-48.0279 150.783,-49.4292"/>
<polygon fill="midnightblue" stroke="midnightblue" points="150.509,-52.9234 160.881,-50.7635 151.426,-45.9837 150.509,-52.9234"/>
</g>
<!-- Node4 -->
<g id="node4" class="node"><title>Node4</title>
<g id="a_node4"><a xlink:href="class_math_helper.html#a1b8d2df0e81ec45673de09642351119d" target="_top" xlink:title="MathHelper::RandHemisphere\lUnitVec3">
<polygon fill="none" stroke="black" points="155,-0.5 155,-30.5 301,-30.5 301,-0.5 155,-0.5"/>
<text text-anchor="start" x="163" y="-18.5" font-family="Helvetica,sans-Serif" font-size="10.00">MathHelper::RandHemisphere</text>
<text text-anchor="middle" x="228" y="-7.5" font-family="Helvetica,sans-Serif" font-size="10.00">UnitVec3</text>
</a>
</g>
</g>
<!-- Node1&#45;&gt;Node4 -->
<g id="edge3" class="edge"><title>Node1&#45;&gt;Node4</title>
<path fill="none" stroke="midnightblue" d="M119.202,-29.7436C127.479,-28.65 136.111,-27.5093 144.73,-26.3705"/>
<polygon fill="midnightblue" stroke="midnightblue" points="145.364,-29.8173 154.819,-25.0374 144.447,-22.8776 145.364,-29.8173"/>
</g>
<!-- Node3 -->
<g id="node3" class="node"><title>Node3</title>
<g id="a_node3"><a xlink:href="class_math_helper.html#ad50130c776aee103e24d7170adcd13a3" target="_top" xlink:title="MathHelper::RandF">
<polygon fill="none" stroke="black" points="337,-28 337,-47 438,-47 438,-28 337,-28"/>
<text text-anchor="middle" x="387.5" y="-35" font-family="Helvetica,sans-Serif" font-size="10.00">MathHelper::RandF</text>
</a>
</g>
</g>
<!-- Node2&#45;&gt;Node3 -->
<g id="edge2" class="edge"><title>Node2&#45;&gt;Node3</title>
<path fill="none" stroke="midnightblue" d="M295.338,-50.2338C305.804,-48.7718 316.571,-47.2678 326.873,-45.8288"/>
<polygon fill="midnightblue" stroke="midnightblue" points="327.572,-49.2652 336.992,-44.4154 326.604,-42.3326 327.572,-49.2652"/>
</g>
<!-- Node4&#45;&gt;Node3 -->
<g id="edge4" class="edge"><title>Node4&#45;&gt;Node3</title>
<path fill="none" stroke="midnightblue" d="M301.296,-25.5986C309.805,-26.7871 318.415,-27.9897 326.725,-29.1505"/>
<polygon fill="midnightblue" stroke="midnightblue" points="326.298,-32.6248 336.686,-30.5419 327.267,-25.6921 326.298,-32.6248"/>
</g>
</g>
</svg>
