<?xml version="1.0" encoding="UTF-8" standalone="no"?>
<!DOCTYPE svg PUBLIC "-//W3C//DTD SVG 1.1//EN"
 "http://www.w3.org/Graphics/SVG/1.1/DTD/svg11.dtd">
<!-- Generated by graphviz version 2.38.0 (20140413.2041)
 -->
<!-- Title: DirectXRenderer::Set4xMsaaState Pages: 1 -->
<svg width="596pt" height="225pt"
 viewBox="0.00 0.00 596.00 224.50" xmlns="http://www.w3.org/2000/svg" xmlns:xlink="http://www.w3.org/1999/xlink">
<g id="graph0" class="graph" transform="scale(1 1) rotate(0) translate(4 220.5)">
<title>DirectXRenderer::Set4xMsaaState</title>
<!-- Node1 -->
<g id="node1" class="node"><title>Node1</title>
<polygon fill="#bfbfbf" stroke="black" points="0,-110 0,-140 142,-140 142,-110 0,-110"/>
<text text-anchor="start" x="8" y="-128" font-family="Helvetica,sans-Serif" font-size="10.00">DirectXRenderer::Set4xMsaa</text>
<text text-anchor="middle" x="71" y="-117" font-family="Helvetica,sans-Serif" font-size="10.00">State</text>
</g>
<!-- Node2 -->
<g id="node2" class="node"><title>Node2</title>
<g id="a_node2"><a xlink:href="class_direct_x_renderer.html#ab76ef034cbf3cfafc7a8aae1b50f6e6b" target="_top" xlink:title="DirectXRenderer::create\l_swap_chain">
<polygon fill="none" stroke="black" points="178,-132 178,-162 297,-162 297,-132 178,-132"/>
<text text-anchor="start" x="186" y="-150" font-family="Helvetica,sans-Serif" font-size="10.00">DirectXRenderer::create</text>
<text text-anchor="middle" x="237.5" y="-139" font-family="Helvetica,sans-Serif" font-size="10.00">_swap_chain</text>
</a>
</g>
</g>
<!-- Node1&#45;&gt;Node2 -->
<g id="edge1" class="edge"><title>Node1&#45;&gt;Node2</title>
<path fill="none" stroke="midnightblue" d="M142.24,-134.394C150.683,-135.523 159.299,-136.675 167.721,-137.802"/>
<polygon fill="midnightblue" stroke="midnightblue" points="167.498,-141.303 177.874,-139.159 168.426,-134.365 167.498,-141.303"/>
</g>
<!-- Node3 -->
<g id="node3" class="node"><title>Node3</title>
<g id="a_node3"><a xlink:href="class_direct_x_renderer.html#ae823daf9d77db0f506320f7171cb117d" target="_top" xlink:title="DirectXRenderer::resize">
<polygon fill="none" stroke="black" points="178,-93.5 178,-112.5 297,-112.5 297,-93.5 178,-93.5"/>
<text text-anchor="middle" x="237.5" y="-100.5" font-family="Helvetica,sans-Serif" font-size="10.00">DirectXRenderer::resize</text>
</a>
</g>
</g>
<!-- Node1&#45;&gt;Node3 -->
<g id="edge2" class="edge"><title>Node1&#45;&gt;Node3</title>
<path fill="none" stroke="midnightblue" d="M142.24,-115.606C150.683,-114.477 159.299,-113.325 167.721,-112.198"/>
<polygon fill="midnightblue" stroke="midnightblue" points="168.426,-115.635 177.874,-110.841 167.498,-108.697 168.426,-115.635"/>
</g>
<!-- Node4 -->
<g id="node4" class="node"><title>Node4</title>
<g id="a_node4"><a xlink:href="class_direct_x_renderer.html#ab1ac2acccb63781ec8ccce58fe351c63" target="_top" xlink:title="DirectXRenderer::flush\l_command_queue">
<polygon fill="none" stroke="black" points="333,-186 333,-216 446,-216 446,-186 333,-186"/>
<text text-anchor="start" x="341" y="-204" font-family="Helvetica,sans-Serif" font-size="10.00">DirectXRenderer::flush</text>
<text text-anchor="middle" x="389.5" y="-193" font-family="Helvetica,sans-Serif" font-size="10.00">_command_queue</text>
</a>
</g>
</g>
<!-- Node3&#45;&gt;Node4 -->
<g id="edge3" class="edge"><title>Node3&#45;&gt;Node4</title>
<path fill="none" stroke="midnightblue" d="M278.064,-112.556C284.78,-115.256 291.387,-118.678 297,-123 319.856,-140.596 310.855,-158.518 333,-177 334.511,-178.261 336.099,-179.466 337.743,-180.617"/>
<polygon fill="midnightblue" stroke="midnightblue" points="336.003,-183.656 346.353,-185.922 339.675,-177.696 336.003,-183.656"/>
</g>
<!-- Node5 -->
<g id="node5" class="node"><title>Node5</title>
<g id="a_node5"><a xlink:href="class_direct_x_renderer.html#a3fd16381af742f128d5a7138d65be695" target="_top" xlink:title="DirectXRenderer::get\l_depth_stencil_view">
<polygon fill="none" stroke="black" points="336.5,-137 336.5,-167 442.5,-167 442.5,-137 336.5,-137"/>
<text text-anchor="start" x="344.5" y="-155" font-family="Helvetica,sans-Serif" font-size="10.00">DirectXRenderer::get</text>
<text text-anchor="middle" x="389.5" y="-144" font-family="Helvetica,sans-Serif" font-size="10.00">_depth_stencil_view</text>
</a>
</g>
</g>
<!-- Node3&#45;&gt;Node5 -->
<g id="edge4" class="edge"><title>Node3&#45;&gt;Node5</title>
<path fill="none" stroke="midnightblue" d="M267.778,-112.564C286.271,-118.605 310.761,-126.605 332.848,-133.82"/>
<polygon fill="midnightblue" stroke="midnightblue" points="331.876,-137.185 342.468,-136.963 334.05,-130.531 331.876,-137.185"/>
</g>
<!-- Node6 -->
<g id="node6" class="node"><title>Node6</title>
<g id="a_node6"><a xlink:href="classengine.html#a54e5e763df5801c9289a2030635b3d52" target="_top" xlink:title="engine::get_current\l_camera">
<polygon fill="none" stroke="black" points="339.5,-88 339.5,-118 439.5,-118 439.5,-88 339.5,-88"/>
<text text-anchor="start" x="347.5" y="-106" font-family="Helvetica,sans-Serif" font-size="10.00">engine::get_current</text>
<text text-anchor="middle" x="389.5" y="-95" font-family="Helvetica,sans-Serif" font-size="10.00">_camera</text>
</a>
</g>
</g>
<!-- Node3&#45;&gt;Node6 -->
<g id="edge5" class="edge"><title>Node3&#45;&gt;Node6</title>
<path fill="none" stroke="midnightblue" d="M297.353,-103C307.695,-103 318.467,-103 328.831,-103"/>
<polygon fill="midnightblue" stroke="midnightblue" points="329.027,-106.5 339.027,-103 329.027,-99.5001 329.027,-106.5"/>
</g>
<!-- Node9 -->
<g id="node9" class="node"><title>Node9</title>
<g id="a_node9"><a xlink:href="class_camera.html#a5619188052108689a7a3171597fca7b6" target="_top" xlink:title="Camera::SetLens">
<polygon fill="none" stroke="black" points="343.5,-0.5 343.5,-19.5 435.5,-19.5 435.5,-0.5 343.5,-0.5"/>
<text text-anchor="middle" x="389.5" y="-7.5" font-family="Helvetica,sans-Serif" font-size="10.00">Camera::SetLens</text>
</a>
</g>
</g>
<!-- Node3&#45;&gt;Node9 -->
<g id="edge8" class="edge"><title>Node3&#45;&gt;Node9</title>
<path fill="none" stroke="midnightblue" d="M248.456,-93.3232C264.854,-77.8421 299.115,-47.3831 333,-29 336.777,-26.9511 340.816,-25.0616 344.928,-23.3344"/>
<polygon fill="midnightblue" stroke="midnightblue" points="346.507,-26.4762 354.568,-19.6007 343.979,-19.9487 346.507,-26.4762"/>
</g>
<!-- Node11 -->
<g id="node11" class="node"><title>Node11</title>
<g id="a_node11"><a xlink:href="classengine.html#aec4a8646ae5139982a23f45ee38b3224" target="_top" xlink:title="engine::get_aspect\l_ratio">
<polygon fill="none" stroke="black" points="340,-39 340,-69 439,-69 439,-39 340,-39"/>
<text text-anchor="start" x="348" y="-57" font-family="Helvetica,sans-Serif" font-size="10.00">engine::get_aspect</text>
<text text-anchor="middle" x="389.5" y="-46" font-family="Helvetica,sans-Serif" font-size="10.00">_ratio</text>
</a>
</g>
</g>
<!-- Node3&#45;&gt;Node11 -->
<g id="edge10" class="edge"><title>Node3&#45;&gt;Node11</title>
<path fill="none" stroke="midnightblue" d="M267.778,-93.436C286.271,-87.395 310.761,-79.3948 332.848,-72.1796"/>
<polygon fill="midnightblue" stroke="midnightblue" points="334.05,-75.4692 342.468,-69.037 331.876,-68.8152 334.05,-75.4692"/>
</g>
<!-- Node7 -->
<g id="node7" class="node"><title>Node7</title>
<g id="a_node7"><a xlink:href="classengine.html#a240cde5717390f5f154bc9e4af2c36eb" target="_top" xlink:title="engine::get_engine">
<polygon fill="none" stroke="black" points="486,-88.5 486,-107.5 584,-107.5 584,-88.5 486,-88.5"/>
<text text-anchor="middle" x="535" y="-95.5" font-family="Helvetica,sans-Serif" font-size="10.00">engine::get_engine</text>
</a>
</g>
</g>
<!-- Node6&#45;&gt;Node7 -->
<g id="edge6" class="edge"><title>Node6&#45;&gt;Node7</title>
<path fill="none" stroke="midnightblue" d="M439.885,-101.279C451.422,-100.877 463.817,-100.445 475.702,-100.031"/>
<polygon fill="midnightblue" stroke="midnightblue" points="476.108,-103.519 485.98,-99.6732 475.864,-96.5236 476.108,-103.519"/>
</g>
<!-- Node8 -->
<g id="node8" class="node"><title>Node8</title>
<g id="a_node8"><a xlink:href="class_direct_x_renderer.html#a8232561ca218d26c0f70d9f9b3dbcea6" target="_top" xlink:title="DirectXRenderer::get\l_current_camera">
<polygon fill="none" stroke="black" points="482,-127 482,-157 588,-157 588,-127 482,-127"/>
<text text-anchor="start" x="490" y="-145" font-family="Helvetica,sans-Serif" font-size="10.00">DirectXRenderer::get</text>
<text text-anchor="middle" x="535" y="-134" font-family="Helvetica,sans-Serif" font-size="10.00">_current_camera</text>
</a>
</g>
</g>
<!-- Node6&#45;&gt;Node8 -->
<g id="edge7" class="edge"><title>Node6&#45;&gt;Node8</title>
<path fill="none" stroke="midnightblue" d="M439.885,-116.422C450.188,-119.222 461.176,-122.208 471.873,-125.115"/>
<polygon fill="midnightblue" stroke="midnightblue" points="471.019,-128.51 481.587,-127.755 472.855,-121.755 471.019,-128.51"/>
</g>
<!-- Node10 -->
<g id="node10" class="node"><title>Node10</title>
<g id="a_node10"><a xlink:href="class_camera.html#a34d7f37c11a8e47788cd360940076874" target="_top" xlink:title="Camera::LookAt">
<polygon fill="none" stroke="black" points="491.5,-0.5 491.5,-19.5 578.5,-19.5 578.5,-0.5 491.5,-0.5"/>
<text text-anchor="middle" x="535" y="-7.5" font-family="Helvetica,sans-Serif" font-size="10.00">Camera::LookAt</text>
</a>
</g>
</g>
<!-- Node9&#45;&gt;Node10 -->
<g id="edge9" class="edge"><title>Node9&#45;&gt;Node10</title>
<path fill="none" stroke="midnightblue" d="M435.511,-10C449.936,-10 466.044,-10 480.986,-10"/>
<polygon fill="midnightblue" stroke="midnightblue" points="481.109,-13.5001 491.109,-10 481.109,-6.5001 481.109,-13.5001"/>
</g>
<!-- Node11&#45;&gt;Node7 -->
<g id="edge11" class="edge"><title>Node11&#45;&gt;Node7</title>
<path fill="none" stroke="midnightblue" d="M439.083,-68.8964C456.455,-74.2231 475.857,-80.1722 492.57,-85.2966"/>
<polygon fill="midnightblue" stroke="midnightblue" points="491.999,-88.7825 502.586,-88.3678 494.051,-82.09 491.999,-88.7825"/>
</g>
<!-- Node12 -->
<g id="node12" class="node"><title>Node12</title>
<g id="a_node12"><a xlink:href="classengine.html#ad86c3cbf7b32238e3220bf099d9f3f07" target="_top" xlink:title="engine::_get_aspect\l_ratio">
<polygon fill="none" stroke="black" points="483,-39 483,-69 587,-69 587,-39 483,-39"/>
<text text-anchor="start" x="491" y="-57" font-family="Helvetica,sans-Serif" font-size="10.00">engine::_get_aspect</text>
<text text-anchor="middle" x="535" y="-46" font-family="Helvetica,sans-Serif" font-size="10.00">_ratio</text>
</a>
</g>
</g>
<!-- Node11&#45;&gt;Node12 -->
<g id="edge12" class="edge"><title>Node11&#45;&gt;Node12</title>
<path fill="none" stroke="midnightblue" d="M439.083,-54C449.79,-54 461.269,-54 472.413,-54"/>
<polygon fill="midnightblue" stroke="midnightblue" points="472.523,-57.5001 482.523,-54 472.523,-50.5001 472.523,-57.5001"/>
</g>
</g>
</svg>
