<?xml version="1.0" encoding="UTF-8" standalone="no"?>
<!DOCTYPE svg PUBLIC "-//W3C//DTD SVG 1.1//EN"
 "http://www.w3.org/Graphics/SVG/1.1/DTD/svg11.dtd">
<!-- Generated by graphviz version 2.38.0 (20140413.2041)
 -->
<!-- Title: GameTimer::tick Pages: 1 -->
<svg width="523pt" height="113pt"
 viewBox="0.00 0.00 523.00 113.00" xmlns="http://www.w3.org/2000/svg" xmlns:xlink="http://www.w3.org/1999/xlink">
<g id="graph0" class="graph" transform="scale(1 1) rotate(0) translate(4 109)">
<title>GameTimer::tick</title>
<!-- Node1 -->
<g id="node1" class="node"><title>Node1</title>
<polygon fill="#bfbfbf" stroke="black" points="0,-0.5 0,-19.5 89,-19.5 89,-0.5 0,-0.5"/>
<text text-anchor="middle" x="44.5" y="-7.5" font-family="Helvetica,sans-Serif" font-size="10.00">GameTimer::tick</text>
</g>
<!-- Node2 -->
<g id="node2" class="node"><title>Node2</title>
<g id="a_node2"><a xlink:href="classengine.html#a90418b124cd07d7d2f057e7d401ed641" target="_top" xlink:title="engine::_tick">
<polygon fill="none" stroke="black" points="125,-0.5 125,-19.5 197,-19.5 197,-0.5 125,-0.5"/>
<text text-anchor="middle" x="161" y="-7.5" font-family="Helvetica,sans-Serif" font-size="10.00">engine::_tick</text>
</a>
</g>
</g>
<!-- Node1&#45;&gt;Node2 -->
<g id="edge1" class="edge"><title>Node1&#45;&gt;Node2</title>
<path fill="none" stroke="midnightblue" d="M99.178,-10C107.834,-10 116.6,-10 124.679,-10"/>
<polygon fill="midnightblue" stroke="midnightblue" points="99.1142,-6.5001 89.1142,-10 99.1141,-13.5001 99.1142,-6.5001"/>
</g>
<!-- Node3 -->
<g id="node3" class="node"><title>Node3</title>
<g id="a_node3"><a xlink:href="classengine.html#a4bca5e9257e46c09a63f71227fc25a12" target="_top" xlink:title="engine::tick">
<polygon fill="none" stroke="black" points="233,-47.5 233,-66.5 300,-66.5 300,-47.5 233,-47.5"/>
<text text-anchor="middle" x="266.5" y="-54.5" font-family="Helvetica,sans-Serif" font-size="10.00">engine::tick</text>
</a>
</g>
</g>
<!-- Node2&#45;&gt;Node3 -->
<g id="edge2" class="edge"><title>Node2&#45;&gt;Node3</title>
<path fill="none" stroke="midnightblue" d="M192.277,-23.7491C208.952,-31.3212 229.242,-40.535 244.231,-47.3417"/>
<polygon fill="midnightblue" stroke="midnightblue" points="193.497,-20.4591 182.945,-19.5112 190.603,-26.8327 193.497,-20.4591"/>
</g>
<!-- Node6 -->
<g id="node6" class="node"><title>Node6</title>
<g id="a_node6"><a xlink:href="classengine.html#ada832d0a14502f1b99fdbd5c72cab01b" target="_top" xlink:title="engine::Draw">
<polygon fill="none" stroke="black" points="442,-23.5 442,-42.5 515,-42.5 515,-23.5 442,-23.5"/>
<text text-anchor="middle" x="478.5" y="-30.5" font-family="Helvetica,sans-Serif" font-size="10.00">engine::Draw</text>
</a>
</g>
</g>
<!-- Node2&#45;&gt;Node6 -->
<g id="edge8" class="edge"><title>Node2&#45;&gt;Node6</title>
<path fill="none" stroke="midnightblue" d="M207.368,-8.4C270.723,-10.4209 384.381,-18.8554 441.971,-25.949"/>
<polygon fill="midnightblue" stroke="midnightblue" points="207.366,-4.89871 197.273,-8.12345 207.174,-11.8961 207.366,-4.89871"/>
</g>
<!-- Node4 -->
<g id="node4" class="node"><title>Node4</title>
<g id="a_node4"><a xlink:href="classengine.html#a1d9b806d03be0255a8ac3c119e181cc5" target="_top" xlink:title="engine::_run">
<polygon fill="none" stroke="black" points="336,-85.5 336,-104.5 406,-104.5 406,-85.5 336,-85.5"/>
<text text-anchor="middle" x="371" y="-92.5" font-family="Helvetica,sans-Serif" font-size="10.00">engine::_run</text>
</a>
</g>
</g>
<!-- Node3&#45;&gt;Node4 -->
<g id="edge3" class="edge"><title>Node3&#45;&gt;Node4</title>
<path fill="none" stroke="midnightblue" d="M302.884,-70.118C316.441,-75.1439 331.641,-80.7791 344.143,-85.4141"/>
<polygon fill="midnightblue" stroke="midnightblue" points="303.958,-66.7835 293.365,-66.589 301.525,-73.3469 303.958,-66.7835"/>
</g>
<!-- Node3&#45;&gt;Node6 -->
<g id="edge7" class="edge"><title>Node3&#45;&gt;Node6</title>
<path fill="none" stroke="midnightblue" d="M310.739,-52.0584C349.447,-47.6346 405.53,-41.2252 441.757,-37.0849"/>
<polygon fill="midnightblue" stroke="midnightblue" points="309.85,-48.6371 300.313,-53.25 310.645,-55.5918 309.85,-48.6371"/>
</g>
<!-- Node5 -->
<g id="node5" class="node"><title>Node5</title>
<g id="a_node5"><a xlink:href="classengine.html#aecb22d51cc8f83cacbf3696a18d66c30" target="_top" xlink:title="engine::run">
<polygon fill="none" stroke="black" points="446,-85.5 446,-104.5 511,-104.5 511,-85.5 446,-85.5"/>
<text text-anchor="middle" x="478.5" y="-92.5" font-family="Helvetica,sans-Serif" font-size="10.00">engine::run</text>
</a>
</g>
</g>
<!-- Node4&#45;&gt;Node5 -->
<g id="edge4" class="edge"><title>Node4&#45;&gt;Node5</title>
<path fill="none" stroke="midnightblue" d="M416.387,-95C426.311,-95 436.639,-95 445.92,-95"/>
<polygon fill="midnightblue" stroke="midnightblue" points="416.253,-91.5001 406.253,-95 416.253,-98.5001 416.253,-91.5001"/>
</g>
<!-- Node4&#45;&gt;Node6 -->
<g id="edge5" class="edge"><title>Node4&#45;&gt;Node6</title>
<path fill="none" stroke="midnightblue" d="M397.288,-80.1387C417.095,-68.4984 444.066,-52.6485 461.131,-42.6195"/>
<polygon fill="midnightblue" stroke="midnightblue" points="395.332,-77.2283 388.484,-85.3125 398.879,-83.2633 395.332,-77.2283"/>
</g>
<!-- Node6&#45;&gt;Node2 -->
<g id="edge6" class="edge"><title>Node6&#45;&gt;Node2</title>
<path fill="none" stroke="midnightblue" d="M431.85,-34.591C368.347,-32.5511 254.698,-24.1091 197.273,-17.0194"/>
<polygon fill="midnightblue" stroke="midnightblue" points="431.878,-38.093 441.971,-34.8708 432.072,-31.0957 431.878,-38.093"/>
</g>
</g>
</svg>
