<?xml version="1.0" encoding="UTF-8" standalone="no"?>
<!DOCTYPE svg PUBLIC "-//W3C//DTD SVG 1.1//EN"
 "http://www.w3.org/Graphics/SVG/1.1/DTD/svg11.dtd">
<!-- Generated by graphviz version 2.38.0 (20140413.2041)
 -->
<!-- Title: engine::_init_main_window Pages: 1 -->
<svg width="552pt" height="88pt"
 viewBox="0.00 0.00 552.00 88.00" xmlns="http://www.w3.org/2000/svg" xmlns:xlink="http://www.w3.org/1999/xlink">
<g id="graph0" class="graph" transform="scale(1 1) rotate(0) translate(4 84)">
<title>engine::_init_main_window</title>
<!-- Node1 -->
<g id="node1" class="node"><title>Node1</title>
<polygon fill="#bfbfbf" stroke="black" points="0,-24.5 0,-54.5 95,-54.5 95,-24.5 0,-24.5"/>
<text text-anchor="start" x="8" y="-42.5" font-family="Helvetica,sans-Serif" font-size="10.00">engine::_init_main</text>
<text text-anchor="middle" x="47.5" y="-31.5" font-family="Helvetica,sans-Serif" font-size="10.00">_window</text>
</g>
<!-- Node2 -->
<g id="node2" class="node"><title>Node2</title>
<g id="a_node2"><a xlink:href="engine_8cpp.html#a6430a76bf18e17d995aa340aaf8c30a9" target="_top" xlink:title="MainWndProc">
<polygon fill="none" stroke="black" points="131,-30 131,-49 209,-49 209,-30 131,-30"/>
<text text-anchor="middle" x="170" y="-37" font-family="Helvetica,sans-Serif" font-size="10.00">MainWndProc</text>
</a>
</g>
</g>
<!-- Node1&#45;&gt;Node2 -->
<g id="edge1" class="edge"><title>Node1&#45;&gt;Node2</title>
<path fill="none" stroke="midnightblue" d="M95.0884,-39.5C103.469,-39.5 112.223,-39.5 120.652,-39.5"/>
<polygon fill="midnightblue" stroke="midnightblue" points="120.727,-43.0001 130.727,-39.5 120.727,-36.0001 120.727,-43.0001"/>
</g>
<!-- Node3 -->
<g id="node3" class="node"><title>Node3</title>
<g id="a_node3"><a xlink:href="classengine.html#a1c22e1de5498965992bc25cfba715c99" target="_top" xlink:title="engine::get_windows\l_message_handler">
<polygon fill="none" stroke="black" points="274,-49.5 274,-79.5 381,-79.5 381,-49.5 274,-49.5"/>
<text text-anchor="start" x="282" y="-67.5" font-family="Helvetica,sans-Serif" font-size="10.00">engine::get_windows</text>
<text text-anchor="middle" x="327.5" y="-56.5" font-family="Helvetica,sans-Serif" font-size="10.00">_message_handler</text>
</a>
</g>
</g>
<!-- Node2&#45;&gt;Node3 -->
<g id="edge2" class="edge"><title>Node2&#45;&gt;Node3</title>
<path fill="none" stroke="midnightblue" d="M209.04,-45.6157C225.578,-48.2747 245.394,-51.4605 263.998,-54.4514"/>
<polygon fill="midnightblue" stroke="midnightblue" points="263.456,-57.9091 273.884,-56.0409 264.567,-50.9979 263.456,-57.9091"/>
</g>
<!-- Node5 -->
<g id="node5" class="node"><title>Node5</title>
<g id="a_node5"><a xlink:href="class_windows_message_handling_service.html#a9c7224471322c4e364c440b35321d253" target="_top" xlink:title="WindowsMessageHandlingService\l::handle_message">
<polygon fill="none" stroke="black" points="245,-0.5 245,-30.5 410,-30.5 410,-0.5 245,-0.5"/>
<text text-anchor="start" x="253" y="-18.5" font-family="Helvetica,sans-Serif" font-size="10.00">WindowsMessageHandlingService</text>
<text text-anchor="middle" x="327.5" y="-7.5" font-family="Helvetica,sans-Serif" font-size="10.00">::handle_message</text>
</a>
</g>
</g>
<!-- Node2&#45;&gt;Node5 -->
<g id="edge4" class="edge"><title>Node2&#45;&gt;Node5</title>
<path fill="none" stroke="midnightblue" d="M209.04,-33.6289C217.095,-32.3856 225.928,-31.0223 235.02,-29.6191"/>
<polygon fill="midnightblue" stroke="midnightblue" points="235.614,-33.069 244.963,-28.0845 234.546,-26.1509 235.614,-33.069"/>
</g>
<!-- Node4 -->
<g id="node4" class="node"><title>Node4</title>
<g id="a_node4"><a xlink:href="classengine.html#a240cde5717390f5f154bc9e4af2c36eb" target="_top" xlink:title="engine::get_engine">
<polygon fill="none" stroke="black" points="446,-55 446,-74 544,-74 544,-55 446,-55"/>
<text text-anchor="middle" x="495" y="-62" font-family="Helvetica,sans-Serif" font-size="10.00">engine::get_engine</text>
</a>
</g>
</g>
<!-- Node3&#45;&gt;Node4 -->
<g id="edge3" class="edge"><title>Node3&#45;&gt;Node4</title>
<path fill="none" stroke="midnightblue" d="M381.32,-64.5C398.639,-64.5 417.978,-64.5 435.679,-64.5"/>
<polygon fill="midnightblue" stroke="midnightblue" points="435.885,-68.0001 445.885,-64.5 435.885,-61.0001 435.885,-68.0001"/>
</g>
</g>
</svg>
