<?xml version="1.0" encoding="UTF-8" standalone="no"?>
<!DOCTYPE svg PUBLIC "-//W3C//DTD SVG 1.1//EN"
 "http://www.w3.org/Graphics/SVG/1.1/DTD/svg11.dtd">
<!-- Generated by graphviz version 2.38.0 (20140413.2041)
 -->
<!-- Title: DirectXRenderer::initialize_direct3d Pages: 1 -->
<!--zoomable 459 -->
<svg id="main" version="1.1" xmlns="http://www.w3.org/2000/svg" xmlns:xlink="http://www.w3.org/1999/xlink" xml:space="preserve" onload="init(evt)">
<style type="text/css"><![CDATA[
.edge:hover path { stroke: red; }
.edge:hover polygon { stroke: red; fill: red; }
]]></style>
<script type="text/javascript"><![CDATA[
var edges = document.getElementsByTagName('g');
if (edges && edges.length) {
  for (var i=0;i<edges.length;i++) {
    if (edges[i].id.substr(0,4)=='edge') {
      edges[i].setAttribute('class','edge');
    }
  }
}
]]></script>
        <defs>
                <circle id="rim" cx="0" cy="0" r="7"/>
                <circle id="rim2" cx="0" cy="0" r="3.5"/>
                <g id="zoomPlus">
                        <use xlink:href="#rim" fill="#404040">
                                <set attributeName="fill" to="#808080" begin="zoomplus.mouseover" end="zoomplus.mouseout"/>
                        </use>
                        <path d="M-4,0h8M0,-4v8" fill="none" stroke="white" stroke-width="1.5" pointer-events="none"/>
                </g>
                <g id="zoomMin">
                        <use xlink:href="#rim" fill="#404040">
                                <set attributeName="fill" to="#808080" begin="zoomminus.mouseover" end="zoomminus.mouseout"/>
                        </use>
                        <path d="M-4,0h8" fill="none" stroke="white" stroke-width="1.5" pointer-events="none"/>
                </g>
                <g id="dirArrow">
                        <path fill="none" stroke="white" stroke-width="1.5" d="M0,-3.0v7 M-2.5,-0.5L0,-3.0L2.5,-0.5"/>
                </g>
               <g id="resetDef">
                       <use xlink:href="#rim2" fill="#404040">
                               <set attributeName="fill" to="#808080" begin="reset.mouseover" end="reset.mouseout"/>
                       </use>
               </g>
        </defs>

<script type="text/javascript">
var viewWidth = 635;
var viewHeight = 459;
var sectionId = 'dynsection-22';
</script>
<script xlink:href="svgpan.js"/>
<svg id="graph" class="graph">
<g id="viewport">
<title>DirectXRenderer::initialize_direct3d</title>
<!-- Node1 -->
<g id="node1" class="node"><title>Node1</title>
<polygon fill="#bfbfbf" stroke="black" points="0,-202.5 0,-232.5 128,-232.5 128,-202.5 0,-202.5"/>
<text text-anchor="start" x="8" y="-220.5" font-family="Helvetica,sans-Serif" font-size="10.00">DirectXRenderer::initialize</text>
<text text-anchor="middle" x="64" y="-209.5" font-family="Helvetica,sans-Serif" font-size="10.00">_direct3d</text>
</g>
<!-- Node2 -->
<g id="node2" class="node"><title>Node2</title>
<g id="a_node2"><a xlink:href="class_direct_x_renderer.html#a8bf63477a5f9f210b627c2d07d54caa5" target="_top" xlink:title="DirectXRenderer::log\l_adapters">
<polygon fill="none" stroke="black" points="171,-420.5 171,-450.5 276,-450.5 276,-420.5 171,-420.5"/>
<text text-anchor="start" x="179" y="-438.5" font-family="Helvetica,sans-Serif" font-size="10.00">DirectXRenderer::log</text>
<text text-anchor="middle" x="223.5" y="-427.5" font-family="Helvetica,sans-Serif" font-size="10.00">_adapters</text>
</a>
</g>
</g>
<!-- Node1&#45;&gt;Node2 -->
<g id="edge1" class="edge"><title>Node1&#45;&gt;Node2</title>
<path fill="none" stroke="midnightblue" d="M68.7834,-232.582C78.5104,-268.436 107.669,-359.637 164,-411.5 165.277,-412.676 166.619,-413.798 168.014,-414.868"/>
<polygon fill="midnightblue" stroke="midnightblue" points="166.211,-417.872 176.487,-420.451 170.063,-412.026 166.211,-417.872"/>
</g>
<!-- Node5 -->
<g id="node5" class="node"><title>Node5</title>
<g id="a_node5"><a xlink:href="class_direct_x_renderer.html#aef2318aa9f9757fde25c94c9857143e8" target="_top" xlink:title="DirectXRenderer::create\l_dx_command_objects">
<polygon fill="none" stroke="black" points="164,-371.5 164,-401.5 283,-401.5 283,-371.5 164,-371.5"/>
<text text-anchor="start" x="172" y="-389.5" font-family="Helvetica,sans-Serif" font-size="10.00">DirectXRenderer::create</text>
<text text-anchor="middle" x="223.5" y="-378.5" font-family="Helvetica,sans-Serif" font-size="10.00">_dx_command_objects</text>
</a>
</g>
</g>
<!-- Node1&#45;&gt;Node5 -->
<g id="edge4" class="edge"><title>Node1&#45;&gt;Node5</title>
<path fill="none" stroke="midnightblue" d="M71.7284,-232.797C85.2259,-261.867 118.275,-325.485 164,-362.5 165.568,-363.769 167.212,-364.98 168.913,-366.134"/>
<polygon fill="midnightblue" stroke="midnightblue" points="167.429,-369.323 177.81,-371.44 171.014,-363.312 167.429,-369.323"/>
</g>
<!-- Node6 -->
<g id="node6" class="node"><title>Node6</title>
<g id="a_node6"><a xlink:href="class_direct_x_renderer.html#ab76ef034cbf3cfafc7a8aae1b50f6e6b" target="_top" xlink:title="DirectXRenderer::create\l_swap_chain">
<polygon fill="none" stroke="black" points="164,-322.5 164,-352.5 283,-352.5 283,-322.5 164,-322.5"/>
<text text-anchor="start" x="172" y="-340.5" font-family="Helvetica,sans-Serif" font-size="10.00">DirectXRenderer::create</text>
<text text-anchor="middle" x="223.5" y="-329.5" font-family="Helvetica,sans-Serif" font-size="10.00">_swap_chain</text>
</a>
</g>
</g>
<!-- Node1&#45;&gt;Node6 -->
<g id="edge5" class="edge"><title>Node1&#45;&gt;Node6</title>
<path fill="none" stroke="midnightblue" d="M77.3358,-232.653C94.7921,-253.282 128.546,-290.289 164,-313.5 166.289,-314.999 168.687,-316.433 171.15,-317.801"/>
<polygon fill="midnightblue" stroke="midnightblue" points="169.785,-321.034 180.283,-322.464 172.968,-314.799 169.785,-321.034"/>
</g>
<!-- Node7 -->
<g id="node7" class="node"><title>Node7</title>
<g id="a_node7"><a xlink:href="class_direct_x_renderer.html#a0f9a3dabe2f03739ba06155572eef957" target="_top" xlink:title="DirectXRenderer::create\l_descriptor_heaps">
<polygon fill="none" stroke="black" points="164,-273.5 164,-303.5 283,-303.5 283,-273.5 164,-273.5"/>
<text text-anchor="start" x="172" y="-291.5" font-family="Helvetica,sans-Serif" font-size="10.00">DirectXRenderer::create</text>
<text text-anchor="middle" x="223.5" y="-280.5" font-family="Helvetica,sans-Serif" font-size="10.00">_descriptor_heaps</text>
</a>
</g>
</g>
<!-- Node1&#45;&gt;Node7 -->
<g id="edge6" class="edge"><title>Node1&#45;&gt;Node7</title>
<path fill="none" stroke="midnightblue" d="M96.9863,-232.669C116.32,-241.761 141.497,-253.467 164,-263.5 168.372,-265.449 172.941,-267.455 177.514,-269.443"/>
<polygon fill="midnightblue" stroke="midnightblue" points="176.278,-272.722 186.847,-273.473 179.053,-266.295 176.278,-272.722"/>
</g>
<!-- Node9 -->
<g id="node9" class="node"><title>Node9</title>
<g id="a_node9"><a xlink:href="class_direct_x_renderer.html#a09278f83b0f7f134871bb21c72e07587" target="_top" xlink:title="DirectXRenderer::create\l_constant_buffers">
<polygon fill="none" stroke="black" points="164,-224.5 164,-254.5 283,-254.5 283,-224.5 164,-224.5"/>
<text text-anchor="start" x="172" y="-242.5" font-family="Helvetica,sans-Serif" font-size="10.00">DirectXRenderer::create</text>
<text text-anchor="middle" x="223.5" y="-231.5" font-family="Helvetica,sans-Serif" font-size="10.00">_constant_buffers</text>
</a>
</g>
</g>
<!-- Node1&#45;&gt;Node9 -->
<g id="edge8" class="edge"><title>Node1&#45;&gt;Node9</title>
<path fill="none" stroke="midnightblue" d="M128.154,-226.321C136.642,-227.507 145.383,-228.728 153.959,-229.926"/>
<polygon fill="midnightblue" stroke="midnightblue" points="153.538,-233.401 163.926,-231.318 154.507,-226.468 153.538,-233.401"/>
</g>
<!-- Node14 -->
<g id="node14" class="node"><title>Node14</title>
<g id="a_node14"><a xlink:href="class_direct_x_renderer.html#acaec9787ee504297135360aaf1bf45fa" target="_top" xlink:title="DirectXRenderer::create\l_root_signature">
<polygon fill="none" stroke="black" points="164,-98.5 164,-128.5 283,-128.5 283,-98.5 164,-98.5"/>
<text text-anchor="start" x="172" y="-116.5" font-family="Helvetica,sans-Serif" font-size="10.00">DirectXRenderer::create</text>
<text text-anchor="middle" x="223.5" y="-105.5" font-family="Helvetica,sans-Serif" font-size="10.00">_root_signature</text>
</a>
</g>
</g>
<!-- Node1&#45;&gt;Node14 -->
<g id="edge13" class="edge"><title>Node1&#45;&gt;Node14</title>
<path fill="none" stroke="midnightblue" d="M83.3123,-202.339C102.697,-186.648 134.508,-161.903 164,-143.5 169.529,-140.05 175.501,-136.647 181.444,-133.441"/>
<polygon fill="midnightblue" stroke="midnightblue" points="183.463,-136.334 190.691,-128.588 180.21,-130.136 183.463,-136.334"/>
</g>
<!-- Node15 -->
<g id="node15" class="node"><title>Node15</title>
<g id="a_node15"><a xlink:href="class_direct_x_renderer.html#a83af308560d21041e34b96f35ba0b9d9" target="_top" xlink:title="DirectXRenderer::create\l_shaders_and_input_layout">
<polygon fill="none" stroke="black" points="319.5,-129.5 319.5,-159.5 454.5,-159.5 454.5,-129.5 319.5,-129.5"/>
<text text-anchor="start" x="327.5" y="-147.5" font-family="Helvetica,sans-Serif" font-size="10.00">DirectXRenderer::create</text>
<text text-anchor="middle" x="387" y="-136.5" font-family="Helvetica,sans-Serif" font-size="10.00">_shaders_and_input_layout</text>
</a>
</g>
</g>
<!-- Node1&#45;&gt;Node15 -->
<g id="edge14" class="edge"><title>Node1&#45;&gt;Node15</title>
<path fill="none" stroke="midnightblue" d="M128.036,-203.165C180.226,-191.296 254.544,-174.395 310.016,-161.78"/>
<polygon fill="midnightblue" stroke="midnightblue" points="310.82,-165.186 319.795,-159.556 309.268,-158.361 310.82,-165.186"/>
</g>
<!-- Node16 -->
<g id="node16" class="node"><title>Node16</title>
<g id="a_node16"><a xlink:href="class_direct_x_renderer.html#ab236cfa51aff8ae36741f94ae4abf167" target="_top" xlink:title="DirectXRenderer::create\l_box_geometry">
<polygon fill="none" stroke="black" points="327.5,-178.5 327.5,-208.5 446.5,-208.5 446.5,-178.5 327.5,-178.5"/>
<text text-anchor="start" x="335.5" y="-196.5" font-family="Helvetica,sans-Serif" font-size="10.00">DirectXRenderer::create</text>
<text text-anchor="middle" x="387" y="-185.5" font-family="Helvetica,sans-Serif" font-size="10.00">_box_geometry</text>
</a>
</g>
</g>
<!-- Node1&#45;&gt;Node16 -->
<g id="edge16" class="edge"><title>Node1&#45;&gt;Node16</title>
<path fill="none" stroke="midnightblue" d="M128.036,-212.787C182.524,-208.713 261.132,-202.836 317.231,-198.642"/>
<polygon fill="midnightblue" stroke="midnightblue" points="317.722,-202.115 327.434,-197.879 317.2,-195.134 317.722,-202.115"/>
</g>
<!-- Node17 -->
<g id="node17" class="node"><title>Node17</title>
<g id="a_node17"><a xlink:href="class_direct_x_renderer.html#a7626b1775267e151905115055e0bbc7f" target="_top" xlink:title="DirectXRenderer::create\l_pipeline_state_object">
<polygon fill="none" stroke="black" points="164,-49.5 164,-79.5 283,-79.5 283,-49.5 164,-49.5"/>
<text text-anchor="start" x="172" y="-67.5" font-family="Helvetica,sans-Serif" font-size="10.00">DirectXRenderer::create</text>
<text text-anchor="middle" x="223.5" y="-56.5" font-family="Helvetica,sans-Serif" font-size="10.00">_pipeline_state_object</text>
</a>
</g>
</g>
<!-- Node1&#45;&gt;Node17 -->
<g id="edge18" class="edge"><title>Node1&#45;&gt;Node17</title>
<path fill="none" stroke="midnightblue" d="M73.084,-202.276C87.8524,-175.776 121.613,-120.908 164,-88.5 165.771,-87.1456 167.63,-85.8551 169.551,-84.6267"/>
<polygon fill="midnightblue" stroke="midnightblue" points="171.345,-87.6328 178.293,-79.6348 167.874,-81.5539 171.345,-87.6328"/>
</g>
<!-- Node19 -->
<g id="node19" class="node"><title>Node19</title>
<g id="a_node19"><a xlink:href="class_direct_x_renderer.html#ab1ac2acccb63781ec8ccce58fe351c63" target="_top" xlink:title="DirectXRenderer::flush\l_command_queue">
<polygon fill="none" stroke="black" points="167,-0.5 167,-30.5 280,-30.5 280,-0.5 167,-0.5"/>
<text text-anchor="start" x="175" y="-18.5" font-family="Helvetica,sans-Serif" font-size="10.00">DirectXRenderer::flush</text>
<text text-anchor="middle" x="223.5" y="-7.5" font-family="Helvetica,sans-Serif" font-size="10.00">_command_queue</text>
</a>
</g>
</g>
<!-- Node1&#45;&gt;Node19 -->
<g id="edge20" class="edge"><title>Node1&#45;&gt;Node19</title>
<path fill="none" stroke="midnightblue" d="M69.5488,-202.416C80.4421,-168.69 111.124,-86.4652 164,-39.5 165.326,-38.3222 166.718,-37.1974 168.161,-36.1238"/>
<polygon fill="midnightblue" stroke="midnightblue" points="170.375,-38.8623 176.905,-30.5189 166.597,-32.9691 170.375,-38.8623"/>
</g>
<!-- Node3 -->
<g id="node3" class="node"><title>Node3</title>
<g id="a_node3"><a xlink:href="class_direct_x_renderer.html#a13dbd659f5d0a72be90b0a4be1121ef8" target="_top" xlink:title="DirectXRenderer::log\l_adapter_outputs">
<polygon fill="none" stroke="black" points="334.5,-420.5 334.5,-450.5 439.5,-450.5 439.5,-420.5 334.5,-420.5"/>
<text text-anchor="start" x="342.5" y="-438.5" font-family="Helvetica,sans-Serif" font-size="10.00">DirectXRenderer::log</text>
<text text-anchor="middle" x="387" y="-427.5" font-family="Helvetica,sans-Serif" font-size="10.00">_adapter_outputs</text>
</a>
</g>
</g>
<!-- Node2&#45;&gt;Node3 -->
<g id="edge2" class="edge"><title>Node2&#45;&gt;Node3</title>
<path fill="none" stroke="midnightblue" d="M276.044,-435.5C291.34,-435.5 308.253,-435.5 324.133,-435.5"/>
<polygon fill="midnightblue" stroke="midnightblue" points="324.392,-439 334.392,-435.5 324.392,-432 324.392,-439"/>
</g>
<!-- Node4 -->
<g id="node4" class="node"><title>Node4</title>
<g id="a_node4"><a xlink:href="class_direct_x_renderer.html#ac2a94e66b56fa26905f19f6952f9dc28" target="_top" xlink:title="DirectXRenderer::log\l_output_display_modes">
<polygon fill="none" stroke="black" points="499.5,-420.5 499.5,-450.5 618.5,-450.5 618.5,-420.5 499.5,-420.5"/>
<text text-anchor="start" x="507.5" y="-438.5" font-family="Helvetica,sans-Serif" font-size="10.00">DirectXRenderer::log</text>
<text text-anchor="middle" x="559" y="-427.5" font-family="Helvetica,sans-Serif" font-size="10.00">_output_display_modes</text>
</a>
</g>
</g>
<!-- Node3&#45;&gt;Node4 -->
<g id="edge3" class="edge"><title>Node3&#45;&gt;Node4</title>
<path fill="none" stroke="midnightblue" d="M439.929,-435.5C455.455,-435.5 472.724,-435.5 489.157,-435.5"/>
<polygon fill="midnightblue" stroke="midnightblue" points="489.258,-439 499.258,-435.5 489.258,-432 489.258,-439"/>
</g>
<!-- Node8 -->
<g id="node8" class="node"><title>Node8</title>
<g id="a_node8"><a xlink:href="class_direct_x_renderer.html#a6d696829e35fe480381db6b759fe8ca2" target="_top" xlink:title="DirectXRenderer::get\l_swap_chain_buffer_count">
<polygon fill="none" stroke="black" points="321.5,-276.5 321.5,-306.5 452.5,-306.5 452.5,-276.5 321.5,-276.5"/>
<text text-anchor="start" x="329.5" y="-294.5" font-family="Helvetica,sans-Serif" font-size="10.00">DirectXRenderer::get</text>
<text text-anchor="middle" x="387" y="-283.5" font-family="Helvetica,sans-Serif" font-size="10.00">_swap_chain_buffer_count</text>
</a>
</g>
</g>
<!-- Node7&#45;&gt;Node8 -->
<g id="edge7" class="edge"><title>Node7&#45;&gt;Node8</title>
<path fill="none" stroke="midnightblue" d="M283.262,-289.592C292.336,-289.76 301.811,-289.936 311.179,-290.11"/>
<polygon fill="midnightblue" stroke="midnightblue" points="311.214,-293.611 321.278,-290.298 311.344,-286.613 311.214,-293.611"/>
</g>
<!-- Node10 -->
<g id="node10" class="node"><title>Node10</title>
<g id="a_node10"><a xlink:href="classd3d_util.html#a0883e0848cae813b2bc71570f3303e92" target="_top" xlink:title="d3dUtil::CalcConstantBuffer\lByteSize">
<polygon fill="none" stroke="black" points="319,-227.5 319,-257.5 455,-257.5 455,-227.5 319,-227.5"/>
<text text-anchor="start" x="327" y="-245.5" font-family="Helvetica,sans-Serif" font-size="10.00">d3dUtil::CalcConstantBuffer</text>
<text text-anchor="middle" x="387" y="-234.5" font-family="Helvetica,sans-Serif" font-size="10.00">ByteSize</text>
</a>
</g>
</g>
<!-- Node9&#45;&gt;Node10 -->
<g id="edge9" class="edge"><title>Node9&#45;&gt;Node10</title>
<path fill="none" stroke="midnightblue" d="M283.262,-240.592C291.559,-240.746 300.192,-240.906 308.772,-241.065"/>
<polygon fill="midnightblue" stroke="midnightblue" points="308.732,-244.565 318.796,-241.252 308.862,-237.566 308.732,-244.565"/>
</g>
<!-- Node11 -->
<g id="node11" class="node"><title>Node11</title>
<g id="a_node11"><a xlink:href="classd3d_util.html#a374c360bb2668c34223e74fbf0f1402b" target="_top" xlink:title="d3dUtil::LoadBinary">
<polygon fill="none" stroke="black" points="508.5,-233 508.5,-252 609.5,-252 609.5,-233 508.5,-233"/>
<text text-anchor="middle" x="559" y="-240" font-family="Helvetica,sans-Serif" font-size="10.00">d3dUtil::LoadBinary</text>
</a>
</g>
</g>
<!-- Node10&#45;&gt;Node11 -->
<g id="edge10" class="edge"><title>Node10&#45;&gt;Node11</title>
<path fill="none" stroke="midnightblue" d="M455.189,-242.5C469.314,-242.5 484.127,-242.5 497.97,-242.5"/>
<polygon fill="midnightblue" stroke="midnightblue" points="498.34,-246 508.34,-242.5 498.34,-239 498.34,-246"/>
</g>
<!-- Node12 -->
<g id="node12" class="node"><title>Node12</title>
<g id="a_node12"><a xlink:href="classd3d_util.html#ae4a68e5b73f032619ee5c2db64f57899" target="_top" xlink:title="d3dUtil::CreateDefaultBuffer">
<polygon fill="none" stroke="black" points="491,-189 491,-208 627,-208 627,-189 491,-189"/>
<text text-anchor="middle" x="559" y="-196" font-family="Helvetica,sans-Serif" font-size="10.00">d3dUtil::CreateDefaultBuffer</text>
</a>
</g>
</g>
<!-- Node10&#45;&gt;Node12 -->
<g id="edge11" class="edge"><title>Node10&#45;&gt;Node12</title>
<path fill="none" stroke="midnightblue" d="M446.029,-227.481C467.341,-221.965 491.176,-215.796 511.36,-210.572"/>
<polygon fill="midnightblue" stroke="midnightblue" points="512.443,-213.907 521.247,-208.012 510.689,-207.13 512.443,-213.907"/>
</g>
<!-- Node13 -->
<g id="node13" class="node"><title>Node13</title>
<g id="a_node13"><a xlink:href="classd3d_util.html#acac6acd838913d63466e4f0159bfe8b0" target="_top" xlink:title="d3dUtil::CompileShader">
<polygon fill="none" stroke="black" points="499.5,-146 499.5,-165 618.5,-165 618.5,-146 499.5,-146"/>
<text text-anchor="middle" x="559" y="-153" font-family="Helvetica,sans-Serif" font-size="10.00">d3dUtil::CompileShader</text>
</a>
</g>
</g>
<!-- Node10&#45;&gt;Node13 -->
<g id="edge12" class="edge"><title>Node10&#45;&gt;Node13</title>
<path fill="none" stroke="midnightblue" d="M436.521,-227.437C442.966,-224.573 449.306,-221.269 455,-217.5 474.399,-204.658 471.517,-192.214 491,-179.5 497.548,-175.227 504.953,-171.6 512.39,-168.561"/>
<polygon fill="midnightblue" stroke="midnightblue" points="513.648,-171.827 521.767,-165.021 511.176,-165.278 513.648,-171.827"/>
</g>
<!-- Node15&#45;&gt;Node13 -->
<g id="edge15" class="edge"><title>Node15&#45;&gt;Node13</title>
<path fill="none" stroke="midnightblue" d="M454.701,-148.816C466.024,-149.549 477.803,-150.311 489.18,-151.047"/>
<polygon fill="midnightblue" stroke="midnightblue" points="489.286,-154.561 499.491,-151.714 489.738,-147.576 489.286,-154.561"/>
</g>
<!-- Node16&#45;&gt;Node12 -->
<g id="edge17" class="edge"><title>Node16&#45;&gt;Node12</title>
<path fill="none" stroke="midnightblue" d="M446.504,-195.221C457.573,-195.546 469.307,-195.891 480.847,-196.231"/>
<polygon fill="midnightblue" stroke="midnightblue" points="480.818,-199.731 490.916,-196.527 481.024,-192.734 480.818,-199.731"/>
</g>
<!-- Node18 -->
<g id="node18" class="node"><title>Node18</title>
<g id="a_node18"><a xlink:href="class_direct_x_renderer.html#a99c49dd436c922c8f21b1839b0fb6bd1" target="_top" xlink:title="DirectXRenderer::get\l_4x_msaa_state">
<polygon fill="none" stroke="black" points="334,-49.5 334,-79.5 440,-79.5 440,-49.5 334,-49.5"/>
<text text-anchor="start" x="342" y="-67.5" font-family="Helvetica,sans-Serif" font-size="10.00">DirectXRenderer::get</text>
<text text-anchor="middle" x="387" y="-56.5" font-family="Helvetica,sans-Serif" font-size="10.00">_4x_msaa_state</text>
</a>
</g>
</g>
<!-- Node17&#45;&gt;Node18 -->
<g id="edge19" class="edge"><title>Node17&#45;&gt;Node18</title>
<path fill="none" stroke="midnightblue" d="M283.262,-64.5C296.486,-64.5 310.562,-64.5 323.917,-64.5"/>
<polygon fill="midnightblue" stroke="midnightblue" points="323.963,-68.0001 333.963,-64.5 323.963,-61.0001 323.963,-68.0001"/>
</g>
</g>
</svg>
        <g id="navigator" transform="translate(0 0)" fill="#404254">
                <rect fill="#f2f5e9" fill-opacity="0.5" stroke="#606060" stroke-width=".5" x="0" y="0" width="60" height="60"/>
                <use id="zoomplus" xlink:href="#zoomPlus" x="17" y="9" onmousedown="handleZoom(evt,'in')"/>
                <use id="zoomminus" xlink:href="#zoomMin" x="42" y="9" onmousedown="handleZoom(evt,'out')"/>
                <use id="reset" xlink:href="#resetDef" x="30" y="36" onmousedown="handleReset()"/>
                <g id="arrowUp" xlink:href="#dirArrow" transform="translate(30 24)" onmousedown="handlePan(0,-1)">
                  <use xlink:href="#rim" fill="#404040">
                        <set attributeName="fill" to="#808080" begin="arrowUp.mouseover" end="arrowUp.mouseout"/>
                  </use>
                  <path fill="none" stroke="white" stroke-width="1.5" d="M0,-3.0v7 M-2.5,-0.5L0,-3.0L2.5,-0.5"/>
                </g>
                <g id="arrowRight" xlink:href="#dirArrow" transform="rotate(90) translate(36 -43)" onmousedown="handlePan(1,0)">
                  <use xlink:href="#rim" fill="#404040">
                        <set attributeName="fill" to="#808080" begin="arrowRight.mouseover" end="arrowRight.mouseout"/>
                  </use>
                  <path fill="none" stroke="white" stroke-width="1.5" d="M0,-3.0v7 M-2.5,-0.5L0,-3.0L2.5,-0.5"/>
                </g>
                <g id="arrowDown" xlink:href="#dirArrow" transform="rotate(180) translate(-30 -48)" onmousedown="handlePan(0,1)">
                  <use xlink:href="#rim" fill="#404040">
                        <set attributeName="fill" to="#808080" begin="arrowDown.mouseover" end="arrowDown.mouseout"/>
                  </use>
                  <path fill="none" stroke="white" stroke-width="1.5" d="M0,-3.0v7 M-2.5,-0.5L0,-3.0L2.5,-0.5"/>
                </g>
                <g id="arrowLeft" xlink:href="#dirArrow" transform="rotate(270) translate(-36 17)" onmousedown="handlePan(-1,0)">
                  <use xlink:href="#rim" fill="#404040">
                        <set attributeName="fill" to="#808080" begin="arrowLeft.mouseover" end="arrowLeft.mouseout"/>
                  </use>
                  <path fill="none" stroke="white" stroke-width="1.5" d="M0,-3.0v7 M-2.5,-0.5L0,-3.0L2.5,-0.5"/>
                </g>
        </g>
        <svg viewBox="0 0 15 15" width="100%" height="30px" preserveAspectRatio="xMaxYMin meet">
         <g id="arrow_out" transform="scale(0.3 0.3)">
          <a xlink:href="class_direct_x_renderer_a0d6aef4c838ac765f726391ee65c346c_cgraph_org.svg" target="_base">
           <rect id="button" ry="5" rx="5" y="6" x="6" height="38" width="38"
                fill="#f2f5e9" fill-opacity="0.5" stroke="#606060" stroke-width="1.0"/>
           <path id="arrow"
             d="M 11.500037,31.436501 C 11.940474,20.09759 22.043105,11.32322 32.158766,21.979434 L 37.068811,17.246167 C 37.068811,17.246167 37.088388,32 37.088388,32 L 22.160133,31.978069 C 22.160133,31.978069 26.997745,27.140456 26.997745,27.140456 C 18.528582,18.264221 13.291696,25.230495 11.500037,31.436501 z"
             style="fill:#404040;"/>
          </a>
         </g>
        </svg>
</svg>
