<?xml version="1.0" encoding="UTF-8" standalone="no"?>
<!DOCTYPE svg PUBLIC "-//W3C//DTD SVG 1.1//EN"
 "http://www.w3.org/Graphics/SVG/1.1/DTD/svg11.dtd">
<!-- Generated by graphviz version 2.38.0 (20140413.2041)
 -->
<!-- Title: GameTimer::tick Pages: 1 -->
<svg width="407pt" height="66pt"
 viewBox="0.00 0.00 407.00 66.00" xmlns="http://www.w3.org/2000/svg" xmlns:xlink="http://www.w3.org/1999/xlink">
<g id="graph0" class="graph" transform="scale(1 1) rotate(0) translate(4 62)">
<title>GameTimer::tick</title>
<!-- Node1 -->
<g id="node1" class="node"><title>Node1</title>
<polygon fill="#bfbfbf" stroke="black" points="0,-19.5 0,-38.5 89,-38.5 89,-19.5 0,-19.5"/>
<text text-anchor="middle" x="44.5" y="-26.5" font-family="Helvetica,sans-Serif" font-size="10.00">GameTimer::tick</text>
</g>
<!-- Node2 -->
<g id="node2" class="node"><title>Node2</title>
<g id="a_node2"><a xlink:href="classengine.html#a240cde5717390f5f154bc9e4af2c36eb" target="_top" xlink:title="engine::get_engine">
<polygon fill="none" stroke="black" points="289,-38.5 289,-57.5 387,-57.5 387,-38.5 289,-38.5"/>
<text text-anchor="middle" x="338" y="-45.5" font-family="Helvetica,sans-Serif" font-size="10.00">engine::get_engine</text>
</a>
</g>
</g>
<!-- Node1&#45;&gt;Node2 -->
<g id="edge1" class="edge"><title>Node1&#45;&gt;Node2</title>
<path fill="none" stroke="midnightblue" d="M89.1405,-31.8445C139.529,-35.1288 222.638,-40.5458 278.571,-44.1916"/>
<polygon fill="midnightblue" stroke="midnightblue" points="278.478,-47.6929 288.685,-44.8508 278.933,-40.7077 278.478,-47.6929"/>
</g>
<!-- Node3 -->
<g id="node3" class="node"><title>Node3</title>
<g id="a_node3"><a xlink:href="classengine.html#a8afc7b29034df66b7dd991dff06c0118" target="_top" xlink:title="engine::get_is_resizing">
<polygon fill="none" stroke="black" points="125,-0.5 125,-19.5 241,-19.5 241,-0.5 125,-0.5"/>
<text text-anchor="middle" x="183" y="-7.5" font-family="Helvetica,sans-Serif" font-size="10.00">engine::get_is_resizing</text>
</a>
</g>
</g>
<!-- Node1&#45;&gt;Node3 -->
<g id="edge2" class="edge"><title>Node1&#45;&gt;Node3</title>
<path fill="none" stroke="midnightblue" d="M89.0648,-22.936C97.2523,-21.7964 105.988,-20.5805 114.702,-19.3675"/>
<polygon fill="midnightblue" stroke="midnightblue" points="115.467,-22.7949 124.889,-17.9496 114.502,-15.8617 115.467,-22.7949"/>
</g>
<!-- Node3&#45;&gt;Node2 -->
<g id="edge3" class="edge"><title>Node3&#45;&gt;Node2</title>
<path fill="none" stroke="midnightblue" d="M222.608,-19.589C242.707,-24.5809 267.475,-30.7324 288.819,-36.0334"/>
<polygon fill="midnightblue" stroke="midnightblue" points="288.12,-39.4662 298.669,-38.4799 289.808,-32.6726 288.12,-39.4662"/>
</g>
<!-- Node4 -->
<g id="node4" class="node"><title>Node4</title>
<g id="a_node4"><a xlink:href="classengine.html#a2b29abf6edeaf9f4b95e121bbe1dae47" target="_top" xlink:title="engine::_get_is_resizing">
<polygon fill="none" stroke="black" points="277,-0.5 277,-19.5 399,-19.5 399,-0.5 277,-0.5"/>
<text text-anchor="middle" x="338" y="-7.5" font-family="Helvetica,sans-Serif" font-size="10.00">engine::_get_is_resizing</text>
</a>
</g>
</g>
<!-- Node3&#45;&gt;Node4 -->
<g id="edge4" class="edge"><title>Node3&#45;&gt;Node4</title>
<path fill="none" stroke="midnightblue" d="M241.407,-10C249.666,-10 258.242,-10 266.715,-10"/>
<polygon fill="midnightblue" stroke="midnightblue" points="266.972,-13.5001 276.972,-10 266.972,-6.5001 266.972,-13.5001"/>
</g>
</g>
</svg>
