<?xml version="1.0" encoding="UTF-8" standalone="no"?>
<!DOCTYPE svg PUBLIC "-//W3C//DTD SVG 1.1//EN"
 "http://www.w3.org/Graphics/SVG/1.1/DTD/svg11.dtd">
<!-- Generated by graphviz version 2.38.0 (20140413.2041)
 -->
<!-- Title: WM_CAPTURECHANGED_Handler Pages: 1 -->
<svg width="180pt" height="160pt"
 viewBox="0.00 0.00 180.00 160.00" xmlns="http://www.w3.org/2000/svg" xmlns:xlink="http://www.w3.org/1999/xlink">
<g id="graph0" class="graph" transform="scale(1 1) rotate(0) translate(4 156)">
<title>WM_CAPTURECHANGED_Handler</title>
<!-- Node1 -->
<g id="node1" class="node"><title>Node1</title>
<polygon fill="#bfbfbf" stroke="black" points="0,-0.5 0,-57.5 172,-57.5 172,-0.5 0,-0.5"/>
<text text-anchor="middle" x="86" y="-45.5" font-family="Helvetica,sans-Serif" font-size="10.00">WM_CAPTURECHANGED_Handler</text>
<polyline fill="none" stroke="black" points="0,-38.5 172,-38.5 "/>
<text text-anchor="middle" x="86" y="-26.5" font-family="Helvetica,sans-Serif" font-size="10.00"> </text>
<polyline fill="none" stroke="black" points="0,-19.5 172,-19.5 "/>
<text text-anchor="middle" x="86" y="-7.5" font-family="Helvetica,sans-Serif" font-size="10.00"> </text>
</g>
<!-- Node2 -->
<g id="node2" class="node"><title>Node2</title>
<g id="a_node2"><a xlink:href="class_windows_message_handler.html" target="_top" xlink:title="{WindowsMessageHandler\n||+ execute()\l}">
<polygon fill="none" stroke="black" points="21.5,-94.5 21.5,-151.5 150.5,-151.5 150.5,-94.5 21.5,-94.5"/>
<text text-anchor="middle" x="86" y="-139.5" font-family="Helvetica,sans-Serif" font-size="10.00">WindowsMessageHandler</text>
<polyline fill="none" stroke="black" points="21.5,-132.5 150.5,-132.5 "/>
<text text-anchor="middle" x="86" y="-120.5" font-family="Helvetica,sans-Serif" font-size="10.00"> </text>
<polyline fill="none" stroke="black" points="21.5,-113.5 150.5,-113.5 "/>
<text text-anchor="start" x="29.5" y="-101.5" font-family="Helvetica,sans-Serif" font-size="10.00">+ execute()</text>
</a>
</g>
</g>
<!-- Node2&#45;&gt;Node1 -->
<g id="edge1" class="edge"><title>Node2&#45;&gt;Node1</title>
<path fill="none" stroke="midnightblue" d="M79.3465,-84.2092C79.1349,-75.2929 79.2713,-65.9513 79.7558,-57.5836"/>
<polygon fill="none" stroke="midnightblue" points="75.857,-84.5451 79.7547,-94.397 82.8514,-84.2648 75.857,-84.5451"/>
</g>
<!-- Node2&#45;&gt;Node1 -->
<g id="edge2" class="edge"><title>Node2&#45;&gt;Node1</title>
<path fill="none" stroke="midnightblue" d="M92.6535,-84.2092C92.8651,-75.2929 92.7287,-65.9513 92.2442,-57.5836"/>
<polygon fill="none" stroke="midnightblue" points="89.1486,-84.2648 92.2453,-94.397 96.143,-84.5451 89.1486,-84.2648"/>
</g>
</g>
</svg>
