<?xml version="1.0" encoding="UTF-8" standalone="no"?>
<!DOCTYPE svg PUBLIC "-//W3C//DTD SVG 1.1//EN"
 "http://www.w3.org/Graphics/SVG/1.1/DTD/svg11.dtd">
<!-- Generated by graphviz version 2.38.0 (20140413.2041)
 -->
<!-- Title: engine::shutdown Pages: 1 -->
<svg width="526pt" height="85pt"
 viewBox="0.00 0.00 526.00 85.00" xmlns="http://www.w3.org/2000/svg" xmlns:xlink="http://www.w3.org/1999/xlink">
<g id="graph0" class="graph" transform="scale(1 1) rotate(0) translate(4 81)">
<title>engine::shutdown</title>
<!-- Node1 -->
<g id="node1" class="node"><title>Node1</title>
<polygon fill="#bfbfbf" stroke="black" points="0,-19.5 0,-38.5 92,-38.5 92,-19.5 0,-19.5"/>
<text text-anchor="middle" x="46" y="-26.5" font-family="Helvetica,sans-Serif" font-size="10.00">engine::shutdown</text>
</g>
<!-- Node2 -->
<g id="node2" class="node"><title>Node2</title>
<g id="a_node2"><a xlink:href="classengine.html#a1d9b806d03be0255a8ac3c119e181cc5" target="_top" xlink:title="engine::_run">
<polygon fill="none" stroke="black" points="128,-19.5 128,-38.5 198,-38.5 198,-19.5 128,-19.5"/>
<text text-anchor="middle" x="163" y="-26.5" font-family="Helvetica,sans-Serif" font-size="10.00">engine::_run</text>
</a>
</g>
</g>
<!-- Node1&#45;&gt;Node2 -->
<g id="edge1" class="edge"><title>Node1&#45;&gt;Node2</title>
<path fill="none" stroke="midnightblue" d="M102.229,-29C110.907,-29 119.655,-29 127.679,-29"/>
<polygon fill="midnightblue" stroke="midnightblue" points="102.121,-25.5001 92.121,-29 102.121,-32.5001 102.121,-25.5001"/>
</g>
<!-- Node3 -->
<g id="node3" class="node"><title>Node3</title>
<g id="a_node3"><a xlink:href="classengine.html#aecb22d51cc8f83cacbf3696a18d66c30" target="_top" xlink:title="engine::run">
<polygon fill="none" stroke="black" points="238,-57.5 238,-76.5 303,-76.5 303,-57.5 238,-57.5"/>
<text text-anchor="middle" x="270.5" y="-64.5" font-family="Helvetica,sans-Serif" font-size="10.00">engine::run</text>
</a>
</g>
</g>
<!-- Node2&#45;&gt;Node3 -->
<g id="edge2" class="edge"><title>Node2&#45;&gt;Node3</title>
<path fill="none" stroke="midnightblue" d="M200.42,-42.118C214.373,-47.1439 230.018,-52.7791 242.886,-57.4141"/>
<polygon fill="midnightblue" stroke="midnightblue" points="201.217,-38.6849 190.622,-38.589 198.844,-45.2708 201.217,-38.6849"/>
</g>
<!-- Node4 -->
<g id="node4" class="node"><title>Node4</title>
<g id="a_node4"><a xlink:href="classengine.html#ada832d0a14502f1b99fdbd5c72cab01b" target="_top" xlink:title="engine::Draw">
<polygon fill="none" stroke="black" points="234,-19.5 234,-38.5 307,-38.5 307,-19.5 234,-19.5"/>
<text text-anchor="middle" x="270.5" y="-26.5" font-family="Helvetica,sans-Serif" font-size="10.00">engine::Draw</text>
</a>
</g>
</g>
<!-- Node2&#45;&gt;Node4 -->
<g id="edge3" class="edge"><title>Node2&#45;&gt;Node4</title>
<path fill="none" stroke="midnightblue" d="M208.437,-29C216.958,-29 225.775,-29 233.97,-29"/>
<polygon fill="midnightblue" stroke="midnightblue" points="208.253,-25.5001 198.253,-29 208.253,-32.5001 208.253,-25.5001"/>
</g>
<!-- Node5 -->
<g id="node5" class="node"><title>Node5</title>
<g id="a_node5"><a xlink:href="classengine.html#a90418b124cd07d7d2f057e7d401ed641" target="_top" xlink:title="engine::_tick">
<polygon fill="none" stroke="black" points="343,-38.5 343,-57.5 415,-57.5 415,-38.5 343,-38.5"/>
<text text-anchor="middle" x="379" y="-45.5" font-family="Helvetica,sans-Serif" font-size="10.00">engine::_tick</text>
</a>
</g>
</g>
<!-- Node4&#45;&gt;Node5 -->
<g id="edge4" class="edge"><title>Node4&#45;&gt;Node5</title>
<path fill="none" stroke="midnightblue" d="M317.293,-30.4789C330.652,-32.6489 344.65,-35.5093 355.833,-38.4442"/>
<polygon fill="midnightblue" stroke="midnightblue" points="317.67,-26.9961 307.259,-28.9642 316.625,-33.9177 317.67,-26.9961"/>
</g>
<!-- Node5&#45;&gt;Node4 -->
<g id="edge8" class="edge"><title>Node5&#45;&gt;Node4</title>
<path fill="none" stroke="midnightblue" d="M332.785,-46.6147C319.213,-44.4273 304.928,-41.516 293.567,-38.5295"/>
<polygon fill="midnightblue" stroke="midnightblue" points="332.557,-50.1194 342.964,-48.1355 333.591,-43.1962 332.557,-50.1194"/>
</g>
<!-- Node6 -->
<g id="node6" class="node"><title>Node6</title>
<g id="a_node6"><a xlink:href="classengine.html#a4bca5e9257e46c09a63f71227fc25a12" target="_top" xlink:title="engine::tick">
<polygon fill="none" stroke="black" points="451,-0.5 451,-19.5 518,-19.5 518,-0.5 451,-0.5"/>
<text text-anchor="middle" x="484.5" y="-7.5" font-family="Helvetica,sans-Serif" font-size="10.00">engine::tick</text>
</a>
</g>
</g>
<!-- Node5&#45;&gt;Node6 -->
<g id="edge5" class="edge"><title>Node5&#45;&gt;Node6</title>
<path fill="none" stroke="midnightblue" d="M415.729,-34.882C429.418,-29.8561 444.767,-24.2209 457.391,-19.5859"/>
<polygon fill="midnightblue" stroke="midnightblue" points="414.298,-31.6788 406.117,-38.411 416.711,-38.2499 414.298,-31.6788"/>
</g>
<!-- Node6&#45;&gt;Node2 -->
<g id="edge6" class="edge"><title>Node6&#45;&gt;Node2</title>
<path fill="none" stroke="midnightblue" d="M440.519,-6.56738C390.618,-3.37441 305.952,-0.408542 234,-10 220.02,-11.8636 204.874,-15.7332 192.258,-19.497"/>
<polygon fill="midnightblue" stroke="midnightblue" points="440.41,-10.0679 450.623,-7.24773 440.881,-3.0837 440.41,-10.0679"/>
</g>
<!-- Node6&#45;&gt;Node4 -->
<g id="edge7" class="edge"><title>Node6&#45;&gt;Node4</title>
<path fill="none" stroke="midnightblue" d="M440.815,-13.8255C401.667,-17.334 344.334,-22.4725 307.463,-25.7769"/>
<polygon fill="midnightblue" stroke="midnightblue" points="441.199,-17.3052 450.847,-12.9265 440.574,-10.3332 441.199,-17.3052"/>
</g>
</g>
</svg>
