<?xml version="1.0" encoding="UTF-8" standalone="no"?>
<!DOCTYPE svg PUBLIC "-//W3C//DTD SVG 1.1//EN"
 "http://www.w3.org/Graphics/SVG/1.1/DTD/svg11.dtd">
<!-- Generated by graphviz version 2.38.0 (20140413.2041)
 -->
<!-- Title: engine::_initialize Pages: 1 -->
<svg width="640pt" height="104pt"
 viewBox="0.00 0.00 640.00 104.00" xmlns="http://www.w3.org/2000/svg" xmlns:xlink="http://www.w3.org/1999/xlink">
<g id="graph0" class="graph" transform="scale(1 1) rotate(0) translate(4 100)">
<title>engine::_initialize</title>
<!-- Node1 -->
<g id="node1" class="node"><title>Node1</title>
<polygon fill="#bfbfbf" stroke="black" points="0,-57.5 0,-76.5 92,-76.5 92,-57.5 0,-57.5"/>
<text text-anchor="middle" x="46" y="-64.5" font-family="Helvetica,sans-Serif" font-size="10.00">engine::_initialize</text>
</g>
<!-- Node2 -->
<g id="node2" class="node"><title>Node2</title>
<g id="a_node2"><a xlink:href="classengine.html#a6809dcdfe78011851e377d4729a87ee4" target="_top" xlink:title="engine::initialize">
<polygon fill="none" stroke="black" points="128,-76.5 128,-95.5 214,-95.5 214,-76.5 128,-76.5"/>
<text text-anchor="middle" x="171" y="-83.5" font-family="Helvetica,sans-Serif" font-size="10.00">engine::initialize</text>
</a>
</g>
</g>
<!-- Node1&#45;&gt;Node2 -->
<g id="edge1" class="edge"><title>Node1&#45;&gt;Node2</title>
<path fill="none" stroke="midnightblue" d="M102.097,-75.5109C110.712,-76.8417 119.497,-78.1987 127.765,-79.4758"/>
<polygon fill="midnightblue" stroke="midnightblue" points="102.519,-72.0347 92.1022,-73.967 101.451,-78.9527 102.519,-72.0347"/>
</g>
<!-- Node3 -->
<g id="node3" class="node"><title>Node3</title>
<g id="a_node3"><a xlink:href="classengine.html#ada832d0a14502f1b99fdbd5c72cab01b" target="_top" xlink:title="engine::Draw">
<polygon fill="none" stroke="black" points="134.5,-38.5 134.5,-57.5 207.5,-57.5 207.5,-38.5 134.5,-38.5"/>
<text text-anchor="middle" x="171" y="-45.5" font-family="Helvetica,sans-Serif" font-size="10.00">engine::Draw</text>
</a>
</g>
</g>
<!-- Node1&#45;&gt;Node3 -->
<g id="edge2" class="edge"><title>Node1&#45;&gt;Node3</title>
<path fill="none" stroke="midnightblue" d="M101.998,-58.5044C112.9,-56.8203 124.079,-55.0935 134.142,-53.5391"/>
<polygon fill="midnightblue" stroke="midnightblue" points="101.451,-55.0473 92.1022,-60.033 102.519,-61.9653 101.451,-55.0473"/>
</g>
<!-- Node4 -->
<g id="node4" class="node"><title>Node4</title>
<g id="a_node4"><a xlink:href="classengine.html#a90418b124cd07d7d2f057e7d401ed641" target="_top" xlink:title="engine::_tick">
<polygon fill="none" stroke="black" points="250,-57.5 250,-76.5 322,-76.5 322,-57.5 250,-57.5"/>
<text text-anchor="middle" x="286" y="-64.5" font-family="Helvetica,sans-Serif" font-size="10.00">engine::_tick</text>
</a>
</g>
</g>
<!-- Node3&#45;&gt;Node4 -->
<g id="edge3" class="edge"><title>Node3&#45;&gt;Node4</title>
<path fill="none" stroke="midnightblue" d="M217.921,-49.0775C232.923,-51.2953 248.957,-54.3417 261.586,-57.4705"/>
<polygon fill="midnightblue" stroke="midnightblue" points="218.137,-45.5744 207.754,-47.6836 217.186,-52.5095 218.137,-45.5744"/>
</g>
<!-- Node4&#45;&gt;Node3 -->
<g id="edge9" class="edge"><title>Node4&#45;&gt;Node3</title>
<path fill="none" stroke="midnightblue" d="M239.371,-65.9655C224.285,-63.7442 208.125,-60.6786 195.414,-57.5295"/>
<polygon fill="midnightblue" stroke="midnightblue" points="239.206,-69.4754 249.588,-67.3592 240.152,-62.5397 239.206,-69.4754"/>
</g>
<!-- Node5 -->
<g id="node5" class="node"><title>Node5</title>
<g id="a_node5"><a xlink:href="classengine.html#a4bca5e9257e46c09a63f71227fc25a12" target="_top" xlink:title="engine::tick">
<polygon fill="none" stroke="black" points="358,-19.5 358,-38.5 425,-38.5 425,-19.5 358,-19.5"/>
<text text-anchor="middle" x="391.5" y="-26.5" font-family="Helvetica,sans-Serif" font-size="10.00">engine::tick</text>
</a>
</g>
</g>
<!-- Node4&#45;&gt;Node5 -->
<g id="edge4" class="edge"><title>Node4&#45;&gt;Node5</title>
<path fill="none" stroke="midnightblue" d="M322.729,-53.882C336.418,-48.8561 351.767,-43.2209 364.391,-38.5859"/>
<polygon fill="midnightblue" stroke="midnightblue" points="321.298,-50.6788 313.117,-57.411 323.711,-57.2499 321.298,-50.6788"/>
</g>
<!-- Node5&#45;&gt;Node3 -->
<g id="edge8" class="edge"><title>Node5&#45;&gt;Node3</title>
<path fill="none" stroke="midnightblue" d="M347.585,-32.7318C306.696,-36.2873 245.86,-41.5774 207.592,-44.905"/>
<polygon fill="midnightblue" stroke="midnightblue" points="348.122,-36.1984 357.781,-31.8451 347.515,-29.2247 348.122,-36.1984"/>
</g>
<!-- Node6 -->
<g id="node6" class="node"><title>Node6</title>
<g id="a_node6"><a xlink:href="classengine.html#a1d9b806d03be0255a8ac3c119e181cc5" target="_top" xlink:title="engine::_run">
<polygon fill="none" stroke="black" points="461,-0.5 461,-19.5 531,-19.5 531,-0.5 461,-0.5"/>
<text text-anchor="middle" x="496" y="-7.5" font-family="Helvetica,sans-Serif" font-size="10.00">engine::_run</text>
</a>
</g>
</g>
<!-- Node5&#45;&gt;Node6 -->
<g id="edge5" class="edge"><title>Node5&#45;&gt;Node6</title>
<path fill="none" stroke="midnightblue" d="M435.077,-21.1076C443.662,-19.5164 452.581,-17.8631 460.832,-16.3335"/>
<polygon fill="midnightblue" stroke="midnightblue" points="434.408,-17.672 425.213,-22.936 435.684,-24.5547 434.408,-17.672"/>
</g>
<!-- Node6&#45;&gt;Node3 -->
<g id="edge7" class="edge"><title>Node6&#45;&gt;Node3</title>
<path fill="none" stroke="midnightblue" d="M450.606,-7.84934C423.741,-7.08197 388.829,-7.03059 358,-10 309.326,-14.6883 297.892,-21.1262 250,-31 236.154,-33.8545 220.959,-37.1331 207.688,-40.0447"/>
<polygon fill="midnightblue" stroke="midnightblue" points="450.741,-11.3556 460.851,-8.1874 450.972,-4.35941 450.741,-11.3556"/>
</g>
<!-- Node7 -->
<g id="node7" class="node"><title>Node7</title>
<g id="a_node7"><a xlink:href="classengine.html#aecb22d51cc8f83cacbf3696a18d66c30" target="_top" xlink:title="engine::run">
<polygon fill="none" stroke="black" points="567,-0.5 567,-19.5 632,-19.5 632,-0.5 567,-0.5"/>
<text text-anchor="middle" x="599.5" y="-7.5" font-family="Helvetica,sans-Serif" font-size="10.00">engine::run</text>
</a>
</g>
</g>
<!-- Node6&#45;&gt;Node7 -->
<g id="edge6" class="edge"><title>Node6&#45;&gt;Node7</title>
<path fill="none" stroke="midnightblue" d="M541.325,-10C549.879,-10 558.681,-10 566.737,-10"/>
<polygon fill="midnightblue" stroke="midnightblue" points="541.08,-6.5001 531.08,-10 541.08,-13.5001 541.08,-6.5001"/>
</g>
</g>
</svg>
