<?xml version="1.0" encoding="UTF-8" standalone="no"?>
<!DOCTYPE svg PUBLIC "-//W3C//DTD SVG 1.1//EN"
 "http://www.w3.org/Graphics/SVG/1.1/DTD/svg11.dtd">
<!-- Generated by graphviz version 2.38.0 (20140413.2041)
 -->
<!-- Title: DirectXRenderer::get_depth_stencil_view Pages: 1 -->
<!--zoomable 190 -->
<svg id="main" version="1.1" xmlns="http://www.w3.org/2000/svg" xmlns:xlink="http://www.w3.org/1999/xlink" xml:space="preserve" onload="init(evt)">
<style type="text/css"><![CDATA[
.edge:hover path { stroke: red; }
.edge:hover polygon { stroke: red; fill: red; }
]]></style>
<script type="text/javascript"><![CDATA[
var edges = document.getElementsByTagName('g');
if (edges && edges.length) {
  for (var i=0;i<edges.length;i++) {
    if (edges[i].id.substr(0,4)=='edge') {
      edges[i].setAttribute('class','edge');
    }
  }
}
]]></script>
        <defs>
                <circle id="rim" cx="0" cy="0" r="7"/>
                <circle id="rim2" cx="0" cy="0" r="3.5"/>
                <g id="zoomPlus">
                        <use xlink:href="#rim" fill="#404040">
                                <set attributeName="fill" to="#808080" begin="zoomplus.mouseover" end="zoomplus.mouseout"/>
                        </use>
                        <path d="M-4,0h8M0,-4v8" fill="none" stroke="white" stroke-width="1.5" pointer-events="none"/>
                </g>
                <g id="zoomMin">
                        <use xlink:href="#rim" fill="#404040">
                                <set attributeName="fill" to="#808080" begin="zoomminus.mouseover" end="zoomminus.mouseout"/>
                        </use>
                        <path d="M-4,0h8" fill="none" stroke="white" stroke-width="1.5" pointer-events="none"/>
                </g>
                <g id="dirArrow">
                        <path fill="none" stroke="white" stroke-width="1.5" d="M0,-3.0v7 M-2.5,-0.5L0,-3.0L2.5,-0.5"/>
                </g>
               <g id="resetDef">
                       <use xlink:href="#rim2" fill="#404040">
                               <set attributeName="fill" to="#808080" begin="reset.mouseover" end="reset.mouseout"/>
                       </use>
               </g>
        </defs>

<script type="text/javascript">
var viewWidth = 810;
var viewHeight = 190;
var sectionId = 'dynsection-19';
</script>
<script xlink:href="svgpan.js"/>
<svg id="graph" class="graph">
<g id="viewport">
<title>DirectXRenderer::get_depth_stencil_view</title>
<!-- Node1 -->
<g id="node1" class="node"><title>Node1</title>
<polygon fill="#bfbfbf" stroke="black" points="0,-59 0,-89 106,-89 106,-59 0,-59"/>
<text text-anchor="start" x="8" y="-77" font-family="Helvetica,sans-Serif" font-size="10.00">DirectXRenderer::get</text>
<text text-anchor="middle" x="53" y="-66" font-family="Helvetica,sans-Serif" font-size="10.00">_depth_stencil_view</text>
</g>
<!-- Node2 -->
<g id="node2" class="node"><title>Node2</title>
<g id="a_node2"><a xlink:href="class_direct_x_renderer.html#a2f3ecabf3d5e9d76b7754d66a6a346d3" target="_top" xlink:title="DirectXRenderer::render">
<polygon fill="none" stroke="black" points="142,-85.5 142,-104.5 261,-104.5 261,-85.5 142,-85.5"/>
<text text-anchor="middle" x="201.5" y="-92.5" font-family="Helvetica,sans-Serif" font-size="10.00">DirectXRenderer::render</text>
</a>
</g>
</g>
<!-- Node1&#45;&gt;Node2 -->
<g id="edge1" class="edge"><title>Node1&#45;&gt;Node2</title>
<path fill="none" stroke="midnightblue" d="M116.002,-82.8877C124.576,-84.1167 133.361,-85.3759 141.871,-86.5958"/>
<polygon fill="midnightblue" stroke="midnightblue" points="116.458,-79.4174 106.063,-81.4629 115.465,-86.3466 116.458,-79.4174"/>
</g>
<!-- Node8 -->
<g id="node8" class="node"><title>Node8</title>
<g id="a_node8"><a xlink:href="class_direct_x_renderer.html#ae823daf9d77db0f506320f7171cb117d" target="_top" xlink:title="DirectXRenderer::resize">
<polygon fill="none" stroke="black" points="142,-44.5 142,-63.5 261,-63.5 261,-44.5 142,-44.5"/>
<text text-anchor="middle" x="201.5" y="-51.5" font-family="Helvetica,sans-Serif" font-size="10.00">DirectXRenderer::resize</text>
</a>
</g>
</g>
<!-- Node1&#45;&gt;Node8 -->
<g id="edge10" class="edge"><title>Node1&#45;&gt;Node8</title>
<path fill="none" stroke="midnightblue" d="M116.002,-65.5355C124.576,-64.365 133.361,-63.1658 141.871,-62.004"/>
<polygon fill="midnightblue" stroke="midnightblue" points="115.498,-62.0719 106.063,-66.8924 116.444,-69.0075 115.498,-62.0719"/>
</g>
<!-- Node3 -->
<g id="node3" class="node"><title>Node3</title>
<g id="a_node3"><a xlink:href="classengine.html#a90418b124cd07d7d2f057e7d401ed641" target="_top" xlink:title="engine::_tick">
<polygon fill="none" stroke="black" points="332,-88.5 332,-107.5 404,-107.5 404,-88.5 332,-88.5"/>
<text text-anchor="middle" x="368" y="-95.5" font-family="Helvetica,sans-Serif" font-size="10.00">engine::_tick</text>
</a>
</g>
</g>
<!-- Node2&#45;&gt;Node3 -->
<g id="edge2" class="edge"><title>Node2&#45;&gt;Node3</title>
<path fill="none" stroke="midnightblue" d="M271.522,-96.2588C292.331,-96.6383 314.3,-97.0389 331.912,-97.3601"/>
<polygon fill="midnightblue" stroke="midnightblue" points="271.486,-92.7576 261.424,-96.0746 271.358,-99.7565 271.486,-92.7576"/>
</g>
<!-- Node4 -->
<g id="node4" class="node"><title>Node4</title>
<g id="a_node4"><a xlink:href="classengine.html#a4bca5e9257e46c09a63f71227fc25a12" target="_top" xlink:title="engine::tick">
<polygon fill="none" stroke="black" points="480,-124.5 480,-143.5 547,-143.5 547,-124.5 480,-124.5"/>
<text text-anchor="middle" x="513.5" y="-131.5" font-family="Helvetica,sans-Serif" font-size="10.00">engine::tick</text>
</a>
</g>
</g>
<!-- Node3&#45;&gt;Node4 -->
<g id="edge3" class="edge"><title>Node3&#45;&gt;Node4</title>
<path fill="none" stroke="midnightblue" d="M413.916,-109.268C435.229,-114.615 460.233,-120.888 479.726,-125.778"/>
<polygon fill="midnightblue" stroke="midnightblue" points="414.655,-105.845 404.104,-106.807 412.952,-112.635 414.655,-105.845"/>
</g>
<!-- Node7 -->
<g id="node7" class="node"><title>Node7</title>
<g id="a_node7"><a xlink:href="classengine.html#ada832d0a14502f1b99fdbd5c72cab01b" target="_top" xlink:title="engine::Draw">
<polygon fill="none" stroke="black" points="722.5,-77.5 722.5,-96.5 795.5,-96.5 795.5,-77.5 722.5,-77.5"/>
<text text-anchor="middle" x="759" y="-84.5" font-family="Helvetica,sans-Serif" font-size="10.00">engine::Draw</text>
</a>
</g>
</g>
<!-- Node3&#45;&gt;Node7 -->
<g id="edge9" class="edge"><title>Node3&#45;&gt;Node7</title>
<path fill="none" stroke="midnightblue" d="M414.236,-92.2024C492.431,-86.8833 651.3,-82.5293 722.31,-83.9059"/>
<polygon fill="midnightblue" stroke="midnightblue" points="413.93,-88.7153 404.207,-92.9242 414.433,-95.6972 413.93,-88.7153"/>
</g>
<!-- Node5 -->
<g id="node5" class="node"><title>Node5</title>
<g id="a_node5"><a xlink:href="classengine.html#a1d9b806d03be0255a8ac3c119e181cc5" target="_top" xlink:title="engine::_run">
<polygon fill="none" stroke="black" points="599,-162.5 599,-181.5 669,-181.5 669,-162.5 599,-162.5"/>
<text text-anchor="middle" x="634" y="-169.5" font-family="Helvetica,sans-Serif" font-size="10.00">engine::_run</text>
</a>
</g>
</g>
<!-- Node4&#45;&gt;Node5 -->
<g id="edge4" class="edge"><title>Node4&#45;&gt;Node5</title>
<path fill="none" stroke="midnightblue" d="M554.043,-146.68C570.054,-151.815 588.232,-157.644 603.107,-162.414"/>
<polygon fill="midnightblue" stroke="midnightblue" points="554.994,-143.31 544.403,-143.589 552.856,-149.975 554.994,-143.31"/>
</g>
<!-- Node4&#45;&gt;Node7 -->
<g id="edge8" class="edge"><title>Node4&#45;&gt;Node7</title>
<path fill="none" stroke="midnightblue" d="M557.038,-129.525C590.646,-125.583 638.618,-119.053 680,-110 696.55,-106.379 714.723,-101.099 729.361,-96.5111"/>
<polygon fill="midnightblue" stroke="midnightblue" points="556.629,-126.049 547.093,-130.665 557.427,-133.003 556.629,-126.049"/>
</g>
<!-- Node6 -->
<g id="node6" class="node"><title>Node6</title>
<g id="a_node6"><a xlink:href="classengine.html#aecb22d51cc8f83cacbf3696a18d66c30" target="_top" xlink:title="engine::run">
<polygon fill="none" stroke="black" points="726.5,-162.5 726.5,-181.5 791.5,-181.5 791.5,-162.5 726.5,-162.5"/>
<text text-anchor="middle" x="759" y="-169.5" font-family="Helvetica,sans-Serif" font-size="10.00">engine::run</text>
</a>
</g>
</g>
<!-- Node5&#45;&gt;Node6 -->
<g id="edge5" class="edge"><title>Node5&#45;&gt;Node6</title>
<path fill="none" stroke="midnightblue" d="M679.692,-172C695.191,-172 712.233,-172 726.449,-172"/>
<polygon fill="midnightblue" stroke="midnightblue" points="679.262,-168.5 669.262,-172 679.262,-175.5 679.262,-168.5"/>
</g>
<!-- Node5&#45;&gt;Node7 -->
<g id="edge6" class="edge"><title>Node5&#45;&gt;Node7</title>
<path fill="none" stroke="midnightblue" d="M663.713,-157.649C669.219,-154.629 674.865,-151.341 680,-148 705.217,-131.593 732.407,-109.112 747.089,-96.5285"/>
<polygon fill="midnightblue" stroke="midnightblue" points="661.883,-154.657 654.694,-162.439 665.167,-160.839 661.883,-154.657"/>
</g>
<!-- Node7&#45;&gt;Node3 -->
<g id="edge7" class="edge"><title>Node7&#45;&gt;Node3</title>
<path fill="none" stroke="midnightblue" d="M712.23,-92.8339C633.67,-98.1485 474.818,-102.487 404.207,-101.085"/>
<polygon fill="midnightblue" stroke="midnightblue" points="712.586,-96.3174 722.31,-92.1125 712.086,-89.3353 712.586,-96.3174"/>
</g>
<!-- Node9 -->
<g id="node9" class="node"><title>Node9</title>
<g id="a_node9"><a xlink:href="class_direct_x_renderer.html#a252d9ba8d713ba462c54a3dadfda2f59" target="_top" xlink:title="DirectXRenderer::Set4xMsaa\lState">
<polygon fill="none" stroke="black" points="297,-39 297,-69 439,-69 439,-39 297,-39"/>
<text text-anchor="start" x="305" y="-57" font-family="Helvetica,sans-Serif" font-size="10.00">DirectXRenderer::Set4xMsaa</text>
<text text-anchor="middle" x="368" y="-46" font-family="Helvetica,sans-Serif" font-size="10.00">State</text>
</a>
</g>
</g>
<!-- Node8&#45;&gt;Node9 -->
<g id="edge11" class="edge"><title>Node8&#45;&gt;Node9</title>
<path fill="none" stroke="midnightblue" d="M271.559,-54C279.966,-54 288.561,-54 296.981,-54"/>
<polygon fill="midnightblue" stroke="midnightblue" points="271.424,-50.5001 261.424,-54 271.424,-57.5001 271.424,-50.5001"/>
</g>
<!-- Node10 -->
<g id="node10" class="node"><title>Node10</title>
<g id="a_node10"><a xlink:href="classengine.html#a097517979864142f35d1969b5cf3d437" target="_top" xlink:title="engine::_resize">
<polygon fill="none" stroke="black" points="326.5,-0.5 326.5,-19.5 409.5,-19.5 409.5,-0.5 326.5,-0.5"/>
<text text-anchor="middle" x="368" y="-7.5" font-family="Helvetica,sans-Serif" font-size="10.00">engine::_resize</text>
</a>
</g>
</g>
<!-- Node8&#45;&gt;Node10 -->
<g id="edge12" class="edge"><title>Node8&#45;&gt;Node10</title>
<path fill="none" stroke="midnightblue" d="M247.942,-41.8453C274.265,-34.8045 306.925,-26.0688 331.376,-19.5287"/>
<polygon fill="midnightblue" stroke="midnightblue" points="246.95,-38.4875 238.194,-44.4527 248.759,-45.2498 246.95,-38.4875"/>
</g>
<!-- Node11 -->
<g id="node11" class="node"><title>Node11</title>
<g id="a_node11"><a xlink:href="classengine.html#a2a83502d17f32c78093028f6009df8ba" target="_top" xlink:title="engine::resize">
<polygon fill="none" stroke="black" points="475,-20.5 475,-39.5 552,-39.5 552,-20.5 475,-20.5"/>
<text text-anchor="middle" x="513.5" y="-27.5" font-family="Helvetica,sans-Serif" font-size="10.00">engine::resize</text>
</a>
</g>
</g>
<!-- Node10&#45;&gt;Node11 -->
<g id="edge13" class="edge"><title>Node10&#45;&gt;Node11</title>
<path fill="none" stroke="midnightblue" d="M419.814,-17.0821C437.859,-19.597 457.839,-22.3818 474.615,-24.7199"/>
<polygon fill="midnightblue" stroke="midnightblue" points="420.125,-13.5917 409.737,-15.6777 419.159,-20.5247 420.125,-13.5917"/>
</g>
<!-- Node12 -->
<g id="node12" class="node"><title>Node12</title>
<g id="a_node12"><a xlink:href="classengine.html#a8b8dd82e72fd73e0601c30041529c4c0" target="_top" xlink:title="engine::_initialize">
<polygon fill="none" stroke="black" points="588,-25.5 588,-44.5 680,-44.5 680,-25.5 588,-25.5"/>
<text text-anchor="middle" x="634" y="-32.5" font-family="Helvetica,sans-Serif" font-size="10.00">engine::_initialize</text>
</a>
</g>
</g>
<!-- Node11&#45;&gt;Node12 -->
<g id="edge14" class="edge"><title>Node11&#45;&gt;Node12</title>
<path fill="none" stroke="midnightblue" d="M562.322,-32.0178C570.688,-32.3708 579.371,-32.7372 587.668,-33.0873"/>
<polygon fill="midnightblue" stroke="midnightblue" points="562.459,-28.5206 552.32,-31.5958 562.163,-35.5143 562.459,-28.5206"/>
</g>
<!-- Node12&#45;&gt;Node7 -->
<g id="edge16" class="edge"><title>Node12&#45;&gt;Node7</title>
<path fill="none" stroke="midnightblue" d="M666.895,-48.4841C688.289,-57.5287 715.96,-69.2271 735.166,-77.3468"/>
<polygon fill="midnightblue" stroke="midnightblue" points="668.134,-45.2079 657.56,-44.5376 665.408,-51.6554 668.134,-45.2079"/>
</g>
<!-- Node13 -->
<g id="node13" class="node"><title>Node13</title>
<g id="a_node13"><a xlink:href="classengine.html#a6809dcdfe78011851e377d4729a87ee4" target="_top" xlink:title="engine::initialize">
<polygon fill="none" stroke="black" points="716,-25.5 716,-44.5 802,-44.5 802,-25.5 716,-25.5"/>
<text text-anchor="middle" x="759" y="-32.5" font-family="Helvetica,sans-Serif" font-size="10.00">engine::initialize</text>
</a>
</g>
</g>
<!-- Node12&#45;&gt;Node13 -->
<g id="edge15" class="edge"><title>Node12&#45;&gt;Node13</title>
<path fill="none" stroke="midnightblue" d="M690.378,-35C698.903,-35 707.586,-35 715.765,-35"/>
<polygon fill="midnightblue" stroke="midnightblue" points="690.102,-31.5001 680.102,-35 690.102,-38.5001 690.102,-31.5001"/>
</g>
</g>
</svg>
        <g id="navigator" transform="translate(0 0)" fill="#404254">
                <rect fill="#f2f5e9" fill-opacity="0.5" stroke="#606060" stroke-width=".5" x="0" y="0" width="60" height="60"/>
                <use id="zoomplus" xlink:href="#zoomPlus" x="17" y="9" onmousedown="handleZoom(evt,'in')"/>
                <use id="zoomminus" xlink:href="#zoomMin" x="42" y="9" onmousedown="handleZoom(evt,'out')"/>
                <use id="reset" xlink:href="#resetDef" x="30" y="36" onmousedown="handleReset()"/>
                <g id="arrowUp" xlink:href="#dirArrow" transform="translate(30 24)" onmousedown="handlePan(0,-1)">
                  <use xlink:href="#rim" fill="#404040">
                        <set attributeName="fill" to="#808080" begin="arrowUp.mouseover" end="arrowUp.mouseout"/>
                  </use>
                  <path fill="none" stroke="white" stroke-width="1.5" d="M0,-3.0v7 M-2.5,-0.5L0,-3.0L2.5,-0.5"/>
                </g>
                <g id="arrowRight" xlink:href="#dirArrow" transform="rotate(90) translate(36 -43)" onmousedown="handlePan(1,0)">
                  <use xlink:href="#rim" fill="#404040">
                        <set attributeName="fill" to="#808080" begin="arrowRight.mouseover" end="arrowRight.mouseout"/>
                  </use>
                  <path fill="none" stroke="white" stroke-width="1.5" d="M0,-3.0v7 M-2.5,-0.5L0,-3.0L2.5,-0.5"/>
                </g>
                <g id="arrowDown" xlink:href="#dirArrow" transform="rotate(180) translate(-30 -48)" onmousedown="handlePan(0,1)">
                  <use xlink:href="#rim" fill="#404040">
                        <set attributeName="fill" to="#808080" begin="arrowDown.mouseover" end="arrowDown.mouseout"/>
                  </use>
                  <path fill="none" stroke="white" stroke-width="1.5" d="M0,-3.0v7 M-2.5,-0.5L0,-3.0L2.5,-0.5"/>
                </g>
                <g id="arrowLeft" xlink:href="#dirArrow" transform="rotate(270) translate(-36 17)" onmousedown="handlePan(-1,0)">
                  <use xlink:href="#rim" fill="#404040">
                        <set attributeName="fill" to="#808080" begin="arrowLeft.mouseover" end="arrowLeft.mouseout"/>
                  </use>
                  <path fill="none" stroke="white" stroke-width="1.5" d="M0,-3.0v7 M-2.5,-0.5L0,-3.0L2.5,-0.5"/>
                </g>
        </g>
        <svg viewBox="0 0 15 15" width="100%" height="30px" preserveAspectRatio="xMaxYMin meet">
         <g id="arrow_out" transform="scale(0.3 0.3)">
          <a xlink:href="class_direct_x_renderer_a3fd16381af742f128d5a7138d65be695_icgraph_org.svg" target="_base">
           <rect id="button" ry="5" rx="5" y="6" x="6" height="38" width="38"
                fill="#f2f5e9" fill-opacity="0.5" stroke="#606060" stroke-width="1.0"/>
           <path id="arrow"
             d="M 11.500037,31.436501 C 11.940474,20.09759 22.043105,11.32322 32.158766,21.979434 L 37.068811,17.246167 C 37.068811,17.246167 37.088388,32 37.088388,32 L 22.160133,31.978069 C 22.160133,31.978069 26.997745,27.140456 26.997745,27.140456 C 18.528582,18.264221 13.291696,25.230495 11.500037,31.436501 z"
             style="fill:#404040;"/>
          </a>
         </g>
        </svg>
</svg>
