<?xml version="1.0" encoding="UTF-8" standalone="no"?>
<!DOCTYPE svg PUBLIC "-//W3C//DTD SVG 1.1//EN"
 "http://www.w3.org/Graphics/SVG/1.1/DTD/svg11.dtd">
<!-- Generated by graphviz version 2.38.0 (20140413.2041)
 -->
<!-- Title: DirectXRenderer::get_4x_msaa_state Pages: 1 -->
<!--zoomable 104 -->
<svg id="main" version="1.1" xmlns="http://www.w3.org/2000/svg" xmlns:xlink="http://www.w3.org/1999/xlink" xml:space="preserve" onload="init(evt)">
<style type="text/css"><![CDATA[
.edge:hover path { stroke: red; }
.edge:hover polygon { stroke: red; fill: red; }
]]></style>
<script type="text/javascript"><![CDATA[
var edges = document.getElementsByTagName('g');
if (edges && edges.length) {
  for (var i=0;i<edges.length;i++) {
    if (edges[i].id.substr(0,4)=='edge') {
      edges[i].setAttribute('class','edge');
    }
  }
}
]]></script>
        <defs>
                <circle id="rim" cx="0" cy="0" r="7"/>
                <circle id="rim2" cx="0" cy="0" r="3.5"/>
                <g id="zoomPlus">
                        <use xlink:href="#rim" fill="#404040">
                                <set attributeName="fill" to="#808080" begin="zoomplus.mouseover" end="zoomplus.mouseout"/>
                        </use>
                        <path d="M-4,0h8M0,-4v8" fill="none" stroke="white" stroke-width="1.5" pointer-events="none"/>
                </g>
                <g id="zoomMin">
                        <use xlink:href="#rim" fill="#404040">
                                <set attributeName="fill" to="#808080" begin="zoomminus.mouseover" end="zoomminus.mouseout"/>
                        </use>
                        <path d="M-4,0h8" fill="none" stroke="white" stroke-width="1.5" pointer-events="none"/>
                </g>
                <g id="dirArrow">
                        <path fill="none" stroke="white" stroke-width="1.5" d="M0,-3.0v7 M-2.5,-0.5L0,-3.0L2.5,-0.5"/>
                </g>
               <g id="resetDef">
                       <use xlink:href="#rim2" fill="#404040">
                               <set attributeName="fill" to="#808080" begin="reset.mouseover" end="reset.mouseout"/>
                       </use>
               </g>
        </defs>

<script type="text/javascript">
var viewWidth = 1101;
var viewHeight = 104;
var sectionId = 'dynsection-15';
</script>
<script xlink:href="svgpan.js"/>
<svg id="graph" class="graph">
<g id="viewport">
<title>DirectXRenderer::get_4x_msaa_state</title>
<!-- Node1 -->
<g id="node1" class="node"><title>Node1</title>
<polygon fill="#bfbfbf" stroke="black" points="0,-52 0,-82 106,-82 106,-52 0,-52"/>
<text text-anchor="start" x="8" y="-70" font-family="Helvetica,sans-Serif" font-size="10.00">DirectXRenderer::get</text>
<text text-anchor="middle" x="53" y="-59" font-family="Helvetica,sans-Serif" font-size="10.00">_4x_msaa_state</text>
</g>
<!-- Node2 -->
<g id="node2" class="node"><title>Node2</title>
<g id="a_node2"><a xlink:href="class_direct_x_renderer.html#a7626b1775267e151905115055e0bbc7f" target="_top" xlink:title="DirectXRenderer::create\l_pipeline_state_object">
<polygon fill="none" stroke="black" points="142,-52 142,-82 261,-82 261,-52 142,-52"/>
<text text-anchor="start" x="150" y="-70" font-family="Helvetica,sans-Serif" font-size="10.00">DirectXRenderer::create</text>
<text text-anchor="middle" x="201.5" y="-59" font-family="Helvetica,sans-Serif" font-size="10.00">_pipeline_state_object</text>
</a>
</g>
</g>
<!-- Node1&#45;&gt;Node2 -->
<g id="edge1" class="edge"><title>Node1&#45;&gt;Node2</title>
<path fill="none" stroke="midnightblue" d="M116.282,-67C124.767,-67 133.453,-67 141.871,-67"/>
<polygon fill="midnightblue" stroke="midnightblue" points="116.063,-63.5001 106.063,-67 116.063,-70.5001 116.063,-63.5001"/>
</g>
<!-- Node3 -->
<g id="node3" class="node"><title>Node3</title>
<g id="a_node3"><a xlink:href="class_direct_x_renderer.html#a0d6aef4c838ac765f726391ee65c346c" target="_top" xlink:title="DirectXRenderer::initialize\l_direct3d">
<polygon fill="none" stroke="black" points="297,-52 297,-82 425,-82 425,-52 297,-52"/>
<text text-anchor="start" x="305" y="-70" font-family="Helvetica,sans-Serif" font-size="10.00">DirectXRenderer::initialize</text>
<text text-anchor="middle" x="361" y="-59" font-family="Helvetica,sans-Serif" font-size="10.00">_direct3d</text>
</a>
</g>
</g>
<!-- Node2&#45;&gt;Node3 -->
<g id="edge2" class="edge"><title>Node2&#45;&gt;Node3</title>
<path fill="none" stroke="midnightblue" d="M271.365,-67C279.826,-67 288.443,-67 296.814,-67"/>
<polygon fill="midnightblue" stroke="midnightblue" points="271.147,-63.5001 261.147,-67 271.147,-70.5001 271.147,-63.5001"/>
</g>
<!-- Node4 -->
<g id="node4" class="node"><title>Node4</title>
<g id="a_node4"><a xlink:href="classengine.html#a8b8dd82e72fd73e0601c30041529c4c0" target="_top" xlink:title="engine::_initialize">
<polygon fill="none" stroke="black" points="461,-57.5 461,-76.5 553,-76.5 553,-57.5 461,-57.5"/>
<text text-anchor="middle" x="507" y="-64.5" font-family="Helvetica,sans-Serif" font-size="10.00">engine::_initialize</text>
</a>
</g>
</g>
<!-- Node3&#45;&gt;Node4 -->
<g id="edge3" class="edge"><title>Node3&#45;&gt;Node4</title>
<path fill="none" stroke="midnightblue" d="M435.283,-67C443.922,-67 452.536,-67 460.627,-67"/>
<polygon fill="midnightblue" stroke="midnightblue" points="435.161,-63.5001 425.16,-67 435.16,-70.5001 435.161,-63.5001"/>
</g>
<!-- Node5 -->
<g id="node5" class="node"><title>Node5</title>
<g id="a_node5"><a xlink:href="classengine.html#a6809dcdfe78011851e377d4729a87ee4" target="_top" xlink:title="engine::initialize">
<polygon fill="none" stroke="black" points="589,-76.5 589,-95.5 675,-95.5 675,-76.5 589,-76.5"/>
<text text-anchor="middle" x="632" y="-83.5" font-family="Helvetica,sans-Serif" font-size="10.00">engine::initialize</text>
</a>
</g>
</g>
<!-- Node4&#45;&gt;Node5 -->
<g id="edge4" class="edge"><title>Node4&#45;&gt;Node5</title>
<path fill="none" stroke="midnightblue" d="M563.097,-75.5109C571.712,-76.8417 580.497,-78.1987 588.765,-79.4758"/>
<polygon fill="midnightblue" stroke="midnightblue" points="563.519,-72.0347 553.102,-73.967 562.451,-78.9527 563.519,-72.0347"/>
</g>
<!-- Node6 -->
<g id="node6" class="node"><title>Node6</title>
<g id="a_node6"><a xlink:href="classengine.html#ada832d0a14502f1b99fdbd5c72cab01b" target="_top" xlink:title="engine::Draw">
<polygon fill="none" stroke="black" points="595.5,-38.5 595.5,-57.5 668.5,-57.5 668.5,-38.5 595.5,-38.5"/>
<text text-anchor="middle" x="632" y="-45.5" font-family="Helvetica,sans-Serif" font-size="10.00">engine::Draw</text>
</a>
</g>
</g>
<!-- Node4&#45;&gt;Node6 -->
<g id="edge5" class="edge"><title>Node4&#45;&gt;Node6</title>
<path fill="none" stroke="midnightblue" d="M562.998,-58.5044C573.9,-56.8203 585.079,-55.0935 595.142,-53.5391"/>
<polygon fill="midnightblue" stroke="midnightblue" points="562.451,-55.0473 553.102,-60.033 563.519,-61.9653 562.451,-55.0473"/>
</g>
<!-- Node7 -->
<g id="node7" class="node"><title>Node7</title>
<g id="a_node7"><a xlink:href="classengine.html#a90418b124cd07d7d2f057e7d401ed641" target="_top" xlink:title="engine::_tick">
<polygon fill="none" stroke="black" points="711,-57.5 711,-76.5 783,-76.5 783,-57.5 711,-57.5"/>
<text text-anchor="middle" x="747" y="-64.5" font-family="Helvetica,sans-Serif" font-size="10.00">engine::_tick</text>
</a>
</g>
</g>
<!-- Node6&#45;&gt;Node7 -->
<g id="edge6" class="edge"><title>Node6&#45;&gt;Node7</title>
<path fill="none" stroke="midnightblue" d="M678.921,-49.0775C693.923,-51.2953 709.957,-54.3417 722.586,-57.4705"/>
<polygon fill="midnightblue" stroke="midnightblue" points="679.137,-45.5744 668.754,-47.6836 678.186,-52.5095 679.137,-45.5744"/>
</g>
<!-- Node7&#45;&gt;Node6 -->
<g id="edge12" class="edge"><title>Node7&#45;&gt;Node6</title>
<path fill="none" stroke="midnightblue" d="M700.371,-65.9655C685.285,-63.7442 669.125,-60.6786 656.414,-57.5295"/>
<polygon fill="midnightblue" stroke="midnightblue" points="700.206,-69.4754 710.588,-67.3592 701.152,-62.5397 700.206,-69.4754"/>
</g>
<!-- Node8 -->
<g id="node8" class="node"><title>Node8</title>
<g id="a_node8"><a xlink:href="classengine.html#a4bca5e9257e46c09a63f71227fc25a12" target="_top" xlink:title="engine::tick">
<polygon fill="none" stroke="black" points="819,-19.5 819,-38.5 886,-38.5 886,-19.5 819,-19.5"/>
<text text-anchor="middle" x="852.5" y="-26.5" font-family="Helvetica,sans-Serif" font-size="10.00">engine::tick</text>
</a>
</g>
</g>
<!-- Node7&#45;&gt;Node8 -->
<g id="edge7" class="edge"><title>Node7&#45;&gt;Node8</title>
<path fill="none" stroke="midnightblue" d="M783.729,-53.882C797.418,-48.8561 812.767,-43.2209 825.391,-38.5859"/>
<polygon fill="midnightblue" stroke="midnightblue" points="782.298,-50.6788 774.117,-57.411 784.711,-57.2499 782.298,-50.6788"/>
</g>
<!-- Node8&#45;&gt;Node6 -->
<g id="edge11" class="edge"><title>Node8&#45;&gt;Node6</title>
<path fill="none" stroke="midnightblue" d="M808.585,-32.7318C767.696,-36.2873 706.86,-41.5774 668.592,-44.905"/>
<polygon fill="midnightblue" stroke="midnightblue" points="809.122,-36.1984 818.781,-31.8451 808.515,-29.2247 809.122,-36.1984"/>
</g>
<!-- Node9 -->
<g id="node9" class="node"><title>Node9</title>
<g id="a_node9"><a xlink:href="classengine.html#a1d9b806d03be0255a8ac3c119e181cc5" target="_top" xlink:title="engine::_run">
<polygon fill="none" stroke="black" points="922,-0.5 922,-19.5 992,-19.5 992,-0.5 922,-0.5"/>
<text text-anchor="middle" x="957" y="-7.5" font-family="Helvetica,sans-Serif" font-size="10.00">engine::_run</text>
</a>
</g>
</g>
<!-- Node8&#45;&gt;Node9 -->
<g id="edge8" class="edge"><title>Node8&#45;&gt;Node9</title>
<path fill="none" stroke="midnightblue" d="M896.077,-21.1076C904.662,-19.5164 913.581,-17.8631 921.832,-16.3335"/>
<polygon fill="midnightblue" stroke="midnightblue" points="895.408,-17.672 886.213,-22.936 896.684,-24.5547 895.408,-17.672"/>
</g>
<!-- Node9&#45;&gt;Node6 -->
<g id="edge10" class="edge"><title>Node9&#45;&gt;Node6</title>
<path fill="none" stroke="midnightblue" d="M911.606,-7.84934C884.741,-7.08197 849.829,-7.03059 819,-10 770.326,-14.6883 758.892,-21.1262 711,-31 697.154,-33.8545 681.959,-37.1331 668.688,-40.0447"/>
<polygon fill="midnightblue" stroke="midnightblue" points="911.741,-11.3556 921.851,-8.1874 911.972,-4.35941 911.741,-11.3556"/>
</g>
<!-- Node10 -->
<g id="node10" class="node"><title>Node10</title>
<g id="a_node10"><a xlink:href="classengine.html#aecb22d51cc8f83cacbf3696a18d66c30" target="_top" xlink:title="engine::run">
<polygon fill="none" stroke="black" points="1028,-0.5 1028,-19.5 1093,-19.5 1093,-0.5 1028,-0.5"/>
<text text-anchor="middle" x="1060.5" y="-7.5" font-family="Helvetica,sans-Serif" font-size="10.00">engine::run</text>
</a>
</g>
</g>
<!-- Node9&#45;&gt;Node10 -->
<g id="edge9" class="edge"><title>Node9&#45;&gt;Node10</title>
<path fill="none" stroke="midnightblue" d="M1002.33,-10C1010.88,-10 1019.68,-10 1027.74,-10"/>
<polygon fill="midnightblue" stroke="midnightblue" points="1002.08,-6.5001 992.08,-10 1002.08,-13.5001 1002.08,-6.5001"/>
</g>
</g>
</svg>
        <g id="navigator" transform="translate(0 0)" fill="#404254">
                <rect fill="#f2f5e9" fill-opacity="0.5" stroke="#606060" stroke-width=".5" x="0" y="0" width="60" height="60"/>
                <use id="zoomplus" xlink:href="#zoomPlus" x="17" y="9" onmousedown="handleZoom(evt,'in')"/>
                <use id="zoomminus" xlink:href="#zoomMin" x="42" y="9" onmousedown="handleZoom(evt,'out')"/>
                <use id="reset" xlink:href="#resetDef" x="30" y="36" onmousedown="handleReset()"/>
                <g id="arrowUp" xlink:href="#dirArrow" transform="translate(30 24)" onmousedown="handlePan(0,-1)">
                  <use xlink:href="#rim" fill="#404040">
                        <set attributeName="fill" to="#808080" begin="arrowUp.mouseover" end="arrowUp.mouseout"/>
                  </use>
                  <path fill="none" stroke="white" stroke-width="1.5" d="M0,-3.0v7 M-2.5,-0.5L0,-3.0L2.5,-0.5"/>
                </g>
                <g id="arrowRight" xlink:href="#dirArrow" transform="rotate(90) translate(36 -43)" onmousedown="handlePan(1,0)">
                  <use xlink:href="#rim" fill="#404040">
                        <set attributeName="fill" to="#808080" begin="arrowRight.mouseover" end="arrowRight.mouseout"/>
                  </use>
                  <path fill="none" stroke="white" stroke-width="1.5" d="M0,-3.0v7 M-2.5,-0.5L0,-3.0L2.5,-0.5"/>
                </g>
                <g id="arrowDown" xlink:href="#dirArrow" transform="rotate(180) translate(-30 -48)" onmousedown="handlePan(0,1)">
                  <use xlink:href="#rim" fill="#404040">
                        <set attributeName="fill" to="#808080" begin="arrowDown.mouseover" end="arrowDown.mouseout"/>
                  </use>
                  <path fill="none" stroke="white" stroke-width="1.5" d="M0,-3.0v7 M-2.5,-0.5L0,-3.0L2.5,-0.5"/>
                </g>
                <g id="arrowLeft" xlink:href="#dirArrow" transform="rotate(270) translate(-36 17)" onmousedown="handlePan(-1,0)">
                  <use xlink:href="#rim" fill="#404040">
                        <set attributeName="fill" to="#808080" begin="arrowLeft.mouseover" end="arrowLeft.mouseout"/>
                  </use>
                  <path fill="none" stroke="white" stroke-width="1.5" d="M0,-3.0v7 M-2.5,-0.5L0,-3.0L2.5,-0.5"/>
                </g>
        </g>
        <svg viewBox="0 0 15 15" width="100%" height="30px" preserveAspectRatio="xMaxYMin meet">
         <g id="arrow_out" transform="scale(0.3 0.3)">
          <a xlink:href="class_direct_x_renderer_a99c49dd436c922c8f21b1839b0fb6bd1_icgraph_org.svg" target="_base">
           <rect id="button" ry="5" rx="5" y="6" x="6" height="38" width="38"
                fill="#f2f5e9" fill-opacity="0.5" stroke="#606060" stroke-width="1.0"/>
           <path id="arrow"
             d="M 11.500037,31.436501 C 11.940474,20.09759 22.043105,11.32322 32.158766,21.979434 L 37.068811,17.246167 C 37.068811,17.246167 37.088388,32 37.088388,32 L 22.160133,31.978069 C 22.160133,31.978069 26.997745,27.140456 26.997745,27.140456 C 18.528582,18.264221 13.291696,25.230495 11.500037,31.436501 z"
             style="fill:#404040;"/>
          </a>
         </g>
        </svg>
</svg>
