<?xml version="1.0" encoding="UTF-8" standalone="no"?>
<!DOCTYPE svg PUBLIC "-//W3C//DTD SVG 1.1//EN"
 "http://www.w3.org/Graphics/SVG/1.1/DTD/svg11.dtd">
<!-- Generated by graphviz version 2.38.0 (20140413.2041)
 -->
<!-- Title: DirectXRenderer::log_output_display_modes Pages: 1 -->
<svg width="1241pt" height="104pt"
 viewBox="0.00 0.00 1241.00 104.00" xmlns="http://www.w3.org/2000/svg" xmlns:xlink="http://www.w3.org/1999/xlink">
<g id="graph0" class="graph" transform="scale(1 1) rotate(0) translate(4 100)">
<title>DirectXRenderer::log_output_display_modes</title>
<!-- Node1 -->
<g id="node1" class="node"><title>Node1</title>
<polygon fill="#bfbfbf" stroke="black" points="0,-52 0,-82 119,-82 119,-52 0,-52"/>
<text text-anchor="start" x="8" y="-70" font-family="Helvetica,sans-Serif" font-size="10.00">DirectXRenderer::log</text>
<text text-anchor="middle" x="59.5" y="-59" font-family="Helvetica,sans-Serif" font-size="10.00">_output_display_modes</text>
</g>
<!-- Node2 -->
<g id="node2" class="node"><title>Node2</title>
<g id="a_node2"><a xlink:href="class_direct_x_renderer.html#a13dbd659f5d0a72be90b0a4be1121ef8" target="_top" xlink:title="DirectXRenderer::log\l_adapter_outputs">
<polygon fill="none" stroke="black" points="155,-52 155,-82 260,-82 260,-52 155,-52"/>
<text text-anchor="start" x="163" y="-70" font-family="Helvetica,sans-Serif" font-size="10.00">DirectXRenderer::log</text>
<text text-anchor="middle" x="207.5" y="-59" font-family="Helvetica,sans-Serif" font-size="10.00">_adapter_outputs</text>
</a>
</g>
</g>
<!-- Node1&#45;&gt;Node2 -->
<g id="edge1" class="edge"><title>Node1&#45;&gt;Node2</title>
<path fill="none" stroke="midnightblue" d="M129.044,-67C137.62,-67 146.279,-67 154.544,-67"/>
<polygon fill="midnightblue" stroke="midnightblue" points="129.043,-63.5001 119.043,-67 129.043,-70.5001 129.043,-63.5001"/>
</g>
<!-- Node3 -->
<g id="node3" class="node"><title>Node3</title>
<g id="a_node3"><a xlink:href="class_direct_x_renderer.html#a8bf63477a5f9f210b627c2d07d54caa5" target="_top" xlink:title="DirectXRenderer::log\l_adapters">
<polygon fill="none" stroke="black" points="296,-52 296,-82 401,-82 401,-52 296,-52"/>
<text text-anchor="start" x="304" y="-70" font-family="Helvetica,sans-Serif" font-size="10.00">DirectXRenderer::log</text>
<text text-anchor="middle" x="348.5" y="-59" font-family="Helvetica,sans-Serif" font-size="10.00">_adapters</text>
</a>
</g>
</g>
<!-- Node2&#45;&gt;Node3 -->
<g id="edge2" class="edge"><title>Node2&#45;&gt;Node3</title>
<path fill="none" stroke="midnightblue" d="M270.441,-67C278.878,-67 287.466,-67 295.698,-67"/>
<polygon fill="midnightblue" stroke="midnightblue" points="270.259,-63.5001 260.258,-67 270.258,-70.5001 270.259,-63.5001"/>
</g>
<!-- Node4 -->
<g id="node4" class="node"><title>Node4</title>
<g id="a_node4"><a xlink:href="class_direct_x_renderer.html#a0d6aef4c838ac765f726391ee65c346c" target="_top" xlink:title="DirectXRenderer::initialize\l_direct3d">
<polygon fill="none" stroke="black" points="437,-52 437,-82 565,-82 565,-52 437,-52"/>
<text text-anchor="start" x="445" y="-70" font-family="Helvetica,sans-Serif" font-size="10.00">DirectXRenderer::initialize</text>
<text text-anchor="middle" x="501" y="-59" font-family="Helvetica,sans-Serif" font-size="10.00">_direct3d</text>
</a>
</g>
</g>
<!-- Node3&#45;&gt;Node4 -->
<g id="edge3" class="edge"><title>Node3&#45;&gt;Node4</title>
<path fill="none" stroke="midnightblue" d="M411.421,-67C419.842,-67 428.492,-67 436.932,-67"/>
<polygon fill="midnightblue" stroke="midnightblue" points="411.294,-63.5001 401.294,-67 411.294,-70.5001 411.294,-63.5001"/>
</g>
<!-- Node5 -->
<g id="node5" class="node"><title>Node5</title>
<g id="a_node5"><a xlink:href="classengine.html#a8b8dd82e72fd73e0601c30041529c4c0" target="_top" xlink:title="engine::_initialize">
<polygon fill="none" stroke="black" points="601,-57.5 601,-76.5 693,-76.5 693,-57.5 601,-57.5"/>
<text text-anchor="middle" x="647" y="-64.5" font-family="Helvetica,sans-Serif" font-size="10.00">engine::_initialize</text>
</a>
</g>
</g>
<!-- Node4&#45;&gt;Node5 -->
<g id="edge4" class="edge"><title>Node4&#45;&gt;Node5</title>
<path fill="none" stroke="midnightblue" d="M575.283,-67C583.922,-67 592.536,-67 600.627,-67"/>
<polygon fill="midnightblue" stroke="midnightblue" points="575.161,-63.5001 565.16,-67 575.16,-70.5001 575.161,-63.5001"/>
</g>
<!-- Node6 -->
<g id="node6" class="node"><title>Node6</title>
<g id="a_node6"><a xlink:href="classengine.html#a6809dcdfe78011851e377d4729a87ee4" target="_top" xlink:title="engine::initialize">
<polygon fill="none" stroke="black" points="729,-76.5 729,-95.5 815,-95.5 815,-76.5 729,-76.5"/>
<text text-anchor="middle" x="772" y="-83.5" font-family="Helvetica,sans-Serif" font-size="10.00">engine::initialize</text>
</a>
</g>
</g>
<!-- Node5&#45;&gt;Node6 -->
<g id="edge5" class="edge"><title>Node5&#45;&gt;Node6</title>
<path fill="none" stroke="midnightblue" d="M703.097,-75.5109C711.712,-76.8417 720.497,-78.1987 728.765,-79.4758"/>
<polygon fill="midnightblue" stroke="midnightblue" points="703.519,-72.0347 693.102,-73.967 702.451,-78.9527 703.519,-72.0347"/>
</g>
<!-- Node7 -->
<g id="node7" class="node"><title>Node7</title>
<g id="a_node7"><a xlink:href="classengine.html#ada832d0a14502f1b99fdbd5c72cab01b" target="_top" xlink:title="engine::Draw">
<polygon fill="none" stroke="black" points="735.5,-38.5 735.5,-57.5 808.5,-57.5 808.5,-38.5 735.5,-38.5"/>
<text text-anchor="middle" x="772" y="-45.5" font-family="Helvetica,sans-Serif" font-size="10.00">engine::Draw</text>
</a>
</g>
</g>
<!-- Node5&#45;&gt;Node7 -->
<g id="edge6" class="edge"><title>Node5&#45;&gt;Node7</title>
<path fill="none" stroke="midnightblue" d="M702.998,-58.5044C713.9,-56.8203 725.079,-55.0935 735.142,-53.5391"/>
<polygon fill="midnightblue" stroke="midnightblue" points="702.451,-55.0473 693.102,-60.033 703.519,-61.9653 702.451,-55.0473"/>
</g>
<!-- Node8 -->
<g id="node8" class="node"><title>Node8</title>
<g id="a_node8"><a xlink:href="classengine.html#a90418b124cd07d7d2f057e7d401ed641" target="_top" xlink:title="engine::_tick">
<polygon fill="none" stroke="black" points="851,-57.5 851,-76.5 923,-76.5 923,-57.5 851,-57.5"/>
<text text-anchor="middle" x="887" y="-64.5" font-family="Helvetica,sans-Serif" font-size="10.00">engine::_tick</text>
</a>
</g>
</g>
<!-- Node7&#45;&gt;Node8 -->
<g id="edge7" class="edge"><title>Node7&#45;&gt;Node8</title>
<path fill="none" stroke="midnightblue" d="M818.921,-49.0775C833.923,-51.2953 849.957,-54.3417 862.586,-57.4705"/>
<polygon fill="midnightblue" stroke="midnightblue" points="819.137,-45.5744 808.754,-47.6836 818.186,-52.5095 819.137,-45.5744"/>
</g>
<!-- Node8&#45;&gt;Node7 -->
<g id="edge13" class="edge"><title>Node8&#45;&gt;Node7</title>
<path fill="none" stroke="midnightblue" d="M840.371,-65.9655C825.285,-63.7442 809.125,-60.6786 796.414,-57.5295"/>
<polygon fill="midnightblue" stroke="midnightblue" points="840.206,-69.4754 850.588,-67.3592 841.152,-62.5397 840.206,-69.4754"/>
</g>
<!-- Node9 -->
<g id="node9" class="node"><title>Node9</title>
<g id="a_node9"><a xlink:href="classengine.html#a4bca5e9257e46c09a63f71227fc25a12" target="_top" xlink:title="engine::tick">
<polygon fill="none" stroke="black" points="959,-19.5 959,-38.5 1026,-38.5 1026,-19.5 959,-19.5"/>
<text text-anchor="middle" x="992.5" y="-26.5" font-family="Helvetica,sans-Serif" font-size="10.00">engine::tick</text>
</a>
</g>
</g>
<!-- Node8&#45;&gt;Node9 -->
<g id="edge8" class="edge"><title>Node8&#45;&gt;Node9</title>
<path fill="none" stroke="midnightblue" d="M923.729,-53.882C937.418,-48.8561 952.767,-43.2209 965.391,-38.5859"/>
<polygon fill="midnightblue" stroke="midnightblue" points="922.298,-50.6788 914.117,-57.411 924.711,-57.2499 922.298,-50.6788"/>
</g>
<!-- Node9&#45;&gt;Node7 -->
<g id="edge12" class="edge"><title>Node9&#45;&gt;Node7</title>
<path fill="none" stroke="midnightblue" d="M948.585,-32.7318C907.696,-36.2873 846.86,-41.5774 808.592,-44.905"/>
<polygon fill="midnightblue" stroke="midnightblue" points="949.122,-36.1984 958.781,-31.8451 948.515,-29.2247 949.122,-36.1984"/>
</g>
<!-- Node10 -->
<g id="node10" class="node"><title>Node10</title>
<g id="a_node10"><a xlink:href="classengine.html#a1d9b806d03be0255a8ac3c119e181cc5" target="_top" xlink:title="engine::_run">
<polygon fill="none" stroke="black" points="1062,-0.5 1062,-19.5 1132,-19.5 1132,-0.5 1062,-0.5"/>
<text text-anchor="middle" x="1097" y="-7.5" font-family="Helvetica,sans-Serif" font-size="10.00">engine::_run</text>
</a>
</g>
</g>
<!-- Node9&#45;&gt;Node10 -->
<g id="edge9" class="edge"><title>Node9&#45;&gt;Node10</title>
<path fill="none" stroke="midnightblue" d="M1036.08,-21.1076C1044.66,-19.5164 1053.58,-17.8631 1061.83,-16.3335"/>
<polygon fill="midnightblue" stroke="midnightblue" points="1035.41,-17.672 1026.21,-22.936 1036.68,-24.5547 1035.41,-17.672"/>
</g>
<!-- Node10&#45;&gt;Node7 -->
<g id="edge11" class="edge"><title>Node10&#45;&gt;Node7</title>
<path fill="none" stroke="midnightblue" d="M1051.61,-7.84934C1024.74,-7.08197 989.829,-7.03059 959,-10 910.326,-14.6883 898.892,-21.1262 851,-31 837.154,-33.8545 821.959,-37.1331 808.688,-40.0447"/>
<polygon fill="midnightblue" stroke="midnightblue" points="1051.74,-11.3556 1061.85,-8.1874 1051.97,-4.35941 1051.74,-11.3556"/>
</g>
<!-- Node11 -->
<g id="node11" class="node"><title>Node11</title>
<g id="a_node11"><a xlink:href="classengine.html#aecb22d51cc8f83cacbf3696a18d66c30" target="_top" xlink:title="engine::run">
<polygon fill="none" stroke="black" points="1168,-0.5 1168,-19.5 1233,-19.5 1233,-0.5 1168,-0.5"/>
<text text-anchor="middle" x="1200.5" y="-7.5" font-family="Helvetica,sans-Serif" font-size="10.00">engine::run</text>
</a>
</g>
</g>
<!-- Node10&#45;&gt;Node11 -->
<g id="edge10" class="edge"><title>Node10&#45;&gt;Node11</title>
<path fill="none" stroke="midnightblue" d="M1142.33,-10C1150.88,-10 1159.68,-10 1167.74,-10"/>
<polygon fill="midnightblue" stroke="midnightblue" points="1142.08,-6.5001 1132.08,-10 1142.08,-13.5001 1142.08,-6.5001"/>
</g>
</g>
</svg>
