<?xml version="1.0" encoding="UTF-8" standalone="no"?>
<!DOCTYPE svg PUBLIC "-//W3C//DTD SVG 1.1//EN"
 "http://www.w3.org/Graphics/SVG/1.1/DTD/svg11.dtd">
<!-- Generated by graphviz version 2.38.0 (20140413.2041)
 -->
<!-- Title: DirectXRenderer::get_swap_chain_buffer_count Pages: 1 -->
<svg width="1126pt" height="104pt"
 viewBox="0.00 0.00 1126.00 104.00" xmlns="http://www.w3.org/2000/svg" xmlns:xlink="http://www.w3.org/1999/xlink">
<g id="graph0" class="graph" transform="scale(1 1) rotate(0) translate(4 100)">
<title>DirectXRenderer::get_swap_chain_buffer_count</title>
<!-- Node1 -->
<g id="node1" class="node"><title>Node1</title>
<polygon fill="#bfbfbf" stroke="black" points="0,-52 0,-82 131,-82 131,-52 0,-52"/>
<text text-anchor="start" x="8" y="-70" font-family="Helvetica,sans-Serif" font-size="10.00">DirectXRenderer::get</text>
<text text-anchor="middle" x="65.5" y="-59" font-family="Helvetica,sans-Serif" font-size="10.00">_swap_chain_buffer_count</text>
</g>
<!-- Node2 -->
<g id="node2" class="node"><title>Node2</title>
<g id="a_node2"><a xlink:href="class_direct_x_renderer.html#a0f9a3dabe2f03739ba06155572eef957" target="_top" xlink:title="DirectXRenderer::create\l_descriptor_heaps">
<polygon fill="none" stroke="black" points="167,-52 167,-82 286,-82 286,-52 167,-52"/>
<text text-anchor="start" x="175" y="-70" font-family="Helvetica,sans-Serif" font-size="10.00">DirectXRenderer::create</text>
<text text-anchor="middle" x="226.5" y="-59" font-family="Helvetica,sans-Serif" font-size="10.00">_descriptor_heaps</text>
</a>
</g>
</g>
<!-- Node1&#45;&gt;Node2 -->
<g id="edge1" class="edge"><title>Node1&#45;&gt;Node2</title>
<path fill="none" stroke="midnightblue" d="M141.192,-67C149.779,-67 158.44,-67 166.774,-67"/>
<polygon fill="midnightblue" stroke="midnightblue" points="141.171,-63.5001 131.171,-67 141.171,-70.5001 141.171,-63.5001"/>
</g>
<!-- Node3 -->
<g id="node3" class="node"><title>Node3</title>
<g id="a_node3"><a xlink:href="class_direct_x_renderer.html#a0d6aef4c838ac765f726391ee65c346c" target="_top" xlink:title="DirectXRenderer::initialize\l_direct3d">
<polygon fill="none" stroke="black" points="322,-52 322,-82 450,-82 450,-52 322,-52"/>
<text text-anchor="start" x="330" y="-70" font-family="Helvetica,sans-Serif" font-size="10.00">DirectXRenderer::initialize</text>
<text text-anchor="middle" x="386" y="-59" font-family="Helvetica,sans-Serif" font-size="10.00">_direct3d</text>
</a>
</g>
</g>
<!-- Node2&#45;&gt;Node3 -->
<g id="edge2" class="edge"><title>Node2&#45;&gt;Node3</title>
<path fill="none" stroke="midnightblue" d="M296.365,-67C304.826,-67 313.443,-67 321.814,-67"/>
<polygon fill="midnightblue" stroke="midnightblue" points="296.147,-63.5001 286.147,-67 296.147,-70.5001 296.147,-63.5001"/>
</g>
<!-- Node4 -->
<g id="node4" class="node"><title>Node4</title>
<g id="a_node4"><a xlink:href="classengine.html#a8b8dd82e72fd73e0601c30041529c4c0" target="_top" xlink:title="engine::_initialize">
<polygon fill="none" stroke="black" points="486,-57.5 486,-76.5 578,-76.5 578,-57.5 486,-57.5"/>
<text text-anchor="middle" x="532" y="-64.5" font-family="Helvetica,sans-Serif" font-size="10.00">engine::_initialize</text>
</a>
</g>
</g>
<!-- Node3&#45;&gt;Node4 -->
<g id="edge3" class="edge"><title>Node3&#45;&gt;Node4</title>
<path fill="none" stroke="midnightblue" d="M460.283,-67C468.922,-67 477.536,-67 485.627,-67"/>
<polygon fill="midnightblue" stroke="midnightblue" points="460.161,-63.5001 450.16,-67 460.16,-70.5001 460.161,-63.5001"/>
</g>
<!-- Node5 -->
<g id="node5" class="node"><title>Node5</title>
<g id="a_node5"><a xlink:href="classengine.html#a6809dcdfe78011851e377d4729a87ee4" target="_top" xlink:title="engine::initialize">
<polygon fill="none" stroke="black" points="614,-76.5 614,-95.5 700,-95.5 700,-76.5 614,-76.5"/>
<text text-anchor="middle" x="657" y="-83.5" font-family="Helvetica,sans-Serif" font-size="10.00">engine::initialize</text>
</a>
</g>
</g>
<!-- Node4&#45;&gt;Node5 -->
<g id="edge4" class="edge"><title>Node4&#45;&gt;Node5</title>
<path fill="none" stroke="midnightblue" d="M588.097,-75.5109C596.712,-76.8417 605.497,-78.1987 613.765,-79.4758"/>
<polygon fill="midnightblue" stroke="midnightblue" points="588.519,-72.0347 578.102,-73.967 587.451,-78.9527 588.519,-72.0347"/>
</g>
<!-- Node6 -->
<g id="node6" class="node"><title>Node6</title>
<g id="a_node6"><a xlink:href="classengine.html#ada832d0a14502f1b99fdbd5c72cab01b" target="_top" xlink:title="engine::Draw">
<polygon fill="none" stroke="black" points="620.5,-38.5 620.5,-57.5 693.5,-57.5 693.5,-38.5 620.5,-38.5"/>
<text text-anchor="middle" x="657" y="-45.5" font-family="Helvetica,sans-Serif" font-size="10.00">engine::Draw</text>
</a>
</g>
</g>
<!-- Node4&#45;&gt;Node6 -->
<g id="edge5" class="edge"><title>Node4&#45;&gt;Node6</title>
<path fill="none" stroke="midnightblue" d="M587.998,-58.5044C598.9,-56.8203 610.079,-55.0935 620.142,-53.5391"/>
<polygon fill="midnightblue" stroke="midnightblue" points="587.451,-55.0473 578.102,-60.033 588.519,-61.9653 587.451,-55.0473"/>
</g>
<!-- Node7 -->
<g id="node7" class="node"><title>Node7</title>
<g id="a_node7"><a xlink:href="classengine.html#a90418b124cd07d7d2f057e7d401ed641" target="_top" xlink:title="engine::_tick">
<polygon fill="none" stroke="black" points="736,-57.5 736,-76.5 808,-76.5 808,-57.5 736,-57.5"/>
<text text-anchor="middle" x="772" y="-64.5" font-family="Helvetica,sans-Serif" font-size="10.00">engine::_tick</text>
</a>
</g>
</g>
<!-- Node6&#45;&gt;Node7 -->
<g id="edge6" class="edge"><title>Node6&#45;&gt;Node7</title>
<path fill="none" stroke="midnightblue" d="M703.921,-49.0775C718.923,-51.2953 734.957,-54.3417 747.586,-57.4705"/>
<polygon fill="midnightblue" stroke="midnightblue" points="704.137,-45.5744 693.754,-47.6836 703.186,-52.5095 704.137,-45.5744"/>
</g>
<!-- Node7&#45;&gt;Node6 -->
<g id="edge12" class="edge"><title>Node7&#45;&gt;Node6</title>
<path fill="none" stroke="midnightblue" d="M725.371,-65.9655C710.285,-63.7442 694.125,-60.6786 681.414,-57.5295"/>
<polygon fill="midnightblue" stroke="midnightblue" points="725.206,-69.4754 735.588,-67.3592 726.152,-62.5397 725.206,-69.4754"/>
</g>
<!-- Node8 -->
<g id="node8" class="node"><title>Node8</title>
<g id="a_node8"><a xlink:href="classengine.html#a4bca5e9257e46c09a63f71227fc25a12" target="_top" xlink:title="engine::tick">
<polygon fill="none" stroke="black" points="844,-19.5 844,-38.5 911,-38.5 911,-19.5 844,-19.5"/>
<text text-anchor="middle" x="877.5" y="-26.5" font-family="Helvetica,sans-Serif" font-size="10.00">engine::tick</text>
</a>
</g>
</g>
<!-- Node7&#45;&gt;Node8 -->
<g id="edge7" class="edge"><title>Node7&#45;&gt;Node8</title>
<path fill="none" stroke="midnightblue" d="M808.729,-53.882C822.418,-48.8561 837.767,-43.2209 850.391,-38.5859"/>
<polygon fill="midnightblue" stroke="midnightblue" points="807.298,-50.6788 799.117,-57.411 809.711,-57.2499 807.298,-50.6788"/>
</g>
<!-- Node8&#45;&gt;Node6 -->
<g id="edge11" class="edge"><title>Node8&#45;&gt;Node6</title>
<path fill="none" stroke="midnightblue" d="M833.585,-32.7318C792.696,-36.2873 731.86,-41.5774 693.592,-44.905"/>
<polygon fill="midnightblue" stroke="midnightblue" points="834.122,-36.1984 843.781,-31.8451 833.515,-29.2247 834.122,-36.1984"/>
</g>
<!-- Node9 -->
<g id="node9" class="node"><title>Node9</title>
<g id="a_node9"><a xlink:href="classengine.html#a1d9b806d03be0255a8ac3c119e181cc5" target="_top" xlink:title="engine::_run">
<polygon fill="none" stroke="black" points="947,-0.5 947,-19.5 1017,-19.5 1017,-0.5 947,-0.5"/>
<text text-anchor="middle" x="982" y="-7.5" font-family="Helvetica,sans-Serif" font-size="10.00">engine::_run</text>
</a>
</g>
</g>
<!-- Node8&#45;&gt;Node9 -->
<g id="edge8" class="edge"><title>Node8&#45;&gt;Node9</title>
<path fill="none" stroke="midnightblue" d="M921.077,-21.1076C929.662,-19.5164 938.581,-17.8631 946.832,-16.3335"/>
<polygon fill="midnightblue" stroke="midnightblue" points="920.408,-17.672 911.213,-22.936 921.684,-24.5547 920.408,-17.672"/>
</g>
<!-- Node9&#45;&gt;Node6 -->
<g id="edge10" class="edge"><title>Node9&#45;&gt;Node6</title>
<path fill="none" stroke="midnightblue" d="M936.606,-7.84934C909.741,-7.08197 874.829,-7.03059 844,-10 795.326,-14.6883 783.892,-21.1262 736,-31 722.154,-33.8545 706.959,-37.1331 693.688,-40.0447"/>
<polygon fill="midnightblue" stroke="midnightblue" points="936.741,-11.3556 946.851,-8.1874 936.972,-4.35941 936.741,-11.3556"/>
</g>
<!-- Node10 -->
<g id="node10" class="node"><title>Node10</title>
<g id="a_node10"><a xlink:href="classengine.html#aecb22d51cc8f83cacbf3696a18d66c30" target="_top" xlink:title="engine::run">
<polygon fill="none" stroke="black" points="1053,-0.5 1053,-19.5 1118,-19.5 1118,-0.5 1053,-0.5"/>
<text text-anchor="middle" x="1085.5" y="-7.5" font-family="Helvetica,sans-Serif" font-size="10.00">engine::run</text>
</a>
</g>
</g>
<!-- Node9&#45;&gt;Node10 -->
<g id="edge9" class="edge"><title>Node9&#45;&gt;Node10</title>
<path fill="none" stroke="midnightblue" d="M1027.33,-10C1035.88,-10 1044.68,-10 1052.74,-10"/>
<polygon fill="midnightblue" stroke="midnightblue" points="1027.08,-6.5001 1017.08,-10 1027.08,-13.5001 1027.08,-6.5001"/>
</g>
</g>
</svg>
