<?xml version="1.0" encoding="UTF-8" standalone="no"?>
<!DOCTYPE svg PUBLIC "-//W3C//DTD SVG 1.1//EN"
 "http://www.w3.org/Graphics/SVG/1.1/DTD/svg11.dtd">
<!-- Generated by graphviz version 2.38.0 (20140413.2041)
 -->
<!-- Title: engine::OnResize Pages: 1 -->
<svg width="1002pt" height="104pt"
 viewBox="0.00 0.00 1002.00 104.00" xmlns="http://www.w3.org/2000/svg" xmlns:xlink="http://www.w3.org/1999/xlink">
<g id="graph0" class="graph" transform="scale(1 1) rotate(0) translate(4 100)">
<title>engine::OnResize</title>
<!-- Node1 -->
<g id="node1" class="node"><title>Node1</title>
<polygon fill="#bfbfbf" stroke="black" points="0,-57.5 0,-76.5 94,-76.5 94,-57.5 0,-57.5"/>
<text text-anchor="middle" x="47" y="-64.5" font-family="Helvetica,sans-Serif" font-size="10.00">engine::OnResize</text>
</g>
<!-- Node2 -->
<g id="node2" class="node"><title>Node2</title>
<g id="a_node2"><a xlink:href="classengine.html#a097517979864142f35d1969b5cf3d437" target="_top" xlink:title="engine::_resize">
<polygon fill="none" stroke="black" points="130,-57.5 130,-76.5 213,-76.5 213,-57.5 130,-57.5"/>
<text text-anchor="middle" x="171.5" y="-64.5" font-family="Helvetica,sans-Serif" font-size="10.00">engine::_resize</text>
</a>
</g>
</g>
<!-- Node1&#45;&gt;Node2 -->
<g id="edge1" class="edge"><title>Node1&#45;&gt;Node2</title>
<path fill="none" stroke="midnightblue" d="M104.566,-67C113.058,-67 121.671,-67 129.747,-67"/>
<polygon fill="midnightblue" stroke="midnightblue" points="104.312,-63.5001 94.312,-67 104.312,-70.5001 104.312,-63.5001"/>
</g>
<!-- Node3 -->
<g id="node3" class="node"><title>Node3</title>
<g id="a_node3"><a xlink:href="classengine.html#a2a83502d17f32c78093028f6009df8ba" target="_top" xlink:title="engine::resize">
<polygon fill="none" stroke="black" points="249,-57.5 249,-76.5 326,-76.5 326,-57.5 249,-57.5"/>
<text text-anchor="middle" x="287.5" y="-64.5" font-family="Helvetica,sans-Serif" font-size="10.00">engine::resize</text>
</a>
</g>
</g>
<!-- Node2&#45;&gt;Node3 -->
<g id="edge2" class="edge"><title>Node2&#45;&gt;Node3</title>
<path fill="none" stroke="midnightblue" d="M223.031,-67C231.684,-67 240.54,-67 248.785,-67"/>
<polygon fill="midnightblue" stroke="midnightblue" points="223.013,-63.5001 213.013,-67 223.013,-70.5001 223.013,-63.5001"/>
</g>
<!-- Node4 -->
<g id="node4" class="node"><title>Node4</title>
<g id="a_node4"><a xlink:href="classengine.html#a8b8dd82e72fd73e0601c30041529c4c0" target="_top" xlink:title="engine::_initialize">
<polygon fill="none" stroke="black" points="362,-57.5 362,-76.5 454,-76.5 454,-57.5 362,-57.5"/>
<text text-anchor="middle" x="408" y="-64.5" font-family="Helvetica,sans-Serif" font-size="10.00">engine::_initialize</text>
</a>
</g>
</g>
<!-- Node3&#45;&gt;Node4 -->
<g id="edge3" class="edge"><title>Node3&#45;&gt;Node4</title>
<path fill="none" stroke="midnightblue" d="M336.322,-67C344.688,-67 353.371,-67 361.668,-67"/>
<polygon fill="midnightblue" stroke="midnightblue" points="336.32,-63.5001 326.32,-67 336.32,-70.5001 336.32,-63.5001"/>
</g>
<!-- Node5 -->
<g id="node5" class="node"><title>Node5</title>
<g id="a_node5"><a xlink:href="classengine.html#a6809dcdfe78011851e377d4729a87ee4" target="_top" xlink:title="engine::initialize">
<polygon fill="none" stroke="black" points="490,-76.5 490,-95.5 576,-95.5 576,-76.5 490,-76.5"/>
<text text-anchor="middle" x="533" y="-83.5" font-family="Helvetica,sans-Serif" font-size="10.00">engine::initialize</text>
</a>
</g>
</g>
<!-- Node4&#45;&gt;Node5 -->
<g id="edge4" class="edge"><title>Node4&#45;&gt;Node5</title>
<path fill="none" stroke="midnightblue" d="M464.097,-75.5109C472.712,-76.8417 481.497,-78.1987 489.765,-79.4758"/>
<polygon fill="midnightblue" stroke="midnightblue" points="464.519,-72.0347 454.102,-73.967 463.451,-78.9527 464.519,-72.0347"/>
</g>
<!-- Node6 -->
<g id="node6" class="node"><title>Node6</title>
<g id="a_node6"><a xlink:href="classengine.html#ada832d0a14502f1b99fdbd5c72cab01b" target="_top" xlink:title="engine::Draw">
<polygon fill="none" stroke="black" points="496.5,-38.5 496.5,-57.5 569.5,-57.5 569.5,-38.5 496.5,-38.5"/>
<text text-anchor="middle" x="533" y="-45.5" font-family="Helvetica,sans-Serif" font-size="10.00">engine::Draw</text>
</a>
</g>
</g>
<!-- Node4&#45;&gt;Node6 -->
<g id="edge5" class="edge"><title>Node4&#45;&gt;Node6</title>
<path fill="none" stroke="midnightblue" d="M463.998,-58.5044C474.9,-56.8203 486.079,-55.0935 496.142,-53.5391"/>
<polygon fill="midnightblue" stroke="midnightblue" points="463.451,-55.0473 454.102,-60.033 464.519,-61.9653 463.451,-55.0473"/>
</g>
<!-- Node7 -->
<g id="node7" class="node"><title>Node7</title>
<g id="a_node7"><a xlink:href="classengine.html#a90418b124cd07d7d2f057e7d401ed641" target="_top" xlink:title="engine::_tick">
<polygon fill="none" stroke="black" points="612,-57.5 612,-76.5 684,-76.5 684,-57.5 612,-57.5"/>
<text text-anchor="middle" x="648" y="-64.5" font-family="Helvetica,sans-Serif" font-size="10.00">engine::_tick</text>
</a>
</g>
</g>
<!-- Node6&#45;&gt;Node7 -->
<g id="edge6" class="edge"><title>Node6&#45;&gt;Node7</title>
<path fill="none" stroke="midnightblue" d="M579.921,-49.0775C594.923,-51.2953 610.957,-54.3417 623.586,-57.4705"/>
<polygon fill="midnightblue" stroke="midnightblue" points="580.137,-45.5744 569.754,-47.6836 579.186,-52.5095 580.137,-45.5744"/>
</g>
<!-- Node7&#45;&gt;Node6 -->
<g id="edge12" class="edge"><title>Node7&#45;&gt;Node6</title>
<path fill="none" stroke="midnightblue" d="M601.371,-65.9655C586.285,-63.7442 570.125,-60.6786 557.414,-57.5295"/>
<polygon fill="midnightblue" stroke="midnightblue" points="601.206,-69.4754 611.588,-67.3592 602.152,-62.5397 601.206,-69.4754"/>
</g>
<!-- Node8 -->
<g id="node8" class="node"><title>Node8</title>
<g id="a_node8"><a xlink:href="classengine.html#a4bca5e9257e46c09a63f71227fc25a12" target="_top" xlink:title="engine::tick">
<polygon fill="none" stroke="black" points="720,-19.5 720,-38.5 787,-38.5 787,-19.5 720,-19.5"/>
<text text-anchor="middle" x="753.5" y="-26.5" font-family="Helvetica,sans-Serif" font-size="10.00">engine::tick</text>
</a>
</g>
</g>
<!-- Node7&#45;&gt;Node8 -->
<g id="edge7" class="edge"><title>Node7&#45;&gt;Node8</title>
<path fill="none" stroke="midnightblue" d="M684.729,-53.882C698.418,-48.8561 713.767,-43.2209 726.391,-38.5859"/>
<polygon fill="midnightblue" stroke="midnightblue" points="683.298,-50.6788 675.117,-57.411 685.711,-57.2499 683.298,-50.6788"/>
</g>
<!-- Node8&#45;&gt;Node6 -->
<g id="edge11" class="edge"><title>Node8&#45;&gt;Node6</title>
<path fill="none" stroke="midnightblue" d="M709.585,-32.7318C668.696,-36.2873 607.86,-41.5774 569.592,-44.905"/>
<polygon fill="midnightblue" stroke="midnightblue" points="710.122,-36.1984 719.781,-31.8451 709.515,-29.2247 710.122,-36.1984"/>
</g>
<!-- Node9 -->
<g id="node9" class="node"><title>Node9</title>
<g id="a_node9"><a xlink:href="classengine.html#a1d9b806d03be0255a8ac3c119e181cc5" target="_top" xlink:title="engine::_run">
<polygon fill="none" stroke="black" points="823,-0.5 823,-19.5 893,-19.5 893,-0.5 823,-0.5"/>
<text text-anchor="middle" x="858" y="-7.5" font-family="Helvetica,sans-Serif" font-size="10.00">engine::_run</text>
</a>
</g>
</g>
<!-- Node8&#45;&gt;Node9 -->
<g id="edge8" class="edge"><title>Node8&#45;&gt;Node9</title>
<path fill="none" stroke="midnightblue" d="M797.077,-21.1076C805.662,-19.5164 814.581,-17.8631 822.832,-16.3335"/>
<polygon fill="midnightblue" stroke="midnightblue" points="796.408,-17.672 787.213,-22.936 797.684,-24.5547 796.408,-17.672"/>
</g>
<!-- Node9&#45;&gt;Node6 -->
<g id="edge10" class="edge"><title>Node9&#45;&gt;Node6</title>
<path fill="none" stroke="midnightblue" d="M812.606,-7.84934C785.741,-7.08197 750.829,-7.03059 720,-10 671.326,-14.6883 659.892,-21.1262 612,-31 598.154,-33.8545 582.959,-37.1331 569.688,-40.0447"/>
<polygon fill="midnightblue" stroke="midnightblue" points="812.741,-11.3556 822.851,-8.1874 812.972,-4.35941 812.741,-11.3556"/>
</g>
<!-- Node10 -->
<g id="node10" class="node"><title>Node10</title>
<g id="a_node10"><a xlink:href="classengine.html#aecb22d51cc8f83cacbf3696a18d66c30" target="_top" xlink:title="engine::run">
<polygon fill="none" stroke="black" points="929,-0.5 929,-19.5 994,-19.5 994,-0.5 929,-0.5"/>
<text text-anchor="middle" x="961.5" y="-7.5" font-family="Helvetica,sans-Serif" font-size="10.00">engine::run</text>
</a>
</g>
</g>
<!-- Node9&#45;&gt;Node10 -->
<g id="edge9" class="edge"><title>Node9&#45;&gt;Node10</title>
<path fill="none" stroke="midnightblue" d="M903.325,-10C911.879,-10 920.681,-10 928.737,-10"/>
<polygon fill="midnightblue" stroke="midnightblue" points="903.08,-6.5001 893.08,-10 903.08,-13.5001 903.08,-6.5001"/>
</g>
</g>
</svg>
