<?xml version="1.0" encoding="UTF-8" standalone="no"?>
<!DOCTYPE svg PUBLIC "-//W3C//DTD SVG 1.1//EN"
 "http://www.w3.org/Graphics/SVG/1.1/DTD/svg11.dtd">
<!-- Generated by graphviz version 2.38.0 (20140413.2041)
 -->
<!-- Title: mt::Command::add_to_command_queue Pages: 1 -->
<svg width="468pt" height="88pt"
 viewBox="0.00 0.00 468.00 88.00" xmlns="http://www.w3.org/2000/svg" xmlns:xlink="http://www.w3.org/1999/xlink">
<g id="graph0" class="graph" transform="scale(1 1) rotate(0) translate(4 84)">
<title>mt::Command::add_to_command_queue</title>
<!-- Node1 -->
<g id="node1" class="node"><title>Node1</title>
<polygon fill="#bfbfbf" stroke="black" points="0,-24.5 0,-54.5 113,-54.5 113,-24.5 0,-24.5"/>
<text text-anchor="start" x="8" y="-42.5" font-family="Helvetica,sans-Serif" font-size="10.00">mt::Command::add_to</text>
<text text-anchor="middle" x="56.5" y="-31.5" font-family="Helvetica,sans-Serif" font-size="10.00">_command_queue</text>
</g>
<!-- Node2 -->
<g id="node2" class="node"><title>Node2</title>
<g id="a_node2"><a xlink:href="classengine.html#a3351563741589b6f8f05a53bbbe544a7" target="_top" xlink:title="engine::get_command\l_manager">
<polygon fill="none" stroke="black" points="156.5,-49.5 156.5,-79.5 269.5,-79.5 269.5,-49.5 156.5,-49.5"/>
<text text-anchor="start" x="164.5" y="-67.5" font-family="Helvetica,sans-Serif" font-size="10.00">engine::get_command</text>
<text text-anchor="middle" x="213" y="-56.5" font-family="Helvetica,sans-Serif" font-size="10.00">_manager</text>
</a>
</g>
</g>
<!-- Node1&#45;&gt;Node2 -->
<g id="edge1" class="edge"><title>Node1&#45;&gt;Node2</title>
<path fill="none" stroke="midnightblue" d="M113.278,-48.5256C123.999,-50.2603 135.319,-52.092 146.318,-53.8719"/>
<polygon fill="midnightblue" stroke="midnightblue" points="145.873,-57.3453 156.304,-55.4877 146.991,-50.4352 145.873,-57.3453"/>
</g>
<!-- Node4 -->
<g id="node4" class="node"><title>Node4</title>
<g id="a_node4"><a xlink:href="classmt_1_1_command_queue.html#a1e236f8d899abf2bc6b0e52e0b2bf691" target="_top" xlink:title="mt::CommandQueue::add\l_command">
<polygon fill="none" stroke="black" points="149,-0.5 149,-30.5 277,-30.5 277,-0.5 149,-0.5"/>
<text text-anchor="start" x="157" y="-18.5" font-family="Helvetica,sans-Serif" font-size="10.00">mt::CommandQueue::add</text>
<text text-anchor="middle" x="213" y="-7.5" font-family="Helvetica,sans-Serif" font-size="10.00">_command</text>
</a>
</g>
</g>
<!-- Node1&#45;&gt;Node4 -->
<g id="edge3" class="edge"><title>Node1&#45;&gt;Node4</title>
<path fill="none" stroke="midnightblue" d="M113.278,-30.8354C121.603,-29.5423 130.289,-28.193 138.906,-26.8544"/>
<polygon fill="midnightblue" stroke="midnightblue" points="139.62,-30.2856 148.964,-25.292 138.545,-23.3686 139.62,-30.2856"/>
</g>
<!-- Node3 -->
<g id="node3" class="node"><title>Node3</title>
<g id="a_node3"><a xlink:href="classengine.html#a240cde5717390f5f154bc9e4af2c36eb" target="_top" xlink:title="engine::get_engine">
<polygon fill="none" stroke="black" points="337.5,-55 337.5,-74 435.5,-74 435.5,-55 337.5,-55"/>
<text text-anchor="middle" x="386.5" y="-62" font-family="Helvetica,sans-Serif" font-size="10.00">engine::get_engine</text>
</a>
</g>
</g>
<!-- Node2&#45;&gt;Node3 -->
<g id="edge2" class="edge"><title>Node2&#45;&gt;Node3</title>
<path fill="none" stroke="midnightblue" d="M269.681,-64.5C288.084,-64.5 308.603,-64.5 327.196,-64.5"/>
<polygon fill="midnightblue" stroke="midnightblue" points="327.303,-68.0001 337.303,-64.5 327.302,-61.0001 327.303,-68.0001"/>
</g>
<!-- Node5 -->
<g id="node5" class="node"><title>Node5</title>
<g id="a_node5"><a xlink:href="classmt_1_1_command_queue.html#a17f0a42a4f078a938b3ac80c67055879" target="_top" xlink:title="mt::CommandQueue::execute\l_commands">
<polygon fill="none" stroke="black" points="313,-0.5 313,-30.5 460,-30.5 460,-0.5 313,-0.5"/>
<text text-anchor="start" x="321" y="-18.5" font-family="Helvetica,sans-Serif" font-size="10.00">mt::CommandQueue::execute</text>
<text text-anchor="middle" x="386.5" y="-7.5" font-family="Helvetica,sans-Serif" font-size="10.00">_commands</text>
</a>
</g>
</g>
<!-- Node4&#45;&gt;Node5 -->
<g id="edge4" class="edge"><title>Node4&#45;&gt;Node5</title>
<path fill="none" stroke="midnightblue" d="M277.373,-15.5C285.671,-15.5 294.27,-15.5 302.828,-15.5"/>
<polygon fill="midnightblue" stroke="midnightblue" points="302.836,-19.0001 312.836,-15.5 302.836,-12.0001 302.836,-19.0001"/>
</g>
</g>
</svg>
