<?xml version="1.0" encoding="UTF-8" standalone="no"?>
<!DOCTYPE svg PUBLIC "-//W3C//DTD SVG 1.1//EN"
 "http://www.w3.org/Graphics/SVG/1.1/DTD/svg11.dtd">
<!-- Generated by graphviz version 2.38.0 (20140413.2041)
 -->
<!-- Title: engine::get_is_resizing Pages: 1 -->
<svg width="675pt" height="113pt"
 viewBox="0.00 0.00 675.00 113.00" xmlns="http://www.w3.org/2000/svg" xmlns:xlink="http://www.w3.org/1999/xlink">
<g id="graph0" class="graph" transform="scale(1 1) rotate(0) translate(4 109)">
<title>engine::get_is_resizing</title>
<!-- Node1 -->
<g id="node1" class="node"><title>Node1</title>
<polygon fill="#bfbfbf" stroke="black" points="0,-0.5 0,-19.5 116,-19.5 116,-0.5 0,-0.5"/>
<text text-anchor="middle" x="58" y="-7.5" font-family="Helvetica,sans-Serif" font-size="10.00">engine::get_is_resizing</text>
</g>
<!-- Node2 -->
<g id="node2" class="node"><title>Node2</title>
<g id="a_node2"><a xlink:href="class_game_timer.html#a20aa18e5ab02ae786083c131107afe32" target="_top" xlink:title="GameTimer::tick">
<polygon fill="none" stroke="black" points="152,-0.5 152,-19.5 241,-19.5 241,-0.5 152,-0.5"/>
<text text-anchor="middle" x="196.5" y="-7.5" font-family="Helvetica,sans-Serif" font-size="10.00">GameTimer::tick</text>
</a>
</g>
</g>
<!-- Node1&#45;&gt;Node2 -->
<g id="edge1" class="edge"><title>Node1&#45;&gt;Node2</title>
<path fill="none" stroke="midnightblue" d="M126.284,-10C134.999,-10 143.735,-10 151.924,-10"/>
<polygon fill="midnightblue" stroke="midnightblue" points="126.097,-6.5001 116.097,-10 126.097,-13.5001 126.097,-6.5001"/>
</g>
<!-- Node3 -->
<g id="node3" class="node"><title>Node3</title>
<g id="a_node3"><a xlink:href="classengine.html#a90418b124cd07d7d2f057e7d401ed641" target="_top" xlink:title="engine::_tick">
<polygon fill="none" stroke="black" points="277,-0.5 277,-19.5 349,-19.5 349,-0.5 277,-0.5"/>
<text text-anchor="middle" x="313" y="-7.5" font-family="Helvetica,sans-Serif" font-size="10.00">engine::_tick</text>
</a>
</g>
</g>
<!-- Node2&#45;&gt;Node3 -->
<g id="edge2" class="edge"><title>Node2&#45;&gt;Node3</title>
<path fill="none" stroke="midnightblue" d="M251.178,-10C259.834,-10 268.6,-10 276.679,-10"/>
<polygon fill="midnightblue" stroke="midnightblue" points="251.114,-6.5001 241.114,-10 251.114,-13.5001 251.114,-6.5001"/>
</g>
<!-- Node4 -->
<g id="node4" class="node"><title>Node4</title>
<g id="a_node4"><a xlink:href="classengine.html#a4bca5e9257e46c09a63f71227fc25a12" target="_top" xlink:title="engine::tick">
<polygon fill="none" stroke="black" points="385,-47.5 385,-66.5 452,-66.5 452,-47.5 385,-47.5"/>
<text text-anchor="middle" x="418.5" y="-54.5" font-family="Helvetica,sans-Serif" font-size="10.00">engine::tick</text>
</a>
</g>
</g>
<!-- Node3&#45;&gt;Node4 -->
<g id="edge3" class="edge"><title>Node3&#45;&gt;Node4</title>
<path fill="none" stroke="midnightblue" d="M344.277,-23.7491C360.952,-31.3212 381.242,-40.535 396.231,-47.3417"/>
<polygon fill="midnightblue" stroke="midnightblue" points="345.497,-20.4591 334.945,-19.5112 342.603,-26.8327 345.497,-20.4591"/>
</g>
<!-- Node7 -->
<g id="node7" class="node"><title>Node7</title>
<g id="a_node7"><a xlink:href="classengine.html#ada832d0a14502f1b99fdbd5c72cab01b" target="_top" xlink:title="engine::Draw">
<polygon fill="none" stroke="black" points="594,-23.5 594,-42.5 667,-42.5 667,-23.5 594,-23.5"/>
<text text-anchor="middle" x="630.5" y="-30.5" font-family="Helvetica,sans-Serif" font-size="10.00">engine::Draw</text>
</a>
</g>
</g>
<!-- Node3&#45;&gt;Node7 -->
<g id="edge9" class="edge"><title>Node3&#45;&gt;Node7</title>
<path fill="none" stroke="midnightblue" d="M359.368,-8.4C422.723,-10.4209 536.381,-18.8554 593.971,-25.949"/>
<polygon fill="midnightblue" stroke="midnightblue" points="359.366,-4.89871 349.273,-8.12345 359.174,-11.8961 359.366,-4.89871"/>
</g>
<!-- Node5 -->
<g id="node5" class="node"><title>Node5</title>
<g id="a_node5"><a xlink:href="classengine.html#a1d9b806d03be0255a8ac3c119e181cc5" target="_top" xlink:title="engine::_run">
<polygon fill="none" stroke="black" points="488,-85.5 488,-104.5 558,-104.5 558,-85.5 488,-85.5"/>
<text text-anchor="middle" x="523" y="-92.5" font-family="Helvetica,sans-Serif" font-size="10.00">engine::_run</text>
</a>
</g>
</g>
<!-- Node4&#45;&gt;Node5 -->
<g id="edge4" class="edge"><title>Node4&#45;&gt;Node5</title>
<path fill="none" stroke="midnightblue" d="M454.884,-70.118C468.441,-75.1439 483.641,-80.7791 496.143,-85.4141"/>
<polygon fill="midnightblue" stroke="midnightblue" points="455.958,-66.7835 445.365,-66.589 453.525,-73.3469 455.958,-66.7835"/>
</g>
<!-- Node4&#45;&gt;Node7 -->
<g id="edge8" class="edge"><title>Node4&#45;&gt;Node7</title>
<path fill="none" stroke="midnightblue" d="M462.739,-52.0584C501.447,-47.6346 557.53,-41.2252 593.757,-37.0849"/>
<polygon fill="midnightblue" stroke="midnightblue" points="461.85,-48.6371 452.313,-53.25 462.645,-55.5918 461.85,-48.6371"/>
</g>
<!-- Node6 -->
<g id="node6" class="node"><title>Node6</title>
<g id="a_node6"><a xlink:href="classengine.html#aecb22d51cc8f83cacbf3696a18d66c30" target="_top" xlink:title="engine::run">
<polygon fill="none" stroke="black" points="598,-85.5 598,-104.5 663,-104.5 663,-85.5 598,-85.5"/>
<text text-anchor="middle" x="630.5" y="-92.5" font-family="Helvetica,sans-Serif" font-size="10.00">engine::run</text>
</a>
</g>
</g>
<!-- Node5&#45;&gt;Node6 -->
<g id="edge5" class="edge"><title>Node5&#45;&gt;Node6</title>
<path fill="none" stroke="midnightblue" d="M568.387,-95C578.311,-95 588.639,-95 597.92,-95"/>
<polygon fill="midnightblue" stroke="midnightblue" points="568.253,-91.5001 558.253,-95 568.253,-98.5001 568.253,-91.5001"/>
</g>
<!-- Node5&#45;&gt;Node7 -->
<g id="edge6" class="edge"><title>Node5&#45;&gt;Node7</title>
<path fill="none" stroke="midnightblue" d="M549.288,-80.1387C569.095,-68.4984 596.066,-52.6485 613.131,-42.6195"/>
<polygon fill="midnightblue" stroke="midnightblue" points="547.332,-77.2283 540.484,-85.3125 550.879,-83.2633 547.332,-77.2283"/>
</g>
<!-- Node7&#45;&gt;Node3 -->
<g id="edge7" class="edge"><title>Node7&#45;&gt;Node3</title>
<path fill="none" stroke="midnightblue" d="M583.85,-34.591C520.347,-32.5511 406.698,-24.1091 349.273,-17.0194"/>
<polygon fill="midnightblue" stroke="midnightblue" points="583.878,-38.093 593.971,-34.8708 584.072,-31.0957 583.878,-38.093"/>
</g>
</g>
</svg>
