<?xml version="1.0" encoding="UTF-8" standalone="no"?>
<!DOCTYPE svg PUBLIC "-//W3C//DTD SVG 1.1//EN"
 "http://www.w3.org/Graphics/SVG/1.1/DTD/svg11.dtd">
<!-- Generated by graphviz version 2.38.0 (20140413.2041)
 -->
<!-- Title: Camera::LookAt Pages: 1 -->
<svg width="1337pt" height="135pt"
 viewBox="0.00 0.00 1337.00 134.50" xmlns="http://www.w3.org/2000/svg" xmlns:xlink="http://www.w3.org/1999/xlink">
<g id="graph0" class="graph" transform="scale(1 1) rotate(0) translate(4 130.5)">
<title>Camera::LookAt</title>
<!-- Node1 -->
<g id="node1" class="node"><title>Node1</title>
<polygon fill="#bfbfbf" stroke="black" points="0,-79.5 0,-98.5 87,-98.5 87,-79.5 0,-79.5"/>
<text text-anchor="middle" x="43.5" y="-86.5" font-family="Helvetica,sans-Serif" font-size="10.00">Camera::LookAt</text>
</g>
<!-- Node2 -->
<g id="node2" class="node"><title>Node2</title>
<g id="a_node2"><a xlink:href="class_camera.html#a5619188052108689a7a3171597fca7b6" target="_top" xlink:title="Camera::SetLens">
<polygon fill="none" stroke="black" points="123,-79.5 123,-98.5 215,-98.5 215,-79.5 123,-79.5"/>
<text text-anchor="middle" x="169" y="-86.5" font-family="Helvetica,sans-Serif" font-size="10.00">Camera::SetLens</text>
</a>
</g>
</g>
<!-- Node1&#45;&gt;Node2 -->
<g id="edge1" class="edge"><title>Node1&#45;&gt;Node2</title>
<path fill="none" stroke="midnightblue" d="M97.2524,-89C105.788,-89 114.559,-89 122.892,-89"/>
<polygon fill="midnightblue" stroke="midnightblue" points="97.0017,-85.5001 87.0017,-89 97.0017,-92.5001 97.0017,-85.5001"/>
</g>
<!-- Node3 -->
<g id="node3" class="node"><title>Node3</title>
<g id="a_node3"><a xlink:href="class_direct_x_renderer.html#ae823daf9d77db0f506320f7171cb117d" target="_top" xlink:title="DirectXRenderer::resize">
<polygon fill="none" stroke="black" points="251,-79.5 251,-98.5 370,-98.5 370,-79.5 251,-79.5"/>
<text text-anchor="middle" x="310.5" y="-86.5" font-family="Helvetica,sans-Serif" font-size="10.00">DirectXRenderer::resize</text>
</a>
</g>
</g>
<!-- Node2&#45;&gt;Node3 -->
<g id="edge2" class="edge"><title>Node2&#45;&gt;Node3</title>
<path fill="none" stroke="midnightblue" d="M225.372,-89C233.783,-89 242.485,-89 250.961,-89"/>
<polygon fill="midnightblue" stroke="midnightblue" points="225.292,-85.5001 215.292,-89 225.292,-92.5001 225.292,-85.5001"/>
</g>
<!-- Node4 -->
<g id="node4" class="node"><title>Node4</title>
<g id="a_node4"><a xlink:href="class_direct_x_renderer.html#a252d9ba8d713ba462c54a3dadfda2f59" target="_top" xlink:title="DirectXRenderer::Set4xMsaa\lState">
<polygon fill="none" stroke="black" points="406,-96 406,-126 548,-126 548,-96 406,-96"/>
<text text-anchor="start" x="414" y="-114" font-family="Helvetica,sans-Serif" font-size="10.00">DirectXRenderer::Set4xMsaa</text>
<text text-anchor="middle" x="477" y="-103" font-family="Helvetica,sans-Serif" font-size="10.00">State</text>
</a>
</g>
</g>
<!-- Node3&#45;&gt;Node4 -->
<g id="edge3" class="edge"><title>Node3&#45;&gt;Node4</title>
<path fill="none" stroke="midnightblue" d="M380.559,-98.2359C388.966,-99.3602 397.561,-100.51 405.981,-101.636"/>
<polygon fill="midnightblue" stroke="midnightblue" points="380.799,-94.7369 370.424,-96.8804 379.871,-101.675 380.799,-94.7369"/>
</g>
<!-- Node5 -->
<g id="node5" class="node"><title>Node5</title>
<g id="a_node5"><a xlink:href="classengine.html#a097517979864142f35d1969b5cf3d437" target="_top" xlink:title="engine::_resize">
<polygon fill="none" stroke="black" points="435.5,-57.5 435.5,-76.5 518.5,-76.5 518.5,-57.5 435.5,-57.5"/>
<text text-anchor="middle" x="477" y="-64.5" font-family="Helvetica,sans-Serif" font-size="10.00">engine::_resize</text>
</a>
</g>
</g>
<!-- Node3&#45;&gt;Node5 -->
<g id="edge4" class="edge"><title>Node3&#45;&gt;Node5</title>
<path fill="none" stroke="midnightblue" d="M380.379,-79.7882C399.055,-77.2905 418.677,-74.6663 435.252,-72.4496"/>
<polygon fill="midnightblue" stroke="midnightblue" points="379.871,-76.3249 370.424,-81.1196 380.799,-83.2631 379.871,-76.3249"/>
</g>
<!-- Node6 -->
<g id="node6" class="node"><title>Node6</title>
<g id="a_node6"><a xlink:href="classengine.html#a2a83502d17f32c78093028f6009df8ba" target="_top" xlink:title="engine::resize">
<polygon fill="none" stroke="black" points="584,-57.5 584,-76.5 661,-76.5 661,-57.5 584,-57.5"/>
<text text-anchor="middle" x="622.5" y="-64.5" font-family="Helvetica,sans-Serif" font-size="10.00">engine::resize</text>
</a>
</g>
</g>
<!-- Node5&#45;&gt;Node6 -->
<g id="edge5" class="edge"><title>Node5&#45;&gt;Node6</title>
<path fill="none" stroke="midnightblue" d="M528.814,-67C546.859,-67 566.839,-67 583.615,-67"/>
<polygon fill="midnightblue" stroke="midnightblue" points="528.738,-63.5001 518.737,-67 528.737,-70.5001 528.738,-63.5001"/>
</g>
<!-- Node7 -->
<g id="node7" class="node"><title>Node7</title>
<g id="a_node7"><a xlink:href="classengine.html#a8b8dd82e72fd73e0601c30041529c4c0" target="_top" xlink:title="engine::_initialize">
<polygon fill="none" stroke="black" points="697,-57.5 697,-76.5 789,-76.5 789,-57.5 697,-57.5"/>
<text text-anchor="middle" x="743" y="-64.5" font-family="Helvetica,sans-Serif" font-size="10.00">engine::_initialize</text>
</a>
</g>
</g>
<!-- Node6&#45;&gt;Node7 -->
<g id="edge6" class="edge"><title>Node6&#45;&gt;Node7</title>
<path fill="none" stroke="midnightblue" d="M671.322,-67C679.688,-67 688.371,-67 696.668,-67"/>
<polygon fill="midnightblue" stroke="midnightblue" points="671.32,-63.5001 661.32,-67 671.32,-70.5001 671.32,-63.5001"/>
</g>
<!-- Node8 -->
<g id="node8" class="node"><title>Node8</title>
<g id="a_node8"><a xlink:href="classengine.html#a6809dcdfe78011851e377d4729a87ee4" target="_top" xlink:title="engine::initialize">
<polygon fill="none" stroke="black" points="825,-76.5 825,-95.5 911,-95.5 911,-76.5 825,-76.5"/>
<text text-anchor="middle" x="868" y="-83.5" font-family="Helvetica,sans-Serif" font-size="10.00">engine::initialize</text>
</a>
</g>
</g>
<!-- Node7&#45;&gt;Node8 -->
<g id="edge7" class="edge"><title>Node7&#45;&gt;Node8</title>
<path fill="none" stroke="midnightblue" d="M799.097,-75.5109C807.712,-76.8417 816.497,-78.1987 824.765,-79.4758"/>
<polygon fill="midnightblue" stroke="midnightblue" points="799.519,-72.0347 789.102,-73.967 798.451,-78.9527 799.519,-72.0347"/>
</g>
<!-- Node9 -->
<g id="node9" class="node"><title>Node9</title>
<g id="a_node9"><a xlink:href="classengine.html#ada832d0a14502f1b99fdbd5c72cab01b" target="_top" xlink:title="engine::Draw">
<polygon fill="none" stroke="black" points="831.5,-38.5 831.5,-57.5 904.5,-57.5 904.5,-38.5 831.5,-38.5"/>
<text text-anchor="middle" x="868" y="-45.5" font-family="Helvetica,sans-Serif" font-size="10.00">engine::Draw</text>
</a>
</g>
</g>
<!-- Node7&#45;&gt;Node9 -->
<g id="edge8" class="edge"><title>Node7&#45;&gt;Node9</title>
<path fill="none" stroke="midnightblue" d="M798.998,-58.5044C809.9,-56.8203 821.079,-55.0935 831.142,-53.5391"/>
<polygon fill="midnightblue" stroke="midnightblue" points="798.451,-55.0473 789.102,-60.033 799.519,-61.9653 798.451,-55.0473"/>
</g>
<!-- Node10 -->
<g id="node10" class="node"><title>Node10</title>
<g id="a_node10"><a xlink:href="classengine.html#a90418b124cd07d7d2f057e7d401ed641" target="_top" xlink:title="engine::_tick">
<polygon fill="none" stroke="black" points="947,-57.5 947,-76.5 1019,-76.5 1019,-57.5 947,-57.5"/>
<text text-anchor="middle" x="983" y="-64.5" font-family="Helvetica,sans-Serif" font-size="10.00">engine::_tick</text>
</a>
</g>
</g>
<!-- Node9&#45;&gt;Node10 -->
<g id="edge9" class="edge"><title>Node9&#45;&gt;Node10</title>
<path fill="none" stroke="midnightblue" d="M914.921,-49.0775C929.923,-51.2953 945.957,-54.3417 958.586,-57.4705"/>
<polygon fill="midnightblue" stroke="midnightblue" points="915.137,-45.5744 904.754,-47.6836 914.186,-52.5095 915.137,-45.5744"/>
</g>
<!-- Node10&#45;&gt;Node9 -->
<g id="edge15" class="edge"><title>Node10&#45;&gt;Node9</title>
<path fill="none" stroke="midnightblue" d="M936.371,-65.9655C921.285,-63.7442 905.125,-60.6786 892.414,-57.5295"/>
<polygon fill="midnightblue" stroke="midnightblue" points="936.206,-69.4754 946.588,-67.3592 937.152,-62.5397 936.206,-69.4754"/>
</g>
<!-- Node11 -->
<g id="node11" class="node"><title>Node11</title>
<g id="a_node11"><a xlink:href="classengine.html#a4bca5e9257e46c09a63f71227fc25a12" target="_top" xlink:title="engine::tick">
<polygon fill="none" stroke="black" points="1055,-19.5 1055,-38.5 1122,-38.5 1122,-19.5 1055,-19.5"/>
<text text-anchor="middle" x="1088.5" y="-26.5" font-family="Helvetica,sans-Serif" font-size="10.00">engine::tick</text>
</a>
</g>
</g>
<!-- Node10&#45;&gt;Node11 -->
<g id="edge10" class="edge"><title>Node10&#45;&gt;Node11</title>
<path fill="none" stroke="midnightblue" d="M1019.73,-53.882C1033.42,-48.8561 1048.77,-43.2209 1061.39,-38.5859"/>
<polygon fill="midnightblue" stroke="midnightblue" points="1018.3,-50.6788 1010.12,-57.411 1020.71,-57.2499 1018.3,-50.6788"/>
</g>
<!-- Node11&#45;&gt;Node9 -->
<g id="edge14" class="edge"><title>Node11&#45;&gt;Node9</title>
<path fill="none" stroke="midnightblue" d="M1044.58,-32.7318C1003.7,-36.2873 942.86,-41.5774 904.592,-44.905"/>
<polygon fill="midnightblue" stroke="midnightblue" points="1045.12,-36.1984 1054.78,-31.8451 1044.52,-29.2247 1045.12,-36.1984"/>
</g>
<!-- Node12 -->
<g id="node12" class="node"><title>Node12</title>
<g id="a_node12"><a xlink:href="classengine.html#a1d9b806d03be0255a8ac3c119e181cc5" target="_top" xlink:title="engine::_run">
<polygon fill="none" stroke="black" points="1158,-0.5 1158,-19.5 1228,-19.5 1228,-0.5 1158,-0.5"/>
<text text-anchor="middle" x="1193" y="-7.5" font-family="Helvetica,sans-Serif" font-size="10.00">engine::_run</text>
</a>
</g>
</g>
<!-- Node11&#45;&gt;Node12 -->
<g id="edge11" class="edge"><title>Node11&#45;&gt;Node12</title>
<path fill="none" stroke="midnightblue" d="M1132.08,-21.1076C1140.66,-19.5164 1149.58,-17.8631 1157.83,-16.3335"/>
<polygon fill="midnightblue" stroke="midnightblue" points="1131.41,-17.672 1122.21,-22.936 1132.68,-24.5547 1131.41,-17.672"/>
</g>
<!-- Node12&#45;&gt;Node9 -->
<g id="edge13" class="edge"><title>Node12&#45;&gt;Node9</title>
<path fill="none" stroke="midnightblue" d="M1147.61,-7.84934C1120.74,-7.08197 1085.83,-7.03059 1055,-10 1006.33,-14.6883 994.892,-21.1262 947,-31 933.154,-33.8545 917.959,-37.1331 904.688,-40.0447"/>
<polygon fill="midnightblue" stroke="midnightblue" points="1147.74,-11.3556 1157.85,-8.1874 1147.97,-4.35941 1147.74,-11.3556"/>
</g>
<!-- Node13 -->
<g id="node13" class="node"><title>Node13</title>
<g id="a_node13"><a xlink:href="classengine.html#aecb22d51cc8f83cacbf3696a18d66c30" target="_top" xlink:title="engine::run">
<polygon fill="none" stroke="black" points="1264,-0.5 1264,-19.5 1329,-19.5 1329,-0.5 1264,-0.5"/>
<text text-anchor="middle" x="1296.5" y="-7.5" font-family="Helvetica,sans-Serif" font-size="10.00">engine::run</text>
</a>
</g>
</g>
<!-- Node12&#45;&gt;Node13 -->
<g id="edge12" class="edge"><title>Node12&#45;&gt;Node13</title>
<path fill="none" stroke="midnightblue" d="M1238.33,-10C1246.88,-10 1255.68,-10 1263.74,-10"/>
<polygon fill="midnightblue" stroke="midnightblue" points="1238.08,-6.5001 1228.08,-10 1238.08,-13.5001 1238.08,-6.5001"/>
</g>
</g>
</svg>
