<?xml version="1.0" encoding="UTF-8" standalone="no"?>
<!DOCTYPE svg PUBLIC "-//W3C//DTD SVG 1.1//EN"
 "http://www.w3.org/Graphics/SVG/1.1/DTD/svg11.dtd">
<!-- Generated by graphviz version 2.38.0 (20140413.2041)
 -->
<!-- Title: GameTimer::is_paused Pages: 1 -->
<svg width="551pt" height="113pt"
 viewBox="0.00 0.00 551.00 113.00" xmlns="http://www.w3.org/2000/svg" xmlns:xlink="http://www.w3.org/1999/xlink">
<g id="graph0" class="graph" transform="scale(1 1) rotate(0) translate(4 109)">
<title>GameTimer::is_paused</title>
<!-- Node1 -->
<g id="node1" class="node"><title>Node1</title>
<polygon fill="#bfbfbf" stroke="black" points="0,-0.5 0,-19.5 117,-19.5 117,-0.5 0,-0.5"/>
<text text-anchor="middle" x="58.5" y="-7.5" font-family="Helvetica,sans-Serif" font-size="10.00">GameTimer::is_paused</text>
</g>
<!-- Node2 -->
<g id="node2" class="node"><title>Node2</title>
<g id="a_node2"><a xlink:href="classengine.html#a90418b124cd07d7d2f057e7d401ed641" target="_top" xlink:title="engine::_tick">
<polygon fill="none" stroke="black" points="153,-0.5 153,-19.5 225,-19.5 225,-0.5 153,-0.5"/>
<text text-anchor="middle" x="189" y="-7.5" font-family="Helvetica,sans-Serif" font-size="10.00">engine::_tick</text>
</a>
</g>
</g>
<!-- Node1&#45;&gt;Node2 -->
<g id="edge1" class="edge"><title>Node1&#45;&gt;Node2</title>
<path fill="none" stroke="midnightblue" d="M127.623,-10C136.362,-10 145.004,-10 152.901,-10"/>
<polygon fill="midnightblue" stroke="midnightblue" points="127.36,-6.5001 117.36,-10 127.359,-13.5001 127.36,-6.5001"/>
</g>
<!-- Node3 -->
<g id="node3" class="node"><title>Node3</title>
<g id="a_node3"><a xlink:href="classengine.html#a4bca5e9257e46c09a63f71227fc25a12" target="_top" xlink:title="engine::tick">
<polygon fill="none" stroke="black" points="261,-47.5 261,-66.5 328,-66.5 328,-47.5 261,-47.5"/>
<text text-anchor="middle" x="294.5" y="-54.5" font-family="Helvetica,sans-Serif" font-size="10.00">engine::tick</text>
</a>
</g>
</g>
<!-- Node2&#45;&gt;Node3 -->
<g id="edge2" class="edge"><title>Node2&#45;&gt;Node3</title>
<path fill="none" stroke="midnightblue" d="M220.277,-23.7491C236.952,-31.3212 257.242,-40.535 272.231,-47.3417"/>
<polygon fill="midnightblue" stroke="midnightblue" points="221.497,-20.4591 210.945,-19.5112 218.603,-26.8327 221.497,-20.4591"/>
</g>
<!-- Node6 -->
<g id="node6" class="node"><title>Node6</title>
<g id="a_node6"><a xlink:href="classengine.html#ada832d0a14502f1b99fdbd5c72cab01b" target="_top" xlink:title="engine::Draw">
<polygon fill="none" stroke="black" points="470,-23.5 470,-42.5 543,-42.5 543,-23.5 470,-23.5"/>
<text text-anchor="middle" x="506.5" y="-30.5" font-family="Helvetica,sans-Serif" font-size="10.00">engine::Draw</text>
</a>
</g>
</g>
<!-- Node2&#45;&gt;Node6 -->
<g id="edge8" class="edge"><title>Node2&#45;&gt;Node6</title>
<path fill="none" stroke="midnightblue" d="M235.368,-8.4C298.723,-10.4209 412.381,-18.8554 469.971,-25.949"/>
<polygon fill="midnightblue" stroke="midnightblue" points="235.366,-4.89871 225.273,-8.12345 235.174,-11.8961 235.366,-4.89871"/>
</g>
<!-- Node4 -->
<g id="node4" class="node"><title>Node4</title>
<g id="a_node4"><a xlink:href="classengine.html#a1d9b806d03be0255a8ac3c119e181cc5" target="_top" xlink:title="engine::_run">
<polygon fill="none" stroke="black" points="364,-85.5 364,-104.5 434,-104.5 434,-85.5 364,-85.5"/>
<text text-anchor="middle" x="399" y="-92.5" font-family="Helvetica,sans-Serif" font-size="10.00">engine::_run</text>
</a>
</g>
</g>
<!-- Node3&#45;&gt;Node4 -->
<g id="edge3" class="edge"><title>Node3&#45;&gt;Node4</title>
<path fill="none" stroke="midnightblue" d="M330.884,-70.118C344.441,-75.1439 359.641,-80.7791 372.143,-85.4141"/>
<polygon fill="midnightblue" stroke="midnightblue" points="331.958,-66.7835 321.365,-66.589 329.525,-73.3469 331.958,-66.7835"/>
</g>
<!-- Node3&#45;&gt;Node6 -->
<g id="edge7" class="edge"><title>Node3&#45;&gt;Node6</title>
<path fill="none" stroke="midnightblue" d="M338.739,-52.0584C377.447,-47.6346 433.53,-41.2252 469.757,-37.0849"/>
<polygon fill="midnightblue" stroke="midnightblue" points="337.85,-48.6371 328.313,-53.25 338.645,-55.5918 337.85,-48.6371"/>
</g>
<!-- Node5 -->
<g id="node5" class="node"><title>Node5</title>
<g id="a_node5"><a xlink:href="classengine.html#aecb22d51cc8f83cacbf3696a18d66c30" target="_top" xlink:title="engine::run">
<polygon fill="none" stroke="black" points="474,-85.5 474,-104.5 539,-104.5 539,-85.5 474,-85.5"/>
<text text-anchor="middle" x="506.5" y="-92.5" font-family="Helvetica,sans-Serif" font-size="10.00">engine::run</text>
</a>
</g>
</g>
<!-- Node4&#45;&gt;Node5 -->
<g id="edge4" class="edge"><title>Node4&#45;&gt;Node5</title>
<path fill="none" stroke="midnightblue" d="M444.387,-95C454.311,-95 464.639,-95 473.92,-95"/>
<polygon fill="midnightblue" stroke="midnightblue" points="444.253,-91.5001 434.253,-95 444.253,-98.5001 444.253,-91.5001"/>
</g>
<!-- Node4&#45;&gt;Node6 -->
<g id="edge5" class="edge"><title>Node4&#45;&gt;Node6</title>
<path fill="none" stroke="midnightblue" d="M425.288,-80.1387C445.095,-68.4984 472.066,-52.6485 489.131,-42.6195"/>
<polygon fill="midnightblue" stroke="midnightblue" points="423.332,-77.2283 416.484,-85.3125 426.879,-83.2633 423.332,-77.2283"/>
</g>
<!-- Node6&#45;&gt;Node2 -->
<g id="edge6" class="edge"><title>Node6&#45;&gt;Node2</title>
<path fill="none" stroke="midnightblue" d="M459.85,-34.591C396.347,-32.5511 282.698,-24.1091 225.273,-17.0194"/>
<polygon fill="midnightblue" stroke="midnightblue" points="459.878,-38.093 469.971,-34.8708 460.072,-31.0957 459.878,-38.093"/>
</g>
</g>
</svg>
