<?xml version="1.0" encoding="UTF-8" standalone="no"?>
<!DOCTYPE svg PUBLIC "-//W3C//DTD SVG 1.1//EN"
 "http://www.w3.org/Graphics/SVG/1.1/DTD/svg11.dtd">
<!-- Generated by graphviz version 2.38.0 (20140413.2041)
 -->
<!-- Title: DirectXRenderer::get_is_rendering Pages: 1 -->
<svg width="1014pt" height="104pt"
 viewBox="0.00 0.00 1014.00 104.00" xmlns="http://www.w3.org/2000/svg" xmlns:xlink="http://www.w3.org/1999/xlink">
<g id="graph0" class="graph" transform="scale(1 1) rotate(0) translate(4 100)">
<title>DirectXRenderer::get_is_rendering</title>
<!-- Node1 -->
<g id="node1" class="node"><title>Node1</title>
<polygon fill="#bfbfbf" stroke="black" points="0,-52 0,-82 106,-82 106,-52 0,-52"/>
<text text-anchor="start" x="8" y="-70" font-family="Helvetica,sans-Serif" font-size="10.00">DirectXRenderer::get</text>
<text text-anchor="middle" x="53" y="-59" font-family="Helvetica,sans-Serif" font-size="10.00">_is_rendering</text>
</g>
<!-- Node2 -->
<g id="node2" class="node"><title>Node2</title>
<g id="a_node2"><a xlink:href="classengine.html#a097517979864142f35d1969b5cf3d437" target="_top" xlink:title="engine::_resize">
<polygon fill="none" stroke="black" points="142,-57.5 142,-76.5 225,-76.5 225,-57.5 142,-57.5"/>
<text text-anchor="middle" x="183.5" y="-64.5" font-family="Helvetica,sans-Serif" font-size="10.00">engine::_resize</text>
</a>
</g>
</g>
<!-- Node1&#45;&gt;Node2 -->
<g id="edge1" class="edge"><title>Node1&#45;&gt;Node2</title>
<path fill="none" stroke="midnightblue" d="M116.328,-67C124.95,-67 133.617,-67 141.709,-67"/>
<polygon fill="midnightblue" stroke="midnightblue" points="116.266,-63.5001 106.266,-67 116.266,-70.5001 116.266,-63.5001"/>
</g>
<!-- Node3 -->
<g id="node3" class="node"><title>Node3</title>
<g id="a_node3"><a xlink:href="classengine.html#a2a83502d17f32c78093028f6009df8ba" target="_top" xlink:title="engine::resize">
<polygon fill="none" stroke="black" points="261,-57.5 261,-76.5 338,-76.5 338,-57.5 261,-57.5"/>
<text text-anchor="middle" x="299.5" y="-64.5" font-family="Helvetica,sans-Serif" font-size="10.00">engine::resize</text>
</a>
</g>
</g>
<!-- Node2&#45;&gt;Node3 -->
<g id="edge2" class="edge"><title>Node2&#45;&gt;Node3</title>
<path fill="none" stroke="midnightblue" d="M235.031,-67C243.684,-67 252.54,-67 260.785,-67"/>
<polygon fill="midnightblue" stroke="midnightblue" points="235.013,-63.5001 225.013,-67 235.013,-70.5001 235.013,-63.5001"/>
</g>
<!-- Node4 -->
<g id="node4" class="node"><title>Node4</title>
<g id="a_node4"><a xlink:href="classengine.html#a8b8dd82e72fd73e0601c30041529c4c0" target="_top" xlink:title="engine::_initialize">
<polygon fill="none" stroke="black" points="374,-57.5 374,-76.5 466,-76.5 466,-57.5 374,-57.5"/>
<text text-anchor="middle" x="420" y="-64.5" font-family="Helvetica,sans-Serif" font-size="10.00">engine::_initialize</text>
</a>
</g>
</g>
<!-- Node3&#45;&gt;Node4 -->
<g id="edge3" class="edge"><title>Node3&#45;&gt;Node4</title>
<path fill="none" stroke="midnightblue" d="M348.322,-67C356.688,-67 365.371,-67 373.668,-67"/>
<polygon fill="midnightblue" stroke="midnightblue" points="348.32,-63.5001 338.32,-67 348.32,-70.5001 348.32,-63.5001"/>
</g>
<!-- Node5 -->
<g id="node5" class="node"><title>Node5</title>
<g id="a_node5"><a xlink:href="classengine.html#a6809dcdfe78011851e377d4729a87ee4" target="_top" xlink:title="engine::initialize">
<polygon fill="none" stroke="black" points="502,-76.5 502,-95.5 588,-95.5 588,-76.5 502,-76.5"/>
<text text-anchor="middle" x="545" y="-83.5" font-family="Helvetica,sans-Serif" font-size="10.00">engine::initialize</text>
</a>
</g>
</g>
<!-- Node4&#45;&gt;Node5 -->
<g id="edge4" class="edge"><title>Node4&#45;&gt;Node5</title>
<path fill="none" stroke="midnightblue" d="M476.097,-75.5109C484.712,-76.8417 493.497,-78.1987 501.765,-79.4758"/>
<polygon fill="midnightblue" stroke="midnightblue" points="476.519,-72.0347 466.102,-73.967 475.451,-78.9527 476.519,-72.0347"/>
</g>
<!-- Node6 -->
<g id="node6" class="node"><title>Node6</title>
<g id="a_node6"><a xlink:href="classengine.html#ada832d0a14502f1b99fdbd5c72cab01b" target="_top" xlink:title="engine::Draw">
<polygon fill="none" stroke="black" points="508.5,-38.5 508.5,-57.5 581.5,-57.5 581.5,-38.5 508.5,-38.5"/>
<text text-anchor="middle" x="545" y="-45.5" font-family="Helvetica,sans-Serif" font-size="10.00">engine::Draw</text>
</a>
</g>
</g>
<!-- Node4&#45;&gt;Node6 -->
<g id="edge5" class="edge"><title>Node4&#45;&gt;Node6</title>
<path fill="none" stroke="midnightblue" d="M475.998,-58.5044C486.9,-56.8203 498.079,-55.0935 508.142,-53.5391"/>
<polygon fill="midnightblue" stroke="midnightblue" points="475.451,-55.0473 466.102,-60.033 476.519,-61.9653 475.451,-55.0473"/>
</g>
<!-- Node7 -->
<g id="node7" class="node"><title>Node7</title>
<g id="a_node7"><a xlink:href="classengine.html#a90418b124cd07d7d2f057e7d401ed641" target="_top" xlink:title="engine::_tick">
<polygon fill="none" stroke="black" points="624,-57.5 624,-76.5 696,-76.5 696,-57.5 624,-57.5"/>
<text text-anchor="middle" x="660" y="-64.5" font-family="Helvetica,sans-Serif" font-size="10.00">engine::_tick</text>
</a>
</g>
</g>
<!-- Node6&#45;&gt;Node7 -->
<g id="edge6" class="edge"><title>Node6&#45;&gt;Node7</title>
<path fill="none" stroke="midnightblue" d="M591.921,-49.0775C606.923,-51.2953 622.957,-54.3417 635.586,-57.4705"/>
<polygon fill="midnightblue" stroke="midnightblue" points="592.137,-45.5744 581.754,-47.6836 591.186,-52.5095 592.137,-45.5744"/>
</g>
<!-- Node7&#45;&gt;Node6 -->
<g id="edge12" class="edge"><title>Node7&#45;&gt;Node6</title>
<path fill="none" stroke="midnightblue" d="M613.371,-65.9655C598.285,-63.7442 582.125,-60.6786 569.414,-57.5295"/>
<polygon fill="midnightblue" stroke="midnightblue" points="613.206,-69.4754 623.588,-67.3592 614.152,-62.5397 613.206,-69.4754"/>
</g>
<!-- Node8 -->
<g id="node8" class="node"><title>Node8</title>
<g id="a_node8"><a xlink:href="classengine.html#a4bca5e9257e46c09a63f71227fc25a12" target="_top" xlink:title="engine::tick">
<polygon fill="none" stroke="black" points="732,-19.5 732,-38.5 799,-38.5 799,-19.5 732,-19.5"/>
<text text-anchor="middle" x="765.5" y="-26.5" font-family="Helvetica,sans-Serif" font-size="10.00">engine::tick</text>
</a>
</g>
</g>
<!-- Node7&#45;&gt;Node8 -->
<g id="edge7" class="edge"><title>Node7&#45;&gt;Node8</title>
<path fill="none" stroke="midnightblue" d="M696.729,-53.882C710.418,-48.8561 725.767,-43.2209 738.391,-38.5859"/>
<polygon fill="midnightblue" stroke="midnightblue" points="695.298,-50.6788 687.117,-57.411 697.711,-57.2499 695.298,-50.6788"/>
</g>
<!-- Node8&#45;&gt;Node6 -->
<g id="edge11" class="edge"><title>Node8&#45;&gt;Node6</title>
<path fill="none" stroke="midnightblue" d="M721.585,-32.7318C680.696,-36.2873 619.86,-41.5774 581.592,-44.905"/>
<polygon fill="midnightblue" stroke="midnightblue" points="722.122,-36.1984 731.781,-31.8451 721.515,-29.2247 722.122,-36.1984"/>
</g>
<!-- Node9 -->
<g id="node9" class="node"><title>Node9</title>
<g id="a_node9"><a xlink:href="classengine.html#a1d9b806d03be0255a8ac3c119e181cc5" target="_top" xlink:title="engine::_run">
<polygon fill="none" stroke="black" points="835,-0.5 835,-19.5 905,-19.5 905,-0.5 835,-0.5"/>
<text text-anchor="middle" x="870" y="-7.5" font-family="Helvetica,sans-Serif" font-size="10.00">engine::_run</text>
</a>
</g>
</g>
<!-- Node8&#45;&gt;Node9 -->
<g id="edge8" class="edge"><title>Node8&#45;&gt;Node9</title>
<path fill="none" stroke="midnightblue" d="M809.077,-21.1076C817.662,-19.5164 826.581,-17.8631 834.832,-16.3335"/>
<polygon fill="midnightblue" stroke="midnightblue" points="808.408,-17.672 799.213,-22.936 809.684,-24.5547 808.408,-17.672"/>
</g>
<!-- Node9&#45;&gt;Node6 -->
<g id="edge10" class="edge"><title>Node9&#45;&gt;Node6</title>
<path fill="none" stroke="midnightblue" d="M824.606,-7.84934C797.741,-7.08197 762.829,-7.03059 732,-10 683.326,-14.6883 671.892,-21.1262 624,-31 610.154,-33.8545 594.959,-37.1331 581.688,-40.0447"/>
<polygon fill="midnightblue" stroke="midnightblue" points="824.741,-11.3556 834.851,-8.1874 824.972,-4.35941 824.741,-11.3556"/>
</g>
<!-- Node10 -->
<g id="node10" class="node"><title>Node10</title>
<g id="a_node10"><a xlink:href="classengine.html#aecb22d51cc8f83cacbf3696a18d66c30" target="_top" xlink:title="engine::run">
<polygon fill="none" stroke="black" points="941,-0.5 941,-19.5 1006,-19.5 1006,-0.5 941,-0.5"/>
<text text-anchor="middle" x="973.5" y="-7.5" font-family="Helvetica,sans-Serif" font-size="10.00">engine::run</text>
</a>
</g>
</g>
<!-- Node9&#45;&gt;Node10 -->
<g id="edge9" class="edge"><title>Node9&#45;&gt;Node10</title>
<path fill="none" stroke="midnightblue" d="M915.325,-10C923.879,-10 932.681,-10 940.737,-10"/>
<polygon fill="midnightblue" stroke="midnightblue" points="915.08,-6.5001 905.08,-10 915.08,-13.5001 915.08,-6.5001"/>
</g>
</g>
</svg>
