<?xml version="1.0" encoding="UTF-8" standalone="no"?>
<!DOCTYPE svg PUBLIC "-//W3C//DTD SVG 1.1//EN"
 "http://www.w3.org/Graphics/SVG/1.1/DTD/svg11.dtd">
<!-- Generated by graphviz version 2.38.0 (20140413.2041)
 -->
<!-- Title: engine::_run Pages: 1 -->
<svg width="1041pt" height="909pt"
 viewBox="0.00 0.00 1041.00 909.00" xmlns="http://www.w3.org/2000/svg" xmlns:xlink="http://www.w3.org/1999/xlink">
<g id="graph0" class="graph" transform="scale(1 1) rotate(0) translate(4 905)">
<title>engine::_run</title>
<!-- Node1 -->
<g id="node1" class="node"><title>Node1</title>
<polygon fill="#bfbfbf" stroke="black" points="0,-647.5 0,-666.5 70,-666.5 70,-647.5 0,-647.5"/>
<text text-anchor="middle" x="35" y="-654.5" font-family="Helvetica,sans-Serif" font-size="10.00">engine::_run</text>
</g>
<!-- Node2 -->
<g id="node2" class="node"><title>Node2</title>
<g id="a_node2"><a xlink:href="class_game_timer.html#a86cb497fa9b732ca55fda03062f34891" target="_top" xlink:title="GameTimer::initialize">
<polygon fill="none" stroke="black" points="106,-793.5 106,-812.5 214,-812.5 214,-793.5 106,-793.5"/>
<text text-anchor="middle" x="160" y="-800.5" font-family="Helvetica,sans-Serif" font-size="10.00">GameTimer::initialize</text>
</a>
</g>
</g>
<!-- Node1&#45;&gt;Node2 -->
<g id="edge1" class="edge"><title>Node1&#45;&gt;Node2</title>
<path fill="none" stroke="midnightblue" d="M38.7563,-666.815C45.8758,-690.419 67.0971,-750.856 106,-784 107.986,-785.692 110.133,-787.237 112.388,-788.649"/>
<polygon fill="midnightblue" stroke="midnightblue" points="111.016,-791.882 121.494,-793.453 114.283,-785.691 111.016,-791.882"/>
</g>
<!-- Node3 -->
<g id="node3" class="node"><title>Node3</title>
<g id="a_node3"><a xlink:href="classengine.html#a4bca5e9257e46c09a63f71227fc25a12" target="_top" xlink:title="engine::tick">
<polygon fill="none" stroke="black" points="126.5,-540.5 126.5,-559.5 193.5,-559.5 193.5,-540.5 126.5,-540.5"/>
<text text-anchor="middle" x="160" y="-547.5" font-family="Helvetica,sans-Serif" font-size="10.00">engine::tick</text>
</a>
</g>
</g>
<!-- Node1&#45;&gt;Node3 -->
<g id="edge2" class="edge"><title>Node1&#45;&gt;Node3</title>
<path fill="none" stroke="midnightblue" d="M47.3511,-647.125C68.6021,-628.639 114.572,-588.649 140.407,-566.175"/>
<polygon fill="midnightblue" stroke="midnightblue" points="142.783,-568.747 148.031,-559.543 138.189,-563.465 142.783,-568.747"/>
</g>
<!-- Node49 -->
<g id="node49" class="node"><title>Node49</title>
<g id="a_node49"><a xlink:href="classengine.html#a560e0bbabb0933eb66db1070a9cfa4ff" target="_top" xlink:title="engine::shutdown">
<polygon fill="none" stroke="black" points="114,-755.5 114,-774.5 206,-774.5 206,-755.5 114,-755.5"/>
<text text-anchor="middle" x="160" y="-762.5" font-family="Helvetica,sans-Serif" font-size="10.00">engine::shutdown</text>
</a>
</g>
</g>
<!-- Node1&#45;&gt;Node49 -->
<g id="edge57" class="edge"><title>Node1&#45;&gt;Node49</title>
<path fill="none" stroke="midnightblue" d="M46.9154,-666.584C67.9243,-685.031 114.202,-725.665 140.245,-748.532"/>
<polygon fill="midnightblue" stroke="midnightblue" points="138.108,-751.314 147.932,-755.282 142.727,-746.054 138.108,-751.314"/>
</g>
<!-- Node4 -->
<g id="node4" class="node"><title>Node4</title>
<g id="a_node4"><a xlink:href="classengine.html#a240cde5717390f5f154bc9e4af2c36eb" target="_top" xlink:title="engine::get_engine">
<polygon fill="none" stroke="black" points="916.5,-767.5 916.5,-786.5 1014.5,-786.5 1014.5,-767.5 916.5,-767.5"/>
<text text-anchor="middle" x="965.5" y="-774.5" font-family="Helvetica,sans-Serif" font-size="10.00">engine::get_engine</text>
</a>
</g>
</g>
<!-- Node3&#45;&gt;Node4 -->
<g id="edge3" class="edge"><title>Node3&#45;&gt;Node4</title>
<path fill="none" stroke="midnightblue" d="M165.398,-559.746C187.706,-607.555 293.325,-815 446.5,-815 446.5,-815 446.5,-815 615.5,-815 718.256,-815 837.036,-798.519 906.166,-787.264"/>
<polygon fill="midnightblue" stroke="midnightblue" points="907.113,-790.655 916.411,-785.575 905.975,-783.749 907.113,-790.655"/>
</g>
<!-- Node5 -->
<g id="node5" class="node"><title>Node5</title>
<g id="a_node5"><a xlink:href="classengine.html#a90418b124cd07d7d2f057e7d401ed641" target="_top" xlink:title="engine::_tick">
<polygon fill="none" stroke="black" points="263,-453.5 263,-472.5 335,-472.5 335,-453.5 263,-453.5"/>
<text text-anchor="middle" x="299" y="-460.5" font-family="Helvetica,sans-Serif" font-size="10.00">engine::_tick</text>
</a>
</g>
</g>
<!-- Node3&#45;&gt;Node5 -->
<g id="edge4" class="edge"><title>Node3&#45;&gt;Node5</title>
<path fill="none" stroke="midnightblue" d="M176.185,-540.357C199.947,-525.267 246.111,-495.951 274.284,-478.061"/>
<polygon fill="midnightblue" stroke="midnightblue" points="276.182,-481.002 282.747,-472.686 272.429,-475.092 276.182,-481.002"/>
</g>
<!-- Node6 -->
<g id="node6" class="node"><title>Node6</title>
<g id="a_node6"><a xlink:href="class_game_timer.html#a20aa18e5ab02ae786083c131107afe32" target="_top" xlink:title="GameTimer::tick">
<polygon fill="none" stroke="black" points="570,-767.5 570,-786.5 659,-786.5 659,-767.5 570,-767.5"/>
<text text-anchor="middle" x="614.5" y="-774.5" font-family="Helvetica,sans-Serif" font-size="10.00">GameTimer::tick</text>
</a>
</g>
</g>
<!-- Node5&#45;&gt;Node6 -->
<g id="edge5" class="edge"><title>Node5&#45;&gt;Node6</title>
<path fill="none" stroke="midnightblue" d="M301.301,-472.521C307.787,-518.501 338.147,-716.914 384,-755 432.538,-795.316 508.321,-794.322 559.391,-787.607"/>
<polygon fill="midnightblue" stroke="midnightblue" points="560.174,-791.031 569.577,-786.15 559.182,-784.102 560.174,-791.031"/>
</g>
<!-- Node9 -->
<g id="node9" class="node"><title>Node9</title>
<g id="a_node9"><a xlink:href="classengine.html#aef40b48edcc51792bb523f80c4eebbd3" target="_top" xlink:title="engine::_update_frame\l_stats">
<polygon fill="none" stroke="black" points="557,-385 557,-415 672,-415 672,-385 557,-385"/>
<text text-anchor="start" x="565" y="-403" font-family="Helvetica,sans-Serif" font-size="10.00">engine::_update_frame</text>
<text text-anchor="middle" x="614.5" y="-392" font-family="Helvetica,sans-Serif" font-size="10.00">_stats</text>
</a>
</g>
</g>
<!-- Node5&#45;&gt;Node9 -->
<g id="edge10" class="edge"><title>Node5&#45;&gt;Node9</title>
<path fill="none" stroke="midnightblue" d="M335.27,-462.892C377.619,-462.026 450.506,-458.18 511,-443 532.937,-437.495 556.27,-428.019 575.125,-419.36"/>
<polygon fill="midnightblue" stroke="midnightblue" points="576.706,-422.484 584.269,-415.065 573.73,-416.149 576.706,-422.484"/>
</g>
<!-- Node17 -->
<g id="node17" class="node"><title>Node17</title>
<g id="a_node17"><a xlink:href="class_game_timer.html#a2fba57083e2609aa005a99042365b001" target="_top" xlink:title="GameTimer::is_paused">
<polygon fill="none" stroke="black" points="389,-316.5 389,-335.5 506,-335.5 506,-316.5 389,-316.5"/>
<text text-anchor="middle" x="447.5" y="-323.5" font-family="Helvetica,sans-Serif" font-size="10.00">GameTimer::is_paused</text>
</a>
</g>
</g>
<!-- Node5&#45;&gt;Node17 -->
<g id="edge18" class="edge"><title>Node5&#45;&gt;Node17</title>
<path fill="none" stroke="midnightblue" d="M304.132,-453.424C314.304,-430.984 342.766,-374.665 384,-345 386.67,-343.079 389.537,-341.35 392.522,-339.793"/>
<polygon fill="midnightblue" stroke="midnightblue" points="394.081,-342.929 401.753,-335.622 391.199,-336.55 394.081,-342.929"/>
</g>
<!-- Node18 -->
<g id="node18" class="node"><title>Node18</title>
<g id="a_node18"><a xlink:href="class_game_timer.html#a111d910c595648c28cf6fe6cb6151301" target="_top" xlink:title="GameTimer::ns_until\l_next_update">
<polygon fill="none" stroke="black" points="394,-267 394,-297 501,-297 501,-267 394,-267"/>
<text text-anchor="start" x="402" y="-285" font-family="Helvetica,sans-Serif" font-size="10.00">GameTimer::ns_until</text>
<text text-anchor="middle" x="447.5" y="-274" font-family="Helvetica,sans-Serif" font-size="10.00">_next_update</text>
</a>
</g>
</g>
<!-- Node5&#45;&gt;Node18 -->
<g id="edge19" class="edge"><title>Node5&#45;&gt;Node18</title>
<path fill="none" stroke="midnightblue" d="M305.826,-453.406C315.076,-438.069 333.552,-407.007 348,-380 365.064,-348.103 357.447,-331.568 384,-307 385.673,-305.452 387.453,-303.995 389.316,-302.624"/>
<polygon fill="midnightblue" stroke="midnightblue" points="391.364,-305.469 397.922,-297.148 387.607,-299.563 391.364,-305.469"/>
</g>
<!-- Node19 -->
<g id="node19" class="node"><title>Node19</title>
<g id="a_node19"><a xlink:href="class_game_timer.html#af514830a6ca1b8c03a270fd687a372c1" target="_top" xlink:title="GameTimer::start_update\l_timer">
<polygon fill="none" stroke="black" points="384,-218 384,-248 511,-248 511,-218 384,-218"/>
<text text-anchor="start" x="392" y="-236" font-family="Helvetica,sans-Serif" font-size="10.00">GameTimer::start_update</text>
<text text-anchor="middle" x="447.5" y="-225" font-family="Helvetica,sans-Serif" font-size="10.00">_timer</text>
</a>
</g>
</g>
<!-- Node5&#45;&gt;Node19 -->
<g id="edge20" class="edge"><title>Node5&#45;&gt;Node19</title>
<path fill="none" stroke="midnightblue" d="M306.559,-453.433C316.634,-438.384 336.011,-408.003 348,-380 370.418,-327.637 345.406,-298.892 384,-257 384.886,-256.038 385.815,-255.115 386.781,-254.228"/>
<polygon fill="midnightblue" stroke="midnightblue" points="388.977,-256.955 394.829,-248.122 384.747,-251.378 388.977,-256.955"/>
</g>
<!-- Node20 -->
<g id="node20" class="node"><title>Node20</title>
<g id="a_node20"><a xlink:href="classengine.html#abf295db7032f3acfe2cb81b5a418a196" target="_top" xlink:title="engine::Update">
<polygon fill="none" stroke="black" points="406.5,-179.5 406.5,-198.5 488.5,-198.5 488.5,-179.5 406.5,-179.5"/>
<text text-anchor="middle" x="447.5" y="-186.5" font-family="Helvetica,sans-Serif" font-size="10.00">engine::Update</text>
</a>
</g>
</g>
<!-- Node5&#45;&gt;Node20 -->
<g id="edge21" class="edge"><title>Node5&#45;&gt;Node20</title>
<path fill="none" stroke="midnightblue" d="M307,-453.297C317.482,-438.31 337.177,-408.296 348,-380 375.902,-307.053 331.28,-265.622 384,-208 387.592,-204.074 391.967,-200.949 396.717,-198.463"/>
<polygon fill="midnightblue" stroke="midnightblue" points="398.374,-201.561 406.207,-194.427 395.635,-195.12 398.374,-201.561"/>
</g>
<!-- Node21 -->
<g id="node21" class="node"><title>Node21</title>
<g id="a_node21"><a xlink:href="class_direct_x_renderer.html#af1bd5f83975a5f0fb1735b3a6e933656" target="_top" xlink:title="DirectXRenderer::Update">
<polygon fill="none" stroke="black" points="386,-491.5 386,-510.5 509,-510.5 509,-491.5 386,-491.5"/>
<text text-anchor="middle" x="447.5" y="-498.5" font-family="Helvetica,sans-Serif" font-size="10.00">DirectXRenderer::Update</text>
</a>
</g>
</g>
<!-- Node5&#45;&gt;Node21 -->
<g id="edge22" class="edge"><title>Node5&#45;&gt;Node21</title>
<path fill="none" stroke="midnightblue" d="M335.09,-472.102C354.529,-477.144 378.941,-483.476 399.956,-488.927"/>
<polygon fill="midnightblue" stroke="midnightblue" points="399.093,-492.319 409.652,-491.442 400.851,-485.543 399.093,-492.319"/>
</g>
<!-- Node25 -->
<g id="node25" class="node"><title>Node25</title>
<g id="a_node25"><a xlink:href="class_game_timer.html#a2cb06cea96bd5a0b5a9b422e129a8901" target="_top" xlink:title="GameTimer::end_update\l_timer">
<polygon fill="none" stroke="black" points="386,-677 386,-707 509,-707 509,-677 386,-677"/>
<text text-anchor="start" x="394" y="-695" font-family="Helvetica,sans-Serif" font-size="10.00">GameTimer::end_update</text>
<text text-anchor="middle" x="447.5" y="-684" font-family="Helvetica,sans-Serif" font-size="10.00">_timer</text>
</a>
</g>
</g>
<!-- Node5&#45;&gt;Node25 -->
<g id="edge26" class="edge"><title>Node5&#45;&gt;Node25</title>
<path fill="none" stroke="midnightblue" d="M301.27,-472.564C306.006,-504.554 325.478,-609.066 384,-667 385.464,-668.449 387.022,-669.817 388.656,-671.108"/>
<polygon fill="midnightblue" stroke="midnightblue" points="387.098,-674.278 397.352,-676.945 390.999,-668.466 387.098,-674.278"/>
</g>
<!-- Node26 -->
<g id="node26" class="node"><title>Node26</title>
<g id="a_node26"><a xlink:href="class_game_timer.html#a7fd18be5e0dd4f5fa8da0b78755e4353" target="_top" xlink:title="GameTimer::ns_until\l_next_render">
<polygon fill="none" stroke="black" points="394,-628 394,-658 501,-658 501,-628 394,-628"/>
<text text-anchor="start" x="402" y="-646" font-family="Helvetica,sans-Serif" font-size="10.00">GameTimer::ns_until</text>
<text text-anchor="middle" x="447.5" y="-635" font-family="Helvetica,sans-Serif" font-size="10.00">_next_render</text>
</a>
</g>
</g>
<!-- Node5&#45;&gt;Node26 -->
<g id="edge27" class="edge"><title>Node5&#45;&gt;Node26</title>
<path fill="none" stroke="midnightblue" d="M302.737,-472.84C310.714,-499.803 336.447,-575.671 384,-618 385.738,-619.547 387.583,-621.004 389.509,-622.377"/>
<polygon fill="midnightblue" stroke="midnightblue" points="388.037,-625.582 398.383,-627.865 391.719,-619.628 388.037,-625.582"/>
</g>
<!-- Node27 -->
<g id="node27" class="node"><title>Node27</title>
<g id="a_node27"><a xlink:href="class_game_timer.html#a1de3e26ef16c57ad3f435afb4c82109a" target="_top" xlink:title="GameTimer::start_render\l_timer">
<polygon fill="none" stroke="black" points="385,-579 385,-609 510,-609 510,-579 385,-579"/>
<text text-anchor="start" x="393" y="-597" font-family="Helvetica,sans-Serif" font-size="10.00">GameTimer::start_render</text>
<text text-anchor="middle" x="447.5" y="-586" font-family="Helvetica,sans-Serif" font-size="10.00">_timer</text>
</a>
</g>
</g>
<!-- Node5&#45;&gt;Node27 -->
<g id="edge28" class="edge"><title>Node5&#45;&gt;Node27</title>
<path fill="none" stroke="midnightblue" d="M305.242,-472.579C316.861,-492.999 346.726,-541.213 384,-569 386.451,-570.827 389.053,-572.542 391.751,-574.148"/>
<polygon fill="midnightblue" stroke="midnightblue" points="390.155,-577.263 400.62,-578.913 393.467,-571.097 390.155,-577.263"/>
</g>
<!-- Node28 -->
<g id="node28" class="node"><title>Node28</title>
<g id="a_node28"><a xlink:href="classengine.html#ada832d0a14502f1b99fdbd5c72cab01b" target="_top" xlink:title="engine::Draw">
<polygon fill="none" stroke="black" points="411,-141.5 411,-160.5 484,-160.5 484,-141.5 411,-141.5"/>
<text text-anchor="middle" x="447.5" y="-148.5" font-family="Helvetica,sans-Serif" font-size="10.00">engine::Draw</text>
</a>
</g>
</g>
<!-- Node5&#45;&gt;Node28 -->
<g id="edge29" class="edge"><title>Node5&#45;&gt;Node28</title>
<path fill="none" stroke="midnightblue" d="M303.842,-453.374C313.059,-436.348 336.507,-402.776 348,-371 380.208,-281.951 321.366,-232.022 384,-161 388.637,-155.742 394.678,-151.916 401.176,-149.263"/>
<polygon fill="midnightblue" stroke="midnightblue" points="402.431,-152.537 410.911,-146.185 400.321,-145.862 402.431,-152.537"/>
</g>
<!-- Node42 -->
<g id="node42" class="node"><title>Node42</title>
<g id="a_node42"><a xlink:href="class_direct_x_renderer.html#a2f3ecabf3d5e9d76b7754d66a6a346d3" target="_top" xlink:title="DirectXRenderer::render">
<polygon fill="none" stroke="black" points="388,-726.5 388,-745.5 507,-745.5 507,-726.5 388,-726.5"/>
<text text-anchor="middle" x="447.5" y="-733.5" font-family="Helvetica,sans-Serif" font-size="10.00">DirectXRenderer::render</text>
</a>
</g>
</g>
<!-- Node5&#45;&gt;Node42 -->
<g id="edge49" class="edge"><title>Node5&#45;&gt;Node42</title>
<path fill="none" stroke="midnightblue" d="M300.231,-472.606C301.651,-509.629 311.778,-644.558 384,-716 385.914,-717.893 388.006,-719.607 390.228,-721.158"/>
<polygon fill="midnightblue" stroke="midnightblue" points="388.922,-724.443 399.339,-726.376 392.4,-718.369 388.922,-724.443"/>
</g>
<!-- Node46 -->
<g id="node46" class="node"><title>Node46</title>
<g id="a_node46"><a xlink:href="class_game_timer.html#af170c5bfe99ef9b566487cde8e7ce153" target="_top" xlink:title="GameTimer::end_render\l_timer">
<polygon fill="none" stroke="black" points="387,-530 387,-560 508,-560 508,-530 387,-530"/>
<text text-anchor="start" x="395" y="-548" font-family="Helvetica,sans-Serif" font-size="10.00">GameTimer::end_render</text>
<text text-anchor="middle" x="447.5" y="-537" font-family="Helvetica,sans-Serif" font-size="10.00">_timer</text>
</a>
</g>
</g>
<!-- Node5&#45;&gt;Node46 -->
<g id="edge54" class="edge"><title>Node5&#45;&gt;Node46</title>
<path fill="none" stroke="midnightblue" d="M312.273,-472.579C328.179,-484.694 357.075,-505.695 384,-520 387.773,-522.005 391.744,-523.947 395.778,-525.803"/>
<polygon fill="midnightblue" stroke="midnightblue" points="394.682,-529.144 405.244,-529.968 397.501,-522.737 394.682,-529.144"/>
</g>
<!-- Node47 -->
<g id="node47" class="node"><title>Node47</title>
<g id="a_node47"><a xlink:href="class_game_timer.html#a8bfc43723bdfd30d2c6bd780c8976a68" target="_top" xlink:title="GameTimer::ns_until\l_next_idle">
<polygon fill="none" stroke="black" points="394,-404 394,-434 501,-434 501,-404 394,-404"/>
<text text-anchor="start" x="402" y="-422" font-family="Helvetica,sans-Serif" font-size="10.00">GameTimer::ns_until</text>
<text text-anchor="middle" x="447.5" y="-411" font-family="Helvetica,sans-Serif" font-size="10.00">_next_idle</text>
</a>
</g>
</g>
<!-- Node5&#45;&gt;Node47 -->
<g id="edge55" class="edge"><title>Node5&#45;&gt;Node47</title>
<path fill="none" stroke="midnightblue" d="M331.788,-453.453C347.841,-448.631 367.854,-442.621 386.649,-436.976"/>
<polygon fill="midnightblue" stroke="midnightblue" points="387.769,-440.294 396.339,-434.065 385.755,-433.59 387.769,-440.294"/>
</g>
<!-- Node48 -->
<g id="node48" class="node"><title>Node48</title>
<g id="a_node48"><a xlink:href="class_game_timer.html#ac5652aa7cc3c54c24b8a2e5429f7a102" target="_top" xlink:title="GameTimer::start_new\l_idle_interval">
<polygon fill="none" stroke="black" points="390,-355 390,-385 505,-385 505,-355 390,-355"/>
<text text-anchor="start" x="398" y="-373" font-family="Helvetica,sans-Serif" font-size="10.00">GameTimer::start_new</text>
<text text-anchor="middle" x="447.5" y="-362" font-family="Helvetica,sans-Serif" font-size="10.00">_idle_interval</text>
</a>
</g>
</g>
<!-- Node5&#45;&gt;Node48 -->
<g id="edge56" class="edge"><title>Node5&#45;&gt;Node48</title>
<path fill="none" stroke="midnightblue" d="M309.557,-453.368C324.382,-438.865 354.315,-411.28 384,-394 386.813,-392.363 389.758,-390.797 392.773,-389.305"/>
<polygon fill="midnightblue" stroke="midnightblue" points="394.352,-392.431 401.964,-385.061 391.418,-386.076 394.352,-392.431"/>
</g>
<!-- Node6&#45;&gt;Node4 -->
<g id="edge6" class="edge"><title>Node6&#45;&gt;Node4</title>
<path fill="none" stroke="midnightblue" d="M659.348,-777C721.775,-777 836.403,-777 906.009,-777"/>
<polygon fill="midnightblue" stroke="midnightblue" points="906.36,-780.5 916.36,-777 906.36,-773.5 906.36,-780.5"/>
</g>
<!-- Node7 -->
<g id="node7" class="node"><title>Node7</title>
<g id="a_node7"><a xlink:href="classengine.html#a8afc7b29034df66b7dd991dff06c0118" target="_top" xlink:title="engine::get_is_resizing">
<polygon fill="none" stroke="black" points="732,-729.5 732,-748.5 848,-748.5 848,-729.5 732,-729.5"/>
<text text-anchor="middle" x="790" y="-736.5" font-family="Helvetica,sans-Serif" font-size="10.00">engine::get_is_resizing</text>
</a>
</g>
</g>
<!-- Node6&#45;&gt;Node7 -->
<g id="edge7" class="edge"><title>Node6&#45;&gt;Node7</title>
<path fill="none" stroke="midnightblue" d="M659.281,-767.411C682.486,-762.329 711.178,-756.045 735.673,-750.68"/>
<polygon fill="midnightblue" stroke="midnightblue" points="736.514,-754.079 745.533,-748.52 735.016,-747.241 736.514,-754.079"/>
</g>
<!-- Node7&#45;&gt;Node4 -->
<g id="edge8" class="edge"><title>Node7&#45;&gt;Node4</title>
<path fill="none" stroke="midnightblue" d="M834.781,-748.589C857.986,-753.671 886.678,-759.955 911.173,-765.32"/>
<polygon fill="midnightblue" stroke="midnightblue" points="910.516,-768.759 921.033,-767.48 912.014,-761.921 910.516,-768.759"/>
</g>
<!-- Node8 -->
<g id="node8" class="node"><title>Node8</title>
<g id="a_node8"><a xlink:href="classengine.html#a2b29abf6edeaf9f4b95e121bbe1dae47" target="_top" xlink:title="engine::_get_is_resizing">
<polygon fill="none" stroke="black" points="904.5,-729.5 904.5,-748.5 1026.5,-748.5 1026.5,-729.5 904.5,-729.5"/>
<text text-anchor="middle" x="965.5" y="-736.5" font-family="Helvetica,sans-Serif" font-size="10.00">engine::_get_is_resizing</text>
</a>
</g>
</g>
<!-- Node7&#45;&gt;Node8 -->
<g id="edge9" class="edge"><title>Node7&#45;&gt;Node8</title>
<path fill="none" stroke="midnightblue" d="M848.291,-739C862.887,-739 878.746,-739 893.92,-739"/>
<polygon fill="midnightblue" stroke="midnightblue" points="894.292,-742.5 904.292,-739 894.292,-735.5 894.292,-742.5"/>
</g>
<!-- Node10 -->
<g id="node10" class="node"><title>Node10</title>
<g id="a_node10"><a xlink:href="class_game_timer.html#a70ab8ec146f451278051054131ccbb00" target="_top" xlink:title="GameTimer::delta_time">
<polygon fill="none" stroke="black" points="731,-248.5 731,-267.5 849,-267.5 849,-248.5 731,-248.5"/>
<text text-anchor="middle" x="790" y="-255.5" font-family="Helvetica,sans-Serif" font-size="10.00">GameTimer::delta_time</text>
</a>
</g>
</g>
<!-- Node9&#45;&gt;Node10 -->
<g id="edge11" class="edge"><title>Node9&#45;&gt;Node10</title>
<path fill="none" stroke="midnightblue" d="M623.792,-384.949C638.961,-358.853 673.735,-305.296 718,-277 721.198,-274.955 724.612,-273.129 728.149,-271.499"/>
<polygon fill="midnightblue" stroke="midnightblue" points="729.772,-274.618 737.73,-267.623 727.147,-268.128 729.772,-274.618"/>
</g>
<!-- Node11 -->
<g id="node11" class="node"><title>Node11</title>
<g id="a_node11"><a xlink:href="class_game_timer.html#a60968291db34364580f524b553b85bd1" target="_top" xlink:title="GameTimer::avg_ns_between\l_render">
<polygon fill="none" stroke="black" points="718,-532 718,-562 862,-562 862,-532 718,-532"/>
<text text-anchor="start" x="726" y="-550" font-family="Helvetica,sans-Serif" font-size="10.00">GameTimer::avg_ns_between</text>
<text text-anchor="middle" x="790" y="-539" font-family="Helvetica,sans-Serif" font-size="10.00">_render</text>
</a>
</g>
</g>
<!-- Node9&#45;&gt;Node11 -->
<g id="edge12" class="edge"><title>Node9&#45;&gt;Node11</title>
<path fill="none" stroke="midnightblue" d="M645.702,-415.135C658.16,-422.519 671.991,-432.34 682,-444 706.868,-472.971 689.765,-496.298 718,-522 719.727,-523.572 721.56,-525.047 723.474,-526.43"/>
<polygon fill="midnightblue" stroke="midnightblue" points="721.978,-529.621 732.319,-531.925 725.672,-523.675 721.978,-529.621"/>
</g>
<!-- Node12 -->
<g id="node12" class="node"><title>Node12</title>
<g id="a_node12"><a xlink:href="class_game_timer.html#a0bb71bebfcf4eecd9cff54e566d07bee" target="_top" xlink:title="GameTimer::avg_ns_between\l_update">
<polygon fill="none" stroke="black" points="718,-483 718,-513 862,-513 862,-483 718,-483"/>
<text text-anchor="start" x="726" y="-501" font-family="Helvetica,sans-Serif" font-size="10.00">GameTimer::avg_ns_between</text>
<text text-anchor="middle" x="790" y="-490" font-family="Helvetica,sans-Serif" font-size="10.00">_update</text>
</a>
</g>
</g>
<!-- Node9&#45;&gt;Node12 -->
<g id="edge13" class="edge"><title>Node9&#45;&gt;Node12</title>
<path fill="none" stroke="midnightblue" d="M639.567,-415.151C652.366,-423.4 668.255,-433.95 682,-444 698.585,-456.126 700.052,-463 718,-473 721.724,-475.075 725.653,-477.027 729.672,-478.854"/>
<polygon fill="midnightblue" stroke="midnightblue" points="728.592,-482.198 739.164,-482.889 731.33,-475.756 728.592,-482.198"/>
</g>
<!-- Node13 -->
<g id="node13" class="node"><title>Node13</title>
<g id="a_node13"><a xlink:href="class_game_timer.html#a1ec9b2368e11e63c48fdfa2965b9e88c" target="_top" xlink:title="GameTimer::avg_ns_per\l_render">
<polygon fill="none" stroke="black" points="729,-434 729,-464 851,-464 851,-434 729,-434"/>
<text text-anchor="start" x="737" y="-452" font-family="Helvetica,sans-Serif" font-size="10.00">GameTimer::avg_ns_per</text>
<text text-anchor="middle" x="790" y="-441" font-family="Helvetica,sans-Serif" font-size="10.00">_render</text>
</a>
</g>
</g>
<!-- Node9&#45;&gt;Node13 -->
<g id="edge14" class="edge"><title>Node9&#45;&gt;Node13</title>
<path fill="none" stroke="midnightblue" d="M668.971,-415.101C687.031,-420.202 707.359,-425.943 726.081,-431.23"/>
<polygon fill="midnightblue" stroke="midnightblue" points="725.13,-434.599 735.705,-433.948 727.033,-427.862 725.13,-434.599"/>
</g>
<!-- Node14 -->
<g id="node14" class="node"><title>Node14</title>
<g id="a_node14"><a xlink:href="class_game_timer.html#a488f57ea227be64ccc03b9c70b1d6a43" target="_top" xlink:title="GameTimer::avg_ns_per\l_update">
<polygon fill="none" stroke="black" points="729,-385 729,-415 851,-415 851,-385 729,-385"/>
<text text-anchor="start" x="737" y="-403" font-family="Helvetica,sans-Serif" font-size="10.00">GameTimer::avg_ns_per</text>
<text text-anchor="middle" x="790" y="-392" font-family="Helvetica,sans-Serif" font-size="10.00">_update</text>
</a>
</g>
</g>
<!-- Node9&#45;&gt;Node14 -->
<g id="edge15" class="edge"><title>Node9&#45;&gt;Node14</title>
<path fill="none" stroke="midnightblue" d="M672.31,-400C687.146,-400 703.314,-400 718.756,-400"/>
<polygon fill="midnightblue" stroke="midnightblue" points="718.778,-403.5 728.778,-400 718.778,-396.5 718.778,-403.5"/>
</g>
<!-- Node15 -->
<g id="node15" class="node"><title>Node15</title>
<g id="a_node15"><a xlink:href="class_game_timer.html#a46db6a1cc03e89eac25db2296767f067" target="_top" xlink:title="GameTimer::avg_ns_idle\l_per_interval">
<polygon fill="none" stroke="black" points="728.5,-336 728.5,-366 851.5,-366 851.5,-336 728.5,-336"/>
<text text-anchor="start" x="736.5" y="-354" font-family="Helvetica,sans-Serif" font-size="10.00">GameTimer::avg_ns_idle</text>
<text text-anchor="middle" x="790" y="-343" font-family="Helvetica,sans-Serif" font-size="10.00">_per_interval</text>
</a>
</g>
</g>
<!-- Node9&#45;&gt;Node15 -->
<g id="edge16" class="edge"><title>Node9&#45;&gt;Node15</title>
<path fill="none" stroke="midnightblue" d="M668.971,-384.899C687.031,-379.798 707.359,-374.057 726.081,-368.77"/>
<polygon fill="midnightblue" stroke="midnightblue" points="727.033,-372.138 735.705,-366.052 725.13,-365.401 727.033,-372.138"/>
</g>
<!-- Node16 -->
<g id="node16" class="node"><title>Node16</title>
<g id="a_node16"><a xlink:href="class_game_timer.html#a46c0437f60c22411b55f31c8637e4827" target="_top" xlink:title="GameTimer::ns_idle\l_this_interval">
<polygon fill="none" stroke="black" points="738,-287 738,-317 842,-317 842,-287 738,-287"/>
<text text-anchor="start" x="746" y="-305" font-family="Helvetica,sans-Serif" font-size="10.00">GameTimer::ns_idle</text>
<text text-anchor="middle" x="790" y="-294" font-family="Helvetica,sans-Serif" font-size="10.00">_this_interval</text>
</a>
</g>
</g>
<!-- Node9&#45;&gt;Node16 -->
<g id="edge17" class="edge"><title>Node9&#45;&gt;Node16</title>
<path fill="none" stroke="midnightblue" d="M632.943,-384.882C652.531,-368.53 685.805,-342.583 718,-326 721.479,-324.208 725.121,-322.506 728.839,-320.897"/>
<polygon fill="midnightblue" stroke="midnightblue" points="730.246,-324.103 738.189,-317.092 727.608,-317.619 730.246,-324.103"/>
</g>
<!-- Node22 -->
<g id="node22" class="node"><title>Node22</title>
<g id="a_node22"><a xlink:href="class_camera.html#a69369efae2a33da50510cc8c43c58bc5" target="_top" xlink:title="Camera::UpdateViewMatrix">
<polygon fill="none" stroke="black" points="547,-453.5 547,-472.5 682,-472.5 682,-453.5 547,-453.5"/>
<text text-anchor="middle" x="614.5" y="-460.5" font-family="Helvetica,sans-Serif" font-size="10.00">Camera::UpdateViewMatrix</text>
</a>
</g>
</g>
<!-- Node21&#45;&gt;Node22 -->
<g id="edge23" class="edge"><title>Node21&#45;&gt;Node22</title>
<path fill="none" stroke="midnightblue" d="M490.136,-491.411C512.008,-486.374 539.006,-480.156 562.164,-474.823"/>
<polygon fill="midnightblue" stroke="midnightblue" points="563.204,-478.175 572.163,-472.52 561.633,-471.354 563.204,-478.175"/>
</g>
<!-- Node23 -->
<g id="node23" class="node"><title>Node23</title>
<g id="a_node23"><a xlink:href="class_camera.html#a5a1a8ddceb04c093f440d4c9dcadbc77" target="_top" xlink:title="Camera::GetView">
<polygon fill="none" stroke="black" points="568,-529.5 568,-548.5 661,-548.5 661,-529.5 568,-529.5"/>
<text text-anchor="middle" x="614.5" y="-536.5" font-family="Helvetica,sans-Serif" font-size="10.00">Camera::GetView</text>
</a>
</g>
</g>
<!-- Node21&#45;&gt;Node23 -->
<g id="edge24" class="edge"><title>Node21&#45;&gt;Node23</title>
<path fill="none" stroke="midnightblue" d="M490.136,-510.589C512.008,-515.626 539.006,-521.844 562.164,-527.177"/>
<polygon fill="midnightblue" stroke="midnightblue" points="561.633,-530.646 572.163,-529.48 563.204,-523.825 561.633,-530.646"/>
</g>
<!-- Node24 -->
<g id="node24" class="node"><title>Node24</title>
<g id="a_node24"><a xlink:href="class_camera.html#ab49825897594ec2da5a4875ccb1620f2" target="_top" xlink:title="Camera::GetProj">
<polygon fill="none" stroke="black" points="570,-491.5 570,-510.5 659,-510.5 659,-491.5 570,-491.5"/>
<text text-anchor="middle" x="614.5" y="-498.5" font-family="Helvetica,sans-Serif" font-size="10.00">Camera::GetProj</text>
</a>
</g>
</g>
<!-- Node21&#45;&gt;Node24 -->
<g id="edge25" class="edge"><title>Node21&#45;&gt;Node24</title>
<path fill="none" stroke="midnightblue" d="M509.003,-501C525.526,-501 543.319,-501 559.457,-501"/>
<polygon fill="midnightblue" stroke="midnightblue" points="559.792,-504.5 569.792,-501 559.792,-497.5 559.792,-504.5"/>
</g>
<!-- Node28&#45;&gt;Node1 -->
<g id="edge44" class="edge"><title>Node28&#45;&gt;Node1</title>
<path fill="none" stroke="midnightblue" d="M410.941,-156.579C367.882,-165.032 295.488,-184.914 250,-228 119.76,-351.362 57.134,-571.089 40.5886,-637.476"/>
<polygon fill="midnightblue" stroke="midnightblue" points="37.1351,-636.866 38.1756,-647.41 43.9373,-638.519 37.1351,-636.866"/>
</g>
<!-- Node28&#45;&gt;Node3 -->
<g id="edge48" class="edge"><title>Node28&#45;&gt;Node3</title>
<path fill="none" stroke="midnightblue" d="M410.879,-156.922C401.449,-159.74 391.748,-163.891 384,-170 367.4,-183.087 213.167,-456.958 171.393,-531.442"/>
<polygon fill="midnightblue" stroke="midnightblue" points="168.305,-529.793 166.468,-540.227 174.411,-533.215 168.305,-529.793"/>
</g>
<!-- Node28&#45;&gt;Node5 -->
<g id="edge45" class="edge"><title>Node28&#45;&gt;Node5</title>
<path fill="none" stroke="midnightblue" d="M421.205,-160.51C408.256,-163.665 393.302,-168.453 384,-179 321.366,-250.022 380.208,-299.951 348,-389 340.639,-409.352 328.374,-430.44 318.085,-445.088"/>
<polygon fill="midnightblue" stroke="midnightblue" points="315.133,-443.193 311.995,-453.312 320.759,-447.358 315.133,-443.193"/>
</g>
<!-- Node28&#45;&gt;Node9 -->
<g id="edge47" class="edge"><title>Node28&#45;&gt;Node9</title>
<path fill="none" stroke="midnightblue" d="M484.256,-156.274C493.796,-159.085 503.519,-163.394 511,-170 574.083,-225.702 600.253,-327.688 609.353,-374.852"/>
<polygon fill="midnightblue" stroke="midnightblue" points="605.936,-375.621 611.179,-384.827 612.822,-374.361 605.936,-375.621"/>
</g>
<!-- Node29 -->
<g id="node29" class="node"><title>Node29</title>
<g id="a_node29"><a xlink:href="classengine.html#a8b8dd82e72fd73e0601c30041529c4c0" target="_top" xlink:title="engine::_initialize">
<polygon fill="none" stroke="black" points="568.5,-161.5 568.5,-180.5 660.5,-180.5 660.5,-161.5 568.5,-161.5"/>
<text text-anchor="middle" x="614.5" y="-168.5" font-family="Helvetica,sans-Serif" font-size="10.00">engine::_initialize</text>
</a>
</g>
</g>
<!-- Node28&#45;&gt;Node29 -->
<g id="edge30" class="edge"><title>Node28&#45;&gt;Node29</title>
<path fill="none" stroke="midnightblue" d="M484.303,-155.34C505.865,-157.953 533.774,-161.336 558.132,-164.289"/>
<polygon fill="midnightblue" stroke="midnightblue" points="557.976,-167.795 568.324,-165.524 558.818,-160.846 557.976,-167.795"/>
</g>
<!-- Node30 -->
<g id="node30" class="node"><title>Node30</title>
<g id="a_node30"><a xlink:href="classengine.html#a958aa4120f21278468225415ffe5ac92" target="_top" xlink:title="engine::_init_main\l_window">
<polygon fill="none" stroke="black" points="742.5,-112 742.5,-142 837.5,-142 837.5,-112 742.5,-112"/>
<text text-anchor="start" x="750.5" y="-130" font-family="Helvetica,sans-Serif" font-size="10.00">engine::_init_main</text>
<text text-anchor="middle" x="790" y="-119" font-family="Helvetica,sans-Serif" font-size="10.00">_window</text>
</a>
</g>
</g>
<!-- Node28&#45;&gt;Node30 -->
<g id="edge46" class="edge"><title>Node28&#45;&gt;Node30</title>
<path fill="none" stroke="midnightblue" d="M484.296,-148.477C543.371,-144.313 661.746,-135.969 732.301,-130.996"/>
<polygon fill="midnightblue" stroke="midnightblue" points="732.622,-134.483 742.351,-130.288 732.129,-127.5 732.622,-134.483"/>
</g>
<!-- Node29&#45;&gt;Node30 -->
<g id="edge31" class="edge"><title>Node29&#45;&gt;Node30</title>
<path fill="none" stroke="midnightblue" d="M653.147,-161.453C676.389,-155.558 706.643,-147.886 732.7,-141.278"/>
<polygon fill="midnightblue" stroke="midnightblue" points="733.624,-144.654 742.457,-138.803 731.904,-137.869 733.624,-144.654"/>
</g>
<!-- Node32 -->
<g id="node32" class="node"><title>Node32</title>
<g id="a_node32"><a xlink:href="class_direct_x_renderer.html#a0d6aef4c838ac765f726391ee65c346c" target="_top" xlink:title="DirectXRenderer::initialize\l_direct3d">
<polygon fill="none" stroke="red" points="726,-161 726,-191 854,-191 854,-161 726,-161"/>
<text text-anchor="start" x="734" y="-179" font-family="Helvetica,sans-Serif" font-size="10.00">DirectXRenderer::initialize</text>
<text text-anchor="middle" x="790" y="-168" font-family="Helvetica,sans-Serif" font-size="10.00">_direct3d</text>
</a>
</g>
</g>
<!-- Node29&#45;&gt;Node32 -->
<g id="edge33" class="edge"><title>Node29&#45;&gt;Node32</title>
<path fill="none" stroke="midnightblue" d="M660.632,-172.301C677.406,-172.784 696.901,-173.346 715.554,-173.883"/>
<polygon fill="midnightblue" stroke="midnightblue" points="715.712,-177.389 725.808,-174.179 715.913,-170.392 715.712,-177.389"/>
</g>
<!-- Node41 -->
<g id="node41" class="node"><title>Node41</title>
<g id="a_node41"><a xlink:href="classengine.html#a2a83502d17f32c78093028f6009df8ba" target="_top" xlink:title="engine::resize">
<polygon fill="none" stroke="red" points="751.5,-210.5 751.5,-229.5 828.5,-229.5 828.5,-210.5 751.5,-210.5"/>
<text text-anchor="middle" x="790" y="-217.5" font-family="Helvetica,sans-Serif" font-size="10.00">engine::resize</text>
</a>
</g>
</g>
<!-- Node29&#45;&gt;Node41 -->
<g id="edge42" class="edge"><title>Node29&#45;&gt;Node41</title>
<path fill="none" stroke="midnightblue" d="M649.198,-180.545C669.193,-186.205 695.041,-193.518 718,-200 726.775,-202.477 736.162,-205.124 745.141,-207.654"/>
<polygon fill="midnightblue" stroke="midnightblue" points="744.476,-211.103 755.05,-210.445 746.374,-204.365 744.476,-211.103"/>
</g>
<!-- Node31 -->
<g id="node31" class="node"><title>Node31</title>
<g id="a_node31"><a xlink:href="engine_8cpp.html#a6430a76bf18e17d995aa340aaf8c30a9" target="_top" xlink:title="MainWndProc">
<polygon fill="none" stroke="red" points="926.5,-0.5 926.5,-19.5 1004.5,-19.5 1004.5,-0.5 926.5,-0.5"/>
<text text-anchor="middle" x="965.5" y="-7.5" font-family="Helvetica,sans-Serif" font-size="10.00">MainWndProc</text>
</a>
</g>
</g>
<!-- Node30&#45;&gt;Node31 -->
<g id="edge32" class="edge"><title>Node30&#45;&gt;Node31</title>
<path fill="none" stroke="midnightblue" d="M803.536,-111.709C822.013,-90.1525 858.645,-51.0088 898,-29 903.844,-25.7318 910.298,-22.9858 916.818,-20.6897"/>
<polygon fill="midnightblue" stroke="midnightblue" points="917.897,-24.0193 926.355,-17.639 915.764,-17.3521 917.897,-24.0193"/>
</g>
<!-- Node33 -->
<g id="node33" class="node"><title>Node33</title>
<g id="a_node33"><a xlink:href="class_direct_x_renderer.html#a8bf63477a5f9f210b627c2d07d54caa5" target="_top" xlink:title="DirectXRenderer::log\l_adapters">
<polygon fill="none" stroke="red" points="913,-137 913,-167 1018,-167 1018,-137 913,-137"/>
<text text-anchor="start" x="921" y="-155" font-family="Helvetica,sans-Serif" font-size="10.00">DirectXRenderer::log</text>
<text text-anchor="middle" x="965.5" y="-144" font-family="Helvetica,sans-Serif" font-size="10.00">_adapters</text>
</a>
</g>
</g>
<!-- Node32&#45;&gt;Node33 -->
<g id="edge34" class="edge"><title>Node32&#45;&gt;Node33</title>
<path fill="none" stroke="midnightblue" d="M854.128,-167.268C869.945,-165.08 886.896,-162.735 902.649,-160.556"/>
<polygon fill="midnightblue" stroke="midnightblue" points="903.379,-163.988 912.805,-159.151 902.42,-157.054 903.379,-163.988"/>
</g>
<!-- Node34 -->
<g id="node34" class="node"><title>Node34</title>
<g id="a_node34"><a xlink:href="class_direct_x_renderer.html#aef2318aa9f9757fde25c94c9857143e8" target="_top" xlink:title="DirectXRenderer::create\l_dx_command_objects">
<polygon fill="none" stroke="black" points="906,-88 906,-118 1025,-118 1025,-88 906,-88"/>
<text text-anchor="start" x="914" y="-106" font-family="Helvetica,sans-Serif" font-size="10.00">DirectXRenderer::create</text>
<text text-anchor="middle" x="965.5" y="-95" font-family="Helvetica,sans-Serif" font-size="10.00">_dx_command_objects</text>
</a>
</g>
</g>
<!-- Node32&#45;&gt;Node34 -->
<g id="edge35" class="edge"><title>Node32&#45;&gt;Node34</title>
<path fill="none" stroke="midnightblue" d="M839.036,-160.927C846.85,-157.954 854.752,-154.621 862,-151 879.203,-142.407 880.831,-135.66 898,-127 901.476,-125.247 905.111,-123.559 908.814,-121.949"/>
<polygon fill="midnightblue" stroke="midnightblue" points="910.197,-125.164 918.1,-118.109 907.522,-118.695 910.197,-125.164"/>
</g>
<!-- Node35 -->
<g id="node35" class="node"><title>Node35</title>
<g id="a_node35"><a xlink:href="class_direct_x_renderer.html#ab76ef034cbf3cfafc7a8aae1b50f6e6b" target="_top" xlink:title="DirectXRenderer::create\l_swap_chain">
<polygon fill="none" stroke="black" points="906,-39 906,-69 1025,-69 1025,-39 906,-39"/>
<text text-anchor="start" x="914" y="-57" font-family="Helvetica,sans-Serif" font-size="10.00">DirectXRenderer::create</text>
<text text-anchor="middle" x="965.5" y="-46" font-family="Helvetica,sans-Serif" font-size="10.00">_swap_chain</text>
</a>
</g>
</g>
<!-- Node32&#45;&gt;Node35 -->
<g id="edge36" class="edge"><title>Node32&#45;&gt;Node35</title>
<path fill="none" stroke="midnightblue" d="M847.224,-160.999C852.554,-158.205 857.601,-154.902 862,-151 889.063,-126.995 871.031,-102.111 898,-78 899.321,-76.8189 900.705,-75.6947 902.14,-74.6248"/>
<polygon fill="midnightblue" stroke="midnightblue" points="904.294,-77.4021 910.839,-69.0712 900.527,-71.5018 904.294,-77.4021"/>
</g>
<!-- Node36 -->
<g id="node36" class="node"><title>Node36</title>
<g id="a_node36"><a xlink:href="class_direct_x_renderer.html#a0f9a3dabe2f03739ba06155572eef957" target="_top" xlink:title="DirectXRenderer::create\l_descriptor_heaps">
<polygon fill="none" stroke="red" points="906,-333 906,-363 1025,-363 1025,-333 906,-333"/>
<text text-anchor="start" x="914" y="-351" font-family="Helvetica,sans-Serif" font-size="10.00">DirectXRenderer::create</text>
<text text-anchor="middle" x="965.5" y="-340" font-family="Helvetica,sans-Serif" font-size="10.00">_descriptor_heaps</text>
</a>
</g>
</g>
<!-- Node32&#45;&gt;Node36 -->
<g id="edge37" class="edge"><title>Node32&#45;&gt;Node36</title>
<path fill="none" stroke="midnightblue" d="M849.313,-191.061C853.981,-193.833 858.31,-197.115 862,-201 900.93,-241.994 859.503,-281.599 898,-323 899.354,-324.456 900.802,-325.829 902.326,-327.121"/>
<polygon fill="midnightblue" stroke="midnightblue" points="900.324,-329.993 910.499,-332.945 904.386,-324.292 900.324,-329.993"/>
</g>
<!-- Node37 -->
<g id="node37" class="node"><title>Node37</title>
<g id="a_node37"><a xlink:href="class_direct_x_renderer.html#a09278f83b0f7f134871bb21c72e07587" target="_top" xlink:title="DirectXRenderer::create\l_constant_buffers">
<polygon fill="none" stroke="red" points="906,-284 906,-314 1025,-314 1025,-284 906,-284"/>
<text text-anchor="start" x="914" y="-302" font-family="Helvetica,sans-Serif" font-size="10.00">DirectXRenderer::create</text>
<text text-anchor="middle" x="965.5" y="-291" font-family="Helvetica,sans-Serif" font-size="10.00">_constant_buffers</text>
</a>
</g>
</g>
<!-- Node32&#45;&gt;Node37 -->
<g id="edge38" class="edge"><title>Node32&#45;&gt;Node37</title>
<path fill="none" stroke="midnightblue" d="M847.224,-191.001C852.554,-193.795 857.601,-197.098 862,-201 889.063,-225.005 871.191,-249.711 898,-274 899.708,-275.548 901.521,-277.002 903.415,-278.37"/>
<polygon fill="midnightblue" stroke="midnightblue" points="901.82,-281.5 912.158,-283.822 905.524,-275.56 901.82,-281.5"/>
</g>
<!-- Node38 -->
<g id="node38" class="node"><title>Node38</title>
<g id="a_node38"><a xlink:href="class_direct_x_renderer.html#acaec9787ee504297135360aaf1bf45fa" target="_top" xlink:title="DirectXRenderer::create\l_root_signature">
<polygon fill="none" stroke="black" points="906,-235 906,-265 1025,-265 1025,-235 906,-235"/>
<text text-anchor="start" x="914" y="-253" font-family="Helvetica,sans-Serif" font-size="10.00">DirectXRenderer::create</text>
<text text-anchor="middle" x="965.5" y="-242" font-family="Helvetica,sans-Serif" font-size="10.00">_root_signature</text>
</a>
</g>
</g>
<!-- Node32&#45;&gt;Node38 -->
<g id="edge39" class="edge"><title>Node32&#45;&gt;Node38</title>
<path fill="none" stroke="midnightblue" d="M839.036,-191.073C846.85,-194.046 854.752,-197.379 862,-201 879.203,-209.593 880.889,-216.226 898,-225 902.061,-227.082 906.337,-229.085 910.681,-230.987"/>
<polygon fill="midnightblue" stroke="midnightblue" points="909.668,-234.357 920.244,-234.984 912.367,-227.898 909.668,-234.357"/>
</g>
<!-- Node39 -->
<g id="node39" class="node"><title>Node39</title>
<g id="a_node39"><a xlink:href="class_direct_x_renderer.html#a83af308560d21041e34b96f35ba0b9d9" target="_top" xlink:title="DirectXRenderer::create\l_shaders_and_input_layout">
<polygon fill="none" stroke="red" points="898,-186 898,-216 1033,-216 1033,-186 898,-186"/>
<text text-anchor="start" x="906" y="-204" font-family="Helvetica,sans-Serif" font-size="10.00">DirectXRenderer::create</text>
<text text-anchor="middle" x="965.5" y="-193" font-family="Helvetica,sans-Serif" font-size="10.00">_shaders_and_input_layout</text>
</a>
</g>
</g>
<!-- Node32&#45;&gt;Node39 -->
<g id="edge40" class="edge"><title>Node32&#45;&gt;Node39</title>
<path fill="none" stroke="midnightblue" d="M854.128,-185.096C865.033,-186.668 876.477,-188.317 887.696,-189.933"/>
<polygon fill="midnightblue" stroke="midnightblue" points="887.517,-193.443 897.914,-191.405 888.515,-186.515 887.517,-193.443"/>
</g>
<!-- Node40 -->
<g id="node40" class="node"><title>Node40</title>
<g id="a_node40"><a xlink:href="class_direct_x_renderer.html#ab1ac2acccb63781ec8ccce58fe351c63" target="_top" xlink:title="DirectXRenderer::flush\l_command_queue">
<polygon fill="none" stroke="black" points="909,-491 909,-521 1022,-521 1022,-491 909,-491"/>
<text text-anchor="start" x="917" y="-509" font-family="Helvetica,sans-Serif" font-size="10.00">DirectXRenderer::flush</text>
<text text-anchor="middle" x="965.5" y="-498" font-family="Helvetica,sans-Serif" font-size="10.00">_command_queue</text>
</a>
</g>
</g>
<!-- Node32&#45;&gt;Node40 -->
<g id="edge41" class="edge"><title>Node32&#45;&gt;Node40</title>
<path fill="none" stroke="midnightblue" d="M850.316,-191.176C854.656,-193.923 858.64,-197.168 862,-201 913.204,-259.396 872.534,-298.628 898,-372 911.955,-412.207 935.294,-455.848 950.284,-482.051"/>
<polygon fill="midnightblue" stroke="midnightblue" points="947.356,-483.978 955.397,-490.877 953.413,-480.469 947.356,-483.978"/>
</g>
<!-- Node41&#45;&gt;Node4 -->
<g id="edge43" class="edge"><title>Node41&#45;&gt;Node4</title>
<path fill="none" stroke="midnightblue" d="M828.552,-221.523C841.023,-223.999 853.804,-229.055 862,-239 935.527,-328.217 825.226,-668.168 898,-758 900.604,-761.214 903.712,-763.908 907.14,-766.162"/>
<polygon fill="midnightblue" stroke="midnightblue" points="905.735,-769.377 916.219,-770.908 908.978,-763.174 905.735,-769.377"/>
</g>
<!-- Node42&#45;&gt;Node40 -->
<g id="edge53" class="edge"><title>Node42&#45;&gt;Node40</title>
<path fill="none" stroke="midnightblue" d="M495.319,-726.494C501.096,-723.819 506.53,-720.391 511,-716 546.491,-681.131 508.416,-641.412 547,-610 656.399,-520.937 729.204,-618.598 862,-571 889.992,-560.967 918.269,-542.244 938.012,-527.46"/>
<polygon fill="midnightblue" stroke="midnightblue" points="940.378,-530.057 946.187,-521.197 936.121,-524.5 940.378,-530.057"/>
</g>
<!-- Node43 -->
<g id="node43" class="node"><title>Node43</title>
<g id="a_node43"><a xlink:href="class_direct_x_renderer.html#a94f4585e3451924820e261e01d8cfc89" target="_top" xlink:title="DirectXRenderer::get\l_current_back_buffer">
<polygon fill="none" stroke="black" points="561,-718 561,-748 668,-748 668,-718 561,-718"/>
<text text-anchor="start" x="569" y="-736" font-family="Helvetica,sans-Serif" font-size="10.00">DirectXRenderer::get</text>
<text text-anchor="middle" x="614.5" y="-725" font-family="Helvetica,sans-Serif" font-size="10.00">_current_back_buffer</text>
</a>
</g>
</g>
<!-- Node42&#45;&gt;Node43 -->
<g id="edge50" class="edge"><title>Node42&#45;&gt;Node43</title>
<path fill="none" stroke="midnightblue" d="M507.137,-734.934C521.225,-734.678 536.328,-734.403 550.6,-734.144"/>
<polygon fill="midnightblue" stroke="midnightblue" points="550.885,-737.639 560.82,-733.958 550.758,-730.64 550.885,-737.639"/>
</g>
<!-- Node44 -->
<g id="node44" class="node"><title>Node44</title>
<g id="a_node44"><a xlink:href="class_direct_x_renderer.html#a7bfc3b725a9ecb5e47889f0e9627f0c8" target="_top" xlink:title="DirectXRenderer::get\l_current_back_buffer_view">
<polygon fill="none" stroke="black" points="549.5,-669 549.5,-699 679.5,-699 679.5,-669 549.5,-669"/>
<text text-anchor="start" x="557.5" y="-687" font-family="Helvetica,sans-Serif" font-size="10.00">DirectXRenderer::get</text>
<text text-anchor="middle" x="614.5" y="-676" font-family="Helvetica,sans-Serif" font-size="10.00">_current_back_buffer_view</text>
</a>
</g>
</g>
<!-- Node42&#45;&gt;Node44 -->
<g id="edge51" class="edge"><title>Node42&#45;&gt;Node44</title>
<path fill="none" stroke="midnightblue" d="M478.764,-726.462C500.295,-719.677 529.891,-710.35 555.861,-702.165"/>
<polygon fill="midnightblue" stroke="midnightblue" points="557.127,-705.436 565.612,-699.092 555.023,-698.76 557.127,-705.436"/>
</g>
<!-- Node45 -->
<g id="node45" class="node"><title>Node45</title>
<g id="a_node45"><a xlink:href="class_direct_x_renderer.html#a3fd16381af742f128d5a7138d65be695" target="_top" xlink:title="DirectXRenderer::get\l_depth_stencil_view">
<polygon fill="none" stroke="black" points="561.5,-620 561.5,-650 667.5,-650 667.5,-620 561.5,-620"/>
<text text-anchor="start" x="569.5" y="-638" font-family="Helvetica,sans-Serif" font-size="10.00">DirectXRenderer::get</text>
<text text-anchor="middle" x="614.5" y="-627" font-family="Helvetica,sans-Serif" font-size="10.00">_depth_stencil_view</text>
</a>
</g>
</g>
<!-- Node42&#45;&gt;Node45 -->
<g id="edge52" class="edge"><title>Node42&#45;&gt;Node45</title>
<path fill="none" stroke="midnightblue" d="M492.154,-726.399C498.868,-723.725 505.414,-720.323 511,-716 534.696,-697.663 523.644,-677.769 547,-659 548.749,-657.594 550.587,-656.267 552.494,-655.014"/>
<polygon fill="midnightblue" stroke="midnightblue" points="554.302,-658.012 561.217,-649.985 550.805,-651.948 554.302,-658.012"/>
</g>
<!-- Node49&#45;&gt;Node4 -->
<g id="edge58" class="edge"><title>Node49&#45;&gt;Node4</title>
<path fill="none" stroke="midnightblue" d="M196.294,-774.553C202.5,-777.079 208.67,-780.194 214,-784 234.843,-798.885 227.632,-816.523 250,-829 326.838,-871.858 358.518,-853 446.5,-853 446.5,-853 446.5,-853 615.5,-853 725.574,-853 756.313,-859.765 862,-829 890.779,-820.623 921.075,-804.173 941.199,-792.009"/>
<polygon fill="midnightblue" stroke="midnightblue" points="943.282,-794.836 949.949,-786.601 939.602,-788.881 943.282,-794.836"/>
</g>
<!-- Node50 -->
<g id="node50" class="node"><title>Node50</title>
<g id="a_node50"><a xlink:href="classengine.html#acd777bc3c114987c48721b4aa96a477b" target="_top" xlink:title="engine::_shutdown">
<polygon fill="none" stroke="black" points="250,-881.5 250,-900.5 348,-900.5 348,-881.5 250,-881.5"/>
<text text-anchor="middle" x="299" y="-888.5" font-family="Helvetica,sans-Serif" font-size="10.00">engine::_shutdown</text>
</a>
</g>
</g>
<!-- Node49&#45;&gt;Node50 -->
<g id="edge59" class="edge"><title>Node49&#45;&gt;Node50</title>
<path fill="none" stroke="midnightblue" d="M199.647,-774.559C204.88,-777.028 209.863,-780.124 214,-784 243.342,-811.493 222.352,-837.805 250,-867 253.423,-870.615 257.509,-873.766 261.831,-876.491"/>
<polygon fill="midnightblue" stroke="midnightblue" points="260.453,-879.727 270.9,-881.493 263.834,-873.598 260.453,-879.727"/>
</g>
</g>
</svg>
