<?xml version="1.0" encoding="UTF-8" standalone="no"?>
<!DOCTYPE svg PUBLIC "-//W3C//DTD SVG 1.1//EN"
 "http://www.w3.org/Graphics/SVG/1.1/DTD/svg11.dtd">
<!-- Generated by graphviz version 2.38.0 (20140413.2041)
 -->
<!-- Title: d3dUtil::CalcConstantBufferByteSize Pages: 1 -->
<svg width="316pt" height="104pt"
 viewBox="0.00 0.00 316.00 104.00" xmlns="http://www.w3.org/2000/svg" xmlns:xlink="http://www.w3.org/1999/xlink">
<g id="graph0" class="graph" transform="scale(1 1) rotate(0) translate(4 100)">
<title>d3dUtil::CalcConstantBufferByteSize</title>
<!-- Node1 -->
<g id="node1" class="node"><title>Node1</title>
<polygon fill="#bfbfbf" stroke="black" points="0,-33 0,-63 136,-63 136,-33 0,-33"/>
<text text-anchor="start" x="8" y="-51" font-family="Helvetica,sans-Serif" font-size="10.00">d3dUtil::CalcConstantBuffer</text>
<text text-anchor="middle" x="68" y="-40" font-family="Helvetica,sans-Serif" font-size="10.00">ByteSize</text>
</g>
<!-- Node2 -->
<g id="node2" class="node"><title>Node2</title>
<g id="a_node2"><a xlink:href="classd3d_util.html#a374c360bb2668c34223e74fbf0f1402b" target="_top" xlink:title="d3dUtil::LoadBinary">
<polygon fill="none" stroke="black" points="189.5,-76.5 189.5,-95.5 290.5,-95.5 290.5,-76.5 189.5,-76.5"/>
<text text-anchor="middle" x="240" y="-83.5" font-family="Helvetica,sans-Serif" font-size="10.00">d3dUtil::LoadBinary</text>
</a>
</g>
</g>
<!-- Node1&#45;&gt;Node2 -->
<g id="edge1" class="edge"><title>Node1&#45;&gt;Node2</title>
<path fill="none" stroke="midnightblue" d="M136.189,-63.0186C152.785,-66.7285 170.331,-70.6504 186.137,-74.1836"/>
<polygon fill="midnightblue" stroke="midnightblue" points="185.723,-77.6774 196.246,-76.4432 187.25,-70.8459 185.723,-77.6774"/>
</g>
<!-- Node3 -->
<g id="node3" class="node"><title>Node3</title>
<g id="a_node3"><a xlink:href="classd3d_util.html#ae4a68e5b73f032619ee5c2db64f57899" target="_top" xlink:title="d3dUtil::CreateDefaultBuffer">
<polygon fill="none" stroke="black" points="172,-38.5 172,-57.5 308,-57.5 308,-38.5 172,-38.5"/>
<text text-anchor="middle" x="240" y="-45.5" font-family="Helvetica,sans-Serif" font-size="10.00">d3dUtil::CreateDefaultBuffer</text>
</a>
</g>
</g>
<!-- Node1&#45;&gt;Node3 -->
<g id="edge2" class="edge"><title>Node1&#45;&gt;Node3</title>
<path fill="none" stroke="midnightblue" d="M136.189,-48C144.502,-48 153.054,-48 161.506,-48"/>
<polygon fill="midnightblue" stroke="midnightblue" points="161.743,-51.5001 171.743,-48 161.743,-44.5001 161.743,-51.5001"/>
</g>
<!-- Node4 -->
<g id="node4" class="node"><title>Node4</title>
<g id="a_node4"><a xlink:href="classd3d_util.html#acac6acd838913d63466e4f0159bfe8b0" target="_top" xlink:title="d3dUtil::CompileShader">
<polygon fill="none" stroke="black" points="180.5,-0.5 180.5,-19.5 299.5,-19.5 299.5,-0.5 180.5,-0.5"/>
<text text-anchor="middle" x="240" y="-7.5" font-family="Helvetica,sans-Serif" font-size="10.00">d3dUtil::CompileShader</text>
</a>
</g>
</g>
<!-- Node1&#45;&gt;Node4 -->
<g id="edge3" class="edge"><title>Node1&#45;&gt;Node4</title>
<path fill="none" stroke="midnightblue" d="M136.189,-32.9814C152.785,-29.2715 170.331,-25.3496 186.137,-21.8164"/>
<polygon fill="midnightblue" stroke="midnightblue" points="187.25,-25.1541 196.246,-19.5568 185.723,-18.3226 187.25,-25.1541"/>
</g>
</g>
</svg>
