<?xml version="1.0" encoding="UTF-8" standalone="no"?>
<!DOCTYPE svg PUBLIC "-//W3C//DTD SVG 1.1//EN"
 "http://www.w3.org/Graphics/SVG/1.1/DTD/svg11.dtd">
<!-- Generated by graphviz version 2.38.0 (20140413.2041)
 -->
<!-- Title: d3dUtil::CompileShader Pages: 1 -->
<svg width="1320pt" height="138pt"
 viewBox="0.00 0.00 1320.00 137.50" xmlns="http://www.w3.org/2000/svg" xmlns:xlink="http://www.w3.org/1999/xlink">
<g id="graph0" class="graph" transform="scale(1 1) rotate(0) translate(4 133.5)">
<title>d3dUtil::CompileShader</title>
<!-- Node1 -->
<g id="node1" class="node"><title>Node1</title>
<polygon fill="#bfbfbf" stroke="black" points="0,-35.5 0,-54.5 119,-54.5 119,-35.5 0,-35.5"/>
<text text-anchor="middle" x="59.5" y="-42.5" font-family="Helvetica,sans-Serif" font-size="10.00">d3dUtil::CompileShader</text>
</g>
<!-- Node2 -->
<g id="node2" class="node"><title>Node2</title>
<g id="a_node2"><a xlink:href="classd3d_util.html#a0883e0848cae813b2bc71570f3303e92" target="_top" xlink:title="d3dUtil::CalcConstantBuffer\lByteSize">
<polygon fill="none" stroke="black" points="155,-55 155,-85 291,-85 291,-55 155,-55"/>
<text text-anchor="start" x="163" y="-73" font-family="Helvetica,sans-Serif" font-size="10.00">d3dUtil::CalcConstantBuffer</text>
<text text-anchor="middle" x="223" y="-62" font-family="Helvetica,sans-Serif" font-size="10.00">ByteSize</text>
</a>
</g>
</g>
<!-- Node1&#45;&gt;Node2 -->
<g id="edge1" class="edge"><title>Node1&#45;&gt;Node2</title>
<path fill="none" stroke="midnightblue" d="M129.41,-55.6673C137.822,-56.9694 146.409,-58.2987 154.796,-59.5969"/>
<polygon fill="midnightblue" stroke="midnightblue" points="129.68,-52.1673 119.262,-54.0963 128.609,-59.0849 129.68,-52.1673"/>
</g>
<!-- Node13 -->
<g id="node13" class="node"><title>Node13</title>
<g id="a_node13"><a xlink:href="class_direct_x_renderer.html#a83af308560d21041e34b96f35ba0b9d9" target="_top" xlink:title="DirectXRenderer::create\l_shaders_and_input_layout">
<polygon fill="none" stroke="black" points="155.5,-6 155.5,-36 290.5,-36 290.5,-6 155.5,-6"/>
<text text-anchor="start" x="163.5" y="-24" font-family="Helvetica,sans-Serif" font-size="10.00">DirectXRenderer::create</text>
<text text-anchor="middle" x="223" y="-13" font-family="Helvetica,sans-Serif" font-size="10.00">_shaders_and_input_layout</text>
</a>
</g>
</g>
<!-- Node1&#45;&gt;Node13 -->
<g id="edge15" class="edge"><title>Node1&#45;&gt;Node13</title>
<path fill="none" stroke="midnightblue" d="M129.289,-34.7775C137.925,-33.4942 146.747,-32.1832 155.348,-30.9049"/>
<polygon fill="midnightblue" stroke="midnightblue" points="128.639,-31.3356 119.262,-36.2676 129.668,-38.2595 128.639,-31.3356"/>
</g>
<!-- Node3 -->
<g id="node3" class="node"><title>Node3</title>
<g id="a_node3"><a xlink:href="class_direct_x_renderer.html#a09278f83b0f7f134871bb21c72e07587" target="_top" xlink:title="DirectXRenderer::create\l_constant_buffers">
<polygon fill="none" stroke="black" points="344,-99 344,-129 463,-129 463,-99 344,-99"/>
<text text-anchor="start" x="352" y="-117" font-family="Helvetica,sans-Serif" font-size="10.00">DirectXRenderer::create</text>
<text text-anchor="middle" x="403.5" y="-106" font-family="Helvetica,sans-Serif" font-size="10.00">_constant_buffers</text>
</a>
</g>
</g>
<!-- Node2&#45;&gt;Node3 -->
<g id="edge2" class="edge"><title>Node2&#45;&gt;Node3</title>
<path fill="none" stroke="midnightblue" d="M294.923,-87.4825C311.181,-91.49 328.287,-95.7066 343.955,-99.5687"/>
<polygon fill="midnightblue" stroke="midnightblue" points="295.477,-84.0144 284.93,-85.0192 293.802,-90.8109 295.477,-84.0144"/>
</g>
<!-- Node12 -->
<g id="node12" class="node"><title>Node12</title>
<g id="a_node12"><a xlink:href="class_upload_buffer.html#a622fad9645e52e4d6074a2e533165855" target="_top" xlink:title="UploadBuffer\&lt; ObjectConstants\l \&gt;::UploadBuffer">
<polygon fill="none" stroke="black" points="327,-50 327,-80 480,-80 480,-50 327,-50"/>
<text text-anchor="start" x="335" y="-68" font-family="Helvetica,sans-Serif" font-size="10.00">UploadBuffer&lt; ObjectConstants</text>
<text text-anchor="middle" x="403.5" y="-57" font-family="Helvetica,sans-Serif" font-size="10.00"> &gt;::UploadBuffer</text>
</a>
</g>
</g>
<!-- Node2&#45;&gt;Node12 -->
<g id="edge14" class="edge"><title>Node2&#45;&gt;Node12</title>
<path fill="none" stroke="midnightblue" d="M301.455,-67.8304C309.914,-67.5934 318.517,-67.3525 326.953,-67.1162"/>
<polygon fill="midnightblue" stroke="midnightblue" points="301.127,-64.3381 291.229,-68.1168 301.323,-71.3354 301.127,-64.3381"/>
</g>
<!-- Node4 -->
<g id="node4" class="node"><title>Node4</title>
<g id="a_node4"><a xlink:href="class_direct_x_renderer.html#a0d6aef4c838ac765f726391ee65c346c" target="_top" xlink:title="DirectXRenderer::initialize\l_direct3d">
<polygon fill="none" stroke="black" points="516,-52 516,-82 644,-82 644,-52 516,-52"/>
<text text-anchor="start" x="524" y="-70" font-family="Helvetica,sans-Serif" font-size="10.00">DirectXRenderer::initialize</text>
<text text-anchor="middle" x="580" y="-59" font-family="Helvetica,sans-Serif" font-size="10.00">_direct3d</text>
</a>
</g>
</g>
<!-- Node3&#45;&gt;Node4 -->
<g id="edge3" class="edge"><title>Node3&#45;&gt;Node4</title>
<path fill="none" stroke="midnightblue" d="M470.296,-96.2784C487.734,-91.5818 506.39,-86.5568 523.238,-82.019"/>
<polygon fill="midnightblue" stroke="midnightblue" points="468.938,-93.0193 460.193,-98.9997 470.759,-99.7784 468.938,-93.0193"/>
</g>
<!-- Node5 -->
<g id="node5" class="node"><title>Node5</title>
<g id="a_node5"><a xlink:href="classengine.html#a8b8dd82e72fd73e0601c30041529c4c0" target="_top" xlink:title="engine::_initialize">
<polygon fill="none" stroke="black" points="680,-57.5 680,-76.5 772,-76.5 772,-57.5 680,-57.5"/>
<text text-anchor="middle" x="726" y="-64.5" font-family="Helvetica,sans-Serif" font-size="10.00">engine::_initialize</text>
</a>
</g>
</g>
<!-- Node4&#45;&gt;Node5 -->
<g id="edge4" class="edge"><title>Node4&#45;&gt;Node5</title>
<path fill="none" stroke="midnightblue" d="M654.283,-67C662.922,-67 671.536,-67 679.627,-67"/>
<polygon fill="midnightblue" stroke="midnightblue" points="654.161,-63.5001 644.16,-67 654.16,-70.5001 654.161,-63.5001"/>
</g>
<!-- Node6 -->
<g id="node6" class="node"><title>Node6</title>
<g id="a_node6"><a xlink:href="classengine.html#a6809dcdfe78011851e377d4729a87ee4" target="_top" xlink:title="engine::initialize">
<polygon fill="none" stroke="black" points="808,-76.5 808,-95.5 894,-95.5 894,-76.5 808,-76.5"/>
<text text-anchor="middle" x="851" y="-83.5" font-family="Helvetica,sans-Serif" font-size="10.00">engine::initialize</text>
</a>
</g>
</g>
<!-- Node5&#45;&gt;Node6 -->
<g id="edge5" class="edge"><title>Node5&#45;&gt;Node6</title>
<path fill="none" stroke="midnightblue" d="M782.097,-75.5109C790.712,-76.8417 799.497,-78.1987 807.765,-79.4758"/>
<polygon fill="midnightblue" stroke="midnightblue" points="782.519,-72.0347 772.102,-73.967 781.451,-78.9527 782.519,-72.0347"/>
</g>
<!-- Node7 -->
<g id="node7" class="node"><title>Node7</title>
<g id="a_node7"><a xlink:href="classengine.html#ada832d0a14502f1b99fdbd5c72cab01b" target="_top" xlink:title="engine::Draw">
<polygon fill="none" stroke="black" points="814.5,-38.5 814.5,-57.5 887.5,-57.5 887.5,-38.5 814.5,-38.5"/>
<text text-anchor="middle" x="851" y="-45.5" font-family="Helvetica,sans-Serif" font-size="10.00">engine::Draw</text>
</a>
</g>
</g>
<!-- Node5&#45;&gt;Node7 -->
<g id="edge6" class="edge"><title>Node5&#45;&gt;Node7</title>
<path fill="none" stroke="midnightblue" d="M781.998,-58.5044C792.9,-56.8203 804.079,-55.0935 814.142,-53.5391"/>
<polygon fill="midnightblue" stroke="midnightblue" points="781.451,-55.0473 772.102,-60.033 782.519,-61.9653 781.451,-55.0473"/>
</g>
<!-- Node8 -->
<g id="node8" class="node"><title>Node8</title>
<g id="a_node8"><a xlink:href="classengine.html#a90418b124cd07d7d2f057e7d401ed641" target="_top" xlink:title="engine::_tick">
<polygon fill="none" stroke="black" points="930,-57.5 930,-76.5 1002,-76.5 1002,-57.5 930,-57.5"/>
<text text-anchor="middle" x="966" y="-64.5" font-family="Helvetica,sans-Serif" font-size="10.00">engine::_tick</text>
</a>
</g>
</g>
<!-- Node7&#45;&gt;Node8 -->
<g id="edge7" class="edge"><title>Node7&#45;&gt;Node8</title>
<path fill="none" stroke="midnightblue" d="M897.921,-49.0775C912.923,-51.2953 928.957,-54.3417 941.586,-57.4705"/>
<polygon fill="midnightblue" stroke="midnightblue" points="898.137,-45.5744 887.754,-47.6836 897.186,-52.5095 898.137,-45.5744"/>
</g>
<!-- Node8&#45;&gt;Node7 -->
<g id="edge13" class="edge"><title>Node8&#45;&gt;Node7</title>
<path fill="none" stroke="midnightblue" d="M919.371,-65.9655C904.285,-63.7442 888.125,-60.6786 875.414,-57.5295"/>
<polygon fill="midnightblue" stroke="midnightblue" points="919.206,-69.4754 929.588,-67.3592 920.152,-62.5397 919.206,-69.4754"/>
</g>
<!-- Node9 -->
<g id="node9" class="node"><title>Node9</title>
<g id="a_node9"><a xlink:href="classengine.html#a4bca5e9257e46c09a63f71227fc25a12" target="_top" xlink:title="engine::tick">
<polygon fill="none" stroke="black" points="1038,-19.5 1038,-38.5 1105,-38.5 1105,-19.5 1038,-19.5"/>
<text text-anchor="middle" x="1071.5" y="-26.5" font-family="Helvetica,sans-Serif" font-size="10.00">engine::tick</text>
</a>
</g>
</g>
<!-- Node8&#45;&gt;Node9 -->
<g id="edge8" class="edge"><title>Node8&#45;&gt;Node9</title>
<path fill="none" stroke="midnightblue" d="M1002.73,-53.882C1016.42,-48.8561 1031.77,-43.2209 1044.39,-38.5859"/>
<polygon fill="midnightblue" stroke="midnightblue" points="1001.3,-50.6788 993.117,-57.411 1003.71,-57.2499 1001.3,-50.6788"/>
</g>
<!-- Node9&#45;&gt;Node7 -->
<g id="edge12" class="edge"><title>Node9&#45;&gt;Node7</title>
<path fill="none" stroke="midnightblue" d="M1027.58,-32.7318C986.696,-36.2873 925.86,-41.5774 887.592,-44.905"/>
<polygon fill="midnightblue" stroke="midnightblue" points="1028.12,-36.1984 1037.78,-31.8451 1027.52,-29.2247 1028.12,-36.1984"/>
</g>
<!-- Node10 -->
<g id="node10" class="node"><title>Node10</title>
<g id="a_node10"><a xlink:href="classengine.html#a1d9b806d03be0255a8ac3c119e181cc5" target="_top" xlink:title="engine::_run">
<polygon fill="none" stroke="black" points="1141,-0.5 1141,-19.5 1211,-19.5 1211,-0.5 1141,-0.5"/>
<text text-anchor="middle" x="1176" y="-7.5" font-family="Helvetica,sans-Serif" font-size="10.00">engine::_run</text>
</a>
</g>
</g>
<!-- Node9&#45;&gt;Node10 -->
<g id="edge9" class="edge"><title>Node9&#45;&gt;Node10</title>
<path fill="none" stroke="midnightblue" d="M1115.08,-21.1076C1123.66,-19.5164 1132.58,-17.8631 1140.83,-16.3335"/>
<polygon fill="midnightblue" stroke="midnightblue" points="1114.41,-17.672 1105.21,-22.936 1115.68,-24.5547 1114.41,-17.672"/>
</g>
<!-- Node10&#45;&gt;Node7 -->
<g id="edge11" class="edge"><title>Node10&#45;&gt;Node7</title>
<path fill="none" stroke="midnightblue" d="M1130.6,-7.74994C1103.73,-6.94709 1068.82,-6.89333 1038,-10 989.261,-14.9137 977.993,-22.1894 930,-32 916.186,-34.8239 900.997,-37.9375 887.722,-40.6617"/>
<polygon fill="midnightblue" stroke="midnightblue" points="1130.73,-11.2565 1140.84,-8.10361 1130.97,-4.26063 1130.73,-11.2565"/>
</g>
<!-- Node11 -->
<g id="node11" class="node"><title>Node11</title>
<g id="a_node11"><a xlink:href="classengine.html#aecb22d51cc8f83cacbf3696a18d66c30" target="_top" xlink:title="engine::run">
<polygon fill="none" stroke="black" points="1247,-0.5 1247,-19.5 1312,-19.5 1312,-0.5 1247,-0.5"/>
<text text-anchor="middle" x="1279.5" y="-7.5" font-family="Helvetica,sans-Serif" font-size="10.00">engine::run</text>
</a>
</g>
</g>
<!-- Node10&#45;&gt;Node11 -->
<g id="edge10" class="edge"><title>Node10&#45;&gt;Node11</title>
<path fill="none" stroke="midnightblue" d="M1221.33,-10C1229.88,-10 1238.68,-10 1246.74,-10"/>
<polygon fill="midnightblue" stroke="midnightblue" points="1221.08,-6.5001 1211.08,-10 1221.08,-13.5001 1221.08,-6.5001"/>
</g>
<!-- Node13&#45;&gt;Node4 -->
<g id="edge16" class="edge"><title>Node13&#45;&gt;Node4</title>
<path fill="none" stroke="midnightblue" d="M301.029,-22.8611C352.096,-25.039 420.417,-29.7618 480,-40 496.856,-42.8963 514.991,-47.4172 531.077,-51.9371"/>
<polygon fill="midnightblue" stroke="midnightblue" points="300.862,-19.3516 290.729,-22.4463 300.58,-26.346 300.862,-19.3516"/>
</g>
</g>
</svg>
