<?xml version="1.0" encoding="UTF-8" standalone="no"?>
<!DOCTYPE svg PUBLIC "-//W3C//DTD SVG 1.1//EN"
 "http://www.w3.org/Graphics/SVG/1.1/DTD/svg11.dtd">
<!-- Generated by graphviz version 2.38.0 (20140413.2041)
 -->
<!-- Title: engine::_tick Pages: 1 -->
<svg width="398pt" height="113pt"
 viewBox="0.00 0.00 398.00 113.00" xmlns="http://www.w3.org/2000/svg" xmlns:xlink="http://www.w3.org/1999/xlink">
<g id="graph0" class="graph" transform="scale(1 1) rotate(0) translate(4 109)">
<title>engine::_tick</title>
<!-- Node1 -->
<g id="node1" class="node"><title>Node1</title>
<polygon fill="#bfbfbf" stroke="black" points="0,-0.5 0,-19.5 72,-19.5 72,-0.5 0,-0.5"/>
<text text-anchor="middle" x="36" y="-7.5" font-family="Helvetica,sans-Serif" font-size="10.00">engine::_tick</text>
</g>
<!-- Node2 -->
<g id="node2" class="node"><title>Node2</title>
<g id="a_node2"><a xlink:href="classengine.html#a4bca5e9257e46c09a63f71227fc25a12" target="_top" xlink:title="engine::tick">
<polygon fill="none" stroke="black" points="108,-47.5 108,-66.5 175,-66.5 175,-47.5 108,-47.5"/>
<text text-anchor="middle" x="141.5" y="-54.5" font-family="Helvetica,sans-Serif" font-size="10.00">engine::tick</text>
</a>
</g>
</g>
<!-- Node1&#45;&gt;Node2 -->
<g id="edge1" class="edge"><title>Node1&#45;&gt;Node2</title>
<path fill="none" stroke="midnightblue" d="M67.2773,-23.7491C83.952,-31.3212 104.242,-40.535 119.231,-47.3417"/>
<polygon fill="midnightblue" stroke="midnightblue" points="68.4971,-20.4591 57.9448,-19.5112 65.6028,-26.8327 68.4971,-20.4591"/>
</g>
<!-- Node5 -->
<g id="node5" class="node"><title>Node5</title>
<g id="a_node5"><a xlink:href="classengine.html#ada832d0a14502f1b99fdbd5c72cab01b" target="_top" xlink:title="engine::Draw">
<polygon fill="none" stroke="black" points="317,-23.5 317,-42.5 390,-42.5 390,-23.5 317,-23.5"/>
<text text-anchor="middle" x="353.5" y="-30.5" font-family="Helvetica,sans-Serif" font-size="10.00">engine::Draw</text>
</a>
</g>
</g>
<!-- Node1&#45;&gt;Node5 -->
<g id="edge7" class="edge"><title>Node1&#45;&gt;Node5</title>
<path fill="none" stroke="midnightblue" d="M82.3683,-8.4C145.723,-10.4209 259.381,-18.8554 316.971,-25.949"/>
<polygon fill="midnightblue" stroke="midnightblue" points="82.3656,-4.89871 72.2735,-8.12345 82.1739,-11.8961 82.3656,-4.89871"/>
</g>
<!-- Node3 -->
<g id="node3" class="node"><title>Node3</title>
<g id="a_node3"><a xlink:href="classengine.html#a1d9b806d03be0255a8ac3c119e181cc5" target="_top" xlink:title="engine::_run">
<polygon fill="none" stroke="black" points="211,-85.5 211,-104.5 281,-104.5 281,-85.5 211,-85.5"/>
<text text-anchor="middle" x="246" y="-92.5" font-family="Helvetica,sans-Serif" font-size="10.00">engine::_run</text>
</a>
</g>
</g>
<!-- Node2&#45;&gt;Node3 -->
<g id="edge2" class="edge"><title>Node2&#45;&gt;Node3</title>
<path fill="none" stroke="midnightblue" d="M177.884,-70.118C191.441,-75.1439 206.641,-80.7791 219.143,-85.4141"/>
<polygon fill="midnightblue" stroke="midnightblue" points="178.958,-66.7835 168.365,-66.589 176.525,-73.3469 178.958,-66.7835"/>
</g>
<!-- Node2&#45;&gt;Node5 -->
<g id="edge6" class="edge"><title>Node2&#45;&gt;Node5</title>
<path fill="none" stroke="midnightblue" d="M185.739,-52.0584C224.447,-47.6346 280.53,-41.2252 316.757,-37.0849"/>
<polygon fill="midnightblue" stroke="midnightblue" points="184.85,-48.6371 175.313,-53.25 185.645,-55.5918 184.85,-48.6371"/>
</g>
<!-- Node4 -->
<g id="node4" class="node"><title>Node4</title>
<g id="a_node4"><a xlink:href="classengine.html#aecb22d51cc8f83cacbf3696a18d66c30" target="_top" xlink:title="engine::run">
<polygon fill="none" stroke="black" points="321,-85.5 321,-104.5 386,-104.5 386,-85.5 321,-85.5"/>
<text text-anchor="middle" x="353.5" y="-92.5" font-family="Helvetica,sans-Serif" font-size="10.00">engine::run</text>
</a>
</g>
</g>
<!-- Node3&#45;&gt;Node4 -->
<g id="edge3" class="edge"><title>Node3&#45;&gt;Node4</title>
<path fill="none" stroke="midnightblue" d="M291.387,-95C301.311,-95 311.639,-95 320.92,-95"/>
<polygon fill="midnightblue" stroke="midnightblue" points="291.253,-91.5001 281.253,-95 291.253,-98.5001 291.253,-91.5001"/>
</g>
<!-- Node3&#45;&gt;Node5 -->
<g id="edge4" class="edge"><title>Node3&#45;&gt;Node5</title>
<path fill="none" stroke="midnightblue" d="M272.288,-80.1387C292.095,-68.4984 319.066,-52.6485 336.131,-42.6195"/>
<polygon fill="midnightblue" stroke="midnightblue" points="270.332,-77.2283 263.484,-85.3125 273.879,-83.2633 270.332,-77.2283"/>
</g>
<!-- Node5&#45;&gt;Node1 -->
<g id="edge5" class="edge"><title>Node5&#45;&gt;Node1</title>
<path fill="none" stroke="midnightblue" d="M306.85,-34.591C243.347,-32.5511 129.698,-24.1091 72.2735,-17.0194"/>
<polygon fill="midnightblue" stroke="midnightblue" points="306.878,-38.093 316.971,-34.8708 307.072,-31.0957 306.878,-38.093"/>
</g>
</g>
</svg>
