<?xml version="1.0" encoding="UTF-8" standalone="no"?>
<!DOCTYPE svg PUBLIC "-//W3C//DTD SVG 1.1//EN"
 "http://www.w3.org/Graphics/SVG/1.1/DTD/svg11.dtd">
<!-- Generated by graphviz version 2.38.0 (20140413.2041)
 -->
<!-- Title: engine::_resize Pages: 1 -->
<svg width="872pt" height="104pt"
 viewBox="0.00 0.00 872.00 104.00" xmlns="http://www.w3.org/2000/svg" xmlns:xlink="http://www.w3.org/1999/xlink">
<g id="graph0" class="graph" transform="scale(1 1) rotate(0) translate(4 100)">
<title>engine::_resize</title>
<!-- Node1 -->
<g id="node1" class="node"><title>Node1</title>
<polygon fill="#bfbfbf" stroke="black" points="0,-57.5 0,-76.5 83,-76.5 83,-57.5 0,-57.5"/>
<text text-anchor="middle" x="41.5" y="-64.5" font-family="Helvetica,sans-Serif" font-size="10.00">engine::_resize</text>
</g>
<!-- Node2 -->
<g id="node2" class="node"><title>Node2</title>
<g id="a_node2"><a xlink:href="classengine.html#a2a83502d17f32c78093028f6009df8ba" target="_top" xlink:title="engine::resize">
<polygon fill="none" stroke="black" points="119,-57.5 119,-76.5 196,-76.5 196,-57.5 119,-57.5"/>
<text text-anchor="middle" x="157.5" y="-64.5" font-family="Helvetica,sans-Serif" font-size="10.00">engine::resize</text>
</a>
</g>
</g>
<!-- Node1&#45;&gt;Node2 -->
<g id="edge1" class="edge"><title>Node1&#45;&gt;Node2</title>
<path fill="none" stroke="midnightblue" d="M93.0306,-67C101.684,-67 110.54,-67 118.785,-67"/>
<polygon fill="midnightblue" stroke="midnightblue" points="93.0132,-63.5001 83.0131,-67 93.0131,-70.5001 93.0132,-63.5001"/>
</g>
<!-- Node3 -->
<g id="node3" class="node"><title>Node3</title>
<g id="a_node3"><a xlink:href="classengine.html#a8b8dd82e72fd73e0601c30041529c4c0" target="_top" xlink:title="engine::_initialize">
<polygon fill="none" stroke="black" points="232,-57.5 232,-76.5 324,-76.5 324,-57.5 232,-57.5"/>
<text text-anchor="middle" x="278" y="-64.5" font-family="Helvetica,sans-Serif" font-size="10.00">engine::_initialize</text>
</a>
</g>
</g>
<!-- Node2&#45;&gt;Node3 -->
<g id="edge2" class="edge"><title>Node2&#45;&gt;Node3</title>
<path fill="none" stroke="midnightblue" d="M206.322,-67C214.688,-67 223.371,-67 231.668,-67"/>
<polygon fill="midnightblue" stroke="midnightblue" points="206.32,-63.5001 196.32,-67 206.32,-70.5001 206.32,-63.5001"/>
</g>
<!-- Node4 -->
<g id="node4" class="node"><title>Node4</title>
<g id="a_node4"><a xlink:href="classengine.html#a6809dcdfe78011851e377d4729a87ee4" target="_top" xlink:title="engine::initialize">
<polygon fill="none" stroke="black" points="360,-76.5 360,-95.5 446,-95.5 446,-76.5 360,-76.5"/>
<text text-anchor="middle" x="403" y="-83.5" font-family="Helvetica,sans-Serif" font-size="10.00">engine::initialize</text>
</a>
</g>
</g>
<!-- Node3&#45;&gt;Node4 -->
<g id="edge3" class="edge"><title>Node3&#45;&gt;Node4</title>
<path fill="none" stroke="midnightblue" d="M334.097,-75.5109C342.712,-76.8417 351.497,-78.1987 359.765,-79.4758"/>
<polygon fill="midnightblue" stroke="midnightblue" points="334.519,-72.0347 324.102,-73.967 333.451,-78.9527 334.519,-72.0347"/>
</g>
<!-- Node5 -->
<g id="node5" class="node"><title>Node5</title>
<g id="a_node5"><a xlink:href="classengine.html#ada832d0a14502f1b99fdbd5c72cab01b" target="_top" xlink:title="engine::Draw">
<polygon fill="none" stroke="black" points="366.5,-38.5 366.5,-57.5 439.5,-57.5 439.5,-38.5 366.5,-38.5"/>
<text text-anchor="middle" x="403" y="-45.5" font-family="Helvetica,sans-Serif" font-size="10.00">engine::Draw</text>
</a>
</g>
</g>
<!-- Node3&#45;&gt;Node5 -->
<g id="edge4" class="edge"><title>Node3&#45;&gt;Node5</title>
<path fill="none" stroke="midnightblue" d="M333.998,-58.5044C344.9,-56.8203 356.079,-55.0935 366.142,-53.5391"/>
<polygon fill="midnightblue" stroke="midnightblue" points="333.451,-55.0473 324.102,-60.033 334.519,-61.9653 333.451,-55.0473"/>
</g>
<!-- Node6 -->
<g id="node6" class="node"><title>Node6</title>
<g id="a_node6"><a xlink:href="classengine.html#a90418b124cd07d7d2f057e7d401ed641" target="_top" xlink:title="engine::_tick">
<polygon fill="none" stroke="black" points="482,-57.5 482,-76.5 554,-76.5 554,-57.5 482,-57.5"/>
<text text-anchor="middle" x="518" y="-64.5" font-family="Helvetica,sans-Serif" font-size="10.00">engine::_tick</text>
</a>
</g>
</g>
<!-- Node5&#45;&gt;Node6 -->
<g id="edge5" class="edge"><title>Node5&#45;&gt;Node6</title>
<path fill="none" stroke="midnightblue" d="M449.921,-49.0775C464.923,-51.2953 480.957,-54.3417 493.586,-57.4705"/>
<polygon fill="midnightblue" stroke="midnightblue" points="450.137,-45.5744 439.754,-47.6836 449.186,-52.5095 450.137,-45.5744"/>
</g>
<!-- Node6&#45;&gt;Node5 -->
<g id="edge11" class="edge"><title>Node6&#45;&gt;Node5</title>
<path fill="none" stroke="midnightblue" d="M471.371,-65.9655C456.285,-63.7442 440.125,-60.6786 427.414,-57.5295"/>
<polygon fill="midnightblue" stroke="midnightblue" points="471.206,-69.4754 481.588,-67.3592 472.152,-62.5397 471.206,-69.4754"/>
</g>
<!-- Node7 -->
<g id="node7" class="node"><title>Node7</title>
<g id="a_node7"><a xlink:href="classengine.html#a4bca5e9257e46c09a63f71227fc25a12" target="_top" xlink:title="engine::tick">
<polygon fill="none" stroke="black" points="590,-19.5 590,-38.5 657,-38.5 657,-19.5 590,-19.5"/>
<text text-anchor="middle" x="623.5" y="-26.5" font-family="Helvetica,sans-Serif" font-size="10.00">engine::tick</text>
</a>
</g>
</g>
<!-- Node6&#45;&gt;Node7 -->
<g id="edge6" class="edge"><title>Node6&#45;&gt;Node7</title>
<path fill="none" stroke="midnightblue" d="M554.729,-53.882C568.418,-48.8561 583.767,-43.2209 596.391,-38.5859"/>
<polygon fill="midnightblue" stroke="midnightblue" points="553.298,-50.6788 545.117,-57.411 555.711,-57.2499 553.298,-50.6788"/>
</g>
<!-- Node7&#45;&gt;Node5 -->
<g id="edge10" class="edge"><title>Node7&#45;&gt;Node5</title>
<path fill="none" stroke="midnightblue" d="M579.585,-32.7318C538.696,-36.2873 477.86,-41.5774 439.592,-44.905"/>
<polygon fill="midnightblue" stroke="midnightblue" points="580.122,-36.1984 589.781,-31.8451 579.515,-29.2247 580.122,-36.1984"/>
</g>
<!-- Node8 -->
<g id="node8" class="node"><title>Node8</title>
<g id="a_node8"><a xlink:href="classengine.html#a1d9b806d03be0255a8ac3c119e181cc5" target="_top" xlink:title="engine::_run">
<polygon fill="none" stroke="black" points="693,-0.5 693,-19.5 763,-19.5 763,-0.5 693,-0.5"/>
<text text-anchor="middle" x="728" y="-7.5" font-family="Helvetica,sans-Serif" font-size="10.00">engine::_run</text>
</a>
</g>
</g>
<!-- Node7&#45;&gt;Node8 -->
<g id="edge7" class="edge"><title>Node7&#45;&gt;Node8</title>
<path fill="none" stroke="midnightblue" d="M667.077,-21.1076C675.662,-19.5164 684.581,-17.8631 692.832,-16.3335"/>
<polygon fill="midnightblue" stroke="midnightblue" points="666.408,-17.672 657.213,-22.936 667.684,-24.5547 666.408,-17.672"/>
</g>
<!-- Node8&#45;&gt;Node5 -->
<g id="edge9" class="edge"><title>Node8&#45;&gt;Node5</title>
<path fill="none" stroke="midnightblue" d="M682.606,-7.84934C655.741,-7.08197 620.829,-7.03059 590,-10 541.326,-14.6883 529.892,-21.1262 482,-31 468.154,-33.8545 452.959,-37.1331 439.688,-40.0447"/>
<polygon fill="midnightblue" stroke="midnightblue" points="682.741,-11.3556 692.851,-8.1874 682.972,-4.35941 682.741,-11.3556"/>
</g>
<!-- Node9 -->
<g id="node9" class="node"><title>Node9</title>
<g id="a_node9"><a xlink:href="classengine.html#aecb22d51cc8f83cacbf3696a18d66c30" target="_top" xlink:title="engine::run">
<polygon fill="none" stroke="black" points="799,-0.5 799,-19.5 864,-19.5 864,-0.5 799,-0.5"/>
<text text-anchor="middle" x="831.5" y="-7.5" font-family="Helvetica,sans-Serif" font-size="10.00">engine::run</text>
</a>
</g>
</g>
<!-- Node8&#45;&gt;Node9 -->
<g id="edge8" class="edge"><title>Node8&#45;&gt;Node9</title>
<path fill="none" stroke="midnightblue" d="M773.325,-10C781.879,-10 790.681,-10 798.737,-10"/>
<polygon fill="midnightblue" stroke="midnightblue" points="773.08,-6.5001 763.08,-10 773.08,-13.5001 773.08,-6.5001"/>
</g>
</g>
</svg>
