<?xml version="1.0" encoding="UTF-8" standalone="no"?>
<!DOCTYPE svg PUBLIC "-//W3C//DTD SVG 1.1//EN"
 "http://www.w3.org/Graphics/SVG/1.1/DTD/svg11.dtd">
<!-- Generated by graphviz version 2.38.0 (20140413.2041)
 -->
<!-- Title: engine::_update_frame_stats Pages: 1 -->
<svg width="549pt" height="143pt"
 viewBox="0.00 0.00 549.00 142.50" xmlns="http://www.w3.org/2000/svg" xmlns:xlink="http://www.w3.org/1999/xlink">
<g id="graph0" class="graph" transform="scale(1 1) rotate(0) translate(4 138.5)">
<title>engine::_update_frame_stats</title>
<!-- Node1 -->
<g id="node1" class="node"><title>Node1</title>
<polygon fill="#bfbfbf" stroke="black" points="0,-0.5 0,-30.5 115,-30.5 115,-0.5 0,-0.5"/>
<text text-anchor="start" x="8" y="-18.5" font-family="Helvetica,sans-Serif" font-size="10.00">engine::_update_frame</text>
<text text-anchor="middle" x="57.5" y="-7.5" font-family="Helvetica,sans-Serif" font-size="10.00">_stats</text>
</g>
<!-- Node2 -->
<g id="node2" class="node"><title>Node2</title>
<g id="a_node2"><a xlink:href="classengine.html#a90418b124cd07d7d2f057e7d401ed641" target="_top" xlink:title="engine::_tick">
<polygon fill="none" stroke="black" points="151,-30 151,-49 223,-49 223,-30 151,-30"/>
<text text-anchor="middle" x="187" y="-37" font-family="Helvetica,sans-Serif" font-size="10.00">engine::_tick</text>
</a>
</g>
</g>
<!-- Node1&#45;&gt;Node2 -->
<g id="edge1" class="edge"><title>Node1&#45;&gt;Node2</title>
<path fill="none" stroke="midnightblue" d="M125.136,-28.0433C133.972,-29.7064 142.733,-31.3556 150.739,-32.8627"/>
<polygon fill="midnightblue" stroke="midnightblue" points="125.641,-24.5769 115.166,-26.1665 124.346,-31.4561 125.641,-24.5769"/>
</g>
<!-- Node6 -->
<g id="node6" class="node"><title>Node6</title>
<g id="a_node6"><a xlink:href="classengine.html#ada832d0a14502f1b99fdbd5c72cab01b" target="_top" xlink:title="engine::Draw">
<polygon fill="none" stroke="black" points="468,-30 468,-49 541,-49 541,-30 468,-30"/>
<text text-anchor="middle" x="504.5" y="-37" font-family="Helvetica,sans-Serif" font-size="10.00">engine::Draw</text>
</a>
</g>
</g>
<!-- Node1&#45;&gt;Node6 -->
<g id="edge9" class="edge"><title>Node1&#45;&gt;Node6</title>
<path fill="none" stroke="midnightblue" d="M125.542,-16.9726C155.389,-17.7739 190.962,-18.9286 223,-20.5 310.995,-24.8161 414.35,-32.4914 467.659,-36.6432"/>
<polygon fill="midnightblue" stroke="midnightblue" points="125.326,-13.4658 115.239,-16.7038 125.144,-20.4635 125.326,-13.4658"/>
</g>
<!-- Node3 -->
<g id="node3" class="node"><title>Node3</title>
<g id="a_node3"><a xlink:href="classengine.html#a4bca5e9257e46c09a63f71227fc25a12" target="_top" xlink:title="engine::tick">
<polygon fill="none" stroke="black" points="259,-77 259,-96 326,-96 326,-77 259,-77"/>
<text text-anchor="middle" x="292.5" y="-84" font-family="Helvetica,sans-Serif" font-size="10.00">engine::tick</text>
</a>
</g>
</g>
<!-- Node2&#45;&gt;Node3 -->
<g id="edge2" class="edge"><title>Node2&#45;&gt;Node3</title>
<path fill="none" stroke="midnightblue" d="M218.277,-53.2491C234.952,-60.8212 255.242,-70.035 270.231,-76.8417"/>
<polygon fill="midnightblue" stroke="midnightblue" points="219.497,-49.9591 208.945,-49.0112 216.603,-56.3327 219.497,-49.9591"/>
</g>
<!-- Node2&#45;&gt;Node6 -->
<g id="edge8" class="edge"><title>Node2&#45;&gt;Node6</title>
<path fill="none" stroke="midnightblue" d="M233.368,-34.5926C296.723,-31.995 410.381,-32.1439 467.971,-35.0391"/>
<polygon fill="midnightblue" stroke="midnightblue" points="233.104,-31.1009 223.273,-35.052 233.422,-38.0937 233.104,-31.1009"/>
</g>
<!-- Node4 -->
<g id="node4" class="node"><title>Node4</title>
<g id="a_node4"><a xlink:href="classengine.html#a1d9b806d03be0255a8ac3c119e181cc5" target="_top" xlink:title="engine::_run">
<polygon fill="none" stroke="black" points="362,-115 362,-134 432,-134 432,-115 362,-115"/>
<text text-anchor="middle" x="397" y="-122" font-family="Helvetica,sans-Serif" font-size="10.00">engine::_run</text>
</a>
</g>
</g>
<!-- Node3&#45;&gt;Node4 -->
<g id="edge3" class="edge"><title>Node3&#45;&gt;Node4</title>
<path fill="none" stroke="midnightblue" d="M328.884,-99.618C342.441,-104.644 357.641,-110.279 370.143,-114.914"/>
<polygon fill="midnightblue" stroke="midnightblue" points="329.958,-96.2835 319.365,-96.089 327.525,-102.847 329.958,-96.2835"/>
</g>
<!-- Node3&#45;&gt;Node6 -->
<g id="edge7" class="edge"><title>Node3&#45;&gt;Node6</title>
<path fill="none" stroke="midnightblue" d="M336.315,-80.6597C363.846,-76.517 400.273,-70.3114 432,-62.5 447.067,-58.7904 463.576,-53.5597 476.931,-49.0237"/>
<polygon fill="midnightblue" stroke="midnightblue" points="335.611,-77.2256 326.228,-82.1455 336.631,-84.1509 335.611,-77.2256"/>
</g>
<!-- Node5 -->
<g id="node5" class="node"><title>Node5</title>
<g id="a_node5"><a xlink:href="classengine.html#aecb22d51cc8f83cacbf3696a18d66c30" target="_top" xlink:title="engine::run">
<polygon fill="none" stroke="black" points="472,-115 472,-134 537,-134 537,-115 472,-115"/>
<text text-anchor="middle" x="504.5" y="-122" font-family="Helvetica,sans-Serif" font-size="10.00">engine::run</text>
</a>
</g>
</g>
<!-- Node4&#45;&gt;Node5 -->
<g id="edge4" class="edge"><title>Node4&#45;&gt;Node5</title>
<path fill="none" stroke="midnightblue" d="M442.387,-124.5C452.311,-124.5 462.639,-124.5 471.92,-124.5"/>
<polygon fill="midnightblue" stroke="midnightblue" points="442.253,-121 432.253,-124.5 442.253,-128 442.253,-121"/>
</g>
<!-- Node4&#45;&gt;Node6 -->
<g id="edge5" class="edge"><title>Node4&#45;&gt;Node6</title>
<path fill="none" stroke="midnightblue" d="M420.389,-109.135C424.305,-106.324 428.306,-103.37 432,-100.5 454.163,-83.282 478.821,-61.6643 492.616,-49.3315"/>
<polygon fill="midnightblue" stroke="midnightblue" points="418.262,-106.352 412.105,-114.974 422.295,-112.074 418.262,-106.352"/>
</g>
<!-- Node6&#45;&gt;Node2 -->
<g id="edge6" class="edge"><title>Node6&#45;&gt;Node2</title>
<path fill="none" stroke="midnightblue" d="M457.85,-44.4189C394.347,-47.0084 280.698,-46.8514 223.273,-43.948"/>
<polygon fill="midnightblue" stroke="midnightblue" points="458.139,-47.9095 467.971,-43.9609 457.823,-40.9166 458.139,-47.9095"/>
</g>
</g>
</svg>
