<?xml version="1.0" encoding="UTF-8" standalone="no"?>
<!DOCTYPE svg PUBLIC "-//W3C//DTD SVG 1.1//EN"
 "http://www.w3.org/Graphics/SVG/1.1/DTD/svg11.dtd">
<!-- Generated by graphviz version 2.38.0 (20140413.2041)
 -->
<!-- Title: engine::Draw Pages: 1 -->
<svg width="499pt" height="85pt"
 viewBox="0.00 0.00 499.00 85.00" xmlns="http://www.w3.org/2000/svg" xmlns:xlink="http://www.w3.org/1999/xlink">
<g id="graph0" class="graph" transform="scale(1 1) rotate(0) translate(4 81)">
<title>engine::Draw</title>
<!-- Node1 -->
<g id="node1" class="node"><title>Node1</title>
<polygon fill="#bfbfbf" stroke="black" points="0,-38.5 0,-57.5 73,-57.5 73,-38.5 0,-38.5"/>
<text text-anchor="middle" x="36.5" y="-45.5" font-family="Helvetica,sans-Serif" font-size="10.00">engine::Draw</text>
</g>
<!-- Node2 -->
<g id="node2" class="node"><title>Node2</title>
<g id="a_node2"><a xlink:href="classengine.html#a90418b124cd07d7d2f057e7d401ed641" target="_top" xlink:title="engine::_tick">
<polygon fill="none" stroke="black" points="109,-57.5 109,-76.5 181,-76.5 181,-57.5 109,-57.5"/>
<text text-anchor="middle" x="145" y="-64.5" font-family="Helvetica,sans-Serif" font-size="10.00">engine::_tick</text>
</a>
</g>
</g>
<!-- Node1&#45;&gt;Node2 -->
<g id="edge1" class="edge"><title>Node1&#45;&gt;Node2</title>
<path fill="none" stroke="midnightblue" d="M83.2932,-49.4789C96.6521,-51.6489 110.65,-54.5093 121.833,-57.4442"/>
<polygon fill="midnightblue" stroke="midnightblue" points="83.6696,-45.9961 73.2592,-47.9642 82.6248,-52.9177 83.6696,-45.9961"/>
</g>
<!-- Node2&#45;&gt;Node1 -->
<g id="edge7" class="edge"><title>Node2&#45;&gt;Node1</title>
<path fill="none" stroke="midnightblue" d="M98.7848,-65.6147C85.2127,-63.4273 70.9278,-60.516 59.5669,-57.5295"/>
<polygon fill="midnightblue" stroke="midnightblue" points="98.5568,-69.1194 108.964,-67.1355 99.5912,-62.1962 98.5568,-69.1194"/>
</g>
<!-- Node3 -->
<g id="node3" class="node"><title>Node3</title>
<g id="a_node3"><a xlink:href="classengine.html#a4bca5e9257e46c09a63f71227fc25a12" target="_top" xlink:title="engine::tick">
<polygon fill="none" stroke="black" points="217,-19.5 217,-38.5 284,-38.5 284,-19.5 217,-19.5"/>
<text text-anchor="middle" x="250.5" y="-26.5" font-family="Helvetica,sans-Serif" font-size="10.00">engine::tick</text>
</a>
</g>
</g>
<!-- Node2&#45;&gt;Node3 -->
<g id="edge2" class="edge"><title>Node2&#45;&gt;Node3</title>
<path fill="none" stroke="midnightblue" d="M181.729,-53.882C195.418,-48.8561 210.767,-43.2209 223.391,-38.5859"/>
<polygon fill="midnightblue" stroke="midnightblue" points="180.298,-50.6788 172.117,-57.411 182.711,-57.2499 180.298,-50.6788"/>
</g>
<!-- Node3&#45;&gt;Node1 -->
<g id="edge6" class="edge"><title>Node3&#45;&gt;Node1</title>
<path fill="none" stroke="midnightblue" d="M206.815,-32.8255C167.667,-36.334 110.334,-41.4725 73.4629,-44.7769"/>
<polygon fill="midnightblue" stroke="midnightblue" points="207.199,-36.3052 216.847,-31.9265 206.574,-29.3332 207.199,-36.3052"/>
</g>
<!-- Node4 -->
<g id="node4" class="node"><title>Node4</title>
<g id="a_node4"><a xlink:href="classengine.html#a1d9b806d03be0255a8ac3c119e181cc5" target="_top" xlink:title="engine::_run">
<polygon fill="none" stroke="black" points="320,-0.5 320,-19.5 390,-19.5 390,-0.5 320,-0.5"/>
<text text-anchor="middle" x="355" y="-7.5" font-family="Helvetica,sans-Serif" font-size="10.00">engine::_run</text>
</a>
</g>
</g>
<!-- Node3&#45;&gt;Node4 -->
<g id="edge3" class="edge"><title>Node3&#45;&gt;Node4</title>
<path fill="none" stroke="midnightblue" d="M294.077,-21.1076C302.662,-19.5164 311.581,-17.8631 319.832,-16.3335"/>
<polygon fill="midnightblue" stroke="midnightblue" points="293.408,-17.672 284.213,-22.936 294.684,-24.5547 293.408,-17.672"/>
</g>
<!-- Node4&#45;&gt;Node1 -->
<g id="edge5" class="edge"><title>Node4&#45;&gt;Node1</title>
<path fill="none" stroke="midnightblue" d="M309.606,-7.84934C282.741,-7.08197 247.829,-7.03059 217,-10 168.326,-14.6883 156.797,-20.6756 109,-31 97.2767,-33.5323 84.5226,-36.497 73.0753,-39.2351"/>
<polygon fill="midnightblue" stroke="midnightblue" points="309.741,-11.3556 319.851,-8.1874 309.972,-4.35941 309.741,-11.3556"/>
</g>
<!-- Node5 -->
<g id="node5" class="node"><title>Node5</title>
<g id="a_node5"><a xlink:href="classengine.html#aecb22d51cc8f83cacbf3696a18d66c30" target="_top" xlink:title="engine::run">
<polygon fill="none" stroke="black" points="426,-0.5 426,-19.5 491,-19.5 491,-0.5 426,-0.5"/>
<text text-anchor="middle" x="458.5" y="-7.5" font-family="Helvetica,sans-Serif" font-size="10.00">engine::run</text>
</a>
</g>
</g>
<!-- Node4&#45;&gt;Node5 -->
<g id="edge4" class="edge"><title>Node4&#45;&gt;Node5</title>
<path fill="none" stroke="midnightblue" d="M400.325,-10C408.879,-10 417.681,-10 425.737,-10"/>
<polygon fill="midnightblue" stroke="midnightblue" points="400.08,-6.5001 390.08,-10 400.08,-13.5001 400.08,-6.5001"/>
</g>
</g>
</svg>
