<?xml version="1.0" encoding="UTF-8" standalone="no"?>
<!DOCTYPE svg PUBLIC "-//W3C//DTD SVG 1.1//EN"
 "http://www.w3.org/Graphics/SVG/1.1/DTD/svg11.dtd">
<!-- Generated by graphviz version 2.38.0 (20140413.2041)
 -->
<!-- Title: MathHelper::RandF Pages: 1 -->
<svg width="446pt" height="116pt"
 viewBox="0.00 0.00 446.00 116.00" xmlns="http://www.w3.org/2000/svg" xmlns:xlink="http://www.w3.org/1999/xlink">
<g id="graph0" class="graph" transform="scale(1 1) rotate(0) translate(4 112)">
<title>MathHelper::RandF</title>
<!-- Node1 -->
<g id="node1" class="node"><title>Node1</title>
<polygon fill="#bfbfbf" stroke="black" points="0,-44.5 0,-63.5 101,-63.5 101,-44.5 0,-44.5"/>
<text text-anchor="middle" x="50.5" y="-51.5" font-family="Helvetica,sans-Serif" font-size="10.00">MathHelper::RandF</text>
</g>
<!-- Node2 -->
<g id="node2" class="node"><title>Node2</title>
<g id="a_node2"><a xlink:href="class_math_helper.html#ad28ffa12ec507b33bd45dd3a842173a6" target="_top" xlink:title="MathHelper::RandUnitVec3">
<polygon fill="none" stroke="black" points="143,-88.5 143,-107.5 277,-107.5 277,-88.5 143,-88.5"/>
<text text-anchor="middle" x="210" y="-95.5" font-family="Helvetica,sans-Serif" font-size="10.00">MathHelper::RandUnitVec3</text>
</a>
</g>
</g>
<!-- Node1&#45;&gt;Node2 -->
<g id="edge1" class="edge"><title>Node1&#45;&gt;Node2</title>
<path fill="none" stroke="midnightblue" d="M93.2902,-66.4593C107.175,-70.5349 122.732,-75.0323 137,-79 148.334,-82.152 160.708,-85.4639 171.951,-88.4238"/>
<polygon fill="midnightblue" stroke="midnightblue" points="94.099,-63.0489 83.5174,-63.5798 92.1205,-69.7635 94.099,-63.0489"/>
</g>
<!-- Node4 -->
<g id="node4" class="node"><title>Node4</title>
<g id="a_node4"><a xlink:href="class_math_helper.html#a1b8d2df0e81ec45673de09642351119d" target="_top" xlink:title="MathHelper::RandHemisphere\lUnitVec3">
<polygon fill="none" stroke="black" points="137,-39 137,-69 283,-69 283,-39 137,-39"/>
<text text-anchor="start" x="145" y="-57" font-family="Helvetica,sans-Serif" font-size="10.00">MathHelper::RandHemisphere</text>
<text text-anchor="middle" x="210" y="-46" font-family="Helvetica,sans-Serif" font-size="10.00">UnitVec3</text>
</a>
</g>
</g>
<!-- Node1&#45;&gt;Node4 -->
<g id="edge3" class="edge"><title>Node1&#45;&gt;Node4</title>
<path fill="none" stroke="midnightblue" d="M111.58,-54C119.815,-54 128.338,-54 136.761,-54"/>
<polygon fill="midnightblue" stroke="midnightblue" points="111.334,-50.5001 101.334,-54 111.334,-57.5001 111.334,-50.5001"/>
</g>
<!-- Node5 -->
<g id="node5" class="node"><title>Node5</title>
<g id="a_node5"><a xlink:href="class_math_helper.html#a5b45a90302f9791a4961d943d473d6bb" target="_top" xlink:title="MathHelper::RandF">
<polygon fill="none" stroke="black" points="159.5,-0.5 159.5,-19.5 260.5,-19.5 260.5,-0.5 159.5,-0.5"/>
<text text-anchor="middle" x="210" y="-7.5" font-family="Helvetica,sans-Serif" font-size="10.00">MathHelper::RandF</text>
</a>
</g>
</g>
<!-- Node1&#45;&gt;Node5 -->
<g id="edge5" class="edge"><title>Node1&#45;&gt;Node5</title>
<path fill="none" stroke="midnightblue" d="M95.498,-41.6251C108.828,-37.8825 123.51,-33.7669 137,-30 149.245,-26.5806 162.667,-22.8483 174.569,-19.5437"/>
<polygon fill="midnightblue" stroke="midnightblue" points="94.2912,-38.3285 85.6103,-44.4023 96.1842,-45.0677 94.2912,-38.3285"/>
</g>
<!-- Node3 -->
<g id="node3" class="node"><title>Node3</title>
<g id="a_node3"><a xlink:href="class_math_helper.html#a68b4e9af95b1a36aad30ea80839f6b19" target="_top" xlink:title="MathHelper::Identity4x4">
<polygon fill="none" stroke="black" points="319,-66.5 319,-85.5 438,-85.5 438,-66.5 319,-66.5"/>
<text text-anchor="middle" x="378.5" y="-73.5" font-family="Helvetica,sans-Serif" font-size="10.00">MathHelper::Identity4x4</text>
</a>
</g>
</g>
<!-- Node2&#45;&gt;Node3 -->
<g id="edge2" class="edge"><title>Node2&#45;&gt;Node3</title>
<path fill="none" stroke="midnightblue" d="M287.39,-87.9064C298.003,-86.5041 308.765,-85.0821 318.981,-83.7322"/>
<polygon fill="midnightblue" stroke="midnightblue" points="286.739,-84.4619 277.284,-89.2418 287.656,-91.4016 286.739,-84.4619"/>
</g>
<!-- Node4&#45;&gt;Node3 -->
<g id="edge4" class="edge"><title>Node4&#45;&gt;Node3</title>
<path fill="none" stroke="midnightblue" d="M293.198,-64.861C301.858,-66.0053 310.534,-67.1516 318.85,-68.2504"/>
<polygon fill="midnightblue" stroke="midnightblue" points="293.433,-61.3617 283.061,-63.5216 292.516,-68.3014 293.433,-61.3617"/>
</g>
</g>
</svg>
