<?xml version="1.0" encoding="UTF-8" standalone="no"?>
<!DOCTYPE svg PUBLIC "-//W3C//DTD SVG 1.1//EN"
 "http://www.w3.org/Graphics/SVG/1.1/DTD/svg11.dtd">
<!-- Generated by graphviz version 2.38.0 (20140413.2041)
 -->
<!-- Title: GameTimer::avg_ns_per_update Pages: 1 -->
<svg width="707pt" height="143pt"
 viewBox="0.00 0.00 707.00 142.50" xmlns="http://www.w3.org/2000/svg" xmlns:xlink="http://www.w3.org/1999/xlink">
<g id="graph0" class="graph" transform="scale(1 1) rotate(0) translate(4 138.5)">
<title>GameTimer::avg_ns_per_update</title>
<!-- Node1 -->
<g id="node1" class="node"><title>Node1</title>
<polygon fill="#bfbfbf" stroke="black" points="0,-0.5 0,-30.5 122,-30.5 122,-0.5 0,-0.5"/>
<text text-anchor="start" x="8" y="-18.5" font-family="Helvetica,sans-Serif" font-size="10.00">GameTimer::avg_ns_per</text>
<text text-anchor="middle" x="61" y="-7.5" font-family="Helvetica,sans-Serif" font-size="10.00">_update</text>
</g>
<!-- Node2 -->
<g id="node2" class="node"><title>Node2</title>
<g id="a_node2"><a xlink:href="classengine.html#aef40b48edcc51792bb523f80c4eebbd3" target="_top" xlink:title="engine::_update_frame\l_stats">
<polygon fill="none" stroke="black" points="158,-0.5 158,-30.5 273,-30.5 273,-0.5 158,-0.5"/>
<text text-anchor="start" x="166" y="-18.5" font-family="Helvetica,sans-Serif" font-size="10.00">engine::_update_frame</text>
<text text-anchor="middle" x="215.5" y="-7.5" font-family="Helvetica,sans-Serif" font-size="10.00">_stats</text>
</a>
</g>
</g>
<!-- Node1&#45;&gt;Node2 -->
<g id="edge1" class="edge"><title>Node1&#45;&gt;Node2</title>
<path fill="none" stroke="midnightblue" d="M132.482,-15.5C140.915,-15.5 149.441,-15.5 157.647,-15.5"/>
<polygon fill="midnightblue" stroke="midnightblue" points="132.272,-12.0001 122.272,-15.5 132.272,-19.0001 132.272,-12.0001"/>
</g>
<!-- Node3 -->
<g id="node3" class="node"><title>Node3</title>
<g id="a_node3"><a xlink:href="classengine.html#a90418b124cd07d7d2f057e7d401ed641" target="_top" xlink:title="engine::_tick">
<polygon fill="none" stroke="black" points="309,-30 309,-49 381,-49 381,-30 309,-30"/>
<text text-anchor="middle" x="345" y="-37" font-family="Helvetica,sans-Serif" font-size="10.00">engine::_tick</text>
</a>
</g>
</g>
<!-- Node2&#45;&gt;Node3 -->
<g id="edge2" class="edge"><title>Node2&#45;&gt;Node3</title>
<path fill="none" stroke="midnightblue" d="M283.136,-28.0433C291.972,-29.7064 300.733,-31.3556 308.739,-32.8627"/>
<polygon fill="midnightblue" stroke="midnightblue" points="283.641,-24.5769 273.166,-26.1665 282.346,-31.4561 283.641,-24.5769"/>
</g>
<!-- Node7 -->
<g id="node7" class="node"><title>Node7</title>
<g id="a_node7"><a xlink:href="classengine.html#ada832d0a14502f1b99fdbd5c72cab01b" target="_top" xlink:title="engine::Draw">
<polygon fill="none" stroke="black" points="626,-30 626,-49 699,-49 699,-30 626,-30"/>
<text text-anchor="middle" x="662.5" y="-37" font-family="Helvetica,sans-Serif" font-size="10.00">engine::Draw</text>
</a>
</g>
</g>
<!-- Node2&#45;&gt;Node7 -->
<g id="edge10" class="edge"><title>Node2&#45;&gt;Node7</title>
<path fill="none" stroke="midnightblue" d="M283.542,-16.9726C313.389,-17.7739 348.962,-18.9286 381,-20.5 468.995,-24.8161 572.35,-32.4914 625.659,-36.6432"/>
<polygon fill="midnightblue" stroke="midnightblue" points="283.326,-13.4658 273.239,-16.7038 283.144,-20.4635 283.326,-13.4658"/>
</g>
<!-- Node4 -->
<g id="node4" class="node"><title>Node4</title>
<g id="a_node4"><a xlink:href="classengine.html#a4bca5e9257e46c09a63f71227fc25a12" target="_top" xlink:title="engine::tick">
<polygon fill="none" stroke="black" points="417,-77 417,-96 484,-96 484,-77 417,-77"/>
<text text-anchor="middle" x="450.5" y="-84" font-family="Helvetica,sans-Serif" font-size="10.00">engine::tick</text>
</a>
</g>
</g>
<!-- Node3&#45;&gt;Node4 -->
<g id="edge3" class="edge"><title>Node3&#45;&gt;Node4</title>
<path fill="none" stroke="midnightblue" d="M376.277,-53.2491C392.952,-60.8212 413.242,-70.035 428.231,-76.8417"/>
<polygon fill="midnightblue" stroke="midnightblue" points="377.497,-49.9591 366.945,-49.0112 374.603,-56.3327 377.497,-49.9591"/>
</g>
<!-- Node3&#45;&gt;Node7 -->
<g id="edge9" class="edge"><title>Node3&#45;&gt;Node7</title>
<path fill="none" stroke="midnightblue" d="M391.368,-34.5926C454.723,-31.995 568.381,-32.1439 625.971,-35.0391"/>
<polygon fill="midnightblue" stroke="midnightblue" points="391.104,-31.1009 381.273,-35.052 391.422,-38.0937 391.104,-31.1009"/>
</g>
<!-- Node5 -->
<g id="node5" class="node"><title>Node5</title>
<g id="a_node5"><a xlink:href="classengine.html#a1d9b806d03be0255a8ac3c119e181cc5" target="_top" xlink:title="engine::_run">
<polygon fill="none" stroke="black" points="520,-115 520,-134 590,-134 590,-115 520,-115"/>
<text text-anchor="middle" x="555" y="-122" font-family="Helvetica,sans-Serif" font-size="10.00">engine::_run</text>
</a>
</g>
</g>
<!-- Node4&#45;&gt;Node5 -->
<g id="edge4" class="edge"><title>Node4&#45;&gt;Node5</title>
<path fill="none" stroke="midnightblue" d="M486.884,-99.618C500.441,-104.644 515.641,-110.279 528.143,-114.914"/>
<polygon fill="midnightblue" stroke="midnightblue" points="487.958,-96.2835 477.365,-96.089 485.525,-102.847 487.958,-96.2835"/>
</g>
<!-- Node4&#45;&gt;Node7 -->
<g id="edge8" class="edge"><title>Node4&#45;&gt;Node7</title>
<path fill="none" stroke="midnightblue" d="M494.315,-80.6597C521.846,-76.517 558.273,-70.3114 590,-62.5 605.067,-58.7904 621.576,-53.5597 634.931,-49.0237"/>
<polygon fill="midnightblue" stroke="midnightblue" points="493.611,-77.2256 484.228,-82.1455 494.631,-84.1509 493.611,-77.2256"/>
</g>
<!-- Node6 -->
<g id="node6" class="node"><title>Node6</title>
<g id="a_node6"><a xlink:href="classengine.html#aecb22d51cc8f83cacbf3696a18d66c30" target="_top" xlink:title="engine::run">
<polygon fill="none" stroke="black" points="630,-115 630,-134 695,-134 695,-115 630,-115"/>
<text text-anchor="middle" x="662.5" y="-122" font-family="Helvetica,sans-Serif" font-size="10.00">engine::run</text>
</a>
</g>
</g>
<!-- Node5&#45;&gt;Node6 -->
<g id="edge5" class="edge"><title>Node5&#45;&gt;Node6</title>
<path fill="none" stroke="midnightblue" d="M600.387,-124.5C610.311,-124.5 620.639,-124.5 629.92,-124.5"/>
<polygon fill="midnightblue" stroke="midnightblue" points="600.253,-121 590.253,-124.5 600.253,-128 600.253,-121"/>
</g>
<!-- Node5&#45;&gt;Node7 -->
<g id="edge6" class="edge"><title>Node5&#45;&gt;Node7</title>
<path fill="none" stroke="midnightblue" d="M578.389,-109.135C582.305,-106.324 586.306,-103.37 590,-100.5 612.163,-83.282 636.821,-61.6643 650.616,-49.3315"/>
<polygon fill="midnightblue" stroke="midnightblue" points="576.262,-106.352 570.105,-114.974 580.295,-112.074 576.262,-106.352"/>
</g>
<!-- Node7&#45;&gt;Node3 -->
<g id="edge7" class="edge"><title>Node7&#45;&gt;Node3</title>
<path fill="none" stroke="midnightblue" d="M615.85,-44.4189C552.347,-47.0084 438.698,-46.8514 381.273,-43.948"/>
<polygon fill="midnightblue" stroke="midnightblue" points="616.139,-47.9095 625.971,-43.9609 615.823,-40.9166 616.139,-47.9095"/>
</g>
</g>
</svg>
