<?xml version="1.0" encoding="UTF-8" standalone="no"?>
<!DOCTYPE svg PUBLIC "-//W3C//DTD SVG 1.1//EN"
 "http://www.w3.org/Graphics/SVG/1.1/DTD/svg11.dtd">
<!-- Generated by graphviz version 2.38.0 (20140413.2041)
 -->
<!-- Title: DxException Pages: 1 -->
<svg width="126pt" height="321pt"
 viewBox="0.00 0.00 125.50 321.00" xmlns="http://www.w3.org/2000/svg" xmlns:xlink="http://www.w3.org/1999/xlink">
<g id="graph0" class="graph" transform="scale(1 1) rotate(0) translate(4 317)">
<title>DxException</title>
<!-- Node1 -->
<g id="node1" class="node"><title>Node1</title>
<polygon fill="#bfbfbf" stroke="black" points="4,-0.5 4,-90.5 91,-90.5 91,-0.5 4,-0.5"/>
<text text-anchor="middle" x="47.5" y="-78.5" font-family="Helvetica,sans-Serif" font-size="10.00">DxException</text>
<polyline fill="none" stroke="black" points="4,-71.5 91,-71.5 "/>
<text text-anchor="start" x="12" y="-59.5" font-family="Helvetica,sans-Serif" font-size="10.00">+ ErrorCode</text>
<text text-anchor="start" x="12" y="-48.5" font-family="Helvetica,sans-Serif" font-size="10.00">+ LineNumber</text>
<polyline fill="none" stroke="black" points="4,-41.5 91,-41.5 "/>
<text text-anchor="start" x="12" y="-29.5" font-family="Helvetica,sans-Serif" font-size="10.00">+ DxException()</text>
<text text-anchor="start" x="12" y="-18.5" font-family="Helvetica,sans-Serif" font-size="10.00">+ DxException()</text>
<text text-anchor="start" x="12" y="-7.5" font-family="Helvetica,sans-Serif" font-size="10.00">+ ToString()</text>
</g>
<!-- Node2 -->
<g id="node2" class="node"><title>Node2</title>
<g id="a_node2"><a xlink:title="STL class. ">
<polygon fill="none" stroke="#bfbfbf" points="14,-149.5 14,-206.5 81,-206.5 81,-149.5 14,-149.5"/>
<text text-anchor="middle" x="47.5" y="-194.5" font-family="Helvetica,sans-Serif" font-size="10.00">std::wstring</text>
<polyline fill="none" stroke="#bfbfbf" points="14,-187.5 81,-187.5 "/>
<text text-anchor="middle" x="47.5" y="-175.5" font-family="Helvetica,sans-Serif" font-size="10.00"> </text>
<polyline fill="none" stroke="#bfbfbf" points="14,-168.5 81,-168.5 "/>
<text text-anchor="middle" x="47.5" y="-156.5" font-family="Helvetica,sans-Serif" font-size="10.00"> </text>
</a>
</g>
</g>
<!-- Node2&#45;&gt;Node1 -->
<g id="edge1" class="edge"><title>Node2&#45;&gt;Node1</title>
<path fill="none" stroke="#404040" d="M47.5,-149.324C47.5,-135.731 47.5,-118.837 47.5,-102.696"/>
<polygon fill="none" stroke="#404040" points="47.5001,-102.568 43.5,-96.5677 47.5,-90.5676 51.5,-96.5676 47.5001,-102.568"/>
<text text-anchor="middle" x="82.5" y="-123" font-family="Helvetica,sans-Serif" font-size="10.00"> +Filename</text>
<text text-anchor="middle" x="82.5" y="-112" font-family="Helvetica,sans-Serif" font-size="10.00">+FunctionName</text>
</g>
<!-- Node3 -->
<g id="node3" class="node"><title>Node3</title>
<g id="a_node3"><a xlink:title="STL class. ">
<polygon fill="none" stroke="#bfbfbf" points="0,-244.5 0,-312.5 95,-312.5 95,-244.5 0,-244.5"/>
<text text-anchor="start" x="8" y="-300.5" font-family="Helvetica,sans-Serif" font-size="10.00">std::basic_string&lt;</text>
<text text-anchor="middle" x="47.5" y="-289.5" font-family="Helvetica,sans-Serif" font-size="10.00"> wchar_t &gt;</text>
<polyline fill="none" stroke="#bfbfbf" points="0,-282.5 95,-282.5 "/>
<text text-anchor="middle" x="47.5" y="-270.5" font-family="Helvetica,sans-Serif" font-size="10.00"> </text>
<polyline fill="none" stroke="#bfbfbf" points="0,-263.5 95,-263.5 "/>
<text text-anchor="middle" x="47.5" y="-251.5" font-family="Helvetica,sans-Serif" font-size="10.00"> </text>
</a>
</g>
</g>
<!-- Node3&#45;&gt;Node2 -->
<g id="edge2" class="edge"><title>Node3&#45;&gt;Node2</title>
<path fill="none" stroke="midnightblue" d="M47.5,-234.375C47.5,-224.94 47.5,-215.201 47.5,-206.571"/>
<polygon fill="none" stroke="midnightblue" points="44.0001,-234.427 47.5,-244.427 51.0001,-234.427 44.0001,-234.427"/>
</g>
</g>
</svg>
