<?xml version="1.0" encoding="UTF-8" standalone="no"?>
<!DOCTYPE svg PUBLIC "-//W3C//DTD SVG 1.1//EN"
 "http://www.w3.org/Graphics/SVG/1.1/DTD/svg11.dtd">
<!-- Generated by graphviz version 2.38.0 (20140413.2041)
 -->
<!-- Title: WindowsMessageHandlingService Pages: 1 -->
<svg width="323pt" height="414pt"
 viewBox="0.00 0.00 322.50 414.00" xmlns="http://www.w3.org/2000/svg" xmlns:xlink="http://www.w3.org/1999/xlink">
<g id="graph0" class="graph" transform="scale(1 1) rotate(0) translate(4 410)">
<title>WindowsMessageHandlingService</title>
<!-- Node1 -->
<g id="node1" class="node"><title>Node1</title>
<polygon fill="#bfbfbf" stroke="black" points="21.5,-0.5 21.5,-79.5 207.5,-79.5 207.5,-0.5 21.5,-0.5"/>
<text text-anchor="middle" x="114.5" y="-67.5" font-family="Helvetica,sans-Serif" font-size="10.00">WindowsMessageHandlingService</text>
<polyline fill="none" stroke="black" points="21.5,-60.5 207.5,-60.5 "/>
<text text-anchor="middle" x="114.5" y="-48.5" font-family="Helvetica,sans-Serif" font-size="10.00"> </text>
<polyline fill="none" stroke="black" points="21.5,-41.5 207.5,-41.5 "/>
<text text-anchor="start" x="29.5" y="-29.5" font-family="Helvetica,sans-Serif" font-size="10.00">+ WindowsMessageHandlingService()</text>
<text text-anchor="start" x="29.5" y="-18.5" font-family="Helvetica,sans-Serif" font-size="10.00">+ ~WindowsMessageHandlingService()</text>
<text text-anchor="start" x="29.5" y="-7.5" font-family="Helvetica,sans-Serif" font-size="10.00">+ handle_message()</text>
</g>
<!-- Node2 -->
<g id="node2" class="node"><title>Node2</title>
<polygon fill="none" stroke="#bfbfbf" points="34.5,-127.5 34.5,-195.5 194.5,-195.5 194.5,-127.5 34.5,-127.5"/>
<text text-anchor="start" x="42.5" y="-183.5" font-family="Helvetica,sans-Serif" font-size="10.00">std::map&lt; int, WindowsMessage</text>
<text text-anchor="middle" x="114.5" y="-172.5" font-family="Helvetica,sans-Serif" font-size="10.00">Handler * &gt;</text>
<polyline fill="none" stroke="#bfbfbf" points="34.5,-165.5 194.5,-165.5 "/>
<text text-anchor="start" x="42.5" y="-153.5" font-family="Helvetica,sans-Serif" font-size="10.00">+ keys</text>
<polyline fill="none" stroke="#bfbfbf" points="34.5,-146.5 194.5,-146.5 "/>
<text text-anchor="middle" x="114.5" y="-134.5" font-family="Helvetica,sans-Serif" font-size="10.00"> </text>
</g>
<!-- Node2&#45;&gt;Node1 -->
<g id="edge1" class="edge"><title>Node2&#45;&gt;Node1</title>
<path fill="none" stroke="#404040" d="M114.5,-127.213C114.5,-116.244 114.5,-103.784 114.5,-91.8137"/>
<polygon fill="none" stroke="#404040" points="114.5,-91.5997 110.5,-85.5997 114.5,-79.5997 118.5,-85.5997 114.5,-91.5997"/>
<text text-anchor="middle" x="172" y="-101" font-family="Helvetica,sans-Serif" font-size="10.00"> +_message_handler_map</text>
</g>
<!-- Node3 -->
<g id="node3" class="node"><title>Node3</title>
<g id="a_node3"><a xlink:href="class_windows_message_handler.html" target="_top" xlink:title="{WindowsMessageHandler\n||+ execute()\l}">
<polygon fill="none" stroke="black" points="0,-243.5 0,-300.5 129,-300.5 129,-243.5 0,-243.5"/>
<text text-anchor="middle" x="64.5" y="-288.5" font-family="Helvetica,sans-Serif" font-size="10.00">WindowsMessageHandler</text>
<polyline fill="none" stroke="black" points="0,-281.5 129,-281.5 "/>
<text text-anchor="middle" x="64.5" y="-269.5" font-family="Helvetica,sans-Serif" font-size="10.00"> </text>
<polyline fill="none" stroke="black" points="0,-262.5 129,-262.5 "/>
<text text-anchor="start" x="8" y="-250.5" font-family="Helvetica,sans-Serif" font-size="10.00">+ execute()</text>
</a>
</g>
</g>
<!-- Node3&#45;&gt;Node2 -->
<g id="edge2" class="edge"><title>Node3&#45;&gt;Node2</title>
<path fill="none" stroke="#404040" d="M77.2465,-243.34C82.3857,-232.188 88.4428,-219.044 94.1623,-206.633"/>
<polygon fill="none" stroke="#404040" points="94.2617,-206.417 93.1401,-199.294 99.2841,-195.519 100.406,-202.642 94.2617,-206.417"/>
<text text-anchor="middle" x="114" y="-217" font-family="Helvetica,sans-Serif" font-size="10.00"> +elements</text>
</g>
<!-- Node4 -->
<g id="node4" class="node"><title>Node4</title>
<g id="a_node4"><a xlink:title="STL class. ">
<polygon fill="none" stroke="#bfbfbf" points="147,-243.5 147,-300.5 238,-300.5 238,-243.5 147,-243.5"/>
<text text-anchor="middle" x="192.5" y="-288.5" font-family="Helvetica,sans-Serif" font-size="10.00">std::map&lt; K, T &gt;</text>
<polyline fill="none" stroke="#bfbfbf" points="147,-281.5 238,-281.5 "/>
<text text-anchor="middle" x="192.5" y="-269.5" font-family="Helvetica,sans-Serif" font-size="10.00"> </text>
<polyline fill="none" stroke="#bfbfbf" points="147,-262.5 238,-262.5 "/>
<text text-anchor="middle" x="192.5" y="-250.5" font-family="Helvetica,sans-Serif" font-size="10.00"> </text>
</a>
</g>
</g>
<!-- Node4&#45;&gt;Node2 -->
<g id="edge3" class="edge"><title>Node4&#45;&gt;Node2</title>
<path fill="none" stroke="orange" d="M166.759,-235.194C157.565,-222.405 147.255,-208.062 138.237,-195.519"/>
<polygon fill="orange" stroke="orange" points="163.936,-237.264 172.615,-243.34 169.62,-233.178 163.936,-237.264"/>
<text text-anchor="middle" x="236" y="-217" font-family="Helvetica,sans-Serif" font-size="10.00"> &lt; int, WindowsMessageHandler * &gt;</text>
</g>
<!-- Node5 -->
<g id="node5" class="node"><title>Node5</title>
<polygon fill="none" stroke="#bfbfbf" points="151,-348.5 151,-405.5 180,-405.5 180,-348.5 151,-348.5"/>
<text text-anchor="middle" x="165.5" y="-393.5" font-family="Helvetica,sans-Serif" font-size="10.00">K</text>
<polyline fill="none" stroke="#bfbfbf" points="151,-386.5 180,-386.5 "/>
<text text-anchor="middle" x="165.5" y="-374.5" font-family="Helvetica,sans-Serif" font-size="10.00"> </text>
<polyline fill="none" stroke="#bfbfbf" points="151,-367.5 180,-367.5 "/>
<text text-anchor="middle" x="165.5" y="-355.5" font-family="Helvetica,sans-Serif" font-size="10.00"> </text>
</g>
<!-- Node5&#45;&gt;Node4 -->
<g id="edge4" class="edge"><title>Node5&#45;&gt;Node4</title>
<path fill="none" stroke="#404040" d="M163.259,-348.358C163.206,-338.905 163.95,-328.358 166.5,-319 167.159,-316.58 167.975,-314.152 168.905,-311.745"/>
<polygon fill="none" stroke="#404040" points="168.944,-311.66 167.806,-304.54 173.942,-300.751 175.079,-307.872 168.944,-311.66"/>
<text text-anchor="middle" x="182" y="-322" font-family="Helvetica,sans-Serif" font-size="10.00"> +keys</text>
</g>
<!-- Node6 -->
<g id="node6" class="node"><title>Node6</title>
<polygon fill="none" stroke="#bfbfbf" points="205,-348.5 205,-405.5 234,-405.5 234,-348.5 205,-348.5"/>
<text text-anchor="middle" x="219.5" y="-393.5" font-family="Helvetica,sans-Serif" font-size="10.00">T</text>
<polyline fill="none" stroke="#bfbfbf" points="205,-386.5 234,-386.5 "/>
<text text-anchor="middle" x="219.5" y="-374.5" font-family="Helvetica,sans-Serif" font-size="10.00"> </text>
<polyline fill="none" stroke="#bfbfbf" points="205,-367.5 234,-367.5 "/>
<text text-anchor="middle" x="219.5" y="-355.5" font-family="Helvetica,sans-Serif" font-size="10.00"> </text>
</g>
<!-- Node6&#45;&gt;Node4 -->
<g id="edge5" class="edge"><title>Node6&#45;&gt;Node4</title>
<path fill="none" stroke="#404040" d="M212.264,-348.398C209.359,-337.314 205.956,-324.333 202.801,-312.296"/>
<polygon fill="none" stroke="#404040" points="202.798,-312.286 197.408,-307.497 199.755,-300.678 205.146,-305.468 202.798,-312.286"/>
<text text-anchor="middle" x="231" y="-322" font-family="Helvetica,sans-Serif" font-size="10.00"> +elements</text>
</g>
</g>
</svg>
