<?xml version="1.0" encoding="UTF-8" standalone="no"?>
<!DOCTYPE svg PUBLIC "-//W3C//DTD SVG 1.1//EN"
 "http://www.w3.org/Graphics/SVG/1.1/DTD/svg11.dtd">
<!-- Generated by graphviz version 2.38.0 (20140413.2041)
 -->
<!-- Title: engine::resize Pages: 1 -->
<svg width="753pt" height="104pt"
 viewBox="0.00 0.00 753.00 104.00" xmlns="http://www.w3.org/2000/svg" xmlns:xlink="http://www.w3.org/1999/xlink">
<g id="graph0" class="graph" transform="scale(1 1) rotate(0) translate(4 100)">
<title>engine::resize</title>
<!-- Node1 -->
<g id="node1" class="node"><title>Node1</title>
<polygon fill="#bfbfbf" stroke="black" points="0,-57.5 0,-76.5 77,-76.5 77,-57.5 0,-57.5"/>
<text text-anchor="middle" x="38.5" y="-64.5" font-family="Helvetica,sans-Serif" font-size="10.00">engine::resize</text>
</g>
<!-- Node2 -->
<g id="node2" class="node"><title>Node2</title>
<g id="a_node2"><a xlink:href="classengine.html#a8b8dd82e72fd73e0601c30041529c4c0" target="_top" xlink:title="engine::_initialize">
<polygon fill="none" stroke="black" points="113,-57.5 113,-76.5 205,-76.5 205,-57.5 113,-57.5"/>
<text text-anchor="middle" x="159" y="-64.5" font-family="Helvetica,sans-Serif" font-size="10.00">engine::_initialize</text>
</a>
</g>
</g>
<!-- Node1&#45;&gt;Node2 -->
<g id="edge1" class="edge"><title>Node1&#45;&gt;Node2</title>
<path fill="none" stroke="midnightblue" d="M87.3216,-67C95.6883,-67 104.371,-67 112.668,-67"/>
<polygon fill="midnightblue" stroke="midnightblue" points="87.32,-63.5001 77.3199,-67 87.3199,-70.5001 87.32,-63.5001"/>
</g>
<!-- Node3 -->
<g id="node3" class="node"><title>Node3</title>
<g id="a_node3"><a xlink:href="classengine.html#a6809dcdfe78011851e377d4729a87ee4" target="_top" xlink:title="engine::initialize">
<polygon fill="none" stroke="black" points="241,-76.5 241,-95.5 327,-95.5 327,-76.5 241,-76.5"/>
<text text-anchor="middle" x="284" y="-83.5" font-family="Helvetica,sans-Serif" font-size="10.00">engine::initialize</text>
</a>
</g>
</g>
<!-- Node2&#45;&gt;Node3 -->
<g id="edge2" class="edge"><title>Node2&#45;&gt;Node3</title>
<path fill="none" stroke="midnightblue" d="M215.097,-75.5109C223.712,-76.8417 232.497,-78.1987 240.765,-79.4758"/>
<polygon fill="midnightblue" stroke="midnightblue" points="215.519,-72.0347 205.102,-73.967 214.451,-78.9527 215.519,-72.0347"/>
</g>
<!-- Node4 -->
<g id="node4" class="node"><title>Node4</title>
<g id="a_node4"><a xlink:href="classengine.html#ada832d0a14502f1b99fdbd5c72cab01b" target="_top" xlink:title="engine::Draw">
<polygon fill="none" stroke="black" points="247.5,-38.5 247.5,-57.5 320.5,-57.5 320.5,-38.5 247.5,-38.5"/>
<text text-anchor="middle" x="284" y="-45.5" font-family="Helvetica,sans-Serif" font-size="10.00">engine::Draw</text>
</a>
</g>
</g>
<!-- Node2&#45;&gt;Node4 -->
<g id="edge3" class="edge"><title>Node2&#45;&gt;Node4</title>
<path fill="none" stroke="midnightblue" d="M214.998,-58.5044C225.9,-56.8203 237.079,-55.0935 247.142,-53.5391"/>
<polygon fill="midnightblue" stroke="midnightblue" points="214.451,-55.0473 205.102,-60.033 215.519,-61.9653 214.451,-55.0473"/>
</g>
<!-- Node5 -->
<g id="node5" class="node"><title>Node5</title>
<g id="a_node5"><a xlink:href="classengine.html#a90418b124cd07d7d2f057e7d401ed641" target="_top" xlink:title="engine::_tick">
<polygon fill="none" stroke="black" points="363,-57.5 363,-76.5 435,-76.5 435,-57.5 363,-57.5"/>
<text text-anchor="middle" x="399" y="-64.5" font-family="Helvetica,sans-Serif" font-size="10.00">engine::_tick</text>
</a>
</g>
</g>
<!-- Node4&#45;&gt;Node5 -->
<g id="edge4" class="edge"><title>Node4&#45;&gt;Node5</title>
<path fill="none" stroke="midnightblue" d="M330.921,-49.0775C345.923,-51.2953 361.957,-54.3417 374.586,-57.4705"/>
<polygon fill="midnightblue" stroke="midnightblue" points="331.137,-45.5744 320.754,-47.6836 330.186,-52.5095 331.137,-45.5744"/>
</g>
<!-- Node5&#45;&gt;Node4 -->
<g id="edge10" class="edge"><title>Node5&#45;&gt;Node4</title>
<path fill="none" stroke="midnightblue" d="M352.371,-65.9655C337.285,-63.7442 321.125,-60.6786 308.414,-57.5295"/>
<polygon fill="midnightblue" stroke="midnightblue" points="352.206,-69.4754 362.588,-67.3592 353.152,-62.5397 352.206,-69.4754"/>
</g>
<!-- Node6 -->
<g id="node6" class="node"><title>Node6</title>
<g id="a_node6"><a xlink:href="classengine.html#a4bca5e9257e46c09a63f71227fc25a12" target="_top" xlink:title="engine::tick">
<polygon fill="none" stroke="black" points="471,-19.5 471,-38.5 538,-38.5 538,-19.5 471,-19.5"/>
<text text-anchor="middle" x="504.5" y="-26.5" font-family="Helvetica,sans-Serif" font-size="10.00">engine::tick</text>
</a>
</g>
</g>
<!-- Node5&#45;&gt;Node6 -->
<g id="edge5" class="edge"><title>Node5&#45;&gt;Node6</title>
<path fill="none" stroke="midnightblue" d="M435.729,-53.882C449.418,-48.8561 464.767,-43.2209 477.391,-38.5859"/>
<polygon fill="midnightblue" stroke="midnightblue" points="434.298,-50.6788 426.117,-57.411 436.711,-57.2499 434.298,-50.6788"/>
</g>
<!-- Node6&#45;&gt;Node4 -->
<g id="edge9" class="edge"><title>Node6&#45;&gt;Node4</title>
<path fill="none" stroke="midnightblue" d="M460.585,-32.7318C419.696,-36.2873 358.86,-41.5774 320.592,-44.905"/>
<polygon fill="midnightblue" stroke="midnightblue" points="461.122,-36.1984 470.781,-31.8451 460.515,-29.2247 461.122,-36.1984"/>
</g>
<!-- Node7 -->
<g id="node7" class="node"><title>Node7</title>
<g id="a_node7"><a xlink:href="classengine.html#a1d9b806d03be0255a8ac3c119e181cc5" target="_top" xlink:title="engine::_run">
<polygon fill="none" stroke="black" points="574,-0.5 574,-19.5 644,-19.5 644,-0.5 574,-0.5"/>
<text text-anchor="middle" x="609" y="-7.5" font-family="Helvetica,sans-Serif" font-size="10.00">engine::_run</text>
</a>
</g>
</g>
<!-- Node6&#45;&gt;Node7 -->
<g id="edge6" class="edge"><title>Node6&#45;&gt;Node7</title>
<path fill="none" stroke="midnightblue" d="M548.077,-21.1076C556.662,-19.5164 565.581,-17.8631 573.832,-16.3335"/>
<polygon fill="midnightblue" stroke="midnightblue" points="547.408,-17.672 538.213,-22.936 548.684,-24.5547 547.408,-17.672"/>
</g>
<!-- Node7&#45;&gt;Node4 -->
<g id="edge8" class="edge"><title>Node7&#45;&gt;Node4</title>
<path fill="none" stroke="midnightblue" d="M563.606,-7.84934C536.741,-7.08197 501.829,-7.03059 471,-10 422.326,-14.6883 410.892,-21.1262 363,-31 349.154,-33.8545 333.959,-37.1331 320.688,-40.0447"/>
<polygon fill="midnightblue" stroke="midnightblue" points="563.741,-11.3556 573.851,-8.1874 563.972,-4.35941 563.741,-11.3556"/>
</g>
<!-- Node8 -->
<g id="node8" class="node"><title>Node8</title>
<g id="a_node8"><a xlink:href="classengine.html#aecb22d51cc8f83cacbf3696a18d66c30" target="_top" xlink:title="engine::run">
<polygon fill="none" stroke="black" points="680,-0.5 680,-19.5 745,-19.5 745,-0.5 680,-0.5"/>
<text text-anchor="middle" x="712.5" y="-7.5" font-family="Helvetica,sans-Serif" font-size="10.00">engine::run</text>
</a>
</g>
</g>
<!-- Node7&#45;&gt;Node8 -->
<g id="edge7" class="edge"><title>Node7&#45;&gt;Node8</title>
<path fill="none" stroke="midnightblue" d="M654.325,-10C662.879,-10 671.681,-10 679.737,-10"/>
<polygon fill="midnightblue" stroke="midnightblue" points="654.08,-6.5001 644.08,-10 654.08,-13.5001 654.08,-6.5001"/>
</g>
</g>
</svg>
