<?xml version="1.0" encoding="UTF-8" standalone="no"?>
<!DOCTYPE svg PUBLIC "-//W3C//DTD SVG 1.1//EN"
 "http://www.w3.org/Graphics/SVG/1.1/DTD/svg11.dtd">
<!-- Generated by graphviz version 2.38.0 (20140413.2041)
 -->
<!-- Title: engine::_initialize Pages: 1 -->
<!--zoomable 767 -->
<svg id="main" version="1.1" xmlns="http://www.w3.org/2000/svg" xmlns:xlink="http://www.w3.org/1999/xlink" xml:space="preserve" onload="init(evt)">
<style type="text/css"><![CDATA[
.edge:hover path { stroke: red; }
.edge:hover polygon { stroke: red; fill: red; }
]]></style>
<script type="text/javascript"><![CDATA[
var edges = document.getElementsByTagName('g');
if (edges && edges.length) {
  for (var i=0;i<edges.length;i++) {
    if (edges[i].id.substr(0,4)=='edge') {
      edges[i].setAttribute('class','edge');
    }
  }
}
]]></script>
        <defs>
                <circle id="rim" cx="0" cy="0" r="7"/>
                <circle id="rim2" cx="0" cy="0" r="3.5"/>
                <g id="zoomPlus">
                        <use xlink:href="#rim" fill="#404040">
                                <set attributeName="fill" to="#808080" begin="zoomplus.mouseover" end="zoomplus.mouseout"/>
                        </use>
                        <path d="M-4,0h8M0,-4v8" fill="none" stroke="white" stroke-width="1.5" pointer-events="none"/>
                </g>
                <g id="zoomMin">
                        <use xlink:href="#rim" fill="#404040">
                                <set attributeName="fill" to="#808080" begin="zoomminus.mouseover" end="zoomminus.mouseout"/>
                        </use>
                        <path d="M-4,0h8" fill="none" stroke="white" stroke-width="1.5" pointer-events="none"/>
                </g>
                <g id="dirArrow">
                        <path fill="none" stroke="white" stroke-width="1.5" d="M0,-3.0v7 M-2.5,-0.5L0,-3.0L2.5,-0.5"/>
                </g>
               <g id="resetDef">
                       <use xlink:href="#rim2" fill="#404040">
                               <set attributeName="fill" to="#808080" begin="reset.mouseover" end="reset.mouseout"/>
                       </use>
               </g>
        </defs>

<script type="text/javascript">
var viewWidth = 950;
var viewHeight = 767;
var sectionId = 'dynsection-14';
</script>
<script xlink:href="svgpan.js"/>
<svg id="graph" class="graph">
<g id="viewport">
<title>engine::_initialize</title>
<!-- Node1 -->
<g id="node1" class="node"><title>Node1</title>
<polygon fill="#bfbfbf" stroke="black" points="0,-588 0,-607 92,-607 92,-588 0,-588"/>
<text text-anchor="middle" x="46" y="-595" font-family="Helvetica,sans-Serif" font-size="10.00">engine::_initialize</text>
</g>
<!-- Node2 -->
<g id="node2" class="node"><title>Node2</title>
<g id="a_node2"><a xlink:href="classengine.html#a958aa4120f21278468225415ffe5ac92" target="_top" xlink:title="engine::_init_main\l_window">
<polygon fill="none" stroke="black" points="144.5,-661.5 144.5,-691.5 239.5,-691.5 239.5,-661.5 144.5,-661.5"/>
<text text-anchor="start" x="152.5" y="-679.5" font-family="Helvetica,sans-Serif" font-size="10.00">engine::_init_main</text>
<text text-anchor="middle" x="192" y="-668.5" font-family="Helvetica,sans-Serif" font-size="10.00">_window</text>
</a>
</g>
</g>
<!-- Node1&#45;&gt;Node2 -->
<g id="edge1" class="edge"><title>Node1&#45;&gt;Node2</title>
<path fill="none" stroke="midnightblue" d="M64.3698,-607.029C86.5769,-619.212 125.604,-640.623 154.48,-656.465"/>
<polygon fill="midnightblue" stroke="midnightblue" points="153.014,-659.653 163.465,-661.394 156.381,-653.515 153.014,-659.653"/>
</g>
<!-- Node7 -->
<g id="node7" class="node"><title>Node7</title>
<g id="a_node7"><a xlink:href="class_direct_x_renderer.html#a0d6aef4c838ac765f726391ee65c346c" target="_top" xlink:title="DirectXRenderer::initialize\l_direct3d">
<polygon fill="none" stroke="black" points="128,-235.5 128,-265.5 256,-265.5 256,-235.5 128,-235.5"/>
<text text-anchor="start" x="136" y="-253.5" font-family="Helvetica,sans-Serif" font-size="10.00">DirectXRenderer::initialize</text>
<text text-anchor="middle" x="192" y="-242.5" font-family="Helvetica,sans-Serif" font-size="10.00">_direct3d</text>
</a>
</g>
</g>
<!-- Node1&#45;&gt;Node7 -->
<g id="edge6" class="edge"><title>Node1&#45;&gt;Node7</title>
<path fill="none" stroke="midnightblue" d="M51.0017,-587.857C70.0513,-541.953 151.821,-344.911 180.783,-275.121"/>
<polygon fill="midnightblue" stroke="midnightblue" points="184.059,-276.358 184.659,-265.781 177.593,-273.675 184.059,-276.358"/>
</g>
<!-- Node26 -->
<g id="node26" class="node"><title>Node26</title>
<g id="a_node26"><a xlink:href="classengine.html#a2a83502d17f32c78093028f6009df8ba" target="_top" xlink:title="engine::resize">
<polygon fill="none" stroke="black" points="153.5,-588 153.5,-607 230.5,-607 230.5,-588 153.5,-588"/>
<text text-anchor="middle" x="192" y="-595" font-family="Helvetica,sans-Serif" font-size="10.00">engine::resize</text>
</a>
</g>
</g>
<!-- Node1&#45;&gt;Node26 -->
<g id="edge27" class="edge"><title>Node1&#45;&gt;Node26</title>
<path fill="none" stroke="midnightblue" d="M92.1674,-597.5C108.271,-597.5 126.463,-597.5 142.811,-597.5"/>
<polygon fill="midnightblue" stroke="midnightblue" points="143.247,-601 153.247,-597.5 143.247,-594 143.247,-601"/>
</g>
<!-- Node3 -->
<g id="node3" class="node"><title>Node3</title>
<g id="a_node3"><a xlink:href="engine_8cpp.html#a6430a76bf18e17d995aa340aaf8c30a9" target="_top" xlink:title="MainWndProc">
<polygon fill="none" stroke="black" points="320.5,-685 320.5,-704 398.5,-704 398.5,-685 320.5,-685"/>
<text text-anchor="middle" x="359.5" y="-692" font-family="Helvetica,sans-Serif" font-size="10.00">MainWndProc</text>
</a>
</g>
</g>
<!-- Node2&#45;&gt;Node3 -->
<g id="edge2" class="edge"><title>Node2&#45;&gt;Node3</title>
<path fill="none" stroke="midnightblue" d="M239.541,-681.562C261.578,-683.959 287.883,-686.82 310.147,-689.241"/>
<polygon fill="midnightblue" stroke="midnightblue" points="310.067,-692.753 320.387,-690.355 310.824,-685.794 310.067,-692.753"/>
</g>
<!-- Node4 -->
<g id="node4" class="node"><title>Node4</title>
<g id="a_node4"><a xlink:href="classengine.html#a1c22e1de5498965992bc25cfba715c99" target="_top" xlink:title="engine::get_windows\l_message_handler">
<polygon fill="none" stroke="black" points="492,-728.5 492,-758.5 599,-758.5 599,-728.5 492,-728.5"/>
<text text-anchor="start" x="500" y="-746.5" font-family="Helvetica,sans-Serif" font-size="10.00">engine::get_windows</text>
<text text-anchor="middle" x="545.5" y="-735.5" font-family="Helvetica,sans-Serif" font-size="10.00">_message_handler</text>
</a>
</g>
</g>
<!-- Node3&#45;&gt;Node4 -->
<g id="edge3" class="edge"><title>Node3&#45;&gt;Node4</title>
<path fill="none" stroke="midnightblue" d="M396.414,-704.064C420.738,-710.542 453.521,-719.272 482.058,-726.871"/>
<polygon fill="midnightblue" stroke="midnightblue" points="481.39,-730.315 491.954,-729.507 483.191,-723.551 481.39,-730.315"/>
</g>
<!-- Node6 -->
<g id="node6" class="node"><title>Node6</title>
<g id="a_node6"><a xlink:href="class_windows_message_handling_service.html#a9c7224471322c4e364c440b35321d253" target="_top" xlink:title="WindowsMessageHandlingService\l::handle_message">
<polygon fill="none" stroke="black" points="463,-679.5 463,-709.5 628,-709.5 628,-679.5 463,-679.5"/>
<text text-anchor="start" x="471" y="-697.5" font-family="Helvetica,sans-Serif" font-size="10.00">WindowsMessageHandlingService</text>
<text text-anchor="middle" x="545.5" y="-686.5" font-family="Helvetica,sans-Serif" font-size="10.00">::handle_message</text>
</a>
</g>
</g>
<!-- Node3&#45;&gt;Node6 -->
<g id="edge5" class="edge"><title>Node3&#45;&gt;Node6</title>
<path fill="none" stroke="midnightblue" d="M398.625,-694.5C414.418,-694.5 433.482,-694.5 452.543,-694.5"/>
<polygon fill="midnightblue" stroke="midnightblue" points="452.801,-698 462.801,-694.5 452.801,-691 452.801,-698"/>
</g>
<!-- Node5 -->
<g id="node5" class="node"><title>Node5</title>
<g id="a_node5"><a xlink:href="classengine.html#a240cde5717390f5f154bc9e4af2c36eb" target="_top" xlink:title="engine::get_engine">
<polygon fill="none" stroke="black" points="840,-641 840,-660 938,-660 938,-641 840,-641"/>
<text text-anchor="middle" x="889" y="-648" font-family="Helvetica,sans-Serif" font-size="10.00">engine::get_engine</text>
</a>
</g>
</g>
<!-- Node4&#45;&gt;Node5 -->
<g id="edge4" class="edge"><title>Node4&#45;&gt;Node5</title>
<path fill="none" stroke="midnightblue" d="M599.111,-729.173C665.927,-710.977 780.08,-679.89 843.03,-662.747"/>
<polygon fill="midnightblue" stroke="midnightblue" points="844.321,-666.023 853.05,-660.018 842.481,-659.269 844.321,-666.023"/>
</g>
<!-- Node8 -->
<g id="node8" class="node"><title>Node8</title>
<g id="a_node8"><a xlink:href="class_direct_x_renderer.html#a8bf63477a5f9f210b627c2d07d54caa5" target="_top" xlink:title="DirectXRenderer::log\l_adapters">
<polygon fill="none" stroke="black" points="307,-235.5 307,-265.5 412,-265.5 412,-235.5 307,-235.5"/>
<text text-anchor="start" x="315" y="-253.5" font-family="Helvetica,sans-Serif" font-size="10.00">DirectXRenderer::log</text>
<text text-anchor="middle" x="359.5" y="-242.5" font-family="Helvetica,sans-Serif" font-size="10.00">_adapters</text>
</a>
</g>
</g>
<!-- Node7&#45;&gt;Node8 -->
<g id="edge7" class="edge"><title>Node7&#45;&gt;Node8</title>
<path fill="none" stroke="midnightblue" d="M256.041,-250.5C269.434,-250.5 283.56,-250.5 296.899,-250.5"/>
<polygon fill="midnightblue" stroke="midnightblue" points="296.922,-254 306.922,-250.5 296.922,-247 296.922,-254"/>
</g>
<!-- Node11 -->
<g id="node11" class="node"><title>Node11</title>
<g id="a_node11"><a xlink:href="class_direct_x_renderer.html#aef2318aa9f9757fde25c94c9857143e8" target="_top" xlink:title="DirectXRenderer::create\l_dx_command_objects">
<polygon fill="none" stroke="black" points="300,-382.5 300,-412.5 419,-412.5 419,-382.5 300,-382.5"/>
<text text-anchor="start" x="308" y="-400.5" font-family="Helvetica,sans-Serif" font-size="10.00">DirectXRenderer::create</text>
<text text-anchor="middle" x="359.5" y="-389.5" font-family="Helvetica,sans-Serif" font-size="10.00">_dx_command_objects</text>
</a>
</g>
</g>
<!-- Node7&#45;&gt;Node11 -->
<g id="edge10" class="edge"><title>Node7&#45;&gt;Node11</title>
<path fill="none" stroke="midnightblue" d="M201.68,-265.813C216.866,-291.329 250.615,-342.683 292,-372.5 294.652,-374.411 297.467,-376.194 300.384,-377.855"/>
<polygon fill="midnightblue" stroke="midnightblue" points="298.882,-381.018 309.376,-382.48 302.084,-374.793 298.882,-381.018"/>
</g>
<!-- Node12 -->
<g id="node12" class="node"><title>Node12</title>
<g id="a_node12"><a xlink:href="class_direct_x_renderer.html#ab76ef034cbf3cfafc7a8aae1b50f6e6b" target="_top" xlink:title="DirectXRenderer::create\l_swap_chain">
<polygon fill="none" stroke="black" points="300,-333.5 300,-363.5 419,-363.5 419,-333.5 300,-333.5"/>
<text text-anchor="start" x="308" y="-351.5" font-family="Helvetica,sans-Serif" font-size="10.00">DirectXRenderer::create</text>
<text text-anchor="middle" x="359.5" y="-340.5" font-family="Helvetica,sans-Serif" font-size="10.00">_swap_chain</text>
</a>
</g>
</g>
<!-- Node7&#45;&gt;Node12 -->
<g id="edge11" class="edge"><title>Node7&#45;&gt;Node12</title>
<path fill="none" stroke="midnightblue" d="M210.243,-265.532C229.249,-281.528 261.223,-306.787 292,-323.5 295.885,-325.61 299.986,-327.619 304.166,-329.514"/>
<polygon fill="midnightblue" stroke="midnightblue" points="302.82,-332.745 313.39,-333.476 305.583,-326.313 302.82,-332.745"/>
</g>
<!-- Node13 -->
<g id="node13" class="node"><title>Node13</title>
<g id="a_node13"><a xlink:href="class_direct_x_renderer.html#a0f9a3dabe2f03739ba06155572eef957" target="_top" xlink:title="DirectXRenderer::create\l_descriptor_heaps">
<polygon fill="none" stroke="black" points="300,-284.5 300,-314.5 419,-314.5 419,-284.5 300,-284.5"/>
<text text-anchor="start" x="308" y="-302.5" font-family="Helvetica,sans-Serif" font-size="10.00">DirectXRenderer::create</text>
<text text-anchor="middle" x="359.5" y="-291.5" font-family="Helvetica,sans-Serif" font-size="10.00">_descriptor_heaps</text>
</a>
</g>
</g>
<!-- Node7&#45;&gt;Node13 -->
<g id="edge12" class="edge"><title>Node7&#45;&gt;Node13</title>
<path fill="none" stroke="midnightblue" d="M244.006,-265.601C261.075,-270.655 280.268,-276.338 297.991,-281.585"/>
<polygon fill="midnightblue" stroke="midnightblue" points="297.08,-284.965 307.663,-284.448 299.068,-278.253 297.08,-284.965"/>
</g>
<!-- Node15 -->
<g id="node15" class="node"><title>Node15</title>
<g id="a_node15"><a xlink:href="class_direct_x_renderer.html#a09278f83b0f7f134871bb21c72e07587" target="_top" xlink:title="DirectXRenderer::create\l_constant_buffers">
<polygon fill="none" stroke="black" points="300,-147.5 300,-177.5 419,-177.5 419,-147.5 300,-147.5"/>
<text text-anchor="start" x="308" y="-165.5" font-family="Helvetica,sans-Serif" font-size="10.00">DirectXRenderer::create</text>
<text text-anchor="middle" x="359.5" y="-154.5" font-family="Helvetica,sans-Serif" font-size="10.00">_constant_buffers</text>
</a>
</g>
</g>
<!-- Node7&#45;&gt;Node15 -->
<g id="edge14" class="edge"><title>Node7&#45;&gt;Node15</title>
<path fill="none" stroke="midnightblue" d="M217.008,-235.467C236.812,-223.303 265.808,-206.032 292,-192.5 299.042,-188.862 306.614,-185.21 314.038,-181.768"/>
<polygon fill="midnightblue" stroke="midnightblue" points="315.664,-184.873 323.309,-177.538 312.759,-178.505 315.664,-184.873"/>
</g>
<!-- Node20 -->
<g id="node20" class="node"><title>Node20</title>
<g id="a_node20"><a xlink:href="class_direct_x_renderer.html#acaec9787ee504297135360aaf1bf45fa" target="_top" xlink:title="DirectXRenderer::create\l_root_signature">
<polygon fill="none" stroke="black" points="300,-98.5 300,-128.5 419,-128.5 419,-98.5 300,-98.5"/>
<text text-anchor="start" x="308" y="-116.5" font-family="Helvetica,sans-Serif" font-size="10.00">DirectXRenderer::create</text>
<text text-anchor="middle" x="359.5" y="-105.5" font-family="Helvetica,sans-Serif" font-size="10.00">_root_signature</text>
</a>
</g>
</g>
<!-- Node7&#45;&gt;Node20 -->
<g id="edge19" class="edge"><title>Node7&#45;&gt;Node20</title>
<path fill="none" stroke="midnightblue" d="M202.681,-235.132C218.559,-211.093 252.36,-164.552 292,-137.5 294.251,-135.964 296.612,-134.514 299.046,-133.146"/>
<polygon fill="midnightblue" stroke="midnightblue" points="300.781,-136.19 308.12,-128.549 297.618,-129.946 300.781,-136.19"/>
</g>
<!-- Node21 -->
<g id="node21" class="node"><title>Node21</title>
<g id="a_node21"><a xlink:href="class_direct_x_renderer.html#a83af308560d21041e34b96f35ba0b9d9" target="_top" xlink:title="DirectXRenderer::create\l_shaders_and_input_layout">
<polygon fill="none" stroke="black" points="292,-0.5 292,-30.5 427,-30.5 427,-0.5 292,-0.5"/>
<text text-anchor="start" x="300" y="-18.5" font-family="Helvetica,sans-Serif" font-size="10.00">DirectXRenderer::create</text>
<text text-anchor="middle" x="359.5" y="-7.5" font-family="Helvetica,sans-Serif" font-size="10.00">_shaders_and_input_layout</text>
</a>
</g>
</g>
<!-- Node7&#45;&gt;Node21 -->
<g id="edge20" class="edge"><title>Node7&#45;&gt;Node21</title>
<path fill="none" stroke="midnightblue" d="M195.923,-235.368C204.092,-197.071 230.7,-95.385 292,-39.5 293.278,-38.3346 294.618,-37.2247 296.007,-36.1678"/>
<polygon fill="midnightblue" stroke="midnightblue" points="297.97,-39.0662 304.44,-30.6763 294.15,-33.2003 297.97,-39.0662"/>
</g>
<!-- Node22 -->
<g id="node22" class="node"><title>Node22</title>
<g id="a_node22"><a xlink:href="class_direct_x_renderer.html#ab236cfa51aff8ae36741f94ae4abf167" target="_top" xlink:title="DirectXRenderer::create\l_box_geometry">
<polygon fill="none" stroke="black" points="486,-186.5 486,-216.5 605,-216.5 605,-186.5 486,-186.5"/>
<text text-anchor="start" x="494" y="-204.5" font-family="Helvetica,sans-Serif" font-size="10.00">DirectXRenderer::create</text>
<text text-anchor="middle" x="545.5" y="-193.5" font-family="Helvetica,sans-Serif" font-size="10.00">_box_geometry</text>
</a>
</g>
</g>
<!-- Node7&#45;&gt;Node22 -->
<g id="edge22" class="edge"><title>Node7&#45;&gt;Node22</title>
<path fill="none" stroke="midnightblue" d="M246.372,-235.437C261.063,-231.725 277.065,-228.08 292,-225.5 353.704,-214.841 424.769,-208.618 475.755,-205.192"/>
<polygon fill="midnightblue" stroke="midnightblue" points="476.247,-208.668 485.997,-204.523 475.791,-201.682 476.247,-208.668"/>
</g>
<!-- Node23 -->
<g id="node23" class="node"><title>Node23</title>
<g id="a_node23"><a xlink:href="class_direct_x_renderer.html#a7626b1775267e151905115055e0bbc7f" target="_top" xlink:title="DirectXRenderer::create\l_pipeline_state_object">
<polygon fill="none" stroke="black" points="300,-49.5 300,-79.5 419,-79.5 419,-49.5 300,-49.5"/>
<text text-anchor="start" x="308" y="-67.5" font-family="Helvetica,sans-Serif" font-size="10.00">DirectXRenderer::create</text>
<text text-anchor="middle" x="359.5" y="-56.5" font-family="Helvetica,sans-Serif" font-size="10.00">_pipeline_state_object</text>
</a>
</g>
</g>
<!-- Node7&#45;&gt;Node23 -->
<g id="edge24" class="edge"><title>Node7&#45;&gt;Node23</title>
<path fill="none" stroke="midnightblue" d="M198.334,-235.193C210.183,-203.353 241.686,-129.546 292,-88.5 293.569,-87.2198 295.212,-86.0049 296.914,-84.8523"/>
<polygon fill="midnightblue" stroke="midnightblue" points="298.993,-87.6891 305.828,-79.5932 295.436,-81.6601 298.993,-87.6891"/>
</g>
<!-- Node25 -->
<g id="node25" class="node"><title>Node25</title>
<g id="a_node25"><a xlink:href="class_direct_x_renderer.html#ab1ac2acccb63781ec8ccce58fe351c63" target="_top" xlink:title="DirectXRenderer::flush\l_command_queue">
<polygon fill="none" stroke="black" points="675.5,-405.5 675.5,-435.5 788.5,-435.5 788.5,-405.5 675.5,-405.5"/>
<text text-anchor="start" x="683.5" y="-423.5" font-family="Helvetica,sans-Serif" font-size="10.00">DirectXRenderer::flush</text>
<text text-anchor="middle" x="732" y="-412.5" font-family="Helvetica,sans-Serif" font-size="10.00">_command_queue</text>
</a>
</g>
</g>
<!-- Node7&#45;&gt;Node25 -->
<g id="edge26" class="edge"><title>Node7&#45;&gt;Node25</title>
<path fill="none" stroke="midnightblue" d="M196.408,-265.756C205.169,-300.858 232.118,-386.975 292,-421.5 412.002,-490.687 582.879,-461.132 671.912,-438.166"/>
<polygon fill="midnightblue" stroke="midnightblue" points="673.058,-441.484 681.833,-435.546 671.271,-434.716 673.058,-441.484"/>
</g>
<!-- Node9 -->
<g id="node9" class="node"><title>Node9</title>
<g id="a_node9"><a xlink:href="class_direct_x_renderer.html#a13dbd659f5d0a72be90b0a4be1121ef8" target="_top" xlink:title="DirectXRenderer::log\l_adapter_outputs">
<polygon fill="none" stroke="black" points="493,-235.5 493,-265.5 598,-265.5 598,-235.5 493,-235.5"/>
<text text-anchor="start" x="501" y="-253.5" font-family="Helvetica,sans-Serif" font-size="10.00">DirectXRenderer::log</text>
<text text-anchor="middle" x="545.5" y="-242.5" font-family="Helvetica,sans-Serif" font-size="10.00">_adapter_outputs</text>
</a>
</g>
</g>
<!-- Node8&#45;&gt;Node9 -->
<g id="edge8" class="edge"><title>Node8&#45;&gt;Node9</title>
<path fill="none" stroke="midnightblue" d="M412.244,-250.5C434.09,-250.5 459.708,-250.5 482.55,-250.5"/>
<polygon fill="midnightblue" stroke="midnightblue" points="482.826,-254 492.826,-250.5 482.826,-247 482.826,-254"/>
</g>
<!-- Node10 -->
<g id="node10" class="node"><title>Node10</title>
<g id="a_node10"><a xlink:href="class_direct_x_renderer.html#ac2a94e66b56fa26905f19f6952f9dc28" target="_top" xlink:title="DirectXRenderer::log\l_output_display_modes">
<polygon fill="none" stroke="black" points="672.5,-235.5 672.5,-265.5 791.5,-265.5 791.5,-235.5 672.5,-235.5"/>
<text text-anchor="start" x="680.5" y="-253.5" font-family="Helvetica,sans-Serif" font-size="10.00">DirectXRenderer::log</text>
<text text-anchor="middle" x="732" y="-242.5" font-family="Helvetica,sans-Serif" font-size="10.00">_output_display_modes</text>
</a>
</g>
</g>
<!-- Node9&#45;&gt;Node10 -->
<g id="edge9" class="edge"><title>Node9&#45;&gt;Node10</title>
<path fill="none" stroke="midnightblue" d="M598.385,-250.5C618.169,-250.5 641.039,-250.5 662.157,-250.5"/>
<polygon fill="midnightblue" stroke="midnightblue" points="662.362,-254 672.362,-250.5 662.362,-247 662.362,-254"/>
</g>
<!-- Node14 -->
<g id="node14" class="node"><title>Node14</title>
<g id="a_node14"><a xlink:href="class_direct_x_renderer.html#a6d696829e35fe480381db6b759fe8ca2" target="_top" xlink:title="DirectXRenderer::get\l_swap_chain_buffer_count">
<polygon fill="none" stroke="black" points="480,-284.5 480,-314.5 611,-314.5 611,-284.5 480,-284.5"/>
<text text-anchor="start" x="488" y="-302.5" font-family="Helvetica,sans-Serif" font-size="10.00">DirectXRenderer::get</text>
<text text-anchor="middle" x="545.5" y="-291.5" font-family="Helvetica,sans-Serif" font-size="10.00">_swap_chain_buffer_count</text>
</a>
</g>
</g>
<!-- Node13&#45;&gt;Node14 -->
<g id="edge13" class="edge"><title>Node13&#45;&gt;Node14</title>
<path fill="none" stroke="midnightblue" d="M419.225,-299.5C435.25,-299.5 452.833,-299.5 469.627,-299.5"/>
<polygon fill="midnightblue" stroke="midnightblue" points="469.96,-303 479.96,-299.5 469.96,-296 469.96,-303"/>
</g>
<!-- Node16 -->
<g id="node16" class="node"><title>Node16</title>
<g id="a_node16"><a xlink:href="classd3d_util.html#a0883e0848cae813b2bc71570f3303e92" target="_top" xlink:title="d3dUtil::CalcConstantBuffer\lByteSize">
<polygon fill="none" stroke="black" points="477.5,-137.5 477.5,-167.5 613.5,-167.5 613.5,-137.5 477.5,-137.5"/>
<text text-anchor="start" x="485.5" y="-155.5" font-family="Helvetica,sans-Serif" font-size="10.00">d3dUtil::CalcConstantBuffer</text>
<text text-anchor="middle" x="545.5" y="-144.5" font-family="Helvetica,sans-Serif" font-size="10.00">ByteSize</text>
</a>
</g>
</g>
<!-- Node15&#45;&gt;Node16 -->
<g id="edge15" class="edge"><title>Node15&#45;&gt;Node16</title>
<path fill="none" stroke="midnightblue" d="M419.225,-159.308C434.409,-158.483 450.991,-157.582 466.975,-156.713"/>
<polygon fill="midnightblue" stroke="midnightblue" points="467.577,-160.186 477.372,-156.148 467.197,-153.196 467.577,-160.186"/>
</g>
<!-- Node17 -->
<g id="node17" class="node"><title>Node17</title>
<g id="a_node17"><a xlink:href="classd3d_util.html#a374c360bb2668c34223e74fbf0f1402b" target="_top" xlink:title="d3dUtil::LoadBinary">
<polygon fill="none" stroke="black" points="681.5,-143 681.5,-162 782.5,-162 782.5,-143 681.5,-143"/>
<text text-anchor="middle" x="732" y="-150" font-family="Helvetica,sans-Serif" font-size="10.00">d3dUtil::LoadBinary</text>
</a>
</g>
</g>
<!-- Node16&#45;&gt;Node17 -->
<g id="edge16" class="edge"><title>Node16&#45;&gt;Node17</title>
<path fill="none" stroke="midnightblue" d="M613.631,-152.5C632.408,-152.5 652.689,-152.5 671.023,-152.5"/>
<polygon fill="midnightblue" stroke="midnightblue" points="671.276,-156 681.276,-152.5 671.276,-149 671.276,-156"/>
</g>
<!-- Node18 -->
<g id="node18" class="node"><title>Node18</title>
<g id="a_node18"><a xlink:href="classd3d_util.html#ae4a68e5b73f032619ee5c2db64f57899" target="_top" xlink:title="d3dUtil::CreateDefaultBuffer">
<polygon fill="none" stroke="black" points="664,-186 664,-205 800,-205 800,-186 664,-186"/>
<text text-anchor="middle" x="732" y="-193" font-family="Helvetica,sans-Serif" font-size="10.00">d3dUtil::CreateDefaultBuffer</text>
</a>
</g>
</g>
<!-- Node16&#45;&gt;Node18 -->
<g id="edge17" class="edge"><title>Node16&#45;&gt;Node18</title>
<path fill="none" stroke="midnightblue" d="M611.029,-167.539C633.725,-172.829 658.889,-178.694 680.286,-183.68"/>
<polygon fill="midnightblue" stroke="midnightblue" points="679.609,-187.117 690.143,-185.978 681.198,-180.299 679.609,-187.117"/>
</g>
<!-- Node19 -->
<g id="node19" class="node"><title>Node19</title>
<g id="a_node19"><a xlink:href="classd3d_util.html#acac6acd838913d63466e4f0159bfe8b0" target="_top" xlink:title="d3dUtil::CompileShader">
<polygon fill="none" stroke="black" points="672.5,-56 672.5,-75 791.5,-75 791.5,-56 672.5,-56"/>
<text text-anchor="middle" x="732" y="-63" font-family="Helvetica,sans-Serif" font-size="10.00">d3dUtil::CompileShader</text>
</a>
</g>
</g>
<!-- Node16&#45;&gt;Node19 -->
<g id="edge18" class="edge"><title>Node16&#45;&gt;Node19</title>
<path fill="none" stroke="midnightblue" d="M578.637,-137.346C613.217,-121.04 667.757,-95.3217 701.344,-79.4839"/>
<polygon fill="midnightblue" stroke="midnightblue" points="703.087,-82.5319 710.639,-75.1011 700.101,-76.2005 703.087,-82.5319"/>
</g>
<!-- Node21&#45;&gt;Node19 -->
<g id="edge21" class="edge"><title>Node21&#45;&gt;Node19</title>
<path fill="none" stroke="midnightblue" d="M427.108,-18.552C481.457,-21.7422 560.082,-27.9553 628,-39.5 648.25,-42.9421 670.376,-48.3104 688.912,-53.2773"/>
<polygon fill="midnightblue" stroke="midnightblue" points="688.237,-56.7211 698.806,-55.9806 690.082,-49.9686 688.237,-56.7211"/>
</g>
<!-- Node22&#45;&gt;Node18 -->
<g id="edge23" class="edge"><title>Node22&#45;&gt;Node18</title>
<path fill="none" stroke="midnightblue" d="M605.13,-199.593C620.597,-199.09 637.524,-198.54 653.807,-198.01"/>
<polygon fill="midnightblue" stroke="midnightblue" points="653.963,-201.507 663.844,-197.684 653.736,-194.511 653.963,-201.507"/>
</g>
<!-- Node24 -->
<g id="node24" class="node"><title>Node24</title>
<g id="a_node24"><a xlink:href="class_direct_x_renderer.html#a99c49dd436c922c8f21b1839b0fb6bd1" target="_top" xlink:title="DirectXRenderer::get\l_4x_msaa_state">
<polygon fill="none" stroke="black" points="492.5,-49.5 492.5,-79.5 598.5,-79.5 598.5,-49.5 492.5,-49.5"/>
<text text-anchor="start" x="500.5" y="-67.5" font-family="Helvetica,sans-Serif" font-size="10.00">DirectXRenderer::get</text>
<text text-anchor="middle" x="545.5" y="-56.5" font-family="Helvetica,sans-Serif" font-size="10.00">_4x_msaa_state</text>
</a>
</g>
</g>
<!-- Node23&#45;&gt;Node24 -->
<g id="edge25" class="edge"><title>Node23&#45;&gt;Node24</title>
<path fill="none" stroke="midnightblue" d="M419.225,-64.5C439.289,-64.5 461.793,-64.5 482.133,-64.5"/>
<polygon fill="midnightblue" stroke="midnightblue" points="482.235,-68.0001 492.235,-64.5 482.235,-61.0001 482.235,-68.0001"/>
</g>
<!-- Node26&#45;&gt;Node5 -->
<g id="edge28" class="edge"><title>Node26&#45;&gt;Node5</title>
<path fill="none" stroke="midnightblue" d="M230.507,-602.135C282.599,-608.434 379.832,-619.69 463,-626.5 593.851,-637.215 747.76,-644.616 829.712,-648.143"/>
<polygon fill="midnightblue" stroke="midnightblue" points="829.684,-651.645 839.824,-648.574 829.983,-644.651 829.684,-651.645"/>
</g>
<!-- Node27 -->
<g id="node27" class="node"><title>Node27</title>
<g id="a_node27"><a xlink:href="classengine.html#a097517979864142f35d1969b5cf3d437" target="_top" xlink:title="engine::_resize">
<polygon fill="none" stroke="black" points="318,-571 318,-590 401,-590 401,-571 318,-571"/>
<text text-anchor="middle" x="359.5" y="-578" font-family="Helvetica,sans-Serif" font-size="10.00">engine::_resize</text>
</a>
</g>
</g>
<!-- Node26&#45;&gt;Node27 -->
<g id="edge29" class="edge"><title>Node26&#45;&gt;Node27</title>
<path fill="none" stroke="midnightblue" d="M230.555,-593.642C253.438,-591.292 282.972,-588.258 307.899,-585.698"/>
<polygon fill="midnightblue" stroke="midnightblue" points="308.32,-589.173 317.91,-584.669 307.605,-582.21 308.32,-589.173"/>
</g>
<!-- Node28 -->
<g id="node28" class="node"><title>Node28</title>
<g id="a_node28"><a xlink:href="class_direct_x_renderer.html#aceda888b20469930d5a99edc842d21a6" target="_top" xlink:title="DirectXRenderer::get\l_is_rendering">
<polygon fill="none" stroke="black" points="492.5,-587.5 492.5,-617.5 598.5,-617.5 598.5,-587.5 492.5,-587.5"/>
<text text-anchor="start" x="500.5" y="-605.5" font-family="Helvetica,sans-Serif" font-size="10.00">DirectXRenderer::get</text>
<text text-anchor="middle" x="545.5" y="-594.5" font-family="Helvetica,sans-Serif" font-size="10.00">_is_rendering</text>
</a>
</g>
</g>
<!-- Node27&#45;&gt;Node28 -->
<g id="edge30" class="edge"><title>Node27&#45;&gt;Node28</title>
<path fill="none" stroke="midnightblue" d="M401.336,-585.383C425.087,-588.222 455.511,-591.86 482.199,-595.051"/>
<polygon fill="midnightblue" stroke="midnightblue" points="481.878,-598.537 492.223,-596.249 482.709,-591.587 481.878,-598.537"/>
</g>
<!-- Node29 -->
<g id="node29" class="node"><title>Node29</title>
<g id="a_node29"><a xlink:href="class_direct_x_renderer.html#ae823daf9d77db0f506320f7171cb117d" target="_top" xlink:title="DirectXRenderer::resize">
<polygon fill="none" stroke="black" points="486,-503 486,-522 605,-522 605,-503 486,-503"/>
<text text-anchor="middle" x="545.5" y="-510" font-family="Helvetica,sans-Serif" font-size="10.00">DirectXRenderer::resize</text>
</a>
</g>
</g>
<!-- Node27&#45;&gt;Node29 -->
<g id="edge31" class="edge"><title>Node27&#45;&gt;Node29</title>
<path fill="none" stroke="midnightblue" d="M383.146,-570.983C403.815,-562.407 435.276,-549.627 463,-539.5 476.388,-534.61 491.146,-529.606 504.382,-525.255"/>
<polygon fill="midnightblue" stroke="midnightblue" points="505.737,-528.495 514.16,-522.068 503.567,-521.839 505.737,-528.495"/>
</g>
<!-- Node37 -->
<g id="node37" class="node"><title>Node37</title>
<g id="a_node37"><a xlink:href="classengine.html#aad7508d4c4c0c045e5335387422bf56d" target="_top" xlink:title="engine::OnResize">
<polygon fill="none" stroke="black" points="498.5,-549 498.5,-568 592.5,-568 592.5,-549 498.5,-549"/>
<text text-anchor="middle" x="545.5" y="-556" font-family="Helvetica,sans-Serif" font-size="10.00">engine::OnResize</text>
</a>
</g>
</g>
<!-- Node27&#45;&gt;Node37 -->
<g id="edge42" class="edge"><title>Node27&#45;&gt;Node37</title>
<path fill="none" stroke="midnightblue" d="M401.336,-575.617C426.889,-572.562 460.165,-568.584 488.204,-565.231"/>
<polygon fill="midnightblue" stroke="midnightblue" points="488.759,-568.69 498.273,-564.027 487.928,-561.739 488.759,-568.69"/>
</g>
<!-- Node29&#45;&gt;Node25 -->
<g id="edge32" class="edge"><title>Node29&#45;&gt;Node25</title>
<path fill="none" stroke="midnightblue" d="M561.663,-502.797C583.651,-488.974 625.928,-463.316 664,-445.5 668.407,-443.438 673.034,-441.421 677.712,-439.485"/>
<polygon fill="midnightblue" stroke="midnightblue" points="679.347,-442.6 687.328,-435.633 676.744,-436.102 679.347,-442.6"/>
</g>
<!-- Node30 -->
<g id="node30" class="node"><title>Node30</title>
<g id="a_node30"><a xlink:href="class_direct_x_renderer.html#a3fd16381af742f128d5a7138d65be695" target="_top" xlink:title="DirectXRenderer::get\l_depth_stencil_view">
<polygon fill="none" stroke="black" points="679,-542.5 679,-572.5 785,-572.5 785,-542.5 679,-542.5"/>
<text text-anchor="start" x="687" y="-560.5" font-family="Helvetica,sans-Serif" font-size="10.00">DirectXRenderer::get</text>
<text text-anchor="middle" x="732" y="-549.5" font-family="Helvetica,sans-Serif" font-size="10.00">_depth_stencil_view</text>
</a>
</g>
</g>
<!-- Node29&#45;&gt;Node30 -->
<g id="edge33" class="edge"><title>Node29&#45;&gt;Node30</title>
<path fill="none" stroke="midnightblue" d="M585.628,-522.043C609.839,-527.949 641.457,-535.66 669.019,-542.383"/>
<polygon fill="midnightblue" stroke="midnightblue" points="668.425,-545.84 678.969,-544.81 670.084,-539.04 668.425,-545.84"/>
</g>
<!-- Node31 -->
<g id="node31" class="node"><title>Node31</title>
<g id="a_node31"><a xlink:href="classengine.html#a54e5e763df5801c9289a2030635b3d52" target="_top" xlink:title="engine::get_current\l_camera">
<polygon fill="none" stroke="black" points="682,-591.5 682,-621.5 782,-621.5 782,-591.5 682,-591.5"/>
<text text-anchor="start" x="690" y="-609.5" font-family="Helvetica,sans-Serif" font-size="10.00">engine::get_current</text>
<text text-anchor="middle" x="732" y="-598.5" font-family="Helvetica,sans-Serif" font-size="10.00">_camera</text>
</a>
</g>
</g>
<!-- Node29&#45;&gt;Node31 -->
<g id="edge34" class="edge"><title>Node29&#45;&gt;Node31</title>
<path fill="none" stroke="midnightblue" d="M589.548,-522.005C602.586,-526.1 616.489,-531.776 628,-539.5 648.415,-553.2 643.844,-567.423 664,-581.5 666.834,-583.479 669.844,-585.324 672.959,-587.04"/>
<polygon fill="midnightblue" stroke="midnightblue" points="671.443,-590.195 681.952,-591.538 674.575,-583.934 671.443,-590.195"/>
</g>
<!-- Node33 -->
<g id="node33" class="node"><title>Node33</title>
<g id="a_node33"><a xlink:href="class_camera.html#a5619188052108689a7a3171597fca7b6" target="_top" xlink:title="Camera::SetLens">
<polygon fill="none" stroke="black" points="686,-455 686,-474 778,-474 778,-455 686,-455"/>
<text text-anchor="middle" x="732" y="-462" font-family="Helvetica,sans-Serif" font-size="10.00">Camera::SetLens</text>
</a>
</g>
</g>
<!-- Node29&#45;&gt;Node33 -->
<g id="edge37" class="edge"><title>Node29&#45;&gt;Node33</title>
<path fill="none" stroke="midnightblue" d="M583.393,-502.902C612.429,-495.348 653.077,-484.773 684.367,-476.632"/>
<polygon fill="midnightblue" stroke="midnightblue" points="685.374,-479.987 694.171,-474.082 683.612,-473.212 685.374,-479.987"/>
</g>
<!-- Node35 -->
<g id="node35" class="node"><title>Node35</title>
<g id="a_node35"><a xlink:href="classengine.html#aec4a8646ae5139982a23f45ee38b3224" target="_top" xlink:title="engine::get_aspect\l_ratio">
<polygon fill="none" stroke="black" points="682.5,-493.5 682.5,-523.5 781.5,-523.5 781.5,-493.5 682.5,-493.5"/>
<text text-anchor="start" x="690.5" y="-511.5" font-family="Helvetica,sans-Serif" font-size="10.00">engine::get_aspect</text>
<text text-anchor="middle" x="732" y="-500.5" font-family="Helvetica,sans-Serif" font-size="10.00">_ratio</text>
</a>
</g>
</g>
<!-- Node29&#45;&gt;Node35 -->
<g id="edge39" class="edge"><title>Node29&#45;&gt;Node35</title>
<path fill="none" stroke="midnightblue" d="M605.13,-511.229C626.53,-510.765 650.727,-510.24 672.146,-509.776"/>
<polygon fill="midnightblue" stroke="midnightblue" points="672.492,-513.269 682.414,-509.553 672.34,-506.271 672.492,-513.269"/>
</g>
<!-- Node31&#45;&gt;Node5 -->
<g id="edge35" class="edge"><title>Node31&#45;&gt;Node5</title>
<path fill="none" stroke="midnightblue" d="M782.043,-620.422C802.133,-626.125 825.186,-632.669 844.648,-638.193"/>
<polygon fill="midnightblue" stroke="midnightblue" points="843.887,-641.616 854.463,-640.98 845.799,-634.882 843.887,-641.616"/>
</g>
<!-- Node32 -->
<g id="node32" class="node"><title>Node32</title>
<g id="a_node32"><a xlink:href="class_direct_x_renderer.html#a8232561ca218d26c0f70d9f9b3dbcea6" target="_top" xlink:title="DirectXRenderer::get\l_current_camera">
<polygon fill="none" stroke="black" points="836,-591.5 836,-621.5 942,-621.5 942,-591.5 836,-591.5"/>
<text text-anchor="start" x="844" y="-609.5" font-family="Helvetica,sans-Serif" font-size="10.00">DirectXRenderer::get</text>
<text text-anchor="middle" x="889" y="-598.5" font-family="Helvetica,sans-Serif" font-size="10.00">_current_camera</text>
</a>
</g>
</g>
<!-- Node31&#45;&gt;Node32 -->
<g id="edge36" class="edge"><title>Node31&#45;&gt;Node32</title>
<path fill="none" stroke="midnightblue" d="M782.043,-606.5C795.817,-606.5 810.984,-606.5 825.432,-606.5"/>
<polygon fill="midnightblue" stroke="midnightblue" points="825.794,-610 835.794,-606.5 825.794,-603 825.794,-610"/>
</g>
<!-- Node34 -->
<g id="node34" class="node"><title>Node34</title>
<g id="a_node34"><a xlink:href="class_camera.html#a34d7f37c11a8e47788cd360940076874" target="_top" xlink:title="Camera::LookAt">
<polygon fill="none" stroke="black" points="845.5,-455 845.5,-474 932.5,-474 932.5,-455 845.5,-455"/>
<text text-anchor="middle" x="889" y="-462" font-family="Helvetica,sans-Serif" font-size="10.00">Camera::LookAt</text>
</a>
</g>
</g>
<!-- Node33&#45;&gt;Node34 -->
<g id="edge38" class="edge"><title>Node33&#45;&gt;Node34</title>
<path fill="none" stroke="midnightblue" d="M778.249,-464.5C796.118,-464.5 816.77,-464.5 835.306,-464.5"/>
<polygon fill="midnightblue" stroke="midnightblue" points="835.355,-468 845.355,-464.5 835.355,-461 835.355,-468"/>
</g>
<!-- Node35&#45;&gt;Node5 -->
<g id="edge40" class="edge"><title>Node35&#45;&gt;Node5</title>
<path fill="none" stroke="midnightblue" d="M781.77,-520.143C788.476,-523.324 794.825,-527.366 800,-532.5 832.943,-565.178 803.438,-597.442 836,-630.5 837.871,-632.399 839.942,-634.122 842.148,-635.683"/>
<polygon fill="midnightblue" stroke="midnightblue" points="840.785,-638.939 851.189,-640.94 844.304,-632.888 840.785,-638.939"/>
</g>
<!-- Node36 -->
<g id="node36" class="node"><title>Node36</title>
<g id="a_node36"><a xlink:href="classengine.html#ad86c3cbf7b32238e3220bf099d9f3f07" target="_top" xlink:title="engine::_get_aspect\l_ratio">
<polygon fill="none" stroke="black" points="837,-493.5 837,-523.5 941,-523.5 941,-493.5 837,-493.5"/>
<text text-anchor="start" x="845" y="-511.5" font-family="Helvetica,sans-Serif" font-size="10.00">engine::_get_aspect</text>
<text text-anchor="middle" x="889" y="-500.5" font-family="Helvetica,sans-Serif" font-size="10.00">_ratio</text>
</a>
</g>
</g>
<!-- Node35&#45;&gt;Node36 -->
<g id="edge41" class="edge"><title>Node35&#45;&gt;Node36</title>
<path fill="none" stroke="midnightblue" d="M781.618,-508.5C795.901,-508.5 811.711,-508.5 826.678,-508.5"/>
<polygon fill="midnightblue" stroke="midnightblue" points="826.876,-512 836.876,-508.5 826.876,-505 826.876,-512"/>
</g>
</g>
</svg>
        <g id="navigator" transform="translate(0 0)" fill="#404254">
                <rect fill="#f2f5e9" fill-opacity="0.5" stroke="#606060" stroke-width=".5" x="0" y="0" width="60" height="60"/>
                <use id="zoomplus" xlink:href="#zoomPlus" x="17" y="9" onmousedown="handleZoom(evt,'in')"/>
                <use id="zoomminus" xlink:href="#zoomMin" x="42" y="9" onmousedown="handleZoom(evt,'out')"/>
                <use id="reset" xlink:href="#resetDef" x="30" y="36" onmousedown="handleReset()"/>
                <g id="arrowUp" xlink:href="#dirArrow" transform="translate(30 24)" onmousedown="handlePan(0,-1)">
                  <use xlink:href="#rim" fill="#404040">
                        <set attributeName="fill" to="#808080" begin="arrowUp.mouseover" end="arrowUp.mouseout"/>
                  </use>
                  <path fill="none" stroke="white" stroke-width="1.5" d="M0,-3.0v7 M-2.5,-0.5L0,-3.0L2.5,-0.5"/>
                </g>
                <g id="arrowRight" xlink:href="#dirArrow" transform="rotate(90) translate(36 -43)" onmousedown="handlePan(1,0)">
                  <use xlink:href="#rim" fill="#404040">
                        <set attributeName="fill" to="#808080" begin="arrowRight.mouseover" end="arrowRight.mouseout"/>
                  </use>
                  <path fill="none" stroke="white" stroke-width="1.5" d="M0,-3.0v7 M-2.5,-0.5L0,-3.0L2.5,-0.5"/>
                </g>
                <g id="arrowDown" xlink:href="#dirArrow" transform="rotate(180) translate(-30 -48)" onmousedown="handlePan(0,1)">
                  <use xlink:href="#rim" fill="#404040">
                        <set attributeName="fill" to="#808080" begin="arrowDown.mouseover" end="arrowDown.mouseout"/>
                  </use>
                  <path fill="none" stroke="white" stroke-width="1.5" d="M0,-3.0v7 M-2.5,-0.5L0,-3.0L2.5,-0.5"/>
                </g>
                <g id="arrowLeft" xlink:href="#dirArrow" transform="rotate(270) translate(-36 17)" onmousedown="handlePan(-1,0)">
                  <use xlink:href="#rim" fill="#404040">
                        <set attributeName="fill" to="#808080" begin="arrowLeft.mouseover" end="arrowLeft.mouseout"/>
                  </use>
                  <path fill="none" stroke="white" stroke-width="1.5" d="M0,-3.0v7 M-2.5,-0.5L0,-3.0L2.5,-0.5"/>
                </g>
        </g>
        <svg viewBox="0 0 15 15" width="100%" height="30px" preserveAspectRatio="xMaxYMin meet">
         <g id="arrow_out" transform="scale(0.3 0.3)">
          <a xlink:href="classengine_a8b8dd82e72fd73e0601c30041529c4c0_cgraph_org.svg" target="_base">
           <rect id="button" ry="5" rx="5" y="6" x="6" height="38" width="38"
                fill="#f2f5e9" fill-opacity="0.5" stroke="#606060" stroke-width="1.0"/>
           <path id="arrow"
             d="M 11.500037,31.436501 C 11.940474,20.09759 22.043105,11.32322 32.158766,21.979434 L 37.068811,17.246167 C 37.068811,17.246167 37.088388,32 37.088388,32 L 22.160133,31.978069 C 22.160133,31.978069 26.997745,27.140456 26.997745,27.140456 C 18.528582,18.264221 13.291696,25.230495 11.500037,31.436501 z"
             style="fill:#404040;"/>
          </a>
         </g>
        </svg>
</svg>
