<?xml version="1.0" encoding="UTF-8" standalone="no"?>
<!DOCTYPE svg PUBLIC "-//W3C//DTD SVG 1.1//EN"
 "http://www.w3.org/Graphics/SVG/1.1/DTD/svg11.dtd">
<!-- Generated by graphviz version 2.38.0 (20140413.2041)
 -->
<!-- Title: GameTimer::avg_ns_between_render Pages: 1 -->
<svg width="729pt" height="143pt"
 viewBox="0.00 0.00 729.00 142.50" xmlns="http://www.w3.org/2000/svg" xmlns:xlink="http://www.w3.org/1999/xlink">
<g id="graph0" class="graph" transform="scale(1 1) rotate(0) translate(4 138.5)">
<title>GameTimer::avg_ns_between_render</title>
<!-- Node1 -->
<g id="node1" class="node"><title>Node1</title>
<polygon fill="#bfbfbf" stroke="black" points="0,-0.5 0,-30.5 144,-30.5 144,-0.5 0,-0.5"/>
<text text-anchor="start" x="8" y="-18.5" font-family="Helvetica,sans-Serif" font-size="10.00">GameTimer::avg_ns_between</text>
<text text-anchor="middle" x="72" y="-7.5" font-family="Helvetica,sans-Serif" font-size="10.00">_render</text>
</g>
<!-- Node2 -->
<g id="node2" class="node"><title>Node2</title>
<g id="a_node2"><a xlink:href="classengine.html#aef40b48edcc51792bb523f80c4eebbd3" target="_top" xlink:title="engine::_update_frame\l_stats">
<polygon fill="none" stroke="black" points="180,-0.5 180,-30.5 295,-30.5 295,-0.5 180,-0.5"/>
<text text-anchor="start" x="188" y="-18.5" font-family="Helvetica,sans-Serif" font-size="10.00">engine::_update_frame</text>
<text text-anchor="middle" x="237.5" y="-7.5" font-family="Helvetica,sans-Serif" font-size="10.00">_stats</text>
</a>
</g>
</g>
<!-- Node1&#45;&gt;Node2 -->
<g id="edge1" class="edge"><title>Node1&#45;&gt;Node2</title>
<path fill="none" stroke="midnightblue" d="M154.306,-15.5C162.905,-15.5 171.511,-15.5 179.742,-15.5"/>
<polygon fill="midnightblue" stroke="midnightblue" points="154.238,-12.0001 144.238,-15.5 154.238,-19.0001 154.238,-12.0001"/>
</g>
<!-- Node3 -->
<g id="node3" class="node"><title>Node3</title>
<g id="a_node3"><a xlink:href="classengine.html#a90418b124cd07d7d2f057e7d401ed641" target="_top" xlink:title="engine::_tick">
<polygon fill="none" stroke="black" points="331,-30 331,-49 403,-49 403,-30 331,-30"/>
<text text-anchor="middle" x="367" y="-37" font-family="Helvetica,sans-Serif" font-size="10.00">engine::_tick</text>
</a>
</g>
</g>
<!-- Node2&#45;&gt;Node3 -->
<g id="edge2" class="edge"><title>Node2&#45;&gt;Node3</title>
<path fill="none" stroke="midnightblue" d="M305.136,-28.0433C313.972,-29.7064 322.733,-31.3556 330.739,-32.8627"/>
<polygon fill="midnightblue" stroke="midnightblue" points="305.641,-24.5769 295.166,-26.1665 304.346,-31.4561 305.641,-24.5769"/>
</g>
<!-- Node7 -->
<g id="node7" class="node"><title>Node7</title>
<g id="a_node7"><a xlink:href="classengine.html#ada832d0a14502f1b99fdbd5c72cab01b" target="_top" xlink:title="engine::Draw">
<polygon fill="none" stroke="black" points="648,-30 648,-49 721,-49 721,-30 648,-30"/>
<text text-anchor="middle" x="684.5" y="-37" font-family="Helvetica,sans-Serif" font-size="10.00">engine::Draw</text>
</a>
</g>
</g>
<!-- Node2&#45;&gt;Node7 -->
<g id="edge10" class="edge"><title>Node2&#45;&gt;Node7</title>
<path fill="none" stroke="midnightblue" d="M305.542,-16.9726C335.389,-17.7739 370.962,-18.9286 403,-20.5 490.995,-24.8161 594.35,-32.4914 647.659,-36.6432"/>
<polygon fill="midnightblue" stroke="midnightblue" points="305.326,-13.4658 295.239,-16.7038 305.144,-20.4635 305.326,-13.4658"/>
</g>
<!-- Node4 -->
<g id="node4" class="node"><title>Node4</title>
<g id="a_node4"><a xlink:href="classengine.html#a4bca5e9257e46c09a63f71227fc25a12" target="_top" xlink:title="engine::tick">
<polygon fill="none" stroke="black" points="439,-77 439,-96 506,-96 506,-77 439,-77"/>
<text text-anchor="middle" x="472.5" y="-84" font-family="Helvetica,sans-Serif" font-size="10.00">engine::tick</text>
</a>
</g>
</g>
<!-- Node3&#45;&gt;Node4 -->
<g id="edge3" class="edge"><title>Node3&#45;&gt;Node4</title>
<path fill="none" stroke="midnightblue" d="M398.277,-53.2491C414.952,-60.8212 435.242,-70.035 450.231,-76.8417"/>
<polygon fill="midnightblue" stroke="midnightblue" points="399.497,-49.9591 388.945,-49.0112 396.603,-56.3327 399.497,-49.9591"/>
</g>
<!-- Node3&#45;&gt;Node7 -->
<g id="edge9" class="edge"><title>Node3&#45;&gt;Node7</title>
<path fill="none" stroke="midnightblue" d="M413.368,-34.5926C476.723,-31.995 590.381,-32.1439 647.971,-35.0391"/>
<polygon fill="midnightblue" stroke="midnightblue" points="413.104,-31.1009 403.273,-35.052 413.422,-38.0937 413.104,-31.1009"/>
</g>
<!-- Node5 -->
<g id="node5" class="node"><title>Node5</title>
<g id="a_node5"><a xlink:href="classengine.html#a1d9b806d03be0255a8ac3c119e181cc5" target="_top" xlink:title="engine::_run">
<polygon fill="none" stroke="black" points="542,-115 542,-134 612,-134 612,-115 542,-115"/>
<text text-anchor="middle" x="577" y="-122" font-family="Helvetica,sans-Serif" font-size="10.00">engine::_run</text>
</a>
</g>
</g>
<!-- Node4&#45;&gt;Node5 -->
<g id="edge4" class="edge"><title>Node4&#45;&gt;Node5</title>
<path fill="none" stroke="midnightblue" d="M508.884,-99.618C522.441,-104.644 537.641,-110.279 550.143,-114.914"/>
<polygon fill="midnightblue" stroke="midnightblue" points="509.958,-96.2835 499.365,-96.089 507.525,-102.847 509.958,-96.2835"/>
</g>
<!-- Node4&#45;&gt;Node7 -->
<g id="edge8" class="edge"><title>Node4&#45;&gt;Node7</title>
<path fill="none" stroke="midnightblue" d="M516.315,-80.6597C543.846,-76.517 580.273,-70.3114 612,-62.5 627.067,-58.7904 643.576,-53.5597 656.931,-49.0237"/>
<polygon fill="midnightblue" stroke="midnightblue" points="515.611,-77.2256 506.228,-82.1455 516.631,-84.1509 515.611,-77.2256"/>
</g>
<!-- Node6 -->
<g id="node6" class="node"><title>Node6</title>
<g id="a_node6"><a xlink:href="classengine.html#aecb22d51cc8f83cacbf3696a18d66c30" target="_top" xlink:title="engine::run">
<polygon fill="none" stroke="black" points="652,-115 652,-134 717,-134 717,-115 652,-115"/>
<text text-anchor="middle" x="684.5" y="-122" font-family="Helvetica,sans-Serif" font-size="10.00">engine::run</text>
</a>
</g>
</g>
<!-- Node5&#45;&gt;Node6 -->
<g id="edge5" class="edge"><title>Node5&#45;&gt;Node6</title>
<path fill="none" stroke="midnightblue" d="M622.387,-124.5C632.311,-124.5 642.639,-124.5 651.92,-124.5"/>
<polygon fill="midnightblue" stroke="midnightblue" points="622.253,-121 612.253,-124.5 622.253,-128 622.253,-121"/>
</g>
<!-- Node5&#45;&gt;Node7 -->
<g id="edge6" class="edge"><title>Node5&#45;&gt;Node7</title>
<path fill="none" stroke="midnightblue" d="M600.389,-109.135C604.305,-106.324 608.306,-103.37 612,-100.5 634.163,-83.282 658.821,-61.6643 672.616,-49.3315"/>
<polygon fill="midnightblue" stroke="midnightblue" points="598.262,-106.352 592.105,-114.974 602.295,-112.074 598.262,-106.352"/>
</g>
<!-- Node7&#45;&gt;Node3 -->
<g id="edge7" class="edge"><title>Node7&#45;&gt;Node3</title>
<path fill="none" stroke="midnightblue" d="M637.85,-44.4189C574.347,-47.0084 460.698,-46.8514 403.273,-43.948"/>
<polygon fill="midnightblue" stroke="midnightblue" points="638.139,-47.9095 647.971,-43.9609 637.823,-40.9166 638.139,-47.9095"/>
</g>
</g>
</svg>
