<?xml version="1.0" encoding="UTF-8" standalone="no"?>
<!DOCTYPE svg PUBLIC "-//W3C//DTD SVG 1.1//EN"
 "http://www.w3.org/Graphics/SVG/1.1/DTD/svg11.dtd">
<!-- Generated by graphviz version 2.38.0 (20140413.2041)
 -->
<!-- Title: engine::_update_frame_stats Pages: 1 -->
<svg width="303pt" height="323pt"
 viewBox="0.00 0.00 303.00 322.50" xmlns="http://www.w3.org/2000/svg" xmlns:xlink="http://www.w3.org/1999/xlink">
<g id="graph0" class="graph" transform="scale(1 1) rotate(0) translate(4 318.5)">
<title>engine::_update_frame_stats</title>
<!-- Node1 -->
<g id="node1" class="node"><title>Node1</title>
<polygon fill="#bfbfbf" stroke="black" points="0,-147.5 0,-177.5 115,-177.5 115,-147.5 0,-147.5"/>
<text text-anchor="start" x="8" y="-165.5" font-family="Helvetica,sans-Serif" font-size="10.00">engine::_update_frame</text>
<text text-anchor="middle" x="57.5" y="-154.5" font-family="Helvetica,sans-Serif" font-size="10.00">_stats</text>
</g>
<!-- Node2 -->
<g id="node2" class="node"><title>Node2</title>
<g id="a_node2"><a xlink:href="class_game_timer.html#a70ab8ec146f451278051054131ccbb00" target="_top" xlink:title="GameTimer::delta_time">
<polygon fill="none" stroke="black" points="164,-295 164,-314 282,-314 282,-295 164,-295"/>
<text text-anchor="middle" x="223" y="-302" font-family="Helvetica,sans-Serif" font-size="10.00">GameTimer::delta_time</text>
</a>
</g>
</g>
<!-- Node1&#45;&gt;Node2 -->
<g id="edge1" class="edge"><title>Node1&#45;&gt;Node2</title>
<path fill="none" stroke="midnightblue" d="M65.5904,-177.56C78.6731,-203.67 109.144,-257.248 151,-285.5 153.945,-287.488 157.089,-289.268 160.354,-290.862"/>
<polygon fill="midnightblue" stroke="midnightblue" points="159.24,-294.191 169.812,-294.88 161.977,-287.749 159.24,-294.191"/>
</g>
<!-- Node3 -->
<g id="node3" class="node"><title>Node3</title>
<g id="a_node3"><a xlink:href="class_game_timer.html#a60968291db34364580f524b553b85bd1" target="_top" xlink:title="GameTimer::avg_ns_between\l_render">
<polygon fill="none" stroke="black" points="151,-245.5 151,-275.5 295,-275.5 295,-245.5 151,-245.5"/>
<text text-anchor="start" x="159" y="-263.5" font-family="Helvetica,sans-Serif" font-size="10.00">GameTimer::avg_ns_between</text>
<text text-anchor="middle" x="223" y="-252.5" font-family="Helvetica,sans-Serif" font-size="10.00">_render</text>
</a>
</g>
</g>
<!-- Node1&#45;&gt;Node3 -->
<g id="edge2" class="edge"><title>Node1&#45;&gt;Node3</title>
<path fill="none" stroke="midnightblue" d="M73.9685,-177.733C91.4066,-194.186 121.227,-220.221 151,-236.5 154.214,-238.258 157.581,-239.919 161.026,-241.484"/>
<polygon fill="midnightblue" stroke="midnightblue" points="159.71,-244.727 170.284,-245.401 162.438,-238.281 159.71,-244.727"/>
</g>
<!-- Node4 -->
<g id="node4" class="node"><title>Node4</title>
<g id="a_node4"><a xlink:href="class_game_timer.html#a0bb71bebfcf4eecd9cff54e566d07bee" target="_top" xlink:title="GameTimer::avg_ns_between\l_update">
<polygon fill="none" stroke="black" points="151,-196.5 151,-226.5 295,-226.5 295,-196.5 151,-196.5"/>
<text text-anchor="start" x="159" y="-214.5" font-family="Helvetica,sans-Serif" font-size="10.00">GameTimer::avg_ns_between</text>
<text text-anchor="middle" x="223" y="-203.5" font-family="Helvetica,sans-Serif" font-size="10.00">_update</text>
</a>
</g>
</g>
<!-- Node1&#45;&gt;Node4 -->
<g id="edge3" class="edge"><title>Node1&#45;&gt;Node4</title>
<path fill="none" stroke="midnightblue" d="M108.889,-177.601C125.596,-182.608 144.362,-188.232 161.735,-193.439"/>
<polygon fill="midnightblue" stroke="midnightblue" points="161.193,-196.93 171.777,-196.448 163.203,-190.225 161.193,-196.93"/>
</g>
<!-- Node5 -->
<g id="node5" class="node"><title>Node5</title>
<g id="a_node5"><a xlink:href="class_game_timer.html#a1ec9b2368e11e63c48fdfa2965b9e88c" target="_top" xlink:title="GameTimer::avg_ns_per\l_render">
<polygon fill="none" stroke="black" points="162,-147.5 162,-177.5 284,-177.5 284,-147.5 162,-147.5"/>
<text text-anchor="start" x="170" y="-165.5" font-family="Helvetica,sans-Serif" font-size="10.00">GameTimer::avg_ns_per</text>
<text text-anchor="middle" x="223" y="-154.5" font-family="Helvetica,sans-Serif" font-size="10.00">_render</text>
</a>
</g>
</g>
<!-- Node1&#45;&gt;Node5 -->
<g id="edge4" class="edge"><title>Node1&#45;&gt;Node5</title>
<path fill="none" stroke="midnightblue" d="M115.226,-162.5C126.971,-162.5 139.478,-162.5 151.643,-162.5"/>
<polygon fill="midnightblue" stroke="midnightblue" points="151.756,-166 161.756,-162.5 151.756,-159 151.756,-166"/>
</g>
<!-- Node6 -->
<g id="node6" class="node"><title>Node6</title>
<g id="a_node6"><a xlink:href="class_game_timer.html#a488f57ea227be64ccc03b9c70b1d6a43" target="_top" xlink:title="GameTimer::avg_ns_per\l_update">
<polygon fill="none" stroke="black" points="162,-98.5 162,-128.5 284,-128.5 284,-98.5 162,-98.5"/>
<text text-anchor="start" x="170" y="-116.5" font-family="Helvetica,sans-Serif" font-size="10.00">GameTimer::avg_ns_per</text>
<text text-anchor="middle" x="223" y="-105.5" font-family="Helvetica,sans-Serif" font-size="10.00">_update</text>
</a>
</g>
</g>
<!-- Node1&#45;&gt;Node6 -->
<g id="edge5" class="edge"><title>Node1&#45;&gt;Node6</title>
<path fill="none" stroke="midnightblue" d="M108.889,-147.399C125.596,-142.392 144.362,-136.768 161.735,-131.561"/>
<polygon fill="midnightblue" stroke="midnightblue" points="163.203,-134.775 171.777,-128.552 161.193,-128.07 163.203,-134.775"/>
</g>
<!-- Node7 -->
<g id="node7" class="node"><title>Node7</title>
<g id="a_node7"><a xlink:href="class_game_timer.html#a46db6a1cc03e89eac25db2296767f067" target="_top" xlink:title="GameTimer::avg_ns_idle\l_per_interval">
<polygon fill="none" stroke="black" points="161.5,-49.5 161.5,-79.5 284.5,-79.5 284.5,-49.5 161.5,-49.5"/>
<text text-anchor="start" x="169.5" y="-67.5" font-family="Helvetica,sans-Serif" font-size="10.00">GameTimer::avg_ns_idle</text>
<text text-anchor="middle" x="223" y="-56.5" font-family="Helvetica,sans-Serif" font-size="10.00">_per_interval</text>
</a>
</g>
</g>
<!-- Node1&#45;&gt;Node7 -->
<g id="edge6" class="edge"><title>Node1&#45;&gt;Node7</title>
<path fill="none" stroke="midnightblue" d="M74.3658,-147.263C91.9143,-131.091 121.611,-105.683 151,-89.5 154.905,-87.3499 159.029,-85.329 163.246,-83.4409"/>
<polygon fill="midnightblue" stroke="midnightblue" points="164.711,-86.6219 172.574,-79.5214 161.999,-80.1685 164.711,-86.6219"/>
</g>
<!-- Node8 -->
<g id="node8" class="node"><title>Node8</title>
<g id="a_node8"><a xlink:href="class_game_timer.html#a46c0437f60c22411b55f31c8637e4827" target="_top" xlink:title="GameTimer::ns_idle\l_this_interval">
<polygon fill="none" stroke="black" points="171,-0.5 171,-30.5 275,-30.5 275,-0.5 171,-0.5"/>
<text text-anchor="start" x="179" y="-18.5" font-family="Helvetica,sans-Serif" font-size="10.00">GameTimer::ns_idle</text>
<text text-anchor="middle" x="223" y="-7.5" font-family="Helvetica,sans-Serif" font-size="10.00">_this_interval</text>
</a>
</g>
</g>
<!-- Node1&#45;&gt;Node8 -->
<g id="edge7" class="edge"><title>Node1&#45;&gt;Node8</title>
<path fill="none" stroke="midnightblue" d="M66.0675,-147.483C79.6683,-121.942 110.631,-69.9527 151,-40.5 154.385,-38.0304 158.036,-35.7873 161.832,-33.7526"/>
<polygon fill="midnightblue" stroke="midnightblue" points="163.417,-36.8744 170.901,-29.375 160.374,-30.5705 163.417,-36.8744"/>
</g>
</g>
</svg>
