<?xml version="1.0" encoding="UTF-8" standalone="no"?>
<!DOCTYPE svg PUBLIC "-//W3C//DTD SVG 1.1//EN"
 "http://www.w3.org/Graphics/SVG/1.1/DTD/svg11.dtd">
<!-- Generated by graphviz version 2.38.0 (20140413.2041)
 -->
<!-- Title: GameTimer::avg_ns_idle_per_interval Pages: 1 -->
<svg width="708pt" height="143pt"
 viewBox="0.00 0.00 708.00 142.50" xmlns="http://www.w3.org/2000/svg" xmlns:xlink="http://www.w3.org/1999/xlink">
<g id="graph0" class="graph" transform="scale(1 1) rotate(0) translate(4 138.5)">
<title>GameTimer::avg_ns_idle_per_interval</title>
<!-- Node1 -->
<g id="node1" class="node"><title>Node1</title>
<polygon fill="#bfbfbf" stroke="black" points="0,-0.5 0,-30.5 123,-30.5 123,-0.5 0,-0.5"/>
<text text-anchor="start" x="8" y="-18.5" font-family="Helvetica,sans-Serif" font-size="10.00">GameTimer::avg_ns_idle</text>
<text text-anchor="middle" x="61.5" y="-7.5" font-family="Helvetica,sans-Serif" font-size="10.00">_per_interval</text>
</g>
<!-- Node2 -->
<g id="node2" class="node"><title>Node2</title>
<g id="a_node2"><a xlink:href="classengine.html#aef40b48edcc51792bb523f80c4eebbd3" target="_top" xlink:title="engine::_update_frame\l_stats">
<polygon fill="none" stroke="black" points="159,-0.5 159,-30.5 274,-30.5 274,-0.5 159,-0.5"/>
<text text-anchor="start" x="167" y="-18.5" font-family="Helvetica,sans-Serif" font-size="10.00">engine::_update_frame</text>
<text text-anchor="middle" x="216.5" y="-7.5" font-family="Helvetica,sans-Serif" font-size="10.00">_stats</text>
</a>
</g>
</g>
<!-- Node1&#45;&gt;Node2 -->
<g id="edge1" class="edge"><title>Node1&#45;&gt;Node2</title>
<path fill="none" stroke="midnightblue" d="M133.625,-15.5C142.059,-15.5 150.58,-15.5 158.776,-15.5"/>
<polygon fill="midnightblue" stroke="midnightblue" points="133.409,-12.0001 123.409,-15.5 133.409,-19.0001 133.409,-12.0001"/>
</g>
<!-- Node3 -->
<g id="node3" class="node"><title>Node3</title>
<g id="a_node3"><a xlink:href="classengine.html#a90418b124cd07d7d2f057e7d401ed641" target="_top" xlink:title="engine::_tick">
<polygon fill="none" stroke="black" points="310,-30 310,-49 382,-49 382,-30 310,-30"/>
<text text-anchor="middle" x="346" y="-37" font-family="Helvetica,sans-Serif" font-size="10.00">engine::_tick</text>
</a>
</g>
</g>
<!-- Node2&#45;&gt;Node3 -->
<g id="edge2" class="edge"><title>Node2&#45;&gt;Node3</title>
<path fill="none" stroke="midnightblue" d="M284.136,-28.0433C292.972,-29.7064 301.733,-31.3556 309.739,-32.8627"/>
<polygon fill="midnightblue" stroke="midnightblue" points="284.641,-24.5769 274.166,-26.1665 283.346,-31.4561 284.641,-24.5769"/>
</g>
<!-- Node7 -->
<g id="node7" class="node"><title>Node7</title>
<g id="a_node7"><a xlink:href="classengine.html#ada832d0a14502f1b99fdbd5c72cab01b" target="_top" xlink:title="engine::Draw">
<polygon fill="none" stroke="black" points="627,-30 627,-49 700,-49 700,-30 627,-30"/>
<text text-anchor="middle" x="663.5" y="-37" font-family="Helvetica,sans-Serif" font-size="10.00">engine::Draw</text>
</a>
</g>
</g>
<!-- Node2&#45;&gt;Node7 -->
<g id="edge10" class="edge"><title>Node2&#45;&gt;Node7</title>
<path fill="none" stroke="midnightblue" d="M284.542,-16.9726C314.389,-17.7739 349.962,-18.9286 382,-20.5 469.995,-24.8161 573.35,-32.4914 626.659,-36.6432"/>
<polygon fill="midnightblue" stroke="midnightblue" points="284.326,-13.4658 274.239,-16.7038 284.144,-20.4635 284.326,-13.4658"/>
</g>
<!-- Node4 -->
<g id="node4" class="node"><title>Node4</title>
<g id="a_node4"><a xlink:href="classengine.html#a4bca5e9257e46c09a63f71227fc25a12" target="_top" xlink:title="engine::tick">
<polygon fill="none" stroke="black" points="418,-77 418,-96 485,-96 485,-77 418,-77"/>
<text text-anchor="middle" x="451.5" y="-84" font-family="Helvetica,sans-Serif" font-size="10.00">engine::tick</text>
</a>
</g>
</g>
<!-- Node3&#45;&gt;Node4 -->
<g id="edge3" class="edge"><title>Node3&#45;&gt;Node4</title>
<path fill="none" stroke="midnightblue" d="M377.277,-53.2491C393.952,-60.8212 414.242,-70.035 429.231,-76.8417"/>
<polygon fill="midnightblue" stroke="midnightblue" points="378.497,-49.9591 367.945,-49.0112 375.603,-56.3327 378.497,-49.9591"/>
</g>
<!-- Node3&#45;&gt;Node7 -->
<g id="edge9" class="edge"><title>Node3&#45;&gt;Node7</title>
<path fill="none" stroke="midnightblue" d="M392.368,-34.5926C455.723,-31.995 569.381,-32.1439 626.971,-35.0391"/>
<polygon fill="midnightblue" stroke="midnightblue" points="392.104,-31.1009 382.273,-35.052 392.422,-38.0937 392.104,-31.1009"/>
</g>
<!-- Node5 -->
<g id="node5" class="node"><title>Node5</title>
<g id="a_node5"><a xlink:href="classengine.html#a1d9b806d03be0255a8ac3c119e181cc5" target="_top" xlink:title="engine::_run">
<polygon fill="none" stroke="black" points="521,-115 521,-134 591,-134 591,-115 521,-115"/>
<text text-anchor="middle" x="556" y="-122" font-family="Helvetica,sans-Serif" font-size="10.00">engine::_run</text>
</a>
</g>
</g>
<!-- Node4&#45;&gt;Node5 -->
<g id="edge4" class="edge"><title>Node4&#45;&gt;Node5</title>
<path fill="none" stroke="midnightblue" d="M487.884,-99.618C501.441,-104.644 516.641,-110.279 529.143,-114.914"/>
<polygon fill="midnightblue" stroke="midnightblue" points="488.958,-96.2835 478.365,-96.089 486.525,-102.847 488.958,-96.2835"/>
</g>
<!-- Node4&#45;&gt;Node7 -->
<g id="edge8" class="edge"><title>Node4&#45;&gt;Node7</title>
<path fill="none" stroke="midnightblue" d="M495.315,-80.6597C522.846,-76.517 559.273,-70.3114 591,-62.5 606.067,-58.7904 622.576,-53.5597 635.931,-49.0237"/>
<polygon fill="midnightblue" stroke="midnightblue" points="494.611,-77.2256 485.228,-82.1455 495.631,-84.1509 494.611,-77.2256"/>
</g>
<!-- Node6 -->
<g id="node6" class="node"><title>Node6</title>
<g id="a_node6"><a xlink:href="classengine.html#aecb22d51cc8f83cacbf3696a18d66c30" target="_top" xlink:title="engine::run">
<polygon fill="none" stroke="black" points="631,-115 631,-134 696,-134 696,-115 631,-115"/>
<text text-anchor="middle" x="663.5" y="-122" font-family="Helvetica,sans-Serif" font-size="10.00">engine::run</text>
</a>
</g>
</g>
<!-- Node5&#45;&gt;Node6 -->
<g id="edge5" class="edge"><title>Node5&#45;&gt;Node6</title>
<path fill="none" stroke="midnightblue" d="M601.387,-124.5C611.311,-124.5 621.639,-124.5 630.92,-124.5"/>
<polygon fill="midnightblue" stroke="midnightblue" points="601.253,-121 591.253,-124.5 601.253,-128 601.253,-121"/>
</g>
<!-- Node5&#45;&gt;Node7 -->
<g id="edge6" class="edge"><title>Node5&#45;&gt;Node7</title>
<path fill="none" stroke="midnightblue" d="M579.389,-109.135C583.305,-106.324 587.306,-103.37 591,-100.5 613.163,-83.282 637.821,-61.6643 651.616,-49.3315"/>
<polygon fill="midnightblue" stroke="midnightblue" points="577.262,-106.352 571.105,-114.974 581.295,-112.074 577.262,-106.352"/>
</g>
<!-- Node7&#45;&gt;Node3 -->
<g id="edge7" class="edge"><title>Node7&#45;&gt;Node3</title>
<path fill="none" stroke="midnightblue" d="M616.85,-44.4189C553.347,-47.0084 439.698,-46.8514 382.273,-43.948"/>
<polygon fill="midnightblue" stroke="midnightblue" points="617.139,-47.9095 626.971,-43.9609 616.823,-40.9166 617.139,-47.9095"/>
</g>
</g>
</svg>
