<?xml version="1.0" encoding="UTF-8" standalone="no"?>
<!DOCTYPE svg PUBLIC "-//W3C//DTD SVG 1.1//EN"
 "http://www.w3.org/Graphics/SVG/1.1/DTD/svg11.dtd">
<!-- Generated by graphviz version 2.38.0 (20140413.2041)
 -->
<!-- Title: Camera::GetView Pages: 1 -->
<!--zoomable 113 -->
<svg id="main" version="1.1" xmlns="http://www.w3.org/2000/svg" xmlns:xlink="http://www.w3.org/1999/xlink" xml:space="preserve" onload="init(evt)">
<style type="text/css"><![CDATA[
.edge:hover path { stroke: red; }
.edge:hover polygon { stroke: red; fill: red; }
]]></style>
<script type="text/javascript"><![CDATA[
var edges = document.getElementsByTagName('g');
if (edges && edges.length) {
  for (var i=0;i<edges.length;i++) {
    if (edges[i].id.substr(0,4)=='edge') {
      edges[i].setAttribute('class','edge');
    }
  }
}
]]></script>
        <defs>
                <circle id="rim" cx="0" cy="0" r="7"/>
                <circle id="rim2" cx="0" cy="0" r="3.5"/>
                <g id="zoomPlus">
                        <use xlink:href="#rim" fill="#404040">
                                <set attributeName="fill" to="#808080" begin="zoomplus.mouseover" end="zoomplus.mouseout"/>
                        </use>
                        <path d="M-4,0h8M0,-4v8" fill="none" stroke="white" stroke-width="1.5" pointer-events="none"/>
                </g>
                <g id="zoomMin">
                        <use xlink:href="#rim" fill="#404040">
                                <set attributeName="fill" to="#808080" begin="zoomminus.mouseover" end="zoomminus.mouseout"/>
                        </use>
                        <path d="M-4,0h8" fill="none" stroke="white" stroke-width="1.5" pointer-events="none"/>
                </g>
                <g id="dirArrow">
                        <path fill="none" stroke="white" stroke-width="1.5" d="M0,-3.0v7 M-2.5,-0.5L0,-3.0L2.5,-0.5"/>
                </g>
               <g id="resetDef">
                       <use xlink:href="#rim2" fill="#404040">
                               <set attributeName="fill" to="#808080" begin="reset.mouseover" end="reset.mouseout"/>
                       </use>
               </g>
        </defs>

<script type="text/javascript">
var viewWidth = 686;
var viewHeight = 113;
var sectionId = 'dynsection-2';
</script>
<script xlink:href="svgpan.js"/>
<svg id="graph" class="graph">
<g id="viewport">
<title>Camera::GetView</title>
<!-- Node1 -->
<g id="node1" class="node"><title>Node1</title>
<polygon fill="#bfbfbf" stroke="black" points="0,-0.5 0,-19.5 93,-19.5 93,-0.5 0,-0.5"/>
<text text-anchor="middle" x="46.5" y="-7.5" font-family="Helvetica,sans-Serif" font-size="10.00">Camera::GetView</text>
</g>
<!-- Node2 -->
<g id="node2" class="node"><title>Node2</title>
<g id="a_node2"><a xlink:href="class_direct_x_renderer.html#af1bd5f83975a5f0fb1735b3a6e933656" target="_top" xlink:title="DirectXRenderer::Update">
<polygon fill="none" stroke="black" points="129,-0.5 129,-19.5 252,-19.5 252,-0.5 129,-0.5"/>
<text text-anchor="middle" x="190.5" y="-7.5" font-family="Helvetica,sans-Serif" font-size="10.00">DirectXRenderer::Update</text>
</a>
</g>
</g>
<!-- Node1&#45;&gt;Node2 -->
<g id="edge1" class="edge"><title>Node1&#45;&gt;Node2</title>
<path fill="none" stroke="midnightblue" d="M103.27,-10C111.664,-10 120.357,-10 128.848,-10"/>
<polygon fill="midnightblue" stroke="midnightblue" points="103.211,-6.5001 93.2113,-10 103.211,-13.5001 103.211,-6.5001"/>
</g>
<!-- Node3 -->
<g id="node3" class="node"><title>Node3</title>
<g id="a_node3"><a xlink:href="classengine.html#a90418b124cd07d7d2f057e7d401ed641" target="_top" xlink:title="engine::_tick">
<polygon fill="none" stroke="black" points="288,-0.5 288,-19.5 360,-19.5 360,-0.5 288,-0.5"/>
<text text-anchor="middle" x="324" y="-7.5" font-family="Helvetica,sans-Serif" font-size="10.00">engine::_tick</text>
</a>
</g>
</g>
<!-- Node2&#45;&gt;Node3 -->
<g id="edge2" class="edge"><title>Node2&#45;&gt;Node3</title>
<path fill="none" stroke="midnightblue" d="M262.31,-10C271.209,-10 279.982,-10 287.975,-10"/>
<polygon fill="midnightblue" stroke="midnightblue" points="262.246,-6.5001 252.246,-10 262.246,-13.5001 262.246,-6.5001"/>
</g>
<!-- Node4 -->
<g id="node4" class="node"><title>Node4</title>
<g id="a_node4"><a xlink:href="classengine.html#a4bca5e9257e46c09a63f71227fc25a12" target="_top" xlink:title="engine::tick">
<polygon fill="none" stroke="black" points="396,-47.5 396,-66.5 463,-66.5 463,-47.5 396,-47.5"/>
<text text-anchor="middle" x="429.5" y="-54.5" font-family="Helvetica,sans-Serif" font-size="10.00">engine::tick</text>
</a>
</g>
</g>
<!-- Node3&#45;&gt;Node4 -->
<g id="edge3" class="edge"><title>Node3&#45;&gt;Node4</title>
<path fill="none" stroke="midnightblue" d="M355.277,-23.7491C371.952,-31.3212 392.242,-40.535 407.231,-47.3417"/>
<polygon fill="midnightblue" stroke="midnightblue" points="356.497,-20.4591 345.945,-19.5112 353.603,-26.8327 356.497,-20.4591"/>
</g>
<!-- Node7 -->
<g id="node7" class="node"><title>Node7</title>
<g id="a_node7"><a xlink:href="classengine.html#ada832d0a14502f1b99fdbd5c72cab01b" target="_top" xlink:title="engine::Draw">
<polygon fill="none" stroke="black" points="605,-23.5 605,-42.5 678,-42.5 678,-23.5 605,-23.5"/>
<text text-anchor="middle" x="641.5" y="-30.5" font-family="Helvetica,sans-Serif" font-size="10.00">engine::Draw</text>
</a>
</g>
</g>
<!-- Node3&#45;&gt;Node7 -->
<g id="edge9" class="edge"><title>Node3&#45;&gt;Node7</title>
<path fill="none" stroke="midnightblue" d="M370.368,-8.4C433.723,-10.4209 547.381,-18.8554 604.971,-25.949"/>
<polygon fill="midnightblue" stroke="midnightblue" points="370.366,-4.89871 360.273,-8.12345 370.174,-11.8961 370.366,-4.89871"/>
</g>
<!-- Node5 -->
<g id="node5" class="node"><title>Node5</title>
<g id="a_node5"><a xlink:href="classengine.html#a1d9b806d03be0255a8ac3c119e181cc5" target="_top" xlink:title="engine::_run">
<polygon fill="none" stroke="black" points="499,-85.5 499,-104.5 569,-104.5 569,-85.5 499,-85.5"/>
<text text-anchor="middle" x="534" y="-92.5" font-family="Helvetica,sans-Serif" font-size="10.00">engine::_run</text>
</a>
</g>
</g>
<!-- Node4&#45;&gt;Node5 -->
<g id="edge4" class="edge"><title>Node4&#45;&gt;Node5</title>
<path fill="none" stroke="midnightblue" d="M465.884,-70.118C479.441,-75.1439 494.641,-80.7791 507.143,-85.4141"/>
<polygon fill="midnightblue" stroke="midnightblue" points="466.958,-66.7835 456.365,-66.589 464.525,-73.3469 466.958,-66.7835"/>
</g>
<!-- Node4&#45;&gt;Node7 -->
<g id="edge8" class="edge"><title>Node4&#45;&gt;Node7</title>
<path fill="none" stroke="midnightblue" d="M473.739,-52.0584C512.447,-47.6346 568.53,-41.2252 604.757,-37.0849"/>
<polygon fill="midnightblue" stroke="midnightblue" points="472.85,-48.6371 463.313,-53.25 473.645,-55.5918 472.85,-48.6371"/>
</g>
<!-- Node6 -->
<g id="node6" class="node"><title>Node6</title>
<g id="a_node6"><a xlink:href="classengine.html#aecb22d51cc8f83cacbf3696a18d66c30" target="_top" xlink:title="engine::run">
<polygon fill="none" stroke="black" points="609,-85.5 609,-104.5 674,-104.5 674,-85.5 609,-85.5"/>
<text text-anchor="middle" x="641.5" y="-92.5" font-family="Helvetica,sans-Serif" font-size="10.00">engine::run</text>
</a>
</g>
</g>
<!-- Node5&#45;&gt;Node6 -->
<g id="edge5" class="edge"><title>Node5&#45;&gt;Node6</title>
<path fill="none" stroke="midnightblue" d="M579.387,-95C589.311,-95 599.639,-95 608.92,-95"/>
<polygon fill="midnightblue" stroke="midnightblue" points="579.253,-91.5001 569.253,-95 579.253,-98.5001 579.253,-91.5001"/>
</g>
<!-- Node5&#45;&gt;Node7 -->
<g id="edge6" class="edge"><title>Node5&#45;&gt;Node7</title>
<path fill="none" stroke="midnightblue" d="M560.288,-80.1387C580.095,-68.4984 607.066,-52.6485 624.131,-42.6195"/>
<polygon fill="midnightblue" stroke="midnightblue" points="558.332,-77.2283 551.484,-85.3125 561.879,-83.2633 558.332,-77.2283"/>
</g>
<!-- Node7&#45;&gt;Node3 -->
<g id="edge7" class="edge"><title>Node7&#45;&gt;Node3</title>
<path fill="none" stroke="midnightblue" d="M594.85,-34.591C531.347,-32.5511 417.698,-24.1091 360.273,-17.0194"/>
<polygon fill="midnightblue" stroke="midnightblue" points="594.878,-38.093 604.971,-34.8708 595.072,-31.0957 594.878,-38.093"/>
</g>
</g>
</svg>
        <g id="navigator" transform="translate(0 0)" fill="#404254">
                <rect fill="#f2f5e9" fill-opacity="0.5" stroke="#606060" stroke-width=".5" x="0" y="0" width="60" height="60"/>
                <use id="zoomplus" xlink:href="#zoomPlus" x="17" y="9" onmousedown="handleZoom(evt,'in')"/>
                <use id="zoomminus" xlink:href="#zoomMin" x="42" y="9" onmousedown="handleZoom(evt,'out')"/>
                <use id="reset" xlink:href="#resetDef" x="30" y="36" onmousedown="handleReset()"/>
                <g id="arrowUp" xlink:href="#dirArrow" transform="translate(30 24)" onmousedown="handlePan(0,-1)">
                  <use xlink:href="#rim" fill="#404040">
                        <set attributeName="fill" to="#808080" begin="arrowUp.mouseover" end="arrowUp.mouseout"/>
                  </use>
                  <path fill="none" stroke="white" stroke-width="1.5" d="M0,-3.0v7 M-2.5,-0.5L0,-3.0L2.5,-0.5"/>
                </g>
                <g id="arrowRight" xlink:href="#dirArrow" transform="rotate(90) translate(36 -43)" onmousedown="handlePan(1,0)">
                  <use xlink:href="#rim" fill="#404040">
                        <set attributeName="fill" to="#808080" begin="arrowRight.mouseover" end="arrowRight.mouseout"/>
                  </use>
                  <path fill="none" stroke="white" stroke-width="1.5" d="M0,-3.0v7 M-2.5,-0.5L0,-3.0L2.5,-0.5"/>
                </g>
                <g id="arrowDown" xlink:href="#dirArrow" transform="rotate(180) translate(-30 -48)" onmousedown="handlePan(0,1)">
                  <use xlink:href="#rim" fill="#404040">
                        <set attributeName="fill" to="#808080" begin="arrowDown.mouseover" end="arrowDown.mouseout"/>
                  </use>
                  <path fill="none" stroke="white" stroke-width="1.5" d="M0,-3.0v7 M-2.5,-0.5L0,-3.0L2.5,-0.5"/>
                </g>
                <g id="arrowLeft" xlink:href="#dirArrow" transform="rotate(270) translate(-36 17)" onmousedown="handlePan(-1,0)">
                  <use xlink:href="#rim" fill="#404040">
                        <set attributeName="fill" to="#808080" begin="arrowLeft.mouseover" end="arrowLeft.mouseout"/>
                  </use>
                  <path fill="none" stroke="white" stroke-width="1.5" d="M0,-3.0v7 M-2.5,-0.5L0,-3.0L2.5,-0.5"/>
                </g>
        </g>
        <svg viewBox="0 0 15 15" width="100%" height="30px" preserveAspectRatio="xMaxYMin meet">
         <g id="arrow_out" transform="scale(0.3 0.3)">
          <a xlink:href="class_camera_a5a1a8ddceb04c093f440d4c9dcadbc77_icgraph_org.svg" target="_base">
           <rect id="button" ry="5" rx="5" y="6" x="6" height="38" width="38"
                fill="#f2f5e9" fill-opacity="0.5" stroke="#606060" stroke-width="1.0"/>
           <path id="arrow"
             d="M 11.500037,31.436501 C 11.940474,20.09759 22.043105,11.32322 32.158766,21.979434 L 37.068811,17.246167 C 37.068811,17.246167 37.088388,32 37.088388,32 L 22.160133,31.978069 C 22.160133,31.978069 26.997745,27.140456 26.997745,27.140456 C 18.528582,18.264221 13.291696,25.230495 11.500037,31.436501 z"
             style="fill:#404040;"/>
          </a>
         </g>
        </svg>
</svg>
