<?xml version="1.0" encoding="UTF-8" standalone="no"?>
<!DOCTYPE svg PUBLIC "-//W3C//DTD SVG 1.1//EN"
 "http://www.w3.org/Graphics/SVG/1.1/DTD/svg11.dtd">
<!-- Generated by graphviz version 2.38.0 (20140413.2041)
 -->
<!-- Title: engine::get_aspect_ratio Pages: 1 -->
<svg width="1221pt" height="135pt"
 viewBox="0.00 0.00 1221.00 134.50" xmlns="http://www.w3.org/2000/svg" xmlns:xlink="http://www.w3.org/1999/xlink">
<g id="graph0" class="graph" transform="scale(1 1) rotate(0) translate(4 130.5)">
<title>engine::get_aspect_ratio</title>
<!-- Node1 -->
<g id="node1" class="node"><title>Node1</title>
<polygon fill="#bfbfbf" stroke="black" points="0,-74 0,-104 99,-104 99,-74 0,-74"/>
<text text-anchor="start" x="8" y="-92" font-family="Helvetica,sans-Serif" font-size="10.00">engine::get_aspect</text>
<text text-anchor="middle" x="49.5" y="-81" font-family="Helvetica,sans-Serif" font-size="10.00">_ratio</text>
</g>
<!-- Node2 -->
<g id="node2" class="node"><title>Node2</title>
<g id="a_node2"><a xlink:href="class_direct_x_renderer.html#ae823daf9d77db0f506320f7171cb117d" target="_top" xlink:title="DirectXRenderer::resize">
<polygon fill="none" stroke="black" points="135,-79.5 135,-98.5 254,-98.5 254,-79.5 135,-79.5"/>
<text text-anchor="middle" x="194.5" y="-86.5" font-family="Helvetica,sans-Serif" font-size="10.00">DirectXRenderer::resize</text>
</a>
</g>
</g>
<!-- Node1&#45;&gt;Node2 -->
<g id="edge1" class="edge"><title>Node1&#45;&gt;Node2</title>
<path fill="none" stroke="midnightblue" d="M109.389,-89C117.773,-89 126.397,-89 134.778,-89"/>
<polygon fill="midnightblue" stroke="midnightblue" points="109.313,-85.5001 99.3125,-89 109.312,-92.5001 109.313,-85.5001"/>
</g>
<!-- Node3 -->
<g id="node3" class="node"><title>Node3</title>
<g id="a_node3"><a xlink:href="class_direct_x_renderer.html#a252d9ba8d713ba462c54a3dadfda2f59" target="_top" xlink:title="DirectXRenderer::Set4xMsaa\lState">
<polygon fill="none" stroke="black" points="290,-96 290,-126 432,-126 432,-96 290,-96"/>
<text text-anchor="start" x="298" y="-114" font-family="Helvetica,sans-Serif" font-size="10.00">DirectXRenderer::Set4xMsaa</text>
<text text-anchor="middle" x="361" y="-103" font-family="Helvetica,sans-Serif" font-size="10.00">State</text>
</a>
</g>
</g>
<!-- Node2&#45;&gt;Node3 -->
<g id="edge2" class="edge"><title>Node2&#45;&gt;Node3</title>
<path fill="none" stroke="midnightblue" d="M264.559,-98.2359C272.966,-99.3602 281.561,-100.51 289.981,-101.636"/>
<polygon fill="midnightblue" stroke="midnightblue" points="264.799,-94.7369 254.424,-96.8804 263.871,-101.675 264.799,-94.7369"/>
</g>
<!-- Node4 -->
<g id="node4" class="node"><title>Node4</title>
<g id="a_node4"><a xlink:href="classengine.html#a097517979864142f35d1969b5cf3d437" target="_top" xlink:title="engine::_resize">
<polygon fill="none" stroke="black" points="319.5,-57.5 319.5,-76.5 402.5,-76.5 402.5,-57.5 319.5,-57.5"/>
<text text-anchor="middle" x="361" y="-64.5" font-family="Helvetica,sans-Serif" font-size="10.00">engine::_resize</text>
</a>
</g>
</g>
<!-- Node2&#45;&gt;Node4 -->
<g id="edge3" class="edge"><title>Node2&#45;&gt;Node4</title>
<path fill="none" stroke="midnightblue" d="M264.379,-79.7882C283.055,-77.2905 302.677,-74.6663 319.252,-72.4496"/>
<polygon fill="midnightblue" stroke="midnightblue" points="263.871,-76.3249 254.424,-81.1196 264.799,-83.2631 263.871,-76.3249"/>
</g>
<!-- Node5 -->
<g id="node5" class="node"><title>Node5</title>
<g id="a_node5"><a xlink:href="classengine.html#a2a83502d17f32c78093028f6009df8ba" target="_top" xlink:title="engine::resize">
<polygon fill="none" stroke="black" points="468,-57.5 468,-76.5 545,-76.5 545,-57.5 468,-57.5"/>
<text text-anchor="middle" x="506.5" y="-64.5" font-family="Helvetica,sans-Serif" font-size="10.00">engine::resize</text>
</a>
</g>
</g>
<!-- Node4&#45;&gt;Node5 -->
<g id="edge4" class="edge"><title>Node4&#45;&gt;Node5</title>
<path fill="none" stroke="midnightblue" d="M412.814,-67C430.859,-67 450.839,-67 467.615,-67"/>
<polygon fill="midnightblue" stroke="midnightblue" points="412.738,-63.5001 402.737,-67 412.737,-70.5001 412.738,-63.5001"/>
</g>
<!-- Node6 -->
<g id="node6" class="node"><title>Node6</title>
<g id="a_node6"><a xlink:href="classengine.html#a8b8dd82e72fd73e0601c30041529c4c0" target="_top" xlink:title="engine::_initialize">
<polygon fill="none" stroke="black" points="581,-57.5 581,-76.5 673,-76.5 673,-57.5 581,-57.5"/>
<text text-anchor="middle" x="627" y="-64.5" font-family="Helvetica,sans-Serif" font-size="10.00">engine::_initialize</text>
</a>
</g>
</g>
<!-- Node5&#45;&gt;Node6 -->
<g id="edge5" class="edge"><title>Node5&#45;&gt;Node6</title>
<path fill="none" stroke="midnightblue" d="M555.322,-67C563.688,-67 572.371,-67 580.668,-67"/>
<polygon fill="midnightblue" stroke="midnightblue" points="555.32,-63.5001 545.32,-67 555.32,-70.5001 555.32,-63.5001"/>
</g>
<!-- Node7 -->
<g id="node7" class="node"><title>Node7</title>
<g id="a_node7"><a xlink:href="classengine.html#a6809dcdfe78011851e377d4729a87ee4" target="_top" xlink:title="engine::initialize">
<polygon fill="none" stroke="black" points="709,-76.5 709,-95.5 795,-95.5 795,-76.5 709,-76.5"/>
<text text-anchor="middle" x="752" y="-83.5" font-family="Helvetica,sans-Serif" font-size="10.00">engine::initialize</text>
</a>
</g>
</g>
<!-- Node6&#45;&gt;Node7 -->
<g id="edge6" class="edge"><title>Node6&#45;&gt;Node7</title>
<path fill="none" stroke="midnightblue" d="M683.097,-75.5109C691.712,-76.8417 700.497,-78.1987 708.765,-79.4758"/>
<polygon fill="midnightblue" stroke="midnightblue" points="683.519,-72.0347 673.102,-73.967 682.451,-78.9527 683.519,-72.0347"/>
</g>
<!-- Node8 -->
<g id="node8" class="node"><title>Node8</title>
<g id="a_node8"><a xlink:href="classengine.html#ada832d0a14502f1b99fdbd5c72cab01b" target="_top" xlink:title="engine::Draw">
<polygon fill="none" stroke="black" points="715.5,-38.5 715.5,-57.5 788.5,-57.5 788.5,-38.5 715.5,-38.5"/>
<text text-anchor="middle" x="752" y="-45.5" font-family="Helvetica,sans-Serif" font-size="10.00">engine::Draw</text>
</a>
</g>
</g>
<!-- Node6&#45;&gt;Node8 -->
<g id="edge7" class="edge"><title>Node6&#45;&gt;Node8</title>
<path fill="none" stroke="midnightblue" d="M682.998,-58.5044C693.9,-56.8203 705.079,-55.0935 715.142,-53.5391"/>
<polygon fill="midnightblue" stroke="midnightblue" points="682.451,-55.0473 673.102,-60.033 683.519,-61.9653 682.451,-55.0473"/>
</g>
<!-- Node9 -->
<g id="node9" class="node"><title>Node9</title>
<g id="a_node9"><a xlink:href="classengine.html#a90418b124cd07d7d2f057e7d401ed641" target="_top" xlink:title="engine::_tick">
<polygon fill="none" stroke="black" points="831,-57.5 831,-76.5 903,-76.5 903,-57.5 831,-57.5"/>
<text text-anchor="middle" x="867" y="-64.5" font-family="Helvetica,sans-Serif" font-size="10.00">engine::_tick</text>
</a>
</g>
</g>
<!-- Node8&#45;&gt;Node9 -->
<g id="edge8" class="edge"><title>Node8&#45;&gt;Node9</title>
<path fill="none" stroke="midnightblue" d="M798.921,-49.0775C813.923,-51.2953 829.957,-54.3417 842.586,-57.4705"/>
<polygon fill="midnightblue" stroke="midnightblue" points="799.137,-45.5744 788.754,-47.6836 798.186,-52.5095 799.137,-45.5744"/>
</g>
<!-- Node9&#45;&gt;Node8 -->
<g id="edge14" class="edge"><title>Node9&#45;&gt;Node8</title>
<path fill="none" stroke="midnightblue" d="M820.371,-65.9655C805.285,-63.7442 789.125,-60.6786 776.414,-57.5295"/>
<polygon fill="midnightblue" stroke="midnightblue" points="820.206,-69.4754 830.588,-67.3592 821.152,-62.5397 820.206,-69.4754"/>
</g>
<!-- Node10 -->
<g id="node10" class="node"><title>Node10</title>
<g id="a_node10"><a xlink:href="classengine.html#a4bca5e9257e46c09a63f71227fc25a12" target="_top" xlink:title="engine::tick">
<polygon fill="none" stroke="black" points="939,-19.5 939,-38.5 1006,-38.5 1006,-19.5 939,-19.5"/>
<text text-anchor="middle" x="972.5" y="-26.5" font-family="Helvetica,sans-Serif" font-size="10.00">engine::tick</text>
</a>
</g>
</g>
<!-- Node9&#45;&gt;Node10 -->
<g id="edge9" class="edge"><title>Node9&#45;&gt;Node10</title>
<path fill="none" stroke="midnightblue" d="M903.729,-53.882C917.418,-48.8561 932.767,-43.2209 945.391,-38.5859"/>
<polygon fill="midnightblue" stroke="midnightblue" points="902.298,-50.6788 894.117,-57.411 904.711,-57.2499 902.298,-50.6788"/>
</g>
<!-- Node10&#45;&gt;Node8 -->
<g id="edge13" class="edge"><title>Node10&#45;&gt;Node8</title>
<path fill="none" stroke="midnightblue" d="M928.585,-32.7318C887.696,-36.2873 826.86,-41.5774 788.592,-44.905"/>
<polygon fill="midnightblue" stroke="midnightblue" points="929.122,-36.1984 938.781,-31.8451 928.515,-29.2247 929.122,-36.1984"/>
</g>
<!-- Node11 -->
<g id="node11" class="node"><title>Node11</title>
<g id="a_node11"><a xlink:href="classengine.html#a1d9b806d03be0255a8ac3c119e181cc5" target="_top" xlink:title="engine::_run">
<polygon fill="none" stroke="black" points="1042,-0.5 1042,-19.5 1112,-19.5 1112,-0.5 1042,-0.5"/>
<text text-anchor="middle" x="1077" y="-7.5" font-family="Helvetica,sans-Serif" font-size="10.00">engine::_run</text>
</a>
</g>
</g>
<!-- Node10&#45;&gt;Node11 -->
<g id="edge10" class="edge"><title>Node10&#45;&gt;Node11</title>
<path fill="none" stroke="midnightblue" d="M1016.08,-21.1076C1024.66,-19.5164 1033.58,-17.8631 1041.83,-16.3335"/>
<polygon fill="midnightblue" stroke="midnightblue" points="1015.41,-17.672 1006.21,-22.936 1016.68,-24.5547 1015.41,-17.672"/>
</g>
<!-- Node11&#45;&gt;Node8 -->
<g id="edge12" class="edge"><title>Node11&#45;&gt;Node8</title>
<path fill="none" stroke="midnightblue" d="M1031.61,-7.84934C1004.74,-7.08197 969.829,-7.03059 939,-10 890.326,-14.6883 878.892,-21.1262 831,-31 817.154,-33.8545 801.959,-37.1331 788.688,-40.0447"/>
<polygon fill="midnightblue" stroke="midnightblue" points="1031.74,-11.3556 1041.85,-8.1874 1031.97,-4.35941 1031.74,-11.3556"/>
</g>
<!-- Node12 -->
<g id="node12" class="node"><title>Node12</title>
<g id="a_node12"><a xlink:href="classengine.html#aecb22d51cc8f83cacbf3696a18d66c30" target="_top" xlink:title="engine::run">
<polygon fill="none" stroke="black" points="1148,-0.5 1148,-19.5 1213,-19.5 1213,-0.5 1148,-0.5"/>
<text text-anchor="middle" x="1180.5" y="-7.5" font-family="Helvetica,sans-Serif" font-size="10.00">engine::run</text>
</a>
</g>
</g>
<!-- Node11&#45;&gt;Node12 -->
<g id="edge11" class="edge"><title>Node11&#45;&gt;Node12</title>
<path fill="none" stroke="midnightblue" d="M1122.33,-10C1130.88,-10 1139.68,-10 1147.74,-10"/>
<polygon fill="midnightblue" stroke="midnightblue" points="1122.08,-6.5001 1112.08,-10 1122.08,-13.5001 1122.08,-6.5001"/>
</g>
</g>
</svg>
