<?xml version="1.0" encoding="UTF-8" standalone="no"?>
<!DOCTYPE svg PUBLIC "-//W3C//DTD SVG 1.1//EN"
 "http://www.w3.org/Graphics/SVG/1.1/DTD/svg11.dtd">
<!-- Generated by graphviz version 2.38.0 (20140413.2041)
 -->
<!-- Title: GameTimer::ns_idle_this_interval Pages: 1 -->
<svg width="689pt" height="143pt"
 viewBox="0.00 0.00 689.00 142.50" xmlns="http://www.w3.org/2000/svg" xmlns:xlink="http://www.w3.org/1999/xlink">
<g id="graph0" class="graph" transform="scale(1 1) rotate(0) translate(4 138.5)">
<title>GameTimer::ns_idle_this_interval</title>
<!-- Node1 -->
<g id="node1" class="node"><title>Node1</title>
<polygon fill="#bfbfbf" stroke="black" points="0,-0.5 0,-30.5 104,-30.5 104,-0.5 0,-0.5"/>
<text text-anchor="start" x="8" y="-18.5" font-family="Helvetica,sans-Serif" font-size="10.00">GameTimer::ns_idle</text>
<text text-anchor="middle" x="52" y="-7.5" font-family="Helvetica,sans-Serif" font-size="10.00">_this_interval</text>
</g>
<!-- Node2 -->
<g id="node2" class="node"><title>Node2</title>
<g id="a_node2"><a xlink:href="classengine.html#aef40b48edcc51792bb523f80c4eebbd3" target="_top" xlink:title="engine::_update_frame\l_stats">
<polygon fill="none" stroke="black" points="140,-0.5 140,-30.5 255,-30.5 255,-0.5 140,-0.5"/>
<text text-anchor="start" x="148" y="-18.5" font-family="Helvetica,sans-Serif" font-size="10.00">engine::_update_frame</text>
<text text-anchor="middle" x="197.5" y="-7.5" font-family="Helvetica,sans-Serif" font-size="10.00">_stats</text>
</a>
</g>
</g>
<!-- Node1&#45;&gt;Node2 -->
<g id="edge1" class="edge"><title>Node1&#45;&gt;Node2</title>
<path fill="none" stroke="midnightblue" d="M114.461,-15.5C122.811,-15.5 131.351,-15.5 139.616,-15.5"/>
<polygon fill="midnightblue" stroke="midnightblue" points="114.402,-12.0001 104.401,-15.5 114.401,-19.0001 114.402,-12.0001"/>
</g>
<!-- Node3 -->
<g id="node3" class="node"><title>Node3</title>
<g id="a_node3"><a xlink:href="classengine.html#a90418b124cd07d7d2f057e7d401ed641" target="_top" xlink:title="engine::_tick">
<polygon fill="none" stroke="black" points="291,-30 291,-49 363,-49 363,-30 291,-30"/>
<text text-anchor="middle" x="327" y="-37" font-family="Helvetica,sans-Serif" font-size="10.00">engine::_tick</text>
</a>
</g>
</g>
<!-- Node2&#45;&gt;Node3 -->
<g id="edge2" class="edge"><title>Node2&#45;&gt;Node3</title>
<path fill="none" stroke="midnightblue" d="M265.136,-28.0433C273.972,-29.7064 282.733,-31.3556 290.739,-32.8627"/>
<polygon fill="midnightblue" stroke="midnightblue" points="265.641,-24.5769 255.166,-26.1665 264.346,-31.4561 265.641,-24.5769"/>
</g>
<!-- Node7 -->
<g id="node7" class="node"><title>Node7</title>
<g id="a_node7"><a xlink:href="classengine.html#ada832d0a14502f1b99fdbd5c72cab01b" target="_top" xlink:title="engine::Draw">
<polygon fill="none" stroke="black" points="608,-30 608,-49 681,-49 681,-30 608,-30"/>
<text text-anchor="middle" x="644.5" y="-37" font-family="Helvetica,sans-Serif" font-size="10.00">engine::Draw</text>
</a>
</g>
</g>
<!-- Node2&#45;&gt;Node7 -->
<g id="edge10" class="edge"><title>Node2&#45;&gt;Node7</title>
<path fill="none" stroke="midnightblue" d="M265.542,-16.9726C295.389,-17.7739 330.962,-18.9286 363,-20.5 450.995,-24.8161 554.35,-32.4914 607.659,-36.6432"/>
<polygon fill="midnightblue" stroke="midnightblue" points="265.326,-13.4658 255.239,-16.7038 265.144,-20.4635 265.326,-13.4658"/>
</g>
<!-- Node4 -->
<g id="node4" class="node"><title>Node4</title>
<g id="a_node4"><a xlink:href="classengine.html#a4bca5e9257e46c09a63f71227fc25a12" target="_top" xlink:title="engine::tick">
<polygon fill="none" stroke="black" points="399,-77 399,-96 466,-96 466,-77 399,-77"/>
<text text-anchor="middle" x="432.5" y="-84" font-family="Helvetica,sans-Serif" font-size="10.00">engine::tick</text>
</a>
</g>
</g>
<!-- Node3&#45;&gt;Node4 -->
<g id="edge3" class="edge"><title>Node3&#45;&gt;Node4</title>
<path fill="none" stroke="midnightblue" d="M358.277,-53.2491C374.952,-60.8212 395.242,-70.035 410.231,-76.8417"/>
<polygon fill="midnightblue" stroke="midnightblue" points="359.497,-49.9591 348.945,-49.0112 356.603,-56.3327 359.497,-49.9591"/>
</g>
<!-- Node3&#45;&gt;Node7 -->
<g id="edge9" class="edge"><title>Node3&#45;&gt;Node7</title>
<path fill="none" stroke="midnightblue" d="M373.368,-34.5926C436.723,-31.995 550.381,-32.1439 607.971,-35.0391"/>
<polygon fill="midnightblue" stroke="midnightblue" points="373.104,-31.1009 363.273,-35.052 373.422,-38.0937 373.104,-31.1009"/>
</g>
<!-- Node5 -->
<g id="node5" class="node"><title>Node5</title>
<g id="a_node5"><a xlink:href="classengine.html#a1d9b806d03be0255a8ac3c119e181cc5" target="_top" xlink:title="engine::_run">
<polygon fill="none" stroke="black" points="502,-115 502,-134 572,-134 572,-115 502,-115"/>
<text text-anchor="middle" x="537" y="-122" font-family="Helvetica,sans-Serif" font-size="10.00">engine::_run</text>
</a>
</g>
</g>
<!-- Node4&#45;&gt;Node5 -->
<g id="edge4" class="edge"><title>Node4&#45;&gt;Node5</title>
<path fill="none" stroke="midnightblue" d="M468.884,-99.618C482.441,-104.644 497.641,-110.279 510.143,-114.914"/>
<polygon fill="midnightblue" stroke="midnightblue" points="469.958,-96.2835 459.365,-96.089 467.525,-102.847 469.958,-96.2835"/>
</g>
<!-- Node4&#45;&gt;Node7 -->
<g id="edge8" class="edge"><title>Node4&#45;&gt;Node7</title>
<path fill="none" stroke="midnightblue" d="M476.315,-80.6597C503.846,-76.517 540.273,-70.3114 572,-62.5 587.067,-58.7904 603.576,-53.5597 616.931,-49.0237"/>
<polygon fill="midnightblue" stroke="midnightblue" points="475.611,-77.2256 466.228,-82.1455 476.631,-84.1509 475.611,-77.2256"/>
</g>
<!-- Node6 -->
<g id="node6" class="node"><title>Node6</title>
<g id="a_node6"><a xlink:href="classengine.html#aecb22d51cc8f83cacbf3696a18d66c30" target="_top" xlink:title="engine::run">
<polygon fill="none" stroke="black" points="612,-115 612,-134 677,-134 677,-115 612,-115"/>
<text text-anchor="middle" x="644.5" y="-122" font-family="Helvetica,sans-Serif" font-size="10.00">engine::run</text>
</a>
</g>
</g>
<!-- Node5&#45;&gt;Node6 -->
<g id="edge5" class="edge"><title>Node5&#45;&gt;Node6</title>
<path fill="none" stroke="midnightblue" d="M582.387,-124.5C592.311,-124.5 602.639,-124.5 611.92,-124.5"/>
<polygon fill="midnightblue" stroke="midnightblue" points="582.253,-121 572.253,-124.5 582.253,-128 582.253,-121"/>
</g>
<!-- Node5&#45;&gt;Node7 -->
<g id="edge6" class="edge"><title>Node5&#45;&gt;Node7</title>
<path fill="none" stroke="midnightblue" d="M560.389,-109.135C564.305,-106.324 568.306,-103.37 572,-100.5 594.163,-83.282 618.821,-61.6643 632.616,-49.3315"/>
<polygon fill="midnightblue" stroke="midnightblue" points="558.262,-106.352 552.105,-114.974 562.295,-112.074 558.262,-106.352"/>
</g>
<!-- Node7&#45;&gt;Node3 -->
<g id="edge7" class="edge"><title>Node7&#45;&gt;Node3</title>
<path fill="none" stroke="midnightblue" d="M597.85,-44.4189C534.347,-47.0084 420.698,-46.8514 363.273,-43.948"/>
<polygon fill="midnightblue" stroke="midnightblue" points="598.139,-47.9095 607.971,-43.9609 597.823,-40.9166 598.139,-47.9095"/>
</g>
</g>
</svg>
