<?xml version="1.0" encoding="UTF-8" standalone="no"?>
<!DOCTYPE svg PUBLIC "-//W3C//DTD SVG 1.1//EN"
 "http://www.w3.org/Graphics/SVG/1.1/DTD/svg11.dtd">
<!-- Generated by graphviz version 2.38.0 (20140413.2041)
 -->
<!-- Title: engine::get_windows_message_handler Pages: 1 -->
<!--zoomable 104 -->
<svg id="main" version="1.1" xmlns="http://www.w3.org/2000/svg" xmlns:xlink="http://www.w3.org/1999/xlink" xml:space="preserve" onload="init(evt)">
<style type="text/css"><![CDATA[
.edge:hover path { stroke: red; }
.edge:hover polygon { stroke: red; fill: red; }
]]></style>
<script type="text/javascript"><![CDATA[
var edges = document.getElementsByTagName('g');
if (edges && edges.length) {
  for (var i=0;i<edges.length;i++) {
    if (edges[i].id.substr(0,4)=='edge') {
      edges[i].setAttribute('class','edge');
    }
  }
}
]]></script>
        <defs>
                <circle id="rim" cx="0" cy="0" r="7"/>
                <circle id="rim2" cx="0" cy="0" r="3.5"/>
                <g id="zoomPlus">
                        <use xlink:href="#rim" fill="#404040">
                                <set attributeName="fill" to="#808080" begin="zoomplus.mouseover" end="zoomplus.mouseout"/>
                        </use>
                        <path d="M-4,0h8M0,-4v8" fill="none" stroke="white" stroke-width="1.5" pointer-events="none"/>
                </g>
                <g id="zoomMin">
                        <use xlink:href="#rim" fill="#404040">
                                <set attributeName="fill" to="#808080" begin="zoomminus.mouseover" end="zoomminus.mouseout"/>
                        </use>
                        <path d="M-4,0h8" fill="none" stroke="white" stroke-width="1.5" pointer-events="none"/>
                </g>
                <g id="dirArrow">
                        <path fill="none" stroke="white" stroke-width="1.5" d="M0,-3.0v7 M-2.5,-0.5L0,-3.0L2.5,-0.5"/>
                </g>
               <g id="resetDef">
                       <use xlink:href="#rim2" fill="#404040">
                               <set attributeName="fill" to="#808080" begin="reset.mouseover" end="reset.mouseout"/>
                       </use>
               </g>
        </defs>

<script type="text/javascript">
var viewWidth = 1028;
var viewHeight = 104;
var sectionId = 'dynsection-49';
</script>
<script xlink:href="svgpan.js"/>
<svg id="graph" class="graph">
<g id="viewport">
<title>engine::get_windows_message_handler</title>
<!-- Node1 -->
<g id="node1" class="node"><title>Node1</title>
<polygon fill="#bfbfbf" stroke="black" points="0,-52 0,-82 107,-82 107,-52 0,-52"/>
<text text-anchor="start" x="8" y="-70" font-family="Helvetica,sans-Serif" font-size="10.00">engine::get_windows</text>
<text text-anchor="middle" x="53.5" y="-59" font-family="Helvetica,sans-Serif" font-size="10.00">_message_handler</text>
</g>
<!-- Node2 -->
<g id="node2" class="node"><title>Node2</title>
<g id="a_node2"><a xlink:href="engine_8cpp.html#a6430a76bf18e17d995aa340aaf8c30a9" target="_top" xlink:title="MainWndProc">
<polygon fill="none" stroke="black" points="143,-57.5 143,-76.5 221,-76.5 221,-57.5 143,-57.5"/>
<text text-anchor="middle" x="182" y="-64.5" font-family="Helvetica,sans-Serif" font-size="10.00">MainWndProc</text>
</a>
</g>
</g>
<!-- Node1&#45;&gt;Node2 -->
<g id="edge1" class="edge"><title>Node1&#45;&gt;Node2</title>
<path fill="none" stroke="midnightblue" d="M117.214,-67C125.912,-67 134.624,-67 142.692,-67"/>
<polygon fill="midnightblue" stroke="midnightblue" points="117.048,-63.5001 107.048,-67 117.048,-70.5001 117.048,-63.5001"/>
</g>
<!-- Node3 -->
<g id="node3" class="node"><title>Node3</title>
<g id="a_node3"><a xlink:href="classengine.html#a958aa4120f21278468225415ffe5ac92" target="_top" xlink:title="engine::_init_main\l_window">
<polygon fill="none" stroke="black" points="257,-52 257,-82 352,-82 352,-52 257,-52"/>
<text text-anchor="start" x="265" y="-70" font-family="Helvetica,sans-Serif" font-size="10.00">engine::_init_main</text>
<text text-anchor="middle" x="304.5" y="-59" font-family="Helvetica,sans-Serif" font-size="10.00">_window</text>
</a>
</g>
</g>
<!-- Node2&#45;&gt;Node3 -->
<g id="edge2" class="edge"><title>Node2&#45;&gt;Node3</title>
<path fill="none" stroke="midnightblue" d="M231.189,-67C239.61,-67 248.358,-67 256.739,-67"/>
<polygon fill="midnightblue" stroke="midnightblue" points="231.127,-63.5001 221.127,-67 231.127,-70.5001 231.127,-63.5001"/>
</g>
<!-- Node4 -->
<g id="node4" class="node"><title>Node4</title>
<g id="a_node4"><a xlink:href="classengine.html#a8b8dd82e72fd73e0601c30041529c4c0" target="_top" xlink:title="engine::_initialize">
<polygon fill="none" stroke="black" points="388,-76.5 388,-95.5 480,-95.5 480,-76.5 388,-76.5"/>
<text text-anchor="middle" x="434" y="-83.5" font-family="Helvetica,sans-Serif" font-size="10.00">engine::_initialize</text>
</a>
</g>
</g>
<!-- Node3&#45;&gt;Node4 -->
<g id="edge3" class="edge"><title>Node3&#45;&gt;Node4</title>
<path fill="none" stroke="midnightblue" d="M362.243,-75.4558C370.853,-76.7389 379.636,-78.0477 387.953,-79.2871"/>
<polygon fill="midnightblue" stroke="midnightblue" points="362.659,-71.9792 352.252,-73.967 361.627,-78.9028 362.659,-71.9792"/>
</g>
<!-- Node6 -->
<g id="node6" class="node"><title>Node6</title>
<g id="a_node6"><a xlink:href="classengine.html#ada832d0a14502f1b99fdbd5c72cab01b" target="_top" xlink:title="engine::Draw">
<polygon fill="none" stroke="black" points="522.5,-38.5 522.5,-57.5 595.5,-57.5 595.5,-38.5 522.5,-38.5"/>
<text text-anchor="middle" x="559" y="-45.5" font-family="Helvetica,sans-Serif" font-size="10.00">engine::Draw</text>
</a>
</g>
</g>
<!-- Node3&#45;&gt;Node6 -->
<g id="edge13" class="edge"><title>Node3&#45;&gt;Node6</title>
<path fill="none" stroke="midnightblue" d="M362.244,-62.7302C411.274,-59.0408 480.624,-53.8224 522.266,-50.6889"/>
<polygon fill="midnightblue" stroke="midnightblue" points="361.816,-59.2524 352.107,-63.493 362.341,-66.2327 361.816,-59.2524"/>
</g>
<!-- Node5 -->
<g id="node5" class="node"><title>Node5</title>
<g id="a_node5"><a xlink:href="classengine.html#a6809dcdfe78011851e377d4729a87ee4" target="_top" xlink:title="engine::initialize">
<polygon fill="none" stroke="black" points="516,-76.5 516,-95.5 602,-95.5 602,-76.5 516,-76.5"/>
<text text-anchor="middle" x="559" y="-83.5" font-family="Helvetica,sans-Serif" font-size="10.00">engine::initialize</text>
</a>
</g>
</g>
<!-- Node4&#45;&gt;Node5 -->
<g id="edge4" class="edge"><title>Node4&#45;&gt;Node5</title>
<path fill="none" stroke="midnightblue" d="M490.378,-86C498.903,-86 507.586,-86 515.765,-86"/>
<polygon fill="midnightblue" stroke="midnightblue" points="490.102,-82.5001 480.102,-86 490.102,-89.5001 490.102,-82.5001"/>
</g>
<!-- Node4&#45;&gt;Node6 -->
<g id="edge5" class="edge"><title>Node4&#45;&gt;Node6</title>
<path fill="none" stroke="midnightblue" d="M476.045,-73.3196C492.664,-68.1852 511.532,-62.3559 526.972,-57.5859"/>
<polygon fill="midnightblue" stroke="midnightblue" points="474.559,-70.1151 466.038,-76.411 476.626,-76.8032 474.559,-70.1151"/>
</g>
<!-- Node7 -->
<g id="node7" class="node"><title>Node7</title>
<g id="a_node7"><a xlink:href="classengine.html#a90418b124cd07d7d2f057e7d401ed641" target="_top" xlink:title="engine::_tick">
<polygon fill="none" stroke="black" points="638,-57.5 638,-76.5 710,-76.5 710,-57.5 638,-57.5"/>
<text text-anchor="middle" x="674" y="-64.5" font-family="Helvetica,sans-Serif" font-size="10.00">engine::_tick</text>
</a>
</g>
</g>
<!-- Node6&#45;&gt;Node7 -->
<g id="edge6" class="edge"><title>Node6&#45;&gt;Node7</title>
<path fill="none" stroke="midnightblue" d="M605.921,-49.0775C620.923,-51.2953 636.957,-54.3417 649.586,-57.4705"/>
<polygon fill="midnightblue" stroke="midnightblue" points="606.137,-45.5744 595.754,-47.6836 605.186,-52.5095 606.137,-45.5744"/>
</g>
<!-- Node7&#45;&gt;Node6 -->
<g id="edge12" class="edge"><title>Node7&#45;&gt;Node6</title>
<path fill="none" stroke="midnightblue" d="M627.371,-65.9655C612.285,-63.7442 596.125,-60.6786 583.414,-57.5295"/>
<polygon fill="midnightblue" stroke="midnightblue" points="627.206,-69.4754 637.588,-67.3592 628.152,-62.5397 627.206,-69.4754"/>
</g>
<!-- Node8 -->
<g id="node8" class="node"><title>Node8</title>
<g id="a_node8"><a xlink:href="classengine.html#a4bca5e9257e46c09a63f71227fc25a12" target="_top" xlink:title="engine::tick">
<polygon fill="none" stroke="black" points="746,-19.5 746,-38.5 813,-38.5 813,-19.5 746,-19.5"/>
<text text-anchor="middle" x="779.5" y="-26.5" font-family="Helvetica,sans-Serif" font-size="10.00">engine::tick</text>
</a>
</g>
</g>
<!-- Node7&#45;&gt;Node8 -->
<g id="edge7" class="edge"><title>Node7&#45;&gt;Node8</title>
<path fill="none" stroke="midnightblue" d="M710.729,-53.882C724.418,-48.8561 739.767,-43.2209 752.391,-38.5859"/>
<polygon fill="midnightblue" stroke="midnightblue" points="709.298,-50.6788 701.117,-57.411 711.711,-57.2499 709.298,-50.6788"/>
</g>
<!-- Node8&#45;&gt;Node6 -->
<g id="edge11" class="edge"><title>Node8&#45;&gt;Node6</title>
<path fill="none" stroke="midnightblue" d="M735.585,-32.7318C694.696,-36.2873 633.86,-41.5774 595.592,-44.905"/>
<polygon fill="midnightblue" stroke="midnightblue" points="736.122,-36.1984 745.781,-31.8451 735.515,-29.2247 736.122,-36.1984"/>
</g>
<!-- Node9 -->
<g id="node9" class="node"><title>Node9</title>
<g id="a_node9"><a xlink:href="classengine.html#a1d9b806d03be0255a8ac3c119e181cc5" target="_top" xlink:title="engine::_run">
<polygon fill="none" stroke="black" points="849,-0.5 849,-19.5 919,-19.5 919,-0.5 849,-0.5"/>
<text text-anchor="middle" x="884" y="-7.5" font-family="Helvetica,sans-Serif" font-size="10.00">engine::_run</text>
</a>
</g>
</g>
<!-- Node8&#45;&gt;Node9 -->
<g id="edge8" class="edge"><title>Node8&#45;&gt;Node9</title>
<path fill="none" stroke="midnightblue" d="M823.077,-21.1076C831.662,-19.5164 840.581,-17.8631 848.832,-16.3335"/>
<polygon fill="midnightblue" stroke="midnightblue" points="822.408,-17.672 813.213,-22.936 823.684,-24.5547 822.408,-17.672"/>
</g>
<!-- Node9&#45;&gt;Node6 -->
<g id="edge10" class="edge"><title>Node9&#45;&gt;Node6</title>
<path fill="none" stroke="midnightblue" d="M838.596,-7.74994C811.727,-6.94709 776.815,-6.89333 746,-10 697.261,-14.9137 685.993,-22.1894 638,-32 624.186,-34.8239 608.997,-37.9375 595.722,-40.6617"/>
<polygon fill="midnightblue" stroke="midnightblue" points="838.728,-11.2565 848.842,-8.10361 838.969,-4.26063 838.728,-11.2565"/>
</g>
<!-- Node10 -->
<g id="node10" class="node"><title>Node10</title>
<g id="a_node10"><a xlink:href="classengine.html#aecb22d51cc8f83cacbf3696a18d66c30" target="_top" xlink:title="engine::run">
<polygon fill="none" stroke="black" points="955,-0.5 955,-19.5 1020,-19.5 1020,-0.5 955,-0.5"/>
<text text-anchor="middle" x="987.5" y="-7.5" font-family="Helvetica,sans-Serif" font-size="10.00">engine::run</text>
</a>
</g>
</g>
<!-- Node9&#45;&gt;Node10 -->
<g id="edge9" class="edge"><title>Node9&#45;&gt;Node10</title>
<path fill="none" stroke="midnightblue" d="M929.325,-10C937.879,-10 946.681,-10 954.737,-10"/>
<polygon fill="midnightblue" stroke="midnightblue" points="929.08,-6.5001 919.08,-10 929.08,-13.5001 929.08,-6.5001"/>
</g>
</g>
</svg>
        <g id="navigator" transform="translate(0 0)" fill="#404254">
                <rect fill="#f2f5e9" fill-opacity="0.5" stroke="#606060" stroke-width=".5" x="0" y="0" width="60" height="60"/>
                <use id="zoomplus" xlink:href="#zoomPlus" x="17" y="9" onmousedown="handleZoom(evt,'in')"/>
                <use id="zoomminus" xlink:href="#zoomMin" x="42" y="9" onmousedown="handleZoom(evt,'out')"/>
                <use id="reset" xlink:href="#resetDef" x="30" y="36" onmousedown="handleReset()"/>
                <g id="arrowUp" xlink:href="#dirArrow" transform="translate(30 24)" onmousedown="handlePan(0,-1)">
                  <use xlink:href="#rim" fill="#404040">
                        <set attributeName="fill" to="#808080" begin="arrowUp.mouseover" end="arrowUp.mouseout"/>
                  </use>
                  <path fill="none" stroke="white" stroke-width="1.5" d="M0,-3.0v7 M-2.5,-0.5L0,-3.0L2.5,-0.5"/>
                </g>
                <g id="arrowRight" xlink:href="#dirArrow" transform="rotate(90) translate(36 -43)" onmousedown="handlePan(1,0)">
                  <use xlink:href="#rim" fill="#404040">
                        <set attributeName="fill" to="#808080" begin="arrowRight.mouseover" end="arrowRight.mouseout"/>
                  </use>
                  <path fill="none" stroke="white" stroke-width="1.5" d="M0,-3.0v7 M-2.5,-0.5L0,-3.0L2.5,-0.5"/>
                </g>
                <g id="arrowDown" xlink:href="#dirArrow" transform="rotate(180) translate(-30 -48)" onmousedown="handlePan(0,1)">
                  <use xlink:href="#rim" fill="#404040">
                        <set attributeName="fill" to="#808080" begin="arrowDown.mouseover" end="arrowDown.mouseout"/>
                  </use>
                  <path fill="none" stroke="white" stroke-width="1.5" d="M0,-3.0v7 M-2.5,-0.5L0,-3.0L2.5,-0.5"/>
                </g>
                <g id="arrowLeft" xlink:href="#dirArrow" transform="rotate(270) translate(-36 17)" onmousedown="handlePan(-1,0)">
                  <use xlink:href="#rim" fill="#404040">
                        <set attributeName="fill" to="#808080" begin="arrowLeft.mouseover" end="arrowLeft.mouseout"/>
                  </use>
                  <path fill="none" stroke="white" stroke-width="1.5" d="M0,-3.0v7 M-2.5,-0.5L0,-3.0L2.5,-0.5"/>
                </g>
        </g>
        <svg viewBox="0 0 15 15" width="100%" height="30px" preserveAspectRatio="xMaxYMin meet">
         <g id="arrow_out" transform="scale(0.3 0.3)">
          <a xlink:href="classengine_a1c22e1de5498965992bc25cfba715c99_icgraph_org.svg" target="_base">
           <rect id="button" ry="5" rx="5" y="6" x="6" height="38" width="38"
                fill="#f2f5e9" fill-opacity="0.5" stroke="#606060" stroke-width="1.0"/>
           <path id="arrow"
             d="M 11.500037,31.436501 C 11.940474,20.09759 22.043105,11.32322 32.158766,21.979434 L 37.068811,17.246167 C 37.068811,17.246167 37.088388,32 37.088388,32 L 22.160133,31.978069 C 22.160133,31.978069 26.997745,27.140456 26.997745,27.140456 C 18.528582,18.264221 13.291696,25.230495 11.500037,31.436501 z"
             style="fill:#404040;"/>
          </a>
         </g>
        </svg>
</svg>
