<?xml version="1.0" encoding="UTF-8" standalone="no"?>
<!DOCTYPE svg PUBLIC "-//W3C//DTD SVG 1.1//EN"
 "http://www.w3.org/Graphics/SVG/1.1/DTD/svg11.dtd">
<!-- Generated by graphviz version 2.38.0 (20140413.2041)
 -->
<!-- Title: GameTimer::start_render_timer Pages: 1 -->
<svg width="559pt" height="119pt"
 viewBox="0.00 0.00 559.00 118.50" xmlns="http://www.w3.org/2000/svg" xmlns:xlink="http://www.w3.org/1999/xlink">
<g id="graph0" class="graph" transform="scale(1 1) rotate(0) translate(4 114.5)">
<title>GameTimer::start_render_timer</title>
<!-- Node1 -->
<g id="node1" class="node"><title>Node1</title>
<polygon fill="#bfbfbf" stroke="black" points="0,-0.5 0,-30.5 125,-30.5 125,-0.5 0,-0.5"/>
<text text-anchor="start" x="8" y="-18.5" font-family="Helvetica,sans-Serif" font-size="10.00">GameTimer::start_render</text>
<text text-anchor="middle" x="62.5" y="-7.5" font-family="Helvetica,sans-Serif" font-size="10.00">_timer</text>
</g>
<!-- Node2 -->
<g id="node2" class="node"><title>Node2</title>
<g id="a_node2"><a xlink:href="classengine.html#a90418b124cd07d7d2f057e7d401ed641" target="_top" xlink:title="engine::_tick">
<polygon fill="none" stroke="black" points="161,-6 161,-25 233,-25 233,-6 161,-6"/>
<text text-anchor="middle" x="197" y="-13" font-family="Helvetica,sans-Serif" font-size="10.00">engine::_tick</text>
</a>
</g>
</g>
<!-- Node1&#45;&gt;Node2 -->
<g id="edge1" class="edge"><title>Node1&#45;&gt;Node2</title>
<path fill="none" stroke="midnightblue" d="M135.198,-15.5C144.127,-15.5 152.924,-15.5 160.933,-15.5"/>
<polygon fill="midnightblue" stroke="midnightblue" points="135.095,-12.0001 125.095,-15.5 135.095,-19.0001 135.095,-12.0001"/>
</g>
<!-- Node3 -->
<g id="node3" class="node"><title>Node3</title>
<g id="a_node3"><a xlink:href="classengine.html#a4bca5e9257e46c09a63f71227fc25a12" target="_top" xlink:title="engine::tick">
<polygon fill="none" stroke="black" points="269,-53 269,-72 336,-72 336,-53 269,-53"/>
<text text-anchor="middle" x="302.5" y="-60" font-family="Helvetica,sans-Serif" font-size="10.00">engine::tick</text>
</a>
</g>
</g>
<!-- Node2&#45;&gt;Node3 -->
<g id="edge2" class="edge"><title>Node2&#45;&gt;Node3</title>
<path fill="none" stroke="midnightblue" d="M228.277,-29.2491C244.952,-36.8212 265.242,-46.035 280.231,-52.8417"/>
<polygon fill="midnightblue" stroke="midnightblue" points="229.497,-25.9591 218.945,-25.0112 226.603,-32.3327 229.497,-25.9591"/>
</g>
<!-- Node6 -->
<g id="node6" class="node"><title>Node6</title>
<g id="a_node6"><a xlink:href="classengine.html#ada832d0a14502f1b99fdbd5c72cab01b" target="_top" xlink:title="engine::Draw">
<polygon fill="none" stroke="black" points="478,-29 478,-48 551,-48 551,-29 478,-29"/>
<text text-anchor="middle" x="514.5" y="-36" font-family="Helvetica,sans-Serif" font-size="10.00">engine::Draw</text>
</a>
</g>
</g>
<!-- Node2&#45;&gt;Node6 -->
<g id="edge8" class="edge"><title>Node2&#45;&gt;Node6</title>
<path fill="none" stroke="midnightblue" d="M243.368,-13.9C306.723,-15.9209 420.381,-24.3554 477.971,-31.449"/>
<polygon fill="midnightblue" stroke="midnightblue" points="243.366,-10.3987 233.273,-13.6234 243.174,-17.3961 243.366,-10.3987"/>
</g>
<!-- Node4 -->
<g id="node4" class="node"><title>Node4</title>
<g id="a_node4"><a xlink:href="classengine.html#a1d9b806d03be0255a8ac3c119e181cc5" target="_top" xlink:title="engine::_run">
<polygon fill="none" stroke="black" points="372,-91 372,-110 442,-110 442,-91 372,-91"/>
<text text-anchor="middle" x="407" y="-98" font-family="Helvetica,sans-Serif" font-size="10.00">engine::_run</text>
</a>
</g>
</g>
<!-- Node3&#45;&gt;Node4 -->
<g id="edge3" class="edge"><title>Node3&#45;&gt;Node4</title>
<path fill="none" stroke="midnightblue" d="M338.884,-75.618C352.441,-80.6439 367.641,-86.2791 380.143,-90.9141"/>
<polygon fill="midnightblue" stroke="midnightblue" points="339.958,-72.2835 329.365,-72.089 337.525,-78.8469 339.958,-72.2835"/>
</g>
<!-- Node3&#45;&gt;Node6 -->
<g id="edge7" class="edge"><title>Node3&#45;&gt;Node6</title>
<path fill="none" stroke="midnightblue" d="M346.739,-57.5584C385.447,-53.1346 441.53,-46.7252 477.757,-42.5849"/>
<polygon fill="midnightblue" stroke="midnightblue" points="345.85,-54.1371 336.313,-58.75 346.645,-61.0918 345.85,-54.1371"/>
</g>
<!-- Node5 -->
<g id="node5" class="node"><title>Node5</title>
<g id="a_node5"><a xlink:href="classengine.html#aecb22d51cc8f83cacbf3696a18d66c30" target="_top" xlink:title="engine::run">
<polygon fill="none" stroke="black" points="482,-91 482,-110 547,-110 547,-91 482,-91"/>
<text text-anchor="middle" x="514.5" y="-98" font-family="Helvetica,sans-Serif" font-size="10.00">engine::run</text>
</a>
</g>
</g>
<!-- Node4&#45;&gt;Node5 -->
<g id="edge4" class="edge"><title>Node4&#45;&gt;Node5</title>
<path fill="none" stroke="midnightblue" d="M452.387,-100.5C462.311,-100.5 472.639,-100.5 481.92,-100.5"/>
<polygon fill="midnightblue" stroke="midnightblue" points="452.253,-97.0001 442.253,-100.5 452.253,-104 452.253,-97.0001"/>
</g>
<!-- Node4&#45;&gt;Node6 -->
<g id="edge5" class="edge"><title>Node4&#45;&gt;Node6</title>
<path fill="none" stroke="midnightblue" d="M433.288,-85.6387C453.095,-73.9984 480.066,-58.1485 497.131,-48.1195"/>
<polygon fill="midnightblue" stroke="midnightblue" points="431.332,-82.7283 424.484,-90.8125 434.879,-88.7633 431.332,-82.7283"/>
</g>
<!-- Node6&#45;&gt;Node2 -->
<g id="edge6" class="edge"><title>Node6&#45;&gt;Node2</title>
<path fill="none" stroke="midnightblue" d="M467.85,-40.091C404.347,-38.0511 290.698,-29.6091 233.273,-22.5194"/>
<polygon fill="midnightblue" stroke="midnightblue" points="467.878,-43.593 477.971,-40.3708 468.072,-36.5957 467.878,-43.593"/>
</g>
</g>
</svg>
