<?xml version="1.0" encoding="UTF-8" standalone="no"?>
<!DOCTYPE svg PUBLIC "-//W3C//DTD SVG 1.1//EN"
 "http://www.w3.org/Graphics/SVG/1.1/DTD/svg11.dtd">
<!-- Generated by graphviz version 2.38.0 (20140413.2041)
 -->
<!-- Title: Camera::SetLens Pages: 1 -->
<!--zoomable 135 -->
<svg id="main" version="1.1" xmlns="http://www.w3.org/2000/svg" xmlns:xlink="http://www.w3.org/1999/xlink" xml:space="preserve" onload="init(evt)">
<style type="text/css"><![CDATA[
.edge:hover path { stroke: red; }
.edge:hover polygon { stroke: red; fill: red; }
]]></style>
<script type="text/javascript"><![CDATA[
var edges = document.getElementsByTagName('g');
if (edges && edges.length) {
  for (var i=0;i<edges.length;i++) {
    if (edges[i].id.substr(0,4)=='edge') {
      edges[i].setAttribute('class','edge');
    }
  }
}
]]></script>
        <defs>
                <circle id="rim" cx="0" cy="0" r="7"/>
                <circle id="rim2" cx="0" cy="0" r="3.5"/>
                <g id="zoomPlus">
                        <use xlink:href="#rim" fill="#404040">
                                <set attributeName="fill" to="#808080" begin="zoomplus.mouseover" end="zoomplus.mouseout"/>
                        </use>
                        <path d="M-4,0h8M0,-4v8" fill="none" stroke="white" stroke-width="1.5" pointer-events="none"/>
                </g>
                <g id="zoomMin">
                        <use xlink:href="#rim" fill="#404040">
                                <set attributeName="fill" to="#808080" begin="zoomminus.mouseover" end="zoomminus.mouseout"/>
                        </use>
                        <path d="M-4,0h8" fill="none" stroke="white" stroke-width="1.5" pointer-events="none"/>
                </g>
                <g id="dirArrow">
                        <path fill="none" stroke="white" stroke-width="1.5" d="M0,-3.0v7 M-2.5,-0.5L0,-3.0L2.5,-0.5"/>
                </g>
               <g id="resetDef">
                       <use xlink:href="#rim2" fill="#404040">
                               <set attributeName="fill" to="#808080" begin="reset.mouseover" end="reset.mouseout"/>
                       </use>
               </g>
        </defs>

<script type="text/javascript">
var viewWidth = 1214;
var viewHeight = 135;
var sectionId = 'dynsection-5';
</script>
<script xlink:href="svgpan.js"/>
<svg id="graph" class="graph">
<g id="viewport">
<title>Camera::SetLens</title>
<!-- Node1 -->
<g id="node1" class="node"><title>Node1</title>
<polygon fill="#bfbfbf" stroke="black" points="0,-79.5 0,-98.5 92,-98.5 92,-79.5 0,-79.5"/>
<text text-anchor="middle" x="46" y="-86.5" font-family="Helvetica,sans-Serif" font-size="10.00">Camera::SetLens</text>
</g>
<!-- Node2 -->
<g id="node2" class="node"><title>Node2</title>
<g id="a_node2"><a xlink:href="class_direct_x_renderer.html#ae823daf9d77db0f506320f7171cb117d" target="_top" xlink:title="DirectXRenderer::resize">
<polygon fill="none" stroke="black" points="128,-79.5 128,-98.5 247,-98.5 247,-79.5 128,-79.5"/>
<text text-anchor="middle" x="187.5" y="-86.5" font-family="Helvetica,sans-Serif" font-size="10.00">DirectXRenderer::resize</text>
</a>
</g>
</g>
<!-- Node1&#45;&gt;Node2 -->
<g id="edge1" class="edge"><title>Node1&#45;&gt;Node2</title>
<path fill="none" stroke="midnightblue" d="M102.372,-89C110.783,-89 119.485,-89 127.961,-89"/>
<polygon fill="midnightblue" stroke="midnightblue" points="102.292,-85.5001 92.2917,-89 102.292,-92.5001 102.292,-85.5001"/>
</g>
<!-- Node3 -->
<g id="node3" class="node"><title>Node3</title>
<g id="a_node3"><a xlink:href="class_direct_x_renderer.html#a252d9ba8d713ba462c54a3dadfda2f59" target="_top" xlink:title="DirectXRenderer::Set4xMsaa\lState">
<polygon fill="none" stroke="black" points="283,-96 283,-126 425,-126 425,-96 283,-96"/>
<text text-anchor="start" x="291" y="-114" font-family="Helvetica,sans-Serif" font-size="10.00">DirectXRenderer::Set4xMsaa</text>
<text text-anchor="middle" x="354" y="-103" font-family="Helvetica,sans-Serif" font-size="10.00">State</text>
</a>
</g>
</g>
<!-- Node2&#45;&gt;Node3 -->
<g id="edge2" class="edge"><title>Node2&#45;&gt;Node3</title>
<path fill="none" stroke="midnightblue" d="M257.559,-98.2359C265.966,-99.3602 274.561,-100.51 282.981,-101.636"/>
<polygon fill="midnightblue" stroke="midnightblue" points="257.799,-94.7369 247.424,-96.8804 256.871,-101.675 257.799,-94.7369"/>
</g>
<!-- Node4 -->
<g id="node4" class="node"><title>Node4</title>
<g id="a_node4"><a xlink:href="classengine.html#a097517979864142f35d1969b5cf3d437" target="_top" xlink:title="engine::_resize">
<polygon fill="none" stroke="black" points="312.5,-57.5 312.5,-76.5 395.5,-76.5 395.5,-57.5 312.5,-57.5"/>
<text text-anchor="middle" x="354" y="-64.5" font-family="Helvetica,sans-Serif" font-size="10.00">engine::_resize</text>
</a>
</g>
</g>
<!-- Node2&#45;&gt;Node4 -->
<g id="edge3" class="edge"><title>Node2&#45;&gt;Node4</title>
<path fill="none" stroke="midnightblue" d="M257.379,-79.7882C276.055,-77.2905 295.677,-74.6663 312.252,-72.4496"/>
<polygon fill="midnightblue" stroke="midnightblue" points="256.871,-76.3249 247.424,-81.1196 257.799,-83.2631 256.871,-76.3249"/>
</g>
<!-- Node5 -->
<g id="node5" class="node"><title>Node5</title>
<g id="a_node5"><a xlink:href="classengine.html#a2a83502d17f32c78093028f6009df8ba" target="_top" xlink:title="engine::resize">
<polygon fill="none" stroke="black" points="461,-57.5 461,-76.5 538,-76.5 538,-57.5 461,-57.5"/>
<text text-anchor="middle" x="499.5" y="-64.5" font-family="Helvetica,sans-Serif" font-size="10.00">engine::resize</text>
</a>
</g>
</g>
<!-- Node4&#45;&gt;Node5 -->
<g id="edge4" class="edge"><title>Node4&#45;&gt;Node5</title>
<path fill="none" stroke="midnightblue" d="M405.814,-67C423.859,-67 443.839,-67 460.615,-67"/>
<polygon fill="midnightblue" stroke="midnightblue" points="405.738,-63.5001 395.737,-67 405.737,-70.5001 405.738,-63.5001"/>
</g>
<!-- Node6 -->
<g id="node6" class="node"><title>Node6</title>
<g id="a_node6"><a xlink:href="classengine.html#a8b8dd82e72fd73e0601c30041529c4c0" target="_top" xlink:title="engine::_initialize">
<polygon fill="none" stroke="black" points="574,-57.5 574,-76.5 666,-76.5 666,-57.5 574,-57.5"/>
<text text-anchor="middle" x="620" y="-64.5" font-family="Helvetica,sans-Serif" font-size="10.00">engine::_initialize</text>
</a>
</g>
</g>
<!-- Node5&#45;&gt;Node6 -->
<g id="edge5" class="edge"><title>Node5&#45;&gt;Node6</title>
<path fill="none" stroke="midnightblue" d="M548.322,-67C556.688,-67 565.371,-67 573.668,-67"/>
<polygon fill="midnightblue" stroke="midnightblue" points="548.32,-63.5001 538.32,-67 548.32,-70.5001 548.32,-63.5001"/>
</g>
<!-- Node7 -->
<g id="node7" class="node"><title>Node7</title>
<g id="a_node7"><a xlink:href="classengine.html#a6809dcdfe78011851e377d4729a87ee4" target="_top" xlink:title="engine::initialize">
<polygon fill="none" stroke="black" points="702,-76.5 702,-95.5 788,-95.5 788,-76.5 702,-76.5"/>
<text text-anchor="middle" x="745" y="-83.5" font-family="Helvetica,sans-Serif" font-size="10.00">engine::initialize</text>
</a>
</g>
</g>
<!-- Node6&#45;&gt;Node7 -->
<g id="edge6" class="edge"><title>Node6&#45;&gt;Node7</title>
<path fill="none" stroke="midnightblue" d="M676.097,-75.5109C684.712,-76.8417 693.497,-78.1987 701.765,-79.4758"/>
<polygon fill="midnightblue" stroke="midnightblue" points="676.519,-72.0347 666.102,-73.967 675.451,-78.9527 676.519,-72.0347"/>
</g>
<!-- Node8 -->
<g id="node8" class="node"><title>Node8</title>
<g id="a_node8"><a xlink:href="classengine.html#ada832d0a14502f1b99fdbd5c72cab01b" target="_top" xlink:title="engine::Draw">
<polygon fill="none" stroke="black" points="708.5,-38.5 708.5,-57.5 781.5,-57.5 781.5,-38.5 708.5,-38.5"/>
<text text-anchor="middle" x="745" y="-45.5" font-family="Helvetica,sans-Serif" font-size="10.00">engine::Draw</text>
</a>
</g>
</g>
<!-- Node6&#45;&gt;Node8 -->
<g id="edge7" class="edge"><title>Node6&#45;&gt;Node8</title>
<path fill="none" stroke="midnightblue" d="M675.998,-58.5044C686.9,-56.8203 698.079,-55.0935 708.142,-53.5391"/>
<polygon fill="midnightblue" stroke="midnightblue" points="675.451,-55.0473 666.102,-60.033 676.519,-61.9653 675.451,-55.0473"/>
</g>
<!-- Node9 -->
<g id="node9" class="node"><title>Node9</title>
<g id="a_node9"><a xlink:href="classengine.html#a90418b124cd07d7d2f057e7d401ed641" target="_top" xlink:title="engine::_tick">
<polygon fill="none" stroke="black" points="824,-57.5 824,-76.5 896,-76.5 896,-57.5 824,-57.5"/>
<text text-anchor="middle" x="860" y="-64.5" font-family="Helvetica,sans-Serif" font-size="10.00">engine::_tick</text>
</a>
</g>
</g>
<!-- Node8&#45;&gt;Node9 -->
<g id="edge8" class="edge"><title>Node8&#45;&gt;Node9</title>
<path fill="none" stroke="midnightblue" d="M791.921,-49.0775C806.923,-51.2953 822.957,-54.3417 835.586,-57.4705"/>
<polygon fill="midnightblue" stroke="midnightblue" points="792.137,-45.5744 781.754,-47.6836 791.186,-52.5095 792.137,-45.5744"/>
</g>
<!-- Node9&#45;&gt;Node8 -->
<g id="edge14" class="edge"><title>Node9&#45;&gt;Node8</title>
<path fill="none" stroke="midnightblue" d="M813.371,-65.9655C798.285,-63.7442 782.125,-60.6786 769.414,-57.5295"/>
<polygon fill="midnightblue" stroke="midnightblue" points="813.206,-69.4754 823.588,-67.3592 814.152,-62.5397 813.206,-69.4754"/>
</g>
<!-- Node10 -->
<g id="node10" class="node"><title>Node10</title>
<g id="a_node10"><a xlink:href="classengine.html#a4bca5e9257e46c09a63f71227fc25a12" target="_top" xlink:title="engine::tick">
<polygon fill="none" stroke="black" points="932,-19.5 932,-38.5 999,-38.5 999,-19.5 932,-19.5"/>
<text text-anchor="middle" x="965.5" y="-26.5" font-family="Helvetica,sans-Serif" font-size="10.00">engine::tick</text>
</a>
</g>
</g>
<!-- Node9&#45;&gt;Node10 -->
<g id="edge9" class="edge"><title>Node9&#45;&gt;Node10</title>
<path fill="none" stroke="midnightblue" d="M896.729,-53.882C910.418,-48.8561 925.767,-43.2209 938.391,-38.5859"/>
<polygon fill="midnightblue" stroke="midnightblue" points="895.298,-50.6788 887.117,-57.411 897.711,-57.2499 895.298,-50.6788"/>
</g>
<!-- Node10&#45;&gt;Node8 -->
<g id="edge13" class="edge"><title>Node10&#45;&gt;Node8</title>
<path fill="none" stroke="midnightblue" d="M921.585,-32.7318C880.696,-36.2873 819.86,-41.5774 781.592,-44.905"/>
<polygon fill="midnightblue" stroke="midnightblue" points="922.122,-36.1984 931.781,-31.8451 921.515,-29.2247 922.122,-36.1984"/>
</g>
<!-- Node11 -->
<g id="node11" class="node"><title>Node11</title>
<g id="a_node11"><a xlink:href="classengine.html#a1d9b806d03be0255a8ac3c119e181cc5" target="_top" xlink:title="engine::_run">
<polygon fill="none" stroke="black" points="1035,-0.5 1035,-19.5 1105,-19.5 1105,-0.5 1035,-0.5"/>
<text text-anchor="middle" x="1070" y="-7.5" font-family="Helvetica,sans-Serif" font-size="10.00">engine::_run</text>
</a>
</g>
</g>
<!-- Node10&#45;&gt;Node11 -->
<g id="edge10" class="edge"><title>Node10&#45;&gt;Node11</title>
<path fill="none" stroke="midnightblue" d="M1009.08,-21.1076C1017.66,-19.5164 1026.58,-17.8631 1034.83,-16.3335"/>
<polygon fill="midnightblue" stroke="midnightblue" points="1008.41,-17.672 999.213,-22.936 1009.68,-24.5547 1008.41,-17.672"/>
</g>
<!-- Node11&#45;&gt;Node8 -->
<g id="edge12" class="edge"><title>Node11&#45;&gt;Node8</title>
<path fill="none" stroke="midnightblue" d="M1024.61,-7.84934C997.741,-7.08197 962.829,-7.03059 932,-10 883.326,-14.6883 871.892,-21.1262 824,-31 810.154,-33.8545 794.959,-37.1331 781.688,-40.0447"/>
<polygon fill="midnightblue" stroke="midnightblue" points="1024.74,-11.3556 1034.85,-8.1874 1024.97,-4.35941 1024.74,-11.3556"/>
</g>
<!-- Node12 -->
<g id="node12" class="node"><title>Node12</title>
<g id="a_node12"><a xlink:href="classengine.html#aecb22d51cc8f83cacbf3696a18d66c30" target="_top" xlink:title="engine::run">
<polygon fill="none" stroke="black" points="1141,-0.5 1141,-19.5 1206,-19.5 1206,-0.5 1141,-0.5"/>
<text text-anchor="middle" x="1173.5" y="-7.5" font-family="Helvetica,sans-Serif" font-size="10.00">engine::run</text>
</a>
</g>
</g>
<!-- Node11&#45;&gt;Node12 -->
<g id="edge11" class="edge"><title>Node11&#45;&gt;Node12</title>
<path fill="none" stroke="midnightblue" d="M1115.33,-10C1123.88,-10 1132.68,-10 1140.74,-10"/>
<polygon fill="midnightblue" stroke="midnightblue" points="1115.08,-6.5001 1105.08,-10 1115.08,-13.5001 1115.08,-6.5001"/>
</g>
</g>
</svg>
        <g id="navigator" transform="translate(0 0)" fill="#404254">
                <rect fill="#f2f5e9" fill-opacity="0.5" stroke="#606060" stroke-width=".5" x="0" y="0" width="60" height="60"/>
                <use id="zoomplus" xlink:href="#zoomPlus" x="17" y="9" onmousedown="handleZoom(evt,'in')"/>
                <use id="zoomminus" xlink:href="#zoomMin" x="42" y="9" onmousedown="handleZoom(evt,'out')"/>
                <use id="reset" xlink:href="#resetDef" x="30" y="36" onmousedown="handleReset()"/>
                <g id="arrowUp" xlink:href="#dirArrow" transform="translate(30 24)" onmousedown="handlePan(0,-1)">
                  <use xlink:href="#rim" fill="#404040">
                        <set attributeName="fill" to="#808080" begin="arrowUp.mouseover" end="arrowUp.mouseout"/>
                  </use>
                  <path fill="none" stroke="white" stroke-width="1.5" d="M0,-3.0v7 M-2.5,-0.5L0,-3.0L2.5,-0.5"/>
                </g>
                <g id="arrowRight" xlink:href="#dirArrow" transform="rotate(90) translate(36 -43)" onmousedown="handlePan(1,0)">
                  <use xlink:href="#rim" fill="#404040">
                        <set attributeName="fill" to="#808080" begin="arrowRight.mouseover" end="arrowRight.mouseout"/>
                  </use>
                  <path fill="none" stroke="white" stroke-width="1.5" d="M0,-3.0v7 M-2.5,-0.5L0,-3.0L2.5,-0.5"/>
                </g>
                <g id="arrowDown" xlink:href="#dirArrow" transform="rotate(180) translate(-30 -48)" onmousedown="handlePan(0,1)">
                  <use xlink:href="#rim" fill="#404040">
                        <set attributeName="fill" to="#808080" begin="arrowDown.mouseover" end="arrowDown.mouseout"/>
                  </use>
                  <path fill="none" stroke="white" stroke-width="1.5" d="M0,-3.0v7 M-2.5,-0.5L0,-3.0L2.5,-0.5"/>
                </g>
                <g id="arrowLeft" xlink:href="#dirArrow" transform="rotate(270) translate(-36 17)" onmousedown="handlePan(-1,0)">
                  <use xlink:href="#rim" fill="#404040">
                        <set attributeName="fill" to="#808080" begin="arrowLeft.mouseover" end="arrowLeft.mouseout"/>
                  </use>
                  <path fill="none" stroke="white" stroke-width="1.5" d="M0,-3.0v7 M-2.5,-0.5L0,-3.0L2.5,-0.5"/>
                </g>
        </g>
        <svg viewBox="0 0 15 15" width="100%" height="30px" preserveAspectRatio="xMaxYMin meet">
         <g id="arrow_out" transform="scale(0.3 0.3)">
          <a xlink:href="class_camera_a5619188052108689a7a3171597fca7b6_icgraph_org.svg" target="_base">
           <rect id="button" ry="5" rx="5" y="6" x="6" height="38" width="38"
                fill="#f2f5e9" fill-opacity="0.5" stroke="#606060" stroke-width="1.0"/>
           <path id="arrow"
             d="M 11.500037,31.436501 C 11.940474,20.09759 22.043105,11.32322 32.158766,21.979434 L 37.068811,17.246167 C 37.068811,17.246167 37.088388,32 37.088388,32 L 22.160133,31.978069 C 22.160133,31.978069 26.997745,27.140456 26.997745,27.140456 C 18.528582,18.264221 13.291696,25.230495 11.500037,31.436501 z"
             style="fill:#404040;"/>
          </a>
         </g>
        </svg>
</svg>
