<?xml version="1.0" encoding="UTF-8" standalone="no"?>
<!DOCTYPE svg PUBLIC "-//W3C//DTD SVG 1.1//EN"
 "http://www.w3.org/Graphics/SVG/1.1/DTD/svg11.dtd">
<!-- Generated by graphviz version 2.38.0 (20140413.2041)
 -->
<!-- Title: engine::_run Pages: 1 -->
<svg width="398pt" height="85pt"
 viewBox="0.00 0.00 398.00 85.00" xmlns="http://www.w3.org/2000/svg" xmlns:xlink="http://www.w3.org/1999/xlink">
<g id="graph0" class="graph" transform="scale(1 1) rotate(0) translate(4 81)">
<title>engine::_run</title>
<!-- Node1 -->
<g id="node1" class="node"><title>Node1</title>
<polygon fill="#bfbfbf" stroke="black" points="0,-19.5 0,-38.5 70,-38.5 70,-19.5 0,-19.5"/>
<text text-anchor="middle" x="35" y="-26.5" font-family="Helvetica,sans-Serif" font-size="10.00">engine::_run</text>
</g>
<!-- Node2 -->
<g id="node2" class="node"><title>Node2</title>
<g id="a_node2"><a xlink:href="classengine.html#aecb22d51cc8f83cacbf3696a18d66c30" target="_top" xlink:title="engine::run">
<polygon fill="none" stroke="black" points="110,-57.5 110,-76.5 175,-76.5 175,-57.5 110,-57.5"/>
<text text-anchor="middle" x="142.5" y="-64.5" font-family="Helvetica,sans-Serif" font-size="10.00">engine::run</text>
</a>
</g>
</g>
<!-- Node1&#45;&gt;Node2 -->
<g id="edge1" class="edge"><title>Node1&#45;&gt;Node2</title>
<path fill="none" stroke="midnightblue" d="M72.4197,-42.118C86.3733,-47.1439 102.018,-52.7791 114.886,-57.4141"/>
<polygon fill="midnightblue" stroke="midnightblue" points="73.2165,-38.6849 62.6221,-38.589 70.8443,-45.2708 73.2165,-38.6849"/>
</g>
<!-- Node3 -->
<g id="node3" class="node"><title>Node3</title>
<g id="a_node3"><a xlink:href="classengine.html#ada832d0a14502f1b99fdbd5c72cab01b" target="_top" xlink:title="engine::Draw">
<polygon fill="none" stroke="black" points="106,-19.5 106,-38.5 179,-38.5 179,-19.5 106,-19.5"/>
<text text-anchor="middle" x="142.5" y="-26.5" font-family="Helvetica,sans-Serif" font-size="10.00">engine::Draw</text>
</a>
</g>
</g>
<!-- Node1&#45;&gt;Node3 -->
<g id="edge2" class="edge"><title>Node1&#45;&gt;Node3</title>
<path fill="none" stroke="midnightblue" d="M80.4371,-29C88.9577,-29 97.7751,-29 105.97,-29"/>
<polygon fill="midnightblue" stroke="midnightblue" points="80.2529,-25.5001 70.2528,-29 80.2528,-32.5001 80.2529,-25.5001"/>
</g>
<!-- Node4 -->
<g id="node4" class="node"><title>Node4</title>
<g id="a_node4"><a xlink:href="classengine.html#a90418b124cd07d7d2f057e7d401ed641" target="_top" xlink:title="engine::_tick">
<polygon fill="none" stroke="black" points="215,-38.5 215,-57.5 287,-57.5 287,-38.5 215,-38.5"/>
<text text-anchor="middle" x="251" y="-45.5" font-family="Helvetica,sans-Serif" font-size="10.00">engine::_tick</text>
</a>
</g>
</g>
<!-- Node3&#45;&gt;Node4 -->
<g id="edge3" class="edge"><title>Node3&#45;&gt;Node4</title>
<path fill="none" stroke="midnightblue" d="M189.293,-30.4789C202.652,-32.6489 216.65,-35.5093 227.833,-38.4442"/>
<polygon fill="midnightblue" stroke="midnightblue" points="189.67,-26.9961 179.259,-28.9642 188.625,-33.9177 189.67,-26.9961"/>
</g>
<!-- Node4&#45;&gt;Node3 -->
<g id="edge7" class="edge"><title>Node4&#45;&gt;Node3</title>
<path fill="none" stroke="midnightblue" d="M204.785,-46.6147C191.213,-44.4273 176.928,-41.516 165.567,-38.5295"/>
<polygon fill="midnightblue" stroke="midnightblue" points="204.557,-50.1194 214.964,-48.1355 205.591,-43.1962 204.557,-50.1194"/>
</g>
<!-- Node5 -->
<g id="node5" class="node"><title>Node5</title>
<g id="a_node5"><a xlink:href="classengine.html#a4bca5e9257e46c09a63f71227fc25a12" target="_top" xlink:title="engine::tick">
<polygon fill="none" stroke="black" points="323,-0.5 323,-19.5 390,-19.5 390,-0.5 323,-0.5"/>
<text text-anchor="middle" x="356.5" y="-7.5" font-family="Helvetica,sans-Serif" font-size="10.00">engine::tick</text>
</a>
</g>
</g>
<!-- Node4&#45;&gt;Node5 -->
<g id="edge4" class="edge"><title>Node4&#45;&gt;Node5</title>
<path fill="none" stroke="midnightblue" d="M287.729,-34.882C301.418,-29.8561 316.767,-24.2209 329.391,-19.5859"/>
<polygon fill="midnightblue" stroke="midnightblue" points="286.298,-31.6788 278.117,-38.411 288.711,-38.2499 286.298,-31.6788"/>
</g>
<!-- Node5&#45;&gt;Node1 -->
<g id="edge5" class="edge"><title>Node5&#45;&gt;Node1</title>
<path fill="none" stroke="midnightblue" d="M312.519,-6.56738C262.618,-3.37441 177.952,-0.408542 106,-10 92.0201,-11.8636 76.8741,-15.7332 64.2583,-19.497"/>
<polygon fill="midnightblue" stroke="midnightblue" points="312.41,-10.0679 322.623,-7.24773 312.881,-3.0837 312.41,-10.0679"/>
</g>
<!-- Node5&#45;&gt;Node3 -->
<g id="edge6" class="edge"><title>Node5&#45;&gt;Node3</title>
<path fill="none" stroke="midnightblue" d="M312.815,-13.8255C273.667,-17.334 216.334,-22.4725 179.463,-25.7769"/>
<polygon fill="midnightblue" stroke="midnightblue" points="313.199,-17.3052 322.847,-12.9265 312.574,-10.3332 313.199,-17.3052"/>
</g>
</g>
</svg>
