<?xml version="1.0" encoding="UTF-8" standalone="no"?>
<!DOCTYPE svg PUBLIC "-//W3C//DTD SVG 1.1//EN"
 "http://www.w3.org/Graphics/SVG/1.1/DTD/svg11.dtd">
<!-- Generated by graphviz version 2.38.0 (20140413.2041)
 -->
<!-- Title: DirectXRenderer::resize Pages: 1 -->
<!--zoomable 135 -->
<svg id="main" version="1.1" xmlns="http://www.w3.org/2000/svg" xmlns:xlink="http://www.w3.org/1999/xlink" xml:space="preserve" onload="init(evt)">
<style type="text/css"><![CDATA[
.edge:hover path { stroke: red; }
.edge:hover polygon { stroke: red; fill: red; }
]]></style>
<script type="text/javascript"><![CDATA[
var edges = document.getElementsByTagName('g');
if (edges && edges.length) {
  for (var i=0;i<edges.length;i++) {
    if (edges[i].id.substr(0,4)=='edge') {
      edges[i].setAttribute('class','edge');
    }
  }
}
]]></script>
        <defs>
                <circle id="rim" cx="0" cy="0" r="7"/>
                <circle id="rim2" cx="0" cy="0" r="3.5"/>
                <g id="zoomPlus">
                        <use xlink:href="#rim" fill="#404040">
                                <set attributeName="fill" to="#808080" begin="zoomplus.mouseover" end="zoomplus.mouseout"/>
                        </use>
                        <path d="M-4,0h8M0,-4v8" fill="none" stroke="white" stroke-width="1.5" pointer-events="none"/>
                </g>
                <g id="zoomMin">
                        <use xlink:href="#rim" fill="#404040">
                                <set attributeName="fill" to="#808080" begin="zoomminus.mouseover" end="zoomminus.mouseout"/>
                        </use>
                        <path d="M-4,0h8" fill="none" stroke="white" stroke-width="1.5" pointer-events="none"/>
                </g>
                <g id="dirArrow">
                        <path fill="none" stroke="white" stroke-width="1.5" d="M0,-3.0v7 M-2.5,-0.5L0,-3.0L2.5,-0.5"/>
                </g>
               <g id="resetDef">
                       <use xlink:href="#rim2" fill="#404040">
                               <set attributeName="fill" to="#808080" begin="reset.mouseover" end="reset.mouseout"/>
                       </use>
               </g>
        </defs>

<script type="text/javascript">
var viewWidth = 1086;
var viewHeight = 135;
var sectionId = 'dynsection-32';
</script>
<script xlink:href="svgpan.js"/>
<svg id="graph" class="graph">
<g id="viewport">
<title>DirectXRenderer::resize</title>
<!-- Node1 -->
<g id="node1" class="node"><title>Node1</title>
<polygon fill="#bfbfbf" stroke="black" points="0,-79.5 0,-98.5 119,-98.5 119,-79.5 0,-79.5"/>
<text text-anchor="middle" x="59.5" y="-86.5" font-family="Helvetica,sans-Serif" font-size="10.00">DirectXRenderer::resize</text>
</g>
<!-- Node2 -->
<g id="node2" class="node"><title>Node2</title>
<g id="a_node2"><a xlink:href="class_direct_x_renderer.html#a252d9ba8d713ba462c54a3dadfda2f59" target="_top" xlink:title="DirectXRenderer::Set4xMsaa\lState">
<polygon fill="none" stroke="black" points="155,-96 155,-126 297,-126 297,-96 155,-96"/>
<text text-anchor="start" x="163" y="-114" font-family="Helvetica,sans-Serif" font-size="10.00">DirectXRenderer::Set4xMsaa</text>
<text text-anchor="middle" x="226" y="-103" font-family="Helvetica,sans-Serif" font-size="10.00">State</text>
</a>
</g>
</g>
<!-- Node1&#45;&gt;Node2 -->
<g id="edge1" class="edge"><title>Node1&#45;&gt;Node2</title>
<path fill="none" stroke="midnightblue" d="M129.559,-98.2359C137.966,-99.3602 146.561,-100.51 154.981,-101.636"/>
<polygon fill="midnightblue" stroke="midnightblue" points="129.799,-94.7369 119.424,-96.8804 128.871,-101.675 129.799,-94.7369"/>
</g>
<!-- Node3 -->
<g id="node3" class="node"><title>Node3</title>
<g id="a_node3"><a xlink:href="classengine.html#a097517979864142f35d1969b5cf3d437" target="_top" xlink:title="engine::_resize">
<polygon fill="none" stroke="black" points="184.5,-57.5 184.5,-76.5 267.5,-76.5 267.5,-57.5 184.5,-57.5"/>
<text text-anchor="middle" x="226" y="-64.5" font-family="Helvetica,sans-Serif" font-size="10.00">engine::_resize</text>
</a>
</g>
</g>
<!-- Node1&#45;&gt;Node3 -->
<g id="edge2" class="edge"><title>Node1&#45;&gt;Node3</title>
<path fill="none" stroke="midnightblue" d="M129.379,-79.7882C148.055,-77.2905 167.677,-74.6663 184.252,-72.4496"/>
<polygon fill="midnightblue" stroke="midnightblue" points="128.871,-76.3249 119.424,-81.1196 129.799,-83.2631 128.871,-76.3249"/>
</g>
<!-- Node4 -->
<g id="node4" class="node"><title>Node4</title>
<g id="a_node4"><a xlink:href="classengine.html#a2a83502d17f32c78093028f6009df8ba" target="_top" xlink:title="engine::resize">
<polygon fill="none" stroke="black" points="333,-57.5 333,-76.5 410,-76.5 410,-57.5 333,-57.5"/>
<text text-anchor="middle" x="371.5" y="-64.5" font-family="Helvetica,sans-Serif" font-size="10.00">engine::resize</text>
</a>
</g>
</g>
<!-- Node3&#45;&gt;Node4 -->
<g id="edge3" class="edge"><title>Node3&#45;&gt;Node4</title>
<path fill="none" stroke="midnightblue" d="M277.814,-67C295.859,-67 315.839,-67 332.615,-67"/>
<polygon fill="midnightblue" stroke="midnightblue" points="277.738,-63.5001 267.737,-67 277.737,-70.5001 277.738,-63.5001"/>
</g>
<!-- Node5 -->
<g id="node5" class="node"><title>Node5</title>
<g id="a_node5"><a xlink:href="classengine.html#a8b8dd82e72fd73e0601c30041529c4c0" target="_top" xlink:title="engine::_initialize">
<polygon fill="none" stroke="black" points="446,-57.5 446,-76.5 538,-76.5 538,-57.5 446,-57.5"/>
<text text-anchor="middle" x="492" y="-64.5" font-family="Helvetica,sans-Serif" font-size="10.00">engine::_initialize</text>
</a>
</g>
</g>
<!-- Node4&#45;&gt;Node5 -->
<g id="edge4" class="edge"><title>Node4&#45;&gt;Node5</title>
<path fill="none" stroke="midnightblue" d="M420.322,-67C428.688,-67 437.371,-67 445.668,-67"/>
<polygon fill="midnightblue" stroke="midnightblue" points="420.32,-63.5001 410.32,-67 420.32,-70.5001 420.32,-63.5001"/>
</g>
<!-- Node6 -->
<g id="node6" class="node"><title>Node6</title>
<g id="a_node6"><a xlink:href="classengine.html#a6809dcdfe78011851e377d4729a87ee4" target="_top" xlink:title="engine::initialize">
<polygon fill="none" stroke="black" points="574,-76.5 574,-95.5 660,-95.5 660,-76.5 574,-76.5"/>
<text text-anchor="middle" x="617" y="-83.5" font-family="Helvetica,sans-Serif" font-size="10.00">engine::initialize</text>
</a>
</g>
</g>
<!-- Node5&#45;&gt;Node6 -->
<g id="edge5" class="edge"><title>Node5&#45;&gt;Node6</title>
<path fill="none" stroke="midnightblue" d="M548.097,-75.5109C556.712,-76.8417 565.497,-78.1987 573.765,-79.4758"/>
<polygon fill="midnightblue" stroke="midnightblue" points="548.519,-72.0347 538.102,-73.967 547.451,-78.9527 548.519,-72.0347"/>
</g>
<!-- Node7 -->
<g id="node7" class="node"><title>Node7</title>
<g id="a_node7"><a xlink:href="classengine.html#ada832d0a14502f1b99fdbd5c72cab01b" target="_top" xlink:title="engine::Draw">
<polygon fill="none" stroke="black" points="580.5,-38.5 580.5,-57.5 653.5,-57.5 653.5,-38.5 580.5,-38.5"/>
<text text-anchor="middle" x="617" y="-45.5" font-family="Helvetica,sans-Serif" font-size="10.00">engine::Draw</text>
</a>
</g>
</g>
<!-- Node5&#45;&gt;Node7 -->
<g id="edge6" class="edge"><title>Node5&#45;&gt;Node7</title>
<path fill="none" stroke="midnightblue" d="M547.998,-58.5044C558.9,-56.8203 570.079,-55.0935 580.142,-53.5391"/>
<polygon fill="midnightblue" stroke="midnightblue" points="547.451,-55.0473 538.102,-60.033 548.519,-61.9653 547.451,-55.0473"/>
</g>
<!-- Node8 -->
<g id="node8" class="node"><title>Node8</title>
<g id="a_node8"><a xlink:href="classengine.html#a90418b124cd07d7d2f057e7d401ed641" target="_top" xlink:title="engine::_tick">
<polygon fill="none" stroke="black" points="696,-57.5 696,-76.5 768,-76.5 768,-57.5 696,-57.5"/>
<text text-anchor="middle" x="732" y="-64.5" font-family="Helvetica,sans-Serif" font-size="10.00">engine::_tick</text>
</a>
</g>
</g>
<!-- Node7&#45;&gt;Node8 -->
<g id="edge7" class="edge"><title>Node7&#45;&gt;Node8</title>
<path fill="none" stroke="midnightblue" d="M663.921,-49.0775C678.923,-51.2953 694.957,-54.3417 707.586,-57.4705"/>
<polygon fill="midnightblue" stroke="midnightblue" points="664.137,-45.5744 653.754,-47.6836 663.186,-52.5095 664.137,-45.5744"/>
</g>
<!-- Node8&#45;&gt;Node7 -->
<g id="edge13" class="edge"><title>Node8&#45;&gt;Node7</title>
<path fill="none" stroke="midnightblue" d="M685.371,-65.9655C670.285,-63.7442 654.125,-60.6786 641.414,-57.5295"/>
<polygon fill="midnightblue" stroke="midnightblue" points="685.206,-69.4754 695.588,-67.3592 686.152,-62.5397 685.206,-69.4754"/>
</g>
<!-- Node9 -->
<g id="node9" class="node"><title>Node9</title>
<g id="a_node9"><a xlink:href="classengine.html#a4bca5e9257e46c09a63f71227fc25a12" target="_top" xlink:title="engine::tick">
<polygon fill="none" stroke="black" points="804,-19.5 804,-38.5 871,-38.5 871,-19.5 804,-19.5"/>
<text text-anchor="middle" x="837.5" y="-26.5" font-family="Helvetica,sans-Serif" font-size="10.00">engine::tick</text>
</a>
</g>
</g>
<!-- Node8&#45;&gt;Node9 -->
<g id="edge8" class="edge"><title>Node8&#45;&gt;Node9</title>
<path fill="none" stroke="midnightblue" d="M768.729,-53.882C782.418,-48.8561 797.767,-43.2209 810.391,-38.5859"/>
<polygon fill="midnightblue" stroke="midnightblue" points="767.298,-50.6788 759.117,-57.411 769.711,-57.2499 767.298,-50.6788"/>
</g>
<!-- Node9&#45;&gt;Node7 -->
<g id="edge12" class="edge"><title>Node9&#45;&gt;Node7</title>
<path fill="none" stroke="midnightblue" d="M793.585,-32.7318C752.696,-36.2873 691.86,-41.5774 653.592,-44.905"/>
<polygon fill="midnightblue" stroke="midnightblue" points="794.122,-36.1984 803.781,-31.8451 793.515,-29.2247 794.122,-36.1984"/>
</g>
<!-- Node10 -->
<g id="node10" class="node"><title>Node10</title>
<g id="a_node10"><a xlink:href="classengine.html#a1d9b806d03be0255a8ac3c119e181cc5" target="_top" xlink:title="engine::_run">
<polygon fill="none" stroke="black" points="907,-0.5 907,-19.5 977,-19.5 977,-0.5 907,-0.5"/>
<text text-anchor="middle" x="942" y="-7.5" font-family="Helvetica,sans-Serif" font-size="10.00">engine::_run</text>
</a>
</g>
</g>
<!-- Node9&#45;&gt;Node10 -->
<g id="edge9" class="edge"><title>Node9&#45;&gt;Node10</title>
<path fill="none" stroke="midnightblue" d="M881.077,-21.1076C889.662,-19.5164 898.581,-17.8631 906.832,-16.3335"/>
<polygon fill="midnightblue" stroke="midnightblue" points="880.408,-17.672 871.213,-22.936 881.684,-24.5547 880.408,-17.672"/>
</g>
<!-- Node10&#45;&gt;Node7 -->
<g id="edge11" class="edge"><title>Node10&#45;&gt;Node7</title>
<path fill="none" stroke="midnightblue" d="M896.606,-7.84934C869.741,-7.08197 834.829,-7.03059 804,-10 755.326,-14.6883 743.892,-21.1262 696,-31 682.154,-33.8545 666.959,-37.1331 653.688,-40.0447"/>
<polygon fill="midnightblue" stroke="midnightblue" points="896.741,-11.3556 906.851,-8.1874 896.972,-4.35941 896.741,-11.3556"/>
</g>
<!-- Node11 -->
<g id="node11" class="node"><title>Node11</title>
<g id="a_node11"><a xlink:href="classengine.html#aecb22d51cc8f83cacbf3696a18d66c30" target="_top" xlink:title="engine::run">
<polygon fill="none" stroke="black" points="1013,-0.5 1013,-19.5 1078,-19.5 1078,-0.5 1013,-0.5"/>
<text text-anchor="middle" x="1045.5" y="-7.5" font-family="Helvetica,sans-Serif" font-size="10.00">engine::run</text>
</a>
</g>
</g>
<!-- Node10&#45;&gt;Node11 -->
<g id="edge10" class="edge"><title>Node10&#45;&gt;Node11</title>
<path fill="none" stroke="midnightblue" d="M987.325,-10C995.879,-10 1004.68,-10 1012.74,-10"/>
<polygon fill="midnightblue" stroke="midnightblue" points="987.08,-6.5001 977.08,-10 987.08,-13.5001 987.08,-6.5001"/>
</g>
</g>
</svg>
        <g id="navigator" transform="translate(0 0)" fill="#404254">
                <rect fill="#f2f5e9" fill-opacity="0.5" stroke="#606060" stroke-width=".5" x="0" y="0" width="60" height="60"/>
                <use id="zoomplus" xlink:href="#zoomPlus" x="17" y="9" onmousedown="handleZoom(evt,'in')"/>
                <use id="zoomminus" xlink:href="#zoomMin" x="42" y="9" onmousedown="handleZoom(evt,'out')"/>
                <use id="reset" xlink:href="#resetDef" x="30" y="36" onmousedown="handleReset()"/>
                <g id="arrowUp" xlink:href="#dirArrow" transform="translate(30 24)" onmousedown="handlePan(0,-1)">
                  <use xlink:href="#rim" fill="#404040">
                        <set attributeName="fill" to="#808080" begin="arrowUp.mouseover" end="arrowUp.mouseout"/>
                  </use>
                  <path fill="none" stroke="white" stroke-width="1.5" d="M0,-3.0v7 M-2.5,-0.5L0,-3.0L2.5,-0.5"/>
                </g>
                <g id="arrowRight" xlink:href="#dirArrow" transform="rotate(90) translate(36 -43)" onmousedown="handlePan(1,0)">
                  <use xlink:href="#rim" fill="#404040">
                        <set attributeName="fill" to="#808080" begin="arrowRight.mouseover" end="arrowRight.mouseout"/>
                  </use>
                  <path fill="none" stroke="white" stroke-width="1.5" d="M0,-3.0v7 M-2.5,-0.5L0,-3.0L2.5,-0.5"/>
                </g>
                <g id="arrowDown" xlink:href="#dirArrow" transform="rotate(180) translate(-30 -48)" onmousedown="handlePan(0,1)">
                  <use xlink:href="#rim" fill="#404040">
                        <set attributeName="fill" to="#808080" begin="arrowDown.mouseover" end="arrowDown.mouseout"/>
                  </use>
                  <path fill="none" stroke="white" stroke-width="1.5" d="M0,-3.0v7 M-2.5,-0.5L0,-3.0L2.5,-0.5"/>
                </g>
                <g id="arrowLeft" xlink:href="#dirArrow" transform="rotate(270) translate(-36 17)" onmousedown="handlePan(-1,0)">
                  <use xlink:href="#rim" fill="#404040">
                        <set attributeName="fill" to="#808080" begin="arrowLeft.mouseover" end="arrowLeft.mouseout"/>
                  </use>
                  <path fill="none" stroke="white" stroke-width="1.5" d="M0,-3.0v7 M-2.5,-0.5L0,-3.0L2.5,-0.5"/>
                </g>
        </g>
        <svg viewBox="0 0 15 15" width="100%" height="30px" preserveAspectRatio="xMaxYMin meet">
         <g id="arrow_out" transform="scale(0.3 0.3)">
          <a xlink:href="class_direct_x_renderer_ae823daf9d77db0f506320f7171cb117d_icgraph_org.svg" target="_base">
           <rect id="button" ry="5" rx="5" y="6" x="6" height="38" width="38"
                fill="#f2f5e9" fill-opacity="0.5" stroke="#606060" stroke-width="1.0"/>
           <path id="arrow"
             d="M 11.500037,31.436501 C 11.940474,20.09759 22.043105,11.32322 32.158766,21.979434 L 37.068811,17.246167 C 37.068811,17.246167 37.088388,32 37.088388,32 L 22.160133,31.978069 C 22.160133,31.978069 26.997745,27.140456 26.997745,27.140456 C 18.528582,18.264221 13.291696,25.230495 11.500037,31.436501 z"
             style="fill:#404040;"/>
          </a>
         </g>
        </svg>
</svg>
