<?xml version="1.0" encoding="UTF-8" standalone="no"?>
<!DOCTYPE svg PUBLIC "-//W3C//DTD SVG 1.1//EN"
 "http://www.w3.org/Graphics/SVG/1.1/DTD/svg11.dtd">
<!-- Generated by graphviz version 2.38.0 (20140413.2041)
 -->
<!-- Title: engine::initialize Pages: 1 -->
<!--zoomable 733 -->
<svg id="main" version="1.1" xmlns="http://www.w3.org/2000/svg" xmlns:xlink="http://www.w3.org/1999/xlink" xml:space="preserve" onload="init(evt)">
<style type="text/css"><![CDATA[
.edge:hover path { stroke: red; }
.edge:hover polygon { stroke: red; fill: red; }
]]></style>
<script type="text/javascript"><![CDATA[
var edges = document.getElementsByTagName('g');
if (edges && edges.length) {
  for (var i=0;i<edges.length;i++) {
    if (edges[i].id.substr(0,4)=='edge') {
      edges[i].setAttribute('class','edge');
    }
  }
}
]]></script>
        <defs>
                <circle id="rim" cx="0" cy="0" r="7"/>
                <circle id="rim2" cx="0" cy="0" r="3.5"/>
                <g id="zoomPlus">
                        <use xlink:href="#rim" fill="#404040">
                                <set attributeName="fill" to="#808080" begin="zoomplus.mouseover" end="zoomplus.mouseout"/>
                        </use>
                        <path d="M-4,0h8M0,-4v8" fill="none" stroke="white" stroke-width="1.5" pointer-events="none"/>
                </g>
                <g id="zoomMin">
                        <use xlink:href="#rim" fill="#404040">
                                <set attributeName="fill" to="#808080" begin="zoomminus.mouseover" end="zoomminus.mouseout"/>
                        </use>
                        <path d="M-4,0h8" fill="none" stroke="white" stroke-width="1.5" pointer-events="none"/>
                </g>
                <g id="dirArrow">
                        <path fill="none" stroke="white" stroke-width="1.5" d="M0,-3.0v7 M-2.5,-0.5L0,-3.0L2.5,-0.5"/>
                </g>
               <g id="resetDef">
                       <use xlink:href="#rim2" fill="#404040">
                               <set attributeName="fill" to="#808080" begin="reset.mouseover" end="reset.mouseout"/>
                       </use>
               </g>
        </defs>

<script type="text/javascript">
var viewWidth = 1072;
var viewHeight = 733;
var sectionId = 'dynsection-50';
</script>
<script xlink:href="svgpan.js"/>
<svg id="graph" class="graph">
<g id="viewport">
<title>engine::initialize</title>
<!-- Node1 -->
<g id="node1" class="node"><title>Node1</title>
<polygon fill="#bfbfbf" stroke="black" points="0,-359 0,-378 86,-378 86,-359 0,-359"/>
<text text-anchor="middle" x="43" y="-366" font-family="Helvetica,sans-Serif" font-size="10.00">engine::initialize</text>
</g>
<!-- Node2 -->
<g id="node2" class="node"><title>Node2</title>
<g id="a_node2"><a xlink:href="classengine.html#a5f896172ebe9e2461d0f8e4114b1e4ef" target="_top" xlink:title="Constructor. ">
<polygon fill="none" stroke="black" points="128,-431 128,-450 208,-450 208,-431 128,-431"/>
<text text-anchor="middle" x="168" y="-438" font-family="Helvetica,sans-Serif" font-size="10.00">engine::engine</text>
</a>
</g>
</g>
<!-- Node1&#45;&gt;Node2 -->
<g id="edge1" class="edge"><title>Node1&#45;&gt;Node2</title>
<path fill="none" stroke="midnightblue" d="M60.3335,-378.061C81.1939,-390.272 117.506,-411.528 141.893,-425.803"/>
<polygon fill="midnightblue" stroke="midnightblue" points="140.201,-428.868 150.599,-430.899 143.737,-422.827 140.201,-428.868"/>
</g>
<!-- Node4 -->
<g id="node4" class="node"><title>Node4</title>
<g id="a_node4"><a xlink:href="classengine.html#a8b8dd82e72fd73e0601c30041529c4c0" target="_top" xlink:title="engine::_initialize">
<polygon fill="none" stroke="black" points="122,-288 122,-307 214,-307 214,-288 122,-288"/>
<text text-anchor="middle" x="168" y="-295" font-family="Helvetica,sans-Serif" font-size="10.00">engine::_initialize</text>
</a>
</g>
</g>
<!-- Node1&#45;&gt;Node4 -->
<g id="edge3" class="edge"><title>Node1&#45;&gt;Node4</title>
<path fill="none" stroke="midnightblue" d="M60.5883,-358.925C81.4044,-346.909 117.314,-326.18 141.599,-312.162"/>
<polygon fill="midnightblue" stroke="midnightblue" points="143.371,-315.181 150.282,-307.15 139.871,-309.118 143.371,-315.181"/>
</g>
<!-- Node3 -->
<g id="node3" class="node"><title>Node3</title>
<g id="a_node3"><a xlink:href="classengine.html#af12cdec3187ce4b86a1b3d9803f4d9da" target="_top" xlink:title="Assignment operator. ">
<polygon fill="none" stroke="black" points="268,-484 268,-503 360,-503 360,-484 268,-484"/>
<text text-anchor="middle" x="314" y="-491" font-family="Helvetica,sans-Serif" font-size="10.00">engine::operator=</text>
</a>
</g>
</g>
<!-- Node2&#45;&gt;Node3 -->
<g id="edge2" class="edge"><title>Node2&#45;&gt;Node3</title>
<path fill="none" stroke="midnightblue" d="M191.163,-450.085C207.339,-456.945 229.867,-466.216 250,-473.5 256.899,-475.996 264.282,-478.493 271.477,-480.834"/>
<polygon fill="midnightblue" stroke="midnightblue" points="270.517,-484.202 281.108,-483.916 272.65,-477.535 270.517,-484.202"/>
</g>
<!-- Node5 -->
<g id="node5" class="node"><title>Node5</title>
<g id="a_node5"><a xlink:href="classengine.html#a958aa4120f21278468225415ffe5ac92" target="_top" xlink:title="engine::_init_main\l_window">
<polygon fill="none" stroke="black" points="266.5,-117.5 266.5,-147.5 361.5,-147.5 361.5,-117.5 266.5,-117.5"/>
<text text-anchor="start" x="274.5" y="-135.5" font-family="Helvetica,sans-Serif" font-size="10.00">engine::_init_main</text>
<text text-anchor="middle" x="314" y="-124.5" font-family="Helvetica,sans-Serif" font-size="10.00">_window</text>
</a>
</g>
</g>
<!-- Node4&#45;&gt;Node5 -->
<g id="edge4" class="edge"><title>Node4&#45;&gt;Node5</title>
<path fill="none" stroke="midnightblue" d="M177.577,-287.673C200.093,-261.873 261.342,-191.691 293.181,-155.209"/>
<polygon fill="midnightblue" stroke="midnightblue" points="295.933,-157.379 299.871,-147.543 290.659,-152.776 295.933,-157.379"/>
</g>
<!-- Node10 -->
<g id="node10" class="node"><title>Node10</title>
<g id="a_node10"><a xlink:href="class_direct_x_renderer.html#a0d6aef4c838ac765f726391ee65c346c" target="_top" xlink:title="DirectXRenderer::initialize\l_direct3d">
<polygon fill="none" stroke="black" points="250,-434.5 250,-464.5 378,-464.5 378,-434.5 250,-434.5"/>
<text text-anchor="start" x="258" y="-452.5" font-family="Helvetica,sans-Serif" font-size="10.00">DirectXRenderer::initialize</text>
<text text-anchor="middle" x="314" y="-441.5" font-family="Helvetica,sans-Serif" font-size="10.00">_direct3d</text>
</a>
</g>
</g>
<!-- Node4&#45;&gt;Node10 -->
<g id="edge9" class="edge"><title>Node4&#45;&gt;Node10</title>
<path fill="none" stroke="midnightblue" d="M178.008,-307.008C200.467,-330.715 259.439,-392.964 291.501,-426.806"/>
<polygon fill="midnightblue" stroke="midnightblue" points="289.242,-429.511 298.66,-434.363 294.323,-424.697 289.242,-429.511"/>
</g>
<!-- Node29 -->
<g id="node29" class="node"><title>Node29</title>
<g id="a_node29"><a xlink:href="classengine.html#a2a83502d17f32c78093028f6009df8ba" target="_top" xlink:title="engine::resize">
<polygon fill="none" stroke="black" points="275.5,-235 275.5,-254 352.5,-254 352.5,-235 275.5,-235"/>
<text text-anchor="middle" x="314" y="-242" font-family="Helvetica,sans-Serif" font-size="10.00">engine::resize</text>
</a>
</g>
</g>
<!-- Node4&#45;&gt;Node29 -->
<g id="edge30" class="edge"><title>Node4&#45;&gt;Node29</title>
<path fill="none" stroke="midnightblue" d="M195.077,-287.902C218.117,-279.422 251.923,-266.98 277.438,-257.589"/>
<polygon fill="midnightblue" stroke="midnightblue" points="278.941,-260.765 287.117,-254.026 276.523,-254.196 278.941,-260.765"/>
</g>
<!-- Node6 -->
<g id="node6" class="node"><title>Node6</title>
<g id="a_node6"><a xlink:href="engine_8cpp.html#a6430a76bf18e17d995aa340aaf8c30a9" target="_top" xlink:title="MainWndProc">
<polygon fill="none" stroke="black" points="442.5,-55 442.5,-74 520.5,-74 520.5,-55 442.5,-55"/>
<text text-anchor="middle" x="481.5" y="-62" font-family="Helvetica,sans-Serif" font-size="10.00">MainWndProc</text>
</a>
</g>
</g>
<!-- Node5&#45;&gt;Node6 -->
<g id="edge5" class="edge"><title>Node5&#45;&gt;Node6</title>
<path fill="none" stroke="midnightblue" d="M351.73,-117.409C380.523,-105.578 420.215,-89.2697 447.893,-77.8975"/>
<polygon fill="midnightblue" stroke="midnightblue" points="449.225,-81.1342 457.144,-74.0963 446.565,-74.6594 449.225,-81.1342"/>
</g>
<!-- Node7 -->
<g id="node7" class="node"><title>Node7</title>
<g id="a_node7"><a xlink:href="classengine.html#a1c22e1de5498965992bc25cfba715c99" target="_top" xlink:title="engine::get_windows\l_message_handler">
<polygon fill="none" stroke="black" points="614,-49.5 614,-79.5 721,-79.5 721,-49.5 614,-49.5"/>
<text text-anchor="start" x="622" y="-67.5" font-family="Helvetica,sans-Serif" font-size="10.00">engine::get_windows</text>
<text text-anchor="middle" x="667.5" y="-56.5" font-family="Helvetica,sans-Serif" font-size="10.00">_message_handler</text>
</a>
</g>
</g>
<!-- Node6&#45;&gt;Node7 -->
<g id="edge6" class="edge"><title>Node6&#45;&gt;Node7</title>
<path fill="none" stroke="midnightblue" d="M520.625,-64.5C544.52,-64.5 575.901,-64.5 603.433,-64.5"/>
<polygon fill="midnightblue" stroke="midnightblue" points="603.773,-68.0001 613.773,-64.5 603.773,-61.0001 603.773,-68.0001"/>
</g>
<!-- Node9 -->
<g id="node9" class="node"><title>Node9</title>
<g id="a_node9"><a xlink:href="class_windows_message_handling_service.html#a9c7224471322c4e364c440b35321d253" target="_top" xlink:title="WindowsMessageHandlingService\l::handle_message">
<polygon fill="none" stroke="black" points="585,-0.5 585,-30.5 750,-30.5 750,-0.5 585,-0.5"/>
<text text-anchor="start" x="593" y="-18.5" font-family="Helvetica,sans-Serif" font-size="10.00">WindowsMessageHandlingService</text>
<text text-anchor="middle" x="667.5" y="-7.5" font-family="Helvetica,sans-Serif" font-size="10.00">::handle_message</text>
</a>
</g>
</g>
<!-- Node6&#45;&gt;Node9 -->
<g id="edge8" class="edge"><title>Node6&#45;&gt;Node9</title>
<path fill="none" stroke="midnightblue" d="M518.414,-54.936C541.607,-48.7595 572.491,-40.5351 600.051,-33.1955"/>
<polygon fill="midnightblue" stroke="midnightblue" points="601.272,-36.4925 610.035,-30.537 599.471,-29.7283 601.272,-36.4925"/>
</g>
<!-- Node8 -->
<g id="node8" class="node"><title>Node8</title>
<g id="a_node8"><a xlink:href="classengine.html#a240cde5717390f5f154bc9e4af2c36eb" target="_top" xlink:title="engine::get_engine">
<polygon fill="none" stroke="black" points="962,-99 962,-118 1060,-118 1060,-99 962,-99"/>
<text text-anchor="middle" x="1011" y="-106" font-family="Helvetica,sans-Serif" font-size="10.00">engine::get_engine</text>
</a>
</g>
</g>
<!-- Node7&#45;&gt;Node8 -->
<g id="edge7" class="edge"><title>Node7&#45;&gt;Node8</title>
<path fill="none" stroke="midnightblue" d="M721.013,-70.095C772.334,-75.7092 852.642,-84.8828 922,-94.5 931.553,-95.8246 941.672,-97.3344 951.515,-98.8606"/>
<polygon fill="midnightblue" stroke="midnightblue" points="951.216,-102.356 961.637,-100.45 952.301,-95.441 951.216,-102.356"/>
</g>
<!-- Node11 -->
<g id="node11" class="node"><title>Node11</title>
<g id="a_node11"><a xlink:href="class_direct_x_renderer.html#a8bf63477a5f9f210b627c2d07d54caa5" target="_top" xlink:title="DirectXRenderer::log\l_adapters">
<polygon fill="none" stroke="black" points="429,-459.5 429,-489.5 534,-489.5 534,-459.5 429,-459.5"/>
<text text-anchor="start" x="437" y="-477.5" font-family="Helvetica,sans-Serif" font-size="10.00">DirectXRenderer::log</text>
<text text-anchor="middle" x="481.5" y="-466.5" font-family="Helvetica,sans-Serif" font-size="10.00">_adapters</text>
</a>
</g>
</g>
<!-- Node10&#45;&gt;Node11 -->
<g id="edge10" class="edge"><title>Node10&#45;&gt;Node11</title>
<path fill="none" stroke="midnightblue" d="M378.041,-459.023C391.434,-461.046 405.56,-463.18 418.899,-465.195"/>
<polygon fill="midnightblue" stroke="midnightblue" points="418.511,-468.676 428.922,-466.709 419.557,-461.754 418.511,-468.676"/>
</g>
<!-- Node14 -->
<g id="node14" class="node"><title>Node14</title>
<g id="a_node14"><a xlink:href="class_direct_x_renderer.html#aef2318aa9f9757fde25c94c9857143e8" target="_top" xlink:title="DirectXRenderer::create\l_dx_command_objects">
<polygon fill="none" stroke="black" points="422,-273.5 422,-303.5 541,-303.5 541,-273.5 422,-273.5"/>
<text text-anchor="start" x="430" y="-291.5" font-family="Helvetica,sans-Serif" font-size="10.00">DirectXRenderer::create</text>
<text text-anchor="middle" x="481.5" y="-280.5" font-family="Helvetica,sans-Serif" font-size="10.00">_dx_command_objects</text>
</a>
</g>
</g>
<!-- Node10&#45;&gt;Node14 -->
<g id="edge13" class="edge"><title>Node10&#45;&gt;Node14</title>
<path fill="none" stroke="midnightblue" d="M323.142,-434.185C337.999,-407.498 371.894,-352.114 414,-318.5 418.692,-314.754 423.927,-311.367 429.343,-308.333"/>
<polygon fill="midnightblue" stroke="midnightblue" points="431.291,-311.267 438.564,-303.563 428.074,-305.049 431.291,-311.267"/>
</g>
<!-- Node15 -->
<g id="node15" class="node"><title>Node15</title>
<g id="a_node15"><a xlink:href="class_direct_x_renderer.html#ab76ef034cbf3cfafc7a8aae1b50f6e6b" target="_top" xlink:title="DirectXRenderer::create\l_swap_chain">
<polygon fill="none" stroke="black" points="422,-694.5 422,-724.5 541,-724.5 541,-694.5 422,-694.5"/>
<text text-anchor="start" x="430" y="-712.5" font-family="Helvetica,sans-Serif" font-size="10.00">DirectXRenderer::create</text>
<text text-anchor="middle" x="481.5" y="-701.5" font-family="Helvetica,sans-Serif" font-size="10.00">_swap_chain</text>
</a>
</g>
</g>
<!-- Node10&#45;&gt;Node15 -->
<g id="edge14" class="edge"><title>Node10&#45;&gt;Node15</title>
<path fill="none" stroke="midnightblue" d="M366.927,-464.668C371.087,-467.42 374.879,-470.668 378,-474.5 436.413,-546.229 357.253,-606.445 414,-679.5 416.666,-682.932 419.812,-685.983 423.261,-688.694"/>
<polygon fill="midnightblue" stroke="midnightblue" points="421.526,-691.744 431.778,-694.419 425.431,-685.935 421.526,-691.744"/>
</g>
<!-- Node16 -->
<g id="node16" class="node"><title>Node16</title>
<g id="a_node16"><a xlink:href="class_direct_x_renderer.html#a0f9a3dabe2f03739ba06155572eef957" target="_top" xlink:title="DirectXRenderer::create\l_descriptor_heaps">
<polygon fill="none" stroke="black" points="422,-606.5 422,-636.5 541,-636.5 541,-606.5 422,-606.5"/>
<text text-anchor="start" x="430" y="-624.5" font-family="Helvetica,sans-Serif" font-size="10.00">DirectXRenderer::create</text>
<text text-anchor="middle" x="481.5" y="-613.5" font-family="Helvetica,sans-Serif" font-size="10.00">_descriptor_heaps</text>
</a>
</g>
</g>
<!-- Node10&#45;&gt;Node16 -->
<g id="edge15" class="edge"><title>Node10&#45;&gt;Node16</title>
<path fill="none" stroke="midnightblue" d="M365.874,-464.672C370.357,-467.429 374.509,-470.676 378,-474.5 416.119,-516.249 375.503,-555.099 414,-596.5 415.354,-597.956 416.802,-599.329 418.326,-600.621"/>
<polygon fill="midnightblue" stroke="midnightblue" points="416.324,-603.493 426.499,-606.445 420.386,-597.792 416.324,-603.493"/>
</g>
<!-- Node18 -->
<g id="node18" class="node"><title>Node18</title>
<g id="a_node18"><a xlink:href="class_direct_x_renderer.html#a09278f83b0f7f134871bb21c72e07587" target="_top" xlink:title="DirectXRenderer::create\l_constant_buffers">
<polygon fill="none" stroke="black" points="422,-557.5 422,-587.5 541,-587.5 541,-557.5 422,-557.5"/>
<text text-anchor="start" x="430" y="-575.5" font-family="Helvetica,sans-Serif" font-size="10.00">DirectXRenderer::create</text>
<text text-anchor="middle" x="481.5" y="-564.5" font-family="Helvetica,sans-Serif" font-size="10.00">_constant_buffers</text>
</a>
</g>
</g>
<!-- Node10&#45;&gt;Node18 -->
<g id="edge17" class="edge"><title>Node10&#45;&gt;Node18</title>
<path fill="none" stroke="midnightblue" d="M363.965,-464.607C369.039,-467.397 373.849,-470.67 378,-474.5 404.587,-499.031 387.191,-523.211 414,-547.5 415.708,-549.048 417.521,-550.502 419.415,-551.87"/>
<polygon fill="midnightblue" stroke="midnightblue" points="417.82,-555 428.158,-557.322 421.524,-549.06 417.82,-555"/>
</g>
<!-- Node23 -->
<g id="node23" class="node"><title>Node23</title>
<g id="a_node23"><a xlink:href="class_direct_x_renderer.html#acaec9787ee504297135360aaf1bf45fa" target="_top" xlink:title="DirectXRenderer::create\l_root_signature">
<polygon fill="none" stroke="black" points="422,-410.5 422,-440.5 541,-440.5 541,-410.5 422,-410.5"/>
<text text-anchor="start" x="430" y="-428.5" font-family="Helvetica,sans-Serif" font-size="10.00">DirectXRenderer::create</text>
<text text-anchor="middle" x="481.5" y="-417.5" font-family="Helvetica,sans-Serif" font-size="10.00">_root_signature</text>
</a>
</g>
</g>
<!-- Node10&#45;&gt;Node23 -->
<g id="edge22" class="edge"><title>Node10&#45;&gt;Node23</title>
<path fill="none" stroke="midnightblue" d="M378.041,-440.358C389.091,-438.756 400.639,-437.081 411.833,-435.458"/>
<polygon fill="midnightblue" stroke="midnightblue" points="412.595,-438.884 421.989,-433.985 411.59,-431.956 412.595,-438.884"/>
</g>
<!-- Node24 -->
<g id="node24" class="node"><title>Node24</title>
<g id="a_node24"><a xlink:href="class_direct_x_renderer.html#a83af308560d21041e34b96f35ba0b9d9" target="_top" xlink:title="DirectXRenderer::create\l_shaders_and_input_layout">
<polygon fill="none" stroke="black" points="414,-508.5 414,-538.5 549,-538.5 549,-508.5 414,-508.5"/>
<text text-anchor="start" x="422" y="-526.5" font-family="Helvetica,sans-Serif" font-size="10.00">DirectXRenderer::create</text>
<text text-anchor="middle" x="481.5" y="-515.5" font-family="Helvetica,sans-Serif" font-size="10.00">_shaders_and_input_layout</text>
</a>
</g>
</g>
<!-- Node10&#45;&gt;Node24 -->
<g id="edge23" class="edge"><title>Node10&#45;&gt;Node24</title>
<path fill="none" stroke="midnightblue" d="M356.565,-464.552C363.83,-467.589 371.226,-470.948 378,-474.5 395.031,-483.429 396.889,-489.726 414,-498.5 418.061,-500.582 422.337,-502.585 426.681,-504.487"/>
<polygon fill="midnightblue" stroke="midnightblue" points="425.668,-507.857 436.244,-508.484 428.367,-501.398 425.668,-507.857"/>
</g>
<!-- Node25 -->
<g id="node25" class="node"><title>Node25</title>
<g id="a_node25"><a xlink:href="class_direct_x_renderer.html#ab236cfa51aff8ae36741f94ae4abf167" target="_top" xlink:title="DirectXRenderer::create\l_box_geometry">
<polygon fill="none" stroke="black" points="608,-653.5 608,-683.5 727,-683.5 727,-653.5 608,-653.5"/>
<text text-anchor="start" x="616" y="-671.5" font-family="Helvetica,sans-Serif" font-size="10.00">DirectXRenderer::create</text>
<text text-anchor="middle" x="667.5" y="-660.5" font-family="Helvetica,sans-Serif" font-size="10.00">_box_geometry</text>
</a>
</g>
</g>
<!-- Node10&#45;&gt;Node25 -->
<g id="edge25" class="edge"><title>Node10&#45;&gt;Node25</title>
<path fill="none" stroke="midnightblue" d="M366.493,-464.585C370.797,-467.356 374.739,-470.631 378,-474.5 428.049,-533.889 355.974,-593.877 414,-645.5 440.3,-668.898 532.3,-672.037 597.637,-671.098"/>
<polygon fill="midnightblue" stroke="midnightblue" points="597.945,-674.593 607.881,-670.915 597.82,-667.595 597.945,-674.593"/>
</g>
<!-- Node26 -->
<g id="node26" class="node"><title>Node26</title>
<g id="a_node26"><a xlink:href="class_direct_x_renderer.html#a7626b1775267e151905115055e0bbc7f" target="_top" xlink:title="DirectXRenderer::create\l_pipeline_state_object">
<polygon fill="none" stroke="black" points="422,-361.5 422,-391.5 541,-391.5 541,-361.5 422,-361.5"/>
<text text-anchor="start" x="430" y="-379.5" font-family="Helvetica,sans-Serif" font-size="10.00">DirectXRenderer::create</text>
<text text-anchor="middle" x="481.5" y="-368.5" font-family="Helvetica,sans-Serif" font-size="10.00">_pipeline_state_object</text>
</a>
</g>
</g>
<!-- Node10&#45;&gt;Node26 -->
<g id="edge27" class="edge"><title>Node10&#45;&gt;Node26</title>
<path fill="none" stroke="midnightblue" d="M343.194,-434.48C362.789,-424.306 389.655,-410.878 414,-400.5 418.178,-398.719 422.537,-396.952 426.938,-395.231"/>
<polygon fill="midnightblue" stroke="midnightblue" points="428.488,-398.385 436.585,-391.552 425.994,-391.845 428.488,-398.385"/>
</g>
<!-- Node28 -->
<g id="node28" class="node"><title>Node28</title>
<g id="a_node28"><a xlink:href="class_direct_x_renderer.html#ab1ac2acccb63781ec8ccce58fe351c63" target="_top" xlink:title="DirectXRenderer::flush\l_command_queue">
<polygon fill="none" stroke="black" points="797.5,-323.5 797.5,-353.5 910.5,-353.5 910.5,-323.5 797.5,-323.5"/>
<text text-anchor="start" x="805.5" y="-341.5" font-family="Helvetica,sans-Serif" font-size="10.00">DirectXRenderer::flush</text>
<text text-anchor="middle" x="854" y="-330.5" font-family="Helvetica,sans-Serif" font-size="10.00">_command_queue</text>
</a>
</g>
</g>
<!-- Node10&#45;&gt;Node28 -->
<g id="edge29" class="edge"><title>Node10&#45;&gt;Node28</title>
<path fill="none" stroke="midnightblue" d="M324.636,-434.392C340.212,-411.523 373.322,-368.937 414,-351.5 537.321,-298.638 698.528,-312.306 787.269,-326.018"/>
<polygon fill="midnightblue" stroke="midnightblue" points="786.774,-329.483 797.2,-327.6 787.875,-322.57 786.774,-329.483"/>
</g>
<!-- Node12 -->
<g id="node12" class="node"><title>Node12</title>
<g id="a_node12"><a xlink:href="class_direct_x_renderer.html#a13dbd659f5d0a72be90b0a4be1121ef8" target="_top" xlink:title="DirectXRenderer::log\l_adapter_outputs">
<polygon fill="none" stroke="black" points="615,-459.5 615,-489.5 720,-489.5 720,-459.5 615,-459.5"/>
<text text-anchor="start" x="623" y="-477.5" font-family="Helvetica,sans-Serif" font-size="10.00">DirectXRenderer::log</text>
<text text-anchor="middle" x="667.5" y="-466.5" font-family="Helvetica,sans-Serif" font-size="10.00">_adapter_outputs</text>
</a>
</g>
</g>
<!-- Node11&#45;&gt;Node12 -->
<g id="edge11" class="edge"><title>Node11&#45;&gt;Node12</title>
<path fill="none" stroke="midnightblue" d="M534.244,-474.5C556.09,-474.5 581.708,-474.5 604.55,-474.5"/>
<polygon fill="midnightblue" stroke="midnightblue" points="604.826,-478 614.826,-474.5 604.826,-471 604.826,-478"/>
</g>
<!-- Node13 -->
<g id="node13" class="node"><title>Node13</title>
<g id="a_node13"><a xlink:href="class_direct_x_renderer.html#ac2a94e66b56fa26905f19f6952f9dc28" target="_top" xlink:title="DirectXRenderer::log\l_output_display_modes">
<polygon fill="none" stroke="black" points="794.5,-459.5 794.5,-489.5 913.5,-489.5 913.5,-459.5 794.5,-459.5"/>
<text text-anchor="start" x="802.5" y="-477.5" font-family="Helvetica,sans-Serif" font-size="10.00">DirectXRenderer::log</text>
<text text-anchor="middle" x="854" y="-466.5" font-family="Helvetica,sans-Serif" font-size="10.00">_output_display_modes</text>
</a>
</g>
</g>
<!-- Node12&#45;&gt;Node13 -->
<g id="edge12" class="edge"><title>Node12&#45;&gt;Node13</title>
<path fill="none" stroke="midnightblue" d="M720.385,-474.5C740.169,-474.5 763.039,-474.5 784.157,-474.5"/>
<polygon fill="midnightblue" stroke="midnightblue" points="784.362,-478 794.362,-474.5 784.362,-471 784.362,-478"/>
</g>
<!-- Node17 -->
<g id="node17" class="node"><title>Node17</title>
<g id="a_node17"><a xlink:href="class_direct_x_renderer.html#a6d696829e35fe480381db6b759fe8ca2" target="_top" xlink:title="DirectXRenderer::get\l_swap_chain_buffer_count">
<polygon fill="none" stroke="black" points="602,-604.5 602,-634.5 733,-634.5 733,-604.5 602,-604.5"/>
<text text-anchor="start" x="610" y="-622.5" font-family="Helvetica,sans-Serif" font-size="10.00">DirectXRenderer::get</text>
<text text-anchor="middle" x="667.5" y="-611.5" font-family="Helvetica,sans-Serif" font-size="10.00">_swap_chain_buffer_count</text>
</a>
</g>
</g>
<!-- Node16&#45;&gt;Node17 -->
<g id="edge16" class="edge"><title>Node16&#45;&gt;Node17</title>
<path fill="none" stroke="midnightblue" d="M541.225,-620.862C557.25,-620.687 574.833,-620.496 591.627,-620.314"/>
<polygon fill="midnightblue" stroke="midnightblue" points="591.999,-623.81 601.96,-620.202 591.922,-616.811 591.999,-623.81"/>
</g>
<!-- Node19 -->
<g id="node19" class="node"><title>Node19</title>
<g id="a_node19"><a xlink:href="classd3d_util.html#a0883e0848cae813b2bc71570f3303e92" target="_top" xlink:title="d3dUtil::CalcConstantBuffer\lByteSize">
<polygon fill="none" stroke="black" points="599.5,-555.5 599.5,-585.5 735.5,-585.5 735.5,-555.5 599.5,-555.5"/>
<text text-anchor="start" x="607.5" y="-573.5" font-family="Helvetica,sans-Serif" font-size="10.00">d3dUtil::CalcConstantBuffer</text>
<text text-anchor="middle" x="667.5" y="-562.5" font-family="Helvetica,sans-Serif" font-size="10.00">ByteSize</text>
</a>
</g>
</g>
<!-- Node18&#45;&gt;Node19 -->
<g id="edge18" class="edge"><title>Node18&#45;&gt;Node19</title>
<path fill="none" stroke="midnightblue" d="M541.225,-571.862C556.409,-571.697 572.991,-571.516 588.975,-571.343"/>
<polygon fill="midnightblue" stroke="midnightblue" points="589.411,-574.838 599.372,-571.23 589.335,-567.839 589.411,-574.838"/>
</g>
<!-- Node20 -->
<g id="node20" class="node"><title>Node20</title>
<g id="a_node20"><a xlink:href="classd3d_util.html#a374c360bb2668c34223e74fbf0f1402b" target="_top" xlink:title="d3dUtil::LoadBinary">
<polygon fill="none" stroke="black" points="803.5,-561 803.5,-580 904.5,-580 904.5,-561 803.5,-561"/>
<text text-anchor="middle" x="854" y="-568" font-family="Helvetica,sans-Serif" font-size="10.00">d3dUtil::LoadBinary</text>
</a>
</g>
</g>
<!-- Node19&#45;&gt;Node20 -->
<g id="edge19" class="edge"><title>Node19&#45;&gt;Node20</title>
<path fill="none" stroke="midnightblue" d="M735.631,-570.5C754.408,-570.5 774.689,-570.5 793.023,-570.5"/>
<polygon fill="midnightblue" stroke="midnightblue" points="793.276,-574 803.276,-570.5 793.276,-567 793.276,-574"/>
</g>
<!-- Node21 -->
<g id="node21" class="node"><title>Node21</title>
<g id="a_node21"><a xlink:href="classd3d_util.html#ae4a68e5b73f032619ee5c2db64f57899" target="_top" xlink:title="d3dUtil::CreateDefaultBuffer">
<polygon fill="none" stroke="black" points="786,-629 786,-648 922,-648 922,-629 786,-629"/>
<text text-anchor="middle" x="854" y="-636" font-family="Helvetica,sans-Serif" font-size="10.00">d3dUtil::CreateDefaultBuffer</text>
</a>
</g>
</g>
<!-- Node19&#45;&gt;Node21 -->
<g id="edge20" class="edge"><title>Node19&#45;&gt;Node21</title>
<path fill="none" stroke="midnightblue" d="M723.148,-585.63C732.176,-588.404 741.394,-591.407 750,-594.5 775.004,-603.487 802.66,-615.416 823.013,-624.585"/>
<polygon fill="midnightblue" stroke="midnightblue" points="821.823,-627.889 832.375,-628.84 824.719,-621.516 821.823,-627.889"/>
</g>
<!-- Node22 -->
<g id="node22" class="node"><title>Node22</title>
<g id="a_node22"><a xlink:href="classd3d_util.html#acac6acd838913d63466e4f0159bfe8b0" target="_top" xlink:title="d3dUtil::CompileShader">
<polygon fill="none" stroke="black" points="794.5,-518 794.5,-537 913.5,-537 913.5,-518 794.5,-518"/>
<text text-anchor="middle" x="854" y="-525" font-family="Helvetica,sans-Serif" font-size="10.00">d3dUtil::CompileShader</text>
</a>
</g>
</g>
<!-- Node19&#45;&gt;Node22 -->
<g id="edge21" class="edge"><title>Node19&#45;&gt;Node22</title>
<path fill="none" stroke="midnightblue" d="M733.029,-555.461C755.725,-550.171 780.889,-544.306 802.286,-539.32"/>
<polygon fill="midnightblue" stroke="midnightblue" points="803.198,-542.701 812.143,-537.022 801.609,-535.883 803.198,-542.701"/>
</g>
<!-- Node24&#45;&gt;Node22 -->
<g id="edge24" class="edge"><title>Node24&#45;&gt;Node22</title>
<path fill="none" stroke="midnightblue" d="M549.166,-524.22C615.65,-524.938 717.29,-526.035 784.435,-526.76"/>
<polygon fill="midnightblue" stroke="midnightblue" points="784.456,-530.26 794.493,-526.868 784.532,-523.26 784.456,-530.26"/>
</g>
<!-- Node25&#45;&gt;Node21 -->
<g id="edge26" class="edge"><title>Node25&#45;&gt;Node21</title>
<path fill="none" stroke="midnightblue" d="M727.13,-658.967C745.377,-656 765.655,-652.702 784.513,-649.636"/>
<polygon fill="midnightblue" stroke="midnightblue" points="785.213,-653.068 794.522,-648.009 784.09,-646.159 785.213,-653.068"/>
</g>
<!-- Node27 -->
<g id="node27" class="node"><title>Node27</title>
<g id="a_node27"><a xlink:href="class_direct_x_renderer.html#a99c49dd436c922c8f21b1839b0fb6bd1" target="_top" xlink:title="DirectXRenderer::get\l_4x_msaa_state">
<polygon fill="none" stroke="black" points="614.5,-361.5 614.5,-391.5 720.5,-391.5 720.5,-361.5 614.5,-361.5"/>
<text text-anchor="start" x="622.5" y="-379.5" font-family="Helvetica,sans-Serif" font-size="10.00">DirectXRenderer::get</text>
<text text-anchor="middle" x="667.5" y="-368.5" font-family="Helvetica,sans-Serif" font-size="10.00">_4x_msaa_state</text>
</a>
</g>
</g>
<!-- Node26&#45;&gt;Node27 -->
<g id="edge28" class="edge"><title>Node26&#45;&gt;Node27</title>
<path fill="none" stroke="midnightblue" d="M541.225,-376.5C561.289,-376.5 583.793,-376.5 604.133,-376.5"/>
<polygon fill="midnightblue" stroke="midnightblue" points="604.235,-380 614.235,-376.5 604.235,-373 604.235,-380"/>
</g>
<!-- Node29&#45;&gt;Node8 -->
<g id="edge31" class="edge"><title>Node29&#45;&gt;Node8</title>
<path fill="none" stroke="midnightblue" d="M346.059,-234.957C420.937,-212.354 617.672,-155.364 786,-127.5 841.726,-118.275 906.036,-113.408 951.414,-110.92"/>
<polygon fill="midnightblue" stroke="midnightblue" points="951.858,-114.402 961.66,-110.381 951.49,-107.411 951.858,-114.402"/>
</g>
<!-- Node30 -->
<g id="node30" class="node"><title>Node30</title>
<g id="a_node30"><a xlink:href="classengine.html#a097517979864142f35d1969b5cf3d437" target="_top" xlink:title="engine::_resize">
<polygon fill="none" stroke="black" points="440,-235 440,-254 523,-254 523,-235 440,-235"/>
<text text-anchor="middle" x="481.5" y="-242" font-family="Helvetica,sans-Serif" font-size="10.00">engine::_resize</text>
</a>
</g>
</g>
<!-- Node29&#45;&gt;Node30 -->
<g id="edge32" class="edge"><title>Node29&#45;&gt;Node30</title>
<path fill="none" stroke="midnightblue" d="M352.555,-244.5C375.438,-244.5 404.972,-244.5 429.899,-244.5"/>
<polygon fill="midnightblue" stroke="midnightblue" points="429.91,-248 439.91,-244.5 429.91,-241 429.91,-248"/>
</g>
<!-- Node31 -->
<g id="node31" class="node"><title>Node31</title>
<g id="a_node31"><a xlink:href="class_direct_x_renderer.html#aceda888b20469930d5a99edc842d21a6" target="_top" xlink:title="DirectXRenderer::get\l_is_rendering">
<polygon fill="none" stroke="black" points="614.5,-273.5 614.5,-303.5 720.5,-303.5 720.5,-273.5 614.5,-273.5"/>
<text text-anchor="start" x="622.5" y="-291.5" font-family="Helvetica,sans-Serif" font-size="10.00">DirectXRenderer::get</text>
<text text-anchor="middle" x="667.5" y="-280.5" font-family="Helvetica,sans-Serif" font-size="10.00">_is_rendering</text>
</a>
</g>
</g>
<!-- Node30&#45;&gt;Node31 -->
<g id="edge33" class="edge"><title>Node30&#45;&gt;Node31</title>
<path fill="none" stroke="midnightblue" d="M522.425,-254.047C546.43,-259.788 577.486,-267.214 604.616,-273.702"/>
<polygon fill="midnightblue" stroke="midnightblue" points="603.873,-277.123 614.413,-276.044 605.501,-270.315 603.873,-277.123"/>
</g>
<!-- Node32 -->
<g id="node32" class="node"><title>Node32</title>
<g id="a_node32"><a xlink:href="class_direct_x_renderer.html#ae823daf9d77db0f506320f7171cb117d" target="_top" xlink:title="DirectXRenderer::resize">
<polygon fill="none" stroke="black" points="608,-197 608,-216 727,-216 727,-197 608,-197"/>
<text text-anchor="middle" x="667.5" y="-204" font-family="Helvetica,sans-Serif" font-size="10.00">DirectXRenderer::resize</text>
</a>
</g>
</g>
<!-- Node30&#45;&gt;Node32 -->
<g id="edge34" class="edge"><title>Node30&#45;&gt;Node32</title>
<path fill="none" stroke="midnightblue" d="M523.336,-236.067C548.889,-230.789 582.165,-223.917 610.204,-218.126"/>
<polygon fill="midnightblue" stroke="midnightblue" points="611.188,-221.497 620.273,-216.047 609.772,-214.642 611.188,-221.497"/>
</g>
<!-- Node40 -->
<g id="node40" class="node"><title>Node40</title>
<g id="a_node40"><a xlink:href="classengine.html#aad7508d4c4c0c045e5335387422bf56d" target="_top" xlink:title="engine::OnResize">
<polygon fill="none" stroke="black" points="620.5,-235 620.5,-254 714.5,-254 714.5,-235 620.5,-235"/>
<text text-anchor="middle" x="667.5" y="-242" font-family="Helvetica,sans-Serif" font-size="10.00">engine::OnResize</text>
</a>
</g>
</g>
<!-- Node30&#45;&gt;Node40 -->
<g id="edge45" class="edge"><title>Node30&#45;&gt;Node40</title>
<path fill="none" stroke="midnightblue" d="M523.336,-244.5C548.889,-244.5 582.165,-244.5 610.204,-244.5"/>
<polygon fill="midnightblue" stroke="midnightblue" points="610.273,-248 620.273,-244.5 610.273,-241 610.273,-248"/>
</g>
<!-- Node32&#45;&gt;Node28 -->
<g id="edge35" class="edge"><title>Node32&#45;&gt;Node28</title>
<path fill="none" stroke="midnightblue" d="M727,-212.915C735.363,-215.798 743.365,-219.846 750,-225.5 782.163,-252.909 755.657,-284.089 786,-313.5 787.63,-315.08 789.368,-316.561 791.192,-317.951"/>
<polygon fill="midnightblue" stroke="midnightblue" points="789.37,-320.941 799.659,-323.471 793.193,-315.077 789.37,-320.941"/>
</g>
<!-- Node33 -->
<g id="node33" class="node"><title>Node33</title>
<g id="a_node33"><a xlink:href="class_direct_x_renderer.html#a3fd16381af742f128d5a7138d65be695" target="_top" xlink:title="DirectXRenderer::get\l_depth_stencil_view">
<polygon fill="none" stroke="black" points="801,-274.5 801,-304.5 907,-304.5 907,-274.5 801,-274.5"/>
<text text-anchor="start" x="809" y="-292.5" font-family="Helvetica,sans-Serif" font-size="10.00">DirectXRenderer::get</text>
<text text-anchor="middle" x="854" y="-281.5" font-family="Helvetica,sans-Serif" font-size="10.00">_depth_stencil_view</text>
</a>
</g>
</g>
<!-- Node32&#45;&gt;Node33 -->
<g id="edge36" class="edge"><title>Node32&#45;&gt;Node33</title>
<path fill="none" stroke="midnightblue" d="M727.132,-215.675C735.114,-218.195 742.969,-221.407 750,-225.5 770.386,-237.368 766.415,-251.351 786,-264.5 788.87,-266.427 791.908,-268.23 795.044,-269.914"/>
<polygon fill="midnightblue" stroke="midnightblue" points="793.563,-273.086 804.083,-274.348 796.646,-266.802 793.563,-273.086"/>
</g>
<!-- Node34 -->
<g id="node34" class="node"><title>Node34</title>
<g id="a_node34"><a xlink:href="classengine.html#a54e5e763df5801c9289a2030635b3d52" target="_top" xlink:title="engine::get_current\l_camera">
<polygon fill="none" stroke="black" points="804,-137.5 804,-167.5 904,-167.5 904,-137.5 804,-137.5"/>
<text text-anchor="start" x="812" y="-155.5" font-family="Helvetica,sans-Serif" font-size="10.00">engine::get_current</text>
<text text-anchor="middle" x="854" y="-144.5" font-family="Helvetica,sans-Serif" font-size="10.00">_camera</text>
</a>
</g>
</g>
<!-- Node32&#45;&gt;Node34 -->
<g id="edge37" class="edge"><title>Node32&#45;&gt;Node34</title>
<path fill="none" stroke="midnightblue" d="M701.06,-196.97C726.731,-189.457 763.208,-178.781 793.987,-169.772"/>
<polygon fill="midnightblue" stroke="midnightblue" points="795.145,-173.08 803.759,-166.912 793.179,-166.362 795.145,-173.08"/>
</g>
<!-- Node36 -->
<g id="node36" class="node"><title>Node36</title>
<g id="a_node36"><a xlink:href="class_camera.html#a5619188052108689a7a3171597fca7b6" target="_top" xlink:title="Camera::SetLens">
<polygon fill="none" stroke="black" points="808,-236 808,-255 900,-255 900,-236 808,-236"/>
<text text-anchor="middle" x="854" y="-243" font-family="Helvetica,sans-Serif" font-size="10.00">Camera::SetLens</text>
</a>
</g>
</g>
<!-- Node32&#45;&gt;Node36 -->
<g id="edge40" class="edge"><title>Node32&#45;&gt;Node36</title>
<path fill="none" stroke="midnightblue" d="M713.634,-216.04C739.08,-221.419 771.065,-228.18 797.973,-233.868"/>
<polygon fill="midnightblue" stroke="midnightblue" points="797.505,-237.347 808.013,-235.991 798.953,-230.498 797.505,-237.347"/>
</g>
<!-- Node38 -->
<g id="node38" class="node"><title>Node38</title>
<g id="a_node38"><a xlink:href="classengine.html#aec4a8646ae5139982a23f45ee38b3224" target="_top" xlink:title="engine::get_aspect\l_ratio">
<polygon fill="none" stroke="black" points="804.5,-186.5 804.5,-216.5 903.5,-216.5 903.5,-186.5 804.5,-186.5"/>
<text text-anchor="start" x="812.5" y="-204.5" font-family="Helvetica,sans-Serif" font-size="10.00">engine::get_aspect</text>
<text text-anchor="middle" x="854" y="-193.5" font-family="Helvetica,sans-Serif" font-size="10.00">_ratio</text>
</a>
</g>
</g>
<!-- Node32&#45;&gt;Node38 -->
<g id="edge42" class="edge"><title>Node32&#45;&gt;Node38</title>
<path fill="none" stroke="midnightblue" d="M727.13,-204.911C748.53,-204.331 772.727,-203.675 794.146,-203.095"/>
<polygon fill="midnightblue" stroke="midnightblue" points="794.512,-206.586 804.414,-202.817 794.322,-199.589 794.512,-206.586"/>
</g>
<!-- Node34&#45;&gt;Node8 -->
<g id="edge38" class="edge"><title>Node34&#45;&gt;Node8</title>
<path fill="none" stroke="midnightblue" d="M904.043,-138.578C924.133,-132.875 947.186,-126.331 966.648,-120.807"/>
<polygon fill="midnightblue" stroke="midnightblue" points="967.799,-124.118 976.463,-118.02 965.887,-117.384 967.799,-124.118"/>
</g>
<!-- Node35 -->
<g id="node35" class="node"><title>Node35</title>
<g id="a_node35"><a xlink:href="class_direct_x_renderer.html#a8232561ca218d26c0f70d9f9b3dbcea6" target="_top" xlink:title="DirectXRenderer::get\l_current_camera">
<polygon fill="none" stroke="black" points="958,-137.5 958,-167.5 1064,-167.5 1064,-137.5 958,-137.5"/>
<text text-anchor="start" x="966" y="-155.5" font-family="Helvetica,sans-Serif" font-size="10.00">DirectXRenderer::get</text>
<text text-anchor="middle" x="1011" y="-144.5" font-family="Helvetica,sans-Serif" font-size="10.00">_current_camera</text>
</a>
</g>
</g>
<!-- Node34&#45;&gt;Node35 -->
<g id="edge39" class="edge"><title>Node34&#45;&gt;Node35</title>
<path fill="none" stroke="midnightblue" d="M904.043,-152.5C917.817,-152.5 932.984,-152.5 947.432,-152.5"/>
<polygon fill="midnightblue" stroke="midnightblue" points="947.794,-156 957.794,-152.5 947.794,-149 947.794,-156"/>
</g>
<!-- Node37 -->
<g id="node37" class="node"><title>Node37</title>
<g id="a_node37"><a xlink:href="class_camera.html#a34d7f37c11a8e47788cd360940076874" target="_top" xlink:title="Camera::LookAt">
<polygon fill="none" stroke="black" points="967.5,-236 967.5,-255 1054.5,-255 1054.5,-236 967.5,-236"/>
<text text-anchor="middle" x="1011" y="-243" font-family="Helvetica,sans-Serif" font-size="10.00">Camera::LookAt</text>
</a>
</g>
</g>
<!-- Node36&#45;&gt;Node37 -->
<g id="edge41" class="edge"><title>Node36&#45;&gt;Node37</title>
<path fill="none" stroke="midnightblue" d="M900.249,-245.5C918.118,-245.5 938.77,-245.5 957.306,-245.5"/>
<polygon fill="midnightblue" stroke="midnightblue" points="957.355,-249 967.355,-245.5 957.355,-242 957.355,-249"/>
</g>
<!-- Node38&#45;&gt;Node8 -->
<g id="edge43" class="edge"><title>Node38&#45;&gt;Node8</title>
<path fill="none" stroke="midnightblue" d="M903.628,-187.241C910.127,-184.246 916.453,-180.692 922,-176.5 943.56,-160.207 936.385,-143.719 958,-127.5 960.458,-125.656 963.113,-123.976 965.877,-122.448"/>
<polygon fill="midnightblue" stroke="midnightblue" points="967.479,-125.561 974.972,-118.071 964.443,-119.254 967.479,-125.561"/>
</g>
<!-- Node39 -->
<g id="node39" class="node"><title>Node39</title>
<g id="a_node39"><a xlink:href="classengine.html#ad86c3cbf7b32238e3220bf099d9f3f07" target="_top" xlink:title="engine::_get_aspect\l_ratio">
<polygon fill="none" stroke="black" points="959,-186.5 959,-216.5 1063,-216.5 1063,-186.5 959,-186.5"/>
<text text-anchor="start" x="967" y="-204.5" font-family="Helvetica,sans-Serif" font-size="10.00">engine::_get_aspect</text>
<text text-anchor="middle" x="1011" y="-193.5" font-family="Helvetica,sans-Serif" font-size="10.00">_ratio</text>
</a>
</g>
</g>
<!-- Node38&#45;&gt;Node39 -->
<g id="edge44" class="edge"><title>Node38&#45;&gt;Node39</title>
<path fill="none" stroke="midnightblue" d="M903.618,-201.5C917.901,-201.5 933.711,-201.5 948.678,-201.5"/>
<polygon fill="midnightblue" stroke="midnightblue" points="948.876,-205 958.876,-201.5 948.876,-198 948.876,-205"/>
</g>
</g>
</svg>
        <g id="navigator" transform="translate(0 0)" fill="#404254">
                <rect fill="#f2f5e9" fill-opacity="0.5" stroke="#606060" stroke-width=".5" x="0" y="0" width="60" height="60"/>
                <use id="zoomplus" xlink:href="#zoomPlus" x="17" y="9" onmousedown="handleZoom(evt,'in')"/>
                <use id="zoomminus" xlink:href="#zoomMin" x="42" y="9" onmousedown="handleZoom(evt,'out')"/>
                <use id="reset" xlink:href="#resetDef" x="30" y="36" onmousedown="handleReset()"/>
                <g id="arrowUp" xlink:href="#dirArrow" transform="translate(30 24)" onmousedown="handlePan(0,-1)">
                  <use xlink:href="#rim" fill="#404040">
                        <set attributeName="fill" to="#808080" begin="arrowUp.mouseover" end="arrowUp.mouseout"/>
                  </use>
                  <path fill="none" stroke="white" stroke-width="1.5" d="M0,-3.0v7 M-2.5,-0.5L0,-3.0L2.5,-0.5"/>
                </g>
                <g id="arrowRight" xlink:href="#dirArrow" transform="rotate(90) translate(36 -43)" onmousedown="handlePan(1,0)">
                  <use xlink:href="#rim" fill="#404040">
                        <set attributeName="fill" to="#808080" begin="arrowRight.mouseover" end="arrowRight.mouseout"/>
                  </use>
                  <path fill="none" stroke="white" stroke-width="1.5" d="M0,-3.0v7 M-2.5,-0.5L0,-3.0L2.5,-0.5"/>
                </g>
                <g id="arrowDown" xlink:href="#dirArrow" transform="rotate(180) translate(-30 -48)" onmousedown="handlePan(0,1)">
                  <use xlink:href="#rim" fill="#404040">
                        <set attributeName="fill" to="#808080" begin="arrowDown.mouseover" end="arrowDown.mouseout"/>
                  </use>
                  <path fill="none" stroke="white" stroke-width="1.5" d="M0,-3.0v7 M-2.5,-0.5L0,-3.0L2.5,-0.5"/>
                </g>
                <g id="arrowLeft" xlink:href="#dirArrow" transform="rotate(270) translate(-36 17)" onmousedown="handlePan(-1,0)">
                  <use xlink:href="#rim" fill="#404040">
                        <set attributeName="fill" to="#808080" begin="arrowLeft.mouseover" end="arrowLeft.mouseout"/>
                  </use>
                  <path fill="none" stroke="white" stroke-width="1.5" d="M0,-3.0v7 M-2.5,-0.5L0,-3.0L2.5,-0.5"/>
                </g>
        </g>
        <svg viewBox="0 0 15 15" width="100%" height="30px" preserveAspectRatio="xMaxYMin meet">
         <g id="arrow_out" transform="scale(0.3 0.3)">
          <a xlink:href="classengine_a6809dcdfe78011851e377d4729a87ee4_cgraph_org.svg" target="_base">
           <rect id="button" ry="5" rx="5" y="6" x="6" height="38" width="38"
                fill="#f2f5e9" fill-opacity="0.5" stroke="#606060" stroke-width="1.0"/>
           <path id="arrow"
             d="M 11.500037,31.436501 C 11.940474,20.09759 22.043105,11.32322 32.158766,21.979434 L 37.068811,17.246167 C 37.068811,17.246167 37.088388,32 37.088388,32 L 22.160133,31.978069 C 22.160133,31.978069 26.997745,27.140456 26.997745,27.140456 C 18.528582,18.264221 13.291696,25.230495 11.500037,31.436501 z"
             style="fill:#404040;"/>
          </a>
         </g>
        </svg>
</svg>
