<?xml version="1.0" encoding="UTF-8" standalone="no"?>
<!DOCTYPE svg PUBLIC "-//W3C//DTD SVG 1.1//EN"
 "http://www.w3.org/Graphics/SVG/1.1/DTD/svg11.dtd">
<!-- Generated by graphviz version 2.38.0 (20140413.2041)
 -->
<!-- Title: DirectXRenderer::create_shaders_and_input_layout Pages: 1 -->
<svg width="975pt" height="104pt"
 viewBox="0.00 0.00 975.00 104.00" xmlns="http://www.w3.org/2000/svg" xmlns:xlink="http://www.w3.org/1999/xlink">
<g id="graph0" class="graph" transform="scale(1 1) rotate(0) translate(4 100)">
<title>DirectXRenderer::create_shaders_and_input_layout</title>
<!-- Node1 -->
<g id="node1" class="node"><title>Node1</title>
<polygon fill="#bfbfbf" stroke="black" points="0,-52 0,-82 135,-82 135,-52 0,-52"/>
<text text-anchor="start" x="8" y="-70" font-family="Helvetica,sans-Serif" font-size="10.00">DirectXRenderer::create</text>
<text text-anchor="middle" x="67.5" y="-59" font-family="Helvetica,sans-Serif" font-size="10.00">_shaders_and_input_layout</text>
</g>
<!-- Node2 -->
<g id="node2" class="node"><title>Node2</title>
<g id="a_node2"><a xlink:href="class_direct_x_renderer.html#a0d6aef4c838ac765f726391ee65c346c" target="_top" xlink:title="DirectXRenderer::initialize\l_direct3d">
<polygon fill="none" stroke="black" points="171,-52 171,-82 299,-82 299,-52 171,-52"/>
<text text-anchor="start" x="179" y="-70" font-family="Helvetica,sans-Serif" font-size="10.00">DirectXRenderer::initialize</text>
<text text-anchor="middle" x="235" y="-59" font-family="Helvetica,sans-Serif" font-size="10.00">_direct3d</text>
</a>
</g>
</g>
<!-- Node1&#45;&gt;Node2 -->
<g id="edge1" class="edge"><title>Node1&#45;&gt;Node2</title>
<path fill="none" stroke="midnightblue" d="M145.617,-67C154.096,-67 162.654,-67 170.933,-67"/>
<polygon fill="midnightblue" stroke="midnightblue" points="145.338,-63.5001 135.338,-67 145.338,-70.5001 145.338,-63.5001"/>
</g>
<!-- Node3 -->
<g id="node3" class="node"><title>Node3</title>
<g id="a_node3"><a xlink:href="classengine.html#a8b8dd82e72fd73e0601c30041529c4c0" target="_top" xlink:title="engine::_initialize">
<polygon fill="none" stroke="black" points="335,-57.5 335,-76.5 427,-76.5 427,-57.5 335,-57.5"/>
<text text-anchor="middle" x="381" y="-64.5" font-family="Helvetica,sans-Serif" font-size="10.00">engine::_initialize</text>
</a>
</g>
</g>
<!-- Node2&#45;&gt;Node3 -->
<g id="edge2" class="edge"><title>Node2&#45;&gt;Node3</title>
<path fill="none" stroke="midnightblue" d="M309.283,-67C317.922,-67 326.536,-67 334.627,-67"/>
<polygon fill="midnightblue" stroke="midnightblue" points="309.161,-63.5001 299.16,-67 309.16,-70.5001 309.161,-63.5001"/>
</g>
<!-- Node4 -->
<g id="node4" class="node"><title>Node4</title>
<g id="a_node4"><a xlink:href="classengine.html#a6809dcdfe78011851e377d4729a87ee4" target="_top" xlink:title="engine::initialize">
<polygon fill="none" stroke="black" points="463,-76.5 463,-95.5 549,-95.5 549,-76.5 463,-76.5"/>
<text text-anchor="middle" x="506" y="-83.5" font-family="Helvetica,sans-Serif" font-size="10.00">engine::initialize</text>
</a>
</g>
</g>
<!-- Node3&#45;&gt;Node4 -->
<g id="edge3" class="edge"><title>Node3&#45;&gt;Node4</title>
<path fill="none" stroke="midnightblue" d="M437.097,-75.5109C445.712,-76.8417 454.497,-78.1987 462.765,-79.4758"/>
<polygon fill="midnightblue" stroke="midnightblue" points="437.519,-72.0347 427.102,-73.967 436.451,-78.9527 437.519,-72.0347"/>
</g>
<!-- Node5 -->
<g id="node5" class="node"><title>Node5</title>
<g id="a_node5"><a xlink:href="classengine.html#ada832d0a14502f1b99fdbd5c72cab01b" target="_top" xlink:title="engine::Draw">
<polygon fill="none" stroke="black" points="469.5,-38.5 469.5,-57.5 542.5,-57.5 542.5,-38.5 469.5,-38.5"/>
<text text-anchor="middle" x="506" y="-45.5" font-family="Helvetica,sans-Serif" font-size="10.00">engine::Draw</text>
</a>
</g>
</g>
<!-- Node3&#45;&gt;Node5 -->
<g id="edge4" class="edge"><title>Node3&#45;&gt;Node5</title>
<path fill="none" stroke="midnightblue" d="M436.998,-58.5044C447.9,-56.8203 459.079,-55.0935 469.142,-53.5391"/>
<polygon fill="midnightblue" stroke="midnightblue" points="436.451,-55.0473 427.102,-60.033 437.519,-61.9653 436.451,-55.0473"/>
</g>
<!-- Node6 -->
<g id="node6" class="node"><title>Node6</title>
<g id="a_node6"><a xlink:href="classengine.html#a90418b124cd07d7d2f057e7d401ed641" target="_top" xlink:title="engine::_tick">
<polygon fill="none" stroke="black" points="585,-57.5 585,-76.5 657,-76.5 657,-57.5 585,-57.5"/>
<text text-anchor="middle" x="621" y="-64.5" font-family="Helvetica,sans-Serif" font-size="10.00">engine::_tick</text>
</a>
</g>
</g>
<!-- Node5&#45;&gt;Node6 -->
<g id="edge5" class="edge"><title>Node5&#45;&gt;Node6</title>
<path fill="none" stroke="midnightblue" d="M552.921,-49.0775C567.923,-51.2953 583.957,-54.3417 596.586,-57.4705"/>
<polygon fill="midnightblue" stroke="midnightblue" points="553.137,-45.5744 542.754,-47.6836 552.186,-52.5095 553.137,-45.5744"/>
</g>
<!-- Node6&#45;&gt;Node5 -->
<g id="edge11" class="edge"><title>Node6&#45;&gt;Node5</title>
<path fill="none" stroke="midnightblue" d="M574.371,-65.9655C559.285,-63.7442 543.125,-60.6786 530.414,-57.5295"/>
<polygon fill="midnightblue" stroke="midnightblue" points="574.206,-69.4754 584.588,-67.3592 575.152,-62.5397 574.206,-69.4754"/>
</g>
<!-- Node7 -->
<g id="node7" class="node"><title>Node7</title>
<g id="a_node7"><a xlink:href="classengine.html#a4bca5e9257e46c09a63f71227fc25a12" target="_top" xlink:title="engine::tick">
<polygon fill="none" stroke="black" points="693,-19.5 693,-38.5 760,-38.5 760,-19.5 693,-19.5"/>
<text text-anchor="middle" x="726.5" y="-26.5" font-family="Helvetica,sans-Serif" font-size="10.00">engine::tick</text>
</a>
</g>
</g>
<!-- Node6&#45;&gt;Node7 -->
<g id="edge6" class="edge"><title>Node6&#45;&gt;Node7</title>
<path fill="none" stroke="midnightblue" d="M657.729,-53.882C671.418,-48.8561 686.767,-43.2209 699.391,-38.5859"/>
<polygon fill="midnightblue" stroke="midnightblue" points="656.298,-50.6788 648.117,-57.411 658.711,-57.2499 656.298,-50.6788"/>
</g>
<!-- Node7&#45;&gt;Node5 -->
<g id="edge10" class="edge"><title>Node7&#45;&gt;Node5</title>
<path fill="none" stroke="midnightblue" d="M682.585,-32.7318C641.696,-36.2873 580.86,-41.5774 542.592,-44.905"/>
<polygon fill="midnightblue" stroke="midnightblue" points="683.122,-36.1984 692.781,-31.8451 682.515,-29.2247 683.122,-36.1984"/>
</g>
<!-- Node8 -->
<g id="node8" class="node"><title>Node8</title>
<g id="a_node8"><a xlink:href="classengine.html#a1d9b806d03be0255a8ac3c119e181cc5" target="_top" xlink:title="engine::_run">
<polygon fill="none" stroke="black" points="796,-0.5 796,-19.5 866,-19.5 866,-0.5 796,-0.5"/>
<text text-anchor="middle" x="831" y="-7.5" font-family="Helvetica,sans-Serif" font-size="10.00">engine::_run</text>
</a>
</g>
</g>
<!-- Node7&#45;&gt;Node8 -->
<g id="edge7" class="edge"><title>Node7&#45;&gt;Node8</title>
<path fill="none" stroke="midnightblue" d="M770.077,-21.1076C778.662,-19.5164 787.581,-17.8631 795.832,-16.3335"/>
<polygon fill="midnightblue" stroke="midnightblue" points="769.408,-17.672 760.213,-22.936 770.684,-24.5547 769.408,-17.672"/>
</g>
<!-- Node8&#45;&gt;Node5 -->
<g id="edge9" class="edge"><title>Node8&#45;&gt;Node5</title>
<path fill="none" stroke="midnightblue" d="M785.606,-7.84934C758.741,-7.08197 723.829,-7.03059 693,-10 644.326,-14.6883 632.892,-21.1262 585,-31 571.154,-33.8545 555.959,-37.1331 542.688,-40.0447"/>
<polygon fill="midnightblue" stroke="midnightblue" points="785.741,-11.3556 795.851,-8.1874 785.972,-4.35941 785.741,-11.3556"/>
</g>
<!-- Node9 -->
<g id="node9" class="node"><title>Node9</title>
<g id="a_node9"><a xlink:href="classengine.html#aecb22d51cc8f83cacbf3696a18d66c30" target="_top" xlink:title="engine::run">
<polygon fill="none" stroke="black" points="902,-0.5 902,-19.5 967,-19.5 967,-0.5 902,-0.5"/>
<text text-anchor="middle" x="934.5" y="-7.5" font-family="Helvetica,sans-Serif" font-size="10.00">engine::run</text>
</a>
</g>
</g>
<!-- Node8&#45;&gt;Node9 -->
<g id="edge8" class="edge"><title>Node8&#45;&gt;Node9</title>
<path fill="none" stroke="midnightblue" d="M876.325,-10C884.879,-10 893.681,-10 901.737,-10"/>
<polygon fill="midnightblue" stroke="midnightblue" points="876.08,-6.5001 866.08,-10 876.08,-13.5001 876.08,-6.5001"/>
</g>
</g>
</svg>
