<?xml version="1.0" encoding="UTF-8" standalone="no"?>
<!DOCTYPE svg PUBLIC "-//W3C//DTD SVG 1.1//EN"
 "http://www.w3.org/Graphics/SVG/1.1/DTD/svg11.dtd">
<!-- Generated by graphviz version 2.38.0 (20140413.2041)
 -->
<!-- Title: WindowsMessageHandler Pages: 1 -->
<svg width="4499pt" height="171pt"
 viewBox="0.00 0.00 4499.00 171.00" xmlns="http://www.w3.org/2000/svg" xmlns:xlink="http://www.w3.org/1999/xlink">
<g id="graph0" class="graph" transform="scale(1 1) rotate(0) translate(4 167)">
<title>WindowsMessageHandler</title>
<!-- Node1 -->
<g id="node1" class="node"><title>Node1</title>
<polygon fill="#bfbfbf" stroke="black" points="2217,-105.5 2217,-162.5 2346,-162.5 2346,-105.5 2217,-105.5"/>
<text text-anchor="middle" x="2281.5" y="-150.5" font-family="Helvetica,sans-Serif" font-size="10.00">WindowsMessageHandler</text>
<polyline fill="none" stroke="black" points="2217,-143.5 2346,-143.5 "/>
<text text-anchor="middle" x="2281.5" y="-131.5" font-family="Helvetica,sans-Serif" font-size="10.00"> </text>
<polyline fill="none" stroke="black" points="2217,-124.5 2346,-124.5 "/>
<text text-anchor="start" x="2225" y="-112.5" font-family="Helvetica,sans-Serif" font-size="10.00">+ execute()</text>
</g>
<!-- Node2 -->
<g id="node2" class="node"><title>Node2</title>
<g id="a_node2"><a xlink:href="class_w_m___a_c_t_i_v_a_t_e___handler.html" target="_top" xlink:title="{WM_ACTIVATE_Handler\n||}">
<polygon fill="none" stroke="black" points="0,-6 0,-63 125,-63 125,-6 0,-6"/>
<text text-anchor="middle" x="62.5" y="-51" font-family="Helvetica,sans-Serif" font-size="10.00">WM_ACTIVATE_Handler</text>
<polyline fill="none" stroke="black" points="0,-44 125,-44 "/>
<text text-anchor="middle" x="62.5" y="-32" font-family="Helvetica,sans-Serif" font-size="10.00"> </text>
<polyline fill="none" stroke="black" points="0,-25 125,-25 "/>
<text text-anchor="middle" x="62.5" y="-13" font-family="Helvetica,sans-Serif" font-size="10.00"> </text>
</a>
</g>
</g>
<!-- Node1&#45;&gt;Node2 -->
<g id="edge1" class="edge"><title>Node1&#45;&gt;Node2</title>
<path fill="none" stroke="midnightblue" d="M2206.76,-132.56C1851.13,-130.224 339.2,-117.5 134.5,-69 128.195,-67.5061 121.778,-65.4315 115.503,-63.0399"/>
<polygon fill="none" stroke="midnightblue" points="2206.91,-136.061 2216.94,-132.626 2206.96,-129.061 2206.91,-136.061"/>
</g>
<!-- Node3 -->
<g id="node3" class="node"><title>Node3</title>
<g id="a_node3"><a xlink:href="class_w_m___c_a_p_t_u_r_e_c_h_a_n_g_e_d___handler.html" target="_top" xlink:title="{WM_CAPTURECHANGED_Handler\n||}">
<polygon fill="none" stroke="black" points="143.5,-6 143.5,-63 315.5,-63 315.5,-6 143.5,-6"/>
<text text-anchor="middle" x="229.5" y="-51" font-family="Helvetica,sans-Serif" font-size="10.00">WM_CAPTURECHANGED_Handler</text>
<polyline fill="none" stroke="black" points="143.5,-44 315.5,-44 "/>
<text text-anchor="middle" x="229.5" y="-32" font-family="Helvetica,sans-Serif" font-size="10.00"> </text>
<polyline fill="none" stroke="black" points="143.5,-25 315.5,-25 "/>
<text text-anchor="middle" x="229.5" y="-13" font-family="Helvetica,sans-Serif" font-size="10.00"> </text>
</a>
</g>
</g>
<!-- Node1&#45;&gt;Node3 -->
<g id="edge2" class="edge"><title>Node1&#45;&gt;Node3</title>
<path fill="none" stroke="midnightblue" d="M2206.82,-131.953C1870.27,-126.955 503.252,-104.302 315.5,-69 307.508,-67.4973 299.285,-65.4352 291.232,-63.0666"/>
<polygon fill="none" stroke="midnightblue" points="2206.9,-135.454 2216.95,-132.102 2207,-128.455 2206.9,-135.454"/>
</g>
<!-- Node1&#45;&gt;Node3 -->
<g id="edge3" class="edge"><title>Node1&#45;&gt;Node3</title>
<path fill="none" stroke="midnightblue" d="M2206.91,-131.864C1872.51,-126.693 520.167,-104.098 333.5,-69 325.508,-67.4973 317.285,-65.4352 309.124,-63.0666"/>
<polygon fill="none" stroke="midnightblue" points="2206.92,-135.365 2216.97,-132.019 2207.03,-128.366 2206.92,-135.365"/>
</g>
<!-- Node4 -->
<g id="node4" class="node"><title>Node4</title>
<g id="a_node4"><a xlink:href="class_w_m___c_l_o_s_e___handler.html" target="_top" xlink:title="{WM_CLOSE_Handler\n||}">
<polygon fill="none" stroke="black" points="334,-6 334,-63 445,-63 445,-6 334,-6"/>
<text text-anchor="middle" x="389.5" y="-51" font-family="Helvetica,sans-Serif" font-size="10.00">WM_CLOSE_Handler</text>
<polyline fill="none" stroke="black" points="334,-44 445,-44 "/>
<text text-anchor="middle" x="389.5" y="-32" font-family="Helvetica,sans-Serif" font-size="10.00"> </text>
<polyline fill="none" stroke="black" points="334,-25 445,-25 "/>
<text text-anchor="middle" x="389.5" y="-13" font-family="Helvetica,sans-Serif" font-size="10.00"> </text>
</a>
</g>
</g>
<!-- Node1&#45;&gt;Node4 -->
<g id="edge4" class="edge"><title>Node1&#45;&gt;Node4</title>
<path fill="none" stroke="midnightblue" d="M2206.8,-132.341C1884.9,-129.238 624.662,-114.278 453.5,-69 447.802,-67.4926 442.038,-65.4095 436.426,-63.013"/>
<polygon fill="none" stroke="midnightblue" points="2206.92,-135.843 2216.96,-132.438 2206.99,-128.843 2206.92,-135.843"/>
</g>
<!-- Node5 -->
<g id="node5" class="node"><title>Node5</title>
<g id="a_node5"><a xlink:href="class_w_m___d_e_s_t_r_o_y___handler.html" target="_top" xlink:title="{WM_DESTROY_Handler\n||}">
<polygon fill="none" stroke="black" points="463,-6 463,-63 588,-63 588,-6 463,-6"/>
<text text-anchor="middle" x="525.5" y="-51" font-family="Helvetica,sans-Serif" font-size="10.00">WM_DESTROY_Handler</text>
<polyline fill="none" stroke="black" points="463,-44 588,-44 "/>
<text text-anchor="middle" x="525.5" y="-32" font-family="Helvetica,sans-Serif" font-size="10.00"> </text>
<polyline fill="none" stroke="black" points="463,-25 588,-25 "/>
<text text-anchor="middle" x="525.5" y="-13" font-family="Helvetica,sans-Serif" font-size="10.00"> </text>
</a>
</g>
</g>
<!-- Node1&#45;&gt;Node5 -->
<g id="edge5" class="edge"><title>Node1&#45;&gt;Node5</title>
<path fill="none" stroke="midnightblue" d="M2206.46,-131.92C1900.23,-127.271 753.973,-107.438 596.5,-69 590.409,-67.5133 584.215,-65.4792 578.151,-63.1425"/>
<polygon fill="none" stroke="midnightblue" points="2206.51,-135.421 2216.56,-132.072 2206.62,-128.422 2206.51,-135.421"/>
</g>
<!-- Node6 -->
<g id="node6" class="node"><title>Node6</title>
<g id="a_node6"><a xlink:href="class_w_m___e_n_t_e_r_s_i_z_e_m_o_v_e___handler.html" target="_top" xlink:title="{WM_ENTERSIZEMOVE_Handler\n||}">
<polygon fill="none" stroke="black" points="606,-6 606,-63 767,-63 767,-6 606,-6"/>
<text text-anchor="middle" x="686.5" y="-51" font-family="Helvetica,sans-Serif" font-size="10.00">WM_ENTERSIZEMOVE_Handler</text>
<polyline fill="none" stroke="black" points="606,-44 767,-44 "/>
<text text-anchor="middle" x="686.5" y="-32" font-family="Helvetica,sans-Serif" font-size="10.00"> </text>
<polyline fill="none" stroke="black" points="606,-25 767,-25 "/>
<text text-anchor="middle" x="686.5" y="-13" font-family="Helvetica,sans-Serif" font-size="10.00"> </text>
</a>
</g>
</g>
<!-- Node1&#45;&gt;Node6 -->
<g id="edge6" class="edge"><title>Node1&#45;&gt;Node6</title>
<path fill="none" stroke="midnightblue" d="M2206.63,-132.91C1942.42,-132.11 1054.6,-125.204 776.5,-69 768.983,-67.4807 761.261,-65.4258 753.651,-63.0768"/>
<polygon fill="none" stroke="midnightblue" points="2206.88,-136.411 2216.89,-132.939 2206.9,-129.411 2206.88,-136.411"/>
</g>
<!-- Node7 -->
<g id="node7" class="node"><title>Node7</title>
<g id="a_node7"><a xlink:href="class_w_m___e_r_a_s_e_b_k_g_n_d___handler.html" target="_top" xlink:title="{WM_ERASEBKGND_Handler\n||}">
<polygon fill="none" stroke="black" points="785.5,-6 785.5,-63 931.5,-63 931.5,-6 785.5,-6"/>
<text text-anchor="middle" x="858.5" y="-51" font-family="Helvetica,sans-Serif" font-size="10.00">WM_ERASEBKGND_Handler</text>
<polyline fill="none" stroke="black" points="785.5,-44 931.5,-44 "/>
<text text-anchor="middle" x="858.5" y="-32" font-family="Helvetica,sans-Serif" font-size="10.00"> </text>
<polyline fill="none" stroke="black" points="785.5,-25 931.5,-25 "/>
<text text-anchor="middle" x="858.5" y="-13" font-family="Helvetica,sans-Serif" font-size="10.00"> </text>
</a>
</g>
</g>
<!-- Node1&#45;&gt;Node7 -->
<g id="edge7" class="edge"><title>Node1&#45;&gt;Node7</title>
<path fill="none" stroke="midnightblue" d="M2206.59,-132.758C1961.41,-131.445 1184.62,-123.018 940.5,-69 933.593,-67.4717 926.521,-65.4109 919.565,-63.0585"/>
<polygon fill="none" stroke="midnightblue" points="2206.81,-136.259 2216.83,-132.811 2206.85,-129.259 2206.81,-136.259"/>
</g>
<!-- Node8 -->
<g id="node8" class="node"><title>Node8</title>
<g id="a_node8"><a xlink:href="class_w_m___e_x_i_t_s_i_z_e_m_o_v_e___handler.html" target="_top" xlink:title="{WM_EXITSIZEMOVE_Handler\n||}">
<polygon fill="none" stroke="black" points="949.5,-6 949.5,-63 1097.5,-63 1097.5,-6 949.5,-6"/>
<text text-anchor="middle" x="1023.5" y="-51" font-family="Helvetica,sans-Serif" font-size="10.00">WM_EXITSIZEMOVE_Handler</text>
<polyline fill="none" stroke="black" points="949.5,-44 1097.5,-44 "/>
<text text-anchor="middle" x="1023.5" y="-32" font-family="Helvetica,sans-Serif" font-size="10.00"> </text>
<polyline fill="none" stroke="black" points="949.5,-25 1097.5,-25 "/>
<text text-anchor="middle" x="1023.5" y="-13" font-family="Helvetica,sans-Serif" font-size="10.00"> </text>
</a>
</g>
</g>
<!-- Node1&#45;&gt;Node8 -->
<g id="edge8" class="edge"><title>Node1&#45;&gt;Node8</title>
<path fill="none" stroke="midnightblue" d="M2206.84,-132.131C1982.59,-129.018 1317.5,-115.967 1106.5,-69 1099.52,-67.447 1092.37,-65.3704 1085.34,-63.0086"/>
<polygon fill="none" stroke="midnightblue" points="2206.81,-135.631 2216.86,-132.268 2206.91,-128.632 2206.81,-135.631"/>
</g>
<!-- Node9 -->
<g id="node9" class="node"><title>Node9</title>
<g id="a_node9"><a xlink:href="class_w_m___g_e_t_i_c_o_n___handler.html" target="_top" xlink:title="{WM_GETICON_Handler\n||}">
<polygon fill="none" stroke="black" points="1116,-6 1116,-63 1237,-63 1237,-6 1116,-6"/>
<text text-anchor="middle" x="1176.5" y="-51" font-family="Helvetica,sans-Serif" font-size="10.00">WM_GETICON_Handler</text>
<polyline fill="none" stroke="black" points="1116,-44 1237,-44 "/>
<text text-anchor="middle" x="1176.5" y="-32" font-family="Helvetica,sans-Serif" font-size="10.00"> </text>
<polyline fill="none" stroke="black" points="1116,-25 1237,-25 "/>
<text text-anchor="middle" x="1176.5" y="-13" font-family="Helvetica,sans-Serif" font-size="10.00"> </text>
</a>
</g>
</g>
<!-- Node1&#45;&gt;Node9 -->
<g id="edge9" class="edge"><title>Node1&#45;&gt;Node9</title>
<path fill="none" stroke="midnightblue" d="M2206.53,-132.079C2000.36,-128.956 1428.14,-116.166 1246.5,-69 1240.63,-67.4762 1234.66,-65.453 1228.81,-63.1531"/>
<polygon fill="none" stroke="midnightblue" points="2206.6,-135.58 2216.65,-132.229 2206.71,-128.581 2206.6,-135.58"/>
</g>
<!-- Node10 -->
<g id="node10" class="node"><title>Node10</title>
<g id="a_node10"><a xlink:href="class_w_m___g_e_t_m_i_n_m_a_x_i_n_f_o___handler.html" target="_top" xlink:title="{WM_GETMINMAXINFO_Handler\n||}">
<polygon fill="none" stroke="black" points="1255.5,-6 1255.5,-63 1413.5,-63 1413.5,-6 1255.5,-6"/>
<text text-anchor="middle" x="1334.5" y="-51" font-family="Helvetica,sans-Serif" font-size="10.00">WM_GETMINMAXINFO_Handler</text>
<polyline fill="none" stroke="black" points="1255.5,-44 1413.5,-44 "/>
<text text-anchor="middle" x="1334.5" y="-32" font-family="Helvetica,sans-Serif" font-size="10.00"> </text>
<polyline fill="none" stroke="black" points="1255.5,-25 1413.5,-25 "/>
<text text-anchor="middle" x="1334.5" y="-13" font-family="Helvetica,sans-Serif" font-size="10.00"> </text>
</a>
</g>
</g>
<!-- Node1&#45;&gt;Node10 -->
<g id="edge10" class="edge"><title>Node1&#45;&gt;Node10</title>
<path fill="none" stroke="midnightblue" d="M2206.81,-130.206C2026.44,-123.014 1571.06,-102.074 1422.5,-69 1415.32,-67.4014 1407.94,-65.3297 1400.66,-63.0006"/>
<polygon fill="none" stroke="midnightblue" points="2206.86,-133.711 2216.99,-130.609 2207.14,-126.717 2206.86,-133.711"/>
</g>
<!-- Node11 -->
<g id="node11" class="node"><title>Node11</title>
<g id="a_node11"><a xlink:href="class_w_m___k_e_y_u_p___handler.html" target="_top" xlink:title="{WM_KEYUP_Handler\n||}">
<polygon fill="none" stroke="black" points="1431.5,-6 1431.5,-63 1543.5,-63 1543.5,-6 1431.5,-6"/>
<text text-anchor="middle" x="1487.5" y="-51" font-family="Helvetica,sans-Serif" font-size="10.00">WM_KEYUP_Handler</text>
<polyline fill="none" stroke="black" points="1431.5,-44 1543.5,-44 "/>
<text text-anchor="middle" x="1487.5" y="-32" font-family="Helvetica,sans-Serif" font-size="10.00"> </text>
<polyline fill="none" stroke="black" points="1431.5,-25 1543.5,-25 "/>
<text text-anchor="middle" x="1487.5" y="-13" font-family="Helvetica,sans-Serif" font-size="10.00"> </text>
</a>
</g>
</g>
<!-- Node1&#45;&gt;Node11 -->
<g id="edge11" class="edge"><title>Node1&#45;&gt;Node11</title>
<path fill="none" stroke="midnightblue" d="M2206.65,-130.097C2046.19,-123.277 1673.78,-104.102 1552.5,-69 1547.01,-67.4118 1541.45,-65.3468 1536,-63.0217"/>
<polygon fill="none" stroke="midnightblue" points="2206.77,-133.605 2216.91,-130.528 2207.07,-126.611 2206.77,-133.605"/>
</g>
<!-- Node12 -->
<g id="node12" class="node"><title>Node12</title>
<g id="a_node12"><a xlink:href="class_w_m___l_b_u_t_t_o_n_d_o_w_n___handler.html" target="_top" xlink:title="{WM_LBUTTONDOWN_Handler\n||}">
<polygon fill="none" stroke="black" points="1561.5,-6 1561.5,-63 1713.5,-63 1713.5,-6 1561.5,-6"/>
<text text-anchor="middle" x="1637.5" y="-51" font-family="Helvetica,sans-Serif" font-size="10.00">WM_LBUTTONDOWN_Handler</text>
<polyline fill="none" stroke="black" points="1561.5,-44 1713.5,-44 "/>
<text text-anchor="middle" x="1637.5" y="-32" font-family="Helvetica,sans-Serif" font-size="10.00"> </text>
<polyline fill="none" stroke="black" points="1561.5,-25 1713.5,-25 "/>
<text text-anchor="middle" x="1637.5" y="-13" font-family="Helvetica,sans-Serif" font-size="10.00"> </text>
</a>
</g>
</g>
<!-- Node1&#45;&gt;Node12 -->
<g id="edge12" class="edge"><title>Node1&#45;&gt;Node12</title>
<path fill="none" stroke="midnightblue" d="M2206.64,-130.628C2098.35,-125.809 1892.35,-111.414 1722.5,-69 1715.88,-67.3476 1709.09,-65.3051 1702.37,-63.0502"/>
<polygon fill="none" stroke="midnightblue" points="2206.67,-134.132 2216.82,-131.065 2206.97,-127.139 2206.67,-134.132"/>
</g>
<!-- Node13 -->
<g id="node13" class="node"><title>Node13</title>
<g id="a_node13"><a xlink:href="class_w_m___l_b_u_t_t_o_n_u_p___handler.html" target="_top" xlink:title="{WM_LBUTTONUP_Handler\n||}">
<polygon fill="none" stroke="black" points="1732,-6 1732,-63 1867,-63 1867,-6 1732,-6"/>
<text text-anchor="middle" x="1799.5" y="-51" font-family="Helvetica,sans-Serif" font-size="10.00">WM_LBUTTONUP_Handler</text>
<polyline fill="none" stroke="black" points="1732,-44 1867,-44 "/>
<text text-anchor="middle" x="1799.5" y="-32" font-family="Helvetica,sans-Serif" font-size="10.00"> </text>
<polyline fill="none" stroke="black" points="1732,-25 1867,-25 "/>
<text text-anchor="middle" x="1799.5" y="-13" font-family="Helvetica,sans-Serif" font-size="10.00"> </text>
</a>
</g>
</g>
<!-- Node1&#45;&gt;Node13 -->
<g id="edge13" class="edge"><title>Node1&#45;&gt;Node13</title>
<path fill="none" stroke="midnightblue" d="M2206.7,-127.051C2124.26,-119.156 1988.38,-102.163 1875.5,-69 1869.69,-67.2929 1863.74,-65.2442 1857.85,-63.012"/>
<polygon fill="none" stroke="midnightblue" points="2206.45,-130.543 2216.73,-127.992 2207.1,-123.574 2206.45,-130.543"/>
</g>
<!-- Node14 -->
<g id="node14" class="node"><title>Node14</title>
<g id="a_node14"><a xlink:href="class_w_m___m_b_u_t_t_o_n_d_o_w_n___handler.html" target="_top" xlink:title="{WM_MBUTTONDOWN_Handler\n||}">
<polygon fill="none" stroke="black" points="1885,-6 1885,-63 2040,-63 2040,-6 1885,-6"/>
<text text-anchor="middle" x="1962.5" y="-51" font-family="Helvetica,sans-Serif" font-size="10.00">WM_MBUTTONDOWN_Handler</text>
<polyline fill="none" stroke="black" points="1885,-44 2040,-44 "/>
<text text-anchor="middle" x="1962.5" y="-32" font-family="Helvetica,sans-Serif" font-size="10.00"> </text>
<polyline fill="none" stroke="black" points="1885,-25 2040,-25 "/>
<text text-anchor="middle" x="1962.5" y="-13" font-family="Helvetica,sans-Serif" font-size="10.00"> </text>
</a>
</g>
</g>
<!-- Node1&#45;&gt;Node14 -->
<g id="edge14" class="edge"><title>Node1&#45;&gt;Node14</title>
<path fill="none" stroke="midnightblue" d="M2207.14,-114.477C2161.34,-102.58 2101.63,-86.1799 2049.5,-69 2043.97,-67.1762 2038.27,-65.2028 2032.56,-63.1581"/>
<polygon fill="none" stroke="midnightblue" points="2206.43,-117.908 2216.98,-117.022 2208.18,-111.131 2206.43,-117.908"/>
</g>
<!-- Node15 -->
<g id="node15" class="node"><title>Node15</title>
<g id="a_node15"><a xlink:href="class_w_m___m_b_u_t_t_o_n_u_p___handler.html" target="_top" xlink:title="{WM_MBUTTONUP_Handler\n||}">
<polygon fill="none" stroke="black" points="2058.5,-6 2058.5,-63 2196.5,-63 2196.5,-6 2058.5,-6"/>
<text text-anchor="middle" x="2127.5" y="-51" font-family="Helvetica,sans-Serif" font-size="10.00">WM_MBUTTONUP_Handler</text>
<polyline fill="none" stroke="black" points="2058.5,-44 2196.5,-44 "/>
<text text-anchor="middle" x="2127.5" y="-32" font-family="Helvetica,sans-Serif" font-size="10.00"> </text>
<polyline fill="none" stroke="black" points="2058.5,-25 2196.5,-25 "/>
<text text-anchor="middle" x="2127.5" y="-13" font-family="Helvetica,sans-Serif" font-size="10.00"> </text>
</a>
</g>
</g>
<!-- Node1&#45;&gt;Node15 -->
<g id="edge15" class="edge"><title>Node1&#45;&gt;Node15</title>
<path fill="none" stroke="midnightblue" d="M2229.26,-99.9261C2210.33,-87.941 2189.16,-74.5411 2171.06,-63.0791"/>
<polygon fill="none" stroke="midnightblue" points="2227.46,-102.929 2237.78,-105.321 2231.2,-97.0148 2227.46,-102.929"/>
</g>
<!-- Node16 -->
<g id="node16" class="node"><title>Node16</title>
<g id="a_node16"><a xlink:href="class_w_m___m_e_n_u_c_h_a_r___handler.html" target="_top" xlink:title="{WM_MENUCHAR_Handler\n||}">
<polygon fill="none" stroke="black" points="2214.5,-6 2214.5,-63 2348.5,-63 2348.5,-6 2214.5,-6"/>
<text text-anchor="middle" x="2281.5" y="-51" font-family="Helvetica,sans-Serif" font-size="10.00">WM_MENUCHAR_Handler</text>
<polyline fill="none" stroke="black" points="2214.5,-44 2348.5,-44 "/>
<text text-anchor="middle" x="2281.5" y="-32" font-family="Helvetica,sans-Serif" font-size="10.00"> </text>
<polyline fill="none" stroke="black" points="2214.5,-25 2348.5,-25 "/>
<text text-anchor="middle" x="2281.5" y="-13" font-family="Helvetica,sans-Serif" font-size="10.00"> </text>
</a>
</g>
</g>
<!-- Node1&#45;&gt;Node16 -->
<g id="edge16" class="edge"><title>Node1&#45;&gt;Node16</title>
<path fill="none" stroke="midnightblue" d="M2281.5,-95.0433C2281.5,-84.4474 2281.5,-73.1352 2281.5,-63.248"/>
<polygon fill="none" stroke="midnightblue" points="2278,-95.3212 2281.5,-105.321 2285,-95.3212 2278,-95.3212"/>
</g>
<!-- Node17 -->
<g id="node17" class="node"><title>Node17</title>
<g id="a_node17"><a xlink:href="class_w_m___m_o_u_s_e_m_o_v_e___handler.html" target="_top" xlink:title="{WM_MOUSEMOVE_Handler\n||}">
<polygon fill="none" stroke="black" points="2367,-6 2367,-63 2510,-63 2510,-6 2367,-6"/>
<text text-anchor="middle" x="2438.5" y="-51" font-family="Helvetica,sans-Serif" font-size="10.00">WM_MOUSEMOVE_Handler</text>
<polyline fill="none" stroke="black" points="2367,-44 2510,-44 "/>
<text text-anchor="middle" x="2438.5" y="-32" font-family="Helvetica,sans-Serif" font-size="10.00"> </text>
<polyline fill="none" stroke="black" points="2367,-25 2510,-25 "/>
<text text-anchor="middle" x="2438.5" y="-13" font-family="Helvetica,sans-Serif" font-size="10.00"> </text>
</a>
</g>
</g>
<!-- Node1&#45;&gt;Node17 -->
<g id="edge17" class="edge"><title>Node1&#45;&gt;Node17</title>
<path fill="none" stroke="midnightblue" d="M2334.76,-99.9261C2354.06,-87.941 2375.63,-74.5411 2394.09,-63.0791"/>
<polygon fill="none" stroke="midnightblue" points="2332.72,-97.0722 2326.07,-105.321 2336.41,-103.019 2332.72,-97.0722"/>
</g>
<!-- Node18 -->
<g id="node18" class="node"><title>Node18</title>
<g id="a_node18"><a xlink:href="class_w_m___m_o_v_e___handler.html" target="_top" xlink:title="{WM_MOVE_Handler\n||}">
<polygon fill="none" stroke="black" points="2528,-6 2528,-63 2635,-63 2635,-6 2528,-6"/>
<text text-anchor="middle" x="2581.5" y="-51" font-family="Helvetica,sans-Serif" font-size="10.00">WM_MOVE_Handler</text>
<polyline fill="none" stroke="black" points="2528,-44 2635,-44 "/>
<text text-anchor="middle" x="2581.5" y="-32" font-family="Helvetica,sans-Serif" font-size="10.00"> </text>
<polyline fill="none" stroke="black" points="2528,-25 2635,-25 "/>
<text text-anchor="middle" x="2581.5" y="-13" font-family="Helvetica,sans-Serif" font-size="10.00"> </text>
</a>
</g>
</g>
<!-- Node1&#45;&gt;Node18 -->
<g id="edge18" class="edge"><title>Node1&#45;&gt;Node18</title>
<path fill="none" stroke="midnightblue" d="M2356.13,-117.639C2403.77,-106.691 2466.34,-90.1739 2519.5,-69 2523.93,-67.2344 2528.45,-65.2293 2532.93,-63.0986"/>
<polygon fill="none" stroke="midnightblue" points="2355.18,-114.266 2346.2,-119.89 2356.72,-121.092 2355.18,-114.266"/>
</g>
<!-- Node19 -->
<g id="node19" class="node"><title>Node19</title>
<g id="a_node19"><a xlink:href="class_w_m___m_o_v_i_n_g___handler.html" target="_top" xlink:title="{WM_MOVING_Handler\n||}">
<polygon fill="none" stroke="black" points="2653,-6 2653,-63 2770,-63 2770,-6 2653,-6"/>
<text text-anchor="middle" x="2711.5" y="-51" font-family="Helvetica,sans-Serif" font-size="10.00">WM_MOVING_Handler</text>
<polyline fill="none" stroke="black" points="2653,-44 2770,-44 "/>
<text text-anchor="middle" x="2711.5" y="-32" font-family="Helvetica,sans-Serif" font-size="10.00"> </text>
<polyline fill="none" stroke="black" points="2653,-25 2770,-25 "/>
<text text-anchor="middle" x="2711.5" y="-13" font-family="Helvetica,sans-Serif" font-size="10.00"> </text>
</a>
</g>
</g>
<!-- Node1&#45;&gt;Node19 -->
<g id="edge19" class="edge"><title>Node1&#45;&gt;Node19</title>
<path fill="none" stroke="midnightblue" d="M2356.38,-126.185C2430.88,-117.932 2547.73,-100.97 2644.5,-69 2649.56,-67.3274 2654.72,-65.3312 2659.82,-63.1581"/>
<polygon fill="none" stroke="midnightblue" points="2355.72,-122.736 2346.15,-127.293 2356.47,-129.696 2355.72,-122.736"/>
</g>
<!-- Node20 -->
<g id="node20" class="node"><title>Node20</title>
<g id="a_node20"><a xlink:href="class_w_m___n_c_c_a_l_c_s_i_z_e___handler.html" target="_top" xlink:title="{WM_NCCALCSIZE_Handler\n||}">
<polygon fill="none" stroke="black" points="2788.5,-6 2788.5,-63 2926.5,-63 2926.5,-6 2788.5,-6"/>
<text text-anchor="middle" x="2857.5" y="-51" font-family="Helvetica,sans-Serif" font-size="10.00">WM_NCCALCSIZE_Handler</text>
<polyline fill="none" stroke="black" points="2788.5,-44 2926.5,-44 "/>
<text text-anchor="middle" x="2857.5" y="-32" font-family="Helvetica,sans-Serif" font-size="10.00"> </text>
<polyline fill="none" stroke="black" points="2788.5,-25 2926.5,-25 "/>
<text text-anchor="middle" x="2857.5" y="-13" font-family="Helvetica,sans-Serif" font-size="10.00"> </text>
</a>
</g>
</g>
<!-- Node1&#45;&gt;Node20 -->
<g id="edge20" class="edge"><title>Node1&#45;&gt;Node20</title>
<path fill="none" stroke="midnightblue" d="M2356.46,-129.845C2455.03,-124.236 2632.91,-109.056 2779.5,-69 2785.61,-67.3296 2791.87,-65.2752 2798.06,-63.0129"/>
<polygon fill="none" stroke="midnightblue" points="2356.09,-126.36 2346.29,-130.405 2356.47,-133.35 2356.09,-126.36"/>
</g>
<!-- Node21 -->
<g id="node21" class="node"><title>Node21</title>
<g id="a_node21"><a xlink:href="class_w_m___n_c_m_o_u_s_e_l_e_a_v_e___handler.html" target="_top" xlink:title="{WM_NCMOUSELEAVE_Handler\n||}">
<polygon fill="none" stroke="black" points="2944.5,-6 2944.5,-63 3104.5,-63 3104.5,-6 2944.5,-6"/>
<text text-anchor="middle" x="3024.5" y="-51" font-family="Helvetica,sans-Serif" font-size="10.00">WM_NCMOUSELEAVE_Handler</text>
<polyline fill="none" stroke="black" points="2944.5,-44 3104.5,-44 "/>
<text text-anchor="middle" x="3024.5" y="-32" font-family="Helvetica,sans-Serif" font-size="10.00"> </text>
<polyline fill="none" stroke="black" points="2944.5,-25 3104.5,-25 "/>
<text text-anchor="middle" x="3024.5" y="-13" font-family="Helvetica,sans-Serif" font-size="10.00"> </text>
</a>
</g>
</g>
<!-- Node1&#45;&gt;Node21 -->
<g id="edge21" class="edge"><title>Node1&#45;&gt;Node21</title>
<path fill="none" stroke="midnightblue" d="M2356.5,-132.021C2479.15,-129.011 2729.62,-116.939 2935.5,-69 2942.41,-67.39 2949.52,-65.3757 2956.55,-63.1384"/>
<polygon fill="none" stroke="midnightblue" points="2356.38,-128.523 2346.46,-132.254 2356.54,-135.521 2356.38,-128.523"/>
</g>
<!-- Node22 -->
<g id="node22" class="node"><title>Node22</title>
<g id="a_node22"><a xlink:href="class_w_m___n_c_p_a_i_n_t___handler.html" target="_top" xlink:title="{WM_NCPAINT_Handler\n||}">
<polygon fill="none" stroke="black" points="3123,-6 3123,-63 3242,-63 3242,-6 3123,-6"/>
<text text-anchor="middle" x="3182.5" y="-51" font-family="Helvetica,sans-Serif" font-size="10.00">WM_NCPAINT_Handler</text>
<polyline fill="none" stroke="black" points="3123,-44 3242,-44 "/>
<text text-anchor="middle" x="3182.5" y="-32" font-family="Helvetica,sans-Serif" font-size="10.00"> </text>
<polyline fill="none" stroke="black" points="3123,-25 3242,-25 "/>
<text text-anchor="middle" x="3182.5" y="-13" font-family="Helvetica,sans-Serif" font-size="10.00"> </text>
</a>
</g>
</g>
<!-- Node1&#45;&gt;Node22 -->
<g id="edge22" class="edge"><title>Node1&#45;&gt;Node22</title>
<path fill="none" stroke="midnightblue" d="M2356.54,-130.812C2533.35,-125.081 2971.85,-107.346 3113.5,-69 3119.28,-67.4341 3125.17,-65.3836 3130.93,-63.0673"/>
<polygon fill="none" stroke="midnightblue" points="2356.17,-127.322 2346.29,-131.141 2356.4,-134.319 2356.17,-127.322"/>
</g>
<!-- Node23 -->
<g id="node23" class="node"><title>Node23</title>
<g id="a_node23"><a xlink:href="class_w_m___p_a_i_n_t___handler.html" target="_top" xlink:title="{WM_PAINT_Handler\n||}">
<polygon fill="none" stroke="black" points="3260.5,-6 3260.5,-63 3366.5,-63 3366.5,-6 3260.5,-6"/>
<text text-anchor="middle" x="3313.5" y="-51" font-family="Helvetica,sans-Serif" font-size="10.00">WM_PAINT_Handler</text>
<polyline fill="none" stroke="black" points="3260.5,-44 3366.5,-44 "/>
<text text-anchor="middle" x="3313.5" y="-32" font-family="Helvetica,sans-Serif" font-size="10.00"> </text>
<polyline fill="none" stroke="black" points="3260.5,-25 3366.5,-25 "/>
<text text-anchor="middle" x="3313.5" y="-13" font-family="Helvetica,sans-Serif" font-size="10.00"> </text>
</a>
</g>
</g>
<!-- Node1&#45;&gt;Node23 -->
<g id="edge23" class="edge"><title>Node1&#45;&gt;Node23</title>
<path fill="none" stroke="midnightblue" d="M2356.28,-132.178C2553.44,-129.356 3083.72,-117.361 3251.5,-69 3256.79,-67.4751 3262.14,-65.4513 3267.36,-63.1509"/>
<polygon fill="none" stroke="midnightblue" points="2355.97,-128.681 2346.02,-132.32 2356.07,-135.681 2355.97,-128.681"/>
</g>
<!-- Node24 -->
<g id="node24" class="node"><title>Node24</title>
<g id="a_node24"><a xlink:href="class_w_m___q_u_i_t___handler.html" target="_top" xlink:title="{WM_QUIT_Handler\n||}">
<polygon fill="none" stroke="black" points="3384.5,-6 3384.5,-63 3484.5,-63 3484.5,-6 3384.5,-6"/>
<text text-anchor="middle" x="3434.5" y="-51" font-family="Helvetica,sans-Serif" font-size="10.00">WM_QUIT_Handler</text>
<polyline fill="none" stroke="black" points="3384.5,-44 3484.5,-44 "/>
<text text-anchor="middle" x="3434.5" y="-32" font-family="Helvetica,sans-Serif" font-size="10.00"> </text>
<polyline fill="none" stroke="black" points="3384.5,-25 3484.5,-25 "/>
<text text-anchor="middle" x="3434.5" y="-13" font-family="Helvetica,sans-Serif" font-size="10.00"> </text>
</a>
</g>
</g>
<!-- Node1&#45;&gt;Node24 -->
<g id="edge24" class="edge"><title>Node1&#45;&gt;Node24</title>
<path fill="none" stroke="midnightblue" d="M2356.41,-133.028C2570.86,-132.414 3183.98,-125.613 3375.5,-69 3380.7,-67.464 3385.93,-65.3984 3391.02,-63.0431"/>
<polygon fill="none" stroke="midnightblue" points="2356.19,-129.529 2346.2,-133.054 2356.21,-136.529 2356.19,-129.529"/>
</g>
<!-- Node25 -->
<g id="node25" class="node"><title>Node25</title>
<g id="a_node25"><a xlink:href="class_w_m___r_b_u_t_t_o_n_d_o_w_n___handler.html" target="_top" xlink:title="{WM_RBUTTONDOWN_Handler\n||}">
<polygon fill="none" stroke="black" points="3502.5,-6 3502.5,-63 3656.5,-63 3656.5,-6 3502.5,-6"/>
<text text-anchor="middle" x="3579.5" y="-51" font-family="Helvetica,sans-Serif" font-size="10.00">WM_RBUTTONDOWN_Handler</text>
<polyline fill="none" stroke="black" points="3502.5,-44 3656.5,-44 "/>
<text text-anchor="middle" x="3579.5" y="-32" font-family="Helvetica,sans-Serif" font-size="10.00"> </text>
<polyline fill="none" stroke="black" points="3502.5,-25 3656.5,-25 "/>
<text text-anchor="middle" x="3579.5" y="-13" font-family="Helvetica,sans-Serif" font-size="10.00"> </text>
</a>
</g>
</g>
<!-- Node1&#45;&gt;Node25 -->
<g id="edge25" class="edge"><title>Node1&#45;&gt;Node25</title>
<path fill="none" stroke="midnightblue" d="M2356.48,-132.155C2585.72,-129.083 3274.91,-116.072 3493.5,-69 3500.71,-67.4483 3508.1,-65.3727 3515.38,-63.0114"/>
<polygon fill="none" stroke="midnightblue" points="2356.19,-128.659 2346.24,-132.29 2356.28,-135.658 2356.19,-128.659"/>
</g>
<!-- Node26 -->
<g id="node26" class="node"><title>Node26</title>
<g id="a_node26"><a xlink:href="class_w_m___r_b_u_t_t_o_n_u_p___handler.html" target="_top" xlink:title="{WM_RBUTTONUP_Handler\n||}">
<polygon fill="none" stroke="black" points="3675,-6 3675,-63 3812,-63 3812,-6 3675,-6"/>
<text text-anchor="middle" x="3743.5" y="-51" font-family="Helvetica,sans-Serif" font-size="10.00">WM_RBUTTONUP_Handler</text>
<polyline fill="none" stroke="black" points="3675,-44 3812,-44 "/>
<text text-anchor="middle" x="3743.5" y="-32" font-family="Helvetica,sans-Serif" font-size="10.00"> </text>
<polyline fill="none" stroke="black" points="3675,-25 3812,-25 "/>
<text text-anchor="middle" x="3743.5" y="-13" font-family="Helvetica,sans-Serif" font-size="10.00"> </text>
</a>
</g>
</g>
<!-- Node1&#45;&gt;Node26 -->
<g id="edge26" class="edge"><title>Node1&#45;&gt;Node26</title>
<path fill="none" stroke="midnightblue" d="M2356.31,-133.06C2606.6,-132.71 3413.19,-126.998 3665.5,-69 3672.11,-67.4813 3678.86,-65.4267 3685.49,-63.0779"/>
<polygon fill="none" stroke="midnightblue" points="2356.22,-129.56 2346.22,-133.071 2356.22,-136.56 2356.22,-129.56"/>
</g>
<!-- Node27 -->
<g id="node27" class="node"><title>Node27</title>
<g id="a_node27"><a xlink:href="class_w_m___s_e_t_t_e_x_t___handler.html" target="_top" xlink:title="{WM_SETTEXT_Handler\n||}">
<polygon fill="none" stroke="black" points="3830,-6 3830,-63 3949,-63 3949,-6 3830,-6"/>
<text text-anchor="middle" x="3889.5" y="-51" font-family="Helvetica,sans-Serif" font-size="10.00">WM_SETTEXT_Handler</text>
<polyline fill="none" stroke="black" points="3830,-44 3949,-44 "/>
<text text-anchor="middle" x="3889.5" y="-32" font-family="Helvetica,sans-Serif" font-size="10.00"> </text>
<polyline fill="none" stroke="black" points="3830,-25 3949,-25 "/>
<text text-anchor="middle" x="3889.5" y="-13" font-family="Helvetica,sans-Serif" font-size="10.00"> </text>
</a>
</g>
</g>
<!-- Node1&#45;&gt;Node27 -->
<g id="edge27" class="edge"><title>Node1&#45;&gt;Node27</title>
<path fill="none" stroke="midnightblue" d="M2356.69,-131.701C2646.09,-126.451 3679.03,-105.325 3821.5,-69 3827.37,-67.5044 3833.32,-65.4646 3839.14,-63.1245"/>
<polygon fill="none" stroke="midnightblue" points="2356.24,-128.208 2346.3,-131.888 2356.36,-135.207 2356.24,-128.208"/>
</g>
<!-- Node28 -->
<g id="node28" class="node"><title>Node28</title>
<g id="a_node28"><a xlink:href="class_w_m___s_i_z_e___handler.html" target="_top" xlink:title="{WM_SIZE_Handler\n||}">
<polygon fill="none" stroke="black" points="3967,-6 3967,-63 4066,-63 4066,-6 3967,-6"/>
<text text-anchor="middle" x="4016.5" y="-51" font-family="Helvetica,sans-Serif" font-size="10.00">WM_SIZE_Handler</text>
<polyline fill="none" stroke="black" points="3967,-44 4066,-44 "/>
<text text-anchor="middle" x="4016.5" y="-32" font-family="Helvetica,sans-Serif" font-size="10.00"> </text>
<polyline fill="none" stroke="black" points="3967,-25 4066,-25 "/>
<text text-anchor="middle" x="4016.5" y="-13" font-family="Helvetica,sans-Serif" font-size="10.00"> </text>
</a>
</g>
</g>
<!-- Node1&#45;&gt;Node28 -->
<g id="edge28" class="edge"><title>Node1&#45;&gt;Node28</title>
<path fill="none" stroke="midnightblue" d="M2356.28,-132.263C2661.43,-128.968 3803.5,-113.733 3958.5,-69 3963.64,-67.5168 3968.8,-65.485 3973.82,-63.1497"/>
<polygon fill="none" stroke="midnightblue" points="2356.17,-128.764 2346.21,-132.371 2356.25,-135.763 2356.17,-128.764"/>
</g>
<!-- Node29 -->
<g id="node29" class="node"><title>Node29</title>
<g id="a_node29"><a xlink:href="class_w_m___s_i_z_i_n_g___handler.html" target="_top" xlink:title="{WM_SIZING_Handler\n||}">
<polygon fill="none" stroke="black" points="4084,-6 4084,-63 4193,-63 4193,-6 4084,-6"/>
<text text-anchor="middle" x="4138.5" y="-51" font-family="Helvetica,sans-Serif" font-size="10.00">WM_SIZING_Handler</text>
<polyline fill="none" stroke="black" points="4084,-44 4193,-44 "/>
<text text-anchor="middle" x="4138.5" y="-32" font-family="Helvetica,sans-Serif" font-size="10.00"> </text>
<polyline fill="none" stroke="black" points="4084,-25 4193,-25 "/>
<text text-anchor="middle" x="4138.5" y="-13" font-family="Helvetica,sans-Serif" font-size="10.00"> </text>
</a>
</g>
</g>
<!-- Node1&#45;&gt;Node29 -->
<g id="edge29" class="edge"><title>Node1&#45;&gt;Node29</title>
<path fill="none" stroke="midnightblue" d="M2356.13,-132.316C2674.19,-129.134 3907.91,-113.976 4075.5,-69 4081.12,-67.4909 4086.81,-65.4068 4092.33,-63.0096"/>
<polygon fill="none" stroke="midnightblue" points="2356.06,-128.817 2346.1,-132.416 2356.13,-135.816 2356.06,-128.817"/>
</g>
<!-- Node30 -->
<g id="node30" class="node"><title>Node30</title>
<g id="a_node30"><a xlink:href="class_w_m___t_i_m_e_r___handler.html" target="_top" xlink:title="{WM_TIMER_Handler\n||}">
<polygon fill="none" stroke="black" points="4211,-6 4211,-63 4318,-63 4318,-6 4211,-6"/>
<text text-anchor="middle" x="4264.5" y="-51" font-family="Helvetica,sans-Serif" font-size="10.00">WM_TIMER_Handler</text>
<polyline fill="none" stroke="black" points="4211,-44 4318,-44 "/>
<text text-anchor="middle" x="4264.5" y="-32" font-family="Helvetica,sans-Serif" font-size="10.00"> </text>
<polyline fill="none" stroke="black" points="4211,-25 4318,-25 "/>
<text text-anchor="middle" x="4264.5" y="-13" font-family="Helvetica,sans-Serif" font-size="10.00"> </text>
</a>
</g>
</g>
<!-- Node1&#45;&gt;Node30 -->
<g id="edge30" class="edge"><title>Node1&#45;&gt;Node30</title>
<path fill="none" stroke="midnightblue" d="M2356.67,-132.531C2689.53,-130.179 4022.32,-117.771 4202.5,-69 4208.05,-67.4976 4213.65,-65.4177 4219.1,-63.0229"/>
<polygon fill="none" stroke="midnightblue" points="2356.15,-129.034 2346.18,-132.604 2356.2,-136.034 2356.15,-129.034"/>
</g>
<!-- Node31 -->
<g id="node31" class="node"><title>Node31</title>
<g id="a_node31"><a xlink:href="class_w_m___w_i_n_d_o_w_p_o_s_c_h_a_n_g_i_n_g___handler.html" target="_top" xlink:title="{WM_WINDOWPOSCHANGING\l_Handler\n||}">
<polygon fill="none" stroke="black" points="4336,-0.5 4336,-68.5 4491,-68.5 4491,-0.5 4336,-0.5"/>
<text text-anchor="start" x="4344" y="-56.5" font-family="Helvetica,sans-Serif" font-size="10.00">WM_WINDOWPOSCHANGING</text>
<text text-anchor="middle" x="4413.5" y="-45.5" font-family="Helvetica,sans-Serif" font-size="10.00">_Handler</text>
<polyline fill="none" stroke="black" points="4336,-38.5 4491,-38.5 "/>
<text text-anchor="middle" x="4413.5" y="-26.5" font-family="Helvetica,sans-Serif" font-size="10.00"> </text>
<polyline fill="none" stroke="black" points="4336,-19.5 4491,-19.5 "/>
<text text-anchor="middle" x="4413.5" y="-7.5" font-family="Helvetica,sans-Serif" font-size="10.00"> </text>
</a>
</g>
</g>
<!-- Node1&#45;&gt;Node31 -->
<g id="edge31" class="edge"><title>Node1&#45;&gt;Node31</title>
<path fill="none" stroke="midnightblue" d="M2356.31,-132.163C2701.47,-128.096 4131.77,-108.955 4327.5,-69 4330.17,-68.4552 4332.86,-67.835 4335.57,-67.1519"/>
<polygon fill="none" stroke="midnightblue" points="2356.13,-128.664 2346.17,-132.281 2356.21,-135.664 2356.13,-128.664"/>
</g>
</g>
</svg>
