<?xml version="1.0" encoding="UTF-8" standalone="no"?>
<!DOCTYPE svg PUBLIC "-//W3C//DTD SVG 1.1//EN"
 "http://www.w3.org/Graphics/SVG/1.1/DTD/svg11.dtd">
<!-- Generated by graphviz version 2.38.0 (20140413.2041)
 -->
<!-- Title: engine::_shutdown Pages: 1 -->
<svg width="660pt" height="85pt"
 viewBox="0.00 0.00 660.00 85.00" xmlns="http://www.w3.org/2000/svg" xmlns:xlink="http://www.w3.org/1999/xlink">
<g id="graph0" class="graph" transform="scale(1 1) rotate(0) translate(4 81)">
<title>engine::_shutdown</title>
<!-- Node1 -->
<g id="node1" class="node"><title>Node1</title>
<polygon fill="#bfbfbf" stroke="black" points="0,-19.5 0,-38.5 98,-38.5 98,-19.5 0,-19.5"/>
<text text-anchor="middle" x="49" y="-26.5" font-family="Helvetica,sans-Serif" font-size="10.00">engine::_shutdown</text>
</g>
<!-- Node2 -->
<g id="node2" class="node"><title>Node2</title>
<g id="a_node2"><a xlink:href="classengine.html#a560e0bbabb0933eb66db1070a9cfa4ff" target="_top" xlink:title="engine::shutdown">
<polygon fill="none" stroke="black" points="134,-19.5 134,-38.5 226,-38.5 226,-19.5 134,-19.5"/>
<text text-anchor="middle" x="180" y="-26.5" font-family="Helvetica,sans-Serif" font-size="10.00">engine::shutdown</text>
</a>
</g>
</g>
<!-- Node1&#45;&gt;Node2 -->
<g id="edge1" class="edge"><title>Node1&#45;&gt;Node2</title>
<path fill="none" stroke="midnightblue" d="M108.095,-29C116.757,-29 125.575,-29 133.916,-29"/>
<polygon fill="midnightblue" stroke="midnightblue" points="108.035,-25.5001 98.0348,-29 108.035,-32.5001 108.035,-25.5001"/>
</g>
<!-- Node3 -->
<g id="node3" class="node"><title>Node3</title>
<g id="a_node3"><a xlink:href="classengine.html#a1d9b806d03be0255a8ac3c119e181cc5" target="_top" xlink:title="engine::_run">
<polygon fill="none" stroke="black" points="262,-19.5 262,-38.5 332,-38.5 332,-19.5 262,-19.5"/>
<text text-anchor="middle" x="297" y="-26.5" font-family="Helvetica,sans-Serif" font-size="10.00">engine::_run</text>
</a>
</g>
</g>
<!-- Node2&#45;&gt;Node3 -->
<g id="edge2" class="edge"><title>Node2&#45;&gt;Node3</title>
<path fill="none" stroke="midnightblue" d="M236.229,-29C244.907,-29 253.655,-29 261.679,-29"/>
<polygon fill="midnightblue" stroke="midnightblue" points="236.121,-25.5001 226.121,-29 236.121,-32.5001 236.121,-25.5001"/>
</g>
<!-- Node4 -->
<g id="node4" class="node"><title>Node4</title>
<g id="a_node4"><a xlink:href="classengine.html#aecb22d51cc8f83cacbf3696a18d66c30" target="_top" xlink:title="engine::run">
<polygon fill="none" stroke="black" points="372,-57.5 372,-76.5 437,-76.5 437,-57.5 372,-57.5"/>
<text text-anchor="middle" x="404.5" y="-64.5" font-family="Helvetica,sans-Serif" font-size="10.00">engine::run</text>
</a>
</g>
</g>
<!-- Node3&#45;&gt;Node4 -->
<g id="edge3" class="edge"><title>Node3&#45;&gt;Node4</title>
<path fill="none" stroke="midnightblue" d="M334.42,-42.118C348.373,-47.1439 364.018,-52.7791 376.886,-57.4141"/>
<polygon fill="midnightblue" stroke="midnightblue" points="335.217,-38.6849 324.622,-38.589 332.844,-45.2708 335.217,-38.6849"/>
</g>
<!-- Node5 -->
<g id="node5" class="node"><title>Node5</title>
<g id="a_node5"><a xlink:href="classengine.html#ada832d0a14502f1b99fdbd5c72cab01b" target="_top" xlink:title="engine::Draw">
<polygon fill="none" stroke="black" points="368,-19.5 368,-38.5 441,-38.5 441,-19.5 368,-19.5"/>
<text text-anchor="middle" x="404.5" y="-26.5" font-family="Helvetica,sans-Serif" font-size="10.00">engine::Draw</text>
</a>
</g>
</g>
<!-- Node3&#45;&gt;Node5 -->
<g id="edge4" class="edge"><title>Node3&#45;&gt;Node5</title>
<path fill="none" stroke="midnightblue" d="M342.437,-29C350.958,-29 359.775,-29 367.97,-29"/>
<polygon fill="midnightblue" stroke="midnightblue" points="342.253,-25.5001 332.253,-29 342.253,-32.5001 342.253,-25.5001"/>
</g>
<!-- Node6 -->
<g id="node6" class="node"><title>Node6</title>
<g id="a_node6"><a xlink:href="classengine.html#a90418b124cd07d7d2f057e7d401ed641" target="_top" xlink:title="engine::_tick">
<polygon fill="none" stroke="black" points="477,-38.5 477,-57.5 549,-57.5 549,-38.5 477,-38.5"/>
<text text-anchor="middle" x="513" y="-45.5" font-family="Helvetica,sans-Serif" font-size="10.00">engine::_tick</text>
</a>
</g>
</g>
<!-- Node5&#45;&gt;Node6 -->
<g id="edge5" class="edge"><title>Node5&#45;&gt;Node6</title>
<path fill="none" stroke="midnightblue" d="M451.293,-30.4789C464.652,-32.6489 478.65,-35.5093 489.833,-38.4442"/>
<polygon fill="midnightblue" stroke="midnightblue" points="451.67,-26.9961 441.259,-28.9642 450.625,-33.9177 451.67,-26.9961"/>
</g>
<!-- Node6&#45;&gt;Node5 -->
<g id="edge9" class="edge"><title>Node6&#45;&gt;Node5</title>
<path fill="none" stroke="midnightblue" d="M466.785,-46.6147C453.213,-44.4273 438.928,-41.516 427.567,-38.5295"/>
<polygon fill="midnightblue" stroke="midnightblue" points="466.557,-50.1194 476.964,-48.1355 467.591,-43.1962 466.557,-50.1194"/>
</g>
<!-- Node7 -->
<g id="node7" class="node"><title>Node7</title>
<g id="a_node7"><a xlink:href="classengine.html#a4bca5e9257e46c09a63f71227fc25a12" target="_top" xlink:title="engine::tick">
<polygon fill="none" stroke="black" points="585,-0.5 585,-19.5 652,-19.5 652,-0.5 585,-0.5"/>
<text text-anchor="middle" x="618.5" y="-7.5" font-family="Helvetica,sans-Serif" font-size="10.00">engine::tick</text>
</a>
</g>
</g>
<!-- Node6&#45;&gt;Node7 -->
<g id="edge6" class="edge"><title>Node6&#45;&gt;Node7</title>
<path fill="none" stroke="midnightblue" d="M549.729,-34.882C563.418,-29.8561 578.767,-24.2209 591.391,-19.5859"/>
<polygon fill="midnightblue" stroke="midnightblue" points="548.298,-31.6788 540.117,-38.411 550.711,-38.2499 548.298,-31.6788"/>
</g>
<!-- Node7&#45;&gt;Node3 -->
<g id="edge7" class="edge"><title>Node7&#45;&gt;Node3</title>
<path fill="none" stroke="midnightblue" d="M574.519,-6.56738C524.618,-3.37441 439.952,-0.408542 368,-10 354.02,-11.8636 338.874,-15.7332 326.258,-19.497"/>
<polygon fill="midnightblue" stroke="midnightblue" points="574.41,-10.0679 584.623,-7.24773 574.881,-3.0837 574.41,-10.0679"/>
</g>
<!-- Node7&#45;&gt;Node5 -->
<g id="edge8" class="edge"><title>Node7&#45;&gt;Node5</title>
<path fill="none" stroke="midnightblue" d="M574.815,-13.8255C535.667,-17.334 478.334,-22.4725 441.463,-25.7769"/>
<polygon fill="midnightblue" stroke="midnightblue" points="575.199,-17.3052 584.847,-12.9265 574.574,-10.3332 575.199,-17.3052"/>
</g>
</g>
</svg>
