<?xml version="1.0" encoding="UTF-8" standalone="no"?>
<!DOCTYPE svg PUBLIC "-//W3C//DTD SVG 1.1//EN"
 "http://www.w3.org/Graphics/SVG/1.1/DTD/svg11.dtd">
<!-- Generated by graphviz version 2.38.0 (20140413.2041)
 -->
<!-- Title: d3dUtil::LoadBinary Pages: 1 -->
<svg width="1302pt" height="104pt"
 viewBox="0.00 0.00 1302.00 104.00" xmlns="http://www.w3.org/2000/svg" xmlns:xlink="http://www.w3.org/1999/xlink">
<g id="graph0" class="graph" transform="scale(1 1) rotate(0) translate(4 100)">
<title>d3dUtil::LoadBinary</title>
<!-- Node1 -->
<g id="node1" class="node"><title>Node1</title>
<polygon fill="#bfbfbf" stroke="black" points="0,-32.5 0,-51.5 101,-51.5 101,-32.5 0,-32.5"/>
<text text-anchor="middle" x="50.5" y="-39.5" font-family="Helvetica,sans-Serif" font-size="10.00">d3dUtil::LoadBinary</text>
</g>
<!-- Node2 -->
<g id="node2" class="node"><title>Node2</title>
<g id="a_node2"><a xlink:href="classd3d_util.html#a0883e0848cae813b2bc71570f3303e92" target="_top" xlink:title="d3dUtil::CalcConstantBuffer\lByteSize">
<polygon fill="none" stroke="black" points="137,-27 137,-57 273,-57 273,-27 137,-27"/>
<text text-anchor="start" x="145" y="-45" font-family="Helvetica,sans-Serif" font-size="10.00">d3dUtil::CalcConstantBuffer</text>
<text text-anchor="middle" x="205" y="-34" font-family="Helvetica,sans-Serif" font-size="10.00">ByteSize</text>
</a>
</g>
</g>
<!-- Node1&#45;&gt;Node2 -->
<g id="edge1" class="edge"><title>Node1&#45;&gt;Node2</title>
<path fill="none" stroke="midnightblue" d="M111.17,-42C119.638,-42 128.394,-42 136.99,-42"/>
<polygon fill="midnightblue" stroke="midnightblue" points="111.012,-38.5001 101.012,-42 111.012,-45.5001 111.012,-38.5001"/>
</g>
<!-- Node3 -->
<g id="node3" class="node"><title>Node3</title>
<g id="a_node3"><a xlink:href="class_direct_x_renderer.html#a09278f83b0f7f134871bb21c72e07587" target="_top" xlink:title="DirectXRenderer::create\l_constant_buffers">
<polygon fill="none" stroke="black" points="326,-52 326,-82 445,-82 445,-52 326,-52"/>
<text text-anchor="start" x="334" y="-70" font-family="Helvetica,sans-Serif" font-size="10.00">DirectXRenderer::create</text>
<text text-anchor="middle" x="385.5" y="-59" font-family="Helvetica,sans-Serif" font-size="10.00">_constant_buffers</text>
</a>
</g>
</g>
<!-- Node2&#45;&gt;Node3 -->
<g id="edge2" class="edge"><title>Node2&#45;&gt;Node3</title>
<path fill="none" stroke="midnightblue" d="M283.476,-52.851C297.676,-54.8398 312.281,-56.8853 325.818,-58.7813"/>
<polygon fill="midnightblue" stroke="midnightblue" points="283.618,-49.3367 273.229,-51.4158 282.647,-56.2691 283.618,-49.3367"/>
</g>
<!-- Node12 -->
<g id="node12" class="node"><title>Node12</title>
<g id="a_node12"><a xlink:href="class_upload_buffer.html#a622fad9645e52e4d6074a2e533165855" target="_top" xlink:title="UploadBuffer\&lt; ObjectConstants\l \&gt;::UploadBuffer">
<polygon fill="none" stroke="black" points="309,-3 309,-33 462,-33 462,-3 309,-3"/>
<text text-anchor="start" x="317" y="-21" font-family="Helvetica,sans-Serif" font-size="10.00">UploadBuffer&lt; ObjectConstants</text>
<text text-anchor="middle" x="385.5" y="-10" font-family="Helvetica,sans-Serif" font-size="10.00"> &gt;::UploadBuffer</text>
</a>
</g>
</g>
<!-- Node2&#45;&gt;Node12 -->
<g id="edge14" class="edge"><title>Node2&#45;&gt;Node12</title>
<path fill="none" stroke="midnightblue" d="M283.176,-31.6234C291.725,-30.474 300.424,-29.3043 308.953,-28.1576"/>
<polygon fill="midnightblue" stroke="midnightblue" points="282.673,-28.1594 273.229,-32.9608 283.606,-35.097 282.673,-28.1594"/>
</g>
<!-- Node4 -->
<g id="node4" class="node"><title>Node4</title>
<g id="a_node4"><a xlink:href="class_direct_x_renderer.html#a0d6aef4c838ac765f726391ee65c346c" target="_top" xlink:title="DirectXRenderer::initialize\l_direct3d">
<polygon fill="none" stroke="black" points="498,-52 498,-82 626,-82 626,-52 498,-52"/>
<text text-anchor="start" x="506" y="-70" font-family="Helvetica,sans-Serif" font-size="10.00">DirectXRenderer::initialize</text>
<text text-anchor="middle" x="562" y="-59" font-family="Helvetica,sans-Serif" font-size="10.00">_direct3d</text>
</a>
</g>
</g>
<!-- Node3&#45;&gt;Node4 -->
<g id="edge3" class="edge"><title>Node3&#45;&gt;Node4</title>
<path fill="none" stroke="midnightblue" d="M455.175,-67C469.217,-67 483.933,-67 497.773,-67"/>
<polygon fill="midnightblue" stroke="midnightblue" points="455.091,-63.5001 445.091,-67 455.091,-70.5001 455.091,-63.5001"/>
</g>
<!-- Node5 -->
<g id="node5" class="node"><title>Node5</title>
<g id="a_node5"><a xlink:href="classengine.html#a8b8dd82e72fd73e0601c30041529c4c0" target="_top" xlink:title="engine::_initialize">
<polygon fill="none" stroke="black" points="662,-57.5 662,-76.5 754,-76.5 754,-57.5 662,-57.5"/>
<text text-anchor="middle" x="708" y="-64.5" font-family="Helvetica,sans-Serif" font-size="10.00">engine::_initialize</text>
</a>
</g>
</g>
<!-- Node4&#45;&gt;Node5 -->
<g id="edge4" class="edge"><title>Node4&#45;&gt;Node5</title>
<path fill="none" stroke="midnightblue" d="M636.283,-67C644.922,-67 653.536,-67 661.627,-67"/>
<polygon fill="midnightblue" stroke="midnightblue" points="636.161,-63.5001 626.16,-67 636.16,-70.5001 636.161,-63.5001"/>
</g>
<!-- Node6 -->
<g id="node6" class="node"><title>Node6</title>
<g id="a_node6"><a xlink:href="classengine.html#a6809dcdfe78011851e377d4729a87ee4" target="_top" xlink:title="engine::initialize">
<polygon fill="none" stroke="black" points="790,-76.5 790,-95.5 876,-95.5 876,-76.5 790,-76.5"/>
<text text-anchor="middle" x="833" y="-83.5" font-family="Helvetica,sans-Serif" font-size="10.00">engine::initialize</text>
</a>
</g>
</g>
<!-- Node5&#45;&gt;Node6 -->
<g id="edge5" class="edge"><title>Node5&#45;&gt;Node6</title>
<path fill="none" stroke="midnightblue" d="M764.097,-75.5109C772.712,-76.8417 781.497,-78.1987 789.765,-79.4758"/>
<polygon fill="midnightblue" stroke="midnightblue" points="764.519,-72.0347 754.102,-73.967 763.451,-78.9527 764.519,-72.0347"/>
</g>
<!-- Node7 -->
<g id="node7" class="node"><title>Node7</title>
<g id="a_node7"><a xlink:href="classengine.html#ada832d0a14502f1b99fdbd5c72cab01b" target="_top" xlink:title="engine::Draw">
<polygon fill="none" stroke="black" points="796.5,-38.5 796.5,-57.5 869.5,-57.5 869.5,-38.5 796.5,-38.5"/>
<text text-anchor="middle" x="833" y="-45.5" font-family="Helvetica,sans-Serif" font-size="10.00">engine::Draw</text>
</a>
</g>
</g>
<!-- Node5&#45;&gt;Node7 -->
<g id="edge6" class="edge"><title>Node5&#45;&gt;Node7</title>
<path fill="none" stroke="midnightblue" d="M763.998,-58.5044C774.9,-56.8203 786.079,-55.0935 796.142,-53.5391"/>
<polygon fill="midnightblue" stroke="midnightblue" points="763.451,-55.0473 754.102,-60.033 764.519,-61.9653 763.451,-55.0473"/>
</g>
<!-- Node8 -->
<g id="node8" class="node"><title>Node8</title>
<g id="a_node8"><a xlink:href="classengine.html#a90418b124cd07d7d2f057e7d401ed641" target="_top" xlink:title="engine::_tick">
<polygon fill="none" stroke="black" points="912,-57.5 912,-76.5 984,-76.5 984,-57.5 912,-57.5"/>
<text text-anchor="middle" x="948" y="-64.5" font-family="Helvetica,sans-Serif" font-size="10.00">engine::_tick</text>
</a>
</g>
</g>
<!-- Node7&#45;&gt;Node8 -->
<g id="edge7" class="edge"><title>Node7&#45;&gt;Node8</title>
<path fill="none" stroke="midnightblue" d="M879.921,-49.0775C894.923,-51.2953 910.957,-54.3417 923.586,-57.4705"/>
<polygon fill="midnightblue" stroke="midnightblue" points="880.137,-45.5744 869.754,-47.6836 879.186,-52.5095 880.137,-45.5744"/>
</g>
<!-- Node8&#45;&gt;Node7 -->
<g id="edge13" class="edge"><title>Node8&#45;&gt;Node7</title>
<path fill="none" stroke="midnightblue" d="M901.371,-65.9655C886.285,-63.7442 870.125,-60.6786 857.414,-57.5295"/>
<polygon fill="midnightblue" stroke="midnightblue" points="901.206,-69.4754 911.588,-67.3592 902.152,-62.5397 901.206,-69.4754"/>
</g>
<!-- Node9 -->
<g id="node9" class="node"><title>Node9</title>
<g id="a_node9"><a xlink:href="classengine.html#a4bca5e9257e46c09a63f71227fc25a12" target="_top" xlink:title="engine::tick">
<polygon fill="none" stroke="black" points="1020,-19.5 1020,-38.5 1087,-38.5 1087,-19.5 1020,-19.5"/>
<text text-anchor="middle" x="1053.5" y="-26.5" font-family="Helvetica,sans-Serif" font-size="10.00">engine::tick</text>
</a>
</g>
</g>
<!-- Node8&#45;&gt;Node9 -->
<g id="edge8" class="edge"><title>Node8&#45;&gt;Node9</title>
<path fill="none" stroke="midnightblue" d="M984.729,-53.882C998.418,-48.8561 1013.77,-43.2209 1026.39,-38.5859"/>
<polygon fill="midnightblue" stroke="midnightblue" points="983.298,-50.6788 975.117,-57.411 985.711,-57.2499 983.298,-50.6788"/>
</g>
<!-- Node9&#45;&gt;Node7 -->
<g id="edge12" class="edge"><title>Node9&#45;&gt;Node7</title>
<path fill="none" stroke="midnightblue" d="M1009.58,-32.7318C968.696,-36.2873 907.86,-41.5774 869.592,-44.905"/>
<polygon fill="midnightblue" stroke="midnightblue" points="1010.12,-36.1984 1019.78,-31.8451 1009.52,-29.2247 1010.12,-36.1984"/>
</g>
<!-- Node10 -->
<g id="node10" class="node"><title>Node10</title>
<g id="a_node10"><a xlink:href="classengine.html#a1d9b806d03be0255a8ac3c119e181cc5" target="_top" xlink:title="engine::_run">
<polygon fill="none" stroke="black" points="1123,-0.5 1123,-19.5 1193,-19.5 1193,-0.5 1123,-0.5"/>
<text text-anchor="middle" x="1158" y="-7.5" font-family="Helvetica,sans-Serif" font-size="10.00">engine::_run</text>
</a>
</g>
</g>
<!-- Node9&#45;&gt;Node10 -->
<g id="edge9" class="edge"><title>Node9&#45;&gt;Node10</title>
<path fill="none" stroke="midnightblue" d="M1097.08,-21.1076C1105.66,-19.5164 1114.58,-17.8631 1122.83,-16.3335"/>
<polygon fill="midnightblue" stroke="midnightblue" points="1096.41,-17.672 1087.21,-22.936 1097.68,-24.5547 1096.41,-17.672"/>
</g>
<!-- Node10&#45;&gt;Node7 -->
<g id="edge11" class="edge"><title>Node10&#45;&gt;Node7</title>
<path fill="none" stroke="midnightblue" d="M1112.61,-7.84934C1085.74,-7.08197 1050.83,-7.03059 1020,-10 971.326,-14.6883 959.892,-21.1262 912,-31 898.154,-33.8545 882.959,-37.1331 869.688,-40.0447"/>
<polygon fill="midnightblue" stroke="midnightblue" points="1112.74,-11.3556 1122.85,-8.1874 1112.97,-4.35941 1112.74,-11.3556"/>
</g>
<!-- Node11 -->
<g id="node11" class="node"><title>Node11</title>
<g id="a_node11"><a xlink:href="classengine.html#aecb22d51cc8f83cacbf3696a18d66c30" target="_top" xlink:title="engine::run">
<polygon fill="none" stroke="black" points="1229,-0.5 1229,-19.5 1294,-19.5 1294,-0.5 1229,-0.5"/>
<text text-anchor="middle" x="1261.5" y="-7.5" font-family="Helvetica,sans-Serif" font-size="10.00">engine::run</text>
</a>
</g>
</g>
<!-- Node10&#45;&gt;Node11 -->
<g id="edge10" class="edge"><title>Node10&#45;&gt;Node11</title>
<path fill="none" stroke="midnightblue" d="M1203.33,-10C1211.88,-10 1220.68,-10 1228.74,-10"/>
<polygon fill="midnightblue" stroke="midnightblue" points="1203.08,-6.5001 1193.08,-10 1203.08,-13.5001 1203.08,-6.5001"/>
</g>
</g>
</svg>
