<?xml version="1.0" encoding="UTF-8" standalone="no"?>
<!DOCTYPE svg PUBLIC "-//W3C//DTD SVG 1.1//EN"
 "http://www.w3.org/Graphics/SVG/1.1/DTD/svg11.dtd">
<!-- Generated by graphviz version 2.38.0 (20140413.2041)
 -->
<!-- Title: engine::_init_main_window Pages: 1 -->
<svg width="771pt" height="104pt"
 viewBox="0.00 0.00 771.00 104.00" xmlns="http://www.w3.org/2000/svg" xmlns:xlink="http://www.w3.org/1999/xlink">
<g id="graph0" class="graph" transform="scale(1 1) rotate(0) translate(4 100)">
<title>engine::_init_main_window</title>
<!-- Node1 -->
<g id="node1" class="node"><title>Node1</title>
<polygon fill="#bfbfbf" stroke="black" points="0,-52 0,-82 95,-82 95,-52 0,-52"/>
<text text-anchor="start" x="8" y="-70" font-family="Helvetica,sans-Serif" font-size="10.00">engine::_init_main</text>
<text text-anchor="middle" x="47.5" y="-59" font-family="Helvetica,sans-Serif" font-size="10.00">_window</text>
</g>
<!-- Node2 -->
<g id="node2" class="node"><title>Node2</title>
<g id="a_node2"><a xlink:href="classengine.html#a8b8dd82e72fd73e0601c30041529c4c0" target="_top" xlink:title="engine::_initialize">
<polygon fill="none" stroke="black" points="131,-76.5 131,-95.5 223,-95.5 223,-76.5 131,-76.5"/>
<text text-anchor="middle" x="177" y="-83.5" font-family="Helvetica,sans-Serif" font-size="10.00">engine::_initialize</text>
</a>
</g>
</g>
<!-- Node1&#45;&gt;Node2 -->
<g id="edge1" class="edge"><title>Node1&#45;&gt;Node2</title>
<path fill="none" stroke="midnightblue" d="M105.243,-75.4558C113.853,-76.7389 122.636,-78.0477 130.953,-79.2871"/>
<polygon fill="midnightblue" stroke="midnightblue" points="105.659,-71.9792 95.2523,-73.967 104.627,-78.9028 105.659,-71.9792"/>
</g>
<!-- Node4 -->
<g id="node4" class="node"><title>Node4</title>
<g id="a_node4"><a xlink:href="classengine.html#ada832d0a14502f1b99fdbd5c72cab01b" target="_top" xlink:title="engine::Draw">
<polygon fill="none" stroke="black" points="265.5,-38.5 265.5,-57.5 338.5,-57.5 338.5,-38.5 265.5,-38.5"/>
<text text-anchor="middle" x="302" y="-45.5" font-family="Helvetica,sans-Serif" font-size="10.00">engine::Draw</text>
</a>
</g>
</g>
<!-- Node1&#45;&gt;Node4 -->
<g id="edge11" class="edge"><title>Node1&#45;&gt;Node4</title>
<path fill="none" stroke="midnightblue" d="M105.244,-62.7302C154.274,-59.0408 223.624,-53.8224 265.266,-50.6889"/>
<polygon fill="midnightblue" stroke="midnightblue" points="104.816,-59.2524 95.1066,-63.493 105.341,-66.2327 104.816,-59.2524"/>
</g>
<!-- Node3 -->
<g id="node3" class="node"><title>Node3</title>
<g id="a_node3"><a xlink:href="classengine.html#a6809dcdfe78011851e377d4729a87ee4" target="_top" xlink:title="engine::initialize">
<polygon fill="none" stroke="black" points="259,-76.5 259,-95.5 345,-95.5 345,-76.5 259,-76.5"/>
<text text-anchor="middle" x="302" y="-83.5" font-family="Helvetica,sans-Serif" font-size="10.00">engine::initialize</text>
</a>
</g>
</g>
<!-- Node2&#45;&gt;Node3 -->
<g id="edge2" class="edge"><title>Node2&#45;&gt;Node3</title>
<path fill="none" stroke="midnightblue" d="M233.378,-86C241.903,-86 250.586,-86 258.765,-86"/>
<polygon fill="midnightblue" stroke="midnightblue" points="233.102,-82.5001 223.102,-86 233.102,-89.5001 233.102,-82.5001"/>
</g>
<!-- Node2&#45;&gt;Node4 -->
<g id="edge3" class="edge"><title>Node2&#45;&gt;Node4</title>
<path fill="none" stroke="midnightblue" d="M219.045,-73.3196C235.664,-68.1852 254.532,-62.3559 269.972,-57.5859"/>
<polygon fill="midnightblue" stroke="midnightblue" points="217.559,-70.1151 209.038,-76.411 219.626,-76.8032 217.559,-70.1151"/>
</g>
<!-- Node5 -->
<g id="node5" class="node"><title>Node5</title>
<g id="a_node5"><a xlink:href="classengine.html#a90418b124cd07d7d2f057e7d401ed641" target="_top" xlink:title="engine::_tick">
<polygon fill="none" stroke="black" points="381,-57.5 381,-76.5 453,-76.5 453,-57.5 381,-57.5"/>
<text text-anchor="middle" x="417" y="-64.5" font-family="Helvetica,sans-Serif" font-size="10.00">engine::_tick</text>
</a>
</g>
</g>
<!-- Node4&#45;&gt;Node5 -->
<g id="edge4" class="edge"><title>Node4&#45;&gt;Node5</title>
<path fill="none" stroke="midnightblue" d="M348.921,-49.0775C363.923,-51.2953 379.957,-54.3417 392.586,-57.4705"/>
<polygon fill="midnightblue" stroke="midnightblue" points="349.137,-45.5744 338.754,-47.6836 348.186,-52.5095 349.137,-45.5744"/>
</g>
<!-- Node5&#45;&gt;Node4 -->
<g id="edge10" class="edge"><title>Node5&#45;&gt;Node4</title>
<path fill="none" stroke="midnightblue" d="M370.371,-65.9655C355.285,-63.7442 339.125,-60.6786 326.414,-57.5295"/>
<polygon fill="midnightblue" stroke="midnightblue" points="370.206,-69.4754 380.588,-67.3592 371.152,-62.5397 370.206,-69.4754"/>
</g>
<!-- Node6 -->
<g id="node6" class="node"><title>Node6</title>
<g id="a_node6"><a xlink:href="classengine.html#a4bca5e9257e46c09a63f71227fc25a12" target="_top" xlink:title="engine::tick">
<polygon fill="none" stroke="black" points="489,-19.5 489,-38.5 556,-38.5 556,-19.5 489,-19.5"/>
<text text-anchor="middle" x="522.5" y="-26.5" font-family="Helvetica,sans-Serif" font-size="10.00">engine::tick</text>
</a>
</g>
</g>
<!-- Node5&#45;&gt;Node6 -->
<g id="edge5" class="edge"><title>Node5&#45;&gt;Node6</title>
<path fill="none" stroke="midnightblue" d="M453.729,-53.882C467.418,-48.8561 482.767,-43.2209 495.391,-38.5859"/>
<polygon fill="midnightblue" stroke="midnightblue" points="452.298,-50.6788 444.117,-57.411 454.711,-57.2499 452.298,-50.6788"/>
</g>
<!-- Node6&#45;&gt;Node4 -->
<g id="edge9" class="edge"><title>Node6&#45;&gt;Node4</title>
<path fill="none" stroke="midnightblue" d="M478.585,-32.7318C437.696,-36.2873 376.86,-41.5774 338.592,-44.905"/>
<polygon fill="midnightblue" stroke="midnightblue" points="479.122,-36.1984 488.781,-31.8451 478.515,-29.2247 479.122,-36.1984"/>
</g>
<!-- Node7 -->
<g id="node7" class="node"><title>Node7</title>
<g id="a_node7"><a xlink:href="classengine.html#a1d9b806d03be0255a8ac3c119e181cc5" target="_top" xlink:title="engine::_run">
<polygon fill="none" stroke="black" points="592,-0.5 592,-19.5 662,-19.5 662,-0.5 592,-0.5"/>
<text text-anchor="middle" x="627" y="-7.5" font-family="Helvetica,sans-Serif" font-size="10.00">engine::_run</text>
</a>
</g>
</g>
<!-- Node6&#45;&gt;Node7 -->
<g id="edge6" class="edge"><title>Node6&#45;&gt;Node7</title>
<path fill="none" stroke="midnightblue" d="M566.077,-21.1076C574.662,-19.5164 583.581,-17.8631 591.832,-16.3335"/>
<polygon fill="midnightblue" stroke="midnightblue" points="565.408,-17.672 556.213,-22.936 566.684,-24.5547 565.408,-17.672"/>
</g>
<!-- Node7&#45;&gt;Node4 -->
<g id="edge8" class="edge"><title>Node7&#45;&gt;Node4</title>
<path fill="none" stroke="midnightblue" d="M581.596,-7.74994C554.727,-6.94709 519.815,-6.89333 489,-10 440.261,-14.9137 428.993,-22.1894 381,-32 367.186,-34.8239 351.997,-37.9375 338.722,-40.6617"/>
<polygon fill="midnightblue" stroke="midnightblue" points="581.728,-11.2565 591.842,-8.10361 581.969,-4.26063 581.728,-11.2565"/>
</g>
<!-- Node8 -->
<g id="node8" class="node"><title>Node8</title>
<g id="a_node8"><a xlink:href="classengine.html#aecb22d51cc8f83cacbf3696a18d66c30" target="_top" xlink:title="engine::run">
<polygon fill="none" stroke="black" points="698,-0.5 698,-19.5 763,-19.5 763,-0.5 698,-0.5"/>
<text text-anchor="middle" x="730.5" y="-7.5" font-family="Helvetica,sans-Serif" font-size="10.00">engine::run</text>
</a>
</g>
</g>
<!-- Node7&#45;&gt;Node8 -->
<g id="edge7" class="edge"><title>Node7&#45;&gt;Node8</title>
<path fill="none" stroke="midnightblue" d="M672.325,-10C680.879,-10 689.681,-10 697.737,-10"/>
<polygon fill="midnightblue" stroke="midnightblue" points="672.08,-6.5001 662.08,-10 672.08,-13.5001 672.08,-6.5001"/>
</g>
</g>
</svg>
