<?xml version="1.0" encoding="UTF-8" standalone="no"?>
<!DOCTYPE svg PUBLIC "-//W3C//DTD SVG 1.1//EN"
 "http://www.w3.org/Graphics/SVG/1.1/DTD/svg11.dtd">
<!-- Generated by graphviz version 2.38.0 (20140413.2041)
 -->
<!-- Title: Camera::GetProj Pages: 1 -->
<svg width="682pt" height="113pt"
 viewBox="0.00 0.00 682.00 113.00" xmlns="http://www.w3.org/2000/svg" xmlns:xlink="http://www.w3.org/1999/xlink">
<g id="graph0" class="graph" transform="scale(1 1) rotate(0) translate(4 109)">
<title>Camera::GetProj</title>
<!-- Node1 -->
<g id="node1" class="node"><title>Node1</title>
<polygon fill="#bfbfbf" stroke="black" points="0,-0.5 0,-19.5 89,-19.5 89,-0.5 0,-0.5"/>
<text text-anchor="middle" x="44.5" y="-7.5" font-family="Helvetica,sans-Serif" font-size="10.00">Camera::GetProj</text>
</g>
<!-- Node2 -->
<g id="node2" class="node"><title>Node2</title>
<g id="a_node2"><a xlink:href="class_direct_x_renderer.html#af1bd5f83975a5f0fb1735b3a6e933656" target="_top" xlink:title="DirectXRenderer::Update">
<polygon fill="none" stroke="black" points="125,-0.5 125,-19.5 248,-19.5 248,-0.5 125,-0.5"/>
<text text-anchor="middle" x="186.5" y="-7.5" font-family="Helvetica,sans-Serif" font-size="10.00">DirectXRenderer::Update</text>
</a>
</g>
</g>
<!-- Node1&#45;&gt;Node2 -->
<g id="edge1" class="edge"><title>Node1&#45;&gt;Node2</title>
<path fill="none" stroke="midnightblue" d="M99.0804,-10C107.485,-10 116.225,-10 124.776,-10"/>
<polygon fill="midnightblue" stroke="midnightblue" points="99.0295,-6.5001 89.0295,-10 99.0294,-13.5001 99.0295,-6.5001"/>
</g>
<!-- Node3 -->
<g id="node3" class="node"><title>Node3</title>
<g id="a_node3"><a xlink:href="classengine.html#a90418b124cd07d7d2f057e7d401ed641" target="_top" xlink:title="engine::_tick">
<polygon fill="none" stroke="black" points="284,-0.5 284,-19.5 356,-19.5 356,-0.5 284,-0.5"/>
<text text-anchor="middle" x="320" y="-7.5" font-family="Helvetica,sans-Serif" font-size="10.00">engine::_tick</text>
</a>
</g>
</g>
<!-- Node2&#45;&gt;Node3 -->
<g id="edge2" class="edge"><title>Node2&#45;&gt;Node3</title>
<path fill="none" stroke="midnightblue" d="M258.31,-10C267.209,-10 275.982,-10 283.975,-10"/>
<polygon fill="midnightblue" stroke="midnightblue" points="258.246,-6.5001 248.246,-10 258.246,-13.5001 258.246,-6.5001"/>
</g>
<!-- Node4 -->
<g id="node4" class="node"><title>Node4</title>
<g id="a_node4"><a xlink:href="classengine.html#a4bca5e9257e46c09a63f71227fc25a12" target="_top" xlink:title="engine::tick">
<polygon fill="none" stroke="black" points="392,-47.5 392,-66.5 459,-66.5 459,-47.5 392,-47.5"/>
<text text-anchor="middle" x="425.5" y="-54.5" font-family="Helvetica,sans-Serif" font-size="10.00">engine::tick</text>
</a>
</g>
</g>
<!-- Node3&#45;&gt;Node4 -->
<g id="edge3" class="edge"><title>Node3&#45;&gt;Node4</title>
<path fill="none" stroke="midnightblue" d="M351.277,-23.7491C367.952,-31.3212 388.242,-40.535 403.231,-47.3417"/>
<polygon fill="midnightblue" stroke="midnightblue" points="352.497,-20.4591 341.945,-19.5112 349.603,-26.8327 352.497,-20.4591"/>
</g>
<!-- Node7 -->
<g id="node7" class="node"><title>Node7</title>
<g id="a_node7"><a xlink:href="classengine.html#ada832d0a14502f1b99fdbd5c72cab01b" target="_top" xlink:title="engine::Draw">
<polygon fill="none" stroke="black" points="601,-23.5 601,-42.5 674,-42.5 674,-23.5 601,-23.5"/>
<text text-anchor="middle" x="637.5" y="-30.5" font-family="Helvetica,sans-Serif" font-size="10.00">engine::Draw</text>
</a>
</g>
</g>
<!-- Node3&#45;&gt;Node7 -->
<g id="edge9" class="edge"><title>Node3&#45;&gt;Node7</title>
<path fill="none" stroke="midnightblue" d="M366.368,-8.4C429.723,-10.4209 543.381,-18.8554 600.971,-25.949"/>
<polygon fill="midnightblue" stroke="midnightblue" points="366.366,-4.89871 356.273,-8.12345 366.174,-11.8961 366.366,-4.89871"/>
</g>
<!-- Node5 -->
<g id="node5" class="node"><title>Node5</title>
<g id="a_node5"><a xlink:href="classengine.html#a1d9b806d03be0255a8ac3c119e181cc5" target="_top" xlink:title="engine::_run">
<polygon fill="none" stroke="black" points="495,-85.5 495,-104.5 565,-104.5 565,-85.5 495,-85.5"/>
<text text-anchor="middle" x="530" y="-92.5" font-family="Helvetica,sans-Serif" font-size="10.00">engine::_run</text>
</a>
</g>
</g>
<!-- Node4&#45;&gt;Node5 -->
<g id="edge4" class="edge"><title>Node4&#45;&gt;Node5</title>
<path fill="none" stroke="midnightblue" d="M461.884,-70.118C475.441,-75.1439 490.641,-80.7791 503.143,-85.4141"/>
<polygon fill="midnightblue" stroke="midnightblue" points="462.958,-66.7835 452.365,-66.589 460.525,-73.3469 462.958,-66.7835"/>
</g>
<!-- Node4&#45;&gt;Node7 -->
<g id="edge8" class="edge"><title>Node4&#45;&gt;Node7</title>
<path fill="none" stroke="midnightblue" d="M469.739,-52.0584C508.447,-47.6346 564.53,-41.2252 600.757,-37.0849"/>
<polygon fill="midnightblue" stroke="midnightblue" points="468.85,-48.6371 459.313,-53.25 469.645,-55.5918 468.85,-48.6371"/>
</g>
<!-- Node6 -->
<g id="node6" class="node"><title>Node6</title>
<g id="a_node6"><a xlink:href="classengine.html#aecb22d51cc8f83cacbf3696a18d66c30" target="_top" xlink:title="engine::run">
<polygon fill="none" stroke="black" points="605,-85.5 605,-104.5 670,-104.5 670,-85.5 605,-85.5"/>
<text text-anchor="middle" x="637.5" y="-92.5" font-family="Helvetica,sans-Serif" font-size="10.00">engine::run</text>
</a>
</g>
</g>
<!-- Node5&#45;&gt;Node6 -->
<g id="edge5" class="edge"><title>Node5&#45;&gt;Node6</title>
<path fill="none" stroke="midnightblue" d="M575.387,-95C585.311,-95 595.639,-95 604.92,-95"/>
<polygon fill="midnightblue" stroke="midnightblue" points="575.253,-91.5001 565.253,-95 575.253,-98.5001 575.253,-91.5001"/>
</g>
<!-- Node5&#45;&gt;Node7 -->
<g id="edge6" class="edge"><title>Node5&#45;&gt;Node7</title>
<path fill="none" stroke="midnightblue" d="M556.288,-80.1387C576.095,-68.4984 603.066,-52.6485 620.131,-42.6195"/>
<polygon fill="midnightblue" stroke="midnightblue" points="554.332,-77.2283 547.484,-85.3125 557.879,-83.2633 554.332,-77.2283"/>
</g>
<!-- Node7&#45;&gt;Node3 -->
<g id="edge7" class="edge"><title>Node7&#45;&gt;Node3</title>
<path fill="none" stroke="midnightblue" d="M590.85,-34.591C527.347,-32.5511 413.698,-24.1091 356.273,-17.0194"/>
<polygon fill="midnightblue" stroke="midnightblue" points="590.878,-38.093 600.971,-34.8708 591.072,-31.0957 590.878,-38.093"/>
</g>
</g>
</svg>
