<?xml version="1.0" encoding="UTF-8" standalone="no"?>
<!DOCTYPE svg PUBLIC "-//W3C//DTD SVG 1.1//EN"
 "http://www.w3.org/Graphics/SVG/1.1/DTD/svg11.dtd">
<!-- Generated by graphviz version 2.38.0 (20140413.2041)
 -->
<!-- Title: DirectXRenderer::resize Pages: 1 -->
<svg width="418pt" height="225pt"
 viewBox="0.00 0.00 418.00 224.50" xmlns="http://www.w3.org/2000/svg" xmlns:xlink="http://www.w3.org/1999/xlink">
<g id="graph0" class="graph" transform="scale(1 1) rotate(0) translate(4 220.5)">
<title>DirectXRenderer::resize</title>
<!-- Node1 -->
<g id="node1" class="node"><title>Node1</title>
<polygon fill="#bfbfbf" stroke="black" points="0,-93.5 0,-112.5 119,-112.5 119,-93.5 0,-93.5"/>
<text text-anchor="middle" x="59.5" y="-100.5" font-family="Helvetica,sans-Serif" font-size="10.00">DirectXRenderer::resize</text>
</g>
<!-- Node2 -->
<g id="node2" class="node"><title>Node2</title>
<g id="a_node2"><a xlink:href="class_direct_x_renderer.html#ab1ac2acccb63781ec8ccce58fe351c63" target="_top" xlink:title="DirectXRenderer::flush\l_command_queue">
<polygon fill="none" stroke="black" points="155,-186 155,-216 268,-216 268,-186 155,-186"/>
<text text-anchor="start" x="163" y="-204" font-family="Helvetica,sans-Serif" font-size="10.00">DirectXRenderer::flush</text>
<text text-anchor="middle" x="211.5" y="-193" font-family="Helvetica,sans-Serif" font-size="10.00">_command_queue</text>
</a>
</g>
</g>
<!-- Node1&#45;&gt;Node2 -->
<g id="edge1" class="edge"><title>Node1&#45;&gt;Node2</title>
<path fill="none" stroke="midnightblue" d="M70.899,-112.619C87.6412,-127.753 122.04,-157.411 155,-177 157.623,-178.559 160.365,-180.073 163.166,-181.532"/>
<polygon fill="midnightblue" stroke="midnightblue" points="161.721,-184.722 172.239,-185.996 164.811,-178.441 161.721,-184.722"/>
</g>
<!-- Node3 -->
<g id="node3" class="node"><title>Node3</title>
<g id="a_node3"><a xlink:href="class_direct_x_renderer.html#a3fd16381af742f128d5a7138d65be695" target="_top" xlink:title="DirectXRenderer::get\l_depth_stencil_view">
<polygon fill="none" stroke="black" points="158.5,-137 158.5,-167 264.5,-167 264.5,-137 158.5,-137"/>
<text text-anchor="start" x="166.5" y="-155" font-family="Helvetica,sans-Serif" font-size="10.00">DirectXRenderer::get</text>
<text text-anchor="middle" x="211.5" y="-144" font-family="Helvetica,sans-Serif" font-size="10.00">_depth_stencil_view</text>
</a>
</g>
</g>
<!-- Node1&#45;&gt;Node3 -->
<g id="edge2" class="edge"><title>Node1&#45;&gt;Node3</title>
<path fill="none" stroke="midnightblue" d="M89.7776,-112.564C108.271,-118.605 132.761,-126.605 154.848,-133.82"/>
<polygon fill="midnightblue" stroke="midnightblue" points="153.876,-137.185 164.468,-136.963 156.05,-130.531 153.876,-137.185"/>
</g>
<!-- Node4 -->
<g id="node4" class="node"><title>Node4</title>
<g id="a_node4"><a xlink:href="classengine.html#a54e5e763df5801c9289a2030635b3d52" target="_top" xlink:title="engine::get_current\l_camera">
<polygon fill="none" stroke="black" points="161.5,-88 161.5,-118 261.5,-118 261.5,-88 161.5,-88"/>
<text text-anchor="start" x="169.5" y="-106" font-family="Helvetica,sans-Serif" font-size="10.00">engine::get_current</text>
<text text-anchor="middle" x="211.5" y="-95" font-family="Helvetica,sans-Serif" font-size="10.00">_camera</text>
</a>
</g>
</g>
<!-- Node1&#45;&gt;Node4 -->
<g id="edge3" class="edge"><title>Node1&#45;&gt;Node4</title>
<path fill="none" stroke="midnightblue" d="M119.353,-103C129.695,-103 140.467,-103 150.831,-103"/>
<polygon fill="midnightblue" stroke="midnightblue" points="151.027,-106.5 161.027,-103 151.027,-99.5001 151.027,-106.5"/>
</g>
<!-- Node7 -->
<g id="node7" class="node"><title>Node7</title>
<g id="a_node7"><a xlink:href="class_camera.html#a5619188052108689a7a3171597fca7b6" target="_top" xlink:title="Camera::SetLens">
<polygon fill="none" stroke="black" points="165.5,-0.5 165.5,-19.5 257.5,-19.5 257.5,-0.5 165.5,-0.5"/>
<text text-anchor="middle" x="211.5" y="-7.5" font-family="Helvetica,sans-Serif" font-size="10.00">Camera::SetLens</text>
</a>
</g>
</g>
<!-- Node1&#45;&gt;Node7 -->
<g id="edge6" class="edge"><title>Node1&#45;&gt;Node7</title>
<path fill="none" stroke="midnightblue" d="M70.4556,-93.3232C86.8537,-77.8421 121.115,-47.3831 155,-29 158.777,-26.9511 162.816,-25.0616 166.928,-23.3344"/>
<polygon fill="midnightblue" stroke="midnightblue" points="168.507,-26.4762 176.568,-19.6007 165.979,-19.9487 168.507,-26.4762"/>
</g>
<!-- Node9 -->
<g id="node9" class="node"><title>Node9</title>
<g id="a_node9"><a xlink:href="classengine.html#aec4a8646ae5139982a23f45ee38b3224" target="_top" xlink:title="engine::get_aspect\l_ratio">
<polygon fill="none" stroke="black" points="162,-39 162,-69 261,-69 261,-39 162,-39"/>
<text text-anchor="start" x="170" y="-57" font-family="Helvetica,sans-Serif" font-size="10.00">engine::get_aspect</text>
<text text-anchor="middle" x="211.5" y="-46" font-family="Helvetica,sans-Serif" font-size="10.00">_ratio</text>
</a>
</g>
</g>
<!-- Node1&#45;&gt;Node9 -->
<g id="edge8" class="edge"><title>Node1&#45;&gt;Node9</title>
<path fill="none" stroke="midnightblue" d="M89.7776,-93.436C108.271,-87.395 132.761,-79.3948 154.848,-72.1796"/>
<polygon fill="midnightblue" stroke="midnightblue" points="156.05,-75.4692 164.468,-69.037 153.876,-68.8152 156.05,-75.4692"/>
</g>
<!-- Node5 -->
<g id="node5" class="node"><title>Node5</title>
<g id="a_node5"><a xlink:href="classengine.html#a240cde5717390f5f154bc9e4af2c36eb" target="_top" xlink:title="engine::get_engine">
<polygon fill="none" stroke="black" points="308,-88.5 308,-107.5 406,-107.5 406,-88.5 308,-88.5"/>
<text text-anchor="middle" x="357" y="-95.5" font-family="Helvetica,sans-Serif" font-size="10.00">engine::get_engine</text>
</a>
</g>
</g>
<!-- Node4&#45;&gt;Node5 -->
<g id="edge4" class="edge"><title>Node4&#45;&gt;Node5</title>
<path fill="none" stroke="midnightblue" d="M261.885,-101.279C273.422,-100.877 285.817,-100.445 297.702,-100.031"/>
<polygon fill="midnightblue" stroke="midnightblue" points="298.108,-103.519 307.98,-99.6732 297.864,-96.5236 298.108,-103.519"/>
</g>
<!-- Node6 -->
<g id="node6" class="node"><title>Node6</title>
<g id="a_node6"><a xlink:href="class_direct_x_renderer.html#a8232561ca218d26c0f70d9f9b3dbcea6" target="_top" xlink:title="DirectXRenderer::get\l_current_camera">
<polygon fill="none" stroke="black" points="304,-127 304,-157 410,-157 410,-127 304,-127"/>
<text text-anchor="start" x="312" y="-145" font-family="Helvetica,sans-Serif" font-size="10.00">DirectXRenderer::get</text>
<text text-anchor="middle" x="357" y="-134" font-family="Helvetica,sans-Serif" font-size="10.00">_current_camera</text>
</a>
</g>
</g>
<!-- Node4&#45;&gt;Node6 -->
<g id="edge5" class="edge"><title>Node4&#45;&gt;Node6</title>
<path fill="none" stroke="midnightblue" d="M261.885,-116.422C272.188,-119.222 283.176,-122.208 293.873,-125.115"/>
<polygon fill="midnightblue" stroke="midnightblue" points="293.019,-128.51 303.587,-127.755 294.855,-121.755 293.019,-128.51"/>
</g>
<!-- Node8 -->
<g id="node8" class="node"><title>Node8</title>
<g id="a_node8"><a xlink:href="class_camera.html#a34d7f37c11a8e47788cd360940076874" target="_top" xlink:title="Camera::LookAt">
<polygon fill="none" stroke="black" points="313.5,-0.5 313.5,-19.5 400.5,-19.5 400.5,-0.5 313.5,-0.5"/>
<text text-anchor="middle" x="357" y="-7.5" font-family="Helvetica,sans-Serif" font-size="10.00">Camera::LookAt</text>
</a>
</g>
</g>
<!-- Node7&#45;&gt;Node8 -->
<g id="edge7" class="edge"><title>Node7&#45;&gt;Node8</title>
<path fill="none" stroke="midnightblue" d="M257.511,-10C271.936,-10 288.044,-10 302.986,-10"/>
<polygon fill="midnightblue" stroke="midnightblue" points="303.109,-13.5001 313.109,-10 303.109,-6.5001 303.109,-13.5001"/>
</g>
<!-- Node9&#45;&gt;Node5 -->
<g id="edge9" class="edge"><title>Node9&#45;&gt;Node5</title>
<path fill="none" stroke="midnightblue" d="M261.083,-68.8964C278.455,-74.2231 297.857,-80.1722 314.57,-85.2966"/>
<polygon fill="midnightblue" stroke="midnightblue" points="313.999,-88.7825 324.586,-88.3678 316.051,-82.09 313.999,-88.7825"/>
</g>
<!-- Node10 -->
<g id="node10" class="node"><title>Node10</title>
<g id="a_node10"><a xlink:href="classengine.html#ad86c3cbf7b32238e3220bf099d9f3f07" target="_top" xlink:title="engine::_get_aspect\l_ratio">
<polygon fill="none" stroke="black" points="305,-39 305,-69 409,-69 409,-39 305,-39"/>
<text text-anchor="start" x="313" y="-57" font-family="Helvetica,sans-Serif" font-size="10.00">engine::_get_aspect</text>
<text text-anchor="middle" x="357" y="-46" font-family="Helvetica,sans-Serif" font-size="10.00">_ratio</text>
</a>
</g>
</g>
<!-- Node9&#45;&gt;Node10 -->
<g id="edge10" class="edge"><title>Node9&#45;&gt;Node10</title>
<path fill="none" stroke="midnightblue" d="M261.083,-54C271.79,-54 283.269,-54 294.413,-54"/>
<polygon fill="midnightblue" stroke="midnightblue" points="294.523,-57.5001 304.523,-54 294.523,-50.5001 294.523,-57.5001"/>
</g>
</g>
</svg>
