<?xml version="1.0" encoding="UTF-8" standalone="no"?>
<!DOCTYPE svg PUBLIC "-//W3C//DTD SVG 1.1//EN"
 "http://www.w3.org/Graphics/SVG/1.1/DTD/svg11.dtd">
<!-- Generated by graphviz version 2.38.0 (20140413.2041)
 -->
<!-- Title: DirectXRenderer::get_current_back_buffer Pages: 1 -->
<svg width="696pt" height="119pt"
 viewBox="0.00 0.00 696.00 118.50" xmlns="http://www.w3.org/2000/svg" xmlns:xlink="http://www.w3.org/1999/xlink">
<g id="graph0" class="graph" transform="scale(1 1) rotate(0) translate(4 114.5)">
<title>DirectXRenderer::get_current_back_buffer</title>
<!-- Node1 -->
<g id="node1" class="node"><title>Node1</title>
<polygon fill="#bfbfbf" stroke="black" points="0,-0.5 0,-30.5 107,-30.5 107,-0.5 0,-0.5"/>
<text text-anchor="start" x="8" y="-18.5" font-family="Helvetica,sans-Serif" font-size="10.00">DirectXRenderer::get</text>
<text text-anchor="middle" x="53.5" y="-7.5" font-family="Helvetica,sans-Serif" font-size="10.00">_current_back_buffer</text>
</g>
<!-- Node2 -->
<g id="node2" class="node"><title>Node2</title>
<g id="a_node2"><a xlink:href="class_direct_x_renderer.html#a2f3ecabf3d5e9d76b7754d66a6a346d3" target="_top" xlink:title="DirectXRenderer::render">
<polygon fill="none" stroke="black" points="143,-6 143,-25 262,-25 262,-6 143,-6"/>
<text text-anchor="middle" x="202.5" y="-13" font-family="Helvetica,sans-Serif" font-size="10.00">DirectXRenderer::render</text>
</a>
</g>
</g>
<!-- Node1&#45;&gt;Node2 -->
<g id="edge1" class="edge"><title>Node1&#45;&gt;Node2</title>
<path fill="none" stroke="midnightblue" d="M117.387,-15.5C125.879,-15.5 134.565,-15.5 142.977,-15.5"/>
<polygon fill="midnightblue" stroke="midnightblue" points="117.155,-12.0001 107.155,-15.5 117.155,-19.0001 117.155,-12.0001"/>
</g>
<!-- Node3 -->
<g id="node3" class="node"><title>Node3</title>
<g id="a_node3"><a xlink:href="classengine.html#a90418b124cd07d7d2f057e7d401ed641" target="_top" xlink:title="engine::_tick">
<polygon fill="none" stroke="black" points="298,-6 298,-25 370,-25 370,-6 298,-6"/>
<text text-anchor="middle" x="334" y="-13" font-family="Helvetica,sans-Serif" font-size="10.00">engine::_tick</text>
</a>
</g>
</g>
<!-- Node2&#45;&gt;Node3 -->
<g id="edge2" class="edge"><title>Node2&#45;&gt;Node3</title>
<path fill="none" stroke="midnightblue" d="M272.208,-15.5C281.077,-15.5 289.847,-15.5 297.849,-15.5"/>
<polygon fill="midnightblue" stroke="midnightblue" points="272.188,-12.0001 262.188,-15.5 272.188,-19.0001 272.188,-12.0001"/>
</g>
<!-- Node4 -->
<g id="node4" class="node"><title>Node4</title>
<g id="a_node4"><a xlink:href="classengine.html#a4bca5e9257e46c09a63f71227fc25a12" target="_top" xlink:title="engine::tick">
<polygon fill="none" stroke="black" points="406,-53 406,-72 473,-72 473,-53 406,-53"/>
<text text-anchor="middle" x="439.5" y="-60" font-family="Helvetica,sans-Serif" font-size="10.00">engine::tick</text>
</a>
</g>
</g>
<!-- Node3&#45;&gt;Node4 -->
<g id="edge3" class="edge"><title>Node3&#45;&gt;Node4</title>
<path fill="none" stroke="midnightblue" d="M365.277,-29.2491C381.952,-36.8212 402.242,-46.035 417.231,-52.8417"/>
<polygon fill="midnightblue" stroke="midnightblue" points="366.497,-25.9591 355.945,-25.0112 363.603,-32.3327 366.497,-25.9591"/>
</g>
<!-- Node7 -->
<g id="node7" class="node"><title>Node7</title>
<g id="a_node7"><a xlink:href="classengine.html#ada832d0a14502f1b99fdbd5c72cab01b" target="_top" xlink:title="engine::Draw">
<polygon fill="none" stroke="black" points="615,-29 615,-48 688,-48 688,-29 615,-29"/>
<text text-anchor="middle" x="651.5" y="-36" font-family="Helvetica,sans-Serif" font-size="10.00">engine::Draw</text>
</a>
</g>
</g>
<!-- Node3&#45;&gt;Node7 -->
<g id="edge9" class="edge"><title>Node3&#45;&gt;Node7</title>
<path fill="none" stroke="midnightblue" d="M380.368,-13.9C443.723,-15.9209 557.381,-24.3554 614.971,-31.449"/>
<polygon fill="midnightblue" stroke="midnightblue" points="380.366,-10.3987 370.273,-13.6234 380.174,-17.3961 380.366,-10.3987"/>
</g>
<!-- Node5 -->
<g id="node5" class="node"><title>Node5</title>
<g id="a_node5"><a xlink:href="classengine.html#a1d9b806d03be0255a8ac3c119e181cc5" target="_top" xlink:title="engine::_run">
<polygon fill="none" stroke="black" points="509,-91 509,-110 579,-110 579,-91 509,-91"/>
<text text-anchor="middle" x="544" y="-98" font-family="Helvetica,sans-Serif" font-size="10.00">engine::_run</text>
</a>
</g>
</g>
<!-- Node4&#45;&gt;Node5 -->
<g id="edge4" class="edge"><title>Node4&#45;&gt;Node5</title>
<path fill="none" stroke="midnightblue" d="M475.884,-75.618C489.441,-80.6439 504.641,-86.2791 517.143,-90.9141"/>
<polygon fill="midnightblue" stroke="midnightblue" points="476.958,-72.2835 466.365,-72.089 474.525,-78.8469 476.958,-72.2835"/>
</g>
<!-- Node4&#45;&gt;Node7 -->
<g id="edge8" class="edge"><title>Node4&#45;&gt;Node7</title>
<path fill="none" stroke="midnightblue" d="M483.739,-57.5584C522.447,-53.1346 578.53,-46.7252 614.757,-42.5849"/>
<polygon fill="midnightblue" stroke="midnightblue" points="482.85,-54.1371 473.313,-58.75 483.645,-61.0918 482.85,-54.1371"/>
</g>
<!-- Node6 -->
<g id="node6" class="node"><title>Node6</title>
<g id="a_node6"><a xlink:href="classengine.html#aecb22d51cc8f83cacbf3696a18d66c30" target="_top" xlink:title="engine::run">
<polygon fill="none" stroke="black" points="619,-91 619,-110 684,-110 684,-91 619,-91"/>
<text text-anchor="middle" x="651.5" y="-98" font-family="Helvetica,sans-Serif" font-size="10.00">engine::run</text>
</a>
</g>
</g>
<!-- Node5&#45;&gt;Node6 -->
<g id="edge5" class="edge"><title>Node5&#45;&gt;Node6</title>
<path fill="none" stroke="midnightblue" d="M589.387,-100.5C599.311,-100.5 609.639,-100.5 618.92,-100.5"/>
<polygon fill="midnightblue" stroke="midnightblue" points="589.253,-97.0001 579.253,-100.5 589.253,-104 589.253,-97.0001"/>
</g>
<!-- Node5&#45;&gt;Node7 -->
<g id="edge6" class="edge"><title>Node5&#45;&gt;Node7</title>
<path fill="none" stroke="midnightblue" d="M570.288,-85.6387C590.095,-73.9984 617.066,-58.1485 634.131,-48.1195"/>
<polygon fill="midnightblue" stroke="midnightblue" points="568.332,-82.7283 561.484,-90.8125 571.879,-88.7633 568.332,-82.7283"/>
</g>
<!-- Node7&#45;&gt;Node3 -->
<g id="edge7" class="edge"><title>Node7&#45;&gt;Node3</title>
<path fill="none" stroke="midnightblue" d="M604.85,-40.091C541.347,-38.0511 427.698,-29.6091 370.273,-22.5194"/>
<polygon fill="midnightblue" stroke="midnightblue" points="604.878,-43.593 614.971,-40.3708 605.072,-36.5957 604.878,-43.593"/>
</g>
</g>
</svg>
