<?xml version="1.0" encoding="UTF-8" standalone="no"?>
<!DOCTYPE svg PUBLIC "-//W3C//DTD SVG 1.1//EN"
 "http://www.w3.org/Graphics/SVG/1.1/DTD/svg11.dtd">
<!-- Generated by graphviz version 2.38.0 (20140413.2041)
 -->
<!-- Title: engine::resize Pages: 1 -->
<svg width="650pt" height="275pt"
 viewBox="0.00 0.00 650.00 275.04" xmlns="http://www.w3.org/2000/svg" xmlns:xlink="http://www.w3.org/1999/xlink">
<g id="graph0" class="graph" transform="scale(1 1) rotate(0) translate(4 271.04)">
<title>engine::resize</title>
<!-- Node1 -->
<g id="node1" class="node"><title>Node1</title>
<polygon fill="#bfbfbf" stroke="black" points="0,-42.5398 0,-61.5398 77,-61.5398 77,-42.5398 0,-42.5398"/>
<text text-anchor="middle" x="38.5" y="-49.5398" font-family="Helvetica,sans-Serif" font-size="10.00">engine::resize</text>
</g>
<!-- Node2 -->
<g id="node2" class="node"><title>Node2</title>
<g id="a_node2"><a xlink:href="classengine.html#a240cde5717390f5f154bc9e4af2c36eb" target="_top" xlink:title="engine::get_engine">
<polygon fill="none" stroke="black" points="540,-107.54 540,-126.54 638,-126.54 638,-107.54 540,-107.54"/>
<text text-anchor="middle" x="589" y="-114.54" font-family="Helvetica,sans-Serif" font-size="10.00">engine::get_engine</text>
</a>
</g>
</g>
<!-- Node1&#45;&gt;Node2 -->
<g id="edge1" class="edge"><title>Node1&#45;&gt;Node2</title>
<path fill="none" stroke="midnightblue" d="M66.8689,-42.5306C141.76,-18.2742 354.178,38.5721 500,-41.0398 525.97,-55.2181 513.055,-78.3588 536,-97.0398 538.707,-99.2441 541.685,-101.224 544.803,-103"/>
<polygon fill="midnightblue" stroke="midnightblue" points="543.338,-106.18 553.853,-107.478 546.442,-99.9061 543.338,-106.18"/>
</g>
<!-- Node3 -->
<g id="node3" class="node"><title>Node3</title>
<g id="a_node3"><a xlink:href="classengine.html#a097517979864142f35d1969b5cf3d437" target="_top" xlink:title="engine::_resize">
<polygon fill="none" stroke="black" points="113,-80.5398 113,-99.5398 196,-99.5398 196,-80.5398 113,-80.5398"/>
<text text-anchor="middle" x="154.5" y="-87.5398" font-family="Helvetica,sans-Serif" font-size="10.00">engine::_resize</text>
</a>
</g>
</g>
<!-- Node1&#45;&gt;Node3 -->
<g id="edge2" class="edge"><title>Node1&#45;&gt;Node3</title>
<path fill="none" stroke="midnightblue" d="M68.267,-61.6288C82.4433,-66.3543 99.7366,-72.1187 115.032,-77.2172"/>
<polygon fill="midnightblue" stroke="midnightblue" points="114.149,-80.612 124.742,-80.4539 116.362,-73.9712 114.149,-80.612"/>
</g>
<!-- Node4 -->
<g id="node4" class="node"><title>Node4</title>
<g id="a_node4"><a xlink:href="class_direct_x_renderer.html#aceda888b20469930d5a99edc842d21a6" target="_top" xlink:title="DirectXRenderer::get\l_is_rendering">
<polygon fill="none" stroke="black" points="238.5,-97.0398 238.5,-127.04 344.5,-127.04 344.5,-97.0398 238.5,-97.0398"/>
<text text-anchor="start" x="246.5" y="-115.04" font-family="Helvetica,sans-Serif" font-size="10.00">DirectXRenderer::get</text>
<text text-anchor="middle" x="291.5" y="-104.04" font-family="Helvetica,sans-Serif" font-size="10.00">_is_rendering</text>
</a>
</g>
</g>
<!-- Node3&#45;&gt;Node4 -->
<g id="edge3" class="edge"><title>Node3&#45;&gt;Node4</title>
<path fill="none" stroke="midnightblue" d="M196.004,-96.6406C206.113,-98.2879 217.189,-100.093 228.087,-101.869"/>
<polygon fill="midnightblue" stroke="midnightblue" points="227.58,-105.332 238.013,-103.486 228.706,-98.4234 227.58,-105.332"/>
</g>
<!-- Node5 -->
<g id="node5" class="node"><title>Node5</title>
<g id="a_node5"><a xlink:href="class_direct_x_renderer.html#ae823daf9d77db0f506320f7171cb117d" target="_top" xlink:title="DirectXRenderer::resize">
<polygon fill="none" stroke="black" points="232,-150.54 232,-169.54 351,-169.54 351,-150.54 232,-150.54"/>
<text text-anchor="middle" x="291.5" y="-157.54" font-family="Helvetica,sans-Serif" font-size="10.00">DirectXRenderer::resize</text>
</a>
</g>
</g>
<!-- Node3&#45;&gt;Node5 -->
<g id="edge4" class="edge"><title>Node3&#45;&gt;Node5</title>
<path fill="none" stroke="midnightblue" d="M170.074,-99.7168C185.193,-109.536 209.702,-124.844 232,-136.04 239.463,-139.787 247.656,-143.427 255.486,-146.691"/>
<polygon fill="midnightblue" stroke="midnightblue" points="254.202,-149.948 264.784,-150.47 256.838,-143.463 254.202,-149.948"/>
</g>
<!-- Node14 -->
<g id="node14" class="node"><title>Node14</title>
<g id="a_node14"><a xlink:href="classengine.html#aad7508d4c4c0c045e5335387422bf56d" target="_top" xlink:title="engine::OnResize">
<polygon fill="none" stroke="black" points="244.5,-58.5398 244.5,-77.5398 338.5,-77.5398 338.5,-58.5398 244.5,-58.5398"/>
<text text-anchor="middle" x="291.5" y="-65.5398" font-family="Helvetica,sans-Serif" font-size="10.00">engine::OnResize</text>
</a>
</g>
</g>
<!-- Node3&#45;&gt;Node14 -->
<g id="edge15" class="edge"><title>Node3&#45;&gt;Node14</title>
<path fill="none" stroke="midnightblue" d="M196.004,-83.4391C208.016,-81.4817 221.393,-79.3017 234.215,-77.2123"/>
<polygon fill="midnightblue" stroke="midnightblue" points="235.035,-80.6249 244.342,-75.562 233.909,-73.716 235.035,-80.6249"/>
</g>
<!-- Node6 -->
<g id="node6" class="node"><title>Node6</title>
<g id="a_node6"><a xlink:href="class_direct_x_renderer.html#ab1ac2acccb63781ec8ccce58fe351c63" target="_top" xlink:title="DirectXRenderer::flush\l_command_queue">
<polygon fill="none" stroke="black" points="387,-51.0398 387,-81.0398 500,-81.0398 500,-51.0398 387,-51.0398"/>
<text text-anchor="start" x="395" y="-69.0398" font-family="Helvetica,sans-Serif" font-size="10.00">DirectXRenderer::flush</text>
<text text-anchor="middle" x="443.5" y="-58.0398" font-family="Helvetica,sans-Serif" font-size="10.00">_command_queue</text>
</a>
</g>
</g>
<!-- Node5&#45;&gt;Node6 -->
<g id="edge5" class="edge"><title>Node5&#45;&gt;Node6</title>
<path fill="none" stroke="midnightblue" d="M324.153,-150.497C333.341,-146.845 343.035,-142.07 351,-136.04 371.698,-120.369 366.45,-105.905 387,-90.0398 388.755,-88.6846 390.599,-87.3897 392.504,-86.1542"/>
<polygon fill="midnightblue" stroke="midnightblue" points="394.284,-89.1679 401.171,-81.1165 390.767,-83.116 394.284,-89.1679"/>
</g>
<!-- Node7 -->
<g id="node7" class="node"><title>Node7</title>
<g id="a_node7"><a xlink:href="class_direct_x_renderer.html#a3fd16381af742f128d5a7138d65be695" target="_top" xlink:title="DirectXRenderer::get\l_depth_stencil_view">
<polygon fill="none" stroke="black" points="390.5,-198.04 390.5,-228.04 496.5,-228.04 496.5,-198.04 390.5,-198.04"/>
<text text-anchor="start" x="398.5" y="-216.04" font-family="Helvetica,sans-Serif" font-size="10.00">DirectXRenderer::get</text>
<text text-anchor="middle" x="443.5" y="-205.04" font-family="Helvetica,sans-Serif" font-size="10.00">_depth_stencil_view</text>
</a>
</g>
</g>
<!-- Node5&#45;&gt;Node7 -->
<g id="edge6" class="edge"><title>Node5&#45;&gt;Node7</title>
<path fill="none" stroke="midnightblue" d="M319.664,-169.638C339.327,-176.586 366.52,-186.194 390.323,-194.604"/>
<polygon fill="midnightblue" stroke="midnightblue" points="389.345,-197.97 399.94,-198.002 391.677,-191.37 389.345,-197.97"/>
</g>
<!-- Node8 -->
<g id="node8" class="node"><title>Node8</title>
<g id="a_node8"><a xlink:href="classengine.html#a54e5e763df5801c9289a2030635b3d52" target="_top" xlink:title="engine::get_current\l_camera">
<polygon fill="none" stroke="black" points="393.5,-149.04 393.5,-179.04 493.5,-179.04 493.5,-149.04 393.5,-149.04"/>
<text text-anchor="start" x="401.5" y="-167.04" font-family="Helvetica,sans-Serif" font-size="10.00">engine::get_current</text>
<text text-anchor="middle" x="443.5" y="-156.04" font-family="Helvetica,sans-Serif" font-size="10.00">_camera</text>
</a>
</g>
</g>
<!-- Node5&#45;&gt;Node8 -->
<g id="edge7" class="edge"><title>Node5&#45;&gt;Node8</title>
<path fill="none" stroke="midnightblue" d="M351.353,-161.609C361.695,-161.885 372.467,-162.172 382.831,-162.449"/>
<polygon fill="midnightblue" stroke="midnightblue" points="382.937,-165.953 393.027,-162.721 383.124,-158.955 382.937,-165.953"/>
</g>
<!-- Node10 -->
<g id="node10" class="node"><title>Node10</title>
<g id="a_node10"><a xlink:href="class_camera.html#a5619188052108689a7a3171597fca7b6" target="_top" xlink:title="Camera::SetLens">
<polygon fill="none" stroke="black" points="397.5,-247.54 397.5,-266.54 489.5,-266.54 489.5,-247.54 397.5,-247.54"/>
<text text-anchor="middle" x="443.5" y="-254.54" font-family="Helvetica,sans-Serif" font-size="10.00">Camera::SetLens</text>
</a>
</g>
</g>
<!-- Node5&#45;&gt;Node10 -->
<g id="edge10" class="edge"><title>Node5&#45;&gt;Node10</title>
<path fill="none" stroke="midnightblue" d="M301.828,-169.753C317.86,-185.953 352.28,-218.622 387,-238.04 390.7,-240.109 394.664,-242.008 398.708,-243.737"/>
<polygon fill="midnightblue" stroke="midnightblue" points="397.617,-247.068 408.205,-247.463 400.174,-240.552 397.617,-247.068"/>
</g>
<!-- Node12 -->
<g id="node12" class="node"><title>Node12</title>
<g id="a_node12"><a xlink:href="classengine.html#aec4a8646ae5139982a23f45ee38b3224" target="_top" xlink:title="engine::get_aspect\l_ratio">
<polygon fill="none" stroke="black" points="394,-100.04 394,-130.04 493,-130.04 493,-100.04 394,-100.04"/>
<text text-anchor="start" x="402" y="-118.04" font-family="Helvetica,sans-Serif" font-size="10.00">engine::get_aspect</text>
<text text-anchor="middle" x="443.5" y="-107.04" font-family="Helvetica,sans-Serif" font-size="10.00">_ratio</text>
</a>
</g>
</g>
<!-- Node5&#45;&gt;Node12 -->
<g id="edge12" class="edge"><title>Node5&#45;&gt;Node12</title>
<path fill="none" stroke="midnightblue" d="M324.311,-150.497C341.679,-145.286 363.734,-138.67 384.076,-132.567"/>
<polygon fill="midnightblue" stroke="midnightblue" points="385.324,-135.847 393.896,-129.621 383.312,-129.142 385.324,-135.847"/>
</g>
<!-- Node8&#45;&gt;Node2 -->
<g id="edge8" class="edge"><title>Node8&#45;&gt;Node2</title>
<path fill="none" stroke="midnightblue" d="M490.299,-149.04C509.262,-142.829 531.02,-135.702 549.182,-129.754"/>
<polygon fill="midnightblue" stroke="midnightblue" points="550.448,-133.022 558.862,-126.583 548.269,-126.37 550.448,-133.022"/>
</g>
<!-- Node9 -->
<g id="node9" class="node"><title>Node9</title>
<g id="a_node9"><a xlink:href="class_direct_x_renderer.html#a8232561ca218d26c0f70d9f9b3dbcea6" target="_top" xlink:title="DirectXRenderer::get\l_current_camera">
<polygon fill="none" stroke="black" points="536,-149.04 536,-179.04 642,-179.04 642,-149.04 536,-149.04"/>
<text text-anchor="start" x="544" y="-167.04" font-family="Helvetica,sans-Serif" font-size="10.00">DirectXRenderer::get</text>
<text text-anchor="middle" x="589" y="-156.04" font-family="Helvetica,sans-Serif" font-size="10.00">_current_camera</text>
</a>
</g>
</g>
<!-- Node8&#45;&gt;Node9 -->
<g id="edge9" class="edge"><title>Node8&#45;&gt;Node9</title>
<path fill="none" stroke="midnightblue" d="M493.885,-164.04C504.083,-164.04 514.952,-164.04 525.546,-164.04"/>
<polygon fill="midnightblue" stroke="midnightblue" points="525.587,-167.54 535.587,-164.04 525.587,-160.54 525.587,-167.54"/>
</g>
<!-- Node11 -->
<g id="node11" class="node"><title>Node11</title>
<g id="a_node11"><a xlink:href="class_camera.html#a34d7f37c11a8e47788cd360940076874" target="_top" xlink:title="Camera::LookAt">
<polygon fill="none" stroke="black" points="545.5,-247.54 545.5,-266.54 632.5,-266.54 632.5,-247.54 545.5,-247.54"/>
<text text-anchor="middle" x="589" y="-254.54" font-family="Helvetica,sans-Serif" font-size="10.00">Camera::LookAt</text>
</a>
</g>
</g>
<!-- Node10&#45;&gt;Node11 -->
<g id="edge11" class="edge"><title>Node10&#45;&gt;Node11</title>
<path fill="none" stroke="midnightblue" d="M489.511,-257.04C503.936,-257.04 520.044,-257.04 534.986,-257.04"/>
<polygon fill="midnightblue" stroke="midnightblue" points="535.109,-260.54 545.109,-257.04 535.109,-253.54 535.109,-260.54"/>
</g>
<!-- Node12&#45;&gt;Node2 -->
<g id="edge13" class="edge"><title>Node12&#45;&gt;Node2</title>
<path fill="none" stroke="midnightblue" d="M493.083,-115.717C504.898,-115.882 517.652,-116.059 529.861,-116.23"/>
<polygon fill="midnightblue" stroke="midnightblue" points="529.907,-119.73 539.955,-116.37 530.004,-112.731 529.907,-119.73"/>
</g>
<!-- Node13 -->
<g id="node13" class="node"><title>Node13</title>
<g id="a_node13"><a xlink:href="classengine.html#ad86c3cbf7b32238e3220bf099d9f3f07" target="_top" xlink:title="engine::_get_aspect\l_ratio">
<polygon fill="none" stroke="black" points="537,-58.0398 537,-88.0398 641,-88.0398 641,-58.0398 537,-58.0398"/>
<text text-anchor="start" x="545" y="-76.0398" font-family="Helvetica,sans-Serif" font-size="10.00">engine::_get_aspect</text>
<text text-anchor="middle" x="589" y="-65.0398" font-family="Helvetica,sans-Serif" font-size="10.00">_ratio</text>
</a>
</g>
</g>
<!-- Node12&#45;&gt;Node13 -->
<g id="edge14" class="edge"><title>Node12&#45;&gt;Node13</title>
<path fill="none" stroke="midnightblue" d="M493.083,-100.821C503.899,-97.6547 515.503,-94.2585 526.754,-90.9654"/>
<polygon fill="midnightblue" stroke="midnightblue" points="527.908,-94.2745 536.523,-88.1064 525.942,-87.5564 527.908,-94.2745"/>
</g>
</g>
</svg>
