<?xml version="1.0" encoding="UTF-8" standalone="no"?>
<!DOCTYPE svg PUBLIC "-//W3C//DTD SVG 1.1//EN"
 "http://www.w3.org/Graphics/SVG/1.1/DTD/svg11.dtd">
<!-- Generated by graphviz version 2.38.0 (20140413.2041)
 -->
<!-- Title: Camera::UpdateViewMatrix Pages: 1 -->
<svg width="728pt" height="113pt"
 viewBox="0.00 0.00 728.00 113.00" xmlns="http://www.w3.org/2000/svg" xmlns:xlink="http://www.w3.org/1999/xlink">
<g id="graph0" class="graph" transform="scale(1 1) rotate(0) translate(4 109)">
<title>Camera::UpdateViewMatrix</title>
<!-- Node1 -->
<g id="node1" class="node"><title>Node1</title>
<polygon fill="#bfbfbf" stroke="black" points="0,-0.5 0,-19.5 135,-19.5 135,-0.5 0,-0.5"/>
<text text-anchor="middle" x="67.5" y="-7.5" font-family="Helvetica,sans-Serif" font-size="10.00">Camera::UpdateViewMatrix</text>
</g>
<!-- Node2 -->
<g id="node2" class="node"><title>Node2</title>
<g id="a_node2"><a xlink:href="class_direct_x_renderer.html#af1bd5f83975a5f0fb1735b3a6e933656" target="_top" xlink:title="DirectXRenderer::Update">
<polygon fill="none" stroke="black" points="171,-0.5 171,-19.5 294,-19.5 294,-0.5 171,-0.5"/>
<text text-anchor="middle" x="232.5" y="-7.5" font-family="Helvetica,sans-Serif" font-size="10.00">DirectXRenderer::Update</text>
</a>
</g>
</g>
<!-- Node1&#45;&gt;Node2 -->
<g id="edge1" class="edge"><title>Node1&#45;&gt;Node2</title>
<path fill="none" stroke="midnightblue" d="M145.287,-10C153.868,-10 162.519,-10 170.857,-10"/>
<polygon fill="midnightblue" stroke="midnightblue" points="145.269,-6.5001 135.269,-10 145.269,-13.5001 145.269,-6.5001"/>
</g>
<!-- Node3 -->
<g id="node3" class="node"><title>Node3</title>
<g id="a_node3"><a xlink:href="classengine.html#a90418b124cd07d7d2f057e7d401ed641" target="_top" xlink:title="engine::_tick">
<polygon fill="none" stroke="black" points="330,-0.5 330,-19.5 402,-19.5 402,-0.5 330,-0.5"/>
<text text-anchor="middle" x="366" y="-7.5" font-family="Helvetica,sans-Serif" font-size="10.00">engine::_tick</text>
</a>
</g>
</g>
<!-- Node2&#45;&gt;Node3 -->
<g id="edge2" class="edge"><title>Node2&#45;&gt;Node3</title>
<path fill="none" stroke="midnightblue" d="M304.31,-10C313.209,-10 321.982,-10 329.975,-10"/>
<polygon fill="midnightblue" stroke="midnightblue" points="304.246,-6.5001 294.246,-10 304.246,-13.5001 304.246,-6.5001"/>
</g>
<!-- Node4 -->
<g id="node4" class="node"><title>Node4</title>
<g id="a_node4"><a xlink:href="classengine.html#a4bca5e9257e46c09a63f71227fc25a12" target="_top" xlink:title="engine::tick">
<polygon fill="none" stroke="black" points="438,-47.5 438,-66.5 505,-66.5 505,-47.5 438,-47.5"/>
<text text-anchor="middle" x="471.5" y="-54.5" font-family="Helvetica,sans-Serif" font-size="10.00">engine::tick</text>
</a>
</g>
</g>
<!-- Node3&#45;&gt;Node4 -->
<g id="edge3" class="edge"><title>Node3&#45;&gt;Node4</title>
<path fill="none" stroke="midnightblue" d="M397.277,-23.7491C413.952,-31.3212 434.242,-40.535 449.231,-47.3417"/>
<polygon fill="midnightblue" stroke="midnightblue" points="398.497,-20.4591 387.945,-19.5112 395.603,-26.8327 398.497,-20.4591"/>
</g>
<!-- Node7 -->
<g id="node7" class="node"><title>Node7</title>
<g id="a_node7"><a xlink:href="classengine.html#ada832d0a14502f1b99fdbd5c72cab01b" target="_top" xlink:title="engine::Draw">
<polygon fill="none" stroke="black" points="647,-23.5 647,-42.5 720,-42.5 720,-23.5 647,-23.5"/>
<text text-anchor="middle" x="683.5" y="-30.5" font-family="Helvetica,sans-Serif" font-size="10.00">engine::Draw</text>
</a>
</g>
</g>
<!-- Node3&#45;&gt;Node7 -->
<g id="edge9" class="edge"><title>Node3&#45;&gt;Node7</title>
<path fill="none" stroke="midnightblue" d="M412.368,-8.4C475.723,-10.4209 589.381,-18.8554 646.971,-25.949"/>
<polygon fill="midnightblue" stroke="midnightblue" points="412.366,-4.89871 402.273,-8.12345 412.174,-11.8961 412.366,-4.89871"/>
</g>
<!-- Node5 -->
<g id="node5" class="node"><title>Node5</title>
<g id="a_node5"><a xlink:href="classengine.html#a1d9b806d03be0255a8ac3c119e181cc5" target="_top" xlink:title="engine::_run">
<polygon fill="none" stroke="black" points="541,-85.5 541,-104.5 611,-104.5 611,-85.5 541,-85.5"/>
<text text-anchor="middle" x="576" y="-92.5" font-family="Helvetica,sans-Serif" font-size="10.00">engine::_run</text>
</a>
</g>
</g>
<!-- Node4&#45;&gt;Node5 -->
<g id="edge4" class="edge"><title>Node4&#45;&gt;Node5</title>
<path fill="none" stroke="midnightblue" d="M507.884,-70.118C521.441,-75.1439 536.641,-80.7791 549.143,-85.4141"/>
<polygon fill="midnightblue" stroke="midnightblue" points="508.958,-66.7835 498.365,-66.589 506.525,-73.3469 508.958,-66.7835"/>
</g>
<!-- Node4&#45;&gt;Node7 -->
<g id="edge8" class="edge"><title>Node4&#45;&gt;Node7</title>
<path fill="none" stroke="midnightblue" d="M515.739,-52.0584C554.447,-47.6346 610.53,-41.2252 646.757,-37.0849"/>
<polygon fill="midnightblue" stroke="midnightblue" points="514.85,-48.6371 505.313,-53.25 515.645,-55.5918 514.85,-48.6371"/>
</g>
<!-- Node6 -->
<g id="node6" class="node"><title>Node6</title>
<g id="a_node6"><a xlink:href="classengine.html#aecb22d51cc8f83cacbf3696a18d66c30" target="_top" xlink:title="engine::run">
<polygon fill="none" stroke="black" points="651,-85.5 651,-104.5 716,-104.5 716,-85.5 651,-85.5"/>
<text text-anchor="middle" x="683.5" y="-92.5" font-family="Helvetica,sans-Serif" font-size="10.00">engine::run</text>
</a>
</g>
</g>
<!-- Node5&#45;&gt;Node6 -->
<g id="edge5" class="edge"><title>Node5&#45;&gt;Node6</title>
<path fill="none" stroke="midnightblue" d="M621.387,-95C631.311,-95 641.639,-95 650.92,-95"/>
<polygon fill="midnightblue" stroke="midnightblue" points="621.253,-91.5001 611.253,-95 621.253,-98.5001 621.253,-91.5001"/>
</g>
<!-- Node5&#45;&gt;Node7 -->
<g id="edge6" class="edge"><title>Node5&#45;&gt;Node7</title>
<path fill="none" stroke="midnightblue" d="M602.288,-80.1387C622.095,-68.4984 649.066,-52.6485 666.131,-42.6195"/>
<polygon fill="midnightblue" stroke="midnightblue" points="600.332,-77.2283 593.484,-85.3125 603.879,-83.2633 600.332,-77.2283"/>
</g>
<!-- Node7&#45;&gt;Node3 -->
<g id="edge7" class="edge"><title>Node7&#45;&gt;Node3</title>
<path fill="none" stroke="midnightblue" d="M636.85,-34.591C573.347,-32.5511 459.698,-24.1091 402.273,-17.0194"/>
<polygon fill="midnightblue" stroke="midnightblue" points="636.878,-38.093 646.971,-34.8708 637.072,-31.0957 636.878,-38.093"/>
</g>
</g>
</svg>
