<?xml version="1.0" encoding="UTF-8" standalone="no"?>
<!DOCTYPE svg PUBLIC "-//W3C//DTD SVG 1.1//EN"
 "http://www.w3.org/Graphics/SVG/1.1/DTD/svg11.dtd">
<!-- Generated by graphviz version 2.38.0 (20140413.2041)
 -->
<!-- Title: DirectXRenderer::render Pages: 1 -->
<svg width="553pt" height="113pt"
 viewBox="0.00 0.00 553.00 113.00" xmlns="http://www.w3.org/2000/svg" xmlns:xlink="http://www.w3.org/1999/xlink">
<g id="graph0" class="graph" transform="scale(1 1) rotate(0) translate(4 109)">
<title>DirectXRenderer::render</title>
<!-- Node1 -->
<g id="node1" class="node"><title>Node1</title>
<polygon fill="#bfbfbf" stroke="black" points="0,-0.5 0,-19.5 119,-19.5 119,-0.5 0,-0.5"/>
<text text-anchor="middle" x="59.5" y="-7.5" font-family="Helvetica,sans-Serif" font-size="10.00">DirectXRenderer::render</text>
</g>
<!-- Node2 -->
<g id="node2" class="node"><title>Node2</title>
<g id="a_node2"><a xlink:href="classengine.html#a90418b124cd07d7d2f057e7d401ed641" target="_top" xlink:title="engine::_tick">
<polygon fill="none" stroke="black" points="155,-0.5 155,-19.5 227,-19.5 227,-0.5 155,-0.5"/>
<text text-anchor="middle" x="191" y="-7.5" font-family="Helvetica,sans-Serif" font-size="10.00">engine::_tick</text>
</a>
</g>
</g>
<!-- Node1&#45;&gt;Node2 -->
<g id="edge1" class="edge"><title>Node1&#45;&gt;Node2</title>
<path fill="none" stroke="midnightblue" d="M129.208,-10C138.077,-10 146.847,-10 154.849,-10"/>
<polygon fill="midnightblue" stroke="midnightblue" points="129.188,-6.5001 119.188,-10 129.188,-13.5001 129.188,-6.5001"/>
</g>
<!-- Node3 -->
<g id="node3" class="node"><title>Node3</title>
<g id="a_node3"><a xlink:href="classengine.html#a4bca5e9257e46c09a63f71227fc25a12" target="_top" xlink:title="engine::tick">
<polygon fill="none" stroke="black" points="263,-47.5 263,-66.5 330,-66.5 330,-47.5 263,-47.5"/>
<text text-anchor="middle" x="296.5" y="-54.5" font-family="Helvetica,sans-Serif" font-size="10.00">engine::tick</text>
</a>
</g>
</g>
<!-- Node2&#45;&gt;Node3 -->
<g id="edge2" class="edge"><title>Node2&#45;&gt;Node3</title>
<path fill="none" stroke="midnightblue" d="M222.277,-23.7491C238.952,-31.3212 259.242,-40.535 274.231,-47.3417"/>
<polygon fill="midnightblue" stroke="midnightblue" points="223.497,-20.4591 212.945,-19.5112 220.603,-26.8327 223.497,-20.4591"/>
</g>
<!-- Node6 -->
<g id="node6" class="node"><title>Node6</title>
<g id="a_node6"><a xlink:href="classengine.html#ada832d0a14502f1b99fdbd5c72cab01b" target="_top" xlink:title="engine::Draw">
<polygon fill="none" stroke="black" points="472,-23.5 472,-42.5 545,-42.5 545,-23.5 472,-23.5"/>
<text text-anchor="middle" x="508.5" y="-30.5" font-family="Helvetica,sans-Serif" font-size="10.00">engine::Draw</text>
</a>
</g>
</g>
<!-- Node2&#45;&gt;Node6 -->
<g id="edge8" class="edge"><title>Node2&#45;&gt;Node6</title>
<path fill="none" stroke="midnightblue" d="M237.368,-8.4C300.723,-10.4209 414.381,-18.8554 471.971,-25.949"/>
<polygon fill="midnightblue" stroke="midnightblue" points="237.366,-4.89871 227.273,-8.12345 237.174,-11.8961 237.366,-4.89871"/>
</g>
<!-- Node4 -->
<g id="node4" class="node"><title>Node4</title>
<g id="a_node4"><a xlink:href="classengine.html#a1d9b806d03be0255a8ac3c119e181cc5" target="_top" xlink:title="engine::_run">
<polygon fill="none" stroke="black" points="366,-85.5 366,-104.5 436,-104.5 436,-85.5 366,-85.5"/>
<text text-anchor="middle" x="401" y="-92.5" font-family="Helvetica,sans-Serif" font-size="10.00">engine::_run</text>
</a>
</g>
</g>
<!-- Node3&#45;&gt;Node4 -->
<g id="edge3" class="edge"><title>Node3&#45;&gt;Node4</title>
<path fill="none" stroke="midnightblue" d="M332.884,-70.118C346.441,-75.1439 361.641,-80.7791 374.143,-85.4141"/>
<polygon fill="midnightblue" stroke="midnightblue" points="333.958,-66.7835 323.365,-66.589 331.525,-73.3469 333.958,-66.7835"/>
</g>
<!-- Node3&#45;&gt;Node6 -->
<g id="edge7" class="edge"><title>Node3&#45;&gt;Node6</title>
<path fill="none" stroke="midnightblue" d="M340.739,-52.0584C379.447,-47.6346 435.53,-41.2252 471.757,-37.0849"/>
<polygon fill="midnightblue" stroke="midnightblue" points="339.85,-48.6371 330.313,-53.25 340.645,-55.5918 339.85,-48.6371"/>
</g>
<!-- Node5 -->
<g id="node5" class="node"><title>Node5</title>
<g id="a_node5"><a xlink:href="classengine.html#aecb22d51cc8f83cacbf3696a18d66c30" target="_top" xlink:title="engine::run">
<polygon fill="none" stroke="black" points="476,-85.5 476,-104.5 541,-104.5 541,-85.5 476,-85.5"/>
<text text-anchor="middle" x="508.5" y="-92.5" font-family="Helvetica,sans-Serif" font-size="10.00">engine::run</text>
</a>
</g>
</g>
<!-- Node4&#45;&gt;Node5 -->
<g id="edge4" class="edge"><title>Node4&#45;&gt;Node5</title>
<path fill="none" stroke="midnightblue" d="M446.387,-95C456.311,-95 466.639,-95 475.92,-95"/>
<polygon fill="midnightblue" stroke="midnightblue" points="446.253,-91.5001 436.253,-95 446.253,-98.5001 446.253,-91.5001"/>
</g>
<!-- Node4&#45;&gt;Node6 -->
<g id="edge5" class="edge"><title>Node4&#45;&gt;Node6</title>
<path fill="none" stroke="midnightblue" d="M427.288,-80.1387C447.095,-68.4984 474.066,-52.6485 491.131,-42.6195"/>
<polygon fill="midnightblue" stroke="midnightblue" points="425.332,-77.2283 418.484,-85.3125 428.879,-83.2633 425.332,-77.2283"/>
</g>
<!-- Node6&#45;&gt;Node2 -->
<g id="edge6" class="edge"><title>Node6&#45;&gt;Node2</title>
<path fill="none" stroke="midnightblue" d="M461.85,-34.591C398.347,-32.5511 284.698,-24.1091 227.273,-17.0194"/>
<polygon fill="midnightblue" stroke="midnightblue" points="461.878,-38.093 471.971,-34.8708 462.072,-31.0957 461.878,-38.093"/>
</g>
</g>
</svg>
