<?xml version="1.0" encoding="UTF-8" standalone="no"?>
<!DOCTYPE svg PUBLIC "-//W3C//DTD SVG 1.1//EN"
 "http://www.w3.org/Graphics/SVG/1.1/DTD/svg11.dtd">
<!-- Generated by graphviz version 2.38.0 (20140413.2041)
 -->
<!-- Title: DirectXRenderer::initialize_direct3d Pages: 1 -->
<svg width="804pt" height="104pt"
 viewBox="0.00 0.00 804.00 104.00" xmlns="http://www.w3.org/2000/svg" xmlns:xlink="http://www.w3.org/1999/xlink">
<g id="graph0" class="graph" transform="scale(1 1) rotate(0) translate(4 100)">
<title>DirectXRenderer::initialize_direct3d</title>
<!-- Node1 -->
<g id="node1" class="node"><title>Node1</title>
<polygon fill="#bfbfbf" stroke="black" points="0,-52 0,-82 128,-82 128,-52 0,-52"/>
<text text-anchor="start" x="8" y="-70" font-family="Helvetica,sans-Serif" font-size="10.00">DirectXRenderer::initialize</text>
<text text-anchor="middle" x="64" y="-59" font-family="Helvetica,sans-Serif" font-size="10.00">_direct3d</text>
</g>
<!-- Node2 -->
<g id="node2" class="node"><title>Node2</title>
<g id="a_node2"><a xlink:href="classengine.html#a8b8dd82e72fd73e0601c30041529c4c0" target="_top" xlink:title="engine::_initialize">
<polygon fill="none" stroke="black" points="164,-57.5 164,-76.5 256,-76.5 256,-57.5 164,-57.5"/>
<text text-anchor="middle" x="210" y="-64.5" font-family="Helvetica,sans-Serif" font-size="10.00">engine::_initialize</text>
</a>
</g>
</g>
<!-- Node1&#45;&gt;Node2 -->
<g id="edge1" class="edge"><title>Node1&#45;&gt;Node2</title>
<path fill="none" stroke="midnightblue" d="M138.283,-67C146.922,-67 155.536,-67 163.627,-67"/>
<polygon fill="midnightblue" stroke="midnightblue" points="138.161,-63.5001 128.16,-67 138.16,-70.5001 138.161,-63.5001"/>
</g>
<!-- Node3 -->
<g id="node3" class="node"><title>Node3</title>
<g id="a_node3"><a xlink:href="classengine.html#a6809dcdfe78011851e377d4729a87ee4" target="_top" xlink:title="engine::initialize">
<polygon fill="none" stroke="black" points="292,-76.5 292,-95.5 378,-95.5 378,-76.5 292,-76.5"/>
<text text-anchor="middle" x="335" y="-83.5" font-family="Helvetica,sans-Serif" font-size="10.00">engine::initialize</text>
</a>
</g>
</g>
<!-- Node2&#45;&gt;Node3 -->
<g id="edge2" class="edge"><title>Node2&#45;&gt;Node3</title>
<path fill="none" stroke="midnightblue" d="M266.097,-75.5109C274.712,-76.8417 283.497,-78.1987 291.765,-79.4758"/>
<polygon fill="midnightblue" stroke="midnightblue" points="266.519,-72.0347 256.102,-73.967 265.451,-78.9527 266.519,-72.0347"/>
</g>
<!-- Node4 -->
<g id="node4" class="node"><title>Node4</title>
<g id="a_node4"><a xlink:href="classengine.html#ada832d0a14502f1b99fdbd5c72cab01b" target="_top" xlink:title="engine::Draw">
<polygon fill="none" stroke="black" points="298.5,-38.5 298.5,-57.5 371.5,-57.5 371.5,-38.5 298.5,-38.5"/>
<text text-anchor="middle" x="335" y="-45.5" font-family="Helvetica,sans-Serif" font-size="10.00">engine::Draw</text>
</a>
</g>
</g>
<!-- Node2&#45;&gt;Node4 -->
<g id="edge3" class="edge"><title>Node2&#45;&gt;Node4</title>
<path fill="none" stroke="midnightblue" d="M265.998,-58.5044C276.9,-56.8203 288.079,-55.0935 298.142,-53.5391"/>
<polygon fill="midnightblue" stroke="midnightblue" points="265.451,-55.0473 256.102,-60.033 266.519,-61.9653 265.451,-55.0473"/>
</g>
<!-- Node5 -->
<g id="node5" class="node"><title>Node5</title>
<g id="a_node5"><a xlink:href="classengine.html#a90418b124cd07d7d2f057e7d401ed641" target="_top" xlink:title="engine::_tick">
<polygon fill="none" stroke="black" points="414,-57.5 414,-76.5 486,-76.5 486,-57.5 414,-57.5"/>
<text text-anchor="middle" x="450" y="-64.5" font-family="Helvetica,sans-Serif" font-size="10.00">engine::_tick</text>
</a>
</g>
</g>
<!-- Node4&#45;&gt;Node5 -->
<g id="edge4" class="edge"><title>Node4&#45;&gt;Node5</title>
<path fill="none" stroke="midnightblue" d="M381.921,-49.0775C396.923,-51.2953 412.957,-54.3417 425.586,-57.4705"/>
<polygon fill="midnightblue" stroke="midnightblue" points="382.137,-45.5744 371.754,-47.6836 381.186,-52.5095 382.137,-45.5744"/>
</g>
<!-- Node5&#45;&gt;Node4 -->
<g id="edge10" class="edge"><title>Node5&#45;&gt;Node4</title>
<path fill="none" stroke="midnightblue" d="M403.371,-65.9655C388.285,-63.7442 372.125,-60.6786 359.414,-57.5295"/>
<polygon fill="midnightblue" stroke="midnightblue" points="403.206,-69.4754 413.588,-67.3592 404.152,-62.5397 403.206,-69.4754"/>
</g>
<!-- Node6 -->
<g id="node6" class="node"><title>Node6</title>
<g id="a_node6"><a xlink:href="classengine.html#a4bca5e9257e46c09a63f71227fc25a12" target="_top" xlink:title="engine::tick">
<polygon fill="none" stroke="black" points="522,-19.5 522,-38.5 589,-38.5 589,-19.5 522,-19.5"/>
<text text-anchor="middle" x="555.5" y="-26.5" font-family="Helvetica,sans-Serif" font-size="10.00">engine::tick</text>
</a>
</g>
</g>
<!-- Node5&#45;&gt;Node6 -->
<g id="edge5" class="edge"><title>Node5&#45;&gt;Node6</title>
<path fill="none" stroke="midnightblue" d="M486.729,-53.882C500.418,-48.8561 515.767,-43.2209 528.391,-38.5859"/>
<polygon fill="midnightblue" stroke="midnightblue" points="485.298,-50.6788 477.117,-57.411 487.711,-57.2499 485.298,-50.6788"/>
</g>
<!-- Node6&#45;&gt;Node4 -->
<g id="edge9" class="edge"><title>Node6&#45;&gt;Node4</title>
<path fill="none" stroke="midnightblue" d="M511.585,-32.7318C470.696,-36.2873 409.86,-41.5774 371.592,-44.905"/>
<polygon fill="midnightblue" stroke="midnightblue" points="512.122,-36.1984 521.781,-31.8451 511.515,-29.2247 512.122,-36.1984"/>
</g>
<!-- Node7 -->
<g id="node7" class="node"><title>Node7</title>
<g id="a_node7"><a xlink:href="classengine.html#a1d9b806d03be0255a8ac3c119e181cc5" target="_top" xlink:title="engine::_run">
<polygon fill="none" stroke="black" points="625,-0.5 625,-19.5 695,-19.5 695,-0.5 625,-0.5"/>
<text text-anchor="middle" x="660" y="-7.5" font-family="Helvetica,sans-Serif" font-size="10.00">engine::_run</text>
</a>
</g>
</g>
<!-- Node6&#45;&gt;Node7 -->
<g id="edge6" class="edge"><title>Node6&#45;&gt;Node7</title>
<path fill="none" stroke="midnightblue" d="M599.077,-21.1076C607.662,-19.5164 616.581,-17.8631 624.832,-16.3335"/>
<polygon fill="midnightblue" stroke="midnightblue" points="598.408,-17.672 589.213,-22.936 599.684,-24.5547 598.408,-17.672"/>
</g>
<!-- Node7&#45;&gt;Node4 -->
<g id="edge8" class="edge"><title>Node7&#45;&gt;Node4</title>
<path fill="none" stroke="midnightblue" d="M614.606,-7.84934C587.741,-7.08197 552.829,-7.03059 522,-10 473.326,-14.6883 461.892,-21.1262 414,-31 400.154,-33.8545 384.959,-37.1331 371.688,-40.0447"/>
<polygon fill="midnightblue" stroke="midnightblue" points="614.741,-11.3556 624.851,-8.1874 614.972,-4.35941 614.741,-11.3556"/>
</g>
<!-- Node8 -->
<g id="node8" class="node"><title>Node8</title>
<g id="a_node8"><a xlink:href="classengine.html#aecb22d51cc8f83cacbf3696a18d66c30" target="_top" xlink:title="engine::run">
<polygon fill="none" stroke="black" points="731,-0.5 731,-19.5 796,-19.5 796,-0.5 731,-0.5"/>
<text text-anchor="middle" x="763.5" y="-7.5" font-family="Helvetica,sans-Serif" font-size="10.00">engine::run</text>
</a>
</g>
</g>
<!-- Node7&#45;&gt;Node8 -->
<g id="edge7" class="edge"><title>Node7&#45;&gt;Node8</title>
<path fill="none" stroke="midnightblue" d="M705.325,-10C713.879,-10 722.681,-10 730.737,-10"/>
<polygon fill="midnightblue" stroke="midnightblue" points="705.08,-6.5001 695.08,-10 705.08,-13.5001 705.08,-6.5001"/>
</g>
</g>
</svg>
