<?xml version="1.0" encoding="UTF-8" standalone="no"?>
<!DOCTYPE svg PUBLIC "-//W3C//DTD SVG 1.1//EN"
 "http://www.w3.org/Graphics/SVG/1.1/DTD/svg11.dtd">
<!-- Generated by graphviz version 2.38.0 (20140413.2041)
 -->
<!-- Title: GameTimer::ns_until_next_idle Pages: 1 -->
<svg width="541pt" height="119pt"
 viewBox="0.00 0.00 541.00 118.50" xmlns="http://www.w3.org/2000/svg" xmlns:xlink="http://www.w3.org/1999/xlink">
<g id="graph0" class="graph" transform="scale(1 1) rotate(0) translate(4 114.5)">
<title>GameTimer::ns_until_next_idle</title>
<!-- Node1 -->
<g id="node1" class="node"><title>Node1</title>
<polygon fill="#bfbfbf" stroke="black" points="0,-0.5 0,-30.5 107,-30.5 107,-0.5 0,-0.5"/>
<text text-anchor="start" x="8" y="-18.5" font-family="Helvetica,sans-Serif" font-size="10.00">GameTimer::ns_until</text>
<text text-anchor="middle" x="53.5" y="-7.5" font-family="Helvetica,sans-Serif" font-size="10.00">_next_idle</text>
</g>
<!-- Node2 -->
<g id="node2" class="node"><title>Node2</title>
<g id="a_node2"><a xlink:href="classengine.html#a90418b124cd07d7d2f057e7d401ed641" target="_top" xlink:title="engine::_tick">
<polygon fill="none" stroke="black" points="143,-6 143,-25 215,-25 215,-6 143,-6"/>
<text text-anchor="middle" x="179" y="-13" font-family="Helvetica,sans-Serif" font-size="10.00">engine::_tick</text>
</a>
</g>
</g>
<!-- Node1&#45;&gt;Node2 -->
<g id="edge1" class="edge"><title>Node1&#45;&gt;Node2</title>
<path fill="none" stroke="midnightblue" d="M117.481,-15.5C126.233,-15.5 134.952,-15.5 142.935,-15.5"/>
<polygon fill="midnightblue" stroke="midnightblue" points="117.233,-12.0001 107.233,-15.5 117.233,-19.0001 117.233,-12.0001"/>
</g>
<!-- Node3 -->
<g id="node3" class="node"><title>Node3</title>
<g id="a_node3"><a xlink:href="classengine.html#a4bca5e9257e46c09a63f71227fc25a12" target="_top" xlink:title="engine::tick">
<polygon fill="none" stroke="black" points="251,-53 251,-72 318,-72 318,-53 251,-53"/>
<text text-anchor="middle" x="284.5" y="-60" font-family="Helvetica,sans-Serif" font-size="10.00">engine::tick</text>
</a>
</g>
</g>
<!-- Node2&#45;&gt;Node3 -->
<g id="edge2" class="edge"><title>Node2&#45;&gt;Node3</title>
<path fill="none" stroke="midnightblue" d="M210.277,-29.2491C226.952,-36.8212 247.242,-46.035 262.231,-52.8417"/>
<polygon fill="midnightblue" stroke="midnightblue" points="211.497,-25.9591 200.945,-25.0112 208.603,-32.3327 211.497,-25.9591"/>
</g>
<!-- Node6 -->
<g id="node6" class="node"><title>Node6</title>
<g id="a_node6"><a xlink:href="classengine.html#ada832d0a14502f1b99fdbd5c72cab01b" target="_top" xlink:title="engine::Draw">
<polygon fill="none" stroke="black" points="460,-29 460,-48 533,-48 533,-29 460,-29"/>
<text text-anchor="middle" x="496.5" y="-36" font-family="Helvetica,sans-Serif" font-size="10.00">engine::Draw</text>
</a>
</g>
</g>
<!-- Node2&#45;&gt;Node6 -->
<g id="edge8" class="edge"><title>Node2&#45;&gt;Node6</title>
<path fill="none" stroke="midnightblue" d="M225.368,-13.9C288.723,-15.9209 402.381,-24.3554 459.971,-31.449"/>
<polygon fill="midnightblue" stroke="midnightblue" points="225.366,-10.3987 215.273,-13.6234 225.174,-17.3961 225.366,-10.3987"/>
</g>
<!-- Node4 -->
<g id="node4" class="node"><title>Node4</title>
<g id="a_node4"><a xlink:href="classengine.html#a1d9b806d03be0255a8ac3c119e181cc5" target="_top" xlink:title="engine::_run">
<polygon fill="none" stroke="black" points="354,-91 354,-110 424,-110 424,-91 354,-91"/>
<text text-anchor="middle" x="389" y="-98" font-family="Helvetica,sans-Serif" font-size="10.00">engine::_run</text>
</a>
</g>
</g>
<!-- Node3&#45;&gt;Node4 -->
<g id="edge3" class="edge"><title>Node3&#45;&gt;Node4</title>
<path fill="none" stroke="midnightblue" d="M320.884,-75.618C334.441,-80.6439 349.641,-86.2791 362.143,-90.9141"/>
<polygon fill="midnightblue" stroke="midnightblue" points="321.958,-72.2835 311.365,-72.089 319.525,-78.8469 321.958,-72.2835"/>
</g>
<!-- Node3&#45;&gt;Node6 -->
<g id="edge7" class="edge"><title>Node3&#45;&gt;Node6</title>
<path fill="none" stroke="midnightblue" d="M328.739,-57.5584C367.447,-53.1346 423.53,-46.7252 459.757,-42.5849"/>
<polygon fill="midnightblue" stroke="midnightblue" points="327.85,-54.1371 318.313,-58.75 328.645,-61.0918 327.85,-54.1371"/>
</g>
<!-- Node5 -->
<g id="node5" class="node"><title>Node5</title>
<g id="a_node5"><a xlink:href="classengine.html#aecb22d51cc8f83cacbf3696a18d66c30" target="_top" xlink:title="engine::run">
<polygon fill="none" stroke="black" points="464,-91 464,-110 529,-110 529,-91 464,-91"/>
<text text-anchor="middle" x="496.5" y="-98" font-family="Helvetica,sans-Serif" font-size="10.00">engine::run</text>
</a>
</g>
</g>
<!-- Node4&#45;&gt;Node5 -->
<g id="edge4" class="edge"><title>Node4&#45;&gt;Node5</title>
<path fill="none" stroke="midnightblue" d="M434.387,-100.5C444.311,-100.5 454.639,-100.5 463.92,-100.5"/>
<polygon fill="midnightblue" stroke="midnightblue" points="434.253,-97.0001 424.253,-100.5 434.253,-104 434.253,-97.0001"/>
</g>
<!-- Node4&#45;&gt;Node6 -->
<g id="edge5" class="edge"><title>Node4&#45;&gt;Node6</title>
<path fill="none" stroke="midnightblue" d="M415.288,-85.6387C435.095,-73.9984 462.066,-58.1485 479.131,-48.1195"/>
<polygon fill="midnightblue" stroke="midnightblue" points="413.332,-82.7283 406.484,-90.8125 416.879,-88.7633 413.332,-82.7283"/>
</g>
<!-- Node6&#45;&gt;Node2 -->
<g id="edge6" class="edge"><title>Node6&#45;&gt;Node2</title>
<path fill="none" stroke="midnightblue" d="M449.85,-40.091C386.347,-38.0511 272.698,-29.6091 215.273,-22.5194"/>
<polygon fill="midnightblue" stroke="midnightblue" points="449.878,-43.593 459.971,-40.3708 450.072,-36.5957 449.878,-43.593"/>
</g>
</g>
</svg>
