<?xml version="1.0" encoding="UTF-8" standalone="no"?>
<!DOCTYPE svg PUBLIC "-//W3C//DTD SVG 1.1//EN"
 "http://www.w3.org/Graphics/SVG/1.1/DTD/svg11.dtd">
<!-- Generated by graphviz version 2.38.0 (20140413.2041)
 -->
<!-- Title: DirectXRenderer::Update Pages: 1 -->
<svg width="302pt" height="104pt"
 viewBox="0.00 0.00 302.00 104.00" xmlns="http://www.w3.org/2000/svg" xmlns:xlink="http://www.w3.org/1999/xlink">
<g id="graph0" class="graph" transform="scale(1 1) rotate(0) translate(4 100)">
<title>DirectXRenderer::Update</title>
<!-- Node1 -->
<g id="node1" class="node"><title>Node1</title>
<polygon fill="#bfbfbf" stroke="black" points="0,-38.5 0,-57.5 123,-57.5 123,-38.5 0,-38.5"/>
<text text-anchor="middle" x="61.5" y="-45.5" font-family="Helvetica,sans-Serif" font-size="10.00">DirectXRenderer::Update</text>
</g>
<!-- Node2 -->
<g id="node2" class="node"><title>Node2</title>
<g id="a_node2"><a xlink:href="class_camera.html#a69369efae2a33da50510cc8c43c58bc5" target="_top" xlink:title="Camera::UpdateViewMatrix">
<polygon fill="none" stroke="black" points="159,-76.5 159,-95.5 294,-95.5 294,-76.5 159,-76.5"/>
<text text-anchor="middle" x="226.5" y="-83.5" font-family="Helvetica,sans-Serif" font-size="10.00">Camera::UpdateViewMatrix</text>
</a>
</g>
</g>
<!-- Node1&#45;&gt;Node2 -->
<g id="edge1" class="edge"><title>Node1&#45;&gt;Node2</title>
<path fill="none" stroke="midnightblue" d="M103.632,-57.589C125.238,-62.6261 151.909,-68.8438 174.786,-74.1771"/>
<polygon fill="midnightblue" stroke="midnightblue" points="174.13,-77.6181 184.664,-76.4799 175.72,-70.8009 174.13,-77.6181"/>
</g>
<!-- Node3 -->
<g id="node3" class="node"><title>Node3</title>
<g id="a_node3"><a xlink:href="class_camera.html#a5a1a8ddceb04c093f440d4c9dcadbc77" target="_top" xlink:title="Camera::GetView">
<polygon fill="none" stroke="black" points="180,-38.5 180,-57.5 273,-57.5 273,-38.5 180,-38.5"/>
<text text-anchor="middle" x="226.5" y="-45.5" font-family="Helvetica,sans-Serif" font-size="10.00">Camera::GetView</text>
</a>
</g>
</g>
<!-- Node1&#45;&gt;Node3 -->
<g id="edge2" class="edge"><title>Node1&#45;&gt;Node3</title>
<path fill="none" stroke="midnightblue" d="M123.195,-48C138.419,-48 154.68,-48 169.654,-48"/>
<polygon fill="midnightblue" stroke="midnightblue" points="169.787,-51.5001 179.787,-48 169.787,-44.5001 169.787,-51.5001"/>
</g>
<!-- Node4 -->
<g id="node4" class="node"><title>Node4</title>
<g id="a_node4"><a xlink:href="class_camera.html#ab49825897594ec2da5a4875ccb1620f2" target="_top" xlink:title="Camera::GetProj">
<polygon fill="none" stroke="black" points="182,-0.5 182,-19.5 271,-19.5 271,-0.5 182,-0.5"/>
<text text-anchor="middle" x="226.5" y="-7.5" font-family="Helvetica,sans-Serif" font-size="10.00">Camera::GetProj</text>
</a>
</g>
</g>
<!-- Node1&#45;&gt;Node4 -->
<g id="edge3" class="edge"><title>Node1&#45;&gt;Node4</title>
<path fill="none" stroke="midnightblue" d="M103.632,-38.411C125.238,-33.3739 151.909,-27.1562 174.786,-21.8229"/>
<polygon fill="midnightblue" stroke="midnightblue" points="175.72,-25.1991 184.664,-19.5201 174.13,-18.3819 175.72,-25.1991"/>
</g>
</g>
</svg>
