<?xml version="1.0" encoding="UTF-8" standalone="no"?>
<!DOCTYPE svg PUBLIC "-//W3C//DTD SVG 1.1//EN"
 "http://www.w3.org/Graphics/SVG/1.1/DTD/svg11.dtd">
<!-- Generated by graphviz version 2.38.0 (20140413.2041)
 -->
<!-- Title: engine::_get_is_resizing Pages: 1 -->
<svg width="833pt" height="113pt"
 viewBox="0.00 0.00 833.00 113.00" xmlns="http://www.w3.org/2000/svg" xmlns:xlink="http://www.w3.org/1999/xlink">
<g id="graph0" class="graph" transform="scale(1 1) rotate(0) translate(4 109)">
<title>engine::_get_is_resizing</title>
<!-- Node1 -->
<g id="node1" class="node"><title>Node1</title>
<polygon fill="#bfbfbf" stroke="black" points="0,-0.5 0,-19.5 122,-19.5 122,-0.5 0,-0.5"/>
<text text-anchor="middle" x="61" y="-7.5" font-family="Helvetica,sans-Serif" font-size="10.00">engine::_get_is_resizing</text>
</g>
<!-- Node2 -->
<g id="node2" class="node"><title>Node2</title>
<g id="a_node2"><a xlink:href="classengine.html#a8afc7b29034df66b7dd991dff06c0118" target="_top" xlink:title="engine::get_is_resizing">
<polygon fill="none" stroke="black" points="158,-0.5 158,-19.5 274,-19.5 274,-0.5 158,-0.5"/>
<text text-anchor="middle" x="216" y="-7.5" font-family="Helvetica,sans-Serif" font-size="10.00">engine::get_is_resizing</text>
</a>
</g>
</g>
<!-- Node1&#45;&gt;Node2 -->
<g id="edge1" class="edge"><title>Node1&#45;&gt;Node2</title>
<path fill="none" stroke="midnightblue" d="M132.302,-10C140.787,-10 149.375,-10 157.644,-10"/>
<polygon fill="midnightblue" stroke="midnightblue" points="132.031,-6.5001 122.031,-10 132.03,-13.5001 132.031,-6.5001"/>
</g>
<!-- Node3 -->
<g id="node3" class="node"><title>Node3</title>
<g id="a_node3"><a xlink:href="class_game_timer.html#a20aa18e5ab02ae786083c131107afe32" target="_top" xlink:title="GameTimer::tick">
<polygon fill="none" stroke="black" points="310,-0.5 310,-19.5 399,-19.5 399,-0.5 310,-0.5"/>
<text text-anchor="middle" x="354.5" y="-7.5" font-family="Helvetica,sans-Serif" font-size="10.00">GameTimer::tick</text>
</a>
</g>
</g>
<!-- Node2&#45;&gt;Node3 -->
<g id="edge2" class="edge"><title>Node2&#45;&gt;Node3</title>
<path fill="none" stroke="midnightblue" d="M284.284,-10C292.999,-10 301.735,-10 309.924,-10"/>
<polygon fill="midnightblue" stroke="midnightblue" points="284.097,-6.5001 274.097,-10 284.097,-13.5001 284.097,-6.5001"/>
</g>
<!-- Node4 -->
<g id="node4" class="node"><title>Node4</title>
<g id="a_node4"><a xlink:href="classengine.html#a90418b124cd07d7d2f057e7d401ed641" target="_top" xlink:title="engine::_tick">
<polygon fill="none" stroke="black" points="435,-0.5 435,-19.5 507,-19.5 507,-0.5 435,-0.5"/>
<text text-anchor="middle" x="471" y="-7.5" font-family="Helvetica,sans-Serif" font-size="10.00">engine::_tick</text>
</a>
</g>
</g>
<!-- Node3&#45;&gt;Node4 -->
<g id="edge3" class="edge"><title>Node3&#45;&gt;Node4</title>
<path fill="none" stroke="midnightblue" d="M409.178,-10C417.834,-10 426.6,-10 434.679,-10"/>
<polygon fill="midnightblue" stroke="midnightblue" points="409.114,-6.5001 399.114,-10 409.114,-13.5001 409.114,-6.5001"/>
</g>
<!-- Node5 -->
<g id="node5" class="node"><title>Node5</title>
<g id="a_node5"><a xlink:href="classengine.html#a4bca5e9257e46c09a63f71227fc25a12" target="_top" xlink:title="engine::tick">
<polygon fill="none" stroke="black" points="543,-47.5 543,-66.5 610,-66.5 610,-47.5 543,-47.5"/>
<text text-anchor="middle" x="576.5" y="-54.5" font-family="Helvetica,sans-Serif" font-size="10.00">engine::tick</text>
</a>
</g>
</g>
<!-- Node4&#45;&gt;Node5 -->
<g id="edge4" class="edge"><title>Node4&#45;&gt;Node5</title>
<path fill="none" stroke="midnightblue" d="M502.277,-23.7491C518.952,-31.3212 539.242,-40.535 554.231,-47.3417"/>
<polygon fill="midnightblue" stroke="midnightblue" points="503.497,-20.4591 492.945,-19.5112 500.603,-26.8327 503.497,-20.4591"/>
</g>
<!-- Node8 -->
<g id="node8" class="node"><title>Node8</title>
<g id="a_node8"><a xlink:href="classengine.html#ada832d0a14502f1b99fdbd5c72cab01b" target="_top" xlink:title="engine::Draw">
<polygon fill="none" stroke="black" points="752,-23.5 752,-42.5 825,-42.5 825,-23.5 752,-23.5"/>
<text text-anchor="middle" x="788.5" y="-30.5" font-family="Helvetica,sans-Serif" font-size="10.00">engine::Draw</text>
</a>
</g>
</g>
<!-- Node4&#45;&gt;Node8 -->
<g id="edge10" class="edge"><title>Node4&#45;&gt;Node8</title>
<path fill="none" stroke="midnightblue" d="M517.368,-8.4C580.723,-10.4209 694.381,-18.8554 751.971,-25.949"/>
<polygon fill="midnightblue" stroke="midnightblue" points="517.366,-4.89871 507.273,-8.12345 517.174,-11.8961 517.366,-4.89871"/>
</g>
<!-- Node6 -->
<g id="node6" class="node"><title>Node6</title>
<g id="a_node6"><a xlink:href="classengine.html#a1d9b806d03be0255a8ac3c119e181cc5" target="_top" xlink:title="engine::_run">
<polygon fill="none" stroke="black" points="646,-85.5 646,-104.5 716,-104.5 716,-85.5 646,-85.5"/>
<text text-anchor="middle" x="681" y="-92.5" font-family="Helvetica,sans-Serif" font-size="10.00">engine::_run</text>
</a>
</g>
</g>
<!-- Node5&#45;&gt;Node6 -->
<g id="edge5" class="edge"><title>Node5&#45;&gt;Node6</title>
<path fill="none" stroke="midnightblue" d="M612.884,-70.118C626.441,-75.1439 641.641,-80.7791 654.143,-85.4141"/>
<polygon fill="midnightblue" stroke="midnightblue" points="613.958,-66.7835 603.365,-66.589 611.525,-73.3469 613.958,-66.7835"/>
</g>
<!-- Node5&#45;&gt;Node8 -->
<g id="edge9" class="edge"><title>Node5&#45;&gt;Node8</title>
<path fill="none" stroke="midnightblue" d="M620.739,-52.0584C659.447,-47.6346 715.53,-41.2252 751.757,-37.0849"/>
<polygon fill="midnightblue" stroke="midnightblue" points="619.85,-48.6371 610.313,-53.25 620.645,-55.5918 619.85,-48.6371"/>
</g>
<!-- Node7 -->
<g id="node7" class="node"><title>Node7</title>
<g id="a_node7"><a xlink:href="classengine.html#aecb22d51cc8f83cacbf3696a18d66c30" target="_top" xlink:title="engine::run">
<polygon fill="none" stroke="black" points="756,-85.5 756,-104.5 821,-104.5 821,-85.5 756,-85.5"/>
<text text-anchor="middle" x="788.5" y="-92.5" font-family="Helvetica,sans-Serif" font-size="10.00">engine::run</text>
</a>
</g>
</g>
<!-- Node6&#45;&gt;Node7 -->
<g id="edge6" class="edge"><title>Node6&#45;&gt;Node7</title>
<path fill="none" stroke="midnightblue" d="M726.387,-95C736.311,-95 746.639,-95 755.92,-95"/>
<polygon fill="midnightblue" stroke="midnightblue" points="726.253,-91.5001 716.253,-95 726.253,-98.5001 726.253,-91.5001"/>
</g>
<!-- Node6&#45;&gt;Node8 -->
<g id="edge7" class="edge"><title>Node6&#45;&gt;Node8</title>
<path fill="none" stroke="midnightblue" d="M707.288,-80.1387C727.095,-68.4984 754.066,-52.6485 771.131,-42.6195"/>
<polygon fill="midnightblue" stroke="midnightblue" points="705.332,-77.2283 698.484,-85.3125 708.879,-83.2633 705.332,-77.2283"/>
</g>
<!-- Node8&#45;&gt;Node4 -->
<g id="edge8" class="edge"><title>Node8&#45;&gt;Node4</title>
<path fill="none" stroke="midnightblue" d="M741.85,-34.591C678.347,-32.5511 564.698,-24.1091 507.273,-17.0194"/>
<polygon fill="midnightblue" stroke="midnightblue" points="741.878,-38.093 751.971,-34.8708 742.072,-31.0957 741.878,-38.093"/>
</g>
</g>
</svg>
