<?xml version="1.0" encoding="UTF-8" standalone="no"?>
<!DOCTYPE svg PUBLIC "-//W3C//DTD SVG 1.1//EN"
 "http://www.w3.org/Graphics/SVG/1.1/DTD/svg11.dtd">
<!-- Generated by graphviz version 2.38.0 (20140413.2041)
 -->
<!-- Title: engine::tick Pages: 1 -->
<svg width="398pt" height="79pt"
 viewBox="0.00 0.00 398.00 78.62" xmlns="http://www.w3.org/2000/svg" xmlns:xlink="http://www.w3.org/1999/xlink">
<g id="graph0" class="graph" transform="scale(1 1) rotate(0) translate(4 74.6203)">
<title>engine::tick</title>
<!-- Node1 -->
<g id="node1" class="node"><title>Node1</title>
<polygon fill="#bfbfbf" stroke="black" points="0,-13.1203 0,-32.1203 67,-32.1203 67,-13.1203 0,-13.1203"/>
<text text-anchor="middle" x="33.5" y="-20.1203" font-family="Helvetica,sans-Serif" font-size="10.00">engine::tick</text>
</g>
<!-- Node2 -->
<g id="node2" class="node"><title>Node2</title>
<g id="a_node2"><a xlink:href="classengine.html#a1d9b806d03be0255a8ac3c119e181cc5" target="_top" xlink:title="engine::_run">
<polygon fill="none" stroke="black" points="103,-51.1203 103,-70.1203 173,-70.1203 173,-51.1203 103,-51.1203"/>
<text text-anchor="middle" x="138" y="-58.1203" font-family="Helvetica,sans-Serif" font-size="10.00">engine::_run</text>
</a>
</g>
</g>
<!-- Node1&#45;&gt;Node2 -->
<g id="edge1" class="edge"><title>Node1&#45;&gt;Node2</title>
<path fill="none" stroke="midnightblue" d="M69.8841,-35.7383C83.4409,-40.7642 98.641,-46.3994 111.143,-51.0344"/>
<polygon fill="midnightblue" stroke="midnightblue" points="70.9581,-32.4038 60.3651,-32.2093 68.5248,-38.9672 70.9581,-32.4038"/>
</g>
<!-- Node4 -->
<g id="node4" class="node"><title>Node4</title>
<g id="a_node4"><a xlink:href="classengine.html#ada832d0a14502f1b99fdbd5c72cab01b" target="_top" xlink:title="engine::Draw">
<polygon fill="none" stroke="black" points="209,-13.1203 209,-32.1203 282,-32.1203 282,-13.1203 209,-13.1203"/>
<text text-anchor="middle" x="245.5" y="-20.1203" font-family="Helvetica,sans-Serif" font-size="10.00">engine::Draw</text>
</a>
</g>
</g>
<!-- Node1&#45;&gt;Node4 -->
<g id="edge7" class="edge"><title>Node1&#45;&gt;Node4</title>
<path fill="none" stroke="midnightblue" d="M77.7386,-22.6203C116.447,-22.6203 172.53,-22.6203 208.757,-22.6203"/>
<polygon fill="midnightblue" stroke="midnightblue" points="77.3125,-19.1204 67.3125,-22.6203 77.3125,-26.1204 77.3125,-19.1204"/>
</g>
<!-- Node3 -->
<g id="node3" class="node"><title>Node3</title>
<g id="a_node3"><a xlink:href="classengine.html#aecb22d51cc8f83cacbf3696a18d66c30" target="_top" xlink:title="engine::run">
<polygon fill="none" stroke="black" points="213,-51.1203 213,-70.1203 278,-70.1203 278,-51.1203 213,-51.1203"/>
<text text-anchor="middle" x="245.5" y="-58.1203" font-family="Helvetica,sans-Serif" font-size="10.00">engine::run</text>
</a>
</g>
</g>
<!-- Node2&#45;&gt;Node3 -->
<g id="edge2" class="edge"><title>Node2&#45;&gt;Node3</title>
<path fill="none" stroke="midnightblue" d="M183.387,-60.6203C193.311,-60.6203 203.639,-60.6203 212.92,-60.6203"/>
<polygon fill="midnightblue" stroke="midnightblue" points="183.253,-57.1204 173.253,-60.6203 183.253,-64.1204 183.253,-57.1204"/>
</g>
<!-- Node2&#45;&gt;Node4 -->
<g id="edge3" class="edge"><title>Node2&#45;&gt;Node4</title>
<path fill="none" stroke="midnightblue" d="M175.42,-47.5023C189.373,-42.4763 205.018,-36.8412 217.886,-32.2062"/>
<polygon fill="midnightblue" stroke="midnightblue" points="173.844,-44.3495 165.622,-51.0313 176.217,-50.9354 173.844,-44.3495"/>
</g>
<!-- Node5 -->
<g id="node5" class="node"><title>Node5</title>
<g id="a_node5"><a xlink:href="classengine.html#a90418b124cd07d7d2f057e7d401ed641" target="_top" xlink:title="engine::_tick">
<polygon fill="none" stroke="black" points="318,-13.1203 318,-32.1203 390,-32.1203 390,-13.1203 318,-13.1203"/>
<text text-anchor="middle" x="354" y="-20.1203" font-family="Helvetica,sans-Serif" font-size="10.00">engine::_tick</text>
</a>
</g>
</g>
<!-- Node4&#45;&gt;Node5 -->
<g id="edge4" class="edge"><title>Node4&#45;&gt;Node5</title>
<path fill="none" stroke="midnightblue" d="M292.462,-15.9268C300.978,-15.794 309.748,-15.8953 317.878,-16.2307"/>
<polygon fill="midnightblue" stroke="midnightblue" points="292.16,-12.4336 282.259,-16.2049 292.351,-19.431 292.16,-12.4336"/>
</g>
<!-- Node5&#45;&gt;Node1 -->
<g id="edge5" class="edge"><title>Node5&#45;&gt;Node1</title>
<path fill="none" stroke="midnightblue" d="M314.632,-10.3936C304.16,-7.59637 292.738,-5.03219 282,-3.6203 205.304,6.46438 114.481,-6.93433 67.0486,-15.8427"/>
<polygon fill="midnightblue" stroke="midnightblue" points="313.754,-13.7824 324.328,-13.1168 315.647,-7.04317 313.754,-13.7824"/>
</g>
<!-- Node5&#45;&gt;Node4 -->
<g id="edge6" class="edge"><title>Node5&#45;&gt;Node4</title>
<path fill="none" stroke="midnightblue" d="M307.704,-29.3029C299.201,-29.4479 290.422,-29.3589 282.259,-29.0357"/>
<polygon fill="midnightblue" stroke="midnightblue" points="307.983,-32.7964 317.878,-29.0099 307.781,-25.7993 307.983,-32.7964"/>
</g>
</g>
</svg>
