<?xml version="1.0" encoding="UTF-8" standalone="no"?>
<!DOCTYPE svg PUBLIC "-//W3C//DTD SVG 1.1//EN"
 "http://www.w3.org/Graphics/SVG/1.1/DTD/svg11.dtd">
<!-- Generated by graphviz version 2.38.0 (20140413.2041)
 -->
<!-- Title: C:/Users/micho/Desktop/mt_engine/mt/d3dUtil.h Pages: 1 -->
<svg width="2425pt" height="207pt"
 viewBox="0.00 0.00 2424.50 207.00" xmlns="http://www.w3.org/2000/svg" xmlns:xlink="http://www.w3.org/1999/xlink">
<g id="graph0" class="graph" transform="scale(1 1) rotate(0) translate(4 203)">
<title>C:/Users/micho/Desktop/mt_engine/mt/d3dUtil.h</title>
<!-- Node1 -->
<g id="node1" class="node"><title>Node1</title>
<polygon fill="#bfbfbf" stroke="black" points="1387.5,-168.5 1387.5,-198.5 1510.5,-198.5 1510.5,-168.5 1387.5,-168.5"/>
<text text-anchor="start" x="1395.5" y="-186.5" font-family="Helvetica,sans-Serif" font-size="10.00">C:/Users/micho/Desktop</text>
<text text-anchor="middle" x="1449" y="-175.5" font-family="Helvetica,sans-Serif" font-size="10.00">/mt_engine/mt/d3dUtil.h</text>
</g>
<!-- Node2 -->
<g id="node2" class="node"><title>Node2</title>
<g id="a_node2"><a xlink:href="utility_8hpp.html" target="_top" xlink:title="../mt/utility.hpp">
<polygon fill="none" stroke="black" points="481,-112.5 481,-131.5 563,-131.5 563,-112.5 481,-112.5"/>
<text text-anchor="middle" x="522" y="-119.5" font-family="Helvetica,sans-Serif" font-size="10.00">../mt/utility.hpp</text>
</a>
</g>
</g>
<!-- Node1&#45;&gt;Node2 -->
<g id="edge1" class="edge"><title>Node1&#45;&gt;Node2</title>
<path fill="none" stroke="midnightblue" d="M1387.46,-178.55C1215.6,-167.519 732.76,-136.528 573.604,-126.312"/>
<polygon fill="midnightblue" stroke="midnightblue" points="573.357,-122.789 563.154,-125.641 572.909,-129.775 573.357,-122.789"/>
</g>
<!-- Node3 -->
<g id="node3" class="node"><title>Node3</title>
<polygon fill="none" stroke="#bfbfbf" points="0,-56.5 0,-75.5 56,-75.5 56,-56.5 0,-56.5"/>
<text text-anchor="middle" x="28" y="-63.5" font-family="Helvetica,sans-Serif" font-size="10.00">algorithm</text>
</g>
<!-- Node1&#45;&gt;Node3 -->
<g id="edge32" class="edge"><title>Node1&#45;&gt;Node3</title>
<path fill="none" stroke="midnightblue" d="M1387.43,-181.136C1233.05,-177.322 817.158,-164.606 472,-132 293.5,-115.138 246.087,-110.243 66.2782,-76.0922"/>
<polygon fill="midnightblue" stroke="midnightblue" points="66.6954,-72.6088 56.2173,-74.1772 65.3864,-79.4854 66.6954,-72.6088"/>
</g>
<!-- Node14 -->
<g id="node14" class="node"><title>Node14</title>
<polygon fill="none" stroke="#bfbfbf" points="864.5,-56.5 864.5,-75.5 905.5,-75.5 905.5,-56.5 864.5,-56.5"/>
<text text-anchor="middle" x="885" y="-63.5" font-family="Helvetica,sans-Serif" font-size="10.00">string</text>
</g>
<!-- Node1&#45;&gt;Node14 -->
<g id="edge30" class="edge"><title>Node1&#45;&gt;Node14</title>
<path fill="none" stroke="midnightblue" d="M1387.19,-179.857C1255.93,-173.778 958.192,-157.352 920,-132 903.846,-121.277 894.562,-100.528 889.669,-85.3481"/>
<polygon fill="midnightblue" stroke="midnightblue" points="892.967,-84.1503 886.847,-75.5015 886.238,-86.0787 892.967,-84.1503"/>
</g>
<!-- Node18 -->
<g id="node18" class="node"><title>Node18</title>
<g id="a_node18"><a xlink:href="_math_helper_8h.html" target="_top" xlink:title="../mt/MathHelper.h">
<polygon fill="none" stroke="black" points="962,-56.5 962,-75.5 1060,-75.5 1060,-56.5 962,-56.5"/>
<text text-anchor="middle" x="1011" y="-63.5" font-family="Helvetica,sans-Serif" font-size="10.00">../mt/MathHelper.h</text>
</a>
</g>
</g>
<!-- Node1&#45;&gt;Node18 -->
<g id="edge47" class="edge"><title>Node1&#45;&gt;Node18</title>
<path fill="none" stroke="midnightblue" d="M1387.37,-182.634C1285.58,-181.628 1088.24,-174.113 1035,-132 1021.02,-120.939 1015.18,-100.897 1012.74,-85.9814"/>
<polygon fill="midnightblue" stroke="midnightblue" points="1016.19,-85.294 1011.47,-75.8084 1009.24,-86.1668 1016.19,-85.294"/>
</g>
<!-- Node20 -->
<g id="node20" class="node"><title>Node20</title>
<polygon fill="none" stroke="#bfbfbf" points="886.5,-0.5 886.5,-19.5 963.5,-19.5 963.5,-0.5 886.5,-0.5"/>
<text text-anchor="middle" x="925" y="-7.5" font-family="Helvetica,sans-Serif" font-size="10.00">DirectXMath.h</text>
</g>
<!-- Node1&#45;&gt;Node20 -->
<g id="edge26" class="edge"><title>Node1&#45;&gt;Node20</title>
<path fill="none" stroke="midnightblue" d="M1387.48,-179.797C1284.45,-174.528 1081.88,-160.787 1017,-132 982.452,-116.671 975.248,-106.555 953,-76 942.613,-61.7352 935.069,-43.0198 930.446,-29.3361"/>
<polygon fill="midnightblue" stroke="midnightblue" points="933.725,-28.0969 927.367,-19.622 927.052,-30.2122 933.725,-28.0969"/>
</g>
<!-- Node21 -->
<g id="node21" class="node"><title>Node21</title>
<polygon fill="none" stroke="#bfbfbf" points="1065,-0.5 1065,-19.5 1111,-19.5 1111,-0.5 1065,-0.5"/>
<text text-anchor="middle" x="1088" y="-7.5" font-family="Helvetica,sans-Serif" font-size="10.00">cstdint</text>
</g>
<!-- Node1&#45;&gt;Node21 -->
<g id="edge36" class="edge"><title>Node1&#45;&gt;Node21</title>
<path fill="none" stroke="midnightblue" d="M1387.42,-178.724C1284.98,-171.809 1088.69,-155.618 1068,-132 1061.35,-124.408 1075.53,-61.6638 1083.32,-29.6456"/>
<polygon fill="midnightblue" stroke="midnightblue" points="1086.77,-30.2901 1085.77,-19.7425 1079.97,-28.6107 1086.77,-30.2901"/>
</g>
<!-- Node22 -->
<g id="node22" class="node"><title>Node22</title>
<polygon fill="none" stroke="#bfbfbf" points="1077,-112.5 1077,-131.5 1139,-131.5 1139,-112.5 1077,-112.5"/>
<text text-anchor="middle" x="1108" y="-119.5" font-family="Helvetica,sans-Serif" font-size="10.00">windows.h</text>
</g>
<!-- Node1&#45;&gt;Node22 -->
<g id="edge21" class="edge"><title>Node1&#45;&gt;Node22</title>
<path fill="none" stroke="midnightblue" d="M1387.4,-172.514C1327.46,-162.675 1233.86,-146.981 1153,-132 1151.9,-131.797 1150.79,-131.589 1149.67,-131.377"/>
<polygon fill="midnightblue" stroke="midnightblue" points="1149.93,-127.863 1139.45,-129.408 1148.61,-134.737 1149.93,-127.863"/>
</g>
<!-- Node23 -->
<g id="node23" class="node"><title>Node23</title>
<polygon fill="none" stroke="#bfbfbf" points="1195.5,-56.5 1195.5,-75.5 1232.5,-75.5 1232.5,-56.5 1195.5,-56.5"/>
<text text-anchor="middle" x="1214" y="-63.5" font-family="Helvetica,sans-Serif" font-size="10.00">wrl.h</text>
</g>
<!-- Node1&#45;&gt;Node23 -->
<g id="edge22" class="edge"><title>Node1&#45;&gt;Node23</title>
<path fill="none" stroke="midnightblue" d="M1387.31,-176.429C1328.55,-169.324 1245.9,-155.442 1224,-132 1212.68,-119.886 1210.99,-100.606 1211.64,-86.184"/>
<polygon fill="midnightblue" stroke="midnightblue" points="1215.15,-86.1529 1212.53,-75.8895 1208.18,-85.5522 1215.15,-86.1529"/>
</g>
<!-- Node24 -->
<g id="node24" class="node"><title>Node24</title>
<polygon fill="none" stroke="#bfbfbf" points="1419.5,-112.5 1419.5,-131.5 1478.5,-131.5 1478.5,-112.5 1419.5,-112.5"/>
<text text-anchor="middle" x="1449" y="-119.5" font-family="Helvetica,sans-Serif" font-size="10.00">dxgi1_4.h</text>
</g>
<!-- Node1&#45;&gt;Node24 -->
<g id="edge23" class="edge"><title>Node1&#45;&gt;Node24</title>
<path fill="none" stroke="midnightblue" d="M1449,-168.399C1449,-160.466 1449,-150.458 1449,-141.858"/>
<polygon fill="midnightblue" stroke="midnightblue" points="1452.5,-141.658 1449,-131.658 1445.5,-141.658 1452.5,-141.658"/>
</g>
<!-- Node25 -->
<g id="node25" class="node"><title>Node25</title>
<polygon fill="none" stroke="#bfbfbf" points="1277.5,-0.5 1277.5,-19.5 1328.5,-19.5 1328.5,-0.5 1277.5,-0.5"/>
<text text-anchor="middle" x="1303" y="-7.5" font-family="Helvetica,sans-Serif" font-size="10.00">d3d12.h</text>
</g>
<!-- Node1&#45;&gt;Node25 -->
<g id="edge24" class="edge"><title>Node1&#45;&gt;Node25</title>
<path fill="none" stroke="midnightblue" d="M1387.34,-175.812C1326.12,-168.067 1237.64,-153.547 1211,-132 1183.35,-109.641 1165.87,-85.3111 1186,-56 1204.14,-29.5938 1240.1,-18.6766 1267.39,-14.1666"/>
<polygon fill="midnightblue" stroke="midnightblue" points="1267.97,-17.6193 1277.37,-12.7329 1266.97,-10.6905 1267.97,-17.6193"/>
</g>
<!-- Node26 -->
<g id="node26" class="node"><title>Node26</title>
<polygon fill="none" stroke="#bfbfbf" points="1497,-112.5 1497,-131.5 1577,-131.5 1577,-112.5 1497,-112.5"/>
<text text-anchor="middle" x="1537" y="-119.5" font-family="Helvetica,sans-Serif" font-size="10.00">D3Dcompiler.h</text>
</g>
<!-- Node1&#45;&gt;Node26 -->
<g id="edge25" class="edge"><title>Node1&#45;&gt;Node26</title>
<path fill="none" stroke="midnightblue" d="M1469.85,-168.399C1483.7,-159.04 1501.81,-146.792 1515.74,-137.377"/>
<polygon fill="midnightblue" stroke="midnightblue" points="1517.87,-140.158 1524.2,-131.658 1513.95,-134.36 1517.87,-140.158"/>
</g>
<!-- Node27 -->
<g id="node27" class="node"><title>Node27</title>
<polygon fill="none" stroke="#bfbfbf" points="1595.5,-112.5 1595.5,-131.5 1712.5,-131.5 1712.5,-112.5 1595.5,-112.5"/>
<text text-anchor="middle" x="1654" y="-119.5" font-family="Helvetica,sans-Serif" font-size="10.00">DirectXPackedVector.h</text>
</g>
<!-- Node1&#45;&gt;Node27 -->
<g id="edge27" class="edge"><title>Node1&#45;&gt;Node27</title>
<path fill="none" stroke="midnightblue" d="M1497.32,-168.475C1533.15,-158.075 1581.38,-144.078 1614.82,-134.372"/>
<polygon fill="midnightblue" stroke="midnightblue" points="1616.06,-137.655 1624.69,-131.506 1614.11,-130.933 1616.06,-137.655"/>
</g>
<!-- Node28 -->
<g id="node28" class="node"><title>Node28</title>
<polygon fill="none" stroke="#bfbfbf" points="1730.5,-112.5 1730.5,-131.5 1813.5,-131.5 1813.5,-112.5 1730.5,-112.5"/>
<text text-anchor="middle" x="1772" y="-119.5" font-family="Helvetica,sans-Serif" font-size="10.00">DirectXColors.h</text>
</g>
<!-- Node1&#45;&gt;Node28 -->
<g id="edge28" class="edge"><title>Node1&#45;&gt;Node28</title>
<path fill="none" stroke="midnightblue" d="M1510.51,-171.168C1571.29,-159.972 1663.22,-143.038 1720.33,-132.518"/>
<polygon fill="midnightblue" stroke="midnightblue" points="1721.03,-135.949 1730.23,-130.695 1719.76,-129.064 1721.03,-135.949"/>
</g>
<!-- Node29 -->
<g id="node29" class="node"><title>Node29</title>
<polygon fill="none" stroke="#bfbfbf" points="1832,-112.5 1832,-131.5 1924,-131.5 1924,-112.5 1832,-112.5"/>
<text text-anchor="middle" x="1878" y="-119.5" font-family="Helvetica,sans-Serif" font-size="10.00">DirectXCollision.h</text>
</g>
<!-- Node1&#45;&gt;Node29 -->
<g id="edge29" class="edge"><title>Node1&#45;&gt;Node29</title>
<path fill="none" stroke="midnightblue" d="M1510.62,-174.716C1582.71,-165.49 1705.94,-149.346 1821.7,-132.161"/>
<polygon fill="midnightblue" stroke="midnightblue" points="1822.43,-135.592 1831.8,-130.656 1821.39,-128.668 1822.43,-135.592"/>
</g>
<!-- Node30 -->
<g id="node30" class="node"><title>Node30</title>
<polygon fill="none" stroke="#bfbfbf" points="1942,-112.5 1942,-131.5 1994,-131.5 1994,-112.5 1942,-112.5"/>
<text text-anchor="middle" x="1968" y="-119.5" font-family="Helvetica,sans-Serif" font-size="10.00">memory</text>
</g>
<!-- Node1&#45;&gt;Node30 -->
<g id="edge31" class="edge"><title>Node1&#45;&gt;Node30</title>
<path fill="none" stroke="midnightblue" d="M1510.53,-179.001C1600.88,-173.221 1774.82,-159.649 1931.43,-132.041"/>
<polygon fill="midnightblue" stroke="midnightblue" points="1932.49,-135.407 1941.72,-130.202 1931.26,-128.516 1932.49,-135.407"/>
</g>
<!-- Node31 -->
<g id="node31" class="node"><title>Node31</title>
<polygon fill="none" stroke="#bfbfbf" points="2012,-112.5 2012,-131.5 2054,-131.5 2054,-112.5 2012,-112.5"/>
<text text-anchor="middle" x="2033" y="-119.5" font-family="Helvetica,sans-Serif" font-size="10.00">vector</text>
</g>
<!-- Node1&#45;&gt;Node31 -->
<g id="edge33" class="edge"><title>Node1&#45;&gt;Node31</title>
<path fill="none" stroke="midnightblue" d="M1510.64,-180.908C1611.67,-177.42 1818.74,-166.582 2001.75,-131.866"/>
<polygon fill="midnightblue" stroke="midnightblue" points="2002.67,-135.253 2011.83,-129.925 2001.34,-128.38 2002.67,-135.253"/>
</g>
<!-- Node32 -->
<g id="node32" class="node"><title>Node32</title>
<polygon fill="none" stroke="#bfbfbf" points="2072,-112.5 2072,-131.5 2110,-131.5 2110,-112.5 2072,-112.5"/>
<text text-anchor="middle" x="2091" y="-119.5" font-family="Helvetica,sans-Serif" font-size="10.00">array</text>
</g>
<!-- Node1&#45;&gt;Node32 -->
<g id="edge34" class="edge"><title>Node1&#45;&gt;Node32</title>
<path fill="none" stroke="midnightblue" d="M1510.65,-182.074C1620.22,-180.308 1855.94,-171.957 2061.78,-131.785"/>
<polygon fill="midnightblue" stroke="midnightblue" points="2062.74,-135.163 2071.87,-129.786 2061.38,-128.296 2062.74,-135.163"/>
</g>
<!-- Node33 -->
<g id="node33" class="node"><title>Node33</title>
<polygon fill="none" stroke="#bfbfbf" points="2128.5,-112.5 2128.5,-131.5 2211.5,-131.5 2211.5,-112.5 2128.5,-112.5"/>
<text text-anchor="middle" x="2170" y="-119.5" font-family="Helvetica,sans-Serif" font-size="10.00">unordered_map</text>
</g>
<!-- Node1&#45;&gt;Node33 -->
<g id="edge35" class="edge"><title>Node1&#45;&gt;Node33</title>
<path fill="none" stroke="midnightblue" d="M1510.63,-179.907C1627.2,-174.555 1888.12,-160.443 2118.07,-131.985"/>
<polygon fill="midnightblue" stroke="midnightblue" points="2118.81,-135.419 2128.3,-130.706 2117.95,-128.473 2118.81,-135.419"/>
</g>
<!-- Node34 -->
<g id="node34" class="node"><title>Node34</title>
<polygon fill="none" stroke="#bfbfbf" points="2229.5,-112.5 2229.5,-131.5 2278.5,-131.5 2278.5,-112.5 2229.5,-112.5"/>
<text text-anchor="middle" x="2254" y="-119.5" font-family="Helvetica,sans-Serif" font-size="10.00">fstream</text>
</g>
<!-- Node1&#45;&gt;Node34 -->
<g id="edge37" class="edge"><title>Node1&#45;&gt;Node34</title>
<path fill="none" stroke="midnightblue" d="M1510.53,-182.652C1640.34,-182.072 1951.64,-175.93 2219.35,-131.97"/>
<polygon fill="midnightblue" stroke="midnightblue" points="2219.96,-135.416 2229.25,-130.323 2218.81,-128.511 2219.96,-135.416"/>
</g>
<!-- Node35 -->
<g id="node35" class="node"><title>Node35</title>
<polygon fill="none" stroke="#bfbfbf" points="2297,-112.5 2297,-131.5 2349,-131.5 2349,-112.5 2297,-112.5"/>
<text text-anchor="middle" x="2323" y="-119.5" font-family="Helvetica,sans-Serif" font-size="10.00">sstream</text>
</g>
<!-- Node1&#45;&gt;Node35 -->
<g id="edge38" class="edge"><title>Node1&#45;&gt;Node35</title>
<path fill="none" stroke="midnightblue" d="M1510.75,-182.813C1648.65,-182.644 1992.05,-177.407 2286.72,-131.894"/>
<polygon fill="midnightblue" stroke="midnightblue" points="2287.4,-135.33 2296.74,-130.328 2286.32,-128.414 2287.4,-135.33"/>
</g>
<!-- Node36 -->
<g id="node36" class="node"><title>Node36</title>
<polygon fill="none" stroke="#bfbfbf" points="2367.5,-112.5 2367.5,-131.5 2416.5,-131.5 2416.5,-112.5 2367.5,-112.5"/>
<text text-anchor="middle" x="2392" y="-119.5" font-family="Helvetica,sans-Serif" font-size="10.00">cassert</text>
</g>
<!-- Node1&#45;&gt;Node36 -->
<g id="edge39" class="edge"><title>Node1&#45;&gt;Node36</title>
<path fill="none" stroke="midnightblue" d="M1510.62,-180.71C1684.14,-175.415 2175.4,-158.61 2357.26,-131.712"/>
<polygon fill="midnightblue" stroke="midnightblue" points="2357.89,-135.157 2367.24,-130.176 2356.83,-128.239 2357.89,-135.157"/>
</g>
<!-- Node37 -->
<g id="node37" class="node"><title>Node37</title>
<g id="a_node37"><a xlink:href="d3dx12_8h.html" target="_top" xlink:title="../mt/d3dx12.h">
<polygon fill="none" stroke="black" points="1399,-56.5 1399,-75.5 1479,-75.5 1479,-56.5 1399,-56.5"/>
<text text-anchor="middle" x="1439" y="-63.5" font-family="Helvetica,sans-Serif" font-size="10.00">../mt/d3dx12.h</text>
</a>
</g>
</g>
<!-- Node1&#45;&gt;Node37 -->
<g id="edge40" class="edge"><title>Node1&#45;&gt;Node37</title>
<path fill="none" stroke="midnightblue" d="M1434.12,-168.102C1425.55,-158.734 1415.59,-145.736 1411,-132 1405.37,-115.146 1415.04,-96.5897 1424.51,-83.6336"/>
<polygon fill="midnightblue" stroke="midnightblue" points="1427.38,-85.6562 1430.86,-75.6485 1421.9,-81.3029 1427.38,-85.6562"/>
</g>
<!-- Node38 -->
<g id="node38" class="node"><title>Node38</title>
<g id="a_node38"><a xlink:href="_d_d_s_texture_loader_8h.html" target="_top" xlink:title="../mt/DDSTextureLoader.h">
<polygon fill="none" stroke="black" points="1233,-112.5 1233,-131.5 1363,-131.5 1363,-112.5 1233,-112.5"/>
<text text-anchor="middle" x="1298" y="-119.5" font-family="Helvetica,sans-Serif" font-size="10.00">../mt/DDSTextureLoader.h</text>
</a>
</g>
</g>
<!-- Node1&#45;&gt;Node38 -->
<g id="edge42" class="edge"><title>Node1&#45;&gt;Node38</title>
<path fill="none" stroke="midnightblue" d="M1413.22,-168.399C1387.77,-158.372 1353.9,-145.028 1329.48,-135.405"/>
<polygon fill="midnightblue" stroke="midnightblue" points="1330.56,-132.068 1319.97,-131.658 1327.99,-138.58 1330.56,-132.068"/>
</g>
<!-- Node2&#45;&gt;Node3 -->
<g id="edge2" class="edge"><title>Node2&#45;&gt;Node3</title>
<path fill="none" stroke="midnightblue" d="M480.777,-118.886C402.004,-114.426 224.558,-102.361 66.1223,-75.9676"/>
<polygon fill="midnightblue" stroke="midnightblue" points="66.6401,-72.5056 56.1968,-74.2909 65.4741,-79.4078 66.6401,-72.5056"/>
</g>
<!-- Node4 -->
<g id="node4" class="node"><title>Node4</title>
<polygon fill="none" stroke="#bfbfbf" points="800,-56.5 800,-75.5 846,-75.5 846,-56.5 800,-56.5"/>
<text text-anchor="middle" x="823" y="-63.5" font-family="Helvetica,sans-Serif" font-size="10.00">chrono</text>
</g>
<!-- Node2&#45;&gt;Node4 -->
<g id="edge3" class="edge"><title>Node2&#45;&gt;Node4</title>
<path fill="none" stroke="midnightblue" d="M563.284,-115.513C614.347,-108.414 704.083,-94.9227 789.769,-76.0831"/>
<polygon fill="midnightblue" stroke="midnightblue" points="790.656,-79.4715 799.656,-73.8811 789.134,-72.6389 790.656,-79.4715"/>
</g>
<!-- Node5 -->
<g id="node5" class="node"><title>Node5</title>
<polygon fill="none" stroke="#bfbfbf" points="74,-56.5 74,-75.5 118,-75.5 118,-56.5 74,-56.5"/>
<text text-anchor="middle" x="96" y="-63.5" font-family="Helvetica,sans-Serif" font-size="10.00">cmath</text>
</g>
<!-- Node2&#45;&gt;Node5 -->
<g id="edge4" class="edge"><title>Node2&#45;&gt;Node5</title>
<path fill="none" stroke="midnightblue" d="M480.989,-118.621C410.599,-114.041 262.206,-102.222 128.266,-75.9448"/>
<polygon fill="midnightblue" stroke="midnightblue" points="128.731,-72.4686 118.239,-73.9448 127.361,-79.3334 128.731,-72.4686"/>
</g>
<!-- Node6 -->
<g id="node6" class="node"><title>Node6</title>
<polygon fill="none" stroke="#bfbfbf" points="136.5,-56.5 136.5,-75.5 185.5,-75.5 185.5,-56.5 136.5,-56.5"/>
<text text-anchor="middle" x="161" y="-63.5" font-family="Helvetica,sans-Serif" font-size="10.00">cstdarg</text>
</g>
<!-- Node2&#45;&gt;Node6 -->
<g id="edge5" class="edge"><title>Node2&#45;&gt;Node6</title>
<path fill="none" stroke="midnightblue" d="M480.803,-117.084C420.255,-110.951 303.557,-97.6931 195.843,-76.17"/>
<polygon fill="midnightblue" stroke="midnightblue" points="196.279,-72.6874 185.783,-74.1301 194.888,-79.5477 196.279,-72.6874"/>
</g>
<!-- Node7 -->
<g id="node7" class="node"><title>Node7</title>
<polygon fill="none" stroke="#bfbfbf" points="203.5,-56.5 203.5,-75.5 246.5,-75.5 246.5,-56.5 203.5,-56.5"/>
<text text-anchor="middle" x="225" y="-63.5" font-family="Helvetica,sans-Serif" font-size="10.00">deque</text>
</g>
<!-- Node2&#45;&gt;Node7 -->
<g id="edge6" class="edge"><title>Node2&#45;&gt;Node7</title>
<path fill="none" stroke="midnightblue" d="M480.975,-115.703C430.243,-108.798 341.123,-95.5113 256.326,-76.0862"/>
<polygon fill="midnightblue" stroke="midnightblue" points="257.076,-72.6674 246.544,-73.8129 255.492,-79.4857 257.076,-72.6674"/>
</g>
<!-- Node8 -->
<g id="node8" class="node"><title>Node8</title>
<polygon fill="none" stroke="#bfbfbf" points="264.5,-56.5 264.5,-75.5 325.5,-75.5 325.5,-56.5 264.5,-56.5"/>
<text text-anchor="middle" x="295" y="-63.5" font-family="Helvetica,sans-Serif" font-size="10.00">filesystem</text>
</g>
<!-- Node2&#45;&gt;Node8 -->
<g id="edge7" class="edge"><title>Node2&#45;&gt;Node8</title>
<path fill="none" stroke="midnightblue" d="M486.031,-112.444C445.06,-102.697 378.271,-86.809 335.502,-76.6348"/>
<polygon fill="midnightblue" stroke="midnightblue" points="336.243,-73.2135 325.705,-74.3042 334.623,-80.0235 336.243,-73.2135"/>
</g>
<!-- Node9 -->
<g id="node9" class="node"><title>Node9</title>
<polygon fill="none" stroke="#bfbfbf" points="343.5,-56.5 343.5,-75.5 372.5,-75.5 372.5,-56.5 343.5,-56.5"/>
<text text-anchor="middle" x="358" y="-63.5" font-family="Helvetica,sans-Serif" font-size="10.00">list</text>
</g>
<!-- Node2&#45;&gt;Node9 -->
<g id="edge8" class="edge"><title>Node2&#45;&gt;Node9</title>
<path fill="none" stroke="midnightblue" d="M493.464,-112.48C466.81,-104.394 425.731,-91.6067 382.172,-76.2709"/>
<polygon fill="midnightblue" stroke="midnightblue" points="383.143,-72.9017 372.548,-72.8548 380.801,-79.4984 383.143,-72.9017"/>
</g>
<!-- Node10 -->
<g id="node10" class="node"><title>Node10</title>
<polygon fill="none" stroke="#bfbfbf" points="390.5,-56.5 390.5,-75.5 425.5,-75.5 425.5,-56.5 390.5,-56.5"/>
<text text-anchor="middle" x="408" y="-63.5" font-family="Helvetica,sans-Serif" font-size="10.00">map</text>
</g>
<!-- Node2&#45;&gt;Node10 -->
<g id="edge9" class="edge"><title>Node2&#45;&gt;Node10</title>
<path fill="none" stroke="midnightblue" d="M503.936,-112.444C485.316,-103.624 456.078,-89.7736 434.77,-79.6805"/>
<polygon fill="midnightblue" stroke="midnightblue" points="436.14,-76.4568 425.605,-75.339 433.144,-82.783 436.14,-76.4568"/>
</g>
<!-- Node11 -->
<g id="node11" class="node"><title>Node11</title>
<polygon fill="none" stroke="#bfbfbf" points="443.5,-56.5 443.5,-75.5 486.5,-75.5 486.5,-56.5 443.5,-56.5"/>
<text text-anchor="middle" x="465" y="-63.5" font-family="Helvetica,sans-Serif" font-size="10.00">queue</text>
</g>
<!-- Node2&#45;&gt;Node11 -->
<g id="edge10" class="edge"><title>Node2&#45;&gt;Node11</title>
<path fill="none" stroke="midnightblue" d="M512.842,-112.324C504.499,-104.42 491.968,-92.5482 481.823,-82.9377"/>
<polygon fill="midnightblue" stroke="midnightblue" points="483.991,-80.1705 474.325,-75.8339 479.177,-85.2522 483.991,-80.1705"/>
</g>
<!-- Node12 -->
<g id="node12" class="node"><title>Node12</title>
<polygon fill="none" stroke="#bfbfbf" points="504.5,-56.5 504.5,-75.5 539.5,-75.5 539.5,-56.5 504.5,-56.5"/>
<text text-anchor="middle" x="522" y="-63.5" font-family="Helvetica,sans-Serif" font-size="10.00">ratio</text>
</g>
<!-- Node2&#45;&gt;Node12 -->
<g id="edge11" class="edge"><title>Node2&#45;&gt;Node12</title>
<path fill="none" stroke="midnightblue" d="M522,-112.083C522,-105.006 522,-94.8611 522,-85.9865"/>
<polygon fill="midnightblue" stroke="midnightblue" points="525.5,-85.751 522,-75.7511 518.5,-85.7511 525.5,-85.751"/>
</g>
<!-- Node13 -->
<g id="node13" class="node"><title>Node13</title>
<polygon fill="none" stroke="#bfbfbf" points="558,-56.5 558,-75.5 588,-75.5 588,-56.5 558,-56.5"/>
<text text-anchor="middle" x="573" y="-63.5" font-family="Helvetica,sans-Serif" font-size="10.00">set</text>
</g>
<!-- Node2&#45;&gt;Node13 -->
<g id="edge12" class="edge"><title>Node2&#45;&gt;Node13</title>
<path fill="none" stroke="midnightblue" d="M530.422,-112.083C537.848,-104.22 548.852,-92.5688 557.812,-83.0813"/>
<polygon fill="midnightblue" stroke="midnightblue" points="560.413,-85.4244 564.735,-75.7511 555.324,-80.618 560.413,-85.4244"/>
</g>
<!-- Node2&#45;&gt;Node14 -->
<g id="edge13" class="edge"><title>Node2&#45;&gt;Node14</title>
<path fill="none" stroke="midnightblue" d="M563.113,-117.541C624.499,-111.92 743.824,-99.236 854.462,-75.7808"/>
<polygon fill="midnightblue" stroke="midnightblue" points="855.416,-79.1557 864.454,-73.6275 853.941,-72.3128 855.416,-79.1557"/>
</g>
<!-- Node15 -->
<g id="node15" class="node"><title>Node15</title>
<polygon fill="none" stroke="#bfbfbf" points="606,-56.5 606,-75.5 668,-75.5 668,-56.5 606,-56.5"/>
<text text-anchor="middle" x="637" y="-63.5" font-family="Helvetica,sans-Serif" font-size="10.00">type_traits</text>
</g>
<!-- Node2&#45;&gt;Node15 -->
<g id="edge14" class="edge"><title>Node2&#45;&gt;Node15</title>
<path fill="none" stroke="midnightblue" d="M540.222,-112.444C558.896,-103.675 588.156,-89.9355 609.617,-79.8579"/>
<polygon fill="midnightblue" stroke="midnightblue" points="611.299,-82.935 618.863,-75.5164 608.324,-76.5988 611.299,-82.935"/>
</g>
<!-- Node16 -->
<g id="node16" class="node"><title>Node16</title>
<polygon fill="none" stroke="#bfbfbf" points="686,-56.5 686,-75.5 724,-75.5 724,-56.5 686,-56.5"/>
<text text-anchor="middle" x="705" y="-63.5" font-family="Helvetica,sans-Serif" font-size="10.00">tuple</text>
</g>
<!-- Node2&#45;&gt;Node16 -->
<g id="edge15" class="edge"><title>Node2&#45;&gt;Node16</title>
<path fill="none" stroke="midnightblue" d="M552.37,-112.459C581.718,-104.144 627.659,-90.971 676.039,-76.236"/>
<polygon fill="midnightblue" stroke="midnightblue" points="677.203,-79.54 685.743,-73.2692 675.157,-72.8459 677.203,-79.54"/>
</g>
<!-- Node17 -->
<g id="node17" class="node"><title>Node17</title>
<polygon fill="none" stroke="#bfbfbf" points="742,-56.5 742,-75.5 782,-75.5 782,-56.5 742,-56.5"/>
<text text-anchor="middle" x="762" y="-63.5" font-family="Helvetica,sans-Serif" font-size="10.00">utility</text>
</g>
<!-- Node2&#45;&gt;Node17 -->
<g id="edge16" class="edge"><title>Node2&#45;&gt;Node17</title>
<path fill="none" stroke="midnightblue" d="M563.103,-113.381C603.73,-105.597 667.83,-92.6336 731.919,-76.1038"/>
<polygon fill="midnightblue" stroke="midnightblue" points="732.993,-79.4409 741.786,-73.5302 731.226,-72.6675 732.993,-79.4409"/>
</g>
<!-- Node2&#45;&gt;Node18 -->
<g id="edge17" class="edge"><title>Node2&#45;&gt;Node18</title>
<path fill="none" stroke="midnightblue" d="M563.27,-116.443C649.978,-106.868 851.334,-84.6318 951.792,-73.5383"/>
<polygon fill="midnightblue" stroke="midnightblue" points="952.221,-77.0123 961.776,-72.4357 951.453,-70.0546 952.221,-77.0123"/>
</g>
<!-- Node19 -->
<g id="node19" class="node"><title>Node19</title>
<polygon fill="none" stroke="#bfbfbf" points="981.5,-0.5 981.5,-19.5 1046.5,-19.5 1046.5,-0.5 981.5,-0.5"/>
<text text-anchor="middle" x="1014" y="-7.5" font-family="Helvetica,sans-Serif" font-size="10.00">Windows.h</text>
</g>
<!-- Node18&#45;&gt;Node19 -->
<g id="edge18" class="edge"><title>Node18&#45;&gt;Node19</title>
<path fill="none" stroke="midnightblue" d="M1011.5,-56.083C1011.89,-49.0059 1012.45,-38.8611 1012.95,-29.9865"/>
<polygon fill="midnightblue" stroke="midnightblue" points="1016.45,-29.9299 1013.51,-19.7511 1009.46,-29.5415 1016.45,-29.9299"/>
</g>
<!-- Node18&#45;&gt;Node20 -->
<g id="edge19" class="edge"><title>Node18&#45;&gt;Node20</title>
<path fill="none" stroke="midnightblue" d="M997.183,-56.324C983.767,-47.9002 963.176,-34.9709 947.414,-25.0741"/>
<polygon fill="midnightblue" stroke="midnightblue" points="949.113,-22.0081 938.783,-19.6545 945.391,-27.9364 949.113,-22.0081"/>
</g>
<!-- Node18&#45;&gt;Node21 -->
<g id="edge20" class="edge"><title>Node18&#45;&gt;Node21</title>
<path fill="none" stroke="midnightblue" d="M1023.37,-56.324C1035.16,-48.0577 1053.13,-35.4527 1067.14,-25.6322"/>
<polygon fill="midnightblue" stroke="midnightblue" points="1069.48,-28.2619 1075.66,-19.6545 1065.46,-22.5307 1069.48,-28.2619"/>
</g>
<!-- Node37&#45;&gt;Node25 -->
<g id="edge41" class="edge"><title>Node37&#45;&gt;Node25</title>
<path fill="none" stroke="midnightblue" d="M1417.45,-56.4435C1394.97,-47.5171 1359.51,-33.4387 1334.02,-23.3168"/>
<polygon fill="midnightblue" stroke="midnightblue" points="1335.03,-19.9539 1324.45,-19.5164 1332.45,-26.4598 1335.03,-19.9539"/>
</g>
<!-- Node38&#45;&gt;Node23 -->
<g id="edge43" class="edge"><title>Node38&#45;&gt;Node23</title>
<path fill="none" stroke="midnightblue" d="M1284.5,-112.324C1271.4,-103.9 1251.29,-90.9709 1235.89,-81.0741"/>
<polygon fill="midnightblue" stroke="midnightblue" points="1237.77,-78.118 1227.46,-75.6545 1233.98,-84.0063 1237.77,-78.118"/>
</g>
<!-- Node38&#45;&gt;Node37 -->
<g id="edge45" class="edge"><title>Node38&#45;&gt;Node37</title>
<path fill="none" stroke="midnightblue" d="M1320.34,-112.444C1343.75,-103.478 1380.74,-89.314 1407.19,-79.1827"/>
<polygon fill="midnightblue" stroke="midnightblue" points="1408.68,-82.3615 1416.76,-75.5164 1406.17,-75.8245 1408.68,-82.3615"/>
</g>
<!-- Node39 -->
<g id="node39" class="node"><title>Node39</title>
<polygon fill="none" stroke="#bfbfbf" points="1251,-56.5 1251,-75.5 1313,-75.5 1313,-56.5 1251,-56.5"/>
<text text-anchor="middle" x="1282" y="-63.5" font-family="Helvetica,sans-Serif" font-size="10.00">d3d11_1.h</text>
</g>
<!-- Node38&#45;&gt;Node39 -->
<g id="edge44" class="edge"><title>Node38&#45;&gt;Node39</title>
<path fill="none" stroke="midnightblue" d="M1295.36,-112.083C1293.21,-104.849 1290.12,-94.4087 1287.45,-85.3968"/>
<polygon fill="midnightblue" stroke="midnightblue" points="1290.79,-84.3447 1284.59,-75.7511 1284.08,-86.3334 1290.79,-84.3447"/>
</g>
<!-- Node40 -->
<g id="node40" class="node"><title>Node40</title>
<polygon fill="none" stroke="#bfbfbf" points="1331.5,-56.5 1331.5,-75.5 1380.5,-75.5 1380.5,-56.5 1331.5,-56.5"/>
<text text-anchor="middle" x="1356" y="-63.5" font-family="Helvetica,sans-Serif" font-size="10.00">stdint.h</text>
</g>
<!-- Node38&#45;&gt;Node40 -->
<g id="edge46" class="edge"><title>Node38&#45;&gt;Node40</title>
<path fill="none" stroke="midnightblue" d="M1307.32,-112.324C1315.89,-104.341 1328.81,-92.3128 1339.19,-82.6529"/>
<polygon fill="midnightblue" stroke="midnightblue" points="1341.58,-85.2098 1346.51,-75.8339 1336.81,-80.0865 1341.58,-85.2098"/>
</g>
</g>
</svg>
