<?xml version="1.0" encoding="UTF-8" standalone="no"?>
<!DOCTYPE svg PUBLIC "-//W3C//DTD SVG 1.1//EN"
 "http://www.w3.org/Graphics/SVG/1.1/DTD/svg11.dtd">
<!-- Generated by graphviz version 2.38.0 (20140413.2041)
 -->
<!-- Title: C:/Users/micho/Desktop/mt_engine/mt/d3dUtil.cpp Pages: 1 -->
<svg width="2464pt" height="263pt"
 viewBox="0.00 0.00 2463.50 263.00" xmlns="http://www.w3.org/2000/svg" xmlns:xlink="http://www.w3.org/1999/xlink">
<g id="graph0" class="graph" transform="scale(1 1) rotate(0) translate(4 259)">
<title>C:/Users/micho/Desktop/mt_engine/mt/d3dUtil.cpp</title>
<!-- Node1 -->
<g id="node1" class="node"><title>Node1</title>
<polygon fill="#bfbfbf" stroke="black" points="1965.5,-224.5 1965.5,-254.5 2096.5,-254.5 2096.5,-224.5 1965.5,-224.5"/>
<text text-anchor="start" x="1973.5" y="-242.5" font-family="Helvetica,sans-Serif" font-size="10.00">C:/Users/micho/Desktop</text>
<text text-anchor="middle" x="2031" y="-231.5" font-family="Helvetica,sans-Serif" font-size="10.00">/mt_engine/mt/d3dUtil.cpp</text>
</g>
<!-- Node2 -->
<g id="node2" class="node"><title>Node2</title>
<g id="a_node2"><a xlink:href="d3d_util_8h.html" target="_top" xlink:title="d3dUtil.h">
<polygon fill="none" stroke="black" points="1504.5,-168.5 1504.5,-187.5 1559.5,-187.5 1559.5,-168.5 1504.5,-168.5"/>
<text text-anchor="middle" x="1532" y="-175.5" font-family="Helvetica,sans-Serif" font-size="10.00">d3dUtil.h</text>
</a>
</g>
</g>
<!-- Node1&#45;&gt;Node2 -->
<g id="edge1" class="edge"><title>Node1&#45;&gt;Node2</title>
<path fill="none" stroke="midnightblue" d="M1965.25,-230.66C1859.29,-218.026 1654.12,-193.561 1569.69,-183.494"/>
<polygon fill="midnightblue" stroke="midnightblue" points="1569.88,-179.992 1559.54,-182.284 1569.05,-186.943 1569.88,-179.992"/>
</g>
<!-- Node35 -->
<g id="node35" class="node"><title>Node35</title>
<polygon fill="none" stroke="#bfbfbf" points="2406.5,-112.5 2406.5,-131.5 2455.5,-131.5 2455.5,-112.5 2406.5,-112.5"/>
<text text-anchor="middle" x="2431" y="-119.5" font-family="Helvetica,sans-Serif" font-size="10.00">fstream</text>
</g>
<!-- Node1&#45;&gt;Node35 -->
<g id="edge50" class="edge"><title>Node1&#45;&gt;Node35</title>
<path fill="none" stroke="midnightblue" d="M2030.44,-224.42C2030.63,-208.165 2033.69,-181.89 2050,-168 2106.83,-119.599 2305.24,-143.974 2396.19,-131.633"/>
<polygon fill="midnightblue" stroke="midnightblue" points="2396.89,-135.066 2406.22,-130.036 2395.79,-128.153 2396.89,-135.066"/>
</g>
<!-- Node42 -->
<g id="node42" class="node"><title>Node42</title>
<polygon fill="none" stroke="#bfbfbf" points="2059,-168.5 2059,-187.5 2115,-187.5 2115,-168.5 2059,-168.5"/>
<text text-anchor="middle" x="2087" y="-175.5" font-family="Helvetica,sans-Serif" font-size="10.00">comdef.h</text>
</g>
<!-- Node1&#45;&gt;Node42 -->
<g id="edge49" class="edge"><title>Node1&#45;&gt;Node42</title>
<path fill="none" stroke="midnightblue" d="M2044.27,-224.399C2052.58,-215.575 2063.3,-204.183 2071.92,-195.018"/>
<polygon fill="midnightblue" stroke="midnightblue" points="2074.55,-197.339 2078.85,-187.658 2069.45,-192.541 2074.55,-197.339"/>
</g>
<!-- Node3 -->
<g id="node3" class="node"><title>Node3</title>
<g id="a_node3"><a xlink:href="utility_8hpp.html" target="_top" xlink:title="../mt/utility.hpp">
<polygon fill="none" stroke="black" points="488,-112.5 488,-131.5 570,-131.5 570,-112.5 488,-112.5"/>
<text text-anchor="middle" x="529" y="-119.5" font-family="Helvetica,sans-Serif" font-size="10.00">../mt/utility.hpp</text>
</a>
</g>
</g>
<!-- Node2&#45;&gt;Node3 -->
<g id="edge2" class="edge"><title>Node2&#45;&gt;Node3</title>
<path fill="none" stroke="midnightblue" d="M1504.39,-175.514C1367.5,-168.144 760.984,-135.49 580.092,-125.751"/>
<polygon fill="midnightblue" stroke="midnightblue" points="580.219,-122.253 570.045,-125.21 579.842,-129.242 580.219,-122.253"/>
</g>
<!-- Node4 -->
<g id="node4" class="node"><title>Node4</title>
<polygon fill="none" stroke="#bfbfbf" points="0,-56.5 0,-75.5 56,-75.5 56,-56.5 0,-56.5"/>
<text text-anchor="middle" x="28" y="-63.5" font-family="Helvetica,sans-Serif" font-size="10.00">algorithm</text>
</g>
<!-- Node2&#45;&gt;Node4 -->
<g id="edge33" class="edge"><title>Node2&#45;&gt;Node4</title>
<path fill="none" stroke="midnightblue" d="M1504.28,-176.749C1382.81,-175.452 885.444,-168.097 479,-132 297.303,-115.863 249.136,-110.618 66.1683,-76.067"/>
<polygon fill="midnightblue" stroke="midnightblue" points="66.6924,-72.6041 56.216,-74.184 65.391,-79.4821 66.6924,-72.6041"/>
</g>
<!-- Node15 -->
<g id="node15" class="node"><title>Node15</title>
<polygon fill="none" stroke="#bfbfbf" points="864.5,-56.5 864.5,-75.5 905.5,-75.5 905.5,-56.5 864.5,-56.5"/>
<text text-anchor="middle" x="885" y="-63.5" font-family="Helvetica,sans-Serif" font-size="10.00">string</text>
</g>
<!-- Node2&#45;&gt;Node15 -->
<g id="edge31" class="edge"><title>Node2&#45;&gt;Node15</title>
<path fill="none" stroke="midnightblue" d="M1504.38,-176.13C1409.87,-172.922 1100.01,-160.435 1005,-132 967.494,-120.775 928.412,-96.9612 905.414,-81.4857"/>
<polygon fill="midnightblue" stroke="midnightblue" points="907.095,-78.3943 896.87,-75.6188 903.132,-84.1648 907.095,-78.3943"/>
</g>
<!-- Node19 -->
<g id="node19" class="node"><title>Node19</title>
<g id="a_node19"><a xlink:href="_math_helper_8h.html" target="_top" xlink:title="../mt/MathHelper.h">
<polygon fill="none" stroke="black" points="924,-56.5 924,-75.5 1022,-75.5 1022,-56.5 924,-56.5"/>
<text text-anchor="middle" x="973" y="-63.5" font-family="Helvetica,sans-Serif" font-size="10.00">../mt/MathHelper.h</text>
</a>
</g>
</g>
<!-- Node2&#45;&gt;Node19 -->
<g id="edge48" class="edge"><title>Node2&#45;&gt;Node19</title>
<path fill="none" stroke="midnightblue" d="M1504.36,-176.991C1412.71,-176.576 1119.87,-172.074 1036,-132 1013.92,-121.451 995.398,-99.6928 984.27,-84.2605"/>
<polygon fill="midnightblue" stroke="midnightblue" points="986.882,-81.8818 978.331,-75.6259 981.114,-85.8487 986.882,-81.8818"/>
</g>
<!-- Node21 -->
<g id="node21" class="node"><title>Node21</title>
<polygon fill="none" stroke="#bfbfbf" points="969.5,-0.5 969.5,-19.5 1046.5,-19.5 1046.5,-0.5 969.5,-0.5"/>
<text text-anchor="middle" x="1008" y="-7.5" font-family="Helvetica,sans-Serif" font-size="10.00">DirectXMath.h</text>
</g>
<!-- Node2&#45;&gt;Node21 -->
<g id="edge27" class="edge"><title>Node2&#45;&gt;Node21</title>
<path fill="none" stroke="midnightblue" d="M1504.45,-177.183C1419.07,-177.294 1160.45,-174.067 1090,-132 1069.35,-119.668 1034.32,-59.2491 1017.53,-28.7232"/>
<polygon fill="midnightblue" stroke="midnightblue" points="1020.43,-26.7409 1012.58,-19.6296 1014.28,-30.0863 1020.43,-26.7409"/>
</g>
<!-- Node22 -->
<g id="node22" class="node"><title>Node22</title>
<polygon fill="none" stroke="#bfbfbf" points="1065,-0.5 1065,-19.5 1111,-19.5 1111,-0.5 1065,-0.5"/>
<text text-anchor="middle" x="1088" y="-7.5" font-family="Helvetica,sans-Serif" font-size="10.00">cstdint</text>
</g>
<!-- Node2&#45;&gt;Node22 -->
<g id="edge37" class="edge"><title>Node2&#45;&gt;Node22</title>
<path fill="none" stroke="midnightblue" d="M1504.39,-175.997C1414.72,-172.482 1135.83,-159.419 1107,-132 1079.22,-105.587 1081.14,-56.382 1084.71,-29.5753"/>
<polygon fill="midnightblue" stroke="midnightblue" points="1088.19,-30.0079 1086.26,-19.5898 1081.27,-28.9355 1088.19,-30.0079"/>
</g>
<!-- Node23 -->
<g id="node23" class="node"><title>Node23</title>
<polygon fill="none" stroke="#bfbfbf" points="1116,-112.5 1116,-131.5 1178,-131.5 1178,-112.5 1116,-112.5"/>
<text text-anchor="middle" x="1147" y="-119.5" font-family="Helvetica,sans-Serif" font-size="10.00">windows.h</text>
</g>
<!-- Node2&#45;&gt;Node23 -->
<g id="edge22" class="edge"><title>Node2&#45;&gt;Node23</title>
<path fill="none" stroke="midnightblue" d="M1504.14,-173.942C1445.97,-167.419 1307.42,-151.159 1192,-132 1190.9,-131.817 1189.79,-131.628 1188.66,-131.433"/>
<polygon fill="midnightblue" stroke="midnightblue" points="1188.89,-127.916 1178.42,-129.559 1187.63,-134.802 1188.89,-127.916"/>
</g>
<!-- Node24 -->
<g id="node24" class="node"><title>Node24</title>
<polygon fill="none" stroke="#bfbfbf" points="1178.5,-56.5 1178.5,-75.5 1215.5,-75.5 1215.5,-56.5 1178.5,-56.5"/>
<text text-anchor="middle" x="1197" y="-63.5" font-family="Helvetica,sans-Serif" font-size="10.00">wrl.h</text>
</g>
<!-- Node2&#45;&gt;Node24 -->
<g id="edge23" class="edge"><title>Node2&#45;&gt;Node24</title>
<path fill="none" stroke="midnightblue" d="M1504.14,-176.057C1437.97,-173.321 1273.65,-163.458 1230,-132 1214.63,-120.925 1205.95,-100.582 1201.4,-85.5934"/>
<polygon fill="midnightblue" stroke="midnightblue" points="1204.75,-84.5811 1198.77,-75.8349 1197.99,-86.401 1204.75,-84.5811"/>
</g>
<!-- Node25 -->
<g id="node25" class="node"><title>Node25</title>
<polygon fill="none" stroke="#bfbfbf" points="1458.5,-112.5 1458.5,-131.5 1517.5,-131.5 1517.5,-112.5 1458.5,-112.5"/>
<text text-anchor="middle" x="1488" y="-119.5" font-family="Helvetica,sans-Serif" font-size="10.00">dxgi1_4.h</text>
</g>
<!-- Node2&#45;&gt;Node25 -->
<g id="edge24" class="edge"><title>Node2&#45;&gt;Node25</title>
<path fill="none" stroke="midnightblue" d="M1524.73,-168.083C1518.46,-160.377 1509.21,-149.033 1501.57,-139.653"/>
<polygon fill="midnightblue" stroke="midnightblue" points="1504.16,-137.293 1495.13,-131.751 1498.73,-141.714 1504.16,-137.293"/>
</g>
<!-- Node26 -->
<g id="node26" class="node"><title>Node26</title>
<polygon fill="none" stroke="#bfbfbf" points="1252.5,-0.5 1252.5,-19.5 1303.5,-19.5 1303.5,-0.5 1252.5,-0.5"/>
<text text-anchor="middle" x="1278" y="-7.5" font-family="Helvetica,sans-Serif" font-size="10.00">d3d12.h</text>
</g>
<!-- Node2&#45;&gt;Node26 -->
<g id="edge25" class="edge"><title>Node2&#45;&gt;Node26</title>
<path fill="none" stroke="midnightblue" d="M1504.41,-174.916C1448.52,-170.213 1324.4,-157.17 1291,-132 1262.25,-110.333 1257.23,-91.5324 1263,-56 1264.47,-46.9568 1267.49,-37.275 1270.44,-29.2176"/>
<polygon fill="midnightblue" stroke="midnightblue" points="1273.76,-30.3393 1274.14,-19.7514 1267.24,-27.7907 1273.76,-30.3393"/>
</g>
<!-- Node27 -->
<g id="node27" class="node"><title>Node27</title>
<polygon fill="none" stroke="#bfbfbf" points="1536,-112.5 1536,-131.5 1616,-131.5 1616,-112.5 1536,-112.5"/>
<text text-anchor="middle" x="1576" y="-119.5" font-family="Helvetica,sans-Serif" font-size="10.00">D3Dcompiler.h</text>
</g>
<!-- Node2&#45;&gt;Node27 -->
<g id="edge26" class="edge"><title>Node2&#45;&gt;Node27</title>
<path fill="none" stroke="midnightblue" d="M1539.27,-168.083C1545.54,-160.377 1554.79,-149.033 1562.43,-139.653"/>
<polygon fill="midnightblue" stroke="midnightblue" points="1565.27,-141.714 1568.87,-131.751 1559.84,-137.293 1565.27,-141.714"/>
</g>
<!-- Node28 -->
<g id="node28" class="node"><title>Node28</title>
<polygon fill="none" stroke="#bfbfbf" points="1634.5,-112.5 1634.5,-131.5 1751.5,-131.5 1751.5,-112.5 1634.5,-112.5"/>
<text text-anchor="middle" x="1693" y="-119.5" font-family="Helvetica,sans-Serif" font-size="10.00">DirectXPackedVector.h</text>
</g>
<!-- Node2&#45;&gt;Node28 -->
<g id="edge28" class="edge"><title>Node2&#45;&gt;Node28</title>
<path fill="none" stroke="midnightblue" d="M1557.51,-168.444C1584.6,-159.359 1627.59,-144.939 1657.87,-134.783"/>
<polygon fill="midnightblue" stroke="midnightblue" points="1659.24,-138.015 1667.61,-131.516 1657.01,-131.378 1659.24,-138.015"/>
</g>
<!-- Node29 -->
<g id="node29" class="node"><title>Node29</title>
<polygon fill="none" stroke="#bfbfbf" points="1769.5,-112.5 1769.5,-131.5 1852.5,-131.5 1852.5,-112.5 1769.5,-112.5"/>
<text text-anchor="middle" x="1811" y="-119.5" font-family="Helvetica,sans-Serif" font-size="10.00">DirectXColors.h</text>
</g>
<!-- Node2&#45;&gt;Node29 -->
<g id="edge29" class="edge"><title>Node2&#45;&gt;Node29</title>
<path fill="none" stroke="midnightblue" d="M1559.52,-171.674C1605.91,-162.695 1700.4,-144.406 1759.43,-132.981"/>
<polygon fill="midnightblue" stroke="midnightblue" points="1760.15,-136.407 1769.3,-131.07 1758.82,-129.534 1760.15,-136.407"/>
</g>
<!-- Node30 -->
<g id="node30" class="node"><title>Node30</title>
<polygon fill="none" stroke="#bfbfbf" points="1871,-112.5 1871,-131.5 1963,-131.5 1963,-112.5 1871,-112.5"/>
<text text-anchor="middle" x="1917" y="-119.5" font-family="Helvetica,sans-Serif" font-size="10.00">DirectXCollision.h</text>
</g>
<!-- Node2&#45;&gt;Node30 -->
<g id="edge30" class="edge"><title>Node2&#45;&gt;Node30</title>
<path fill="none" stroke="midnightblue" d="M1559.76,-173.426C1614.89,-166.281 1742.3,-149.529 1860.89,-131.983"/>
<polygon fill="midnightblue" stroke="midnightblue" points="1861.49,-135.432 1870.87,-130.502 1860.46,-128.508 1861.49,-135.432"/>
</g>
<!-- Node31 -->
<g id="node31" class="node"><title>Node31</title>
<polygon fill="none" stroke="#bfbfbf" points="1981,-112.5 1981,-131.5 2033,-131.5 2033,-112.5 1981,-112.5"/>
<text text-anchor="middle" x="2007" y="-119.5" font-family="Helvetica,sans-Serif" font-size="10.00">memory</text>
</g>
<!-- Node2&#45;&gt;Node31 -->
<g id="edge32" class="edge"><title>Node2&#45;&gt;Node31</title>
<path fill="none" stroke="midnightblue" d="M1559.74,-175.609C1628.06,-171.876 1809.94,-160.083 1970.65,-131.994"/>
<polygon fill="midnightblue" stroke="midnightblue" points="1971.48,-135.401 1980.72,-130.208 1970.26,-128.509 1971.48,-135.401"/>
</g>
<!-- Node32 -->
<g id="node32" class="node"><title>Node32</title>
<polygon fill="none" stroke="#bfbfbf" points="2051,-112.5 2051,-131.5 2093,-131.5 2093,-112.5 2051,-112.5"/>
<text text-anchor="middle" x="2072" y="-119.5" font-family="Helvetica,sans-Serif" font-size="10.00">vector</text>
</g>
<!-- Node2&#45;&gt;Node32 -->
<g id="edge34" class="edge"><title>Node2&#45;&gt;Node32</title>
<path fill="none" stroke="midnightblue" d="M1559.64,-176.531C1635.34,-174.832 1852.4,-167.185 2040.75,-131.856"/>
<polygon fill="midnightblue" stroke="midnightblue" points="2041.66,-135.245 2050.83,-129.933 2040.35,-128.369 2041.66,-135.245"/>
</g>
<!-- Node33 -->
<g id="node33" class="node"><title>Node33</title>
<polygon fill="none" stroke="#bfbfbf" points="2111,-112.5 2111,-131.5 2149,-131.5 2149,-112.5 2111,-112.5"/>
<text text-anchor="middle" x="2130" y="-119.5" font-family="Helvetica,sans-Serif" font-size="10.00">array</text>
</g>
<!-- Node2&#45;&gt;Node33 -->
<g id="edge35" class="edge"><title>Node2&#45;&gt;Node33</title>
<path fill="none" stroke="midnightblue" d="M1559.6,-177.077C1641.24,-176.834 1888.62,-172.695 2100.8,-131.771"/>
<polygon fill="midnightblue" stroke="midnightblue" points="2101.74,-135.154 2110.87,-129.794 2100.39,-128.285 2101.74,-135.154"/>
</g>
<!-- Node34 -->
<g id="node34" class="node"><title>Node34</title>
<polygon fill="none" stroke="#bfbfbf" points="2167.5,-112.5 2167.5,-131.5 2250.5,-131.5 2250.5,-112.5 2167.5,-112.5"/>
<text text-anchor="middle" x="2209" y="-119.5" font-family="Helvetica,sans-Serif" font-size="10.00">unordered_map</text>
</g>
<!-- Node2&#45;&gt;Node34 -->
<g id="edge36" class="edge"><title>Node2&#45;&gt;Node34</title>
<path fill="none" stroke="midnightblue" d="M1559.56,-176.032C1646.02,-172.782 1919.77,-160.869 2157.1,-131.974"/>
<polygon fill="midnightblue" stroke="midnightblue" points="2157.81,-135.414 2167.3,-130.718 2156.95,-128.466 2157.81,-135.414"/>
</g>
<!-- Node2&#45;&gt;Node35 -->
<g id="edge38" class="edge"><title>Node2&#45;&gt;Node35</title>
<path fill="none" stroke="midnightblue" d="M1559.63,-176.332C1686,-173.16 2210.43,-158.715 2396.33,-131.691"/>
<polygon fill="midnightblue" stroke="midnightblue" points="2396.88,-135.147 2406.24,-130.186 2395.83,-128.227 2396.88,-135.147"/>
</g>
<!-- Node36 -->
<g id="node36" class="node"><title>Node36</title>
<polygon fill="none" stroke="#bfbfbf" points="2269,-112.5 2269,-131.5 2321,-131.5 2321,-112.5 2269,-112.5"/>
<text text-anchor="middle" x="2295" y="-119.5" font-family="Helvetica,sans-Serif" font-size="10.00">sstream</text>
</g>
<!-- Node2&#45;&gt;Node36 -->
<g id="edge39" class="edge"><title>Node2&#45;&gt;Node36</title>
<path fill="none" stroke="midnightblue" d="M1559.59,-177.104C1655.13,-177.087 1980.67,-173.865 2258.49,-131.728"/>
<polygon fill="midnightblue" stroke="midnightblue" points="2259.42,-135.127 2268.77,-130.148 2258.35,-128.208 2259.42,-135.127"/>
</g>
<!-- Node37 -->
<g id="node37" class="node"><title>Node37</title>
<polygon fill="none" stroke="#bfbfbf" points="2339.5,-112.5 2339.5,-131.5 2388.5,-131.5 2388.5,-112.5 2339.5,-112.5"/>
<text text-anchor="middle" x="2364" y="-119.5" font-family="Helvetica,sans-Serif" font-size="10.00">cassert</text>
</g>
<!-- Node2&#45;&gt;Node37 -->
<g id="edge40" class="edge"><title>Node2&#45;&gt;Node37</title>
<path fill="none" stroke="midnightblue" d="M1559.78,-177.457C1661.53,-178.709 2023.36,-179.446 2329.3,-131.745"/>
<polygon fill="midnightblue" stroke="midnightblue" points="2329.91,-135.191 2339.24,-130.174 2328.82,-128.277 2329.91,-135.191"/>
</g>
<!-- Node38 -->
<g id="node38" class="node"><title>Node38</title>
<g id="a_node38"><a xlink:href="d3dx12_8h.html" target="_top" xlink:title="../mt/d3dx12.h">
<polygon fill="none" stroke="black" points="1272,-56.5 1272,-75.5 1352,-75.5 1352,-56.5 1272,-56.5"/>
<text text-anchor="middle" x="1312" y="-63.5" font-family="Helvetica,sans-Serif" font-size="10.00">../mt/d3dx12.h</text>
</a>
</g>
</g>
<!-- Node2&#45;&gt;Node38 -->
<g id="edge41" class="edge"><title>Node2&#45;&gt;Node38</title>
<path fill="none" stroke="midnightblue" d="M1504.08,-175.835C1448.34,-172.863 1326.46,-162.902 1301,-132 1290.22,-118.922 1295.59,-99.2285 1302.04,-84.9468"/>
<polygon fill="midnightblue" stroke="midnightblue" points="1305.33,-86.1819 1306.7,-75.6759 1299.08,-83.035 1305.33,-86.1819"/>
</g>
<!-- Node39 -->
<g id="node39" class="node"><title>Node39</title>
<g id="a_node39"><a xlink:href="_d_d_s_texture_loader_8h.html" target="_top" xlink:title="../mt/DDSTextureLoader.h">
<polygon fill="none" stroke="black" points="1310,-112.5 1310,-131.5 1440,-131.5 1440,-112.5 1310,-112.5"/>
<text text-anchor="middle" x="1375" y="-119.5" font-family="Helvetica,sans-Serif" font-size="10.00">../mt/DDSTextureLoader.h</text>
</a>
</g>
</g>
<!-- Node2&#45;&gt;Node39 -->
<g id="edge43" class="edge"><title>Node2&#45;&gt;Node39</title>
<path fill="none" stroke="midnightblue" d="M1507.12,-168.444C1480.71,-159.359 1438.78,-144.939 1409.26,-134.783"/>
<polygon fill="midnightblue" stroke="midnightblue" points="1410.36,-131.459 1399.76,-131.516 1408.08,-138.079 1410.36,-131.459"/>
</g>
<!-- Node3&#45;&gt;Node4 -->
<g id="edge3" class="edge"><title>Node3&#45;&gt;Node4</title>
<path fill="none" stroke="midnightblue" d="M487.776,-118.97C408.12,-114.624 227.421,-102.702 66.2901,-75.9924"/>
<polygon fill="midnightblue" stroke="midnightblue" points="66.638,-72.5018 56.1961,-74.2952 65.4773,-79.4049 66.638,-72.5018"/>
</g>
<!-- Node5 -->
<g id="node5" class="node"><title>Node5</title>
<polygon fill="none" stroke="#bfbfbf" points="74,-56.5 74,-75.5 120,-75.5 120,-56.5 74,-56.5"/>
<text text-anchor="middle" x="97" y="-63.5" font-family="Helvetica,sans-Serif" font-size="10.00">chrono</text>
</g>
<!-- Node3&#45;&gt;Node5 -->
<g id="edge4" class="edge"><title>Node3&#45;&gt;Node5</title>
<path fill="none" stroke="midnightblue" d="M487.782,-118.575C416.653,-113.911 266.203,-101.949 130.474,-76.0028"/>
<polygon fill="midnightblue" stroke="midnightblue" points="130.798,-72.5002 120.314,-74.0285 129.462,-79.3717 130.798,-72.5002"/>
</g>
<!-- Node6 -->
<g id="node6" class="node"><title>Node6</title>
<polygon fill="none" stroke="#bfbfbf" points="138,-56.5 138,-75.5 182,-75.5 182,-56.5 138,-56.5"/>
<text text-anchor="middle" x="160" y="-63.5" font-family="Helvetica,sans-Serif" font-size="10.00">cmath</text>
</g>
<!-- Node3&#45;&gt;Node6 -->
<g id="edge5" class="edge"><title>Node3&#45;&gt;Node6</title>
<path fill="none" stroke="midnightblue" d="M487.82,-117.529C425.705,-111.855 304.251,-99.0617 192.353,-76.0088"/>
<polygon fill="midnightblue" stroke="midnightblue" points="192.755,-72.517 182.25,-73.8934 191.32,-79.3685 192.755,-72.517"/>
</g>
<!-- Node7 -->
<g id="node7" class="node"><title>Node7</title>
<polygon fill="none" stroke="#bfbfbf" points="200.5,-56.5 200.5,-75.5 249.5,-75.5 249.5,-56.5 200.5,-56.5"/>
<text text-anchor="middle" x="225" y="-63.5" font-family="Helvetica,sans-Serif" font-size="10.00">cstdarg</text>
</g>
<!-- Node3&#45;&gt;Node7 -->
<g id="edge6" class="edge"><title>Node3&#45;&gt;Node7</title>
<path fill="none" stroke="midnightblue" d="M487.891,-115.502C436.556,-108.345 345.882,-94.7442 259.737,-76.2178"/>
<polygon fill="midnightblue" stroke="midnightblue" points="260.315,-72.7618 249.799,-74.054 258.826,-79.6016 260.315,-72.7618"/>
</g>
<!-- Node8 -->
<g id="node8" class="node"><title>Node8</title>
<polygon fill="none" stroke="#bfbfbf" points="267.5,-56.5 267.5,-75.5 310.5,-75.5 310.5,-56.5 267.5,-56.5"/>
<text text-anchor="middle" x="289" y="-63.5" font-family="Helvetica,sans-Serif" font-size="10.00">deque</text>
</g>
<!-- Node3&#45;&gt;Node8 -->
<g id="edge7" class="edge"><title>Node3&#45;&gt;Node8</title>
<path fill="none" stroke="midnightblue" d="M487.727,-113.175C447.29,-105.282 383.732,-92.2748 320.331,-76.1975"/>
<polygon fill="midnightblue" stroke="midnightblue" points="321.128,-72.7885 310.572,-73.6975 319.391,-79.5696 321.128,-72.7885"/>
</g>
<!-- Node9 -->
<g id="node9" class="node"><title>Node9</title>
<polygon fill="none" stroke="#bfbfbf" points="328.5,-56.5 328.5,-75.5 389.5,-75.5 389.5,-56.5 328.5,-56.5"/>
<text text-anchor="middle" x="359" y="-63.5" font-family="Helvetica,sans-Serif" font-size="10.00">filesystem</text>
</g>
<!-- Node3&#45;&gt;Node9 -->
<g id="edge8" class="edge"><title>Node3&#45;&gt;Node9</title>
<path fill="none" stroke="midnightblue" d="M502.063,-112.444C473.34,-103.32 427.671,-88.8133 395.679,-78.6509"/>
<polygon fill="midnightblue" stroke="midnightblue" points="396.401,-75.2081 385.811,-75.5164 394.282,-81.8797 396.401,-75.2081"/>
</g>
<!-- Node10 -->
<g id="node10" class="node"><title>Node10</title>
<polygon fill="none" stroke="#bfbfbf" points="407.5,-56.5 407.5,-75.5 436.5,-75.5 436.5,-56.5 407.5,-56.5"/>
<text text-anchor="middle" x="422" y="-63.5" font-family="Helvetica,sans-Serif" font-size="10.00">list</text>
</g>
<!-- Node3&#45;&gt;Node10 -->
<g id="edge9" class="edge"><title>Node3&#45;&gt;Node10</title>
<path fill="none" stroke="midnightblue" d="M511.809,-112.324C493.938,-103.305 465.835,-89.1223 445.828,-79.0255"/>
<polygon fill="midnightblue" stroke="midnightblue" points="447.242,-75.8185 436.738,-74.4376 444.088,-82.0678 447.242,-75.8185"/>
</g>
<!-- Node11 -->
<g id="node11" class="node"><title>Node11</title>
<polygon fill="none" stroke="#bfbfbf" points="454.5,-56.5 454.5,-75.5 489.5,-75.5 489.5,-56.5 454.5,-56.5"/>
<text text-anchor="middle" x="472" y="-63.5" font-family="Helvetica,sans-Serif" font-size="10.00">map</text>
</g>
<!-- Node3&#45;&gt;Node11 -->
<g id="edge10" class="edge"><title>Node3&#45;&gt;Node11</title>
<path fill="none" stroke="midnightblue" d="M519.842,-112.324C511.499,-104.42 498.968,-92.5482 488.823,-82.9377"/>
<polygon fill="midnightblue" stroke="midnightblue" points="490.991,-80.1705 481.325,-75.8339 486.177,-85.2522 490.991,-80.1705"/>
</g>
<!-- Node12 -->
<g id="node12" class="node"><title>Node12</title>
<polygon fill="none" stroke="#bfbfbf" points="507.5,-56.5 507.5,-75.5 550.5,-75.5 550.5,-56.5 507.5,-56.5"/>
<text text-anchor="middle" x="529" y="-63.5" font-family="Helvetica,sans-Serif" font-size="10.00">queue</text>
</g>
<!-- Node3&#45;&gt;Node12 -->
<g id="edge11" class="edge"><title>Node3&#45;&gt;Node12</title>
<path fill="none" stroke="midnightblue" d="M529,-112.083C529,-105.006 529,-94.8611 529,-85.9865"/>
<polygon fill="midnightblue" stroke="midnightblue" points="532.5,-85.751 529,-75.7511 525.5,-85.7511 532.5,-85.751"/>
</g>
<!-- Node13 -->
<g id="node13" class="node"><title>Node13</title>
<polygon fill="none" stroke="#bfbfbf" points="568.5,-56.5 568.5,-75.5 603.5,-75.5 603.5,-56.5 568.5,-56.5"/>
<text text-anchor="middle" x="586" y="-63.5" font-family="Helvetica,sans-Serif" font-size="10.00">ratio</text>
</g>
<!-- Node3&#45;&gt;Node13 -->
<g id="edge12" class="edge"><title>Node3&#45;&gt;Node13</title>
<path fill="none" stroke="midnightblue" d="M538.158,-112.324C546.501,-104.42 559.032,-92.5482 569.177,-82.9377"/>
<polygon fill="midnightblue" stroke="midnightblue" points="571.823,-85.2522 576.675,-75.8339 567.009,-80.1705 571.823,-85.2522"/>
</g>
<!-- Node14 -->
<g id="node14" class="node"><title>Node14</title>
<polygon fill="none" stroke="#bfbfbf" points="622,-56.5 622,-75.5 652,-75.5 652,-56.5 622,-56.5"/>
<text text-anchor="middle" x="637" y="-63.5" font-family="Helvetica,sans-Serif" font-size="10.00">set</text>
</g>
<!-- Node3&#45;&gt;Node14 -->
<g id="edge13" class="edge"><title>Node3&#45;&gt;Node14</title>
<path fill="none" stroke="midnightblue" d="M546.352,-112.324C564.287,-103.357 592.433,-89.2833 612.604,-79.198"/>
<polygon fill="midnightblue" stroke="midnightblue" points="614.407,-82.2099 621.786,-74.6072 611.276,-75.9489 614.407,-82.2099"/>
</g>
<!-- Node3&#45;&gt;Node15 -->
<g id="edge14" class="edge"><title>Node3&#45;&gt;Node15</title>
<path fill="none" stroke="midnightblue" d="M570.014,-117.388C630.277,-111.635 746.371,-98.8587 854.364,-75.8086"/>
<polygon fill="midnightblue" stroke="midnightblue" points="855.422,-79.1605 864.452,-73.6197 853.938,-72.3197 855.422,-79.1605"/>
</g>
<!-- Node16 -->
<g id="node16" class="node"><title>Node16</title>
<polygon fill="none" stroke="#bfbfbf" points="670,-56.5 670,-75.5 732,-75.5 732,-56.5 670,-56.5"/>
<text text-anchor="middle" x="701" y="-63.5" font-family="Helvetica,sans-Serif" font-size="10.00">type_traits</text>
</g>
<!-- Node3&#45;&gt;Node16 -->
<g id="edge15" class="edge"><title>Node3&#45;&gt;Node16</title>
<path fill="none" stroke="midnightblue" d="M556.254,-112.444C585.441,-103.28 631.921,-88.6876 664.309,-78.5192"/>
<polygon fill="midnightblue" stroke="midnightblue" points="665.381,-81.8512 673.874,-75.5164 663.284,-75.1726 665.381,-81.8512"/>
</g>
<!-- Node17 -->
<g id="node17" class="node"><title>Node17</title>
<polygon fill="none" stroke="#bfbfbf" points="750,-56.5 750,-75.5 788,-75.5 788,-56.5 750,-56.5"/>
<text text-anchor="middle" x="769" y="-63.5" font-family="Helvetica,sans-Serif" font-size="10.00">tuple</text>
</g>
<!-- Node3&#45;&gt;Node17 -->
<g id="edge16" class="edge"><title>Node3&#45;&gt;Node17</title>
<path fill="none" stroke="midnightblue" d="M570.332,-113.519C611.178,-105.84 675.602,-92.9621 739.899,-76.087"/>
<polygon fill="midnightblue" stroke="midnightblue" points="741.031,-79.4076 749.797,-73.4567 739.233,-72.6424 741.031,-79.4076"/>
</g>
<!-- Node18 -->
<g id="node18" class="node"><title>Node18</title>
<polygon fill="none" stroke="#bfbfbf" points="806,-56.5 806,-75.5 846,-75.5 846,-56.5 806,-56.5"/>
<text text-anchor="middle" x="826" y="-63.5" font-family="Helvetica,sans-Serif" font-size="10.00">utility</text>
</g>
<!-- Node3&#45;&gt;Node18 -->
<g id="edge17" class="edge"><title>Node3&#45;&gt;Node18</title>
<path fill="none" stroke="midnightblue" d="M570.207,-115.836C621.159,-109.065 710.643,-95.9193 795.97,-75.9805"/>
<polygon fill="midnightblue" stroke="midnightblue" points="796.893,-79.3589 805.815,-73.645 795.277,-72.548 796.893,-79.3589"/>
</g>
<!-- Node3&#45;&gt;Node19 -->
<g id="edge18" class="edge"><title>Node3&#45;&gt;Node19</title>
<path fill="none" stroke="midnightblue" d="M570.084,-116.676C638.76,-109.343 781.464,-93.6632 913.469,-76.025"/>
<polygon fill="midnightblue" stroke="midnightblue" points="914.318,-79.4425 923.763,-74.6426 913.386,-72.5048 914.318,-79.4425"/>
</g>
<!-- Node20 -->
<g id="node20" class="node"><title>Node20</title>
<polygon fill="none" stroke="#bfbfbf" points="886.5,-0.5 886.5,-19.5 951.5,-19.5 951.5,-0.5 886.5,-0.5"/>
<text text-anchor="middle" x="919" y="-7.5" font-family="Helvetica,sans-Serif" font-size="10.00">Windows.h</text>
</g>
<!-- Node19&#45;&gt;Node20 -->
<g id="edge19" class="edge"><title>Node19&#45;&gt;Node20</title>
<path fill="none" stroke="midnightblue" d="M964.083,-56.083C956.22,-48.2195 944.569,-36.5688 935.081,-27.0813"/>
<polygon fill="midnightblue" stroke="midnightblue" points="937.297,-24.3473 927.751,-19.7511 932.347,-29.2971 937.297,-24.3473"/>
</g>
<!-- Node19&#45;&gt;Node21 -->
<g id="edge20" class="edge"><title>Node19&#45;&gt;Node21</title>
<path fill="none" stroke="midnightblue" d="M978.78,-56.083C983.672,-48.5341 990.827,-37.4948 996.833,-28.2298"/>
<polygon fill="midnightblue" stroke="midnightblue" points="999.826,-30.0463 1002.33,-19.7511 993.952,-26.239 999.826,-30.0463"/>
</g>
<!-- Node19&#45;&gt;Node22 -->
<g id="edge21" class="edge"><title>Node19&#45;&gt;Node22</title>
<path fill="none" stroke="midnightblue" d="M991.222,-56.4435C1009.9,-47.6751 1039.16,-33.9355 1060.62,-23.8579"/>
<polygon fill="midnightblue" stroke="midnightblue" points="1062.3,-26.935 1069.86,-19.5164 1059.32,-20.5988 1062.3,-26.935"/>
</g>
<!-- Node38&#45;&gt;Node26 -->
<g id="edge42" class="edge"><title>Node38&#45;&gt;Node26</title>
<path fill="none" stroke="midnightblue" d="M1306.39,-56.083C1301.63,-48.5341 1294.68,-37.4948 1288.85,-28.2298"/>
<polygon fill="midnightblue" stroke="midnightblue" points="1291.8,-26.3486 1283.51,-19.7511 1285.88,-30.0783 1291.8,-26.3486"/>
</g>
<!-- Node39&#45;&gt;Node24 -->
<g id="edge44" class="edge"><title>Node39&#45;&gt;Node24</title>
<path fill="none" stroke="midnightblue" d="M1346.8,-112.444C1313.48,-102.337 1258.4,-85.6257 1225.12,-75.5303"/>
<polygon fill="midnightblue" stroke="midnightblue" points="1226.12,-72.1782 1215.54,-72.6243 1224.09,-78.8767 1226.12,-72.1782"/>
</g>
<!-- Node39&#45;&gt;Node38 -->
<g id="edge46" class="edge"><title>Node39&#45;&gt;Node38</title>
<path fill="none" stroke="midnightblue" d="M1364.88,-112.324C1355.47,-104.263 1341.26,-92.0765 1329.93,-82.3695"/>
<polygon fill="midnightblue" stroke="midnightblue" points="1332.18,-79.6844 1322.31,-75.8339 1327.62,-84.9993 1332.18,-79.6844"/>
</g>
<!-- Node40 -->
<g id="node40" class="node"><title>Node40</title>
<polygon fill="none" stroke="#bfbfbf" points="1370,-56.5 1370,-75.5 1432,-75.5 1432,-56.5 1370,-56.5"/>
<text text-anchor="middle" x="1401" y="-63.5" font-family="Helvetica,sans-Serif" font-size="10.00">d3d11_1.h</text>
</g>
<!-- Node39&#45;&gt;Node40 -->
<g id="edge45" class="edge"><title>Node39&#45;&gt;Node40</title>
<path fill="none" stroke="midnightblue" d="M1379.29,-112.083C1382.85,-104.691 1388.02,-93.9533 1392.42,-84.8111"/>
<polygon fill="midnightblue" stroke="midnightblue" points="1395.6,-86.2795 1396.79,-75.7511 1389.29,-83.2427 1395.6,-86.2795"/>
</g>
<!-- Node41 -->
<g id="node41" class="node"><title>Node41</title>
<polygon fill="none" stroke="#bfbfbf" points="1450.5,-56.5 1450.5,-75.5 1499.5,-75.5 1499.5,-56.5 1450.5,-56.5"/>
<text text-anchor="middle" x="1475" y="-63.5" font-family="Helvetica,sans-Serif" font-size="10.00">stdint.h</text>
</g>
<!-- Node39&#45;&gt;Node41 -->
<g id="edge47" class="edge"><title>Node39&#45;&gt;Node41</title>
<path fill="none" stroke="midnightblue" d="M1391.07,-112.324C1406.96,-103.743 1431.51,-90.486 1449.96,-80.5224"/>
<polygon fill="midnightblue" stroke="midnightblue" points="1451.84,-83.4857 1458.97,-75.6545 1448.51,-77.3264 1451.84,-83.4857"/>
</g>
</g>
</svg>
