<?xml version="1.0" encoding="UTF-8" standalone="no"?>
<!DOCTYPE svg PUBLIC "-//W3C//DTD SVG 1.1//EN"
 "http://www.w3.org/Graphics/SVG/1.1/DTD/svg11.dtd">
<!-- Generated by graphviz version 2.38.0 (20140413.2041)
 -->
<!-- Title: C:/Users/micho/Desktop/mt_engine/mt/d3dx12.h Pages: 1 -->
<!--zoomable 530 -->
<svg id="main" version="1.1" xmlns="http://www.w3.org/2000/svg" xmlns:xlink="http://www.w3.org/1999/xlink" xml:space="preserve" onload="init(evt)">
<style type="text/css"><![CDATA[
.edge:hover path { stroke: red; }
.edge:hover polygon { stroke: red; fill: red; }
]]></style>
<script type="text/javascript"><![CDATA[
var edges = document.getElementsByTagName('g');
if (edges && edges.length) {
  for (var i=0;i<edges.length;i++) {
    if (edges[i].id.substr(0,4)=='edge') {
      edges[i].setAttribute('class','edge');
    }
  }
}
]]></script>
        <defs>
                <circle id="rim" cx="0" cy="0" r="7"/>
                <circle id="rim2" cx="0" cy="0" r="3.5"/>
                <g id="zoomPlus">
                        <use xlink:href="#rim" fill="#404040">
                                <set attributeName="fill" to="#808080" begin="zoomplus.mouseover" end="zoomplus.mouseout"/>
                        </use>
                        <path d="M-4,0h8M0,-4v8" fill="none" stroke="white" stroke-width="1.5" pointer-events="none"/>
                </g>
                <g id="zoomMin">
                        <use xlink:href="#rim" fill="#404040">
                                <set attributeName="fill" to="#808080" begin="zoomminus.mouseover" end="zoomminus.mouseout"/>
                        </use>
                        <path d="M-4,0h8" fill="none" stroke="white" stroke-width="1.5" pointer-events="none"/>
                </g>
                <g id="dirArrow">
                        <path fill="none" stroke="white" stroke-width="1.5" d="M0,-3.0v7 M-2.5,-0.5L0,-3.0L2.5,-0.5"/>
                </g>
               <g id="resetDef">
                       <use xlink:href="#rim2" fill="#404040">
                               <set attributeName="fill" to="#808080" begin="reset.mouseover" end="reset.mouseout"/>
                       </use>
               </g>
        </defs>

<script type="text/javascript">
var viewWidth = 3817;
var viewHeight = 530;
var sectionId = 'dynsection-1';
</script>
<script xlink:href="svgpan.js"/>
<svg id="graph" class="graph">
<g id="viewport">
<title>C:/Users/micho/Desktop/mt_engine/mt/d3dx12.h</title>
<!-- Node1 -->
<g id="node1" class="node"><title>Node1</title>
<polygon fill="#bfbfbf" stroke="black" points="2110.5,-491.5 2110.5,-521.5 2233.5,-521.5 2233.5,-491.5 2110.5,-491.5"/>
<text text-anchor="start" x="2118.5" y="-509.5" font-family="Helvetica,sans-Serif" font-size="10.00">C:/Users/micho/Desktop</text>
<text text-anchor="middle" x="2172" y="-498.5" font-family="Helvetica,sans-Serif" font-size="10.00">/mt_engine/mt/d3dx12.h</text>
</g>
<!-- Node2 -->
<g id="node2" class="node"><title>Node2</title>
<g id="a_node2"><a xlink:href="d3d_util_8h.html" target="_top" xlink:title="C:/Users/micho/Desktop\l/mt_engine/mt/d3dUtil.h">
<polygon fill="none" stroke="black" points="2053.5,-357.5 2053.5,-387.5 2176.5,-387.5 2176.5,-357.5 2053.5,-357.5"/>
<text text-anchor="start" x="2061.5" y="-375.5" font-family="Helvetica,sans-Serif" font-size="10.00">C:/Users/micho/Desktop</text>
<text text-anchor="middle" x="2115" y="-364.5" font-family="Helvetica,sans-Serif" font-size="10.00">/mt_engine/mt/d3dUtil.h</text>
</a>
</g>
</g>
<!-- Node1&#45;&gt;Node2 -->
<g id="edge1" class="edge"><title>Node1&#45;&gt;Node2</title>
<path fill="none" stroke="midnightblue" d="M2152.14,-483.296C2145.53,-474.92 2138.67,-464.991 2134,-455 2123.61,-432.755 2118.66,-404.362 2116.49,-387.633"/>
<polygon fill="midnightblue" stroke="midnightblue" points="2149.51,-485.613 2158.58,-491.1 2154.91,-481.159 2149.51,-485.613"/>
</g>
<!-- Node31 -->
<g id="node31" class="node"><title>Node31</title>
<g id="a_node31"><a xlink:href="_d_d_s_texture_loader_8h.html" target="_top" xlink:title="C:/Users/micho/Desktop\l/mt_engine/mt/DDSTextureLoader.h">
<polygon fill="none" stroke="black" points="2143,-424.5 2143,-454.5 2315,-454.5 2315,-424.5 2143,-424.5"/>
<text text-anchor="start" x="2151" y="-442.5" font-family="Helvetica,sans-Serif" font-size="10.00">C:/Users/micho/Desktop</text>
<text text-anchor="middle" x="2229" y="-431.5" font-family="Helvetica,sans-Serif" font-size="10.00">/mt_engine/mt/DDSTextureLoader.h</text>
</a>
</g>
</g>
<!-- Node1&#45;&gt;Node31 -->
<g id="edge43" class="edge"><title>Node1&#45;&gt;Node31</title>
<path fill="none" stroke="midnightblue" d="M2191.09,-483.736C2199.52,-474.119 2209.19,-463.089 2216.66,-454.577"/>
<polygon fill="midnightblue" stroke="midnightblue" points="2188.33,-481.57 2184.37,-491.396 2193.59,-486.185 2188.33,-481.57"/>
</g>
<!-- Node3 -->
<g id="node3" class="node"><title>Node3</title>
<g id="a_node3"><a xlink:href="_camera_8hpp.html" target="_top" xlink:title="C:/Users/micho/Desktop\l/mt_engine/mt/Camera.hpp">
<polygon fill="none" stroke="black" points="1903,-290.5 1903,-320.5 2037,-320.5 2037,-290.5 1903,-290.5"/>
<text text-anchor="start" x="1911" y="-308.5" font-family="Helvetica,sans-Serif" font-size="10.00">C:/Users/micho/Desktop</text>
<text text-anchor="middle" x="1970" y="-297.5" font-family="Helvetica,sans-Serif" font-size="10.00">/mt_engine/mt/Camera.hpp</text>
</a>
</g>
</g>
<!-- Node2&#45;&gt;Node3 -->
<g id="edge2" class="edge"><title>Node2&#45;&gt;Node3</title>
<path fill="none" stroke="midnightblue" d="M2074.33,-353.269C2051.24,-342.916 2022.76,-330.153 2001.4,-320.577"/>
<polygon fill="midnightblue" stroke="midnightblue" points="2072.98,-356.499 2083.54,-357.396 2075.84,-350.112 2072.98,-356.499"/>
</g>
<!-- Node5 -->
<g id="node5" class="node"><title>Node5</title>
<g id="a_node5"><a xlink:href="_direct_x_renderer_8hpp.html" target="_top" xlink:title="C:/Users/micho/Desktop\l/mt_engine/mt/DirectXRenderer.hpp">
<polygon fill="none" stroke="black" points="1980,-223.5 1980,-253.5 2150,-253.5 2150,-223.5 1980,-223.5"/>
<text text-anchor="start" x="1988" y="-241.5" font-family="Helvetica,sans-Serif" font-size="10.00">C:/Users/micho/Desktop</text>
<text text-anchor="middle" x="2065" y="-230.5" font-family="Helvetica,sans-Serif" font-size="10.00">/mt_engine/mt/DirectXRenderer.hpp</text>
</a>
</g>
</g>
<!-- Node2&#45;&gt;Node5 -->
<g id="edge38" class="edge"><title>Node2&#45;&gt;Node5</title>
<path fill="none" stroke="midnightblue" d="M2098.83,-348.666C2093.48,-340.279 2087.9,-330.504 2084,-321 2074.72,-298.423 2069.44,-270.379 2066.9,-253.767"/>
<polygon fill="midnightblue" stroke="midnightblue" points="2096.01,-350.747 2104.46,-357.145 2101.84,-346.877 2096.01,-350.747"/>
</g>
<!-- Node29 -->
<g id="node29" class="node"><title>Node29</title>
<g id="a_node29"><a xlink:href="_upload_buffer_8h.html" target="_top" xlink:title="C:/Users/micho/Desktop\l/mt_engine/mt/UploadBuffer.h">
<polygon fill="none" stroke="black" points="2093.5,-290.5 2093.5,-320.5 2238.5,-320.5 2238.5,-290.5 2093.5,-290.5"/>
<text text-anchor="start" x="2101.5" y="-308.5" font-family="Helvetica,sans-Serif" font-size="10.00">C:/Users/micho/Desktop</text>
<text text-anchor="middle" x="2166" y="-297.5" font-family="Helvetica,sans-Serif" font-size="10.00">/mt_engine/mt/UploadBuffer.h</text>
</a>
</g>
</g>
<!-- Node2&#45;&gt;Node29 -->
<g id="edge39" class="edge"><title>Node2&#45;&gt;Node29</title>
<path fill="none" stroke="midnightblue" d="M2132.3,-349.447C2139.79,-339.899 2148.34,-329.004 2154.96,-320.577"/>
<polygon fill="midnightblue" stroke="midnightblue" points="2129.49,-347.368 2126.07,-357.396 2134.99,-351.689 2129.49,-347.368"/>
</g>
<!-- Node30 -->
<g id="node30" class="node"><title>Node30</title>
<g id="a_node30"><a xlink:href="d3d_util_8cpp.html" target="_top" xlink:title="C:/Users/micho/Desktop\l/mt_engine/mt/d3dUtil.cpp">
<polygon fill="none" stroke="black" points="2256.5,-290.5 2256.5,-320.5 2387.5,-320.5 2387.5,-290.5 2256.5,-290.5"/>
<text text-anchor="start" x="2264.5" y="-308.5" font-family="Helvetica,sans-Serif" font-size="10.00">C:/Users/micho/Desktop</text>
<text text-anchor="middle" x="2322" y="-297.5" font-family="Helvetica,sans-Serif" font-size="10.00">/mt_engine/mt/d3dUtil.cpp</text>
</a>
</g>
</g>
<!-- Node2&#45;&gt;Node30 -->
<g id="edge42" class="edge"><title>Node2&#45;&gt;Node30</title>
<path fill="none" stroke="midnightblue" d="M2169.32,-354.444C2202.87,-343.908 2245.41,-330.549 2277.06,-320.611"/>
<polygon fill="midnightblue" stroke="midnightblue" points="2168.15,-351.141 2159.66,-357.476 2170.25,-357.819 2168.15,-351.141"/>
</g>
<!-- Node4 -->
<g id="node4" class="node"><title>Node4</title>
<g id="a_node4"><a xlink:href="_camera_8cpp.html" target="_top" xlink:title="C:/Users/micho/Desktop\l/mt_engine/mt/Camera.cpp">
<polygon fill="none" stroke="black" points="0,-84 0,-114 134,-114 134,-84 0,-84"/>
<text text-anchor="start" x="8" y="-102" font-family="Helvetica,sans-Serif" font-size="10.00">C:/Users/micho/Desktop</text>
<text text-anchor="middle" x="67" y="-91" font-family="Helvetica,sans-Serif" font-size="10.00">/mt_engine/mt/Camera.cpp</text>
</a>
</g>
</g>
<!-- Node3&#45;&gt;Node4 -->
<g id="edge3" class="edge"><title>Node3&#45;&gt;Node4</title>
<path fill="none" stroke="midnightblue" d="M1892.5,-301.023C1639.28,-288.741 814.052,-241.407 143,-120 134.139,-118.397 124.795,-116.291 115.807,-114.048"/>
<polygon fill="midnightblue" stroke="midnightblue" points="1892.54,-304.529 1902.7,-301.514 1892.88,-297.537 1892.54,-304.529"/>
</g>
<!-- Node3&#45;&gt;Node5 -->
<g id="edge4" class="edge"><title>Node3&#45;&gt;Node5</title>
<path fill="none" stroke="midnightblue" d="M1998.89,-284.734C2013.59,-274.676 2031.11,-262.685 2044.43,-253.577"/>
<polygon fill="midnightblue" stroke="midnightblue" points="1996.89,-281.861 1990.61,-290.396 2000.84,-287.638 1996.89,-281.861"/>
</g>
<!-- Node6 -->
<g id="node6" class="node"><title>Node6</title>
<g id="a_node6"><a xlink:href="engine_8hpp.html" target="_top" xlink:title="C:/Users/micho/Desktop\l/mt_engine/mt/engine.hpp">
<polygon fill="none" stroke="black" points="1991.5,-156.5 1991.5,-186.5 2120.5,-186.5 2120.5,-156.5 1991.5,-156.5"/>
<text text-anchor="start" x="1999.5" y="-174.5" font-family="Helvetica,sans-Serif" font-size="10.00">C:/Users/micho/Desktop</text>
<text text-anchor="middle" x="2056" y="-163.5" font-family="Helvetica,sans-Serif" font-size="10.00">/mt_engine/mt/engine.hpp</text>
</a>
</g>
</g>
<!-- Node5&#45;&gt;Node6 -->
<g id="edge5" class="edge"><title>Node5&#45;&gt;Node6</title>
<path fill="none" stroke="midnightblue" d="M2061.66,-213.403C2060.41,-204.37 2059.03,-194.408 2057.95,-186.577"/>
<polygon fill="midnightblue" stroke="midnightblue" points="2058.21,-213.971 2063.05,-223.396 2065.14,-213.01 2058.21,-213.971"/>
</g>
<!-- Node8 -->
<g id="node8" class="node"><title>Node8</title>
<g id="a_node8"><a xlink:href="_direct_x_renderer_8cpp.html" target="_top" xlink:title="C:/Users/micho/Desktop\l/mt_engine/mt/DirectXRenderer.cpp">
<polygon fill="none" stroke="black" points="3465,-84 3465,-114 3635,-114 3635,-84 3465,-84"/>
<text text-anchor="start" x="3473" y="-102" font-family="Helvetica,sans-Serif" font-size="10.00">C:/Users/micho/Desktop</text>
<text text-anchor="middle" x="3550" y="-91" font-family="Helvetica,sans-Serif" font-size="10.00">/mt_engine/mt/DirectXRenderer.cpp</text>
</a>
</g>
</g>
<!-- Node5&#45;&gt;Node8 -->
<g id="edge37" class="edge"><title>Node5&#45;&gt;Node8</title>
<path fill="none" stroke="midnightblue" d="M2160.27,-233.574C2386.23,-223.367 2971.97,-191.647 3456,-120 3466.89,-118.388 3478.42,-116.277 3489.52,-114.033"/>
<polygon fill="midnightblue" stroke="midnightblue" points="2159.94,-230.085 2150.11,-234.03 2160.25,-237.078 2159.94,-230.085"/>
</g>
<!-- Node6&#45;&gt;Node4 -->
<g id="edge6" class="edge"><title>Node6&#45;&gt;Node4</title>
<path fill="none" stroke="midnightblue" d="M1980.82,-169.542C1649.36,-165.178 326.881,-146.261 143,-120 133.41,-118.63 123.294,-116.482 113.681,-114.092"/>
<polygon fill="midnightblue" stroke="midnightblue" points="1981.21,-173.047 1991.26,-169.679 1981.31,-166.048 1981.21,-173.047"/>
</g>
<!-- Node7 -->
<g id="node7" class="node"><title>Node7</title>
<g id="a_node7"><a xlink:href="_command_8cpp.html" target="_top" xlink:title="C:/Users/micho/Desktop\l/mt_engine/mt/Command.cpp">
<polygon fill="none" stroke="black" points="2289.5,-84 2289.5,-114 2434.5,-114 2434.5,-84 2289.5,-84"/>
<text text-anchor="start" x="2297.5" y="-102" font-family="Helvetica,sans-Serif" font-size="10.00">C:/Users/micho/Desktop</text>
<text text-anchor="middle" x="2362" y="-91" font-family="Helvetica,sans-Serif" font-size="10.00">/mt_engine/mt/Command.cpp</text>
</a>
</g>
</g>
<!-- Node6&#45;&gt;Node7 -->
<g id="edge7" class="edge"><title>Node6&#45;&gt;Node7</title>
<path fill="none" stroke="midnightblue" d="M2129.77,-154.21C2173.49,-144.471 2229.95,-131.744 2280,-120 2288.13,-118.092 2296.71,-116.042 2305.13,-114.008"/>
<polygon fill="midnightblue" stroke="midnightblue" points="2128.79,-150.841 2119.79,-156.429 2130.31,-157.674 2128.79,-150.841"/>
</g>
<!-- Node6&#45;&gt;Node8 -->
<g id="edge8" class="edge"><title>Node6&#45;&gt;Node8</title>
<path fill="none" stroke="midnightblue" d="M2130.89,-169.514C2382.47,-165.932 3196.05,-152.096 3456,-120 3467.67,-118.559 3480.05,-116.394 3491.85,-114.015"/>
<polygon fill="midnightblue" stroke="midnightblue" points="2130.71,-166.016 2120.76,-169.657 2130.8,-173.015 2130.71,-166.016"/>
</g>
<!-- Node9 -->
<g id="node9" class="node"><title>Node9</title>
<g id="a_node9"><a xlink:href="engine_8cpp.html" target="_top" xlink:title="C:/Users/micho/Desktop\l/mt_engine/mt/engine.cpp">
<polygon fill="none" stroke="black" points="2452.5,-84 2452.5,-114 2581.5,-114 2581.5,-84 2452.5,-84"/>
<text text-anchor="start" x="2460.5" y="-102" font-family="Helvetica,sans-Serif" font-size="10.00">C:/Users/micho/Desktop</text>
<text text-anchor="middle" x="2517" y="-91" font-family="Helvetica,sans-Serif" font-size="10.00">/mt_engine/mt/engine.cpp</text>
</a>
</g>
</g>
<!-- Node6&#45;&gt;Node9 -->
<g id="edge9" class="edge"><title>Node6&#45;&gt;Node9</title>
<path fill="none" stroke="midnightblue" d="M2130.92,-163.845C2209.43,-156.149 2336.13,-141.689 2444,-120 2452.25,-118.342 2460.93,-116.263 2469.32,-114.077"/>
<polygon fill="midnightblue" stroke="midnightblue" points="2130.25,-160.392 2120.64,-164.84 2130.93,-167.36 2130.25,-160.392"/>
</g>
<!-- Node10 -->
<g id="node10" class="node"><title>Node10</title>
<g id="a_node10"><a xlink:href="_game_timer_8cpp.html" target="_top" xlink:title="C:/Users/micho/Desktop\l/mt_engine/mt/GameTimer.cpp">
<polygon fill="none" stroke="black" points="2599.5,-84 2599.5,-114 2750.5,-114 2750.5,-84 2599.5,-84"/>
<text text-anchor="start" x="2607.5" y="-102" font-family="Helvetica,sans-Serif" font-size="10.00">C:/Users/micho/Desktop</text>
<text text-anchor="middle" x="2675" y="-91" font-family="Helvetica,sans-Serif" font-size="10.00">/mt_engine/mt/GameTimer.cpp</text>
</a>
</g>
</g>
<!-- Node6&#45;&gt;Node10 -->
<g id="edge10" class="edge"><title>Node6&#45;&gt;Node10</title>
<path fill="none" stroke="midnightblue" d="M2130.68,-166.75C2234.47,-160.79 2427.99,-146.964 2591,-120 2600.76,-118.385 2611.07,-116.274 2621,-114.029"/>
<polygon fill="midnightblue" stroke="midnightblue" points="2130.4,-163.26 2120.61,-167.32 2130.79,-170.249 2130.4,-163.26"/>
</g>
<!-- Node11 -->
<g id="node11" class="node"><title>Node11</title>
<g id="a_node11"><a xlink:href="_input_handler_8cpp.html" target="_top" xlink:title="C:/Users/micho/Desktop\l/mt_engine/mt/InputHandler.cpp">
<polygon fill="none" stroke="black" points="3653.5,-84 3653.5,-114 3808.5,-114 3808.5,-84 3653.5,-84"/>
<text text-anchor="start" x="3661.5" y="-102" font-family="Helvetica,sans-Serif" font-size="10.00">C:/Users/micho/Desktop</text>
<text text-anchor="middle" x="3731" y="-91" font-family="Helvetica,sans-Serif" font-size="10.00">/mt_engine/mt/InputHandler.cpp</text>
</a>
</g>
</g>
<!-- Node6&#45;&gt;Node11 -->
<g id="edge11" class="edge"><title>Node6&#45;&gt;Node11</title>
<path fill="none" stroke="midnightblue" d="M2131.07,-170.045C2404.38,-168.087 3345.91,-158.631 3644,-120 3654.91,-118.586 3666.46,-116.418 3677.46,-114.023"/>
<polygon fill="midnightblue" stroke="midnightblue" points="2130.84,-166.546 2120.86,-170.117 2130.88,-173.546 2130.84,-166.546"/>
</g>
<!-- Node12 -->
<g id="node12" class="node"><title>Node12</title>
<g id="a_node12"><a xlink:href="_windows_message_handler_8cpp.html" target="_top" xlink:title="C:/Users/micho/Desktop\l/mt_engine/mt/WindowsMessage\lHandler.cpp">
<polygon fill="none" stroke="black" points="2768.5,-78.5 2768.5,-119.5 2929.5,-119.5 2929.5,-78.5 2768.5,-78.5"/>
<text text-anchor="start" x="2776.5" y="-107.5" font-family="Helvetica,sans-Serif" font-size="10.00">C:/Users/micho/Desktop</text>
<text text-anchor="start" x="2776.5" y="-96.5" font-family="Helvetica,sans-Serif" font-size="10.00">/mt_engine/mt/WindowsMessage</text>
<text text-anchor="middle" x="2849" y="-85.5" font-family="Helvetica,sans-Serif" font-size="10.00">Handler.cpp</text>
</a>
</g>
</g>
<!-- Node6&#45;&gt;Node12 -->
<g id="edge12" class="edge"><title>Node6&#45;&gt;Node12</title>
<path fill="none" stroke="midnightblue" d="M2131.07,-168.794C2260.22,-165.039 2532.5,-153.53 2760,-120 2762.66,-119.607 2765.37,-119.179 2768.09,-118.721"/>
<polygon fill="midnightblue" stroke="midnightblue" points="2130.79,-165.3 2120.9,-169.082 2130.99,-172.297 2130.79,-165.3"/>
</g>
<!-- Node13 -->
<g id="node13" class="node"><title>Node13</title>
<g id="a_node13"><a xlink:href="_w_m___l_b_u_t_t_o_n_d_o_w_n___handler_8hpp.html" target="_top" xlink:title="C:/Users/micho/Desktop\l/mt_engine/mt/WM_LBUTTONDOWN\l_Handler.hpp">
<polygon fill="none" stroke="black" points="688.5,-78.5 688.5,-119.5 867.5,-119.5 867.5,-78.5 688.5,-78.5"/>
<text text-anchor="start" x="696.5" y="-107.5" font-family="Helvetica,sans-Serif" font-size="10.00">C:/Users/micho/Desktop</text>
<text text-anchor="start" x="696.5" y="-96.5" font-family="Helvetica,sans-Serif" font-size="10.00">/mt_engine/mt/WM_LBUTTONDOWN</text>
<text text-anchor="middle" x="778" y="-85.5" font-family="Helvetica,sans-Serif" font-size="10.00">_Handler.hpp</text>
</a>
</g>
</g>
<!-- Node6&#45;&gt;Node13 -->
<g id="edge13" class="edge"><title>Node6&#45;&gt;Node13</title>
<path fill="none" stroke="midnightblue" d="M1981.4,-168.834C1757.28,-163.587 1092.19,-146.182 877,-120 873.954,-119.629 870.862,-119.216 867.744,-118.767"/>
<polygon fill="midnightblue" stroke="midnightblue" points="1981.33,-172.333 1991.41,-169.067 1981.5,-165.335 1981.33,-172.333"/>
</g>
<!-- Node15 -->
<g id="node15" class="node"><title>Node15</title>
<g id="a_node15"><a xlink:href="_w_m___l_b_u_t_t_o_n_u_p___handler_8hpp.html" target="_top" xlink:title="C:/Users/micho/Desktop\l/mt_engine/mt/WM_LBUTTONUP\l_Handler.hpp">
<polygon fill="none" stroke="black" points="886,-78.5 886,-119.5 1048,-119.5 1048,-78.5 886,-78.5"/>
<text text-anchor="start" x="894" y="-107.5" font-family="Helvetica,sans-Serif" font-size="10.00">C:/Users/micho/Desktop</text>
<text text-anchor="start" x="894" y="-96.5" font-family="Helvetica,sans-Serif" font-size="10.00">/mt_engine/mt/WM_LBUTTONUP</text>
<text text-anchor="middle" x="967" y="-85.5" font-family="Helvetica,sans-Serif" font-size="10.00">_Handler.hpp</text>
</a>
</g>
</g>
<!-- Node6&#45;&gt;Node15 -->
<g id="edge15" class="edge"><title>Node6&#45;&gt;Node15</title>
<path fill="none" stroke="midnightblue" d="M1981.23,-171C1814.52,-171.18 1400.02,-166.447 1057,-120 1054.14,-119.613 1051.25,-119.182 1048.32,-118.715"/>
<polygon fill="midnightblue" stroke="midnightblue" points="1981.38,-174.5 1991.37,-170.982 1981.37,-167.5 1981.38,-174.5"/>
</g>
<!-- Node16 -->
<g id="node16" class="node"><title>Node16</title>
<g id="a_node16"><a xlink:href="_w_m___m_b_u_t_t_o_n_d_o_w_n___handler_8hpp.html" target="_top" xlink:title="C:/Users/micho/Desktop\l/mt_engine/mt/WM_MBUTTONDOWN\l_Handler.hpp">
<polygon fill="none" stroke="black" points="1066,-78.5 1066,-119.5 1248,-119.5 1248,-78.5 1066,-78.5"/>
<text text-anchor="start" x="1074" y="-107.5" font-family="Helvetica,sans-Serif" font-size="10.00">C:/Users/micho/Desktop</text>
<text text-anchor="start" x="1074" y="-96.5" font-family="Helvetica,sans-Serif" font-size="10.00">/mt_engine/mt/WM_MBUTTONDOWN</text>
<text text-anchor="middle" x="1157" y="-85.5" font-family="Helvetica,sans-Serif" font-size="10.00">_Handler.hpp</text>
</a>
</g>
</g>
<!-- Node6&#45;&gt;Node16 -->
<g id="edge17" class="edge"><title>Node6&#45;&gt;Node16</title>
<path fill="none" stroke="midnightblue" d="M1980.92,-169.112C1838.97,-165.746 1521.7,-154.675 1257,-120 1254.1,-119.621 1251.16,-119.207 1248.2,-118.765"/>
<polygon fill="midnightblue" stroke="midnightblue" points="1981.17,-172.619 1991.25,-169.351 1981.33,-165.621 1981.17,-172.619"/>
</g>
<!-- Node17 -->
<g id="node17" class="node"><title>Node17</title>
<g id="a_node17"><a xlink:href="_w_m___m_b_u_t_t_o_n_u_p___handler_8hpp.html" target="_top" xlink:title="C:/Users/micho/Desktop\l/mt_engine/mt/WM_MBUTTONUP\l_Handler.hpp">
<polygon fill="none" stroke="black" points="2947.5,-78.5 2947.5,-119.5 3112.5,-119.5 3112.5,-78.5 2947.5,-78.5"/>
<text text-anchor="start" x="2955.5" y="-107.5" font-family="Helvetica,sans-Serif" font-size="10.00">C:/Users/micho/Desktop</text>
<text text-anchor="start" x="2955.5" y="-96.5" font-family="Helvetica,sans-Serif" font-size="10.00">/mt_engine/mt/WM_MBUTTONUP</text>
<text text-anchor="middle" x="3030" y="-85.5" font-family="Helvetica,sans-Serif" font-size="10.00">_Handler.hpp</text>
</a>
</g>
</g>
<!-- Node6&#45;&gt;Node17 -->
<g id="edge19" class="edge"><title>Node6&#45;&gt;Node17</title>
<path fill="none" stroke="midnightblue" d="M2130.79,-170.228C2283.45,-168.792 2641.6,-160.92 2939,-120 2941.72,-119.625 2944.49,-119.212 2947.27,-118.767"/>
<polygon fill="midnightblue" stroke="midnightblue" points="2130.57,-166.73 2120.6,-170.317 2130.63,-173.729 2130.57,-166.73"/>
</g>
<!-- Node18 -->
<g id="node18" class="node"><title>Node18</title>
<g id="a_node18"><a xlink:href="_w_m___m_o_u_s_e_m_o_v_e___handler_8hpp.html" target="_top" xlink:title="C:/Users/micho/Desktop\l/mt_engine/mt/WM_MOUSEMOVE\l_Handler.hpp">
<polygon fill="none" stroke="black" points="3131,-78.5 3131,-119.5 3301,-119.5 3301,-78.5 3131,-78.5"/>
<text text-anchor="start" x="3139" y="-107.5" font-family="Helvetica,sans-Serif" font-size="10.00">C:/Users/micho/Desktop</text>
<text text-anchor="start" x="3139" y="-96.5" font-family="Helvetica,sans-Serif" font-size="10.00">/mt_engine/mt/WM_MOUSEMOVE</text>
<text text-anchor="middle" x="3216" y="-85.5" font-family="Helvetica,sans-Serif" font-size="10.00">_Handler.hpp</text>
</a>
</g>
</g>
<!-- Node6&#45;&gt;Node18 -->
<g id="edge21" class="edge"><title>Node6&#45;&gt;Node18</title>
<path fill="none" stroke="midnightblue" d="M2130.7,-171.115C2305.07,-171.645 2752.22,-167.776 3122,-120 3124.9,-119.626 3127.83,-119.209 3130.8,-118.758"/>
<polygon fill="midnightblue" stroke="midnightblue" points="2130.62,-167.614 2120.61,-171.078 2130.59,-174.614 2130.62,-167.614"/>
</g>
<!-- Node19 -->
<g id="node19" class="node"><title>Node19</title>
<g id="a_node19"><a xlink:href="_w_m___q_u_i_t___handler_8hpp.html" target="_top" xlink:title="C:/Users/micho/Desktop\l/mt_engine/mt/WM_QUIT\l_Handler.hpp">
<polygon fill="none" stroke="black" points="3319.5,-78.5 3319.5,-119.5 3446.5,-119.5 3446.5,-78.5 3319.5,-78.5"/>
<text text-anchor="start" x="3327.5" y="-107.5" font-family="Helvetica,sans-Serif" font-size="10.00">C:/Users/micho/Desktop</text>
<text text-anchor="start" x="3327.5" y="-96.5" font-family="Helvetica,sans-Serif" font-size="10.00">/mt_engine/mt/WM_QUIT</text>
<text text-anchor="middle" x="3383" y="-85.5" font-family="Helvetica,sans-Serif" font-size="10.00">_Handler.hpp</text>
</a>
</g>
</g>
<!-- Node6&#45;&gt;Node19 -->
<g id="edge23" class="edge"><title>Node6&#45;&gt;Node19</title>
<path fill="none" stroke="midnightblue" d="M2130.98,-169.712C2365.13,-166.9 3080.74,-155.548 3310,-120 3313.12,-119.517 3316.29,-118.948 3319.48,-118.315"/>
<polygon fill="midnightblue" stroke="midnightblue" points="2130.82,-166.214 2120.86,-169.832 2130.9,-173.213 2130.82,-166.214"/>
</g>
<!-- Node20 -->
<g id="node20" class="node"><title>Node20</title>
<g id="a_node20"><a xlink:href="_w_m___r_b_u_t_t_o_n_d_o_w_n___handler_8hpp.html" target="_top" xlink:title="C:/Users/micho/Desktop\l/mt_engine/mt/WM_RBUTTONDOWN\l_Handler.hpp">
<polygon fill="none" stroke="black" points="152.5,-78.5 152.5,-119.5 333.5,-119.5 333.5,-78.5 152.5,-78.5"/>
<text text-anchor="start" x="160.5" y="-107.5" font-family="Helvetica,sans-Serif" font-size="10.00">C:/Users/micho/Desktop</text>
<text text-anchor="start" x="160.5" y="-96.5" font-family="Helvetica,sans-Serif" font-size="10.00">/mt_engine/mt/WM_RBUTTONDOWN</text>
<text text-anchor="middle" x="243" y="-85.5" font-family="Helvetica,sans-Serif" font-size="10.00">_Handler.hpp</text>
</a>
</g>
</g>
<!-- Node6&#45;&gt;Node20 -->
<g id="edge25" class="edge"><title>Node6&#45;&gt;Node20</title>
<path fill="none" stroke="midnightblue" d="M1980.91,-169.964C1694.06,-167.657 667.307,-156.946 343,-120 339.922,-119.649 336.797,-119.253 333.646,-118.819"/>
<polygon fill="midnightblue" stroke="midnightblue" points="1981.17,-173.466 1991.2,-170.046 1981.23,-166.467 1981.17,-173.466"/>
</g>
<!-- Node21 -->
<g id="node21" class="node"><title>Node21</title>
<g id="a_node21"><a xlink:href="_w_m___r_b_u_t_t_o_n_u_p___handler_8hpp.html" target="_top" xlink:title="C:/Users/micho/Desktop\l/mt_engine/mt/WM_RBUTTONUP\l_Handler.hpp">
<polygon fill="none" stroke="black" points="352,-78.5 352,-119.5 516,-119.5 516,-78.5 352,-78.5"/>
<text text-anchor="start" x="360" y="-107.5" font-family="Helvetica,sans-Serif" font-size="10.00">C:/Users/micho/Desktop</text>
<text text-anchor="start" x="360" y="-96.5" font-family="Helvetica,sans-Serif" font-size="10.00">/mt_engine/mt/WM_RBUTTONUP</text>
<text text-anchor="middle" x="434" y="-85.5" font-family="Helvetica,sans-Serif" font-size="10.00">_Handler.hpp</text>
</a>
</g>
</g>
<!-- Node6&#45;&gt;Node21 -->
<g id="edge27" class="edge"><title>Node6&#45;&gt;Node21</title>
<path fill="none" stroke="midnightblue" d="M1980.99,-169.847C1714.14,-167.24 811.603,-155.913 525,-120 522.111,-119.638 519.178,-119.228 516.222,-118.779"/>
<polygon fill="midnightblue" stroke="midnightblue" points="1981.31,-173.35 1991.34,-169.947 1981.37,-166.35 1981.31,-173.35"/>
</g>
<!-- Node22 -->
<g id="node22" class="node"><title>Node22</title>
<g id="a_node22"><a xlink:href="_w_m___s_i_z_i_n_g___handler_8hpp.html" target="_top" xlink:title="C:/Users/micho/Desktop\l/mt_engine/mt/WM_SIZING\l_Handler.hpp">
<polygon fill="none" stroke="black" points="534,-78.5 534,-119.5 670,-119.5 670,-78.5 534,-78.5"/>
<text text-anchor="start" x="542" y="-107.5" font-family="Helvetica,sans-Serif" font-size="10.00">C:/Users/micho/Desktop</text>
<text text-anchor="start" x="542" y="-96.5" font-family="Helvetica,sans-Serif" font-size="10.00">/mt_engine/mt/WM_SIZING</text>
<text text-anchor="middle" x="602" y="-85.5" font-family="Helvetica,sans-Serif" font-size="10.00">_Handler.hpp</text>
</a>
</g>
</g>
<!-- Node6&#45;&gt;Node22 -->
<g id="edge29" class="edge"><title>Node6&#45;&gt;Node22</title>
<path fill="none" stroke="midnightblue" d="M1981.43,-169.901C1732.81,-167.567 933.621,-157.283 679,-120 676.13,-119.58 673.213,-119.094 670.276,-118.556"/>
<polygon fill="midnightblue" stroke="midnightblue" points="1981.42,-173.401 1991.45,-169.993 1981.48,-166.401 1981.42,-173.401"/>
</g>
<!-- Node23 -->
<g id="node23" class="node"><title>Node23</title>
<g id="a_node23"><a xlink:href="_w_m___a_c_t_i_v_a_t_e___handler_8cpp.html" target="_top" xlink:title="C:/Users/micho/Desktop\l/mt_engine/mt/WM_ACTIVATE\l_Handler.cpp">
<polygon fill="none" stroke="black" points="1266,-78.5 1266,-119.5 1418,-119.5 1418,-78.5 1266,-78.5"/>
<text text-anchor="start" x="1274" y="-107.5" font-family="Helvetica,sans-Serif" font-size="10.00">C:/Users/micho/Desktop</text>
<text text-anchor="start" x="1274" y="-96.5" font-family="Helvetica,sans-Serif" font-size="10.00">/mt_engine/mt/WM_ACTIVATE</text>
<text text-anchor="middle" x="1342" y="-85.5" font-family="Helvetica,sans-Serif" font-size="10.00">_Handler.cpp</text>
</a>
</g>
</g>
<!-- Node6&#45;&gt;Node23 -->
<g id="edge31" class="edge"><title>Node6&#45;&gt;Node23</title>
<path fill="none" stroke="midnightblue" d="M1981.3,-168.15C1863.05,-163.613 1625.76,-151.18 1427,-120 1424.15,-119.554 1421.26,-119.063 1418.35,-118.538"/>
<polygon fill="midnightblue" stroke="midnightblue" points="1981.21,-171.649 1991.33,-168.527 1981.47,-164.654 1981.21,-171.649"/>
</g>
<!-- Node24 -->
<g id="node24" class="node"><title>Node24</title>
<g id="a_node24"><a xlink:href="_w_m___e_n_t_e_r_s_i_z_e_m_o_v_e___handler_8cpp.html" target="_top" xlink:title="C:/Users/micho/Desktop\l/mt_engine/mt/WM_ENTERSIZEMOVE\l_Handler.cpp">
<polygon fill="none" stroke="black" points="1436,-78.5 1436,-119.5 1624,-119.5 1624,-78.5 1436,-78.5"/>
<text text-anchor="start" x="1444" y="-107.5" font-family="Helvetica,sans-Serif" font-size="10.00">C:/Users/micho/Desktop</text>
<text text-anchor="start" x="1444" y="-96.5" font-family="Helvetica,sans-Serif" font-size="10.00">/mt_engine/mt/WM_ENTERSIZEMOVE</text>
<text text-anchor="middle" x="1530" y="-85.5" font-family="Helvetica,sans-Serif" font-size="10.00">_Handler.cpp</text>
</a>
</g>
</g>
<!-- Node6&#45;&gt;Node24 -->
<g id="edge32" class="edge"><title>Node6&#45;&gt;Node24</title>
<path fill="none" stroke="midnightblue" d="M1981.26,-163.243C1896.56,-154.632 1754.47,-139.018 1633,-120 1630.12,-119.549 1627.2,-119.077 1624.25,-118.587"/>
<polygon fill="midnightblue" stroke="midnightblue" points="1981,-166.734 1991.3,-164.258 1981.7,-159.77 1981,-166.734"/>
</g>
<!-- Node25 -->
<g id="node25" class="node"><title>Node25</title>
<g id="a_node25"><a xlink:href="_w_m___e_x_i_t_s_i_z_e_m_o_v_e___handler_8cpp.html" target="_top" xlink:title="C:/Users/micho/Desktop\l/mt_engine/mt/WM_EXITSIZEMOVE\l_Handler.cpp">
<polygon fill="none" stroke="black" points="1642.5,-78.5 1642.5,-119.5 1817.5,-119.5 1817.5,-78.5 1642.5,-78.5"/>
<text text-anchor="start" x="1650.5" y="-107.5" font-family="Helvetica,sans-Serif" font-size="10.00">C:/Users/micho/Desktop</text>
<text text-anchor="start" x="1650.5" y="-96.5" font-family="Helvetica,sans-Serif" font-size="10.00">/mt_engine/mt/WM_EXITSIZEMOVE</text>
<text text-anchor="middle" x="1730" y="-85.5" font-family="Helvetica,sans-Serif" font-size="10.00">_Handler.cpp</text>
</a>
</g>
</g>
<!-- Node6&#45;&gt;Node25 -->
<g id="edge33" class="edge"><title>Node6&#45;&gt;Node25</title>
<path fill="none" stroke="midnightblue" d="M1981.35,-154.356C1932.57,-143.808 1868.68,-129.991 1817.52,-118.927"/>
<polygon fill="midnightblue" stroke="midnightblue" points="1980.69,-157.794 1991.2,-156.487 1982.17,-150.952 1980.69,-157.794"/>
</g>
<!-- Node26 -->
<g id="node26" class="node"><title>Node26</title>
<g id="a_node26"><a xlink:href="_w_m___k_e_y_u_p___handler_8cpp.html" target="_top" xlink:title="C:/Users/micho/Desktop\l/mt_engine/mt/WM_KEYUP\l_Handler.cpp">
<polygon fill="none" stroke="black" points="1835.5,-78.5 1835.5,-119.5 1974.5,-119.5 1974.5,-78.5 1835.5,-78.5"/>
<text text-anchor="start" x="1843.5" y="-107.5" font-family="Helvetica,sans-Serif" font-size="10.00">C:/Users/micho/Desktop</text>
<text text-anchor="start" x="1843.5" y="-96.5" font-family="Helvetica,sans-Serif" font-size="10.00">/mt_engine/mt/WM_KEYUP</text>
<text text-anchor="middle" x="1905" y="-85.5" font-family="Helvetica,sans-Serif" font-size="10.00">_Handler.cpp</text>
</a>
</g>
</g>
<!-- Node6&#45;&gt;Node26 -->
<g id="edge34" class="edge"><title>Node6&#45;&gt;Node26</title>
<path fill="none" stroke="midnightblue" d="M2016.65,-152.13C1995.22,-142.12 1968.68,-129.734 1946.87,-119.546"/>
<polygon fill="midnightblue" stroke="midnightblue" points="2015.26,-155.344 2025.81,-156.403 2018.23,-149.001 2015.26,-155.344"/>
</g>
<!-- Node27 -->
<g id="node27" class="node"><title>Node27</title>
<g id="a_node27"><a xlink:href="_w_m___s_i_z_e___handler_8cpp.html" target="_top" xlink:title="C:/Users/micho/Desktop\l/mt_engine/mt/WM_SIZE\l_Handler.cpp">
<polygon fill="none" stroke="black" points="1993,-78.5 1993,-119.5 2119,-119.5 2119,-78.5 1993,-78.5"/>
<text text-anchor="start" x="2001" y="-107.5" font-family="Helvetica,sans-Serif" font-size="10.00">C:/Users/micho/Desktop</text>
<text text-anchor="start" x="2001" y="-96.5" font-family="Helvetica,sans-Serif" font-size="10.00">/mt_engine/mt/WM_SIZE</text>
<text text-anchor="middle" x="2056" y="-85.5" font-family="Helvetica,sans-Serif" font-size="10.00">_Handler.cpp</text>
</a>
</g>
</g>
<!-- Node6&#45;&gt;Node27 -->
<g id="edge35" class="edge"><title>Node6&#45;&gt;Node27</title>
<path fill="none" stroke="midnightblue" d="M2056,-145.982C2056,-137.347 2056,-127.762 2056,-119.588"/>
<polygon fill="midnightblue" stroke="midnightblue" points="2052.5,-146.233 2056,-156.233 2059.5,-146.233 2052.5,-146.233"/>
</g>
<!-- Node28 -->
<g id="node28" class="node"><title>Node28</title>
<g id="a_node28"><a xlink:href="_w_m___t_i_m_e_r___handler_8cpp.html" target="_top" xlink:title="C:/Users/micho/Desktop\l/mt_engine/mt/WM_TIMER\l_Handler.cpp">
<polygon fill="none" stroke="black" points="2137,-78.5 2137,-119.5 2271,-119.5 2271,-78.5 2137,-78.5"/>
<text text-anchor="start" x="2145" y="-107.5" font-family="Helvetica,sans-Serif" font-size="10.00">C:/Users/micho/Desktop</text>
<text text-anchor="start" x="2145" y="-96.5" font-family="Helvetica,sans-Serif" font-size="10.00">/mt_engine/mt/WM_TIMER</text>
<text text-anchor="middle" x="2204" y="-85.5" font-family="Helvetica,sans-Serif" font-size="10.00">_Handler.cpp</text>
</a>
</g>
</g>
<!-- Node6&#45;&gt;Node28 -->
<g id="edge36" class="edge"><title>Node6&#45;&gt;Node28</title>
<path fill="none" stroke="midnightblue" d="M2094.85,-151.995C2115.81,-142.009 2141.68,-129.688 2162.97,-119.546"/>
<polygon fill="midnightblue" stroke="midnightblue" points="2093.12,-148.942 2085.59,-156.403 2096.13,-155.262 2093.12,-148.942"/>
</g>
<!-- Node14 -->
<g id="node14" class="node"><title>Node14</title>
<g id="a_node14"><a xlink:href="_windows_message_handling_service_8cpp.html" target="_top" xlink:title="C:/Users/micho/Desktop\l/mt_engine/mt/WindowsMessage\lHandlingService.cpp">
<polygon fill="none" stroke="black" points="886.5,-0.5 886.5,-41.5 1047.5,-41.5 1047.5,-0.5 886.5,-0.5"/>
<text text-anchor="start" x="894.5" y="-29.5" font-family="Helvetica,sans-Serif" font-size="10.00">C:/Users/micho/Desktop</text>
<text text-anchor="start" x="894.5" y="-18.5" font-family="Helvetica,sans-Serif" font-size="10.00">/mt_engine/mt/WindowsMessage</text>
<text text-anchor="middle" x="967" y="-7.5" font-family="Helvetica,sans-Serif" font-size="10.00">HandlingService.cpp</text>
</a>
</g>
</g>
<!-- Node13&#45;&gt;Node14 -->
<g id="edge14" class="edge"><title>Node13&#45;&gt;Node14</title>
<path fill="none" stroke="midnightblue" d="M836.171,-74.6086C862.551,-64.0008 893.386,-51.6015 918.493,-41.5056"/>
<polygon fill="midnightblue" stroke="midnightblue" points="834.644,-71.4499 826.672,-78.4281 837.256,-77.9445 834.644,-71.4499"/>
</g>
<!-- Node15&#45;&gt;Node14 -->
<g id="edge16" class="edge"><title>Node15&#45;&gt;Node14</title>
<path fill="none" stroke="midnightblue" d="M967,-68.2965C967,-59.3009 967,-49.6532 967,-41.5056"/>
<polygon fill="midnightblue" stroke="midnightblue" points="963.5,-68.4281 967,-78.4281 970.5,-68.4281 963.5,-68.4281"/>
</g>
<!-- Node16&#45;&gt;Node14 -->
<g id="edge18" class="edge"><title>Node16&#45;&gt;Node14</title>
<path fill="none" stroke="midnightblue" d="M1098.52,-74.6086C1072,-64.0008 1041,-51.6015 1015.76,-41.5056"/>
<polygon fill="midnightblue" stroke="midnightblue" points="1097.49,-77.9638 1108.07,-78.4281 1100.09,-71.4645 1097.49,-77.9638"/>
</g>
<!-- Node17&#45;&gt;Node14 -->
<g id="edge20" class="edge"><title>Node17&#45;&gt;Node14</title>
<path fill="none" stroke="midnightblue" d="M2937.28,-77.9272C2543.44,-31.7175 1366.6,-23.641 1047.53,-22.2683"/>
<polygon fill="midnightblue" stroke="midnightblue" points="2936.94,-81.4116 2947.29,-79.1305 2937.78,-74.4616 2936.94,-81.4116"/>
</g>
<!-- Node18&#45;&gt;Node14 -->
<g id="edge22" class="edge"><title>Node18&#45;&gt;Node14</title>
<path fill="none" stroke="midnightblue" d="M3120.76,-77.996C2688.3,-29.0064 1385.46,-22.8935 1047.67,-22.1138"/>
<polygon fill="midnightblue" stroke="midnightblue" points="3120.47,-81.4865 3130.81,-79.1612 3121.28,-74.533 3120.47,-81.4865"/>
</g>
<!-- Node19&#45;&gt;Node14 -->
<g id="edge24" class="edge"><title>Node19&#45;&gt;Node14</title>
<path fill="none" stroke="midnightblue" d="M3309.4,-78.2482C3039.46,-44.1868 1428.31,-26.5156 1047.57,-22.7617"/>
<polygon fill="midnightblue" stroke="midnightblue" points="3309.11,-81.7415 3319.49,-79.6222 3310.06,-74.8054 3309.11,-81.7415"/>
</g>
<!-- Node20&#45;&gt;Node14 -->
<g id="edge26" class="edge"><title>Node20&#45;&gt;Node14</title>
<path fill="none" stroke="midnightblue" d="M343.827,-77.9651C544.653,-49.4328 769.166,-33.5311 886.397,-26.4457"/>
<polygon fill="midnightblue" stroke="midnightblue" points="343.079,-74.5365 333.677,-79.4209 344.073,-81.4656 343.079,-74.5365"/>
</g>
<!-- Node21&#45;&gt;Node14 -->
<g id="edge28" class="edge"><title>Node21&#45;&gt;Node14</title>
<path fill="none" stroke="midnightblue" d="M526.132,-77.8753C657.714,-55.4684 799.747,-39.1036 886.424,-29.9985"/>
<polygon fill="midnightblue" stroke="midnightblue" points="525.537,-74.4261 516.274,-79.5688 526.722,-81.325 525.537,-74.4261"/>
</g>
<!-- Node22&#45;&gt;Node14 -->
<g id="edge30" class="edge"><title>Node22&#45;&gt;Node14</title>
<path fill="none" stroke="midnightblue" d="M680.478,-77.7223C755.483,-60.8892 830.929,-46.4441 886.337,-36.2993"/>
<polygon fill="midnightblue" stroke="midnightblue" points="679.363,-74.386 670.38,-80.0039 680.905,-81.2139 679.363,-74.386"/>
</g>
<!-- Node29&#45;&gt;Node5 -->
<g id="edge40" class="edge"><title>Node29&#45;&gt;Node5</title>
<path fill="none" stroke="midnightblue" d="M2135.29,-284.734C2119.66,-274.676 2101.03,-262.685 2086.87,-253.577"/>
<polygon fill="midnightblue" stroke="midnightblue" points="2133.78,-287.927 2144.08,-290.396 2137.57,-282.041 2133.78,-287.927"/>
</g>
<!-- Node29&#45;&gt;Node11 -->
<g id="edge41" class="edge"><title>Node29&#45;&gt;Node11</title>
<path fill="none" stroke="midnightblue" d="M2248.88,-289.758C2867.29,-197.406 3031.23,-227.412 3644,-120 3653.62,-118.314 3663.77,-116.247 3673.61,-114.088"/>
<polygon fill="midnightblue" stroke="midnightblue" points="2248.2,-286.322 2238.83,-291.265 2249.23,-293.244 2248.2,-286.322"/>
</g>
<!-- Node31&#45;&gt;Node2 -->
<g id="edge44" class="edge"><title>Node31&#45;&gt;Node2</title>
<path fill="none" stroke="midnightblue" d="M2195.32,-419.296C2177.48,-409.125 2155.96,-396.855 2139.69,-387.577"/>
<polygon fill="midnightblue" stroke="midnightblue" points="2193.84,-422.483 2204.26,-424.396 2197.31,-416.402 2193.84,-422.483"/>
</g>
<!-- Node32 -->
<g id="node32" class="node"><title>Node32</title>
<g id="a_node32"><a xlink:href="_d_d_s_texture_loader_8cpp.html" target="_top" xlink:title="C:/Users/micho/Desktop\l/mt_engine/mt/DDSTextureLoader.cpp">
<polygon fill="none" stroke="black" points="2195,-357.5 2195,-387.5 2377,-387.5 2377,-357.5 2195,-357.5"/>
<text text-anchor="start" x="2203" y="-375.5" font-family="Helvetica,sans-Serif" font-size="10.00">C:/Users/micho/Desktop</text>
<text text-anchor="middle" x="2286" y="-364.5" font-family="Helvetica,sans-Serif" font-size="10.00">/mt_engine/mt/DDSTextureLoader.cpp</text>
</a>
</g>
</g>
<!-- Node31&#45;&gt;Node32 -->
<g id="edge45" class="edge"><title>Node31&#45;&gt;Node32</title>
<path fill="none" stroke="midnightblue" d="M2248.09,-416.736C2256.52,-407.119 2266.19,-396.089 2273.66,-387.577"/>
<polygon fill="midnightblue" stroke="midnightblue" points="2245.33,-414.57 2241.37,-424.396 2250.59,-419.185 2245.33,-414.57"/>
</g>
</g>
</svg>
        <g id="navigator" transform="translate(0 0)" fill="#404254">
                <rect fill="#f2f5e9" fill-opacity="0.5" stroke="#606060" stroke-width=".5" x="0" y="0" width="60" height="60"/>
                <use id="zoomplus" xlink:href="#zoomPlus" x="17" y="9" onmousedown="handleZoom(evt,'in')"/>
                <use id="zoomminus" xlink:href="#zoomMin" x="42" y="9" onmousedown="handleZoom(evt,'out')"/>
                <use id="reset" xlink:href="#resetDef" x="30" y="36" onmousedown="handleReset()"/>
                <g id="arrowUp" xlink:href="#dirArrow" transform="translate(30 24)" onmousedown="handlePan(0,-1)">
                  <use xlink:href="#rim" fill="#404040">
                        <set attributeName="fill" to="#808080" begin="arrowUp.mouseover" end="arrowUp.mouseout"/>
                  </use>
                  <path fill="none" stroke="white" stroke-width="1.5" d="M0,-3.0v7 M-2.5,-0.5L0,-3.0L2.5,-0.5"/>
                </g>
                <g id="arrowRight" xlink:href="#dirArrow" transform="rotate(90) translate(36 -43)" onmousedown="handlePan(1,0)">
                  <use xlink:href="#rim" fill="#404040">
                        <set attributeName="fill" to="#808080" begin="arrowRight.mouseover" end="arrowRight.mouseout"/>
                  </use>
                  <path fill="none" stroke="white" stroke-width="1.5" d="M0,-3.0v7 M-2.5,-0.5L0,-3.0L2.5,-0.5"/>
                </g>
                <g id="arrowDown" xlink:href="#dirArrow" transform="rotate(180) translate(-30 -48)" onmousedown="handlePan(0,1)">
                  <use xlink:href="#rim" fill="#404040">
                        <set attributeName="fill" to="#808080" begin="arrowDown.mouseover" end="arrowDown.mouseout"/>
                  </use>
                  <path fill="none" stroke="white" stroke-width="1.5" d="M0,-3.0v7 M-2.5,-0.5L0,-3.0L2.5,-0.5"/>
                </g>
                <g id="arrowLeft" xlink:href="#dirArrow" transform="rotate(270) translate(-36 17)" onmousedown="handlePan(-1,0)">
                  <use xlink:href="#rim" fill="#404040">
                        <set attributeName="fill" to="#808080" begin="arrowLeft.mouseover" end="arrowLeft.mouseout"/>
                  </use>
                  <path fill="none" stroke="white" stroke-width="1.5" d="M0,-3.0v7 M-2.5,-0.5L0,-3.0L2.5,-0.5"/>
                </g>
        </g>
        <svg viewBox="0 0 15 15" width="100%" height="30px" preserveAspectRatio="xMaxYMin meet">
         <g id="arrow_out" transform="scale(0.3 0.3)">
          <a xlink:href="d3dx12_8h__dep__incl_org.svg" target="_base">
           <rect id="button" ry="5" rx="5" y="6" x="6" height="38" width="38"
                fill="#f2f5e9" fill-opacity="0.5" stroke="#606060" stroke-width="1.0"/>
           <path id="arrow"
             d="M 11.500037,31.436501 C 11.940474,20.09759 22.043105,11.32322 32.158766,21.979434 L 37.068811,17.246167 C 37.068811,17.246167 37.088388,32 37.088388,32 L 22.160133,31.978069 C 22.160133,31.978069 26.997745,27.140456 26.997745,27.140456 C 18.528582,18.264221 13.291696,25.230495 11.500037,31.436501 z"
             style="fill:#404040;"/>
          </a>
         </g>
        </svg>
</svg>
