<?xml version="1.0" encoding="UTF-8" standalone="no"?>
<!DOCTYPE svg PUBLIC "-//W3C//DTD SVG 1.1//EN"
 "http://www.w3.org/Graphics/SVG/1.1/DTD/svg11.dtd">
<!-- Generated by graphviz version 2.38.0 (20140413.2041)
 -->
<!-- Title: C:/Users/micho/Desktop/mt_engine/mt/engine.hpp Pages: 1 -->
<!--zoomable 386 -->
<svg id="main" version="1.1" xmlns="http://www.w3.org/2000/svg" xmlns:xlink="http://www.w3.org/1999/xlink" xml:space="preserve" onload="init(evt)">
<style type="text/css"><![CDATA[
.edge:hover path { stroke: red; }
.edge:hover polygon { stroke: red; fill: red; }
]]></style>
<script type="text/javascript"><![CDATA[
var edges = document.getElementsByTagName('g');
if (edges && edges.length) {
  for (var i=0;i<edges.length;i++) {
    if (edges[i].id.substr(0,4)=='edge') {
      edges[i].setAttribute('class','edge');
    }
  }
}
]]></script>
        <defs>
                <circle id="rim" cx="0" cy="0" r="7"/>
                <circle id="rim2" cx="0" cy="0" r="3.5"/>
                <g id="zoomPlus">
                        <use xlink:href="#rim" fill="#404040">
                                <set attributeName="fill" to="#808080" begin="zoomplus.mouseover" end="zoomplus.mouseout"/>
                        </use>
                        <path d="M-4,0h8M0,-4v8" fill="none" stroke="white" stroke-width="1.5" pointer-events="none"/>
                </g>
                <g id="zoomMin">
                        <use xlink:href="#rim" fill="#404040">
                                <set attributeName="fill" to="#808080" begin="zoomminus.mouseover" end="zoomminus.mouseout"/>
                        </use>
                        <path d="M-4,0h8" fill="none" stroke="white" stroke-width="1.5" pointer-events="none"/>
                </g>
                <g id="dirArrow">
                        <path fill="none" stroke="white" stroke-width="1.5" d="M0,-3.0v7 M-2.5,-0.5L0,-3.0L2.5,-0.5"/>
                </g>
               <g id="resetDef">
                       <use xlink:href="#rim2" fill="#404040">
                               <set attributeName="fill" to="#808080" begin="reset.mouseover" end="reset.mouseout"/>
                       </use>
               </g>
        </defs>

<script type="text/javascript">
var viewWidth = 1960;
var viewHeight = 386;
var sectionId = 'dynsection-0';
</script>
<script xlink:href="svgpan.js"/>
<svg id="graph" class="graph">
<g id="viewport">
<title>C:/Users/micho/Desktop/mt_engine/mt/engine.hpp</title>
<!-- Node1 -->
<g id="node1" class="node"><title>Node1</title>
<polygon fill="#bfbfbf" stroke="black" points="272.5,-347.5 272.5,-377.5 401.5,-377.5 401.5,-347.5 272.5,-347.5"/>
<text text-anchor="start" x="280.5" y="-365.5" font-family="Helvetica,sans-Serif" font-size="10.00">C:/Users/micho/Desktop</text>
<text text-anchor="middle" x="337" y="-354.5" font-family="Helvetica,sans-Serif" font-size="10.00">/mt_engine/mt/engine.hpp</text>
</g>
<!-- Node2 -->
<g id="node2" class="node"><title>Node2</title>
<g id="a_node2"><a xlink:href="_game_timer_8hpp.html" target="_top" xlink:title="../mt/GameTimer.hpp">
<polygon fill="none" stroke="black" points="31.5,-112.5 31.5,-131.5 140.5,-131.5 140.5,-112.5 31.5,-112.5"/>
<text text-anchor="middle" x="86" y="-119.5" font-family="Helvetica,sans-Serif" font-size="10.00">../mt/GameTimer.hpp</text>
</a>
</g>
</g>
<!-- Node1&#45;&gt;Node2 -->
<g id="edge1" class="edge"><title>Node1&#45;&gt;Node2</title>
<path fill="none" stroke="midnightblue" d="M315.256,-347.386C286.479,-328.208 234.858,-292.042 196,-255 156.405,-217.255 117.092,-165.854 97.9747,-139.728"/>
<polygon fill="midnightblue" stroke="midnightblue" points="100.79,-137.648 92.0874,-131.605 95.122,-141.756 100.79,-137.648"/>
</g>
<!-- Node5 -->
<g id="node5" class="node"><title>Node5</title>
<g id="a_node5"><a xlink:href="_direct_x_renderer_8hpp.html" target="_top" xlink:title="../mt/DirectXRenderer.hpp">
<polygon fill="none" stroke="black" points="614,-291.5 614,-310.5 742,-310.5 742,-291.5 614,-291.5"/>
<text text-anchor="middle" x="678" y="-298.5" font-family="Helvetica,sans-Serif" font-size="10.00">../mt/DirectXRenderer.hpp</text>
</a>
</g>
</g>
<!-- Node1&#45;&gt;Node5 -->
<g id="edge4" class="edge"><title>Node1&#45;&gt;Node5</title>
<path fill="none" stroke="midnightblue" d="M401.54,-350.239C464.147,-339.315 558.332,-322.881 618.991,-312.296"/>
<polygon fill="midnightblue" stroke="midnightblue" points="619.92,-315.687 629.169,-310.52 618.716,-308.791 619.92,-315.687"/>
</g>
<!-- Node46 -->
<g id="node46" class="node"><title>Node46</title>
<g id="a_node46"><a xlink:href="_windows_message_handling_service_8hpp.html" target="_top" xlink:title="../mt/WindowsMessageHandling\lService.hpp">
<polygon fill="none" stroke="black" points="205.5,-224.5 205.5,-254.5 362.5,-254.5 362.5,-224.5 205.5,-224.5"/>
<text text-anchor="start" x="213.5" y="-242.5" font-family="Helvetica,sans-Serif" font-size="10.00">../mt/WindowsMessageHandling</text>
<text text-anchor="middle" x="284" y="-231.5" font-family="Helvetica,sans-Serif" font-size="10.00">Service.hpp</text>
</a>
</g>
</g>
<!-- Node1&#45;&gt;Node46 -->
<g id="edge59" class="edge"><title>Node1&#45;&gt;Node46</title>
<path fill="none" stroke="midnightblue" d="M329.684,-347.497C324.525,-337.442 317.571,-323.512 312,-311 305.171,-295.66 298.198,-278.113 292.92,-264.362"/>
<polygon fill="midnightblue" stroke="midnightblue" points="296.067,-262.791 289.244,-254.686 289.523,-265.277 296.067,-262.791"/>
</g>
<!-- Node49 -->
<g id="node49" class="node"><title>Node49</title>
<g id="a_node49"><a xlink:href="_command_queue_8hpp.html" target="_top" xlink:title="../mt/CommandQueue.hpp">
<polygon fill="none" stroke="black" points="321.5,-291.5 321.5,-310.5 452.5,-310.5 452.5,-291.5 321.5,-291.5"/>
<text text-anchor="middle" x="387" y="-298.5" font-family="Helvetica,sans-Serif" font-size="10.00">../mt/CommandQueue.hpp</text>
</a>
</g>
</g>
<!-- Node1&#45;&gt;Node49 -->
<g id="edge64" class="edge"><title>Node1&#45;&gt;Node49</title>
<path fill="none" stroke="midnightblue" d="M348.849,-347.399C356.115,-338.753 365.452,-327.642 373.071,-318.576"/>
<polygon fill="midnightblue" stroke="midnightblue" points="375.971,-320.565 379.725,-310.658 370.612,-316.062 375.971,-320.565"/>
</g>
<!-- Node3 -->
<g id="node3" class="node"><title>Node3</title>
<polygon fill="none" stroke="#bfbfbf" points="0,-56.5 0,-75.5 46,-75.5 46,-56.5 0,-56.5"/>
<text text-anchor="middle" x="23" y="-63.5" font-family="Helvetica,sans-Serif" font-size="10.00">chrono</text>
</g>
<!-- Node2&#45;&gt;Node3 -->
<g id="edge2" class="edge"><title>Node2&#45;&gt;Node3</title>
<path fill="none" stroke="midnightblue" d="M75.878,-112.324C66.4736,-104.263 52.2559,-92.0765 40.931,-82.3695"/>
<polygon fill="midnightblue" stroke="midnightblue" points="43.1766,-79.6844 33.3062,-75.8339 38.621,-84.9993 43.1766,-79.6844"/>
</g>
<!-- Node4 -->
<g id="node4" class="node"><title>Node4</title>
<polygon fill="none" stroke="#bfbfbf" points="64.5,-56.5 64.5,-75.5 107.5,-75.5 107.5,-56.5 64.5,-56.5"/>
<text text-anchor="middle" x="86" y="-63.5" font-family="Helvetica,sans-Serif" font-size="10.00">queue</text>
</g>
<!-- Node2&#45;&gt;Node4 -->
<g id="edge3" class="edge"><title>Node2&#45;&gt;Node4</title>
<path fill="none" stroke="midnightblue" d="M86,-112.083C86,-105.006 86,-94.8611 86,-85.9865"/>
<polygon fill="midnightblue" stroke="midnightblue" points="89.5001,-85.751 86,-75.7511 82.5001,-85.7511 89.5001,-85.751"/>
</g>
<!-- Node6 -->
<g id="node6" class="node"><title>Node6</title>
<g id="a_node6"><a xlink:href="d3d_util_8h.html" target="_top" xlink:title="../mt/d3dUtil.h">
<polygon fill="none" stroke="black" points="1042,-168.5 1042,-187.5 1120,-187.5 1120,-168.5 1042,-168.5"/>
<text text-anchor="middle" x="1081" y="-175.5" font-family="Helvetica,sans-Serif" font-size="10.00">../mt/d3dUtil.h</text>
</a>
</g>
</g>
<!-- Node5&#45;&gt;Node6 -->
<g id="edge5" class="edge"><title>Node5&#45;&gt;Node6</title>
<path fill="none" stroke="midnightblue" d="M742.151,-293.409C793.171,-286.983 865.882,-275.16 927,-255 976.054,-238.819 1029.24,-209.731 1058.51,-192.617"/>
<polygon fill="midnightblue" stroke="midnightblue" points="1060.31,-195.618 1067.13,-187.513 1056.74,-189.594 1060.31,-195.618"/>
</g>
<!-- Node17 -->
<g id="node17" class="node"><title>Node17</title>
<polygon fill="none" stroke="#bfbfbf" points="125.5,-56.5 125.5,-75.5 166.5,-75.5 166.5,-56.5 125.5,-56.5"/>
<text text-anchor="middle" x="146" y="-63.5" font-family="Helvetica,sans-Serif" font-size="10.00">string</text>
</g>
<!-- Node5&#45;&gt;Node17 -->
<g id="edge58" class="edge"><title>Node5&#45;&gt;Node17</title>
<path fill="none" stroke="midnightblue" d="M661.777,-291.357C608.532,-263.193 433.886,-172.405 283,-112 263.464,-104.179 210.508,-87.2248 176.449,-76.5049"/>
<polygon fill="midnightblue" stroke="midnightblue" points="177.132,-73.0512 166.543,-73.3952 175.036,-79.7298 177.132,-73.0512"/>
</g>
<!-- Node44 -->
<g id="node44" class="node"><title>Node44</title>
<g id="a_node44"><a xlink:href="_upload_buffer_8h.html" target="_top" xlink:title="../mt/UploadBuffer.h">
<polygon fill="none" stroke="black" points="815.5,-230 815.5,-249 918.5,-249 918.5,-230 815.5,-230"/>
<text text-anchor="middle" x="867" y="-237" font-family="Helvetica,sans-Serif" font-size="10.00">../mt/UploadBuffer.h</text>
</a>
</g>
</g>
<!-- Node5&#45;&gt;Node44 -->
<g id="edge53" class="edge"><title>Node5&#45;&gt;Node44</title>
<path fill="none" stroke="midnightblue" d="M705.079,-291.475C737.92,-281.136 793.43,-263.661 830.148,-252.102"/>
<polygon fill="midnightblue" stroke="midnightblue" points="831.484,-255.35 839.971,-249.009 829.382,-248.674 831.484,-255.35"/>
</g>
<!-- Node45 -->
<g id="node45" class="node"><title>Node45</title>
<g id="a_node45"><a xlink:href="_camera_8hpp.html" target="_top" xlink:title="../mt/Camera.hpp">
<polygon fill="none" stroke="black" points="632,-230 632,-249 724,-249 724,-230 632,-230"/>
<text text-anchor="middle" x="678" y="-237" font-family="Helvetica,sans-Serif" font-size="10.00">../mt/Camera.hpp</text>
</a>
</g>
</g>
<!-- Node5&#45;&gt;Node45 -->
<g id="edge55" class="edge"><title>Node5&#45;&gt;Node45</title>
<path fill="none" stroke="midnightblue" d="M678,-291.475C678,-283.08 678,-269.981 678,-259.163"/>
<polygon fill="midnightblue" stroke="midnightblue" points="681.5,-259.009 678,-249.009 674.5,-259.009 681.5,-259.009"/>
</g>
<!-- Node7 -->
<g id="node7" class="node"><title>Node7</title>
<g id="a_node7"><a xlink:href="utility_8hpp.html" target="_top" xlink:title="../mt/utility.hpp">
<polygon fill="none" stroke="black" points="461,-112.5 461,-131.5 543,-131.5 543,-112.5 461,-112.5"/>
<text text-anchor="middle" x="502" y="-119.5" font-family="Helvetica,sans-Serif" font-size="10.00">../mt/utility.hpp</text>
</a>
</g>
</g>
<!-- Node6&#45;&gt;Node7 -->
<g id="edge6" class="edge"><title>Node6&#45;&gt;Node7</title>
<path fill="none" stroke="midnightblue" d="M1041.78,-174.662C954.471,-169.231 737.534,-154.489 557,-132 555.731,-131.842 554.446,-131.676 553.151,-131.504"/>
<polygon fill="midnightblue" stroke="midnightblue" points="553.488,-128.017 543.096,-130.077 552.505,-134.947 553.488,-128.017"/>
</g>
<!-- Node8 -->
<g id="node8" class="node"><title>Node8</title>
<polygon fill="none" stroke="#bfbfbf" points="850,-56.5 850,-75.5 906,-75.5 906,-56.5 850,-56.5"/>
<text text-anchor="middle" x="878" y="-63.5" font-family="Helvetica,sans-Serif" font-size="10.00">algorithm</text>
</g>
<!-- Node6&#45;&gt;Node8 -->
<g id="edge37" class="edge"><title>Node6&#45;&gt;Node8</title>
<path fill="none" stroke="midnightblue" d="M1041.68,-176.331C931.342,-174.051 624.9,-164.796 595,-132 589.011,-125.431 589.189,-118.727 595,-112 630.972,-70.3561 785.953,-86.3509 840,-76 840.1,-75.9809 840.2,-75.9617 840.3,-75.9424"/>
<polygon fill="midnightblue" stroke="midnightblue" points="840.76,-79.4217 849.837,-73.9571 839.333,-72.5686 840.76,-79.4217"/>
</g>
<!-- Node6&#45;&gt;Node17 -->
<g id="edge35" class="edge"><title>Node6&#45;&gt;Node17</title>
<path fill="none" stroke="midnightblue" d="M1041.96,-176.3C922.568,-173.83 563.727,-163.88 452,-132 433.647,-126.763 432.134,-117.949 414,-112 315.021,-79.5298 281.723,-98.7387 176.842,-76.1147"/>
<polygon fill="midnightblue" stroke="midnightblue" points="177.329,-72.6372 166.806,-73.8707 175.802,-79.4685 177.329,-72.6372"/>
</g>
<!-- Node21 -->
<g id="node21" class="node"><title>Node21</title>
<g id="a_node21"><a xlink:href="_math_helper_8h.html" target="_top" xlink:title="../mt/MathHelper.h">
<polygon fill="none" stroke="black" points="1600,-56.5 1600,-75.5 1698,-75.5 1698,-56.5 1600,-56.5"/>
<text text-anchor="middle" x="1649" y="-63.5" font-family="Helvetica,sans-Serif" font-size="10.00">../mt/MathHelper.h</text>
</a>
</g>
</g>
<!-- Node6&#45;&gt;Node21 -->
<g id="edge52" class="edge"><title>Node6&#45;&gt;Node21</title>
<path fill="none" stroke="midnightblue" d="M1120.25,-177.078C1247.69,-176.928 1643.83,-173.13 1682,-132 1695.22,-117.754 1680.71,-97.2104 1666.97,-83.0506"/>
<polygon fill="midnightblue" stroke="midnightblue" points="1669.23,-80.3601 1659.61,-75.9213 1664.36,-85.3905 1669.23,-80.3601"/>
</g>
<!-- Node23 -->
<g id="node23" class="node"><title>Node23</title>
<polygon fill="none" stroke="#bfbfbf" points="1736.5,-0.5 1736.5,-19.5 1813.5,-19.5 1813.5,-0.5 1736.5,-0.5"/>
<text text-anchor="middle" x="1775" y="-7.5" font-family="Helvetica,sans-Serif" font-size="10.00">DirectXMath.h</text>
</g>
<!-- Node6&#45;&gt;Node23 -->
<g id="edge31" class="edge"><title>Node6&#45;&gt;Node23</title>
<path fill="none" stroke="midnightblue" d="M1120.1,-176.291C1280.07,-173.209 1877.67,-159.862 1906,-132 1930.12,-108.284 1929.78,-83.4399 1910,-56 1890.47,-28.9003 1853.91,-17.8738 1823.75,-13.5015"/>
<polygon fill="midnightblue" stroke="midnightblue" points="1824.17,-10.0257 1813.81,-12.2603 1823.3,-16.9718 1824.17,-10.0257"/>
</g>
<!-- Node24 -->
<g id="node24" class="node"><title>Node24</title>
<polygon fill="none" stroke="#bfbfbf" points="1906,-0.5 1906,-19.5 1952,-19.5 1952,-0.5 1906,-0.5"/>
<text text-anchor="middle" x="1929" y="-7.5" font-family="Helvetica,sans-Serif" font-size="10.00">cstdint</text>
</g>
<!-- Node6&#45;&gt;Node24 -->
<g id="edge41" class="edge"><title>Node6&#45;&gt;Node24</title>
<path fill="none" stroke="midnightblue" d="M1120.02,-176.375C1282.5,-173.587 1898.38,-161.128 1927,-132 1953.66,-104.869 1943.61,-55.5907 1935.44,-29.0632"/>
<polygon fill="midnightblue" stroke="midnightblue" points="1938.74,-27.9008 1932.27,-19.5116 1932.1,-30.105 1938.74,-27.9008"/>
</g>
<!-- Node25 -->
<g id="node25" class="node"><title>Node25</title>
<polygon fill="none" stroke="#bfbfbf" points="343,-112.5 343,-131.5 405,-131.5 405,-112.5 343,-112.5"/>
<text text-anchor="middle" x="374" y="-119.5" font-family="Helvetica,sans-Serif" font-size="10.00">windows.h</text>
</g>
<!-- Node6&#45;&gt;Node25 -->
<g id="edge26" class="edge"><title>Node6&#45;&gt;Node25</title>
<path fill="none" stroke="midnightblue" d="M1041.65,-176.102C938.85,-173.373 653.934,-163.344 419,-132 417.894,-131.852 416.775,-131.694 415.647,-131.527"/>
<polygon fill="midnightblue" stroke="midnightblue" points="415.824,-128.008 405.384,-129.816 414.673,-134.913 415.824,-128.008"/>
</g>
<!-- Node26 -->
<g id="node26" class="node"><title>Node26</title>
<polygon fill="none" stroke="#bfbfbf" points="1716.5,-56.5 1716.5,-75.5 1753.5,-75.5 1753.5,-56.5 1716.5,-56.5"/>
<text text-anchor="middle" x="1735" y="-63.5" font-family="Helvetica,sans-Serif" font-size="10.00">wrl.h</text>
</g>
<!-- Node6&#45;&gt;Node26 -->
<g id="edge27" class="edge"><title>Node6&#45;&gt;Node26</title>
<path fill="none" stroke="midnightblue" d="M1120.1,-176.269C1248.1,-173.585 1649.24,-162.778 1698,-132 1714.61,-121.515 1724.51,-100.723 1729.83,-85.4674"/>
<polygon fill="midnightblue" stroke="midnightblue" points="1733.28,-86.1528 1732.92,-75.564 1726.6,-84.0651 1733.28,-86.1528"/>
</g>
<!-- Node27 -->
<g id="node27" class="node"><title>Node27</title>
<polygon fill="none" stroke="#bfbfbf" points="675.5,-112.5 675.5,-131.5 734.5,-131.5 734.5,-112.5 675.5,-112.5"/>
<text text-anchor="middle" x="705" y="-119.5" font-family="Helvetica,sans-Serif" font-size="10.00">dxgi1_4.h</text>
</g>
<!-- Node6&#45;&gt;Node27 -->
<g id="edge28" class="edge"><title>Node6&#45;&gt;Node27</title>
<path fill="none" stroke="midnightblue" d="M1041.89,-172.987C980.679,-166.442 858.332,-152.303 744.666,-131.963"/>
<polygon fill="midnightblue" stroke="midnightblue" points="745.214,-128.506 734.751,-130.169 743.968,-135.394 745.214,-128.506"/>
</g>
<!-- Node28 -->
<g id="node28" class="node"><title>Node28</title>
<polygon fill="none" stroke="#bfbfbf" points="942.5,-0.5 942.5,-19.5 993.5,-19.5 993.5,-0.5 942.5,-0.5"/>
<text text-anchor="middle" x="968" y="-7.5" font-family="Helvetica,sans-Serif" font-size="10.00">d3d12.h</text>
</g>
<!-- Node6&#45;&gt;Node28 -->
<g id="edge29" class="edge"><title>Node6&#45;&gt;Node28</title>
<path fill="none" stroke="midnightblue" d="M1041.81,-175.88C939.839,-172.564 672.283,-161.142 646,-132 640.047,-125.399 640.146,-118.689 646,-112 685.717,-66.6135 862.361,-105.437 915,-76 934.39,-65.1566 949.494,-44.1491 958.533,-28.945"/>
<polygon fill="midnightblue" stroke="midnightblue" points="961.736,-30.3899 963.581,-19.957 955.632,-26.962 961.736,-30.3899"/>
</g>
<!-- Node29 -->
<g id="node29" class="node"><title>Node29</title>
<polygon fill="none" stroke="#bfbfbf" points="753,-112.5 753,-131.5 833,-131.5 833,-112.5 753,-112.5"/>
<text text-anchor="middle" x="793" y="-119.5" font-family="Helvetica,sans-Serif" font-size="10.00">D3Dcompiler.h</text>
</g>
<!-- Node6&#45;&gt;Node29 -->
<g id="edge30" class="edge"><title>Node6&#45;&gt;Node29</title>
<path fill="none" stroke="midnightblue" d="M1041.86,-169.661C990.46,-160.024 900.132,-143.087 843.594,-132.486"/>
<polygon fill="midnightblue" stroke="midnightblue" points="843.921,-128.987 833.448,-130.584 842.631,-135.867 843.921,-128.987"/>
</g>
<!-- Node30 -->
<g id="node30" class="node"><title>Node30</title>
<polygon fill="none" stroke="#bfbfbf" points="851.5,-112.5 851.5,-131.5 968.5,-131.5 968.5,-112.5 851.5,-112.5"/>
<text text-anchor="middle" x="910" y="-119.5" font-family="Helvetica,sans-Serif" font-size="10.00">DirectXPackedVector.h</text>
</g>
<!-- Node6&#45;&gt;Node30 -->
<g id="edge32" class="edge"><title>Node6&#45;&gt;Node30</title>
<path fill="none" stroke="midnightblue" d="M1053.9,-168.444C1025.01,-159.32 979.075,-144.813 946.895,-134.651"/>
<polygon fill="midnightblue" stroke="midnightblue" points="947.559,-131.19 936.969,-131.516 945.451,-137.865 947.559,-131.19"/>
</g>
<!-- Node31 -->
<g id="node31" class="node"><title>Node31</title>
<polygon fill="none" stroke="#bfbfbf" points="986.5,-112.5 986.5,-131.5 1069.5,-131.5 1069.5,-112.5 986.5,-112.5"/>
<text text-anchor="middle" x="1028" y="-119.5" font-family="Helvetica,sans-Serif" font-size="10.00">DirectXColors.h</text>
</g>
<!-- Node6&#45;&gt;Node31 -->
<g id="edge33" class="edge"><title>Node6&#45;&gt;Node31</title>
<path fill="none" stroke="midnightblue" d="M1072.25,-168.083C1064.53,-160.22 1053.1,-148.569 1043.78,-139.081"/>
<polygon fill="midnightblue" stroke="midnightblue" points="1046.09,-136.436 1036.59,-131.751 1041.1,-141.34 1046.09,-136.436"/>
</g>
<!-- Node32 -->
<g id="node32" class="node"><title>Node32</title>
<polygon fill="none" stroke="#bfbfbf" points="1088,-112.5 1088,-131.5 1180,-131.5 1180,-112.5 1088,-112.5"/>
<text text-anchor="middle" x="1134" y="-119.5" font-family="Helvetica,sans-Serif" font-size="10.00">DirectXCollision.h</text>
</g>
<!-- Node6&#45;&gt;Node32 -->
<g id="edge34" class="edge"><title>Node6&#45;&gt;Node32</title>
<path fill="none" stroke="midnightblue" d="M1089.75,-168.083C1097.47,-160.22 1108.9,-148.569 1118.22,-139.081"/>
<polygon fill="midnightblue" stroke="midnightblue" points="1120.9,-141.34 1125.41,-131.751 1115.91,-136.436 1120.9,-141.34"/>
</g>
<!-- Node33 -->
<g id="node33" class="node"><title>Node33</title>
<polygon fill="none" stroke="#bfbfbf" points="1198,-112.5 1198,-131.5 1250,-131.5 1250,-112.5 1198,-112.5"/>
<text text-anchor="middle" x="1224" y="-119.5" font-family="Helvetica,sans-Serif" font-size="10.00">memory</text>
</g>
<!-- Node6&#45;&gt;Node33 -->
<g id="edge36" class="edge"><title>Node6&#45;&gt;Node33</title>
<path fill="none" stroke="midnightblue" d="M1103.66,-168.444C1127.4,-159.478 1164.91,-145.314 1191.74,-135.183"/>
<polygon fill="midnightblue" stroke="midnightblue" points="1193.33,-138.324 1201.45,-131.516 1190.86,-131.775 1193.33,-138.324"/>
</g>
<!-- Node34 -->
<g id="node34" class="node"><title>Node34</title>
<polygon fill="none" stroke="#bfbfbf" points="1268,-112.5 1268,-131.5 1310,-131.5 1310,-112.5 1268,-112.5"/>
<text text-anchor="middle" x="1289" y="-119.5" font-family="Helvetica,sans-Serif" font-size="10.00">vector</text>
</g>
<!-- Node6&#45;&gt;Node34 -->
<g id="edge38" class="edge"><title>Node6&#45;&gt;Node34</title>
<path fill="none" stroke="midnightblue" d="M1116.58,-168.491C1150.56,-160.258 1203.43,-147.17 1257.9,-132.219"/>
<polygon fill="midnightblue" stroke="midnightblue" points="1259.02,-135.542 1267.73,-129.507 1257.16,-128.794 1259.02,-135.542"/>
</g>
<!-- Node35 -->
<g id="node35" class="node"><title>Node35</title>
<polygon fill="none" stroke="#bfbfbf" points="1328,-112.5 1328,-131.5 1366,-131.5 1366,-112.5 1328,-112.5"/>
<text text-anchor="middle" x="1347" y="-119.5" font-family="Helvetica,sans-Serif" font-size="10.00">array</text>
</g>
<!-- Node6&#45;&gt;Node35 -->
<g id="edge39" class="edge"><title>Node6&#45;&gt;Node35</title>
<path fill="none" stroke="midnightblue" d="M1120.07,-171.14C1165.46,-163.998 1242.71,-150.809 1317.72,-132.071"/>
<polygon fill="midnightblue" stroke="midnightblue" points="1318.98,-135.364 1327.81,-129.514 1317.26,-128.579 1318.98,-135.364"/>
</g>
<!-- Node36 -->
<g id="node36" class="node"><title>Node36</title>
<polygon fill="none" stroke="#bfbfbf" points="1384.5,-112.5 1384.5,-131.5 1467.5,-131.5 1467.5,-112.5 1384.5,-112.5"/>
<text text-anchor="middle" x="1426" y="-119.5" font-family="Helvetica,sans-Serif" font-size="10.00">unordered_map</text>
</g>
<!-- Node6&#45;&gt;Node36 -->
<g id="edge40" class="edge"><title>Node6&#45;&gt;Node36</title>
<path fill="none" stroke="midnightblue" d="M1120.04,-171.313C1174.53,-163.314 1276.72,-148.079 1374.24,-132.094"/>
<polygon fill="midnightblue" stroke="midnightblue" points="1374.97,-135.521 1384.26,-130.445 1373.83,-128.614 1374.97,-135.521"/>
</g>
<!-- Node37 -->
<g id="node37" class="node"><title>Node37</title>
<polygon fill="none" stroke="#bfbfbf" points="1485.5,-112.5 1485.5,-131.5 1534.5,-131.5 1534.5,-112.5 1485.5,-112.5"/>
<text text-anchor="middle" x="1510" y="-119.5" font-family="Helvetica,sans-Serif" font-size="10.00">fstream</text>
</g>
<!-- Node6&#45;&gt;Node37 -->
<g id="edge42" class="edge"><title>Node6&#45;&gt;Node37</title>
<path fill="none" stroke="midnightblue" d="M1120.25,-174.428C1189.82,-169.458 1339.42,-156.928 1475.06,-131.909"/>
<polygon fill="midnightblue" stroke="midnightblue" points="1476.03,-135.288 1485.21,-130.007 1474.74,-128.407 1476.03,-135.288"/>
</g>
<!-- Node38 -->
<g id="node38" class="node"><title>Node38</title>
<polygon fill="none" stroke="#bfbfbf" points="1553,-112.5 1553,-131.5 1605,-131.5 1605,-112.5 1553,-112.5"/>
<text text-anchor="middle" x="1579" y="-119.5" font-family="Helvetica,sans-Serif" font-size="10.00">sstream</text>
</g>
<!-- Node6&#45;&gt;Node38 -->
<g id="edge43" class="edge"><title>Node6&#45;&gt;Node38</title>
<path fill="none" stroke="midnightblue" d="M1120.2,-175.141C1198.54,-171.005 1380.1,-159.309 1542.57,-131.789"/>
<polygon fill="midnightblue" stroke="midnightblue" points="1543.49,-135.183 1552.75,-130.039 1542.3,-128.284 1543.49,-135.183"/>
</g>
<!-- Node39 -->
<g id="node39" class="node"><title>Node39</title>
<polygon fill="none" stroke="#bfbfbf" points="1623.5,-112.5 1623.5,-131.5 1672.5,-131.5 1672.5,-112.5 1623.5,-112.5"/>
<text text-anchor="middle" x="1648" y="-119.5" font-family="Helvetica,sans-Serif" font-size="10.00">cassert</text>
</g>
<!-- Node6&#45;&gt;Node39 -->
<g id="edge44" class="edge"><title>Node6&#45;&gt;Node39</title>
<path fill="none" stroke="midnightblue" d="M1120.09,-176.032C1207.11,-173.379 1423.44,-164.024 1613.35,-131.794"/>
<polygon fill="midnightblue" stroke="midnightblue" points="1613.97,-135.239 1623.23,-130.092 1612.78,-128.34 1613.97,-135.239"/>
</g>
<!-- Node40 -->
<g id="node40" class="node"><title>Node40</title>
<g id="a_node40"><a xlink:href="d3dx12_8h.html" target="_top" xlink:title="../mt/d3dx12.h">
<polygon fill="none" stroke="black" points="962,-56.5 962,-75.5 1042,-75.5 1042,-56.5 962,-56.5"/>
<text text-anchor="middle" x="1002" y="-63.5" font-family="Helvetica,sans-Serif" font-size="10.00">../mt/d3dx12.h</text>
</a>
</g>
</g>
<!-- Node6&#45;&gt;Node40 -->
<g id="edge45" class="edge"><title>Node6&#45;&gt;Node40</title>
<path fill="none" stroke="midnightblue" d="M1041.83,-175.672C943.23,-171.93 690.867,-159.71 666,-132 635.569,-98.0908 611.643,-125.481 948,-76 949.269,-75.8133 950.555,-75.6212 951.852,-75.4249"/>
<polygon fill="midnightblue" stroke="midnightblue" points="952.581,-78.8535 961.922,-73.8545 951.502,-71.9371 952.581,-78.8535"/>
</g>
<!-- Node41 -->
<g id="node41" class="node"><title>Node41</title>
<g id="a_node41"><a xlink:href="_d_d_s_texture_loader_8h.html" target="_top" xlink:title="../mt/DDSTextureLoader.h">
<polygon fill="none" stroke="black" points="1767,-112.5 1767,-131.5 1897,-131.5 1897,-112.5 1767,-112.5"/>
<text text-anchor="middle" x="1832" y="-119.5" font-family="Helvetica,sans-Serif" font-size="10.00">../mt/DDSTextureLoader.h</text>
</a>
</g>
</g>
<!-- Node6&#45;&gt;Node41 -->
<g id="edge47" class="edge"><title>Node6&#45;&gt;Node41</title>
<path fill="none" stroke="midnightblue" d="M1120.06,-175.022C1223.46,-169.648 1512.82,-153.711 1753,-132 1754.28,-131.885 1755.56,-131.766 1756.86,-131.644"/>
<polygon fill="midnightblue" stroke="midnightblue" points="1757.32,-135.116 1766.93,-130.656 1756.63,-128.149 1757.32,-135.116"/>
</g>
<!-- Node7&#45;&gt;Node3 -->
<g id="edge8" class="edge"><title>Node7&#45;&gt;Node3</title>
<path fill="none" stroke="midnightblue" d="M460.814,-116.771C446.049,-115.259 429.279,-113.547 414,-112 257.732,-96.1739 214.327,-105.423 56.3807,-75.9636"/>
<polygon fill="midnightblue" stroke="midnightblue" points="56.7829,-72.4778 46.3071,-74.0617 55.4842,-79.3562 56.7829,-72.4778"/>
</g>
<!-- Node7&#45;&gt;Node4 -->
<g id="edge15" class="edge"><title>Node7&#45;&gt;Node4</title>
<path fill="none" stroke="midnightblue" d="M460.802,-116.611C374.191,-107.328 176.909,-85.8741 117.704,-75.8485"/>
<polygon fill="midnightblue" stroke="midnightblue" points="117.987,-72.341 107.514,-73.9469 116.702,-79.2222 117.987,-72.341"/>
</g>
<!-- Node7&#45;&gt;Node8 -->
<g id="edge7" class="edge"><title>Node7&#45;&gt;Node8</title>
<path fill="none" stroke="midnightblue" d="M543.121,-114.107C547.798,-113.372 552.5,-112.654 557,-112 682.472,-93.7594 715.247,-98.6424 840,-76 840.1,-75.9818 840.2,-75.9636 840.301,-75.9452"/>
<polygon fill="midnightblue" stroke="midnightblue" points="840.738,-79.4276 849.848,-74.0185 839.353,-72.5659 840.738,-79.4276"/>
</g>
<!-- Node9 -->
<g id="node9" class="node"><title>Node9</title>
<polygon fill="none" stroke="#bfbfbf" points="480,-56.5 480,-75.5 524,-75.5 524,-56.5 480,-56.5"/>
<text text-anchor="middle" x="502" y="-63.5" font-family="Helvetica,sans-Serif" font-size="10.00">cmath</text>
</g>
<!-- Node7&#45;&gt;Node9 -->
<g id="edge9" class="edge"><title>Node7&#45;&gt;Node9</title>
<path fill="none" stroke="midnightblue" d="M502,-112.083C502,-105.006 502,-94.8611 502,-85.9865"/>
<polygon fill="midnightblue" stroke="midnightblue" points="505.5,-85.751 502,-75.7511 498.5,-85.7511 505.5,-85.751"/>
</g>
<!-- Node10 -->
<g id="node10" class="node"><title>Node10</title>
<polygon fill="none" stroke="#bfbfbf" points="542.5,-56.5 542.5,-75.5 591.5,-75.5 591.5,-56.5 542.5,-56.5"/>
<text text-anchor="middle" x="567" y="-63.5" font-family="Helvetica,sans-Serif" font-size="10.00">cstdarg</text>
</g>
<!-- Node7&#45;&gt;Node10 -->
<g id="edge10" class="edge"><title>Node7&#45;&gt;Node10</title>
<path fill="none" stroke="midnightblue" d="M512.443,-112.324C522.146,-104.263 536.815,-92.0765 548.5,-82.3695"/>
<polygon fill="midnightblue" stroke="midnightblue" points="550.911,-84.9163 556.367,-75.8339 546.438,-79.532 550.911,-84.9163"/>
</g>
<!-- Node11 -->
<g id="node11" class="node"><title>Node11</title>
<polygon fill="none" stroke="#bfbfbf" points="609.5,-56.5 609.5,-75.5 652.5,-75.5 652.5,-56.5 609.5,-56.5"/>
<text text-anchor="middle" x="631" y="-63.5" font-family="Helvetica,sans-Serif" font-size="10.00">deque</text>
</g>
<!-- Node7&#45;&gt;Node11 -->
<g id="edge11" class="edge"><title>Node7&#45;&gt;Node11</title>
<path fill="none" stroke="midnightblue" d="M522.44,-112.444C543.67,-103.557 577.099,-89.5632 601.255,-79.4514"/>
<polygon fill="midnightblue" stroke="midnightblue" points="602.782,-82.6064 610.655,-75.5164 600.079,-76.1493 602.782,-82.6064"/>
</g>
<!-- Node12 -->
<g id="node12" class="node"><title>Node12</title>
<polygon fill="none" stroke="#bfbfbf" points="670.5,-56.5 670.5,-75.5 731.5,-75.5 731.5,-56.5 670.5,-56.5"/>
<text text-anchor="middle" x="701" y="-63.5" font-family="Helvetica,sans-Serif" font-size="10.00">filesystem</text>
</g>
<!-- Node7&#45;&gt;Node12 -->
<g id="edge12" class="edge"><title>Node7&#45;&gt;Node12</title>
<path fill="none" stroke="midnightblue" d="M533.532,-112.444C567.793,-103.147 622.647,-88.2617 660.175,-78.0781"/>
<polygon fill="midnightblue" stroke="midnightblue" points="661.535,-81.3358 670.269,-75.339 659.702,-74.5801 661.535,-81.3358"/>
</g>
<!-- Node13 -->
<g id="node13" class="node"><title>Node13</title>
<polygon fill="none" stroke="#bfbfbf" points="749.5,-56.5 749.5,-75.5 778.5,-75.5 778.5,-56.5 749.5,-56.5"/>
<text text-anchor="middle" x="764" y="-63.5" font-family="Helvetica,sans-Serif" font-size="10.00">list</text>
</g>
<!-- Node7&#45;&gt;Node13 -->
<g id="edge13" class="edge"><title>Node7&#45;&gt;Node13</title>
<path fill="none" stroke="midnightblue" d="M543.32,-114.071C597.419,-104.857 690.252,-88.5282 739.575,-75.6245"/>
<polygon fill="midnightblue" stroke="midnightblue" points="740.691,-78.9475 749.409,-72.9267 738.84,-72.1968 740.691,-78.9475"/>
</g>
<!-- Node14 -->
<g id="node14" class="node"><title>Node14</title>
<polygon fill="none" stroke="#bfbfbf" points="796.5,-56.5 796.5,-75.5 831.5,-75.5 831.5,-56.5 796.5,-56.5"/>
<text text-anchor="middle" x="814" y="-63.5" font-family="Helvetica,sans-Serif" font-size="10.00">map</text>
</g>
<!-- Node7&#45;&gt;Node14 -->
<g id="edge14" class="edge"><title>Node7&#45;&gt;Node14</title>
<path fill="none" stroke="midnightblue" d="M543.14,-114.236C547.814,-113.477 552.51,-112.719 557,-112 656.073,-96.1407 684.741,-100.173 786.642,-75.709"/>
<polygon fill="midnightblue" stroke="midnightblue" points="787.515,-79.0987 796.404,-73.333 785.86,-72.2972 787.515,-79.0987"/>
</g>
<!-- Node15 -->
<g id="node15" class="node"><title>Node15</title>
<polygon fill="none" stroke="#bfbfbf" points="184.5,-56.5 184.5,-75.5 219.5,-75.5 219.5,-56.5 184.5,-56.5"/>
<text text-anchor="middle" x="202" y="-63.5" font-family="Helvetica,sans-Serif" font-size="10.00">ratio</text>
</g>
<!-- Node7&#45;&gt;Node15 -->
<g id="edge16" class="edge"><title>Node7&#45;&gt;Node15</title>
<path fill="none" stroke="midnightblue" d="M460.754,-114.244C394.16,-103.33 267.244,-82.5086 229.604,-75.39"/>
<polygon fill="midnightblue" stroke="midnightblue" points="230.104,-71.9192 219.601,-73.312 228.68,-78.7729 230.104,-71.9192"/>
</g>
<!-- Node16 -->
<g id="node16" class="node"><title>Node16</title>
<polygon fill="none" stroke="#bfbfbf" points="238,-56.5 238,-75.5 268,-75.5 268,-56.5 238,-56.5"/>
<text text-anchor="middle" x="253" y="-63.5" font-family="Helvetica,sans-Serif" font-size="10.00">set</text>
</g>
<!-- Node7&#45;&gt;Node16 -->
<g id="edge17" class="edge"><title>Node7&#45;&gt;Node16</title>
<path fill="none" stroke="midnightblue" d="M460.629,-113.554C409.36,-104.193 324.006,-88.1438 277.874,-75.8168"/>
<polygon fill="midnightblue" stroke="midnightblue" points="278.685,-72.4094 268.112,-73.0884 276.801,-79.151 278.685,-72.4094"/>
</g>
<!-- Node7&#45;&gt;Node17 -->
<g id="edge18" class="edge"><title>Node7&#45;&gt;Node17</title>
<path fill="none" stroke="midnightblue" d="M460.876,-114.13C456.199,-113.39 451.499,-112.666 447,-112 329.551,-94.6223 295.866,-101.761 176.671,-76.0764"/>
<polygon fill="midnightblue" stroke="midnightblue" points="177.313,-72.6341 166.796,-73.9163 175.817,-79.4724 177.313,-72.6341"/>
</g>
<!-- Node18 -->
<g id="node18" class="node"><title>Node18</title>
<polygon fill="none" stroke="#bfbfbf" points="286,-56.5 286,-75.5 348,-75.5 348,-56.5 286,-56.5"/>
<text text-anchor="middle" x="317" y="-63.5" font-family="Helvetica,sans-Serif" font-size="10.00">type_traits</text>
</g>
<!-- Node7&#45;&gt;Node18 -->
<g id="edge19" class="edge"><title>Node7&#45;&gt;Node18</title>
<path fill="none" stroke="midnightblue" d="M472.686,-112.444C441.158,-103.241 390.869,-88.5617 356.014,-78.3879"/>
<polygon fill="midnightblue" stroke="midnightblue" points="356.757,-74.9587 346.177,-75.5164 354.795,-81.6783 356.757,-74.9587"/>
</g>
<!-- Node19 -->
<g id="node19" class="node"><title>Node19</title>
<polygon fill="none" stroke="#bfbfbf" points="366,-56.5 366,-75.5 404,-75.5 404,-56.5 366,-56.5"/>
<text text-anchor="middle" x="385" y="-63.5" font-family="Helvetica,sans-Serif" font-size="10.00">tuple</text>
</g>
<!-- Node7&#45;&gt;Node19 -->
<g id="edge20" class="edge"><title>Node7&#45;&gt;Node19</title>
<path fill="none" stroke="midnightblue" d="M483.461,-112.444C464.377,-103.636 434.425,-89.8116 412.564,-79.722"/>
<polygon fill="midnightblue" stroke="midnightblue" points="413.999,-76.5292 403.452,-75.5164 411.065,-82.8849 413.999,-76.5292"/>
</g>
<!-- Node20 -->
<g id="node20" class="node"><title>Node20</title>
<polygon fill="none" stroke="#bfbfbf" points="422,-56.5 422,-75.5 462,-75.5 462,-56.5 422,-56.5"/>
<text text-anchor="middle" x="442" y="-63.5" font-family="Helvetica,sans-Serif" font-size="10.00">utility</text>
</g>
<!-- Node7&#45;&gt;Node20 -->
<g id="edge21" class="edge"><title>Node7&#45;&gt;Node20</title>
<path fill="none" stroke="midnightblue" d="M492.36,-112.324C483.49,-104.341 470.125,-92.3128 459.392,-82.6529"/>
<polygon fill="midnightblue" stroke="midnightblue" points="461.59,-79.922 451.815,-75.8339 456.907,-85.1251 461.59,-79.922"/>
</g>
<!-- Node7&#45;&gt;Node21 -->
<g id="edge22" class="edge"><title>Node7&#45;&gt;Node21</title>
<path fill="none" stroke="midnightblue" d="M543.108,-118.64C576.275,-116.762 624.136,-114.107 666,-112 1016.26,-94.3725 1436.87,-76.0795 1589.78,-69.5232"/>
<polygon fill="midnightblue" stroke="midnightblue" points="1590.06,-73.0149 1599.9,-69.09 1589.76,-66.0213 1590.06,-73.0149"/>
</g>
<!-- Node22 -->
<g id="node22" class="node"><title>Node22</title>
<polygon fill="none" stroke="#bfbfbf" points="1616.5,-0.5 1616.5,-19.5 1681.5,-19.5 1681.5,-0.5 1616.5,-0.5"/>
<text text-anchor="middle" x="1649" y="-7.5" font-family="Helvetica,sans-Serif" font-size="10.00">Windows.h</text>
</g>
<!-- Node21&#45;&gt;Node22 -->
<g id="edge23" class="edge"><title>Node21&#45;&gt;Node22</title>
<path fill="none" stroke="midnightblue" d="M1649,-56.083C1649,-49.0059 1649,-38.8611 1649,-29.9865"/>
<polygon fill="midnightblue" stroke="midnightblue" points="1652.5,-29.751 1649,-19.7511 1645.5,-29.7511 1652.5,-29.751"/>
</g>
<!-- Node21&#45;&gt;Node23 -->
<g id="edge24" class="edge"><title>Node21&#45;&gt;Node23</title>
<path fill="none" stroke="midnightblue" d="M1668.97,-56.4435C1689.61,-47.5961 1722.06,-33.6875 1745.63,-23.5865"/>
<polygon fill="midnightblue" stroke="midnightblue" points="1747.32,-26.6727 1755.13,-19.5164 1744.56,-20.2387 1747.32,-26.6727"/>
</g>
<!-- Node21&#45;&gt;Node24 -->
<g id="edge25" class="edge"><title>Node21&#45;&gt;Node24</title>
<path fill="none" stroke="midnightblue" d="M1693.37,-56.4435C1749.66,-45.5876 1845.46,-27.1119 1895.82,-17.3998"/>
<polygon fill="midnightblue" stroke="midnightblue" points="1896.69,-20.7967 1905.84,-15.4662 1895.36,-13.9233 1896.69,-20.7967"/>
</g>
<!-- Node40&#45;&gt;Node28 -->
<g id="edge46" class="edge"><title>Node40&#45;&gt;Node28</title>
<path fill="none" stroke="midnightblue" d="M996.386,-56.083C991.633,-48.5341 984.682,-37.4948 978.848,-28.2298"/>
<polygon fill="midnightblue" stroke="midnightblue" points="981.8,-26.3486 973.51,-19.7511 975.876,-30.0783 981.8,-26.3486"/>
</g>
<!-- Node41&#45;&gt;Node26 -->
<g id="edge48" class="edge"><title>Node41&#45;&gt;Node26</title>
<path fill="none" stroke="midnightblue" d="M1816.42,-112.324C1801,-103.743 1777.19,-90.486 1759.29,-80.5224"/>
<polygon fill="midnightblue" stroke="midnightblue" points="1760.99,-77.4606 1750.55,-75.6545 1757.58,-83.5767 1760.99,-77.4606"/>
</g>
<!-- Node41&#45;&gt;Node40 -->
<g id="edge50" class="edge"><title>Node41&#45;&gt;Node40</title>
<path fill="none" stroke="midnightblue" d="M1766.87,-116.763C1606.74,-106.345 1196.43,-79.6497 1052.68,-70.297"/>
<polygon fill="midnightblue" stroke="midnightblue" points="1052.6,-66.7846 1042.39,-69.6279 1052.14,-73.7699 1052.6,-66.7846"/>
</g>
<!-- Node42 -->
<g id="node42" class="node"><title>Node42</title>
<polygon fill="none" stroke="#bfbfbf" points="1839,-56.5 1839,-75.5 1901,-75.5 1901,-56.5 1839,-56.5"/>
<text text-anchor="middle" x="1870" y="-63.5" font-family="Helvetica,sans-Serif" font-size="10.00">d3d11_1.h</text>
</g>
<!-- Node41&#45;&gt;Node42 -->
<g id="edge49" class="edge"><title>Node41&#45;&gt;Node42</title>
<path fill="none" stroke="midnightblue" d="M1838.27,-112.083C1843.64,-104.455 1851.52,-93.2645 1858.08,-83.9408"/>
<polygon fill="midnightblue" stroke="midnightblue" points="1860.95,-85.9434 1863.84,-75.7511 1855.22,-81.9149 1860.95,-85.9434"/>
</g>
<!-- Node43 -->
<g id="node43" class="node"><title>Node43</title>
<polygon fill="none" stroke="#bfbfbf" points="1771.5,-56.5 1771.5,-75.5 1820.5,-75.5 1820.5,-56.5 1771.5,-56.5"/>
<text text-anchor="middle" x="1796" y="-63.5" font-family="Helvetica,sans-Serif" font-size="10.00">stdint.h</text>
</g>
<!-- Node41&#45;&gt;Node43 -->
<g id="edge51" class="edge"><title>Node41&#45;&gt;Node43</title>
<path fill="none" stroke="midnightblue" d="M1826.06,-112.083C1821.02,-104.534 1813.66,-93.4948 1807.49,-84.2298"/>
<polygon fill="midnightblue" stroke="midnightblue" points="1810.29,-82.1301 1801.83,-75.7511 1804.47,-86.0131 1810.29,-82.1301"/>
</g>
<!-- Node44&#45;&gt;Node6 -->
<g id="edge54" class="edge"><title>Node44&#45;&gt;Node6</title>
<path fill="none" stroke="midnightblue" d="M897.661,-229.975C935.244,-219.526 999.044,-201.787 1040.6,-190.233"/>
<polygon fill="midnightblue" stroke="midnightblue" points="1041.7,-193.56 1050.4,-187.509 1039.82,-186.816 1041.7,-193.56"/>
</g>
<!-- Node45&#45;&gt;Node6 -->
<g id="edge57" class="edge"><title>Node45&#45;&gt;Node6</title>
<path fill="none" stroke="midnightblue" d="M724.229,-231.675C800.803,-220.369 953.284,-197.856 1031.78,-186.267"/>
<polygon fill="midnightblue" stroke="midnightblue" points="1032.51,-189.697 1041.89,-184.774 1031.49,-182.772 1032.51,-189.697"/>
</g>
<!-- Node45&#45;&gt;Node7 -->
<g id="edge56" class="edge"><title>Node45&#45;&gt;Node7</title>
<path fill="none" stroke="midnightblue" d="M664.771,-229.819C634.703,-210.086 560.97,-161.699 523.953,-137.407"/>
<polygon fill="midnightblue" stroke="midnightblue" points="525.663,-134.342 515.382,-131.782 521.822,-140.195 525.663,-134.342"/>
</g>
<!-- Node46&#45;&gt;Node7 -->
<g id="edge60" class="edge"><title>Node46&#45;&gt;Node7</title>
<path fill="none" stroke="midnightblue" d="M299.44,-224.433C317.11,-208.92 347.438,-184.039 377,-168 403.46,-153.644 435.431,-142.23 460.416,-134.489"/>
<polygon fill="midnightblue" stroke="midnightblue" points="461.751,-137.742 470.312,-131.5 459.727,-131.041 461.751,-137.742"/>
</g>
<!-- Node47 -->
<g id="node47" class="node"><title>Node47</title>
<g id="a_node47"><a xlink:href="_windows_message_handler_8hpp.html" target="_top" xlink:title="../mt/WindowsMessageHandler.hpp">
<polygon fill="none" stroke="black" points="153.5,-168.5 153.5,-187.5 324.5,-187.5 324.5,-168.5 153.5,-168.5"/>
<text text-anchor="middle" x="239" y="-175.5" font-family="Helvetica,sans-Serif" font-size="10.00">../mt/WindowsMessageHandler.hpp</text>
</a>
</g>
</g>
<!-- Node46&#45;&gt;Node47 -->
<g id="edge61" class="edge"><title>Node46&#45;&gt;Node47</title>
<path fill="none" stroke="midnightblue" d="M273.336,-224.399C266.864,-215.842 258.566,-204.871 251.749,-195.857"/>
<polygon fill="midnightblue" stroke="midnightblue" points="254.372,-193.522 245.548,-187.658 248.789,-197.745 254.372,-193.522"/>
</g>
<!-- Node47&#45;&gt;Node25 -->
<g id="edge62" class="edge"><title>Node47&#45;&gt;Node25</title>
<path fill="none" stroke="midnightblue" d="M260.391,-168.444C282.707,-159.517 317.903,-145.439 343.208,-135.317"/>
<polygon fill="midnightblue" stroke="midnightblue" points="344.724,-138.48 352.709,-131.516 342.124,-131.981 344.724,-138.48"/>
</g>
<!-- Node48 -->
<g id="node48" class="node"><title>Node48</title>
<polygon fill="none" stroke="#bfbfbf" points="204,-112.5 204,-131.5 274,-131.5 274,-112.5 204,-112.5"/>
<text text-anchor="middle" x="239" y="-119.5" font-family="Helvetica,sans-Serif" font-size="10.00">WindowsX.h</text>
</g>
<!-- Node47&#45;&gt;Node48 -->
<g id="edge63" class="edge"><title>Node47&#45;&gt;Node48</title>
<path fill="none" stroke="midnightblue" d="M239,-168.083C239,-161.006 239,-150.861 239,-141.986"/>
<polygon fill="midnightblue" stroke="midnightblue" points="242.5,-141.751 239,-131.751 235.5,-141.751 242.5,-141.751"/>
</g>
<!-- Node49&#45;&gt;Node7 -->
<g id="edge65" class="edge"><title>Node49&#45;&gt;Node7</title>
<path fill="none" stroke="midnightblue" d="M392.547,-291.463C410.339,-264.078 466.231,-178.052 490.53,-140.653"/>
<polygon fill="midnightblue" stroke="midnightblue" points="493.725,-142.161 496.238,-131.868 487.855,-138.347 493.725,-142.161"/>
</g>
</g>
</svg>
        <g id="navigator" transform="translate(0 0)" fill="#404254">
                <rect fill="#f2f5e9" fill-opacity="0.5" stroke="#606060" stroke-width=".5" x="0" y="0" width="60" height="60"/>
                <use id="zoomplus" xlink:href="#zoomPlus" x="17" y="9" onmousedown="handleZoom(evt,'in')"/>
                <use id="zoomminus" xlink:href="#zoomMin" x="42" y="9" onmousedown="handleZoom(evt,'out')"/>
                <use id="reset" xlink:href="#resetDef" x="30" y="36" onmousedown="handleReset()"/>
                <g id="arrowUp" xlink:href="#dirArrow" transform="translate(30 24)" onmousedown="handlePan(0,-1)">
                  <use xlink:href="#rim" fill="#404040">
                        <set attributeName="fill" to="#808080" begin="arrowUp.mouseover" end="arrowUp.mouseout"/>
                  </use>
                  <path fill="none" stroke="white" stroke-width="1.5" d="M0,-3.0v7 M-2.5,-0.5L0,-3.0L2.5,-0.5"/>
                </g>
                <g id="arrowRight" xlink:href="#dirArrow" transform="rotate(90) translate(36 -43)" onmousedown="handlePan(1,0)">
                  <use xlink:href="#rim" fill="#404040">
                        <set attributeName="fill" to="#808080" begin="arrowRight.mouseover" end="arrowRight.mouseout"/>
                  </use>
                  <path fill="none" stroke="white" stroke-width="1.5" d="M0,-3.0v7 M-2.5,-0.5L0,-3.0L2.5,-0.5"/>
                </g>
                <g id="arrowDown" xlink:href="#dirArrow" transform="rotate(180) translate(-30 -48)" onmousedown="handlePan(0,1)">
                  <use xlink:href="#rim" fill="#404040">
                        <set attributeName="fill" to="#808080" begin="arrowDown.mouseover" end="arrowDown.mouseout"/>
                  </use>
                  <path fill="none" stroke="white" stroke-width="1.5" d="M0,-3.0v7 M-2.5,-0.5L0,-3.0L2.5,-0.5"/>
                </g>
                <g id="arrowLeft" xlink:href="#dirArrow" transform="rotate(270) translate(-36 17)" onmousedown="handlePan(-1,0)">
                  <use xlink:href="#rim" fill="#404040">
                        <set attributeName="fill" to="#808080" begin="arrowLeft.mouseover" end="arrowLeft.mouseout"/>
                  </use>
                  <path fill="none" stroke="white" stroke-width="1.5" d="M0,-3.0v7 M-2.5,-0.5L0,-3.0L2.5,-0.5"/>
                </g>
        </g>
        <svg viewBox="0 0 15 15" width="100%" height="30px" preserveAspectRatio="xMaxYMin meet">
         <g id="arrow_out" transform="scale(0.3 0.3)">
          <a xlink:href="engine_8hpp__incl_org.svg" target="_base">
           <rect id="button" ry="5" rx="5" y="6" x="6" height="38" width="38"
                fill="#f2f5e9" fill-opacity="0.5" stroke="#606060" stroke-width="1.0"/>
           <path id="arrow"
             d="M 11.500037,31.436501 C 11.940474,20.09759 22.043105,11.32322 32.158766,21.979434 L 37.068811,17.246167 C 37.068811,17.246167 37.088388,32 37.088388,32 L 22.160133,31.978069 C 22.160133,31.978069 26.997745,27.140456 26.997745,27.140456 C 18.528582,18.264221 13.291696,25.230495 11.500037,31.436501 z"
             style="fill:#404040;"/>
          </a>
         </g>
        </svg>
</svg>
