<?xml version="1.0" encoding="UTF-8" standalone="no"?>
<!DOCTYPE svg PUBLIC "-//W3C//DTD SVG 1.1//EN"
 "http://www.w3.org/Graphics/SVG/1.1/DTD/svg11.dtd">
<!-- Generated by graphviz version 2.38.0 (20140413.2041)
 -->
<!-- Title: MainWndProc Pages: 1 -->
<svg width="885pt" height="104pt"
 viewBox="0.00 0.00 885.00 104.00" xmlns="http://www.w3.org/2000/svg" xmlns:xlink="http://www.w3.org/1999/xlink">
<g id="graph0" class="graph" transform="scale(1 1) rotate(0) translate(4 100)">
<title>MainWndProc</title>
<!-- Node1 -->
<g id="node1" class="node"><title>Node1</title>
<polygon fill="#bfbfbf" stroke="black" points="0,-57.5 0,-76.5 78,-76.5 78,-57.5 0,-57.5"/>
<text text-anchor="middle" x="39" y="-64.5" font-family="Helvetica,sans-Serif" font-size="10.00">MainWndProc</text>
</g>
<!-- Node2 -->
<g id="node2" class="node"><title>Node2</title>
<g id="a_node2"><a xlink:href="classengine.html#a958aa4120f21278468225415ffe5ac92" target="_top" xlink:title="engine::_init_main\l_window">
<polygon fill="none" stroke="black" points="114,-52 114,-82 209,-82 209,-52 114,-52"/>
<text text-anchor="start" x="122" y="-70" font-family="Helvetica,sans-Serif" font-size="10.00">engine::_init_main</text>
<text text-anchor="middle" x="161.5" y="-59" font-family="Helvetica,sans-Serif" font-size="10.00">_window</text>
</a>
</g>
</g>
<!-- Node1&#45;&gt;Node2 -->
<g id="edge1" class="edge"><title>Node1&#45;&gt;Node2</title>
<path fill="none" stroke="midnightblue" d="M88.189,-67C96.6096,-67 105.358,-67 113.739,-67"/>
<polygon fill="midnightblue" stroke="midnightblue" points="88.127,-63.5001 78.127,-67 88.1269,-70.5001 88.127,-63.5001"/>
</g>
<!-- Node3 -->
<g id="node3" class="node"><title>Node3</title>
<g id="a_node3"><a xlink:href="classengine.html#a8b8dd82e72fd73e0601c30041529c4c0" target="_top" xlink:title="engine::_initialize">
<polygon fill="none" stroke="black" points="245,-76.5 245,-95.5 337,-95.5 337,-76.5 245,-76.5"/>
<text text-anchor="middle" x="291" y="-83.5" font-family="Helvetica,sans-Serif" font-size="10.00">engine::_initialize</text>
</a>
</g>
</g>
<!-- Node2&#45;&gt;Node3 -->
<g id="edge2" class="edge"><title>Node2&#45;&gt;Node3</title>
<path fill="none" stroke="midnightblue" d="M219.243,-75.4558C227.853,-76.7389 236.636,-78.0477 244.953,-79.2871"/>
<polygon fill="midnightblue" stroke="midnightblue" points="219.659,-71.9792 209.252,-73.967 218.627,-78.9028 219.659,-71.9792"/>
</g>
<!-- Node5 -->
<g id="node5" class="node"><title>Node5</title>
<g id="a_node5"><a xlink:href="classengine.html#ada832d0a14502f1b99fdbd5c72cab01b" target="_top" xlink:title="engine::Draw">
<polygon fill="none" stroke="black" points="379.5,-38.5 379.5,-57.5 452.5,-57.5 452.5,-38.5 379.5,-38.5"/>
<text text-anchor="middle" x="416" y="-45.5" font-family="Helvetica,sans-Serif" font-size="10.00">engine::Draw</text>
</a>
</g>
</g>
<!-- Node2&#45;&gt;Node5 -->
<g id="edge12" class="edge"><title>Node2&#45;&gt;Node5</title>
<path fill="none" stroke="midnightblue" d="M219.244,-62.7302C268.274,-59.0408 337.624,-53.8224 379.266,-50.6889"/>
<polygon fill="midnightblue" stroke="midnightblue" points="218.816,-59.2524 209.107,-63.493 219.341,-66.2327 218.816,-59.2524"/>
</g>
<!-- Node4 -->
<g id="node4" class="node"><title>Node4</title>
<g id="a_node4"><a xlink:href="classengine.html#a6809dcdfe78011851e377d4729a87ee4" target="_top" xlink:title="engine::initialize">
<polygon fill="none" stroke="black" points="373,-76.5 373,-95.5 459,-95.5 459,-76.5 373,-76.5"/>
<text text-anchor="middle" x="416" y="-83.5" font-family="Helvetica,sans-Serif" font-size="10.00">engine::initialize</text>
</a>
</g>
</g>
<!-- Node3&#45;&gt;Node4 -->
<g id="edge3" class="edge"><title>Node3&#45;&gt;Node4</title>
<path fill="none" stroke="midnightblue" d="M347.378,-86C355.903,-86 364.586,-86 372.765,-86"/>
<polygon fill="midnightblue" stroke="midnightblue" points="347.102,-82.5001 337.102,-86 347.102,-89.5001 347.102,-82.5001"/>
</g>
<!-- Node3&#45;&gt;Node5 -->
<g id="edge4" class="edge"><title>Node3&#45;&gt;Node5</title>
<path fill="none" stroke="midnightblue" d="M333.045,-73.3196C349.664,-68.1852 368.532,-62.3559 383.972,-57.5859"/>
<polygon fill="midnightblue" stroke="midnightblue" points="331.559,-70.1151 323.038,-76.411 333.626,-76.8032 331.559,-70.1151"/>
</g>
<!-- Node6 -->
<g id="node6" class="node"><title>Node6</title>
<g id="a_node6"><a xlink:href="classengine.html#a90418b124cd07d7d2f057e7d401ed641" target="_top" xlink:title="engine::_tick">
<polygon fill="none" stroke="black" points="495,-57.5 495,-76.5 567,-76.5 567,-57.5 495,-57.5"/>
<text text-anchor="middle" x="531" y="-64.5" font-family="Helvetica,sans-Serif" font-size="10.00">engine::_tick</text>
</a>
</g>
</g>
<!-- Node5&#45;&gt;Node6 -->
<g id="edge5" class="edge"><title>Node5&#45;&gt;Node6</title>
<path fill="none" stroke="midnightblue" d="M462.921,-49.0775C477.923,-51.2953 493.957,-54.3417 506.586,-57.4705"/>
<polygon fill="midnightblue" stroke="midnightblue" points="463.137,-45.5744 452.754,-47.6836 462.186,-52.5095 463.137,-45.5744"/>
</g>
<!-- Node6&#45;&gt;Node5 -->
<g id="edge11" class="edge"><title>Node6&#45;&gt;Node5</title>
<path fill="none" stroke="midnightblue" d="M484.371,-65.9655C469.285,-63.7442 453.125,-60.6786 440.414,-57.5295"/>
<polygon fill="midnightblue" stroke="midnightblue" points="484.206,-69.4754 494.588,-67.3592 485.152,-62.5397 484.206,-69.4754"/>
</g>
<!-- Node7 -->
<g id="node7" class="node"><title>Node7</title>
<g id="a_node7"><a xlink:href="classengine.html#a4bca5e9257e46c09a63f71227fc25a12" target="_top" xlink:title="engine::tick">
<polygon fill="none" stroke="black" points="603,-19.5 603,-38.5 670,-38.5 670,-19.5 603,-19.5"/>
<text text-anchor="middle" x="636.5" y="-26.5" font-family="Helvetica,sans-Serif" font-size="10.00">engine::tick</text>
</a>
</g>
</g>
<!-- Node6&#45;&gt;Node7 -->
<g id="edge6" class="edge"><title>Node6&#45;&gt;Node7</title>
<path fill="none" stroke="midnightblue" d="M567.729,-53.882C581.418,-48.8561 596.767,-43.2209 609.391,-38.5859"/>
<polygon fill="midnightblue" stroke="midnightblue" points="566.298,-50.6788 558.117,-57.411 568.711,-57.2499 566.298,-50.6788"/>
</g>
<!-- Node7&#45;&gt;Node5 -->
<g id="edge10" class="edge"><title>Node7&#45;&gt;Node5</title>
<path fill="none" stroke="midnightblue" d="M592.585,-32.7318C551.696,-36.2873 490.86,-41.5774 452.592,-44.905"/>
<polygon fill="midnightblue" stroke="midnightblue" points="593.122,-36.1984 602.781,-31.8451 592.515,-29.2247 593.122,-36.1984"/>
</g>
<!-- Node8 -->
<g id="node8" class="node"><title>Node8</title>
<g id="a_node8"><a xlink:href="classengine.html#a1d9b806d03be0255a8ac3c119e181cc5" target="_top" xlink:title="engine::_run">
<polygon fill="none" stroke="black" points="706,-0.5 706,-19.5 776,-19.5 776,-0.5 706,-0.5"/>
<text text-anchor="middle" x="741" y="-7.5" font-family="Helvetica,sans-Serif" font-size="10.00">engine::_run</text>
</a>
</g>
</g>
<!-- Node7&#45;&gt;Node8 -->
<g id="edge7" class="edge"><title>Node7&#45;&gt;Node8</title>
<path fill="none" stroke="midnightblue" d="M680.077,-21.1076C688.662,-19.5164 697.581,-17.8631 705.832,-16.3335"/>
<polygon fill="midnightblue" stroke="midnightblue" points="679.408,-17.672 670.213,-22.936 680.684,-24.5547 679.408,-17.672"/>
</g>
<!-- Node8&#45;&gt;Node5 -->
<g id="edge9" class="edge"><title>Node8&#45;&gt;Node5</title>
<path fill="none" stroke="midnightblue" d="M695.596,-7.74994C668.727,-6.94709 633.815,-6.89333 603,-10 554.261,-14.9137 542.993,-22.1894 495,-32 481.186,-34.8239 465.997,-37.9375 452.722,-40.6617"/>
<polygon fill="midnightblue" stroke="midnightblue" points="695.728,-11.2565 705.842,-8.10361 695.969,-4.26063 695.728,-11.2565"/>
</g>
<!-- Node9 -->
<g id="node9" class="node"><title>Node9</title>
<g id="a_node9"><a xlink:href="classengine.html#aecb22d51cc8f83cacbf3696a18d66c30" target="_top" xlink:title="engine::run">
<polygon fill="none" stroke="black" points="812,-0.5 812,-19.5 877,-19.5 877,-0.5 812,-0.5"/>
<text text-anchor="middle" x="844.5" y="-7.5" font-family="Helvetica,sans-Serif" font-size="10.00">engine::run</text>
</a>
</g>
</g>
<!-- Node8&#45;&gt;Node9 -->
<g id="edge8" class="edge"><title>Node8&#45;&gt;Node9</title>
<path fill="none" stroke="midnightblue" d="M786.325,-10C794.879,-10 803.681,-10 811.737,-10"/>
<polygon fill="midnightblue" stroke="midnightblue" points="786.08,-6.5001 776.08,-10 786.08,-13.5001 786.08,-6.5001"/>
</g>
</g>
</svg>
