<?xml version="1.0" encoding="UTF-8" standalone="no"?>
<!DOCTYPE svg PUBLIC "-//W3C//DTD SVG 1.1//EN"
 "http://www.w3.org/Graphics/SVG/1.1/DTD/svg11.dtd">
<!-- Generated by graphviz version 2.38.0 (20140413.2041)
 -->
<!-- Title: C:/Users/micho/Desktop/mt_engine/mt/engine.cpp Pages: 1 -->
<!--zoomable 442 -->
<svg id="main" version="1.1" xmlns="http://www.w3.org/2000/svg" xmlns:xlink="http://www.w3.org/1999/xlink" xml:space="preserve" onload="init(evt)">
<style type="text/css"><![CDATA[
.edge:hover path { stroke: red; }
.edge:hover polygon { stroke: red; fill: red; }
]]></style>
<script type="text/javascript"><![CDATA[
var edges = document.getElementsByTagName('g');
if (edges && edges.length) {
  for (var i=0;i<edges.length;i++) {
    if (edges[i].id.substr(0,4)=='edge') {
      edges[i].setAttribute('class','edge');
    }
  }
}
]]></script>
        <defs>
                <circle id="rim" cx="0" cy="0" r="7"/>
                <circle id="rim2" cx="0" cy="0" r="3.5"/>
                <g id="zoomPlus">
                        <use xlink:href="#rim" fill="#404040">
                                <set attributeName="fill" to="#808080" begin="zoomplus.mouseover" end="zoomplus.mouseout"/>
                        </use>
                        <path d="M-4,0h8M0,-4v8" fill="none" stroke="white" stroke-width="1.5" pointer-events="none"/>
                </g>
                <g id="zoomMin">
                        <use xlink:href="#rim" fill="#404040">
                                <set attributeName="fill" to="#808080" begin="zoomminus.mouseover" end="zoomminus.mouseout"/>
                        </use>
                        <path d="M-4,0h8" fill="none" stroke="white" stroke-width="1.5" pointer-events="none"/>
                </g>
                <g id="dirArrow">
                        <path fill="none" stroke="white" stroke-width="1.5" d="M0,-3.0v7 M-2.5,-0.5L0,-3.0L2.5,-0.5"/>
                </g>
               <g id="resetDef">
                       <use xlink:href="#rim2" fill="#404040">
                               <set attributeName="fill" to="#808080" begin="reset.mouseover" end="reset.mouseout"/>
                       </use>
               </g>
        </defs>

<script type="text/javascript">
var viewWidth = 1974;
var viewHeight = 442;
var sectionId = 'dynsection-0';
</script>
<script xlink:href="svgpan.js"/>
<svg id="graph" class="graph">
<g id="viewport">
<title>C:/Users/micho/Desktop/mt_engine/mt/engine.cpp</title>
<!-- Node1 -->
<g id="node1" class="node"><title>Node1</title>
<polygon fill="#bfbfbf" stroke="black" points="1748.73,-403.5 1748.73,-433.5 1877.73,-433.5 1877.73,-403.5 1748.73,-403.5"/>
<text text-anchor="start" x="1756.73" y="-421.5" font-family="Helvetica,sans-Serif" font-size="10.00">C:/Users/micho/Desktop</text>
<text text-anchor="middle" x="1813.23" y="-410.5" font-family="Helvetica,sans-Serif" font-size="10.00">/mt_engine/mt/engine.cpp</text>
</g>
<!-- Node2 -->
<g id="node2" class="node"><title>Node2</title>
<g id="a_node2"><a xlink:href="engine_8hpp.html" target="_top" xlink:title="../mt/engine.hpp">
<polygon fill="none" stroke="black" points="1555.73,-347.5 1555.73,-366.5 1642.73,-366.5 1642.73,-347.5 1555.73,-347.5"/>
<text text-anchor="middle" x="1599.23" y="-354.5" font-family="Helvetica,sans-Serif" font-size="10.00">../mt/engine.hpp</text>
</a>
</g>
</g>
<!-- Node1&#45;&gt;Node2 -->
<g id="edge1" class="edge"><title>Node1&#45;&gt;Node2</title>
<path fill="none" stroke="midnightblue" d="M1762.79,-403.475C1725.22,-393.03 1674.61,-378.958 1639.68,-369.247"/>
<polygon fill="midnightblue" stroke="midnightblue" points="1640.4,-365.813 1629.82,-366.506 1638.52,-372.557 1640.4,-365.813"/>
</g>
<!-- Node48 -->
<g id="node48" class="node"><title>Node48</title>
<polygon fill="none" stroke="#bfbfbf" points="1791.23,-168.5 1791.23,-187.5 1861.23,-187.5 1861.23,-168.5 1791.23,-168.5"/>
<text text-anchor="middle" x="1826.23" y="-175.5" font-family="Helvetica,sans-Serif" font-size="10.00">WindowsX.h</text>
</g>
<!-- Node1&#45;&gt;Node48 -->
<g id="edge66" class="edge"><title>Node1&#45;&gt;Node48</title>
<path fill="none" stroke="midnightblue" d="M1814,-403.295C1816.23,-362.433 1822.66,-244.551 1825.19,-198.12"/>
<polygon fill="midnightblue" stroke="midnightblue" points="1828.69,-198.121 1825.74,-187.946 1821.7,-197.74 1828.69,-198.121"/>
</g>
<!-- Node50 -->
<g id="node50" class="node"><title>Node50</title>
<polygon fill="none" stroke="#bfbfbf" points="1841.23,-347.5 1841.23,-366.5 1885.23,-366.5 1885.23,-347.5 1841.23,-347.5"/>
<text text-anchor="middle" x="1863.23" y="-354.5" font-family="Helvetica,sans-Serif" font-size="10.00">thread</text>
</g>
<!-- Node1&#45;&gt;Node50 -->
<g id="edge67" class="edge"><title>Node1&#45;&gt;Node50</title>
<path fill="none" stroke="midnightblue" d="M1825.08,-403.399C1832.34,-394.753 1841.68,-383.642 1849.3,-374.576"/>
<polygon fill="midnightblue" stroke="midnightblue" points="1852.2,-376.565 1855.95,-366.658 1846.84,-372.062 1852.2,-376.565"/>
</g>
<!-- Node3 -->
<g id="node3" class="node"><title>Node3</title>
<g id="a_node3"><a xlink:href="_game_timer_8hpp.html" target="_top" xlink:title="../mt/GameTimer.hpp">
<polygon fill="none" stroke="black" points="1826.73,-112.5 1826.73,-131.5 1935.73,-131.5 1935.73,-112.5 1826.73,-112.5"/>
<text text-anchor="middle" x="1881.23" y="-119.5" font-family="Helvetica,sans-Serif" font-size="10.00">../mt/GameTimer.hpp</text>
</a>
</g>
</g>
<!-- Node2&#45;&gt;Node3 -->
<g id="edge2" class="edge"><title>Node2&#45;&gt;Node3</title>
<path fill="none" stroke="midnightblue" d="M1621.35,-347.407C1639.82,-339.593 1666.26,-326.872 1686.23,-311 1716.83,-286.673 1721.49,-276.497 1743.23,-244 1764.34,-212.443 1754.75,-194.201 1782.23,-168 1798.24,-152.73 1820.34,-142.01 1839.6,-134.874"/>
<polygon fill="midnightblue" stroke="midnightblue" points="1840.79,-138.166 1849.08,-131.56 1838.48,-131.558 1840.79,-138.166"/>
</g>
<!-- Node6 -->
<g id="node6" class="node"><title>Node6</title>
<g id="a_node6"><a xlink:href="_direct_x_renderer_8hpp.html" target="_top" xlink:title="../mt/DirectXRenderer.hpp">
<polygon fill="none" stroke="black" points="822.229,-286 822.229,-305 950.229,-305 950.229,-286 822.229,-286"/>
<text text-anchor="middle" x="886.229" y="-293" font-family="Helvetica,sans-Serif" font-size="10.00">../mt/DirectXRenderer.hpp</text>
</a>
</g>
</g>
<!-- Node2&#45;&gt;Node6 -->
<g id="edge5" class="edge"><title>Node2&#45;&gt;Node6</title>
<path fill="none" stroke="midnightblue" d="M1555.7,-352.368C1437.45,-342.499 1109.2,-315.107 960.792,-302.722"/>
<polygon fill="midnightblue" stroke="midnightblue" points="960.679,-299.201 950.422,-301.857 960.096,-306.176 960.679,-299.201"/>
</g>
<!-- Node46 -->
<g id="node46" class="node"><title>Node46</title>
<g id="a_node46"><a xlink:href="_windows_message_handling_service_8hpp.html" target="_top" xlink:title="../mt/WindowsMessageHandling\lService.hpp">
<polygon fill="none" stroke="black" points="1520.73,-280.5 1520.73,-310.5 1677.73,-310.5 1677.73,-280.5 1520.73,-280.5"/>
<text text-anchor="start" x="1528.73" y="-298.5" font-family="Helvetica,sans-Serif" font-size="10.00">../mt/WindowsMessageHandling</text>
<text text-anchor="middle" x="1599.23" y="-287.5" font-family="Helvetica,sans-Serif" font-size="10.00">Service.hpp</text>
</a>
</g>
</g>
<!-- Node2&#45;&gt;Node46 -->
<g id="edge59" class="edge"><title>Node2&#45;&gt;Node46</title>
<path fill="none" stroke="midnightblue" d="M1599.23,-347.475C1599.23,-340.471 1599.23,-330.192 1599.23,-320.696"/>
<polygon fill="midnightblue" stroke="midnightblue" points="1602.73,-320.523 1599.23,-310.523 1595.73,-320.523 1602.73,-320.523"/>
</g>
<!-- Node49 -->
<g id="node49" class="node"><title>Node49</title>
<g id="a_node49"><a xlink:href="_command_queue_8hpp.html" target="_top" xlink:title="../mt/CommandQueue.hpp">
<polygon fill="none" stroke="black" points="1375.73,-168.5 1375.73,-187.5 1506.73,-187.5 1506.73,-168.5 1375.73,-168.5"/>
<text text-anchor="middle" x="1441.23" y="-175.5" font-family="Helvetica,sans-Serif" font-size="10.00">../mt/CommandQueue.hpp</text>
</a>
</g>
</g>
<!-- Node2&#45;&gt;Node49 -->
<g id="edge64" class="edge"><title>Node2&#45;&gt;Node49</title>
<path fill="none" stroke="midnightblue" d="M1572.75,-347.35C1553.76,-340.076 1528.59,-328.101 1511.23,-311 1477.46,-277.732 1456.23,-224.697 1446.85,-197.069"/>
<polygon fill="midnightblue" stroke="midnightblue" points="1450.16,-195.939 1443.74,-187.515 1443.51,-198.107 1450.16,-195.939"/>
</g>
<!-- Node4 -->
<g id="node4" class="node"><title>Node4</title>
<polygon fill="none" stroke="#bfbfbf" points="1858.23,-56.5 1858.23,-75.5 1904.23,-75.5 1904.23,-56.5 1858.23,-56.5"/>
<text text-anchor="middle" x="1881.23" y="-63.5" font-family="Helvetica,sans-Serif" font-size="10.00">chrono</text>
</g>
<!-- Node3&#45;&gt;Node4 -->
<g id="edge3" class="edge"><title>Node3&#45;&gt;Node4</title>
<path fill="none" stroke="midnightblue" d="M1881.23,-112.083C1881.23,-105.006 1881.23,-94.8611 1881.23,-85.9865"/>
<polygon fill="midnightblue" stroke="midnightblue" points="1884.73,-85.751 1881.23,-75.7511 1877.73,-85.7511 1884.73,-85.751"/>
</g>
<!-- Node5 -->
<g id="node5" class="node"><title>Node5</title>
<polygon fill="none" stroke="#bfbfbf" points="1922.73,-56.5 1922.73,-75.5 1965.73,-75.5 1965.73,-56.5 1922.73,-56.5"/>
<text text-anchor="middle" x="1944.23" y="-63.5" font-family="Helvetica,sans-Serif" font-size="10.00">queue</text>
</g>
<!-- Node3&#45;&gt;Node5 -->
<g id="edge4" class="edge"><title>Node3&#45;&gt;Node5</title>
<path fill="none" stroke="midnightblue" d="M1891.35,-112.324C1900.76,-104.263 1914.97,-92.0765 1926.3,-82.3695"/>
<polygon fill="midnightblue" stroke="midnightblue" points="1928.61,-84.9993 1933.92,-75.8339 1924.05,-79.6844 1928.61,-84.9993"/>
</g>
<!-- Node7 -->
<g id="node7" class="node"><title>Node7</title>
<g id="a_node7"><a xlink:href="d3d_util_8h.html" target="_top" xlink:title="../mt/d3dUtil.h">
<polygon fill="none" stroke="black" points="807.229,-168.5 807.229,-187.5 885.229,-187.5 885.229,-168.5 807.229,-168.5"/>
<text text-anchor="middle" x="846.229" y="-175.5" font-family="Helvetica,sans-Serif" font-size="10.00">../mt/d3dUtil.h</text>
</a>
</g>
</g>
<!-- Node6&#45;&gt;Node7 -->
<g id="edge6" class="edge"><title>Node6&#45;&gt;Node7</title>
<path fill="none" stroke="midnightblue" d="M884.158,-285.691C880.895,-272.22 874.111,-245.772 866.229,-224 862.956,-214.956 858.697,-205.171 854.951,-197.042"/>
<polygon fill="midnightblue" stroke="midnightblue" points="858.028,-195.361 850.593,-187.812 851.698,-198.349 858.028,-195.361"/>
</g>
<!-- Node18 -->
<g id="node18" class="node"><title>Node18</title>
<polygon fill="none" stroke="#bfbfbf" points="12.7294,-56.5 12.7294,-75.5 53.7294,-75.5 53.7294,-56.5 12.7294,-56.5"/>
<text text-anchor="middle" x="33.2294" y="-63.5" font-family="Helvetica,sans-Serif" font-size="10.00">string</text>
</g>
<!-- Node6&#45;&gt;Node18 -->
<g id="edge58" class="edge"><title>Node6&#45;&gt;Node18</title>
<path fill="none" stroke="midnightblue" d="M822.145,-295.071C680.084,-293.57 332.095,-274.425 89.2294,-132 69.625,-120.503 53.4967,-99.6211 43.6649,-84.6251"/>
<polygon fill="midnightblue" stroke="midnightblue" points="46.4057,-82.4063 38.14,-75.7784 40.4684,-86.1142 46.4057,-82.4063"/>
</g>
<!-- Node44 -->
<g id="node44" class="node"><title>Node44</title>
<g id="a_node44"><a xlink:href="_upload_buffer_8h.html" target="_top" xlink:title="../mt/UploadBuffer.h">
<polygon fill="none" stroke="black" points="754.729,-224.5 754.729,-243.5 857.729,-243.5 857.729,-224.5 754.729,-224.5"/>
<text text-anchor="middle" x="806.229" y="-231.5" font-family="Helvetica,sans-Serif" font-size="10.00">../mt/UploadBuffer.h</text>
</a>
</g>
</g>
<!-- Node6&#45;&gt;Node44 -->
<g id="edge53" class="edge"><title>Node6&#45;&gt;Node44</title>
<path fill="none" stroke="midnightblue" d="M874.767,-285.975C862.054,-276.52 841.317,-261.096 825.977,-249.687"/>
<polygon fill="midnightblue" stroke="midnightblue" points="827.783,-246.669 817.67,-243.509 823.605,-252.285 827.783,-246.669"/>
</g>
<!-- Node45 -->
<g id="node45" class="node"><title>Node45</title>
<g id="a_node45"><a xlink:href="_camera_8hpp.html" target="_top" xlink:title="../mt/Camera.hpp">
<polygon fill="none" stroke="black" points="914.229,-224.5 914.229,-243.5 1006.23,-243.5 1006.23,-224.5 914.229,-224.5"/>
<text text-anchor="middle" x="960.229" y="-231.5" font-family="Helvetica,sans-Serif" font-size="10.00">../mt/Camera.hpp</text>
</a>
</g>
</g>
<!-- Node6&#45;&gt;Node45 -->
<g id="edge55" class="edge"><title>Node6&#45;&gt;Node45</title>
<path fill="none" stroke="midnightblue" d="M896.832,-285.975C908.481,-276.608 927.416,-261.384 941.564,-250.008"/>
<polygon fill="midnightblue" stroke="midnightblue" points="944.047,-252.503 949.647,-243.509 939.66,-247.048 944.047,-252.503"/>
</g>
<!-- Node8 -->
<g id="node8" class="node"><title>Node8</title>
<g id="a_node8"><a xlink:href="utility_8hpp.html" target="_top" xlink:title="../mt/utility.hpp">
<polygon fill="none" stroke="black" points="1494.23,-112.5 1494.23,-131.5 1576.23,-131.5 1576.23,-112.5 1494.23,-112.5"/>
<text text-anchor="middle" x="1535.23" y="-119.5" font-family="Helvetica,sans-Serif" font-size="10.00">../mt/utility.hpp</text>
</a>
</g>
</g>
<!-- Node7&#45;&gt;Node8 -->
<g id="edge7" class="edge"><title>Node7&#45;&gt;Node8</title>
<path fill="none" stroke="midnightblue" d="M885.303,-175.47C984.819,-171.304 1255.83,-158.268 1480.23,-132 1481.5,-131.851 1482.79,-131.694 1484.08,-131.529"/>
<polygon fill="midnightblue" stroke="midnightblue" points="1484.71,-134.976 1494.14,-130.144 1483.76,-128.041 1484.71,-134.976"/>
</g>
<!-- Node9 -->
<g id="node9" class="node"><title>Node9</title>
<polygon fill="none" stroke="#bfbfbf" points="1119.23,-56.5 1119.23,-75.5 1175.23,-75.5 1175.23,-56.5 1119.23,-56.5"/>
<text text-anchor="middle" x="1147.23" y="-63.5" font-family="Helvetica,sans-Serif" font-size="10.00">algorithm</text>
</g>
<!-- Node7&#45;&gt;Node9 -->
<g id="edge37" class="edge"><title>Node7&#45;&gt;Node9</title>
<path fill="none" stroke="midnightblue" d="M806.984,-176.876C693.889,-175.855 378.622,-168.017 431.229,-112 454.598,-87.1162 963.183,-71.8468 1108.67,-67.9768"/>
<polygon fill="midnightblue" stroke="midnightblue" points="1108.99,-71.4696 1118.9,-67.7077 1108.81,-64.4721 1108.99,-71.4696"/>
</g>
<!-- Node7&#45;&gt;Node18 -->
<g id="edge35" class="edge"><title>Node7&#45;&gt;Node18</title>
<path fill="none" stroke="midnightblue" d="M807.024,-177.105C676.947,-177.054 260.723,-173.565 134.229,-132 101.933,-121.388 69.8096,-97.9302 50.7373,-82.2923"/>
<polygon fill="midnightblue" stroke="midnightblue" points="52.8445,-79.4912 42.939,-75.7318 48.3381,-84.8477 52.8445,-79.4912"/>
</g>
<!-- Node22 -->
<g id="node22" class="node"><title>Node22</title>
<g id="a_node22"><a xlink:href="_math_helper_8h.html" target="_top" xlink:title="../mt/MathHelper.h">
<polygon fill="none" stroke="red" points="726.229,-56.5 726.229,-75.5 824.229,-75.5 824.229,-56.5 726.229,-56.5"/>
<text text-anchor="middle" x="775.229" y="-63.5" font-family="Helvetica,sans-Serif" font-size="10.00">../mt/MathHelper.h</text>
</a>
</g>
</g>
<!-- Node7&#45;&gt;Node22 -->
<g id="edge52" class="edge"><title>Node7&#45;&gt;Node22</title>
<path fill="none" stroke="midnightblue" d="M807.012,-176.005C702.866,-172.959 425.432,-162.072 398.229,-132 354.547,-83.7099 598.957,-71.2613 715.76,-68.0793"/>
<polygon fill="midnightblue" stroke="midnightblue" points="716.069,-71.5726 725.976,-67.8158 715.889,-64.575 716.069,-71.5726"/>
</g>
<!-- Node23 -->
<g id="node23" class="node"><title>Node23</title>
<polygon fill="none" stroke="#bfbfbf" points="875.729,-0.5 875.729,-19.5 952.729,-19.5 952.729,-0.5 875.729,-0.5"/>
<text text-anchor="middle" x="914.229" y="-7.5" font-family="Helvetica,sans-Serif" font-size="10.00">DirectXMath.h</text>
</g>
<!-- Node7&#45;&gt;Node23 -->
<g id="edge31" class="edge"><title>Node7&#45;&gt;Node23</title>
<path fill="none" stroke="midnightblue" d="M885.545,-175.509C1015.96,-170.373 1427.11,-152.604 1446.23,-132 1452.28,-125.484 1452.17,-118.612 1446.23,-112 1396.04,-56.1437 1183.62,-91.9094 1110.23,-76 1050.09,-62.9621 982.472,-38.183 944.449,-23.2711"/>
<polygon fill="midnightblue" stroke="midnightblue" points="945.577,-19.9535 934.991,-19.5253 943,-26.4616 945.577,-19.9535"/>
</g>
<!-- Node24 -->
<g id="node24" class="node"><title>Node24</title>
<polygon fill="none" stroke="#bfbfbf" points="536.229,-0.5 536.229,-19.5 582.229,-19.5 582.229,-0.5 536.229,-0.5"/>
<text text-anchor="middle" x="559.229" y="-7.5" font-family="Helvetica,sans-Serif" font-size="10.00">cstdint</text>
</g>
<!-- Node7&#45;&gt;Node24 -->
<g id="edge41" class="edge"><title>Node7&#45;&gt;Node24</title>
<path fill="none" stroke="midnightblue" d="M806.991,-176.087C701.361,-173.226 417.07,-162.717 389.229,-132 341.871,-79.7489 464.831,-36.9979 526.472,-19.5114"/>
<polygon fill="midnightblue" stroke="midnightblue" points="527.454,-22.8713 536.157,-16.8286 525.585,-16.1253 527.454,-22.8713"/>
</g>
<!-- Node25 -->
<g id="node25" class="node"><title>Node25</title>
<polygon fill="none" stroke="#bfbfbf" points="1600.23,-112.5 1600.23,-131.5 1662.23,-131.5 1662.23,-112.5 1600.23,-112.5"/>
<text text-anchor="middle" x="1631.23" y="-119.5" font-family="Helvetica,sans-Serif" font-size="10.00">windows.h</text>
</g>
<!-- Node7&#45;&gt;Node25 -->
<g id="edge26" class="edge"><title>Node7&#45;&gt;Node25</title>
<path fill="none" stroke="midnightblue" d="M885.26,-176.441C995.6,-174.468 1319.07,-165.989 1585.23,-132 1586.74,-131.807 1588.28,-131.593 1589.83,-131.364"/>
<polygon fill="midnightblue" stroke="midnightblue" points="1590.85,-134.744 1600.14,-129.661 1589.71,-127.838 1590.85,-134.744"/>
</g>
<!-- Node26 -->
<g id="node26" class="node"><title>Node26</title>
<polygon fill="none" stroke="#bfbfbf" points="170.729,-56.5 170.729,-75.5 207.729,-75.5 207.729,-56.5 170.729,-56.5"/>
<text text-anchor="middle" x="189.229" y="-63.5" font-family="Helvetica,sans-Serif" font-size="10.00">wrl.h</text>
</g>
<!-- Node7&#45;&gt;Node26 -->
<g id="edge27" class="edge"><title>Node7&#45;&gt;Node26</title>
<path fill="none" stroke="midnightblue" d="M806.92,-177.434C668.972,-178.55 212.892,-178.661 169.229,-132 157.053,-118.988 166.188,-98.7235 175.736,-84.2825"/>
<polygon fill="midnightblue" stroke="midnightblue" points="178.86,-85.9324 181.851,-75.7683 173.175,-81.8491 178.86,-85.9324"/>
</g>
<!-- Node27 -->
<g id="node27" class="node"><title>Node27</title>
<polygon fill="none" stroke="#bfbfbf" points="440.729,-112.5 440.729,-131.5 499.729,-131.5 499.729,-112.5 440.729,-112.5"/>
<text text-anchor="middle" x="470.229" y="-119.5" font-family="Helvetica,sans-Serif" font-size="10.00">dxgi1_4.h</text>
</g>
<!-- Node7&#45;&gt;Node27 -->
<g id="edge28" class="edge"><title>Node7&#45;&gt;Node27</title>
<path fill="none" stroke="midnightblue" d="M807.124,-172.987C745.908,-166.442 623.561,-152.303 509.895,-131.963"/>
<polygon fill="midnightblue" stroke="midnightblue" points="510.444,-128.506 499.98,-130.169 509.197,-135.394 510.444,-128.506"/>
</g>
<!-- Node28 -->
<g id="node28" class="node"><title>Node28</title>
<polygon fill="none" stroke="#bfbfbf" points="22.7294,-0.5 22.7294,-19.5 73.7294,-19.5 73.7294,-0.5 22.7294,-0.5"/>
<text text-anchor="middle" x="48.2294" y="-7.5" font-family="Helvetica,sans-Serif" font-size="10.00">d3d12.h</text>
</g>
<!-- Node7&#45;&gt;Node28 -->
<g id="edge29" class="edge"><title>Node7&#45;&gt;Node28</title>
<path fill="none" stroke="midnightblue" d="M806.923,-177.304C671.383,-177.944 224.432,-176.547 89.2294,-132 45.9089,-117.727 24.9685,-116.097 3.22936,-76 -6.63063,-57.8134 10.7196,-38.5098 26.6566,-25.709"/>
<polygon fill="midnightblue" stroke="midnightblue" points="28.8247,-28.4578 34.7102,-19.6481 24.6155,-22.8647 28.8247,-28.4578"/>
</g>
<!-- Node29 -->
<g id="node29" class="node"><title>Node29</title>
<polygon fill="none" stroke="#bfbfbf" points="518.229,-112.5 518.229,-131.5 598.229,-131.5 598.229,-112.5 518.229,-112.5"/>
<text text-anchor="middle" x="558.229" y="-119.5" font-family="Helvetica,sans-Serif" font-size="10.00">D3Dcompiler.h</text>
</g>
<!-- Node7&#45;&gt;Node29 -->
<g id="edge30" class="edge"><title>Node7&#45;&gt;Node29</title>
<path fill="none" stroke="midnightblue" d="M807.089,-169.661C755.69,-160.024 665.361,-143.087 608.823,-132.486"/>
<polygon fill="midnightblue" stroke="midnightblue" points="609.151,-128.987 598.677,-130.584 607.861,-135.867 609.151,-128.987"/>
</g>
<!-- Node30 -->
<g id="node30" class="node"><title>Node30</title>
<polygon fill="none" stroke="#bfbfbf" points="616.729,-112.5 616.729,-131.5 733.729,-131.5 733.729,-112.5 616.729,-112.5"/>
<text text-anchor="middle" x="675.229" y="-119.5" font-family="Helvetica,sans-Serif" font-size="10.00">DirectXPackedVector.h</text>
</g>
<!-- Node7&#45;&gt;Node30 -->
<g id="edge32" class="edge"><title>Node7&#45;&gt;Node30</title>
<path fill="none" stroke="midnightblue" d="M819.134,-168.444C790.241,-159.32 744.305,-144.813 712.124,-134.651"/>
<polygon fill="midnightblue" stroke="midnightblue" points="712.788,-131.19 702.198,-131.516 710.68,-137.865 712.788,-131.19"/>
</g>
<!-- Node31 -->
<g id="node31" class="node"><title>Node31</title>
<polygon fill="none" stroke="#bfbfbf" points="751.729,-112.5 751.729,-131.5 834.729,-131.5 834.729,-112.5 751.729,-112.5"/>
<text text-anchor="middle" x="793.229" y="-119.5" font-family="Helvetica,sans-Serif" font-size="10.00">DirectXColors.h</text>
</g>
<!-- Node7&#45;&gt;Node31 -->
<g id="edge33" class="edge"><title>Node7&#45;&gt;Node31</title>
<path fill="none" stroke="midnightblue" d="M837.477,-168.083C829.76,-160.22 818.325,-148.569 809.013,-139.081"/>
<polygon fill="midnightblue" stroke="midnightblue" points="811.321,-136.436 801.818,-131.751 806.325,-141.34 811.321,-136.436"/>
</g>
<!-- Node32 -->
<g id="node32" class="node"><title>Node32</title>
<polygon fill="none" stroke="#bfbfbf" points="853.229,-112.5 853.229,-131.5 945.229,-131.5 945.229,-112.5 853.229,-112.5"/>
<text text-anchor="middle" x="899.229" y="-119.5" font-family="Helvetica,sans-Serif" font-size="10.00">DirectXCollision.h</text>
</g>
<!-- Node7&#45;&gt;Node32 -->
<g id="edge34" class="edge"><title>Node7&#45;&gt;Node32</title>
<path fill="none" stroke="midnightblue" d="M854.981,-168.083C862.699,-160.22 874.134,-148.569 883.446,-139.081"/>
<polygon fill="midnightblue" stroke="midnightblue" points="886.134,-141.34 890.64,-131.751 881.138,-136.436 886.134,-141.34"/>
</g>
<!-- Node33 -->
<g id="node33" class="node"><title>Node33</title>
<polygon fill="none" stroke="#bfbfbf" points="963.229,-112.5 963.229,-131.5 1015.23,-131.5 1015.23,-112.5 963.229,-112.5"/>
<text text-anchor="middle" x="989.229" y="-119.5" font-family="Helvetica,sans-Serif" font-size="10.00">memory</text>
</g>
<!-- Node7&#45;&gt;Node33 -->
<g id="edge36" class="edge"><title>Node7&#45;&gt;Node33</title>
<path fill="none" stroke="midnightblue" d="M868.888,-168.444C892.631,-159.478 930.139,-145.314 956.968,-135.183"/>
<polygon fill="midnightblue" stroke="midnightblue" points="958.558,-138.324 966.677,-131.516 956.085,-131.775 958.558,-138.324"/>
</g>
<!-- Node34 -->
<g id="node34" class="node"><title>Node34</title>
<polygon fill="none" stroke="#bfbfbf" points="1033.23,-112.5 1033.23,-131.5 1075.23,-131.5 1075.23,-112.5 1033.23,-112.5"/>
<text text-anchor="middle" x="1054.23" y="-119.5" font-family="Helvetica,sans-Serif" font-size="10.00">vector</text>
</g>
<!-- Node7&#45;&gt;Node34 -->
<g id="edge38" class="edge"><title>Node7&#45;&gt;Node34</title>
<path fill="none" stroke="midnightblue" d="M881.811,-168.491C915.789,-160.258 968.654,-147.17 1023.13,-132.219"/>
<polygon fill="midnightblue" stroke="midnightblue" points="1024.25,-135.542 1032.96,-129.507 1022.39,-128.794 1024.25,-135.542"/>
</g>
<!-- Node35 -->
<g id="node35" class="node"><title>Node35</title>
<polygon fill="none" stroke="#bfbfbf" points="1093.23,-112.5 1093.23,-131.5 1131.23,-131.5 1131.23,-112.5 1093.23,-112.5"/>
<text text-anchor="middle" x="1112.23" y="-119.5" font-family="Helvetica,sans-Serif" font-size="10.00">array</text>
</g>
<!-- Node7&#45;&gt;Node35 -->
<g id="edge39" class="edge"><title>Node7&#45;&gt;Node35</title>
<path fill="none" stroke="midnightblue" d="M885.304,-171.14C930.688,-163.998 1007.94,-150.809 1082.95,-132.071"/>
<polygon fill="midnightblue" stroke="midnightblue" points="1084.21,-135.364 1093.04,-129.514 1082.49,-128.579 1084.21,-135.364"/>
</g>
<!-- Node36 -->
<g id="node36" class="node"><title>Node36</title>
<polygon fill="none" stroke="#bfbfbf" points="1149.73,-112.5 1149.73,-131.5 1232.73,-131.5 1232.73,-112.5 1149.73,-112.5"/>
<text text-anchor="middle" x="1191.23" y="-119.5" font-family="Helvetica,sans-Serif" font-size="10.00">unordered_map</text>
</g>
<!-- Node7&#45;&gt;Node36 -->
<g id="edge40" class="edge"><title>Node7&#45;&gt;Node36</title>
<path fill="none" stroke="midnightblue" d="M885.271,-171.313C939.757,-163.314 1041.95,-148.079 1139.47,-132.094"/>
<polygon fill="midnightblue" stroke="midnightblue" points="1140.19,-135.521 1149.49,-130.445 1139.06,-128.614 1140.19,-135.521"/>
</g>
<!-- Node37 -->
<g id="node37" class="node"><title>Node37</title>
<polygon fill="none" stroke="#bfbfbf" points="1250.73,-112.5 1250.73,-131.5 1299.73,-131.5 1299.73,-112.5 1250.73,-112.5"/>
<text text-anchor="middle" x="1275.23" y="-119.5" font-family="Helvetica,sans-Serif" font-size="10.00">fstream</text>
</g>
<!-- Node7&#45;&gt;Node37 -->
<g id="edge42" class="edge"><title>Node7&#45;&gt;Node37</title>
<path fill="none" stroke="midnightblue" d="M885.476,-174.428C955.047,-169.458 1104.65,-156.928 1240.29,-131.909"/>
<polygon fill="midnightblue" stroke="midnightblue" points="1241.26,-135.288 1250.44,-130.007 1239.97,-128.407 1241.26,-135.288"/>
</g>
<!-- Node38 -->
<g id="node38" class="node"><title>Node38</title>
<polygon fill="none" stroke="#bfbfbf" points="1318.23,-112.5 1318.23,-131.5 1370.23,-131.5 1370.23,-112.5 1318.23,-112.5"/>
<text text-anchor="middle" x="1344.23" y="-119.5" font-family="Helvetica,sans-Serif" font-size="10.00">sstream</text>
</g>
<!-- Node7&#45;&gt;Node38 -->
<g id="edge43" class="edge"><title>Node7&#45;&gt;Node38</title>
<path fill="none" stroke="midnightblue" d="M885.43,-175.141C963.773,-171.005 1145.33,-159.309 1307.8,-131.789"/>
<polygon fill="midnightblue" stroke="midnightblue" points="1308.72,-135.183 1317.98,-130.039 1307.53,-128.284 1308.72,-135.183"/>
</g>
<!-- Node39 -->
<g id="node39" class="node"><title>Node39</title>
<polygon fill="none" stroke="#bfbfbf" points="1388.73,-112.5 1388.73,-131.5 1437.73,-131.5 1437.73,-112.5 1388.73,-112.5"/>
<text text-anchor="middle" x="1413.23" y="-119.5" font-family="Helvetica,sans-Serif" font-size="10.00">cassert</text>
</g>
<!-- Node7&#45;&gt;Node39 -->
<g id="edge44" class="edge"><title>Node7&#45;&gt;Node39</title>
<path fill="none" stroke="midnightblue" d="M885.315,-176.032C972.335,-173.379 1188.66,-164.024 1378.58,-131.794"/>
<polygon fill="midnightblue" stroke="midnightblue" points="1379.2,-135.239 1388.46,-130.092 1378.01,-128.34 1379.2,-135.239"/>
</g>
<!-- Node40 -->
<g id="node40" class="node"><title>Node40</title>
<g id="a_node40"><a xlink:href="d3dx12_8h.html" target="_top" xlink:title="../mt/d3dx12.h">
<polygon fill="none" stroke="black" points="72.2294,-56.5 72.2294,-75.5 152.229,-75.5 152.229,-56.5 72.2294,-56.5"/>
<text text-anchor="middle" x="112.229" y="-63.5" font-family="Helvetica,sans-Serif" font-size="10.00">../mt/d3dx12.h</text>
</a>
</g>
</g>
<!-- Node7&#45;&gt;Node40 -->
<g id="edge45" class="edge"><title>Node7&#45;&gt;Node40</title>
<path fill="none" stroke="midnightblue" d="M806.799,-176.338C669.403,-173.769 216.983,-163.013 160.229,-132 141.245,-121.626 127.714,-100.162 119.956,-84.7344"/>
<polygon fill="midnightblue" stroke="midnightblue" points="123.108,-83.212 115.692,-75.6453 116.77,-86.1851 123.108,-83.212"/>
</g>
<!-- Node41 -->
<g id="node41" class="node"><title>Node41</title>
<g id="a_node41"><a xlink:href="_d_d_s_texture_loader_8h.html" target="_top" xlink:title="../mt/DDSTextureLoader.h">
<polygon fill="none" stroke="black" points="178.229,-112.5 178.229,-131.5 308.229,-131.5 308.229,-112.5 178.229,-112.5"/>
<text text-anchor="middle" x="243.229" y="-119.5" font-family="Helvetica,sans-Serif" font-size="10.00">../mt/DDSTextureLoader.h</text>
</a>
</g>
</g>
<!-- Node7&#45;&gt;Node41 -->
<g id="edge47" class="edge"><title>Node7&#45;&gt;Node41</title>
<path fill="none" stroke="midnightblue" d="M807.083,-174.012C719.92,-167.277 503.258,-150.081 322.229,-132 320.955,-131.873 319.668,-131.743 318.373,-131.611"/>
<polygon fill="midnightblue" stroke="midnightblue" points="318.621,-128.117 308.311,-130.559 317.893,-135.08 318.621,-128.117"/>
</g>
<!-- Node8&#45;&gt;Node4 -->
<g id="edge9" class="edge"><title>Node8&#45;&gt;Node4</title>
<path fill="none" stroke="midnightblue" d="M1576.5,-114.268C1581.46,-113.488 1586.46,-112.716 1591.23,-112 1702.59,-95.2833 1734.2,-99.4754 1848.1,-76.0017"/>
<polygon fill="midnightblue" stroke="midnightblue" points="1848.83,-79.4247 1857.9,-73.9554 1847.4,-72.5724 1848.83,-79.4247"/>
</g>
<!-- Node8&#45;&gt;Node5 -->
<g id="edge16" class="edge"><title>Node8&#45;&gt;Node5</title>
<path fill="none" stroke="midnightblue" d="M1576.48,-114.14C1581.45,-113.383 1586.45,-112.651 1591.23,-112 1730.71,-93.0058 1770.25,-103.672 1912.68,-75.7581"/>
<polygon fill="midnightblue" stroke="midnightblue" points="1913.54,-79.1559 1922.67,-73.772 1912.18,-72.2904 1913.54,-79.1559"/>
</g>
<!-- Node8&#45;&gt;Node9 -->
<g id="edge8" class="edge"><title>Node8&#45;&gt;Node9</title>
<path fill="none" stroke="midnightblue" d="M1494.11,-114.082C1489.43,-113.351 1484.73,-112.642 1480.23,-112 1352.23,-93.7521 1316.36,-99.4043 1185.45,-76.0334"/>
<polygon fill="midnightblue" stroke="midnightblue" points="1185.9,-72.5588 1175.44,-74.2235 1184.66,-79.4471 1185.9,-72.5588"/>
</g>
<!-- Node10 -->
<g id="node10" class="node"><title>Node10</title>
<polygon fill="none" stroke="#bfbfbf" points="1251.23,-56.5 1251.23,-75.5 1295.23,-75.5 1295.23,-56.5 1251.23,-56.5"/>
<text text-anchor="middle" x="1273.23" y="-63.5" font-family="Helvetica,sans-Serif" font-size="10.00">cmath</text>
</g>
<!-- Node8&#45;&gt;Node10 -->
<g id="edge10" class="edge"><title>Node8&#45;&gt;Node10</title>
<path fill="none" stroke="midnightblue" d="M1494.09,-114.141C1449.79,-106.499 1377.06,-93.2175 1305.59,-76.1623"/>
<polygon fill="midnightblue" stroke="midnightblue" points="1306.06,-72.6751 1295.52,-73.7308 1304.42,-79.4797 1306.06,-72.6751"/>
</g>
<!-- Node11 -->
<g id="node11" class="node"><title>Node11</title>
<polygon fill="none" stroke="#bfbfbf" points="1313.73,-56.5 1313.73,-75.5 1362.73,-75.5 1362.73,-56.5 1313.73,-56.5"/>
<text text-anchor="middle" x="1338.23" y="-63.5" font-family="Helvetica,sans-Serif" font-size="10.00">cstdarg</text>
</g>
<!-- Node8&#45;&gt;Node11 -->
<g id="edge11" class="edge"><title>Node8&#45;&gt;Node11</title>
<path fill="none" stroke="midnightblue" d="M1504.01,-112.444C1468.21,-102.63 1409.7,-86.5905 1372.62,-76.4261"/>
<polygon fill="midnightblue" stroke="midnightblue" points="1373.33,-72.9933 1362.76,-73.7251 1371.48,-79.7442 1373.33,-72.9933"/>
</g>
<!-- Node12 -->
<g id="node12" class="node"><title>Node12</title>
<polygon fill="none" stroke="#bfbfbf" points="1380.73,-56.5 1380.73,-75.5 1423.73,-75.5 1423.73,-56.5 1380.73,-56.5"/>
<text text-anchor="middle" x="1402.23" y="-63.5" font-family="Helvetica,sans-Serif" font-size="10.00">deque</text>
</g>
<!-- Node8&#45;&gt;Node12 -->
<g id="edge12" class="edge"><title>Node8&#45;&gt;Node12</title>
<path fill="none" stroke="midnightblue" d="M1514.16,-112.444C1492.17,-103.517 1457.5,-89.4387 1432.57,-79.3168"/>
<polygon fill="midnightblue" stroke="midnightblue" points="1433.79,-76.0355 1423.21,-75.5164 1431.15,-82.5213 1433.79,-76.0355"/>
</g>
<!-- Node13 -->
<g id="node13" class="node"><title>Node13</title>
<polygon fill="none" stroke="#bfbfbf" points="1441.73,-56.5 1441.73,-75.5 1502.73,-75.5 1502.73,-56.5 1441.73,-56.5"/>
<text text-anchor="middle" x="1472.23" y="-63.5" font-family="Helvetica,sans-Serif" font-size="10.00">filesystem</text>
</g>
<!-- Node8&#45;&gt;Node13 -->
<g id="edge13" class="edge"><title>Node8&#45;&gt;Node13</title>
<path fill="none" stroke="midnightblue" d="M1525.11,-112.324C1515.7,-104.263 1501.49,-92.0765 1490.16,-82.3695"/>
<polygon fill="midnightblue" stroke="midnightblue" points="1492.41,-79.6844 1482.54,-75.8339 1487.85,-84.9993 1492.41,-79.6844"/>
</g>
<!-- Node14 -->
<g id="node14" class="node"><title>Node14</title>
<polygon fill="none" stroke="#bfbfbf" points="1520.73,-56.5 1520.73,-75.5 1549.73,-75.5 1549.73,-56.5 1520.73,-56.5"/>
<text text-anchor="middle" x="1535.23" y="-63.5" font-family="Helvetica,sans-Serif" font-size="10.00">list</text>
</g>
<!-- Node8&#45;&gt;Node14 -->
<g id="edge14" class="edge"><title>Node8&#45;&gt;Node14</title>
<path fill="none" stroke="midnightblue" d="M1535.23,-112.083C1535.23,-105.006 1535.23,-94.8611 1535.23,-85.9865"/>
<polygon fill="midnightblue" stroke="midnightblue" points="1538.73,-85.751 1535.23,-75.7511 1531.73,-85.7511 1538.73,-85.751"/>
</g>
<!-- Node15 -->
<g id="node15" class="node"><title>Node15</title>
<polygon fill="none" stroke="#bfbfbf" points="1567.73,-56.5 1567.73,-75.5 1602.73,-75.5 1602.73,-56.5 1567.73,-56.5"/>
<text text-anchor="middle" x="1585.23" y="-63.5" font-family="Helvetica,sans-Serif" font-size="10.00">map</text>
</g>
<!-- Node8&#45;&gt;Node15 -->
<g id="edge15" class="edge"><title>Node8&#45;&gt;Node15</title>
<path fill="none" stroke="midnightblue" d="M1543.49,-112.083C1550.69,-104.298 1561.34,-92.8015 1570.08,-83.3665"/>
<polygon fill="midnightblue" stroke="midnightblue" points="1572.9,-85.4666 1577.13,-75.7511 1567.76,-80.7108 1572.9,-85.4666"/>
</g>
<!-- Node16 -->
<g id="node16" class="node"><title>Node16</title>
<polygon fill="none" stroke="#bfbfbf" points="1620.73,-56.5 1620.73,-75.5 1655.73,-75.5 1655.73,-56.5 1620.73,-56.5"/>
<text text-anchor="middle" x="1638.23" y="-63.5" font-family="Helvetica,sans-Serif" font-size="10.00">ratio</text>
</g>
<!-- Node8&#45;&gt;Node16 -->
<g id="edge17" class="edge"><title>Node8&#45;&gt;Node16</title>
<path fill="none" stroke="midnightblue" d="M1551.78,-112.324C1568.22,-103.703 1593.66,-90.3643 1612.7,-80.3855"/>
<polygon fill="midnightblue" stroke="midnightblue" points="1614.49,-83.3977 1621.72,-75.6545 1611.24,-77.198 1614.49,-83.3977"/>
</g>
<!-- Node17 -->
<g id="node17" class="node"><title>Node17</title>
<polygon fill="none" stroke="#bfbfbf" points="1674.23,-56.5 1674.23,-75.5 1704.23,-75.5 1704.23,-56.5 1674.23,-56.5"/>
<text text-anchor="middle" x="1689.23" y="-63.5" font-family="Helvetica,sans-Serif" font-size="10.00">set</text>
</g>
<!-- Node8&#45;&gt;Node17 -->
<g id="edge18" class="edge"><title>Node8&#45;&gt;Node17</title>
<path fill="none" stroke="midnightblue" d="M1559.99,-112.446C1585.97,-103.447 1628.01,-88.836 1664.23,-76 1664.33,-75.9644 1664.43,-75.9286 1664.53,-75.8928"/>
<polygon fill="midnightblue" stroke="midnightblue" points="1665.93,-79.1106 1674.17,-72.4497 1663.57,-72.5189 1665.93,-79.1106"/>
</g>
<!-- Node8&#45;&gt;Node18 -->
<g id="edge19" class="edge"><title>Node8&#45;&gt;Node18</title>
<path fill="none" stroke="midnightblue" d="M1494.07,-116.19C1479.04,-114.604 1461.88,-112.994 1446.23,-112 1142.71,-92.7299 383.347,-123.915 64.2823,-75.6167"/>
<polygon fill="midnightblue" stroke="midnightblue" points="64.466,-72.103 54.0451,-74.015 63.3839,-79.0188 64.466,-72.103"/>
</g>
<!-- Node19 -->
<g id="node19" class="node"><title>Node19</title>
<polygon fill="none" stroke="#bfbfbf" points="1722.23,-56.5 1722.23,-75.5 1784.23,-75.5 1784.23,-56.5 1722.23,-56.5"/>
<text text-anchor="middle" x="1753.23" y="-63.5" font-family="Helvetica,sans-Serif" font-size="10.00">type_traits</text>
</g>
<!-- Node8&#45;&gt;Node19 -->
<g id="edge20" class="edge"><title>Node8&#45;&gt;Node19</title>
<path fill="none" stroke="midnightblue" d="M1569.77,-112.444C1608.48,-102.855 1671.19,-87.3223 1712.32,-77.1339"/>
<polygon fill="midnightblue" stroke="midnightblue" points="1713.16,-80.5308 1722.03,-74.729 1711.48,-73.7362 1713.16,-80.5308"/>
</g>
<!-- Node20 -->
<g id="node20" class="node"><title>Node20</title>
<polygon fill="none" stroke="#bfbfbf" points="1802.23,-56.5 1802.23,-75.5 1840.23,-75.5 1840.23,-56.5 1802.23,-56.5"/>
<text text-anchor="middle" x="1821.23" y="-63.5" font-family="Helvetica,sans-Serif" font-size="10.00">tuple</text>
</g>
<!-- Node8&#45;&gt;Node20 -->
<g id="edge21" class="edge"><title>Node8&#45;&gt;Node20</title>
<path fill="none" stroke="midnightblue" d="M1576.32,-114.155C1637.83,-103.863 1750.37,-84.8495 1792.08,-75.8549"/>
<polygon fill="midnightblue" stroke="midnightblue" points="1793.09,-79.212 1802.05,-73.5506 1791.52,-72.3917 1793.09,-79.212"/>
</g>
<!-- Node21 -->
<g id="node21" class="node"><title>Node21</title>
<polygon fill="none" stroke="#bfbfbf" points="1193.23,-56.5 1193.23,-75.5 1233.23,-75.5 1233.23,-56.5 1193.23,-56.5"/>
<text text-anchor="middle" x="1213.23" y="-63.5" font-family="Helvetica,sans-Serif" font-size="10.00">utility</text>
</g>
<!-- Node8&#45;&gt;Node21 -->
<g id="edge22" class="edge"><title>Node8&#45;&gt;Node21</title>
<path fill="none" stroke="midnightblue" d="M1494.09,-114.213C1489.42,-113.458 1484.72,-112.707 1480.23,-112 1377.75,-95.8653 1348.27,-99.6658 1243.45,-75.9871"/>
<polygon fill="midnightblue" stroke="midnightblue" points="1243.93,-72.5081 1233.4,-73.6877 1242.37,-79.3315 1243.93,-72.5081"/>
</g>
<!-- Node8&#45;&gt;Node22 -->
<g id="edge23" class="edge"><title>Node8&#45;&gt;Node22</title>
<path fill="none" stroke="midnightblue" d="M1494.05,-116.542C1479.01,-114.992 1461.86,-113.314 1446.23,-112 1220.64,-93.0348 951.843,-76.9832 834.706,-70.3115"/>
<polygon fill="midnightblue" stroke="midnightblue" points="834.702,-66.8057 824.52,-69.7332 834.305,-73.7945 834.702,-66.8057"/>
</g>
<!-- Node22&#45;&gt;Node23 -->
<g id="edge24" class="edge"><title>Node22&#45;&gt;Node23</title>
<path fill="none" stroke="midnightblue" d="M797.254,-56.4435C820.333,-47.4776 856.791,-33.314 882.87,-23.1827"/>
<polygon fill="midnightblue" stroke="midnightblue" points="884.254,-26.4002 892.307,-19.5164 881.719,-19.8753 884.254,-26.4002"/>
</g>
<!-- Node22&#45;&gt;Node24 -->
<g id="edge25" class="edge"><title>Node22&#45;&gt;Node24</title>
<path fill="none" stroke="midnightblue" d="M741.004,-56.4435C700.186,-46.2391 632.437,-29.3018 592.186,-19.2393"/>
<polygon fill="midnightblue" stroke="midnightblue" points="592.887,-15.8067 582.336,-16.7767 591.189,-22.5977 592.887,-15.8067"/>
</g>
<!-- Node40&#45;&gt;Node28 -->
<g id="edge46" class="edge"><title>Node40&#45;&gt;Node28</title>
<path fill="none" stroke="midnightblue" d="M101.947,-56.324C92.3931,-48.2631 77.9497,-36.0765 66.445,-26.3695"/>
<polygon fill="midnightblue" stroke="midnightblue" points="68.5992,-23.6076 58.6992,-19.8339 64.085,-28.9577 68.5992,-23.6076"/>
</g>
<!-- Node41&#45;&gt;Node26 -->
<g id="edge48" class="edge"><title>Node41&#45;&gt;Node26</title>
<path fill="none" stroke="midnightblue" d="M234.312,-112.083C226.449,-104.22 214.798,-92.5688 205.311,-83.0813"/>
<polygon fill="midnightblue" stroke="midnightblue" points="207.526,-80.3473 197.98,-75.7511 202.577,-85.2971 207.526,-80.3473"/>
</g>
<!-- Node41&#45;&gt;Node40 -->
<g id="edge50" class="edge"><title>Node41&#45;&gt;Node40</title>
<path fill="none" stroke="midnightblue" d="M222.472,-112.444C200.913,-103.557 166.966,-89.5632 142.436,-79.4514"/>
<polygon fill="midnightblue" stroke="midnightblue" points="143.469,-76.0917 132.89,-75.5164 140.801,-82.5634 143.469,-76.0917"/>
</g>
<!-- Node42 -->
<g id="node42" class="node"><title>Node42</title>
<polygon fill="none" stroke="#bfbfbf" points="293.229,-56.5 293.229,-75.5 355.229,-75.5 355.229,-56.5 293.229,-56.5"/>
<text text-anchor="middle" x="324.229" y="-63.5" font-family="Helvetica,sans-Serif" font-size="10.00">d3d11_1.h</text>
</g>
<!-- Node41&#45;&gt;Node42 -->
<g id="edge49" class="edge"><title>Node41&#45;&gt;Node42</title>
<path fill="none" stroke="midnightblue" d="M256.243,-112.324C268.761,-103.979 287.911,-91.2122 302.701,-81.3524"/>
<polygon fill="midnightblue" stroke="midnightblue" points="304.869,-84.1137 311.248,-75.6545 300.986,-78.2894 304.869,-84.1137"/>
</g>
<!-- Node43 -->
<g id="node43" class="node"><title>Node43</title>
<polygon fill="none" stroke="#bfbfbf" points="225.729,-56.5 225.729,-75.5 274.729,-75.5 274.729,-56.5 225.729,-56.5"/>
<text text-anchor="middle" x="250.229" y="-63.5" font-family="Helvetica,sans-Serif" font-size="10.00">stdint.h</text>
</g>
<!-- Node41&#45;&gt;Node43 -->
<g id="edge51" class="edge"><title>Node41&#45;&gt;Node43</title>
<path fill="none" stroke="midnightblue" d="M244.385,-112.083C245.313,-104.927 246.647,-94.6353 247.806,-85.6911"/>
<polygon fill="midnightblue" stroke="midnightblue" points="251.28,-86.1181 249.095,-75.7511 244.338,-85.2181 251.28,-86.1181"/>
</g>
<!-- Node44&#45;&gt;Node7 -->
<g id="edge54" class="edge"><title>Node44&#45;&gt;Node7</title>
<path fill="none" stroke="midnightblue" d="M812.835,-224.083C818.485,-216.455 826.774,-205.264 833.681,-195.941"/>
<polygon fill="midnightblue" stroke="midnightblue" points="836.607,-197.87 839.747,-187.751 830.982,-193.703 836.607,-197.87"/>
</g>
<!-- Node45&#45;&gt;Node7 -->
<g id="edge57" class="edge"><title>Node45&#45;&gt;Node7</title>
<path fill="none" stroke="midnightblue" d="M942.166,-224.444C923.655,-215.675 894.649,-201.935 873.374,-191.858"/>
<polygon fill="midnightblue" stroke="midnightblue" points="874.744,-188.634 864.208,-187.516 871.748,-194.96 874.744,-188.634"/>
</g>
<!-- Node45&#45;&gt;Node8 -->
<g id="edge56" class="edge"><title>Node45&#45;&gt;Node8</title>
<path fill="none" stroke="midnightblue" d="M1004.87,-224.46C1110.04,-204.341 1372.85,-154.064 1484.15,-132.772"/>
<polygon fill="midnightblue" stroke="midnightblue" points="1484.95,-136.182 1494.12,-130.865 1483.64,-129.306 1484.95,-136.182"/>
</g>
<!-- Node46&#45;&gt;Node8 -->
<g id="edge60" class="edge"><title>Node46&#45;&gt;Node8</title>
<path fill="none" stroke="midnightblue" d="M1582.45,-280.296C1572.61,-271.001 1560.86,-258.013 1554.23,-244 1538.37,-210.479 1535.3,-166.481 1534.96,-141.833"/>
<polygon fill="midnightblue" stroke="midnightblue" points="1538.46,-141.697 1534.96,-131.697 1531.46,-141.697 1538.46,-141.697"/>
</g>
<!-- Node47 -->
<g id="node47" class="node"><title>Node47</title>
<g id="a_node47"><a xlink:href="_windows_message_handler_8hpp.html" target="_top" xlink:title="../mt/WindowsMessageHandler.hpp">
<polygon fill="none" stroke="black" points="1563.73,-224.5 1563.73,-243.5 1734.73,-243.5 1734.73,-224.5 1563.73,-224.5"/>
<text text-anchor="middle" x="1649.23" y="-231.5" font-family="Helvetica,sans-Serif" font-size="10.00">../mt/WindowsMessageHandler.hpp</text>
</a>
</g>
</g>
<!-- Node46&#45;&gt;Node47 -->
<g id="edge61" class="edge"><title>Node46&#45;&gt;Node47</title>
<path fill="none" stroke="midnightblue" d="M1611.08,-280.399C1618.34,-271.753 1627.68,-260.642 1635.3,-251.576"/>
<polygon fill="midnightblue" stroke="midnightblue" points="1638.2,-253.565 1641.95,-243.658 1632.84,-249.062 1638.2,-253.565"/>
</g>
<!-- Node47&#45;&gt;Node25 -->
<g id="edge62" class="edge"><title>Node47&#45;&gt;Node25</title>
<path fill="none" stroke="midnightblue" d="M1647.82,-224.368C1644.91,-206.617 1638.21,-165.666 1634.27,-141.597"/>
<polygon fill="midnightblue" stroke="midnightblue" points="1637.7,-140.895 1632.64,-131.591 1630.8,-142.025 1637.7,-140.895"/>
</g>
<!-- Node47&#45;&gt;Node48 -->
<g id="edge63" class="edge"><title>Node47&#45;&gt;Node48</title>
<path fill="none" stroke="midnightblue" d="M1677.28,-224.444C1707.31,-215.28 1755.14,-200.688 1788.47,-190.519"/>
<polygon fill="midnightblue" stroke="midnightblue" points="1789.77,-193.782 1798.31,-187.516 1787.73,-187.087 1789.77,-193.782"/>
</g>
<!-- Node49&#45;&gt;Node8 -->
<g id="edge65" class="edge"><title>Node49&#45;&gt;Node8</title>
<path fill="none" stroke="midnightblue" d="M1456.33,-168.324C1471.13,-159.822 1493.92,-146.729 1511.21,-136.797"/>
<polygon fill="midnightblue" stroke="midnightblue" points="1513.24,-139.671 1520.16,-131.655 1509.75,-133.601 1513.24,-139.671"/>
</g>
</g>
</svg>
        <g id="navigator" transform="translate(0 0)" fill="#404254">
                <rect fill="#f2f5e9" fill-opacity="0.5" stroke="#606060" stroke-width=".5" x="0" y="0" width="60" height="60"/>
                <use id="zoomplus" xlink:href="#zoomPlus" x="17" y="9" onmousedown="handleZoom(evt,'in')"/>
                <use id="zoomminus" xlink:href="#zoomMin" x="42" y="9" onmousedown="handleZoom(evt,'out')"/>
                <use id="reset" xlink:href="#resetDef" x="30" y="36" onmousedown="handleReset()"/>
                <g id="arrowUp" xlink:href="#dirArrow" transform="translate(30 24)" onmousedown="handlePan(0,-1)">
                  <use xlink:href="#rim" fill="#404040">
                        <set attributeName="fill" to="#808080" begin="arrowUp.mouseover" end="arrowUp.mouseout"/>
                  </use>
                  <path fill="none" stroke="white" stroke-width="1.5" d="M0,-3.0v7 M-2.5,-0.5L0,-3.0L2.5,-0.5"/>
                </g>
                <g id="arrowRight" xlink:href="#dirArrow" transform="rotate(90) translate(36 -43)" onmousedown="handlePan(1,0)">
                  <use xlink:href="#rim" fill="#404040">
                        <set attributeName="fill" to="#808080" begin="arrowRight.mouseover" end="arrowRight.mouseout"/>
                  </use>
                  <path fill="none" stroke="white" stroke-width="1.5" d="M0,-3.0v7 M-2.5,-0.5L0,-3.0L2.5,-0.5"/>
                </g>
                <g id="arrowDown" xlink:href="#dirArrow" transform="rotate(180) translate(-30 -48)" onmousedown="handlePan(0,1)">
                  <use xlink:href="#rim" fill="#404040">
                        <set attributeName="fill" to="#808080" begin="arrowDown.mouseover" end="arrowDown.mouseout"/>
                  </use>
                  <path fill="none" stroke="white" stroke-width="1.5" d="M0,-3.0v7 M-2.5,-0.5L0,-3.0L2.5,-0.5"/>
                </g>
                <g id="arrowLeft" xlink:href="#dirArrow" transform="rotate(270) translate(-36 17)" onmousedown="handlePan(-1,0)">
                  <use xlink:href="#rim" fill="#404040">
                        <set attributeName="fill" to="#808080" begin="arrowLeft.mouseover" end="arrowLeft.mouseout"/>
                  </use>
                  <path fill="none" stroke="white" stroke-width="1.5" d="M0,-3.0v7 M-2.5,-0.5L0,-3.0L2.5,-0.5"/>
                </g>
        </g>
        <svg viewBox="0 0 15 15" width="100%" height="30px" preserveAspectRatio="xMaxYMin meet">
         <g id="arrow_out" transform="scale(0.3 0.3)">
          <a xlink:href="engine_8cpp__incl_org.svg" target="_base">
           <rect id="button" ry="5" rx="5" y="6" x="6" height="38" width="38"
                fill="#f2f5e9" fill-opacity="0.5" stroke="#606060" stroke-width="1.0"/>
           <path id="arrow"
             d="M 11.500037,31.436501 C 11.940474,20.09759 22.043105,11.32322 32.158766,21.979434 L 37.068811,17.246167 C 37.068811,17.246167 37.088388,32 37.088388,32 L 22.160133,31.978069 C 22.160133,31.978069 26.997745,27.140456 26.997745,27.140456 C 18.528582,18.264221 13.291696,25.230495 11.500037,31.436501 z"
             style="fill:#404040;"/>
          </a>
         </g>
        </svg>
</svg>
