<?xml version="1.0" encoding="UTF-8" standalone="no"?>
<!DOCTYPE svg PUBLIC "-//W3C//DTD SVG 1.1//EN"
 "http://www.w3.org/Graphics/SVG/1.1/DTD/svg11.dtd">
<!-- Generated by graphviz version 2.38.0 (20140413.2041)
 -->
<!-- Title: MainWndProc Pages: 1 -->
<svg width="421pt" height="88pt"
 viewBox="0.00 0.00 421.00 88.00" xmlns="http://www.w3.org/2000/svg" xmlns:xlink="http://www.w3.org/1999/xlink">
<g id="graph0" class="graph" transform="scale(1 1) rotate(0) translate(4 84)">
<title>MainWndProc</title>
<!-- Node1 -->
<g id="node1" class="node"><title>Node1</title>
<polygon fill="#bfbfbf" stroke="black" points="0,-30 0,-49 78,-49 78,-30 0,-30"/>
<text text-anchor="middle" x="39" y="-37" font-family="Helvetica,sans-Serif" font-size="10.00">MainWndProc</text>
</g>
<!-- Node2 -->
<g id="node2" class="node"><title>Node2</title>
<g id="a_node2"><a xlink:href="classengine.html#a1c22e1de5498965992bc25cfba715c99" target="_top" xlink:title="engine::get_windows\l_message_handler">
<polygon fill="none" stroke="black" points="143,-49.5 143,-79.5 250,-79.5 250,-49.5 143,-49.5"/>
<text text-anchor="start" x="151" y="-67.5" font-family="Helvetica,sans-Serif" font-size="10.00">engine::get_windows</text>
<text text-anchor="middle" x="196.5" y="-56.5" font-family="Helvetica,sans-Serif" font-size="10.00">_message_handler</text>
</a>
</g>
</g>
<!-- Node1&#45;&gt;Node2 -->
<g id="edge1" class="edge"><title>Node1&#45;&gt;Node2</title>
<path fill="none" stroke="midnightblue" d="M78.0396,-45.6157C94.5783,-48.2747 114.394,-51.4605 132.998,-54.4514"/>
<polygon fill="midnightblue" stroke="midnightblue" points="132.456,-57.9091 142.884,-56.0409 133.567,-50.9979 132.456,-57.9091"/>
</g>
<!-- Node4 -->
<g id="node4" class="node"><title>Node4</title>
<g id="a_node4"><a xlink:href="class_windows_message_handling_service.html#a9c7224471322c4e364c440b35321d253" target="_top" xlink:title="WindowsMessageHandlingService\l::handle_message">
<polygon fill="none" stroke="black" points="114,-0.5 114,-30.5 279,-30.5 279,-0.5 114,-0.5"/>
<text text-anchor="start" x="122" y="-18.5" font-family="Helvetica,sans-Serif" font-size="10.00">WindowsMessageHandlingService</text>
<text text-anchor="middle" x="196.5" y="-7.5" font-family="Helvetica,sans-Serif" font-size="10.00">::handle_message</text>
</a>
</g>
</g>
<!-- Node1&#45;&gt;Node4 -->
<g id="edge3" class="edge"><title>Node1&#45;&gt;Node4</title>
<path fill="none" stroke="midnightblue" d="M78.0396,-33.6289C86.0952,-32.3856 94.9283,-31.0223 104.02,-29.6191"/>
<polygon fill="midnightblue" stroke="midnightblue" points="104.614,-33.069 113.963,-28.0845 103.546,-26.1509 104.614,-33.069"/>
</g>
<!-- Node3 -->
<g id="node3" class="node"><title>Node3</title>
<g id="a_node3"><a xlink:href="classengine.html#a240cde5717390f5f154bc9e4af2c36eb" target="_top" xlink:title="engine::get_engine">
<polygon fill="none" stroke="black" points="315,-55 315,-74 413,-74 413,-55 315,-55"/>
<text text-anchor="middle" x="364" y="-62" font-family="Helvetica,sans-Serif" font-size="10.00">engine::get_engine</text>
</a>
</g>
</g>
<!-- Node2&#45;&gt;Node3 -->
<g id="edge2" class="edge"><title>Node2&#45;&gt;Node3</title>
<path fill="none" stroke="midnightblue" d="M250.32,-64.5C267.639,-64.5 286.978,-64.5 304.679,-64.5"/>
<polygon fill="midnightblue" stroke="midnightblue" points="304.885,-68.0001 314.885,-64.5 304.885,-61.0001 304.885,-68.0001"/>
</g>
</g>
</svg>
