<?xml version="1.0" encoding="UTF-8" standalone="no"?>
<!DOCTYPE svg PUBLIC "-//W3C//DTD SVG 1.1//EN"
 "http://www.w3.org/Graphics/SVG/1.1/DTD/svg11.dtd">
<!-- Generated by graphviz version 2.38.0 (20140413.2041)
 -->
<!-- Title: C:/Users/micho/Desktop/mt_engine/mt/engine.hpp Pages: 1 -->
<!--zoomable 195 -->
<svg id="main" version="1.1" xmlns="http://www.w3.org/2000/svg" xmlns:xlink="http://www.w3.org/1999/xlink" xml:space="preserve" onload="init(evt)">
<style type="text/css"><![CDATA[
.edge:hover path { stroke: red; }
.edge:hover polygon { stroke: red; fill: red; }
]]></style>
<script type="text/javascript"><![CDATA[
var edges = document.getElementsByTagName('g');
if (edges && edges.length) {
  for (var i=0;i<edges.length;i++) {
    if (edges[i].id.substr(0,4)=='edge') {
      edges[i].setAttribute('class','edge');
    }
  }
}
]]></script>
        <defs>
                <circle id="rim" cx="0" cy="0" r="7"/>
                <circle id="rim2" cx="0" cy="0" r="3.5"/>
                <g id="zoomPlus">
                        <use xlink:href="#rim" fill="#404040">
                                <set attributeName="fill" to="#808080" begin="zoomplus.mouseover" end="zoomplus.mouseout"/>
                        </use>
                        <path d="M-4,0h8M0,-4v8" fill="none" stroke="white" stroke-width="1.5" pointer-events="none"/>
                </g>
                <g id="zoomMin">
                        <use xlink:href="#rim" fill="#404040">
                                <set attributeName="fill" to="#808080" begin="zoomminus.mouseover" end="zoomminus.mouseout"/>
                        </use>
                        <path d="M-4,0h8" fill="none" stroke="white" stroke-width="1.5" pointer-events="none"/>
                </g>
                <g id="dirArrow">
                        <path fill="none" stroke="white" stroke-width="1.5" d="M0,-3.0v7 M-2.5,-0.5L0,-3.0L2.5,-0.5"/>
                </g>
               <g id="resetDef">
                       <use xlink:href="#rim2" fill="#404040">
                               <set attributeName="fill" to="#808080" begin="reset.mouseover" end="reset.mouseout"/>
                       </use>
               </g>
        </defs>

<script type="text/javascript">
var viewWidth = 3816;
var viewHeight = 195;
var sectionId = 'dynsection-1';
</script>
<script xlink:href="svgpan.js"/>
<svg id="graph" class="graph">
<g id="viewport">
<title>C:/Users/micho/Desktop/mt_engine/mt/engine.hpp</title>
<!-- Node1 -->
<g id="node1" class="node"><title>Node1</title>
<polygon fill="#bfbfbf" stroke="black" points="1861.5,-156.5 1861.5,-186.5 1990.5,-186.5 1990.5,-156.5 1861.5,-156.5"/>
<text text-anchor="start" x="1869.5" y="-174.5" font-family="Helvetica,sans-Serif" font-size="10.00">C:/Users/micho/Desktop</text>
<text text-anchor="middle" x="1926" y="-163.5" font-family="Helvetica,sans-Serif" font-size="10.00">/mt_engine/mt/engine.hpp</text>
</g>
<!-- Node2 -->
<g id="node2" class="node"><title>Node2</title>
<g id="a_node2"><a xlink:href="_camera_8cpp.html" target="_top" xlink:title="C:/Users/micho/Desktop\l/mt_engine/mt/Camera.cpp">
<polygon fill="none" stroke="black" points="0,-84 0,-114 134,-114 134,-84 0,-84"/>
<text text-anchor="start" x="8" y="-102" font-family="Helvetica,sans-Serif" font-size="10.00">C:/Users/micho/Desktop</text>
<text text-anchor="middle" x="67" y="-91" font-family="Helvetica,sans-Serif" font-size="10.00">/mt_engine/mt/Camera.cpp</text>
</a>
</g>
</g>
<!-- Node1&#45;&gt;Node2 -->
<g id="edge1" class="edge"><title>Node1&#45;&gt;Node2</title>
<path fill="none" stroke="midnightblue" d="M1851.2,-170.66C1557.19,-170.938 480.575,-168.543 143,-120 133.412,-118.621 123.296,-116.469 113.683,-114.078"/>
<polygon fill="midnightblue" stroke="midnightblue" points="1851.33,-174.16 1861.32,-170.649 1851.32,-167.16 1851.33,-174.16"/>
</g>
<!-- Node3 -->
<g id="node3" class="node"><title>Node3</title>
<g id="a_node3"><a xlink:href="_command_8cpp.html" target="_top" xlink:title="C:/Users/micho/Desktop\l/mt_engine/mt/Command.cpp">
<polygon fill="none" stroke="black" points="152.5,-84 152.5,-114 297.5,-114 297.5,-84 152.5,-84"/>
<text text-anchor="start" x="160.5" y="-102" font-family="Helvetica,sans-Serif" font-size="10.00">C:/Users/micho/Desktop</text>
<text text-anchor="middle" x="225" y="-91" font-family="Helvetica,sans-Serif" font-size="10.00">/mt_engine/mt/Command.cpp</text>
</a>
</g>
</g>
<!-- Node1&#45;&gt;Node3 -->
<g id="edge2" class="edge"><title>Node1&#45;&gt;Node3</title>
<path fill="none" stroke="midnightblue" d="M1850.86,-170.229C1574,-168.909 611.167,-161.378 307,-120 296.691,-118.598 285.793,-116.435 275.425,-114.041"/>
<polygon fill="midnightblue" stroke="midnightblue" points="1851.18,-173.731 1861.2,-170.277 1851.22,-166.731 1851.18,-173.731"/>
</g>
<!-- Node4 -->
<g id="node4" class="node"><title>Node4</title>
<g id="a_node4"><a xlink:href="_direct_x_renderer_8cpp.html" target="_top" xlink:title="C:/Users/micho/Desktop\l/mt_engine/mt/DirectXRenderer.cpp">
<polygon fill="none" stroke="black" points="316,-84 316,-114 486,-114 486,-84 316,-84"/>
<text text-anchor="start" x="324" y="-102" font-family="Helvetica,sans-Serif" font-size="10.00">C:/Users/micho/Desktop</text>
<text text-anchor="middle" x="401" y="-91" font-family="Helvetica,sans-Serif" font-size="10.00">/mt_engine/mt/DirectXRenderer.cpp</text>
</a>
</g>
</g>
<!-- Node1&#45;&gt;Node4 -->
<g id="edge3" class="edge"><title>Node1&#45;&gt;Node4</title>
<path fill="none" stroke="midnightblue" d="M1851.21,-169.583C1596.11,-166.186 761.324,-152.777 495,-120 483.325,-118.563 470.952,-116.401 459.15,-114.022"/>
<polygon fill="midnightblue" stroke="midnightblue" points="1851.43,-173.086 1861.48,-169.719 1851.53,-166.087 1851.43,-173.086"/>
</g>
<!-- Node5 -->
<g id="node5" class="node"><title>Node5</title>
<g id="a_node5"><a xlink:href="engine_8cpp.html" target="_top" xlink:title="C:/Users/micho/Desktop\l/mt_engine/mt/engine.cpp">
<polygon fill="none" stroke="black" points="504.5,-84 504.5,-114 633.5,-114 633.5,-84 504.5,-84"/>
<text text-anchor="start" x="512.5" y="-102" font-family="Helvetica,sans-Serif" font-size="10.00">C:/Users/micho/Desktop</text>
<text text-anchor="middle" x="569" y="-91" font-family="Helvetica,sans-Serif" font-size="10.00">/mt_engine/mt/engine.cpp</text>
</a>
</g>
</g>
<!-- Node1&#45;&gt;Node5 -->
<g id="edge4" class="edge"><title>Node1&#45;&gt;Node5</title>
<path fill="none" stroke="midnightblue" d="M1850.88,-169.793C1612.87,-167.198 877.299,-156.371 642,-120 632.78,-118.575 623.059,-116.402 613.824,-114.005"/>
<polygon fill="midnightblue" stroke="midnightblue" points="1851.13,-173.296 1861.16,-169.903 1851.2,-166.296 1851.13,-173.296"/>
</g>
<!-- Node6 -->
<g id="node6" class="node"><title>Node6</title>
<g id="a_node6"><a xlink:href="_game_timer_8cpp.html" target="_top" xlink:title="C:/Users/micho/Desktop\l/mt_engine/mt/GameTimer.cpp">
<polygon fill="none" stroke="black" points="651.5,-84 651.5,-114 802.5,-114 802.5,-84 651.5,-84"/>
<text text-anchor="start" x="659.5" y="-102" font-family="Helvetica,sans-Serif" font-size="10.00">C:/Users/micho/Desktop</text>
<text text-anchor="middle" x="727" y="-91" font-family="Helvetica,sans-Serif" font-size="10.00">/mt_engine/mt/GameTimer.cpp</text>
</a>
</g>
</g>
<!-- Node1&#45;&gt;Node6 -->
<g id="edge5" class="edge"><title>Node1&#45;&gt;Node6</title>
<path fill="none" stroke="midnightblue" d="M1851.02,-168.947C1634.79,-164.177 1012.66,-148.316 811,-120 800.608,-118.541 789.619,-116.384 779.136,-114.021"/>
<polygon fill="midnightblue" stroke="midnightblue" points="1851.24,-172.453 1861.31,-169.173 1851.39,-165.454 1851.24,-172.453"/>
</g>
<!-- Node7 -->
<g id="node7" class="node"><title>Node7</title>
<g id="a_node7"><a xlink:href="_input_handler_8cpp.html" target="_top" xlink:title="C:/Users/micho/Desktop\l/mt_engine/mt/InputHandler.cpp">
<polygon fill="none" stroke="black" points="820.5,-84 820.5,-114 975.5,-114 975.5,-84 820.5,-84"/>
<text text-anchor="start" x="828.5" y="-102" font-family="Helvetica,sans-Serif" font-size="10.00">C:/Users/micho/Desktop</text>
<text text-anchor="middle" x="898" y="-91" font-family="Helvetica,sans-Serif" font-size="10.00">/mt_engine/mt/InputHandler.cpp</text>
</a>
</g>
</g>
<!-- Node1&#45;&gt;Node7 -->
<g id="edge6" class="edge"><title>Node1&#45;&gt;Node7</title>
<path fill="none" stroke="midnightblue" d="M1851.26,-170.847C1691.45,-170.635 1305.03,-165.029 985,-120 974.411,-118.51 963.209,-116.37 952.495,-114.039"/>
<polygon fill="midnightblue" stroke="midnightblue" points="1851.45,-174.347 1861.45,-170.853 1851.46,-167.347 1851.45,-174.347"/>
</g>
<!-- Node8 -->
<g id="node8" class="node"><title>Node8</title>
<g id="a_node8"><a xlink:href="_windows_message_handler_8cpp.html" target="_top" xlink:title="C:/Users/micho/Desktop\l/mt_engine/mt/WindowsMessage\lHandler.cpp">
<polygon fill="none" stroke="black" points="993.5,-78.5 993.5,-119.5 1154.5,-119.5 1154.5,-78.5 993.5,-78.5"/>
<text text-anchor="start" x="1001.5" y="-107.5" font-family="Helvetica,sans-Serif" font-size="10.00">C:/Users/micho/Desktop</text>
<text text-anchor="start" x="1001.5" y="-96.5" font-family="Helvetica,sans-Serif" font-size="10.00">/mt_engine/mt/WindowsMessage</text>
<text text-anchor="middle" x="1074" y="-85.5" font-family="Helvetica,sans-Serif" font-size="10.00">Handler.cpp</text>
</a>
</g>
</g>
<!-- Node1&#45;&gt;Node8 -->
<g id="edge7" class="edge"><title>Node1&#45;&gt;Node8</title>
<path fill="none" stroke="midnightblue" d="M1851.05,-169.316C1714,-166.313 1414.06,-155.857 1164,-120 1160.99,-119.568 1157.93,-119.091 1154.85,-118.576"/>
<polygon fill="midnightblue" stroke="midnightblue" points="1851.36,-172.823 1861.43,-169.536 1851.51,-165.825 1851.36,-172.823"/>
</g>
<!-- Node9 -->
<g id="node9" class="node"><title>Node9</title>
<g id="a_node9"><a xlink:href="_w_m___l_b_u_t_t_o_n_d_o_w_n___handler_8hpp.html" target="_top" xlink:title="C:/Users/micho/Desktop\l/mt_engine/mt/WM_LBUTTONDOWN\l_Handler.hpp">
<polygon fill="none" stroke="black" points="1172.5,-78.5 1172.5,-119.5 1351.5,-119.5 1351.5,-78.5 1172.5,-78.5"/>
<text text-anchor="start" x="1180.5" y="-107.5" font-family="Helvetica,sans-Serif" font-size="10.00">C:/Users/micho/Desktop</text>
<text text-anchor="start" x="1180.5" y="-96.5" font-family="Helvetica,sans-Serif" font-size="10.00">/mt_engine/mt/WM_LBUTTONDOWN</text>
<text text-anchor="middle" x="1262" y="-85.5" font-family="Helvetica,sans-Serif" font-size="10.00">_Handler.hpp</text>
</a>
</g>
</g>
<!-- Node1&#45;&gt;Node9 -->
<g id="edge8" class="edge"><title>Node1&#45;&gt;Node9</title>
<path fill="none" stroke="midnightblue" d="M1851.15,-166.443C1742.68,-159.968 1535.66,-145.37 1361,-120 1357.88,-119.546 1354.7,-119.058 1351.5,-118.541"/>
<polygon fill="midnightblue" stroke="midnightblue" points="1851.14,-169.949 1861.33,-167.044 1851.56,-162.961 1851.14,-169.949"/>
</g>
<!-- Node11 -->
<g id="node11" class="node"><title>Node11</title>
<g id="a_node11"><a xlink:href="_w_m___l_b_u_t_t_o_n_u_p___handler_8hpp.html" target="_top" xlink:title="C:/Users/micho/Desktop\l/mt_engine/mt/WM_LBUTTONUP\l_Handler.hpp">
<polygon fill="none" stroke="black" points="1370,-78.5 1370,-119.5 1532,-119.5 1532,-78.5 1370,-78.5"/>
<text text-anchor="start" x="1378" y="-107.5" font-family="Helvetica,sans-Serif" font-size="10.00">C:/Users/micho/Desktop</text>
<text text-anchor="start" x="1378" y="-96.5" font-family="Helvetica,sans-Serif" font-size="10.00">/mt_engine/mt/WM_LBUTTONUP</text>
<text text-anchor="middle" x="1451" y="-85.5" font-family="Helvetica,sans-Serif" font-size="10.00">_Handler.hpp</text>
</a>
</g>
</g>
<!-- Node1&#45;&gt;Node11 -->
<g id="edge10" class="edge"><title>Node1&#45;&gt;Node11</title>
<path fill="none" stroke="midnightblue" d="M1851.17,-162.665C1773.38,-154.057 1648.22,-138.907 1541,-120 1538.16,-119.5 1535.28,-118.971 1532.37,-118.42"/>
<polygon fill="midnightblue" stroke="midnightblue" points="1851.04,-166.171 1861.36,-163.785 1851.8,-159.213 1851.04,-166.171"/>
</g>
<!-- Node12 -->
<g id="node12" class="node"><title>Node12</title>
<g id="a_node12"><a xlink:href="_w_m___m_b_u_t_t_o_n_d_o_w_n___handler_8hpp.html" target="_top" xlink:title="C:/Users/micho/Desktop\l/mt_engine/mt/WM_MBUTTONDOWN\l_Handler.hpp">
<polygon fill="none" stroke="black" points="1550,-78.5 1550,-119.5 1732,-119.5 1732,-78.5 1550,-78.5"/>
<text text-anchor="start" x="1558" y="-107.5" font-family="Helvetica,sans-Serif" font-size="10.00">C:/Users/micho/Desktop</text>
<text text-anchor="start" x="1558" y="-96.5" font-family="Helvetica,sans-Serif" font-size="10.00">/mt_engine/mt/WM_MBUTTONDOWN</text>
<text text-anchor="middle" x="1641" y="-85.5" font-family="Helvetica,sans-Serif" font-size="10.00">_Handler.hpp</text>
</a>
</g>
</g>
<!-- Node1&#45;&gt;Node12 -->
<g id="edge12" class="edge"><title>Node1&#45;&gt;Node12</title>
<path fill="none" stroke="midnightblue" d="M1859.57,-154.067C1817.85,-143.747 1763.83,-130.384 1719.93,-119.525"/>
<polygon fill="midnightblue" stroke="midnightblue" points="1858.8,-157.483 1869.35,-156.487 1860.49,-150.688 1858.8,-157.483"/>
</g>
<!-- Node13 -->
<g id="node13" class="node"><title>Node13</title>
<g id="a_node13"><a xlink:href="_w_m___m_b_u_t_t_o_n_u_p___handler_8hpp.html" target="_top" xlink:title="C:/Users/micho/Desktop\l/mt_engine/mt/WM_MBUTTONUP\l_Handler.hpp">
<polygon fill="none" stroke="black" points="1750.5,-78.5 1750.5,-119.5 1915.5,-119.5 1915.5,-78.5 1750.5,-78.5"/>
<text text-anchor="start" x="1758.5" y="-107.5" font-family="Helvetica,sans-Serif" font-size="10.00">C:/Users/micho/Desktop</text>
<text text-anchor="start" x="1758.5" y="-96.5" font-family="Helvetica,sans-Serif" font-size="10.00">/mt_engine/mt/WM_MBUTTONUP</text>
<text text-anchor="middle" x="1833" y="-85.5" font-family="Helvetica,sans-Serif" font-size="10.00">_Handler.hpp</text>
</a>
</g>
</g>
<!-- Node1&#45;&gt;Node13 -->
<g id="edge14" class="edge"><title>Node1&#45;&gt;Node13</title>
<path fill="none" stroke="midnightblue" d="M1898.87,-149.933C1886.24,-140.363 1871.3,-129.034 1858.84,-119.588"/>
<polygon fill="midnightblue" stroke="midnightblue" points="1897.1,-152.981 1907.18,-156.233 1901.33,-147.403 1897.1,-152.981"/>
</g>
<!-- Node14 -->
<g id="node14" class="node"><title>Node14</title>
<g id="a_node14"><a xlink:href="_w_m___m_o_u_s_e_m_o_v_e___handler_8hpp.html" target="_top" xlink:title="C:/Users/micho/Desktop\l/mt_engine/mt/WM_MOUSEMOVE\l_Handler.hpp">
<polygon fill="none" stroke="black" points="1934,-78.5 1934,-119.5 2104,-119.5 2104,-78.5 1934,-78.5"/>
<text text-anchor="start" x="1942" y="-107.5" font-family="Helvetica,sans-Serif" font-size="10.00">C:/Users/micho/Desktop</text>
<text text-anchor="start" x="1942" y="-96.5" font-family="Helvetica,sans-Serif" font-size="10.00">/mt_engine/mt/WM_MOUSEMOVE</text>
<text text-anchor="middle" x="2019" y="-85.5" font-family="Helvetica,sans-Serif" font-size="10.00">_Handler.hpp</text>
</a>
</g>
</g>
<!-- Node1&#45;&gt;Node14 -->
<g id="edge16" class="edge"><title>Node1&#45;&gt;Node14</title>
<path fill="none" stroke="midnightblue" d="M1953.13,-149.933C1965.76,-140.363 1980.7,-129.034 1993.16,-119.588"/>
<polygon fill="midnightblue" stroke="midnightblue" points="1950.67,-147.403 1944.82,-156.233 1954.9,-152.981 1950.67,-147.403"/>
</g>
<!-- Node15 -->
<g id="node15" class="node"><title>Node15</title>
<g id="a_node15"><a xlink:href="_w_m___q_u_i_t___handler_8hpp.html" target="_top" xlink:title="C:/Users/micho/Desktop\l/mt_engine/mt/WM_QUIT\l_Handler.hpp">
<polygon fill="none" stroke="black" points="2122.5,-78.5 2122.5,-119.5 2249.5,-119.5 2249.5,-78.5 2122.5,-78.5"/>
<text text-anchor="start" x="2130.5" y="-107.5" font-family="Helvetica,sans-Serif" font-size="10.00">C:/Users/micho/Desktop</text>
<text text-anchor="start" x="2130.5" y="-96.5" font-family="Helvetica,sans-Serif" font-size="10.00">/mt_engine/mt/WM_QUIT</text>
<text text-anchor="middle" x="2186" y="-85.5" font-family="Helvetica,sans-Serif" font-size="10.00">_Handler.hpp</text>
</a>
</g>
</g>
<!-- Node1&#45;&gt;Node15 -->
<g id="edge18" class="edge"><title>Node1&#45;&gt;Node15</title>
<path fill="none" stroke="midnightblue" d="M1988.38,-153.716C2024.74,-143.917 2071.48,-131.295 2113,-120 2116.04,-119.172 2119.16,-118.324 2122.3,-117.466"/>
<polygon fill="midnightblue" stroke="midnightblue" points="1987.15,-150.421 1978.41,-156.402 1988.97,-157.18 1987.15,-150.421"/>
</g>
<!-- Node16 -->
<g id="node16" class="node"><title>Node16</title>
<g id="a_node16"><a xlink:href="_w_m___r_b_u_t_t_o_n_d_o_w_n___handler_8hpp.html" target="_top" xlink:title="C:/Users/micho/Desktop\l/mt_engine/mt/WM_RBUTTONDOWN\l_Handler.hpp">
<polygon fill="none" stroke="black" points="2267.5,-78.5 2267.5,-119.5 2448.5,-119.5 2448.5,-78.5 2267.5,-78.5"/>
<text text-anchor="start" x="2275.5" y="-107.5" font-family="Helvetica,sans-Serif" font-size="10.00">C:/Users/micho/Desktop</text>
<text text-anchor="start" x="2275.5" y="-96.5" font-family="Helvetica,sans-Serif" font-size="10.00">/mt_engine/mt/WM_RBUTTONDOWN</text>
<text text-anchor="middle" x="2358" y="-85.5" font-family="Helvetica,sans-Serif" font-size="10.00">_Handler.hpp</text>
</a>
</g>
</g>
<!-- Node1&#45;&gt;Node16 -->
<g id="edge20" class="edge"><title>Node1&#45;&gt;Node16</title>
<path fill="none" stroke="midnightblue" d="M2000.74,-160.229C2068.35,-150.687 2170.55,-135.632 2259,-120 2261.76,-119.512 2264.57,-119.006 2267.4,-118.488"/>
<polygon fill="midnightblue" stroke="midnightblue" points="2000.03,-156.796 1990.61,-161.655 2001,-163.727 2000.03,-156.796"/>
</g>
<!-- Node17 -->
<g id="node17" class="node"><title>Node17</title>
<g id="a_node17"><a xlink:href="_w_m___r_b_u_t_t_o_n_u_p___handler_8hpp.html" target="_top" xlink:title="C:/Users/micho/Desktop\l/mt_engine/mt/WM_RBUTTONUP\l_Handler.hpp">
<polygon fill="none" stroke="black" points="2467,-78.5 2467,-119.5 2631,-119.5 2631,-78.5 2467,-78.5"/>
<text text-anchor="start" x="2475" y="-107.5" font-family="Helvetica,sans-Serif" font-size="10.00">C:/Users/micho/Desktop</text>
<text text-anchor="start" x="2475" y="-96.5" font-family="Helvetica,sans-Serif" font-size="10.00">/mt_engine/mt/WM_RBUTTONUP</text>
<text text-anchor="middle" x="2549" y="-85.5" font-family="Helvetica,sans-Serif" font-size="10.00">_Handler.hpp</text>
</a>
</g>
</g>
<!-- Node1&#45;&gt;Node17 -->
<g id="edge22" class="edge"><title>Node1&#45;&gt;Node17</title>
<path fill="none" stroke="midnightblue" d="M2000.61,-166.291C2103.86,-159.814 2295.89,-145.411 2458,-120 2460.88,-119.549 2463.8,-119.063 2466.75,-118.548"/>
<polygon fill="midnightblue" stroke="midnightblue" points="2000.36,-162.8 1990.6,-166.912 2000.8,-169.786 2000.36,-162.8"/>
</g>
<!-- Node18 -->
<g id="node18" class="node"><title>Node18</title>
<g id="a_node18"><a xlink:href="_w_m___s_i_z_i_n_g___handler_8hpp.html" target="_top" xlink:title="C:/Users/micho/Desktop\l/mt_engine/mt/WM_SIZING\l_Handler.hpp">
<polygon fill="none" stroke="black" points="2649,-78.5 2649,-119.5 2785,-119.5 2785,-78.5 2649,-78.5"/>
<text text-anchor="start" x="2657" y="-107.5" font-family="Helvetica,sans-Serif" font-size="10.00">C:/Users/micho/Desktop</text>
<text text-anchor="start" x="2657" y="-96.5" font-family="Helvetica,sans-Serif" font-size="10.00">/mt_engine/mt/WM_SIZING</text>
<text text-anchor="middle" x="2717" y="-85.5" font-family="Helvetica,sans-Serif" font-size="10.00">_Handler.hpp</text>
</a>
</g>
</g>
<!-- Node1&#45;&gt;Node18 -->
<g id="edge24" class="edge"><title>Node1&#45;&gt;Node18</title>
<path fill="none" stroke="midnightblue" d="M2001.25,-169.704C2132,-167.314 2409.26,-157.798 2640,-120 2642.86,-119.531 2645.77,-119.005 2648.71,-118.433"/>
<polygon fill="midnightblue" stroke="midnightblue" points="2000.89,-166.209 1990.95,-169.882 2001.01,-173.208 2000.89,-166.209"/>
</g>
<!-- Node19 -->
<g id="node19" class="node"><title>Node19</title>
<g id="a_node19"><a xlink:href="_w_m___a_c_t_i_v_a_t_e___handler_8cpp.html" target="_top" xlink:title="C:/Users/micho/Desktop\l/mt_engine/mt/WM_ACTIVATE\l_Handler.cpp">
<polygon fill="none" stroke="black" points="2803,-78.5 2803,-119.5 2955,-119.5 2955,-78.5 2803,-78.5"/>
<text text-anchor="start" x="2811" y="-107.5" font-family="Helvetica,sans-Serif" font-size="10.00">C:/Users/micho/Desktop</text>
<text text-anchor="start" x="2811" y="-96.5" font-family="Helvetica,sans-Serif" font-size="10.00">/mt_engine/mt/WM_ACTIVATE</text>
<text text-anchor="middle" x="2879" y="-85.5" font-family="Helvetica,sans-Serif" font-size="10.00">_Handler.cpp</text>
</a>
</g>
</g>
<!-- Node1&#45;&gt;Node19 -->
<g id="edge26" class="edge"><title>Node1&#45;&gt;Node19</title>
<path fill="none" stroke="midnightblue" d="M2000.7,-170.49C2151.49,-169.516 2502.69,-162.42 2794,-120 2796.85,-119.585 2799.75,-119.121 2802.66,-118.619"/>
<polygon fill="midnightblue" stroke="midnightblue" points="2000.61,-166.99 1990.63,-170.547 2000.65,-173.99 2000.61,-166.99"/>
</g>
<!-- Node20 -->
<g id="node20" class="node"><title>Node20</title>
<g id="a_node20"><a xlink:href="_w_m___e_n_t_e_r_s_i_z_e_m_o_v_e___handler_8cpp.html" target="_top" xlink:title="C:/Users/micho/Desktop\l/mt_engine/mt/WM_ENTERSIZEMOVE\l_Handler.cpp">
<polygon fill="none" stroke="black" points="2973,-78.5 2973,-119.5 3161,-119.5 3161,-78.5 2973,-78.5"/>
<text text-anchor="start" x="2981" y="-107.5" font-family="Helvetica,sans-Serif" font-size="10.00">C:/Users/micho/Desktop</text>
<text text-anchor="start" x="2981" y="-96.5" font-family="Helvetica,sans-Serif" font-size="10.00">/mt_engine/mt/WM_ENTERSIZEMOVE</text>
<text text-anchor="middle" x="3067" y="-85.5" font-family="Helvetica,sans-Serif" font-size="10.00">_Handler.cpp</text>
</a>
</g>
</g>
<!-- Node1&#45;&gt;Node20 -->
<g id="edge27" class="edge"><title>Node1&#45;&gt;Node20</title>
<path fill="none" stroke="midnightblue" d="M2000.81,-170.524C2171.97,-169.779 2605.03,-163.357 2964,-120 2966.89,-119.651 2969.83,-119.267 2972.79,-118.854"/>
<polygon fill="midnightblue" stroke="midnightblue" points="2000.64,-167.024 1990.65,-170.563 2000.66,-174.024 2000.64,-167.024"/>
</g>
<!-- Node21 -->
<g id="node21" class="node"><title>Node21</title>
<g id="a_node21"><a xlink:href="_w_m___e_x_i_t_s_i_z_e_m_o_v_e___handler_8cpp.html" target="_top" xlink:title="C:/Users/micho/Desktop\l/mt_engine/mt/WM_EXITSIZEMOVE\l_Handler.cpp">
<polygon fill="none" stroke="black" points="3179.5,-78.5 3179.5,-119.5 3354.5,-119.5 3354.5,-78.5 3179.5,-78.5"/>
<text text-anchor="start" x="3187.5" y="-107.5" font-family="Helvetica,sans-Serif" font-size="10.00">C:/Users/micho/Desktop</text>
<text text-anchor="start" x="3187.5" y="-96.5" font-family="Helvetica,sans-Serif" font-size="10.00">/mt_engine/mt/WM_EXITSIZEMOVE</text>
<text text-anchor="middle" x="3267" y="-85.5" font-family="Helvetica,sans-Serif" font-size="10.00">_Handler.cpp</text>
</a>
</g>
</g>
<!-- Node1&#45;&gt;Node21 -->
<g id="edge28" class="edge"><title>Node1&#45;&gt;Node21</title>
<path fill="none" stroke="midnightblue" d="M2000.7,-169.064C2233.14,-164.342 2941.69,-147.983 3170,-120 3173.07,-119.623 3176.19,-119.201 3179.34,-118.741"/>
<polygon fill="midnightblue" stroke="midnightblue" points="2000.58,-165.565 1990.65,-169.267 2000.72,-172.564 2000.58,-165.565"/>
</g>
<!-- Node22 -->
<g id="node22" class="node"><title>Node22</title>
<g id="a_node22"><a xlink:href="_w_m___k_e_y_u_p___handler_8cpp.html" target="_top" xlink:title="C:/Users/micho/Desktop\l/mt_engine/mt/WM_KEYUP\l_Handler.cpp">
<polygon fill="none" stroke="black" points="3372.5,-78.5 3372.5,-119.5 3511.5,-119.5 3511.5,-78.5 3372.5,-78.5"/>
<text text-anchor="start" x="3380.5" y="-107.5" font-family="Helvetica,sans-Serif" font-size="10.00">C:/Users/micho/Desktop</text>
<text text-anchor="start" x="3380.5" y="-96.5" font-family="Helvetica,sans-Serif" font-size="10.00">/mt_engine/mt/WM_KEYUP</text>
<text text-anchor="middle" x="3442" y="-85.5" font-family="Helvetica,sans-Serif" font-size="10.00">_Handler.cpp</text>
</a>
</g>
</g>
<!-- Node1&#45;&gt;Node22 -->
<g id="edge29" class="edge"><title>Node1&#45;&gt;Node22</title>
<path fill="none" stroke="midnightblue" d="M2001.21,-170C2257.73,-167.961 3097.11,-158.442 3364,-120 3366.77,-119.601 3369.58,-119.143 3372.41,-118.637"/>
<polygon fill="midnightblue" stroke="midnightblue" points="2000.86,-166.503 1990.88,-170.081 2000.91,-173.503 2000.86,-166.503"/>
</g>
<!-- Node23 -->
<g id="node23" class="node"><title>Node23</title>
<g id="a_node23"><a xlink:href="_w_m___s_i_z_e___handler_8cpp.html" target="_top" xlink:title="C:/Users/micho/Desktop\l/mt_engine/mt/WM_SIZE\l_Handler.cpp">
<polygon fill="none" stroke="black" points="3530,-78.5 3530,-119.5 3656,-119.5 3656,-78.5 3530,-78.5"/>
<text text-anchor="start" x="3538" y="-107.5" font-family="Helvetica,sans-Serif" font-size="10.00">C:/Users/micho/Desktop</text>
<text text-anchor="start" x="3538" y="-96.5" font-family="Helvetica,sans-Serif" font-size="10.00">/mt_engine/mt/WM_SIZE</text>
<text text-anchor="middle" x="3593" y="-85.5" font-family="Helvetica,sans-Serif" font-size="10.00">_Handler.cpp</text>
</a>
</g>
</g>
<!-- Node1&#45;&gt;Node23 -->
<g id="edge30" class="edge"><title>Node1&#45;&gt;Node23</title>
<path fill="none" stroke="midnightblue" d="M2001,-170.501C2275.13,-170.136 3222.37,-165.53 3521,-120 3523.95,-119.55 3526.95,-119.02 3529.97,-118.427"/>
<polygon fill="midnightblue" stroke="midnightblue" points="2000.75,-167.001 1990.76,-170.513 2000.76,-174.001 2000.75,-167.001"/>
</g>
<!-- Node24 -->
<g id="node24" class="node"><title>Node24</title>
<g id="a_node24"><a xlink:href="_w_m___t_i_m_e_r___handler_8cpp.html" target="_top" xlink:title="C:/Users/micho/Desktop\l/mt_engine/mt/WM_TIMER\l_Handler.cpp">
<polygon fill="none" stroke="black" points="3674,-78.5 3674,-119.5 3808,-119.5 3808,-78.5 3674,-78.5"/>
<text text-anchor="start" x="3682" y="-107.5" font-family="Helvetica,sans-Serif" font-size="10.00">C:/Users/micho/Desktop</text>
<text text-anchor="start" x="3682" y="-96.5" font-family="Helvetica,sans-Serif" font-size="10.00">/mt_engine/mt/WM_TIMER</text>
<text text-anchor="middle" x="3741" y="-85.5" font-family="Helvetica,sans-Serif" font-size="10.00">_Handler.cpp</text>
</a>
</g>
</g>
<!-- Node1&#45;&gt;Node24 -->
<g id="edge31" class="edge"><title>Node1&#45;&gt;Node24</title>
<path fill="none" stroke="midnightblue" d="M2001.33,-170.598C2291.45,-170.619 3336.67,-167.334 3665,-120 3667.84,-119.591 3670.72,-119.115 3673.62,-118.585"/>
<polygon fill="midnightblue" stroke="midnightblue" points="2000.92,-167.098 1990.92,-170.595 2000.92,-174.098 2000.92,-167.098"/>
</g>
<!-- Node10 -->
<g id="node10" class="node"><title>Node10</title>
<g id="a_node10"><a xlink:href="_windows_message_handling_service_8cpp.html" target="_top" xlink:title="C:/Users/micho/Desktop\l/mt_engine/mt/WindowsMessage\lHandlingService.cpp">
<polygon fill="none" stroke="black" points="1938.5,-0.5 1938.5,-41.5 2099.5,-41.5 2099.5,-0.5 1938.5,-0.5"/>
<text text-anchor="start" x="1946.5" y="-29.5" font-family="Helvetica,sans-Serif" font-size="10.00">C:/Users/micho/Desktop</text>
<text text-anchor="start" x="1946.5" y="-18.5" font-family="Helvetica,sans-Serif" font-size="10.00">/mt_engine/mt/WindowsMessage</text>
<text text-anchor="middle" x="2019" y="-7.5" font-family="Helvetica,sans-Serif" font-size="10.00">HandlingService.cpp</text>
</a>
</g>
</g>
<!-- Node9&#45;&gt;Node10 -->
<g id="edge9" class="edge"><title>Node9&#45;&gt;Node10</title>
<path fill="none" stroke="midnightblue" d="M1361.92,-77.9566C1575.64,-47.8912 1815.95,-32.44 1938.39,-25.8826"/>
<polygon fill="midnightblue" stroke="midnightblue" points="1361.17,-74.5276 1351.77,-79.3993 1362.16,-81.4581 1361.17,-74.5276"/>
</g>
<!-- Node11&#45;&gt;Node10 -->
<g id="edge11" class="edge"><title>Node11&#45;&gt;Node10</title>
<path fill="none" stroke="midnightblue" d="M1542.32,-77.8557C1687.11,-53.756 1845.12,-37.4832 1938.3,-28.921"/>
<polygon fill="midnightblue" stroke="midnightblue" points="1541.64,-74.4203 1532.36,-79.5293 1542.8,-81.3235 1541.64,-74.4203"/>
</g>
<!-- Node12&#45;&gt;Node10 -->
<g id="edge13" class="edge"><title>Node12&#45;&gt;Node10</title>
<path fill="none" stroke="midnightblue" d="M1742.14,-77.6658C1803.62,-65.3035 1881.07,-49.7327 1938.4,-38.2049"/>
<polygon fill="midnightblue" stroke="midnightblue" points="1741.14,-74.2968 1732.02,-79.6994 1742.52,-81.1595 1741.14,-74.2968"/>
</g>
<!-- Node13&#45;&gt;Node10 -->
<g id="edge15" class="edge"><title>Node13&#45;&gt;Node10</title>
<path fill="none" stroke="midnightblue" d="M1890.25,-74.6086C1916.21,-64.0008 1946.55,-51.6015 1971.26,-41.5056"/>
<polygon fill="midnightblue" stroke="midnightblue" points="1888.83,-71.4056 1880.9,-78.4281 1891.48,-77.8856 1888.83,-71.4056"/>
</g>
<!-- Node14&#45;&gt;Node10 -->
<g id="edge17" class="edge"><title>Node14&#45;&gt;Node10</title>
<path fill="none" stroke="midnightblue" d="M2019,-68.2965C2019,-59.3009 2019,-49.6532 2019,-41.5056"/>
<polygon fill="midnightblue" stroke="midnightblue" points="2015.5,-68.4281 2019,-78.4281 2022.5,-68.4281 2015.5,-68.4281"/>
</g>
<!-- Node15&#45;&gt;Node10 -->
<g id="edge19" class="edge"><title>Node15&#45;&gt;Node10</title>
<path fill="none" stroke="midnightblue" d="M2133.68,-74.189C2110.58,-63.6749 2083.75,-51.4687 2061.86,-41.5056"/>
<polygon fill="midnightblue" stroke="midnightblue" points="2132.44,-77.4716 2142.99,-78.4281 2135.34,-71.1003 2132.44,-77.4716"/>
</g>
<!-- Node16&#45;&gt;Node10 -->
<g id="edge21" class="edge"><title>Node16&#45;&gt;Node10</title>
<path fill="none" stroke="midnightblue" d="M2260.65,-76.1746C2209.64,-64.7387 2147.91,-50.9 2099.61,-40.0719"/>
<polygon fill="midnightblue" stroke="midnightblue" points="2260.18,-79.6557 2270.7,-78.4281 2261.71,-72.8252 2260.18,-79.6557"/>
</g>
<!-- Node17&#45;&gt;Node10 -->
<g id="edge23" class="edge"><title>Node17&#45;&gt;Node10</title>
<path fill="none" stroke="midnightblue" d="M2456.57,-77.8226C2326.3,-55.5936 2185.91,-39.2619 2099.83,-30.119"/>
<polygon fill="midnightblue" stroke="midnightblue" points="2456.28,-81.3242 2466.73,-79.572 2457.46,-74.4257 2456.28,-81.3242"/>
</g>
<!-- Node18&#45;&gt;Node10 -->
<g id="edge25" class="edge"><title>Node18&#45;&gt;Node10</title>
<path fill="none" stroke="midnightblue" d="M2638.68,-77.9113C2440.45,-44.1782 2217.03,-30.4195 2099.94,-25.057"/>
<polygon fill="midnightblue" stroke="midnightblue" points="2638.24,-81.3883 2648.69,-79.6368 2639.43,-74.4899 2638.24,-81.3883"/>
</g>
</g>
</svg>
        <g id="navigator" transform="translate(0 0)" fill="#404254">
                <rect fill="#f2f5e9" fill-opacity="0.5" stroke="#606060" stroke-width=".5" x="0" y="0" width="60" height="60"/>
                <use id="zoomplus" xlink:href="#zoomPlus" x="17" y="9" onmousedown="handleZoom(evt,'in')"/>
                <use id="zoomminus" xlink:href="#zoomMin" x="42" y="9" onmousedown="handleZoom(evt,'out')"/>
                <use id="reset" xlink:href="#resetDef" x="30" y="36" onmousedown="handleReset()"/>
                <g id="arrowUp" xlink:href="#dirArrow" transform="translate(30 24)" onmousedown="handlePan(0,-1)">
                  <use xlink:href="#rim" fill="#404040">
                        <set attributeName="fill" to="#808080" begin="arrowUp.mouseover" end="arrowUp.mouseout"/>
                  </use>
                  <path fill="none" stroke="white" stroke-width="1.5" d="M0,-3.0v7 M-2.5,-0.5L0,-3.0L2.5,-0.5"/>
                </g>
                <g id="arrowRight" xlink:href="#dirArrow" transform="rotate(90) translate(36 -43)" onmousedown="handlePan(1,0)">
                  <use xlink:href="#rim" fill="#404040">
                        <set attributeName="fill" to="#808080" begin="arrowRight.mouseover" end="arrowRight.mouseout"/>
                  </use>
                  <path fill="none" stroke="white" stroke-width="1.5" d="M0,-3.0v7 M-2.5,-0.5L0,-3.0L2.5,-0.5"/>
                </g>
                <g id="arrowDown" xlink:href="#dirArrow" transform="rotate(180) translate(-30 -48)" onmousedown="handlePan(0,1)">
                  <use xlink:href="#rim" fill="#404040">
                        <set attributeName="fill" to="#808080" begin="arrowDown.mouseover" end="arrowDown.mouseout"/>
                  </use>
                  <path fill="none" stroke="white" stroke-width="1.5" d="M0,-3.0v7 M-2.5,-0.5L0,-3.0L2.5,-0.5"/>
                </g>
                <g id="arrowLeft" xlink:href="#dirArrow" transform="rotate(270) translate(-36 17)" onmousedown="handlePan(-1,0)">
                  <use xlink:href="#rim" fill="#404040">
                        <set attributeName="fill" to="#808080" begin="arrowLeft.mouseover" end="arrowLeft.mouseout"/>
                  </use>
                  <path fill="none" stroke="white" stroke-width="1.5" d="M0,-3.0v7 M-2.5,-0.5L0,-3.0L2.5,-0.5"/>
                </g>
        </g>
        <svg viewBox="0 0 15 15" width="100%" height="30px" preserveAspectRatio="xMaxYMin meet">
         <g id="arrow_out" transform="scale(0.3 0.3)">
          <a xlink:href="engine_8hpp__dep__incl_org.svg" target="_base">
           <rect id="button" ry="5" rx="5" y="6" x="6" height="38" width="38"
                fill="#f2f5e9" fill-opacity="0.5" stroke="#606060" stroke-width="1.0"/>
           <path id="arrow"
             d="M 11.500037,31.436501 C 11.940474,20.09759 22.043105,11.32322 32.158766,21.979434 L 37.068811,17.246167 C 37.068811,17.246167 37.088388,32 37.088388,32 L 22.160133,31.978069 C 22.160133,31.978069 26.997745,27.140456 26.997745,27.140456 C 18.528582,18.264221 13.291696,25.230495 11.500037,31.436501 z"
             style="fill:#404040;"/>
          </a>
         </g>
        </svg>
</svg>
