<?xml version="1.0" encoding="UTF-8" standalone="no"?>
<!DOCTYPE svg PUBLIC "-//W3C//DTD SVG 1.1//EN"
 "http://www.w3.org/Graphics/SVG/1.1/DTD/svg11.dtd">
<!-- Generated by graphviz version 2.38.0 (20140413.2041)
 -->
<!-- Title: Graphical Class Hierarchy Pages: 1 -->
<svg width="345pt" height="1142pt"
 viewBox="0.00 0.00 345.00 1141.50" xmlns="http://www.w3.org/2000/svg" xmlns:xlink="http://www.w3.org/1999/xlink">
<g id="graph0" class="graph" transform="scale(1 1) rotate(0) translate(4 1137.5)">
<title>Graphical Class Hierarchy</title>
<!-- Node1 -->
<g id="node1" class="node"><title>Node1</title>
<g id="a_node1"><a xlink:href="class_windows_message_handler.html" target="_top" xlink:title="WindowsMessageHandler">
<polygon fill="none" stroke="black" points="0,-563 0,-582 129,-582 129,-563 0,-563"/>
<text text-anchor="middle" x="64.5" y="-570" font-family="Helvetica,sans-Serif" font-size="10.00">WindowsMessageHandler</text>
</a>
</g>
</g>
<!-- Node2 -->
<g id="node2" class="node"><title>Node2</title>
<g id="a_node2"><a xlink:href="class_w_m___a_c_t_i_v_a_t_e___handler.html" target="_top" xlink:title="WM_ACTIVATE_Handler">
<polygon fill="none" stroke="black" points="188.5,-1114 188.5,-1133 313.5,-1133 313.5,-1114 188.5,-1114"/>
<text text-anchor="middle" x="251" y="-1121" font-family="Helvetica,sans-Serif" font-size="10.00">WM_ACTIVATE_Handler</text>
</a>
</g>
</g>
<!-- Node1&#45;&gt;Node2 -->
<g id="edge1" class="edge"><title>Node1&#45;&gt;Node2</title>
<path fill="none" stroke="midnightblue" d="M66.3791,-592.432C70.6472,-679.928 92.0737,-1028.97 165,-1104.5 171.407,-1111.14 179.587,-1115.69 188.331,-1118.77"/>
<polygon fill="midnightblue" stroke="midnightblue" points="69.8676,-592.103 65.9048,-582.277 62.8752,-592.43 69.8676,-592.103"/>
</g>
<!-- Node3 -->
<g id="node3" class="node"><title>Node3</title>
<g id="a_node3"><a xlink:href="class_w_m___c_a_p_t_u_r_e_c_h_a_n_g_e_d___handler.html" target="_top" xlink:title="WM_CAPTURECHANGED_Handler">
<polygon fill="none" stroke="black" points="165,-1076 165,-1095 337,-1095 337,-1076 165,-1076"/>
<text text-anchor="middle" x="251" y="-1083" font-family="Helvetica,sans-Serif" font-size="10.00">WM_CAPTURECHANGED_Handler</text>
</a>
</g>
</g>
<!-- Node1&#45;&gt;Node3 -->
<g id="edge2" class="edge"><title>Node1&#45;&gt;Node3</title>
<path fill="none" stroke="midnightblue" d="M66.7,-592.592C72.1164,-676.413 97.0462,-997.093 165,-1066.5 168.702,-1070.28 172.981,-1073.38 177.61,-1075.92"/>
<polygon fill="midnightblue" stroke="midnightblue" points="70.1793,-592.149 66.0628,-582.387 63.1929,-592.586 70.1793,-592.149"/>
</g>
<!-- Node4 -->
<g id="node4" class="node"><title>Node4</title>
<g id="a_node4"><a xlink:href="class_w_m___c_l_o_s_e___handler.html" target="_top" xlink:title="WM_CLOSE_Handler">
<polygon fill="none" stroke="black" points="195.5,-1038 195.5,-1057 306.5,-1057 306.5,-1038 195.5,-1038"/>
<text text-anchor="middle" x="251" y="-1045" font-family="Helvetica,sans-Serif" font-size="10.00">WM_CLOSE_Handler</text>
</a>
</g>
</g>
<!-- Node1&#45;&gt;Node4 -->
<g id="edge3" class="edge"><title>Node1&#45;&gt;Node4</title>
<path fill="none" stroke="midnightblue" d="M67.0186,-592.047C73.5472,-670.976 101.813,-964.991 165,-1028.5 173.212,-1036.75 184.174,-1041.76 195.489,-1044.73"/>
<polygon fill="midnightblue" stroke="midnightblue" points="70.5023,-591.702 66.2116,-582.015 63.5249,-592.264 70.5023,-591.702"/>
</g>
<!-- Node5 -->
<g id="node5" class="node"><title>Node5</title>
<g id="a_node5"><a xlink:href="class_w_m___d_e_s_t_r_o_y___handler.html" target="_top" xlink:title="WM_DESTROY_Handler">
<polygon fill="none" stroke="black" points="188.5,-1000 188.5,-1019 313.5,-1019 313.5,-1000 188.5,-1000"/>
<text text-anchor="middle" x="251" y="-1007" font-family="Helvetica,sans-Serif" font-size="10.00">WM_DESTROY_Handler</text>
</a>
</g>
</g>
<!-- Node1&#45;&gt;Node5 -->
<g id="edge4" class="edge"><title>Node1&#45;&gt;Node5</title>
<path fill="none" stroke="midnightblue" d="M67.4638,-592.324C75.3022,-667.422 106.779,-933.076 165,-990.5 171.459,-996.871 179.56,-1001.3 188.178,-1004.35"/>
<polygon fill="midnightblue" stroke="midnightblue" points="70.94,-591.912 66.4431,-582.319 63.9762,-592.623 70.94,-591.912"/>
</g>
<!-- Node6 -->
<g id="node6" class="node"><title>Node6</title>
<g id="a_node6"><a xlink:href="class_w_m___e_n_t_e_r_s_i_z_e_m_o_v_e___handler.html" target="_top" xlink:title="WM_ENTERSIZEMOVE_Handler">
<polygon fill="none" stroke="black" points="170.5,-962 170.5,-981 331.5,-981 331.5,-962 170.5,-962"/>
<text text-anchor="middle" x="251" y="-969" font-family="Helvetica,sans-Serif" font-size="10.00">WM_ENTERSIZEMOVE_Handler</text>
</a>
</g>
</g>
<!-- Node1&#45;&gt;Node6 -->
<g id="edge5" class="edge"><title>Node1&#45;&gt;Node6</title>
<path fill="none" stroke="midnightblue" d="M67.9653,-592.305C77.1537,-662.941 111.644,-901.04 165,-952.5 168.918,-956.279 173.415,-959.371 178.251,-961.894"/>
<polygon fill="midnightblue" stroke="midnightblue" points="71.4042,-591.603 66.6671,-582.126 64.4605,-592.489 71.4042,-591.603"/>
</g>
<!-- Node7 -->
<g id="node7" class="node"><title>Node7</title>
<g id="a_node7"><a xlink:href="class_w_m___e_r_a_s_e_b_k_g_n_d___handler.html" target="_top" xlink:title="WM_ERASEBKGND_Handler">
<polygon fill="none" stroke="black" points="178,-924 178,-943 324,-943 324,-924 178,-924"/>
<text text-anchor="middle" x="251" y="-931" font-family="Helvetica,sans-Serif" font-size="10.00">WM_ERASEBKGND_Handler</text>
</a>
</g>
</g>
<!-- Node1&#45;&gt;Node7 -->
<g id="edge6" class="edge"><title>Node1&#45;&gt;Node7</title>
<path fill="none" stroke="midnightblue" d="M64.8235,-592.262C63.9656,-650.876 69.8988,-825.227 165,-914.5 169.079,-918.329 173.755,-921.448 178.769,-923.983"/>
<polygon fill="midnightblue" stroke="midnightblue" points="68.3253,-592.221 65.0612,-582.141 61.3273,-592.056 68.3253,-592.221"/>
</g>
<!-- Node8 -->
<g id="node8" class="node"><title>Node8</title>
<g id="a_node8"><a xlink:href="class_w_m___e_x_i_t_s_i_z_e_m_o_v_e___handler.html" target="_top" xlink:title="WM_EXITSIZEMOVE_Handler">
<polygon fill="none" stroke="black" points="177,-886 177,-905 325,-905 325,-886 177,-886"/>
<text text-anchor="middle" x="251" y="-893" font-family="Helvetica,sans-Serif" font-size="10.00">WM_EXITSIZEMOVE_Handler</text>
</a>
</g>
</g>
<!-- Node1&#45;&gt;Node8 -->
<g id="edge7" class="edge"><title>Node1&#45;&gt;Node8</title>
<path fill="none" stroke="midnightblue" d="M65.6587,-592.216C67.2231,-646.415 79.4042,-798.782 165,-876.5 169.142,-880.261 173.863,-883.332 178.908,-885.833"/>
<polygon fill="midnightblue" stroke="midnightblue" points="69.1578,-592.132 65.4634,-582.202 62.1591,-592.269 69.1578,-592.132"/>
</g>
<!-- Node9 -->
<g id="node9" class="node"><title>Node9</title>
<g id="a_node9"><a xlink:href="class_w_m___g_e_t_i_c_o_n___handler.html" target="_top" xlink:title="WM_GETICON_Handler">
<polygon fill="none" stroke="black" points="190.5,-848 190.5,-867 311.5,-867 311.5,-848 190.5,-848"/>
<text text-anchor="middle" x="251" y="-855" font-family="Helvetica,sans-Serif" font-size="10.00">WM_GETICON_Handler</text>
</a>
</g>
</g>
<!-- Node1&#45;&gt;Node9 -->
<g id="edge8" class="edge"><title>Node1&#45;&gt;Node9</title>
<path fill="none" stroke="midnightblue" d="M66.6954,-592.041C70.8173,-641.445 88.7585,-772.118 165,-838.5 172.185,-844.756 180.981,-849.083 190.16,-852.052"/>
<polygon fill="midnightblue" stroke="midnightblue" points="70.1844,-591.762 65.9627,-582.044 63.2031,-592.273 70.1844,-591.762"/>
</g>
<!-- Node10 -->
<g id="node10" class="node"><title>Node10</title>
<g id="a_node10"><a xlink:href="class_w_m___g_e_t_m_i_n_m_a_x_i_n_f_o___handler.html" target="_top" xlink:title="WM_GETMINMAXINFO_Handler">
<polygon fill="none" stroke="black" points="172,-810 172,-829 330,-829 330,-810 172,-810"/>
<text text-anchor="middle" x="251" y="-817" font-family="Helvetica,sans-Serif" font-size="10.00">WM_GETMINMAXINFO_Handler</text>
</a>
</g>
</g>
<!-- Node1&#45;&gt;Node10 -->
<g id="edge9" class="edge"><title>Node1&#45;&gt;Node10</title>
<path fill="none" stroke="midnightblue" d="M68.0778,-592.205C74.9895,-636.708 98.1798,-745.395 165,-800.5 169.666,-804.348 174.95,-807.458 180.543,-809.966"/>
<polygon fill="midnightblue" stroke="midnightblue" points="71.5151,-591.519 66.6248,-582.12 64.5866,-592.517 71.5151,-591.519"/>
</g>
<!-- Node11 -->
<g id="node11" class="node"><title>Node11</title>
<g id="a_node11"><a xlink:href="class_w_m___k_e_y_u_p___handler.html" target="_top" xlink:title="WM_KEYUP_Handler">
<polygon fill="none" stroke="black" points="195,-772 195,-791 307,-791 307,-772 195,-772"/>
<text text-anchor="middle" x="251" y="-779" font-family="Helvetica,sans-Serif" font-size="10.00">WM_KEYUP_Handler</text>
</a>
</g>
</g>
<!-- Node1&#45;&gt;Node11 -->
<g id="edge10" class="edge"><title>Node1&#45;&gt;Node11</title>
<path fill="none" stroke="midnightblue" d="M69.9122,-592.082C79.7548,-631.033 107.323,-718.275 165,-762.5 173.64,-769.125 184.143,-773.526 194.779,-776.43"/>
<polygon fill="midnightblue" stroke="midnightblue" points="73.2891,-591.155 67.5496,-582.249 66.4828,-592.79 73.2891,-591.155"/>
</g>
<!-- Node12 -->
<g id="node12" class="node"><title>Node12</title>
<g id="a_node12"><a xlink:href="class_w_m___l_b_u_t_t_o_n_d_o_w_n___handler.html" target="_top" xlink:title="WM_LBUTTONDOWN_Handler">
<polygon fill="none" stroke="black" points="175,-734 175,-753 327,-753 327,-734 175,-734"/>
<text text-anchor="middle" x="251" y="-741" font-family="Helvetica,sans-Serif" font-size="10.00">WM_LBUTTONDOWN_Handler</text>
</a>
</g>
</g>
<!-- Node1&#45;&gt;Node12 -->
<g id="edge11" class="edge"><title>Node1&#45;&gt;Node12</title>
<path fill="none" stroke="midnightblue" d="M72.5591,-591.951C85.5138,-624.754 116.307,-690.789 165,-724.5 170.595,-728.373 176.849,-731.472 183.358,-733.949"/>
<polygon fill="midnightblue" stroke="midnightblue" points="75.6752,-590.298 68.8495,-582.195 69.1322,-592.786 75.6752,-590.298"/>
</g>
<!-- Node13 -->
<g id="node13" class="node"><title>Node13</title>
<g id="a_node13"><a xlink:href="class_w_m___l_b_u_t_t_o_n_u_p___handler.html" target="_top" xlink:title="WM_LBUTTONUP_Handler">
<polygon fill="none" stroke="black" points="183.5,-696 183.5,-715 318.5,-715 318.5,-696 183.5,-696"/>
<text text-anchor="middle" x="251" y="-703" font-family="Helvetica,sans-Serif" font-size="10.00">WM_LBUTTONUP_Handler</text>
</a>
</g>
</g>
<!-- Node1&#45;&gt;Node13 -->
<g id="edge12" class="edge"><title>Node1&#45;&gt;Node13</title>
<path fill="none" stroke="midnightblue" d="M76.3273,-591.044C92.3215,-616.701 124.759,-662.566 165,-686.5 171.498,-690.365 178.7,-693.445 186.084,-695.899"/>
<polygon fill="midnightblue" stroke="midnightblue" points="79.1967,-589.025 71.0204,-582.287 73.2103,-592.653 79.1967,-589.025"/>
</g>
<!-- Node14 -->
<g id="node14" class="node"><title>Node14</title>
<g id="a_node14"><a xlink:href="class_w_m___m_b_u_t_t_o_n_d_o_w_n___handler.html" target="_top" xlink:title="WM_MBUTTONDOWN_Handler">
<polygon fill="none" stroke="black" points="173.5,-658 173.5,-677 328.5,-677 328.5,-658 173.5,-658"/>
<text text-anchor="middle" x="251" y="-665" font-family="Helvetica,sans-Serif" font-size="10.00">WM_MBUTTONDOWN_Handler</text>
</a>
</g>
</g>
<!-- Node1&#45;&gt;Node14 -->
<g id="edge13" class="edge"><title>Node1&#45;&gt;Node14</title>
<path fill="none" stroke="midnightblue" d="M82.3758,-589.132C101.032,-606.563 132.734,-633.463 165,-648.5 173.224,-652.332 182.261,-655.412 191.28,-657.881"/>
<polygon fill="midnightblue" stroke="midnightblue" points="84.6419,-586.456 74.9912,-582.084 79.809,-591.52 84.6419,-586.456"/>
</g>
<!-- Node15 -->
<g id="node15" class="node"><title>Node15</title>
<g id="a_node15"><a xlink:href="class_w_m___m_b_u_t_t_o_n_u_p___handler.html" target="_top" xlink:title="WM_MBUTTONUP_Handler">
<polygon fill="none" stroke="black" points="182,-620 182,-639 320,-639 320,-620 182,-620"/>
<text text-anchor="middle" x="251" y="-627" font-family="Helvetica,sans-Serif" font-size="10.00">WM_MBUTTONUP_Handler</text>
</a>
</g>
</g>
<!-- Node1&#45;&gt;Node15 -->
<g id="edge14" class="edge"><title>Node1&#45;&gt;Node15</title>
<path fill="none" stroke="midnightblue" d="M96.9608,-585.859C116.338,-593.748 141.824,-603.524 165,-610.5 176.728,-614.03 189.544,-617.228 201.586,-619.952"/>
<polygon fill="midnightblue" stroke="midnightblue" points="98.2829,-582.618 87.7036,-582.044 95.6159,-589.09 98.2829,-582.618"/>
</g>
<!-- Node16 -->
<g id="node16" class="node"><title>Node16</title>
<g id="a_node16"><a xlink:href="class_w_m___m_e_n_u_c_h_a_r___handler.html" target="_top" xlink:title="WM_MENUCHAR_Handler">
<polygon fill="none" stroke="black" points="184,-582 184,-601 318,-601 318,-582 184,-582"/>
<text text-anchor="middle" x="251" y="-589" font-family="Helvetica,sans-Serif" font-size="10.00">WM_MENUCHAR_Handler</text>
</a>
</g>
</g>
<!-- Node1&#45;&gt;Node16 -->
<g id="edge15" class="edge"><title>Node1&#45;&gt;Node16</title>
<path fill="none" stroke="midnightblue" d="M139.297,-580.1C153.983,-581.612 169.32,-583.191 183.735,-584.676"/>
<polygon fill="midnightblue" stroke="midnightblue" points="139.559,-576.608 129.253,-579.065 138.842,-583.571 139.559,-576.608"/>
</g>
<!-- Node17 -->
<g id="node17" class="node"><title>Node17</title>
<g id="a_node17"><a xlink:href="class_w_m___m_o_u_s_e_m_o_v_e___handler.html" target="_top" xlink:title="WM_MOUSEMOVE_Handler">
<polygon fill="none" stroke="black" points="179.5,-544 179.5,-563 322.5,-563 322.5,-544 179.5,-544"/>
<text text-anchor="middle" x="251" y="-551" font-family="Helvetica,sans-Serif" font-size="10.00">WM_MOUSEMOVE_Handler</text>
</a>
</g>
</g>
<!-- Node1&#45;&gt;Node17 -->
<g id="edge16" class="edge"><title>Node1&#45;&gt;Node17</title>
<path fill="none" stroke="midnightblue" d="M139.232,-564.907C152.441,-563.547 166.178,-562.132 179.299,-560.781"/>
<polygon fill="midnightblue" stroke="midnightblue" points="138.842,-561.429 129.253,-565.935 139.559,-568.392 138.842,-561.429"/>
</g>
<!-- Node18 -->
<g id="node18" class="node"><title>Node18</title>
<g id="a_node18"><a xlink:href="class_w_m___m_o_v_e___handler.html" target="_top" xlink:title="WM_MOVE_Handler">
<polygon fill="none" stroke="black" points="197.5,-506 197.5,-525 304.5,-525 304.5,-506 197.5,-506"/>
<text text-anchor="middle" x="251" y="-513" font-family="Helvetica,sans-Serif" font-size="10.00">WM_MOVE_Handler</text>
</a>
</g>
</g>
<!-- Node1&#45;&gt;Node18 -->
<g id="edge17" class="edge"><title>Node1&#45;&gt;Node18</title>
<path fill="none" stroke="midnightblue" d="M96.9608,-559.141C116.338,-551.252 141.824,-541.476 165,-534.5 176.728,-530.97 189.544,-527.772 201.586,-525.048"/>
<polygon fill="midnightblue" stroke="midnightblue" points="95.6159,-555.91 87.7036,-562.956 98.2829,-562.382 95.6159,-555.91"/>
</g>
<!-- Node19 -->
<g id="node19" class="node"><title>Node19</title>
<g id="a_node19"><a xlink:href="class_w_m___m_o_v_i_n_g___handler.html" target="_top" xlink:title="WM_MOVING_Handler">
<polygon fill="none" stroke="black" points="192.5,-468 192.5,-487 309.5,-487 309.5,-468 192.5,-468"/>
<text text-anchor="middle" x="251" y="-475" font-family="Helvetica,sans-Serif" font-size="10.00">WM_MOVING_Handler</text>
</a>
</g>
</g>
<!-- Node1&#45;&gt;Node19 -->
<g id="edge18" class="edge"><title>Node1&#45;&gt;Node19</title>
<path fill="none" stroke="midnightblue" d="M82.3758,-555.868C101.032,-538.437 132.734,-511.537 165,-496.5 173.498,-492.54 182.865,-489.384 192.182,-486.874"/>
<polygon fill="midnightblue" stroke="midnightblue" points="79.809,-553.48 74.9912,-562.916 84.6419,-558.544 79.809,-553.48"/>
</g>
<!-- Node20 -->
<g id="node20" class="node"><title>Node20</title>
<g id="a_node20"><a xlink:href="class_w_m___n_c_c_a_l_c_s_i_z_e___handler.html" target="_top" xlink:title="WM_NCCALCSIZE_Handler">
<polygon fill="none" stroke="black" points="182,-430 182,-449 320,-449 320,-430 182,-430"/>
<text text-anchor="middle" x="251" y="-437" font-family="Helvetica,sans-Serif" font-size="10.00">WM_NCCALCSIZE_Handler</text>
</a>
</g>
</g>
<!-- Node1&#45;&gt;Node20 -->
<g id="edge19" class="edge"><title>Node1&#45;&gt;Node20</title>
<path fill="none" stroke="midnightblue" d="M76.3273,-553.956C92.3215,-528.299 124.759,-482.434 165,-458.5 171.498,-454.635 178.7,-451.555 186.084,-449.101"/>
<polygon fill="midnightblue" stroke="midnightblue" points="73.2103,-552.347 71.0204,-562.713 79.1967,-555.975 73.2103,-552.347"/>
</g>
<!-- Node21 -->
<g id="node21" class="node"><title>Node21</title>
<g id="a_node21"><a xlink:href="class_w_m___n_c_m_o_u_s_e_l_e_a_v_e___handler.html" target="_top" xlink:title="WM_NCMOUSELEAVE_Handler">
<polygon fill="none" stroke="black" points="171,-392 171,-411 331,-411 331,-392 171,-392"/>
<text text-anchor="middle" x="251" y="-399" font-family="Helvetica,sans-Serif" font-size="10.00">WM_NCMOUSELEAVE_Handler</text>
</a>
</g>
</g>
<!-- Node1&#45;&gt;Node21 -->
<g id="edge20" class="edge"><title>Node1&#45;&gt;Node21</title>
<path fill="none" stroke="midnightblue" d="M72.5591,-553.049C85.5138,-520.246 116.307,-454.211 165,-420.5 170.595,-416.627 176.849,-413.528 183.358,-411.051"/>
<polygon fill="midnightblue" stroke="midnightblue" points="69.1322,-552.214 68.8495,-562.805 75.6752,-554.702 69.1322,-552.214"/>
</g>
<!-- Node22 -->
<g id="node22" class="node"><title>Node22</title>
<g id="a_node22"><a xlink:href="class_w_m___n_c_p_a_i_n_t___handler.html" target="_top" xlink:title="WM_NCPAINT_Handler">
<polygon fill="none" stroke="black" points="191.5,-354 191.5,-373 310.5,-373 310.5,-354 191.5,-354"/>
<text text-anchor="middle" x="251" y="-361" font-family="Helvetica,sans-Serif" font-size="10.00">WM_NCPAINT_Handler</text>
</a>
</g>
</g>
<!-- Node1&#45;&gt;Node22 -->
<g id="edge21" class="edge"><title>Node1&#45;&gt;Node22</title>
<path fill="none" stroke="midnightblue" d="M69.9122,-552.918C79.7548,-513.967 107.323,-426.725 165,-382.5 172.68,-376.611 181.832,-372.48 191.241,-369.594"/>
<polygon fill="midnightblue" stroke="midnightblue" points="66.4828,-552.21 67.5496,-562.751 73.2891,-553.845 66.4828,-552.21"/>
</g>
<!-- Node23 -->
<g id="node23" class="node"><title>Node23</title>
<g id="a_node23"><a xlink:href="class_w_m___p_a_i_n_t___handler.html" target="_top" xlink:title="WM_PAINT_Handler">
<polygon fill="none" stroke="black" points="198,-316 198,-335 304,-335 304,-316 198,-316"/>
<text text-anchor="middle" x="251" y="-323" font-family="Helvetica,sans-Serif" font-size="10.00">WM_PAINT_Handler</text>
</a>
</g>
</g>
<!-- Node1&#45;&gt;Node23 -->
<g id="edge22" class="edge"><title>Node1&#45;&gt;Node23</title>
<path fill="none" stroke="midnightblue" d="M68.0778,-552.795C74.9895,-508.292 98.1798,-399.605 165,-344.5 174.333,-336.804 186.133,-332.062 197.948,-329.18"/>
<polygon fill="midnightblue" stroke="midnightblue" points="64.5866,-552.483 66.6248,-562.88 71.5151,-553.481 64.5866,-552.483"/>
</g>
<!-- Node24 -->
<g id="node24" class="node"><title>Node24</title>
<g id="a_node24"><a xlink:href="class_w_m___q_u_i_t___handler.html" target="_top" xlink:title="WM_QUIT_Handler">
<polygon fill="none" stroke="black" points="201,-278 201,-297 301,-297 301,-278 201,-278"/>
<text text-anchor="middle" x="251" y="-285" font-family="Helvetica,sans-Serif" font-size="10.00">WM_QUIT_Handler</text>
</a>
</g>
</g>
<!-- Node1&#45;&gt;Node24 -->
<g id="edge23" class="edge"><title>Node1&#45;&gt;Node24</title>
<path fill="none" stroke="midnightblue" d="M66.6954,-552.959C70.8173,-503.555 88.7585,-372.882 165,-306.5 174.922,-297.861 187.917,-292.9 200.75,-290.114"/>
<polygon fill="midnightblue" stroke="midnightblue" points="63.2031,-552.727 65.9627,-562.956 70.1844,-553.238 63.2031,-552.727"/>
</g>
<!-- Node25 -->
<g id="node25" class="node"><title>Node25</title>
<g id="a_node25"><a xlink:href="class_w_m___r_b_u_t_t_o_n_d_o_w_n___handler.html" target="_top" xlink:title="WM_RBUTTONDOWN_Handler">
<polygon fill="none" stroke="black" points="174,-240 174,-259 328,-259 328,-240 174,-240"/>
<text text-anchor="middle" x="251" y="-247" font-family="Helvetica,sans-Serif" font-size="10.00">WM_RBUTTONDOWN_Handler</text>
</a>
</g>
</g>
<!-- Node1&#45;&gt;Node25 -->
<g id="edge24" class="edge"><title>Node1&#45;&gt;Node25</title>
<path fill="none" stroke="midnightblue" d="M65.6587,-552.784C67.2231,-498.585 79.4042,-346.218 165,-268.5 169.142,-264.739 173.863,-261.668 178.908,-259.167"/>
<polygon fill="midnightblue" stroke="midnightblue" points="62.1591,-552.731 65.4634,-562.798 69.1578,-552.868 62.1591,-552.731"/>
</g>
<!-- Node26 -->
<g id="node26" class="node"><title>Node26</title>
<g id="a_node26"><a xlink:href="class_w_m___r_b_u_t_t_o_n_u_p___handler.html" target="_top" xlink:title="WM_RBUTTONUP_Handler">
<polygon fill="none" stroke="black" points="182.5,-202 182.5,-221 319.5,-221 319.5,-202 182.5,-202"/>
<text text-anchor="middle" x="251" y="-209" font-family="Helvetica,sans-Serif" font-size="10.00">WM_RBUTTONUP_Handler</text>
</a>
</g>
</g>
<!-- Node1&#45;&gt;Node26 -->
<g id="edge25" class="edge"><title>Node1&#45;&gt;Node26</title>
<path fill="none" stroke="midnightblue" d="M64.8235,-552.738C63.9656,-494.124 69.8988,-319.773 165,-230.5 170.071,-225.739 176.065,-222.076 182.485,-219.27"/>
<polygon fill="midnightblue" stroke="midnightblue" points="61.3273,-552.944 65.0612,-562.859 68.3253,-552.779 61.3273,-552.944"/>
</g>
<!-- Node27 -->
<g id="node27" class="node"><title>Node27</title>
<g id="a_node27"><a xlink:href="class_w_m___s_e_t_t_e_x_t___handler.html" target="_top" xlink:title="WM_SETTEXT_Handler">
<polygon fill="none" stroke="black" points="191.5,-164 191.5,-183 310.5,-183 310.5,-164 191.5,-164"/>
<text text-anchor="middle" x="251" y="-171" font-family="Helvetica,sans-Serif" font-size="10.00">WM_SETTEXT_Handler</text>
</a>
</g>
</g>
<!-- Node1&#45;&gt;Node27 -->
<g id="edge26" class="edge"><title>Node1&#45;&gt;Node27</title>
<path fill="none" stroke="midnightblue" d="M67.9653,-552.695C77.1537,-482.059 111.644,-243.96 165,-192.5 172.292,-185.467 181.59,-180.814 191.343,-177.777"/>
<polygon fill="midnightblue" stroke="midnightblue" points="64.4605,-552.511 66.6671,-562.874 71.4042,-553.397 64.4605,-552.511"/>
</g>
<!-- Node28 -->
<g id="node28" class="node"><title>Node28</title>
<g id="a_node28"><a xlink:href="class_w_m___s_i_z_e___handler.html" target="_top" xlink:title="WM_SIZE_Handler">
<polygon fill="none" stroke="black" points="201.5,-126 201.5,-145 300.5,-145 300.5,-126 201.5,-126"/>
<text text-anchor="middle" x="251" y="-133" font-family="Helvetica,sans-Serif" font-size="10.00">WM_SIZE_Handler</text>
</a>
</g>
</g>
<!-- Node1&#45;&gt;Node28 -->
<g id="edge27" class="edge"><title>Node1&#45;&gt;Node28</title>
<path fill="none" stroke="midnightblue" d="M67.4638,-552.676C75.3022,-477.578 106.779,-211.924 165,-154.5 174.689,-144.943 188.071,-139.758 201.352,-137.051"/>
<polygon fill="midnightblue" stroke="midnightblue" points="63.9762,-552.377 66.4431,-562.681 70.94,-553.088 63.9762,-552.377"/>
</g>
<!-- Node29 -->
<g id="node29" class="node"><title>Node29</title>
<g id="a_node29"><a xlink:href="class_w_m___s_i_z_i_n_g___handler.html" target="_top" xlink:title="WM_SIZING_Handler">
<polygon fill="none" stroke="black" points="196.5,-88 196.5,-107 305.5,-107 305.5,-88 196.5,-88"/>
<text text-anchor="middle" x="251" y="-95" font-family="Helvetica,sans-Serif" font-size="10.00">WM_SIZING_Handler</text>
</a>
</g>
</g>
<!-- Node1&#45;&gt;Node29 -->
<g id="edge28" class="edge"><title>Node1&#45;&gt;Node29</title>
<path fill="none" stroke="midnightblue" d="M67.0186,-552.953C73.5472,-474.024 101.813,-180.009 165,-116.5 173.425,-108.032 184.745,-102.981 196.371,-100.044"/>
<polygon fill="midnightblue" stroke="midnightblue" points="63.5249,-552.736 66.2116,-562.985 70.5023,-553.298 63.5249,-552.736"/>
</g>
<!-- Node30 -->
<g id="node30" class="node"><title>Node30</title>
<g id="a_node30"><a xlink:href="class_w_m___t_i_m_e_r___handler.html" target="_top" xlink:title="WM_TIMER_Handler">
<polygon fill="none" stroke="black" points="197.5,-50 197.5,-69 304.5,-69 304.5,-50 197.5,-50"/>
<text text-anchor="middle" x="251" y="-57" font-family="Helvetica,sans-Serif" font-size="10.00">WM_TIMER_Handler</text>
</a>
</g>
</g>
<!-- Node1&#45;&gt;Node30 -->
<g id="edge29" class="edge"><title>Node1&#45;&gt;Node30</title>
<path fill="none" stroke="midnightblue" d="M66.7,-552.408C72.1164,-468.587 97.0462,-147.907 165,-78.5 173.569,-69.7482 185.225,-64.6324 197.156,-61.728"/>
<polygon fill="midnightblue" stroke="midnightblue" points="63.1929,-552.414 66.0628,-562.613 70.1793,-552.851 63.1929,-552.414"/>
</g>
<!-- Node31 -->
<g id="node31" class="node"><title>Node31</title>
<g id="a_node31"><a xlink:href="class_w_m___w_i_n_d_o_w_p_o_s_c_h_a_n_g_i_n_g___handler.html" target="_top" xlink:title="WM_WINDOWPOSCHANGING\l_Handler">
<polygon fill="none" stroke="black" points="173.5,-0.5 173.5,-30.5 328.5,-30.5 328.5,-0.5 173.5,-0.5"/>
<text text-anchor="start" x="181.5" y="-18.5" font-family="Helvetica,sans-Serif" font-size="10.00">WM_WINDOWPOSCHANGING</text>
<text text-anchor="middle" x="251" y="-7.5" font-family="Helvetica,sans-Serif" font-size="10.00">_Handler</text>
</a>
</g>
</g>
<!-- Node1&#45;&gt;Node31 -->
<g id="edge30" class="edge"><title>Node1&#45;&gt;Node31</title>
<path fill="none" stroke="midnightblue" d="M66.502,-552.682C71.292,-465.674 94.6107,-118.396 165,-40.5 168.506,-36.6197 172.581,-33.3291 177.01,-30.54"/>
<polygon fill="midnightblue" stroke="midnightblue" points="63.0011,-552.608 65.9663,-562.78 69.9912,-552.979 63.0011,-552.608"/>
</g>
</g>
</svg>
