<?xml version="1.0" encoding="UTF-8" standalone="no"?>
<!DOCTYPE svg PUBLIC "-//W3C//DTD SVG 1.1//EN"
 "http://www.w3.org/Graphics/SVG/1.1/DTD/svg11.dtd">
<!-- Generated by graphviz version 2.38.0 (20140413.2041)
 -->
<!-- Title: MeshGeometry Pages: 1 -->
<svg width="408pt" height="557pt"
 viewBox="0.00 0.00 408.00 557.00" xmlns="http://www.w3.org/2000/svg" xmlns:xlink="http://www.w3.org/1999/xlink">
<g id="graph0" class="graph" transform="scale(1 1) rotate(0) translate(4 553)">
<title>MeshGeometry</title>
<!-- Node1 -->
<g id="node1" class="node"><title>Node1</title>
<polygon fill="#bfbfbf" stroke="black" points="21,-0.5 21,-178.5 140,-178.5 140,-0.5 21,-0.5"/>
<text text-anchor="middle" x="80.5" y="-166.5" font-family="Helvetica,sans-Serif" font-size="10.00">MeshGeometry</text>
<polyline fill="none" stroke="black" points="21,-159.5 140,-159.5 "/>
<text text-anchor="start" x="29" y="-147.5" font-family="Helvetica,sans-Serif" font-size="10.00">+ VertexBufferCPU</text>
<text text-anchor="start" x="29" y="-136.5" font-family="Helvetica,sans-Serif" font-size="10.00">+ IndexBufferCPU</text>
<text text-anchor="start" x="29" y="-125.5" font-family="Helvetica,sans-Serif" font-size="10.00">+ VertexBufferGPU</text>
<text text-anchor="start" x="29" y="-114.5" font-family="Helvetica,sans-Serif" font-size="10.00">+ IndexBufferGPU</text>
<text text-anchor="start" x="29" y="-103.5" font-family="Helvetica,sans-Serif" font-size="10.00">+ VertexBufferUploader</text>
<text text-anchor="start" x="29" y="-92.5" font-family="Helvetica,sans-Serif" font-size="10.00">+ IndexBufferUploader</text>
<text text-anchor="start" x="29" y="-81.5" font-family="Helvetica,sans-Serif" font-size="10.00">+ VertexByteStride</text>
<text text-anchor="start" x="29" y="-70.5" font-family="Helvetica,sans-Serif" font-size="10.00">+ VertexBufferByteSize</text>
<text text-anchor="start" x="29" y="-59.5" font-family="Helvetica,sans-Serif" font-size="10.00">+ IndexFormat</text>
<text text-anchor="start" x="29" y="-48.5" font-family="Helvetica,sans-Serif" font-size="10.00">+ IndexBufferByteSize</text>
<polyline fill="none" stroke="black" points="21,-41.5 140,-41.5 "/>
<text text-anchor="start" x="29" y="-29.5" font-family="Helvetica,sans-Serif" font-size="10.00">+ VertexBufferView()</text>
<text text-anchor="start" x="29" y="-18.5" font-family="Helvetica,sans-Serif" font-size="10.00">+ IndexBufferView()</text>
<text text-anchor="start" x="29" y="-7.5" font-family="Helvetica,sans-Serif" font-size="10.00">+ DisposeUploaders()</text>
</g>
<!-- Node2 -->
<g id="node2" class="node"><title>Node2</title>
<polygon fill="none" stroke="#bfbfbf" points="91.5,-226.5 91.5,-294.5 259.5,-294.5 259.5,-226.5 91.5,-226.5"/>
<text text-anchor="start" x="99.5" y="-282.5" font-family="Helvetica,sans-Serif" font-size="10.00">std::unordered_map</text>
<text text-anchor="middle" x="175.5" y="-271.5" font-family="Helvetica,sans-Serif" font-size="10.00">&lt; std::string, SubmeshGeometry &gt;</text>
<polyline fill="none" stroke="#bfbfbf" points="91.5,-264.5 259.5,-264.5 "/>
<text text-anchor="middle" x="175.5" y="-252.5" font-family="Helvetica,sans-Serif" font-size="10.00"> </text>
<polyline fill="none" stroke="#bfbfbf" points="91.5,-245.5 259.5,-245.5 "/>
<text text-anchor="middle" x="175.5" y="-233.5" font-family="Helvetica,sans-Serif" font-size="10.00"> </text>
</g>
<!-- Node2&#45;&gt;Node1 -->
<g id="edge1" class="edge"><title>Node2&#45;&gt;Node1</title>
<path fill="none" stroke="#404040" d="M156.731,-226.111C150.63,-215.257 143.515,-202.6 136.13,-189.463"/>
<polygon fill="none" stroke="#404040" points="136.044,-189.31 129.617,-186.04 130.164,-178.85 136.591,-182.12 136.044,-189.31"/>
<text text-anchor="middle" x="171.5" y="-200" font-family="Helvetica,sans-Serif" font-size="10.00"> +DrawArgs</text>
</g>
<!-- Node3 -->
<g id="node3" class="node"><title>Node3</title>
<g id="a_node3"><a xlink:href="struct_submesh_geometry.html" target="_top" xlink:title="{SubmeshGeometry\n|+ IndexCount\l+ StartIndexLocation\l+ BaseVertexLocation\l+ Bounds\l|}">
<polygon fill="none" stroke="black" points="287,-342.5 287,-432.5 400,-432.5 400,-342.5 287,-342.5"/>
<text text-anchor="middle" x="343.5" y="-420.5" font-family="Helvetica,sans-Serif" font-size="10.00">SubmeshGeometry</text>
<polyline fill="none" stroke="black" points="287,-413.5 400,-413.5 "/>
<text text-anchor="start" x="295" y="-401.5" font-family="Helvetica,sans-Serif" font-size="10.00">+ IndexCount</text>
<text text-anchor="start" x="295" y="-390.5" font-family="Helvetica,sans-Serif" font-size="10.00">+ StartIndexLocation</text>
<text text-anchor="start" x="295" y="-379.5" font-family="Helvetica,sans-Serif" font-size="10.00">+ BaseVertexLocation</text>
<text text-anchor="start" x="295" y="-368.5" font-family="Helvetica,sans-Serif" font-size="10.00">+ Bounds</text>
<polyline fill="none" stroke="black" points="287,-361.5 400,-361.5 "/>
<text text-anchor="middle" x="343.5" y="-349.5" font-family="Helvetica,sans-Serif" font-size="10.00"> </text>
</a>
</g>
</g>
<!-- Node3&#45;&gt;Node2 -->
<g id="edge2" class="edge"><title>Node3&#45;&gt;Node2</title>
<path fill="none" stroke="#404040" d="M337.387,-342.134C334.12,-331.544 329.126,-321.004 321.5,-313 307.77,-298.591 289.767,-288.208 271.112,-280.729"/>
<polygon fill="none" stroke="#404040" points="271.023,-280.696 264.01,-282.374 259.764,-276.545 266.777,-274.867 271.023,-280.696"/>
<text text-anchor="middle" x="354" y="-316" font-family="Helvetica,sans-Serif" font-size="10.00"> +elements</text>
</g>
<!-- Node4 -->
<g id="node4" class="node"><title>Node4</title>
<g id="a_node4"><a xlink:title="STL class. ">
<polygon fill="none" stroke="#bfbfbf" points="17.5,-359 17.5,-416 77.5,-416 77.5,-359 17.5,-359"/>
<text text-anchor="middle" x="47.5" y="-404" font-family="Helvetica,sans-Serif" font-size="10.00">std::string</text>
<polyline fill="none" stroke="#bfbfbf" points="17.5,-397 77.5,-397 "/>
<text text-anchor="middle" x="47.5" y="-385" font-family="Helvetica,sans-Serif" font-size="10.00"> </text>
<polyline fill="none" stroke="#bfbfbf" points="17.5,-378 77.5,-378 "/>
<text text-anchor="middle" x="47.5" y="-366" font-family="Helvetica,sans-Serif" font-size="10.00"> </text>
</a>
</g>
</g>
<!-- Node4&#45;&gt;Node1 -->
<g id="edge8" class="edge"><title>Node4&#45;&gt;Node1</title>
<path fill="none" stroke="#404040" d="M45.506,-358.832C43.6546,-326.751 41.9383,-272.341 47.5,-226 48.8957,-214.371 50.9423,-202.298 53.3439,-190.365"/>
<polygon fill="none" stroke="#404040" points="53.3702,-190.241 50.6981,-183.543 55.8529,-178.5 58.525,-185.198 53.3702,-190.241"/>
<text text-anchor="middle" x="65" y="-258" font-family="Helvetica,sans-Serif" font-size="10.00"> +Name</text>
</g>
<!-- Node4&#45;&gt;Node2 -->
<g id="edge3" class="edge"><title>Node4&#45;&gt;Node2</title>
<path fill="none" stroke="#404040" d="M75.9073,-358.758C92.5659,-342.49 113.942,-321.615 132.616,-303.379"/>
<polygon fill="none" stroke="#404040" points="132.671,-303.325 134.169,-296.272 141.256,-294.941 139.758,-301.995 132.671,-303.325"/>
<text text-anchor="middle" x="135" y="-316" font-family="Helvetica,sans-Serif" font-size="10.00"> +keys</text>
</g>
<!-- Node5 -->
<g id="node5" class="node"><title>Node5</title>
<g id="a_node5"><a xlink:title="STL class. ">
<polygon fill="none" stroke="#bfbfbf" points="0,-480.5 0,-548.5 95,-548.5 95,-480.5 0,-480.5"/>
<text text-anchor="start" x="8" y="-536.5" font-family="Helvetica,sans-Serif" font-size="10.00">std::basic_string&lt;</text>
<text text-anchor="middle" x="47.5" y="-525.5" font-family="Helvetica,sans-Serif" font-size="10.00"> char &gt;</text>
<polyline fill="none" stroke="#bfbfbf" points="0,-518.5 95,-518.5 "/>
<text text-anchor="middle" x="47.5" y="-506.5" font-family="Helvetica,sans-Serif" font-size="10.00"> </text>
<polyline fill="none" stroke="#bfbfbf" points="0,-499.5 95,-499.5 "/>
<text text-anchor="middle" x="47.5" y="-487.5" font-family="Helvetica,sans-Serif" font-size="10.00"> </text>
</a>
</g>
</g>
<!-- Node5&#45;&gt;Node4 -->
<g id="edge4" class="edge"><title>Node5&#45;&gt;Node4</title>
<path fill="none" stroke="midnightblue" d="M47.5,-470.138C47.5,-452.291 47.5,-432.138 47.5,-416.322"/>
<polygon fill="none" stroke="midnightblue" points="44.0001,-470.33 47.5,-480.33 51.0001,-470.331 44.0001,-470.33"/>
</g>
<!-- Node6 -->
<g id="node6" class="node"><title>Node6</title>
<g id="a_node6"><a xlink:title="STL class. ">
<polygon fill="none" stroke="#bfbfbf" points="114,-353.5 114,-421.5 217,-421.5 217,-353.5 114,-353.5"/>
<text text-anchor="start" x="122" y="-409.5" font-family="Helvetica,sans-Serif" font-size="10.00">std::unordered_map</text>
<text text-anchor="middle" x="165.5" y="-398.5" font-family="Helvetica,sans-Serif" font-size="10.00">&lt; K, T &gt;</text>
<polyline fill="none" stroke="#bfbfbf" points="114,-391.5 217,-391.5 "/>
<text text-anchor="middle" x="165.5" y="-379.5" font-family="Helvetica,sans-Serif" font-size="10.00"> </text>
<polyline fill="none" stroke="#bfbfbf" points="114,-372.5 217,-372.5 "/>
<text text-anchor="middle" x="165.5" y="-360.5" font-family="Helvetica,sans-Serif" font-size="10.00"> </text>
</a>
</g>
</g>
<!-- Node6&#45;&gt;Node2 -->
<g id="edge5" class="edge"><title>Node6&#45;&gt;Node2</title>
<path fill="none" stroke="orange" d="M164.944,-343.083C165.136,-333.179 165.591,-322.713 166.5,-313 167.058,-307.036 167.927,-300.724 168.909,-294.639"/>
<polygon fill="orange" stroke="orange" points="161.444,-343.106 164.832,-353.144 168.443,-343.184 161.444,-343.106"/>
<text text-anchor="middle" x="244" y="-316" font-family="Helvetica,sans-Serif" font-size="10.00"> &lt; std::string, SubmeshGeometry &gt;</text>
</g>
<!-- Node7 -->
<g id="node7" class="node"><title>Node7</title>
<polygon fill="none" stroke="#bfbfbf" points="204,-486 204,-543 233,-543 233,-486 204,-486"/>
<text text-anchor="middle" x="218.5" y="-531" font-family="Helvetica,sans-Serif" font-size="10.00">K</text>
<polyline fill="none" stroke="#bfbfbf" points="204,-524 233,-524 "/>
<text text-anchor="middle" x="218.5" y="-512" font-family="Helvetica,sans-Serif" font-size="10.00"> </text>
<polyline fill="none" stroke="#bfbfbf" points="204,-505 233,-505 "/>
<text text-anchor="middle" x="218.5" y="-493" font-family="Helvetica,sans-Serif" font-size="10.00"> </text>
</g>
<!-- Node7&#45;&gt;Node6 -->
<g id="edge6" class="edge"><title>Node7&#45;&gt;Node6</title>
<path fill="none" stroke="#404040" d="M209.576,-485.843C205.829,-474.88 201.242,-462.234 196.5,-451 193.939,-444.933 191.067,-438.623 188.132,-432.448"/>
<polygon fill="none" stroke="#404040" points="188.084,-432.35 181.862,-428.704 182.835,-421.559 189.056,-425.204 188.084,-432.35"/>
<text text-anchor="middle" x="217" y="-454" font-family="Helvetica,sans-Serif" font-size="10.00"> +keys</text>
</g>
<!-- Node8 -->
<g id="node8" class="node"><title>Node8</title>
<polygon fill="none" stroke="#bfbfbf" points="132,-486 132,-543 161,-543 161,-486 132,-486"/>
<text text-anchor="middle" x="146.5" y="-531" font-family="Helvetica,sans-Serif" font-size="10.00">T</text>
<polyline fill="none" stroke="#bfbfbf" points="132,-524 161,-524 "/>
<text text-anchor="middle" x="146.5" y="-512" font-family="Helvetica,sans-Serif" font-size="10.00"> </text>
<polyline fill="none" stroke="#bfbfbf" points="132,-505 161,-505 "/>
<text text-anchor="middle" x="146.5" y="-493" font-family="Helvetica,sans-Serif" font-size="10.00"> </text>
</g>
<!-- Node8&#45;&gt;Node6 -->
<g id="edge7" class="edge"><title>Node8&#45;&gt;Node6</title>
<path fill="none" stroke="#404040" d="M145.378,-485.991C145.338,-475.048 145.801,-462.377 147.5,-451 148.361,-445.231 149.608,-439.245 151.049,-433.366"/>
<polygon fill="none" stroke="#404040" points="151.11,-433.138 148.802,-426.306 154.22,-421.548 156.529,-428.38 151.11,-433.138"/>
<text text-anchor="middle" x="172" y="-454" font-family="Helvetica,sans-Serif" font-size="10.00"> +elements</text>
</g>
</g>
</svg>
