<?xml version="1.0" encoding="UTF-8" standalone="no"?>
<!DOCTYPE svg PUBLIC "-//W3C//DTD SVG 1.1//EN"
 "http://www.w3.org/Graphics/SVG/1.1/DTD/svg11.dtd">
<!-- Generated by graphviz version 2.38.0 (20140413.2041)
 -->
<!-- Title: GeometryGenerator::MeshData Pages: 1 -->
<svg width="308pt" height="480pt"
 viewBox="0.00 0.00 308.00 480.00" xmlns="http://www.w3.org/2000/svg" xmlns:xlink="http://www.w3.org/1999/xlink">
<g id="graph0" class="graph" transform="scale(1 1) rotate(0) translate(4 476)">
<title>GeometryGenerator::MeshData</title>
<!-- Node1 -->
<g id="node1" class="node"><title>Node1</title>
<polygon fill="#bfbfbf" stroke="black" points="128,-0.5 128,-68.5 236,-68.5 236,-0.5 128,-0.5"/>
<text text-anchor="start" x="136" y="-56.5" font-family="Helvetica,sans-Serif" font-size="10.00">GeometryGenerator::</text>
<text text-anchor="middle" x="182" y="-45.5" font-family="Helvetica,sans-Serif" font-size="10.00">MeshData</text>
<polyline fill="none" stroke="black" points="128,-38.5 236,-38.5 "/>
<text text-anchor="middle" x="182" y="-26.5" font-family="Helvetica,sans-Serif" font-size="10.00"> </text>
<polyline fill="none" stroke="black" points="128,-19.5 236,-19.5 "/>
<text text-anchor="start" x="136" y="-7.5" font-family="Helvetica,sans-Serif" font-size="10.00">+ GetIndices16()</text>
</g>
<!-- Node2 -->
<g id="node2" class="node"><title>Node2</title>
<polygon fill="none" stroke="#bfbfbf" points="194,-122 194,-179 300,-179 300,-122 194,-122"/>
<text text-anchor="middle" x="247" y="-167" font-family="Helvetica,sans-Serif" font-size="10.00">std::vector&lt; uint32 &gt;</text>
<polyline fill="none" stroke="#bfbfbf" points="194,-160 300,-160 "/>
<text text-anchor="start" x="202" y="-148" font-family="Helvetica,sans-Serif" font-size="10.00">+ elements</text>
<polyline fill="none" stroke="#bfbfbf" points="194,-141 300,-141 "/>
<text text-anchor="middle" x="247" y="-129" font-family="Helvetica,sans-Serif" font-size="10.00"> </text>
</g>
<!-- Node2&#45;&gt;Node1 -->
<g id="edge1" class="edge"><title>Node2&#45;&gt;Node1</title>
<path fill="none" stroke="#404040" d="M231.265,-121.904C223.96,-109.091 215.098,-93.549 206.916,-79.1983"/>
<polygon fill="none" stroke="#404040" points="206.772,-78.9459 200.325,-75.7149 200.828,-68.5214 207.275,-71.7523 206.772,-78.9459"/>
<text text-anchor="middle" x="242.5" y="-90" font-family="Helvetica,sans-Serif" font-size="10.00"> +Indices32</text>
</g>
<!-- Node3 -->
<g id="node3" class="node"><title>Node3</title>
<g id="a_node3"><a xlink:title="STL class. ">
<polygon fill="none" stroke="#bfbfbf" points="165.5,-276.5 165.5,-333.5 250.5,-333.5 250.5,-276.5 165.5,-276.5"/>
<text text-anchor="middle" x="208" y="-321.5" font-family="Helvetica,sans-Serif" font-size="10.00">std::vector&lt; T &gt;</text>
<polyline fill="none" stroke="#bfbfbf" points="165.5,-314.5 250.5,-314.5 "/>
<text text-anchor="middle" x="208" y="-302.5" font-family="Helvetica,sans-Serif" font-size="10.00"> </text>
<polyline fill="none" stroke="#bfbfbf" points="165.5,-295.5 250.5,-295.5 "/>
<text text-anchor="middle" x="208" y="-283.5" font-family="Helvetica,sans-Serif" font-size="10.00"> </text>
</a>
</g>
</g>
<!-- Node3&#45;&gt;Node2 -->
<g id="edge2" class="edge"><title>Node3&#45;&gt;Node2</title>
<path fill="none" stroke="orange" d="M217.59,-266.502C224.5,-239.481 233.672,-203.616 239.924,-179.168"/>
<polygon fill="orange" stroke="orange" points="214.149,-265.828 215.063,-276.383 220.931,-267.562 214.149,-265.828"/>
<text text-anchor="middle" x="258" y="-211.5" font-family="Helvetica,sans-Serif" font-size="10.00"> &lt; uint32 &gt;</text>
</g>
<!-- Node5 -->
<g id="node5" class="node"><title>Node5</title>
<polygon fill="none" stroke="#bfbfbf" points="20,-116.5 20,-184.5 176,-184.5 176,-116.5 20,-116.5"/>
<text text-anchor="start" x="28" y="-172.5" font-family="Helvetica,sans-Serif" font-size="10.00">std::vector&lt; GeometryGenerator</text>
<text text-anchor="middle" x="98" y="-161.5" font-family="Helvetica,sans-Serif" font-size="10.00">::Vertex &gt;</text>
<polyline fill="none" stroke="#bfbfbf" points="20,-154.5 176,-154.5 "/>
<text text-anchor="middle" x="98" y="-142.5" font-family="Helvetica,sans-Serif" font-size="10.00"> </text>
<polyline fill="none" stroke="#bfbfbf" points="20,-135.5 176,-135.5 "/>
<text text-anchor="middle" x="98" y="-123.5" font-family="Helvetica,sans-Serif" font-size="10.00"> </text>
</g>
<!-- Node3&#45;&gt;Node5 -->
<g id="edge6" class="edge"><title>Node3&#45;&gt;Node5</title>
<path fill="none" stroke="orange" d="M166.005,-269.467C152.239,-256.589 137.738,-241.147 127,-225 118.872,-212.778 112.472,-197.932 107.776,-184.792"/>
<polygon fill="orange" stroke="orange" points="163.801,-272.194 173.548,-276.347 168.518,-267.022 163.801,-272.194"/>
<text text-anchor="start" x="127" y="-217" font-family="Helvetica,sans-Serif" font-size="10.00"> &lt; GeometryGenerator</text>
<text text-anchor="middle" x="176" y="-206" font-family="Helvetica,sans-Serif" font-size="10.00">::Vertex &gt;</text>
</g>
<!-- Node4 -->
<g id="node4" class="node"><title>Node4</title>
<polygon fill="none" stroke="#bfbfbf" points="193.5,-414.5 193.5,-471.5 222.5,-471.5 222.5,-414.5 193.5,-414.5"/>
<text text-anchor="middle" x="208" y="-459.5" font-family="Helvetica,sans-Serif" font-size="10.00">T</text>
<polyline fill="none" stroke="#bfbfbf" points="193.5,-452.5 222.5,-452.5 "/>
<text text-anchor="middle" x="208" y="-440.5" font-family="Helvetica,sans-Serif" font-size="10.00"> </text>
<polyline fill="none" stroke="#bfbfbf" points="193.5,-433.5 222.5,-433.5 "/>
<text text-anchor="middle" x="208" y="-421.5" font-family="Helvetica,sans-Serif" font-size="10.00"> </text>
</g>
<!-- Node4&#45;&gt;Node3 -->
<g id="edge3" class="edge"><title>Node4&#45;&gt;Node3</title>
<path fill="none" stroke="#404040" d="M208,-414.478C208,-394.792 208,-367.99 208,-345.953"/>
<polygon fill="none" stroke="#404040" points="208,-345.947 204,-339.948 208,-333.947 212,-339.947 208,-345.947"/>
<text text-anchor="middle" x="232.5" y="-388" font-family="Helvetica,sans-Serif" font-size="10.00"> +elements</text>
</g>
<!-- Node5&#45;&gt;Node1 -->
<g id="edge4" class="edge"><title>Node5&#45;&gt;Node1</title>
<path fill="none" stroke="#404040" d="M122.522,-116.22C131.234,-104.397 141.167,-90.9159 150.388,-78.4024"/>
<polygon fill="none" stroke="#404040" points="150.474,-78.285 150.813,-71.0818 157.593,-68.6243 157.254,-75.8274 150.474,-78.285"/>
<text text-anchor="middle" x="166" y="-90" font-family="Helvetica,sans-Serif" font-size="10.00"> +Vertices</text>
</g>
<!-- Node6 -->
<g id="node6" class="node"><title>Node6</title>
<g id="a_node6"><a xlink:href="struct_geometry_generator_1_1_vertex.html" target="_top" xlink:title="{GeometryGenerator::\lVertex\n|+ Position\l+ Normal\l+ TangentU\l+ TexC\l|+ Vertex()\l+ Vertex()\l+ Vertex()\l}">
<polygon fill="none" stroke="black" points="0,-243.5 0,-366.5 108,-366.5 108,-243.5 0,-243.5"/>
<text text-anchor="start" x="8" y="-354.5" font-family="Helvetica,sans-Serif" font-size="10.00">GeometryGenerator::</text>
<text text-anchor="middle" x="54" y="-343.5" font-family="Helvetica,sans-Serif" font-size="10.00">Vertex</text>
<polyline fill="none" stroke="black" points="0,-336.5 108,-336.5 "/>
<text text-anchor="start" x="8" y="-324.5" font-family="Helvetica,sans-Serif" font-size="10.00">+ Position</text>
<text text-anchor="start" x="8" y="-313.5" font-family="Helvetica,sans-Serif" font-size="10.00">+ Normal</text>
<text text-anchor="start" x="8" y="-302.5" font-family="Helvetica,sans-Serif" font-size="10.00">+ TangentU</text>
<text text-anchor="start" x="8" y="-291.5" font-family="Helvetica,sans-Serif" font-size="10.00">+ TexC</text>
<polyline fill="none" stroke="black" points="0,-284.5 108,-284.5 "/>
<text text-anchor="start" x="8" y="-272.5" font-family="Helvetica,sans-Serif" font-size="10.00">+ Vertex()</text>
<text text-anchor="start" x="8" y="-261.5" font-family="Helvetica,sans-Serif" font-size="10.00">+ Vertex()</text>
<text text-anchor="start" x="8" y="-250.5" font-family="Helvetica,sans-Serif" font-size="10.00">+ Vertex()</text>
</a>
</g>
</g>
<!-- Node6&#45;&gt;Node5 -->
<g id="edge5" class="edge"><title>Node6&#45;&gt;Node5</title>
<path fill="none" stroke="#404040" d="M47.9402,-243.5C48.3853,-229.857 50.3346,-215.671 55,-203 56.0017,-200.279 57.2152,-197.601 58.5897,-194.982"/>
<polygon fill="none" stroke="#404040" points="58.7017,-194.801 58.4585,-187.594 65.0176,-184.598 65.2608,-191.805 58.7017,-194.801"/>
<text text-anchor="middle" x="79.5" y="-211.5" font-family="Helvetica,sans-Serif" font-size="10.00"> +elements</text>
</g>
</g>
</svg>
