<?xml version="1.0" encoding="UTF-8" standalone="no"?>
<!DOCTYPE svg PUBLIC "-//W3C//DTD SVG 1.1//EN"
 "http://www.w3.org/Graphics/SVG/1.1/DTD/svg11.dtd">
<!-- Generated by graphviz version 2.38.0 (20140413.2041)
 -->
<!-- Title: GeometryGenerator::MeshData::GetIndices16 Pages: 1 -->
<svg width="276pt" height="284pt"
 viewBox="0.00 0.00 276.00 284.00" xmlns="http://www.w3.org/2000/svg" xmlns:xlink="http://www.w3.org/1999/xlink">
<g id="graph0" class="graph" transform="scale(1 1) rotate(0) translate(4 280)">
<title>GeometryGenerator::MeshData::GetIndices16</title>
<!-- Node1 -->
<g id="node1" class="node"><title>Node1</title>
<polygon fill="#bfbfbf" stroke="black" points="0,-122.5 0,-152.5 124,-152.5 124,-122.5 0,-122.5"/>
<text text-anchor="start" x="8" y="-140.5" font-family="Helvetica,sans-Serif" font-size="10.00">GeometryGenerator::</text>
<text text-anchor="middle" x="62" y="-129.5" font-family="Helvetica,sans-Serif" font-size="10.00">MeshData::GetIndices16</text>
</g>
<!-- Node2 -->
<g id="node2" class="node"><title>Node2</title>
<g id="a_node2"><a xlink:href="class_geometry_generator.html#a9ebf88d1bee287c6e211bff43fbdd3a0" target="_top" xlink:title="GeometryGenerator::\lCreateBox">
<polygon fill="none" stroke="black" points="160,-245.5 160,-275.5 268,-275.5 268,-245.5 160,-245.5"/>
<text text-anchor="start" x="168" y="-263.5" font-family="Helvetica,sans-Serif" font-size="10.00">GeometryGenerator::</text>
<text text-anchor="middle" x="214" y="-252.5" font-family="Helvetica,sans-Serif" font-size="10.00">CreateBox</text>
</a>
</g>
</g>
<!-- Node1&#45;&gt;Node2 -->
<g id="edge1" class="edge"><title>Node1&#45;&gt;Node2</title>
<path fill="none" stroke="midnightblue" d="M74.7529,-152.634C91.7174,-173.677 124.903,-211.949 160,-236.5 161.883,-237.817 163.85,-239.09 165.871,-240.315"/>
<polygon fill="midnightblue" stroke="midnightblue" points="164.544,-243.582 174.986,-245.38 167.944,-237.463 164.544,-243.582"/>
</g>
<!-- Node3 -->
<g id="node3" class="node"><title>Node3</title>
<g id="a_node3"><a xlink:href="class_geometry_generator.html#a61677b3472294c52b544670722d22f0b" target="_top" xlink:title="GeometryGenerator::\lCreateSphere">
<polygon fill="none" stroke="black" points="160,-196.5 160,-226.5 268,-226.5 268,-196.5 160,-196.5"/>
<text text-anchor="start" x="168" y="-214.5" font-family="Helvetica,sans-Serif" font-size="10.00">GeometryGenerator::</text>
<text text-anchor="middle" x="214" y="-203.5" font-family="Helvetica,sans-Serif" font-size="10.00">CreateSphere</text>
</a>
</g>
</g>
<!-- Node1&#45;&gt;Node3 -->
<g id="edge2" class="edge"><title>Node1&#45;&gt;Node3</title>
<path fill="none" stroke="midnightblue" d="M91.2468,-152.54C110.497,-162.672 136.635,-176.197 160,-187.5 163.141,-189.02 166.4,-190.566 169.687,-192.105"/>
<polygon fill="midnightblue" stroke="midnightblue" points="168.407,-195.369 178.952,-196.39 171.346,-189.016 168.407,-195.369"/>
</g>
<!-- Node4 -->
<g id="node4" class="node"><title>Node4</title>
<g id="a_node4"><a xlink:href="class_geometry_generator.html#ac29d9710556efda67adf2969b3d59efe" target="_top" xlink:title="GeometryGenerator::\lCreateGeosphere">
<polygon fill="none" stroke="black" points="160,-147.5 160,-177.5 268,-177.5 268,-147.5 160,-147.5"/>
<text text-anchor="start" x="168" y="-165.5" font-family="Helvetica,sans-Serif" font-size="10.00">GeometryGenerator::</text>
<text text-anchor="middle" x="214" y="-154.5" font-family="Helvetica,sans-Serif" font-size="10.00">CreateGeosphere</text>
</a>
</g>
</g>
<!-- Node1&#45;&gt;Node4 -->
<g id="edge3" class="edge"><title>Node1&#45;&gt;Node4</title>
<path fill="none" stroke="midnightblue" d="M124.011,-147.668C132.522,-149.087 141.283,-150.547 149.833,-151.972"/>
<polygon fill="midnightblue" stroke="midnightblue" points="149.307,-155.433 159.746,-153.624 150.458,-148.528 149.307,-155.433"/>
</g>
<!-- Node5 -->
<g id="node5" class="node"><title>Node5</title>
<g id="a_node5"><a xlink:href="class_geometry_generator.html#a6d2867280024eaf02c0643c765dfdd2b" target="_top" xlink:title="GeometryGenerator::\lCreateCylinder">
<polygon fill="none" stroke="black" points="160,-98.5 160,-128.5 268,-128.5 268,-98.5 160,-98.5"/>
<text text-anchor="start" x="168" y="-116.5" font-family="Helvetica,sans-Serif" font-size="10.00">GeometryGenerator::</text>
<text text-anchor="middle" x="214" y="-105.5" font-family="Helvetica,sans-Serif" font-size="10.00">CreateCylinder</text>
</a>
</g>
</g>
<!-- Node1&#45;&gt;Node5 -->
<g id="edge4" class="edge"><title>Node1&#45;&gt;Node5</title>
<path fill="none" stroke="midnightblue" d="M124.011,-127.738C132.522,-126.376 141.283,-124.975 149.833,-123.607"/>
<polygon fill="midnightblue" stroke="midnightblue" points="150.425,-127.057 159.746,-122.021 149.319,-120.145 150.425,-127.057"/>
</g>
<!-- Node6 -->
<g id="node6" class="node"><title>Node6</title>
<g id="a_node6"><a xlink:href="class_geometry_generator.html#a594d746f5a6a3a645ea2c85a9feabafe" target="_top" xlink:title="GeometryGenerator::\lCreateGrid">
<polygon fill="none" stroke="black" points="160,-49.5 160,-79.5 268,-79.5 268,-49.5 160,-49.5"/>
<text text-anchor="start" x="168" y="-67.5" font-family="Helvetica,sans-Serif" font-size="10.00">GeometryGenerator::</text>
<text text-anchor="middle" x="214" y="-56.5" font-family="Helvetica,sans-Serif" font-size="10.00">CreateGrid</text>
</a>
</g>
</g>
<!-- Node1&#45;&gt;Node6 -->
<g id="edge5" class="edge"><title>Node1&#45;&gt;Node6</title>
<path fill="none" stroke="midnightblue" d="M93.0769,-122.435C112.197,-112.904 137.499,-100.373 160,-89.5 163.761,-87.6824 167.68,-85.8047 171.608,-83.9329"/>
<polygon fill="midnightblue" stroke="midnightblue" points="173.189,-87.0569 180.722,-79.6072 170.187,-80.733 173.189,-87.0569"/>
</g>
<!-- Node7 -->
<g id="node7" class="node"><title>Node7</title>
<g id="a_node7"><a xlink:href="class_geometry_generator.html#af9ce9e29c19dc145d8a964f44359ae90" target="_top" xlink:title="GeometryGenerator::\lCreateQuad">
<polygon fill="none" stroke="black" points="160,-0.5 160,-30.5 268,-30.5 268,-0.5 160,-0.5"/>
<text text-anchor="start" x="168" y="-18.5" font-family="Helvetica,sans-Serif" font-size="10.00">GeometryGenerator::</text>
<text text-anchor="middle" x="214" y="-7.5" font-family="Helvetica,sans-Serif" font-size="10.00">CreateQuad</text>
</a>
</g>
</g>
<!-- Node1&#45;&gt;Node7 -->
<g id="edge6" class="edge"><title>Node1&#45;&gt;Node7</title>
<path fill="none" stroke="midnightblue" d="M75.1611,-122.419C92.3511,-101.84 125.523,-64.7547 160,-40.5 162.499,-38.742 165.141,-37.0525 167.858,-35.4395"/>
<polygon fill="midnightblue" stroke="midnightblue" points="169.642,-38.4526 176.708,-30.5584 166.261,-32.3229 169.642,-38.4526"/>
</g>
</g>
</svg>
