<?xml version="1.0" encoding="UTF-8" standalone="no"?>
<!DOCTYPE svg PUBLIC "-//W3C//DTD SVG 1.1//EN"
 "http://www.w3.org/Graphics/SVG/1.1/DTD/svg11.dtd">
<!-- Generated by graphviz version 2.38.0 (20140413.2041)
 -->
<!-- Title: Material Pages: 1 -->
<svg width="124pt" height="354pt"
 viewBox="0.00 0.00 124.00 354.00" xmlns="http://www.w3.org/2000/svg" xmlns:xlink="http://www.w3.org/1999/xlink">
<g id="graph0" class="graph" transform="scale(1 1) rotate(0) translate(4 350)">
<title>Material</title>
<!-- Node1 -->
<g id="node1" class="node"><title>Node1</title>
<polygon fill="#bfbfbf" stroke="black" points="0,-0.5 0,-134.5 116,-134.5 116,-0.5 0,-0.5"/>
<text text-anchor="middle" x="58" y="-122.5" font-family="Helvetica,sans-Serif" font-size="10.00">Material</text>
<polyline fill="none" stroke="black" points="0,-115.5 116,-115.5 "/>
<text text-anchor="start" x="8" y="-103.5" font-family="Helvetica,sans-Serif" font-size="10.00">+ MatCBIndex</text>
<text text-anchor="start" x="8" y="-92.5" font-family="Helvetica,sans-Serif" font-size="10.00">+ DiffuseSrvHeapIndex</text>
<text text-anchor="start" x="8" y="-81.5" font-family="Helvetica,sans-Serif" font-size="10.00">+ NormalSrvHeapIndex</text>
<text text-anchor="start" x="8" y="-70.5" font-family="Helvetica,sans-Serif" font-size="10.00">+ NumFramesDirty</text>
<text text-anchor="start" x="8" y="-59.5" font-family="Helvetica,sans-Serif" font-size="10.00">+ DiffuseAlbedo</text>
<text text-anchor="start" x="8" y="-48.5" font-family="Helvetica,sans-Serif" font-size="10.00">+ FresnelR0</text>
<text text-anchor="start" x="8" y="-37.5" font-family="Helvetica,sans-Serif" font-size="10.00">+ Roughness</text>
<text text-anchor="start" x="8" y="-26.5" font-family="Helvetica,sans-Serif" font-size="10.00">+ MatTransform</text>
<polyline fill="none" stroke="black" points="0,-19.5 116,-19.5 "/>
<text text-anchor="middle" x="58" y="-7.5" font-family="Helvetica,sans-Serif" font-size="10.00"> </text>
</g>
<!-- Node2 -->
<g id="node2" class="node"><title>Node2</title>
<g id="a_node2"><a xlink:title="STL class. ">
<polygon fill="none" stroke="#bfbfbf" points="28,-182.5 28,-239.5 88,-239.5 88,-182.5 28,-182.5"/>
<text text-anchor="middle" x="58" y="-227.5" font-family="Helvetica,sans-Serif" font-size="10.00">std::string</text>
<polyline fill="none" stroke="#bfbfbf" points="28,-220.5 88,-220.5 "/>
<text text-anchor="middle" x="58" y="-208.5" font-family="Helvetica,sans-Serif" font-size="10.00"> </text>
<polyline fill="none" stroke="#bfbfbf" points="28,-201.5 88,-201.5 "/>
<text text-anchor="middle" x="58" y="-189.5" font-family="Helvetica,sans-Serif" font-size="10.00"> </text>
</a>
</g>
</g>
<!-- Node2&#45;&gt;Node1 -->
<g id="edge1" class="edge"><title>Node2&#45;&gt;Node1</title>
<path fill="none" stroke="#404040" d="M58,-182.381C58,-172.02 58,-159.663 58,-146.97"/>
<polygon fill="none" stroke="#404040" points="58.0001,-146.753 54,-140.753 58,-134.753 62,-140.753 58.0001,-146.753"/>
<text text-anchor="middle" x="75.5" y="-156" font-family="Helvetica,sans-Serif" font-size="10.00"> +Name</text>
</g>
<!-- Node3 -->
<g id="node3" class="node"><title>Node3</title>
<g id="a_node3"><a xlink:title="STL class. ">
<polygon fill="none" stroke="#bfbfbf" points="10.5,-277.5 10.5,-345.5 105.5,-345.5 105.5,-277.5 10.5,-277.5"/>
<text text-anchor="start" x="18.5" y="-333.5" font-family="Helvetica,sans-Serif" font-size="10.00">std::basic_string&lt;</text>
<text text-anchor="middle" x="58" y="-322.5" font-family="Helvetica,sans-Serif" font-size="10.00"> char &gt;</text>
<polyline fill="none" stroke="#bfbfbf" points="10.5,-315.5 105.5,-315.5 "/>
<text text-anchor="middle" x="58" y="-303.5" font-family="Helvetica,sans-Serif" font-size="10.00"> </text>
<polyline fill="none" stroke="#bfbfbf" points="10.5,-296.5 105.5,-296.5 "/>
<text text-anchor="middle" x="58" y="-284.5" font-family="Helvetica,sans-Serif" font-size="10.00"> </text>
</a>
</g>
</g>
<!-- Node3&#45;&gt;Node2 -->
<g id="edge2" class="edge"><title>Node3&#45;&gt;Node2</title>
<path fill="none" stroke="midnightblue" d="M58,-267.375C58,-257.94 58,-248.201 58,-239.571"/>
<polygon fill="none" stroke="midnightblue" points="54.5001,-267.427 58,-277.427 61.5001,-267.427 54.5001,-267.427"/>
</g>
</g>
</svg>
