<?xml version="1.0" encoding="UTF-8" standalone="no"?>
<!DOCTYPE svg PUBLIC "-//W3C//DTD SVG 1.1//EN"
 "http://www.w3.org/Graphics/SVG/1.1/DTD/svg11.dtd">
<!-- Generated by graphviz version 2.38.0 (20140413.2041)
 -->
<!-- Title: Texture Pages: 1 -->
<svg width="216pt" height="288pt"
 viewBox="0.00 0.00 216.00 288.00" xmlns="http://www.w3.org/2000/svg" xmlns:xlink="http://www.w3.org/1999/xlink">
<g id="graph0" class="graph" transform="scale(1 1) rotate(0) translate(4 284)">
<title>Texture</title>
<!-- Node1 -->
<g id="node1" class="node"><title>Node1</title>
<polygon fill="#bfbfbf" stroke="black" points="69.5,-0.5 69.5,-68.5 147.5,-68.5 147.5,-0.5 69.5,-0.5"/>
<text text-anchor="middle" x="108.5" y="-56.5" font-family="Helvetica,sans-Serif" font-size="10.00">Texture</text>
<polyline fill="none" stroke="black" points="69.5,-49.5 147.5,-49.5 "/>
<text text-anchor="start" x="77.5" y="-37.5" font-family="Helvetica,sans-Serif" font-size="10.00">+ Resource</text>
<text text-anchor="start" x="77.5" y="-26.5" font-family="Helvetica,sans-Serif" font-size="10.00">+ UploadHeap</text>
<polyline fill="none" stroke="black" points="69.5,-19.5 147.5,-19.5 "/>
<text text-anchor="middle" x="108.5" y="-7.5" font-family="Helvetica,sans-Serif" font-size="10.00"> </text>
</g>
<!-- Node2 -->
<g id="node2" class="node"><title>Node2</title>
<g id="a_node2"><a xlink:title="STL class. ">
<polygon fill="none" stroke="#bfbfbf" points="25.5,-116.5 25.5,-173.5 85.5,-173.5 85.5,-116.5 25.5,-116.5"/>
<text text-anchor="middle" x="55.5" y="-161.5" font-family="Helvetica,sans-Serif" font-size="10.00">std::string</text>
<polyline fill="none" stroke="#bfbfbf" points="25.5,-154.5 85.5,-154.5 "/>
<text text-anchor="middle" x="55.5" y="-142.5" font-family="Helvetica,sans-Serif" font-size="10.00"> </text>
<polyline fill="none" stroke="#bfbfbf" points="25.5,-135.5 85.5,-135.5 "/>
<text text-anchor="middle" x="55.5" y="-123.5" font-family="Helvetica,sans-Serif" font-size="10.00"> </text>
</a>
</g>
</g>
<!-- Node2&#45;&gt;Node1 -->
<g id="edge1" class="edge"><title>Node2&#45;&gt;Node1</title>
<path fill="none" stroke="#404040" d="M69.0113,-116.34C74.4589,-105.188 80.8794,-92.0441 86.9421,-79.6327"/>
<polygon fill="none" stroke="#404040" points="87.1041,-79.3009 86.1435,-72.1541 92.3711,-68.5186 93.3317,-75.6654 87.1041,-79.3009"/>
<text text-anchor="middle" x="100" y="-90" font-family="Helvetica,sans-Serif" font-size="10.00"> +Name</text>
</g>
<!-- Node3 -->
<g id="node3" class="node"><title>Node3</title>
<g id="a_node3"><a xlink:title="STL class. ">
<polygon fill="none" stroke="#bfbfbf" points="0,-211.5 0,-279.5 95,-279.5 95,-211.5 0,-211.5"/>
<text text-anchor="start" x="8" y="-267.5" font-family="Helvetica,sans-Serif" font-size="10.00">std::basic_string&lt;</text>
<text text-anchor="middle" x="47.5" y="-256.5" font-family="Helvetica,sans-Serif" font-size="10.00"> char &gt;</text>
<polyline fill="none" stroke="#bfbfbf" points="0,-249.5 95,-249.5 "/>
<text text-anchor="middle" x="47.5" y="-237.5" font-family="Helvetica,sans-Serif" font-size="10.00"> </text>
<polyline fill="none" stroke="#bfbfbf" points="0,-230.5 95,-230.5 "/>
<text text-anchor="middle" x="47.5" y="-218.5" font-family="Helvetica,sans-Serif" font-size="10.00"> </text>
</a>
</g>
</g>
<!-- Node3&#45;&gt;Node2 -->
<g id="edge2" class="edge"><title>Node3&#45;&gt;Node2</title>
<path fill="none" stroke="midnightblue" d="M51.0025,-201.375C51.7688,-191.94 52.5598,-182.201 53.2607,-173.571"/>
<polygon fill="none" stroke="midnightblue" points="47.5072,-201.176 50.1861,-211.427 54.4843,-201.743 47.5072,-201.176"/>
</g>
<!-- Node4 -->
<g id="node4" class="node"><title>Node4</title>
<g id="a_node4"><a xlink:title="STL class. ">
<polygon fill="none" stroke="#bfbfbf" points="119,-116.5 119,-173.5 186,-173.5 186,-116.5 119,-116.5"/>
<text text-anchor="middle" x="152.5" y="-161.5" font-family="Helvetica,sans-Serif" font-size="10.00">std::wstring</text>
<polyline fill="none" stroke="#bfbfbf" points="119,-154.5 186,-154.5 "/>
<text text-anchor="middle" x="152.5" y="-142.5" font-family="Helvetica,sans-Serif" font-size="10.00"> </text>
<polyline fill="none" stroke="#bfbfbf" points="119,-135.5 186,-135.5 "/>
<text text-anchor="middle" x="152.5" y="-123.5" font-family="Helvetica,sans-Serif" font-size="10.00"> </text>
</a>
</g>
</g>
<!-- Node4&#45;&gt;Node1 -->
<g id="edge3" class="edge"><title>Node4&#45;&gt;Node1</title>
<path fill="none" stroke="#404040" d="M141.283,-116.34C136.807,-105.302 131.539,-92.3121 126.551,-80.0129"/>
<polygon fill="none" stroke="#404040" points="126.4,-79.6389 120.438,-75.582 121.89,-68.5186 127.852,-72.5755 126.4,-79.6389"/>
<text text-anchor="middle" x="158" y="-90" font-family="Helvetica,sans-Serif" font-size="10.00"> +Filename</text>
</g>
<!-- Node5 -->
<g id="node5" class="node"><title>Node5</title>
<g id="a_node5"><a xlink:title="STL class. ">
<polygon fill="none" stroke="#bfbfbf" points="113,-211.5 113,-279.5 208,-279.5 208,-211.5 113,-211.5"/>
<text text-anchor="start" x="121" y="-267.5" font-family="Helvetica,sans-Serif" font-size="10.00">std::basic_string&lt;</text>
<text text-anchor="middle" x="160.5" y="-256.5" font-family="Helvetica,sans-Serif" font-size="10.00"> wchar_t &gt;</text>
<polyline fill="none" stroke="#bfbfbf" points="113,-249.5 208,-249.5 "/>
<text text-anchor="middle" x="160.5" y="-237.5" font-family="Helvetica,sans-Serif" font-size="10.00"> </text>
<polyline fill="none" stroke="#bfbfbf" points="113,-230.5 208,-230.5 "/>
<text text-anchor="middle" x="160.5" y="-218.5" font-family="Helvetica,sans-Serif" font-size="10.00"> </text>
</a>
</g>
</g>
<!-- Node5&#45;&gt;Node4 -->
<g id="edge4" class="edge"><title>Node5&#45;&gt;Node4</title>
<path fill="none" stroke="midnightblue" d="M156.997,-201.375C156.231,-191.94 155.44,-182.201 154.739,-173.571"/>
<polygon fill="none" stroke="midnightblue" points="153.516,-201.743 157.814,-211.427 160.493,-201.176 153.516,-201.743"/>
</g>
</g>
</svg>
