<?xml version="1.0" encoding="UTF-8" standalone="no"?>
<!DOCTYPE svg PUBLIC "-//W3C//DTD SVG 1.1//EN"
 "http://www.w3.org/Graphics/SVG/1.1/DTD/svg11.dtd">
<!-- Generated by graphviz version 2.38.0 (20140413.2041)
 -->
<!-- Title: C:/Users/micho/Desktop/mt_engine/mt/utility.hpp Pages: 1 -->
<svg width="1084pt" height="151pt"
 viewBox="0.00 0.00 1084.00 151.00" xmlns="http://www.w3.org/2000/svg" xmlns:xlink="http://www.w3.org/1999/xlink">
<g id="graph0" class="graph" transform="scale(1 1) rotate(0) translate(4 147)">
<title>C:/Users/micho/Desktop/mt_engine/mt/utility.hpp</title>
<!-- Node1 -->
<g id="node1" class="node"><title>Node1</title>
<polygon fill="#bfbfbf" stroke="black" points="438,-112.5 438,-142.5 562,-142.5 562,-112.5 438,-112.5"/>
<text text-anchor="start" x="446" y="-130.5" font-family="Helvetica,sans-Serif" font-size="10.00">C:/Users/micho/Desktop</text>
<text text-anchor="middle" x="500" y="-119.5" font-family="Helvetica,sans-Serif" font-size="10.00">/mt_engine/mt/utility.hpp</text>
</g>
<!-- Node2 -->
<g id="node2" class="node"><title>Node2</title>
<polygon fill="none" stroke="#bfbfbf" points="0,-56.5 0,-75.5 56,-75.5 56,-56.5 0,-56.5"/>
<text text-anchor="middle" x="28" y="-63.5" font-family="Helvetica,sans-Serif" font-size="10.00">algorithm</text>
</g>
<!-- Node1&#45;&gt;Node2 -->
<g id="edge1" class="edge"><title>Node1&#45;&gt;Node2</title>
<path fill="none" stroke="midnightblue" d="M437.698,-121.693C354.915,-114.768 204,-100.273 66.1102,-76.0038"/>
<polygon fill="midnightblue" stroke="midnightblue" points="66.6646,-72.5476 56.2058,-74.2395 65.437,-79.4391 66.6646,-72.5476"/>
</g>
<!-- Node3 -->
<g id="node3" class="node"><title>Node3</title>
<polygon fill="none" stroke="#bfbfbf" points="74,-56.5 74,-75.5 120,-75.5 120,-56.5 74,-56.5"/>
<text text-anchor="middle" x="97" y="-63.5" font-family="Helvetica,sans-Serif" font-size="10.00">chrono</text>
</g>
<!-- Node1&#45;&gt;Node3 -->
<g id="edge2" class="edge"><title>Node1&#45;&gt;Node3</title>
<path fill="none" stroke="midnightblue" d="M437.847,-120.705C365.89,-113.401 243.726,-99.1693 130.227,-76.0122"/>
<polygon fill="midnightblue" stroke="midnightblue" points="130.828,-72.5625 120.326,-73.9646 129.41,-79.4174 130.828,-72.5625"/>
</g>
<!-- Node4 -->
<g id="node4" class="node"><title>Node4</title>
<polygon fill="none" stroke="#bfbfbf" points="138,-56.5 138,-75.5 182,-75.5 182,-56.5 138,-56.5"/>
<text text-anchor="middle" x="160" y="-63.5" font-family="Helvetica,sans-Serif" font-size="10.00">cmath</text>
</g>
<!-- Node1&#45;&gt;Node4 -->
<g id="edge3" class="edge"><title>Node1&#45;&gt;Node4</title>
<path fill="none" stroke="midnightblue" d="M437.961,-118.404C377.679,-110.068 283.421,-95.7981 192.251,-75.8211"/>
<polygon fill="midnightblue" stroke="midnightblue" points="192.82,-72.3622 182.299,-73.6146 191.304,-79.1963 192.82,-72.3622"/>
</g>
<!-- Node5 -->
<g id="node5" class="node"><title>Node5</title>
<polygon fill="none" stroke="#bfbfbf" points="200.5,-56.5 200.5,-75.5 249.5,-75.5 249.5,-56.5 200.5,-56.5"/>
<text text-anchor="middle" x="225" y="-63.5" font-family="Helvetica,sans-Serif" font-size="10.00">cstdarg</text>
</g>
<!-- Node1&#45;&gt;Node5 -->
<g id="edge4" class="edge"><title>Node1&#45;&gt;Node5</title>
<path fill="none" stroke="midnightblue" d="M437.887,-114.412C391.387,-105.149 326.001,-91.6767 259.641,-76.0566"/>
<polygon fill="midnightblue" stroke="midnightblue" points="260.382,-72.6355 249.845,-73.7367 258.769,-79.4471 260.382,-72.6355"/>
</g>
<!-- Node6 -->
<g id="node6" class="node"><title>Node6</title>
<polygon fill="none" stroke="#bfbfbf" points="267.5,-56.5 267.5,-75.5 310.5,-75.5 310.5,-56.5 267.5,-56.5"/>
<text text-anchor="middle" x="289" y="-63.5" font-family="Helvetica,sans-Serif" font-size="10.00">deque</text>
</g>
<!-- Node1&#45;&gt;Node6 -->
<g id="edge5" class="edge"><title>Node1&#45;&gt;Node6</title>
<path fill="none" stroke="midnightblue" d="M449.533,-112.473C415.687,-103.035 369.858,-90.1984 320.573,-76.1454"/>
<polygon fill="midnightblue" stroke="midnightblue" points="321.25,-72.6986 310.673,-73.3192 319.328,-79.4298 321.25,-72.6986"/>
</g>
<!-- Node7 -->
<g id="node7" class="node"><title>Node7</title>
<polygon fill="none" stroke="#bfbfbf" points="328.5,-56.5 328.5,-75.5 389.5,-75.5 389.5,-56.5 328.5,-56.5"/>
<text text-anchor="middle" x="359" y="-63.5" font-family="Helvetica,sans-Serif" font-size="10.00">filesystem</text>
</g>
<!-- Node1&#45;&gt;Node7 -->
<g id="edge6" class="edge"><title>Node1&#45;&gt;Node7</title>
<path fill="none" stroke="midnightblue" d="M466.585,-112.399C443.033,-102.461 411.762,-89.2649 389.007,-79.6625"/>
<polygon fill="midnightblue" stroke="midnightblue" points="390.091,-76.3211 379.517,-75.6578 387.369,-82.7704 390.091,-76.3211"/>
</g>
<!-- Node8 -->
<g id="node8" class="node"><title>Node8</title>
<polygon fill="none" stroke="#bfbfbf" points="407.5,-56.5 407.5,-75.5 436.5,-75.5 436.5,-56.5 407.5,-56.5"/>
<text text-anchor="middle" x="422" y="-63.5" font-family="Helvetica,sans-Serif" font-size="10.00">list</text>
</g>
<!-- Node1&#45;&gt;Node8 -->
<g id="edge7" class="edge"><title>Node1&#45;&gt;Node8</title>
<path fill="none" stroke="midnightblue" d="M481.515,-112.399C469.48,-103.218 453.8,-91.2579 441.557,-81.9182"/>
<polygon fill="midnightblue" stroke="midnightblue" points="443.423,-78.9401 433.35,-75.6578 439.178,-84.5056 443.423,-78.9401"/>
</g>
<!-- Node9 -->
<g id="node9" class="node"><title>Node9</title>
<polygon fill="none" stroke="#bfbfbf" points="454.5,-56.5 454.5,-75.5 489.5,-75.5 489.5,-56.5 454.5,-56.5"/>
<text text-anchor="middle" x="472" y="-63.5" font-family="Helvetica,sans-Serif" font-size="10.00">map</text>
</g>
<!-- Node1&#45;&gt;Node9 -->
<g id="edge8" class="edge"><title>Node1&#45;&gt;Node9</title>
<path fill="none" stroke="midnightblue" d="M493.364,-112.399C489.463,-104.11 484.496,-93.5542 480.333,-84.7077"/>
<polygon fill="midnightblue" stroke="midnightblue" points="483.499,-83.2157 476.074,-75.6578 477.165,-86.1963 483.499,-83.2157"/>
</g>
<!-- Node10 -->
<g id="node10" class="node"><title>Node10</title>
<polygon fill="none" stroke="#bfbfbf" points="507.5,-56.5 507.5,-75.5 550.5,-75.5 550.5,-56.5 507.5,-56.5"/>
<text text-anchor="middle" x="529" y="-63.5" font-family="Helvetica,sans-Serif" font-size="10.00">queue</text>
</g>
<!-- Node1&#45;&gt;Node10 -->
<g id="edge9" class="edge"><title>Node1&#45;&gt;Node10</title>
<path fill="none" stroke="midnightblue" d="M506.873,-112.399C510.913,-104.11 516.058,-93.5542 520.369,-84.7077"/>
<polygon fill="midnightblue" stroke="midnightblue" points="523.545,-86.1804 524.78,-75.6578 517.253,-83.1135 523.545,-86.1804"/>
</g>
<!-- Node11 -->
<g id="node11" class="node"><title>Node11</title>
<polygon fill="none" stroke="#bfbfbf" points="568.5,-56.5 568.5,-75.5 603.5,-75.5 603.5,-56.5 568.5,-56.5"/>
<text text-anchor="middle" x="586" y="-63.5" font-family="Helvetica,sans-Serif" font-size="10.00">ratio</text>
</g>
<!-- Node1&#45;&gt;Node11 -->
<g id="edge10" class="edge"><title>Node1&#45;&gt;Node11</title>
<path fill="none" stroke="midnightblue" d="M520.381,-112.399C533.908,-103.04 551.611,-90.7924 565.22,-81.3771"/>
<polygon fill="midnightblue" stroke="midnightblue" points="567.254,-84.2257 573.486,-75.6578 563.271,-78.4692 567.254,-84.2257"/>
</g>
<!-- Node12 -->
<g id="node12" class="node"><title>Node12</title>
<polygon fill="none" stroke="#bfbfbf" points="622,-56.5 622,-75.5 652,-75.5 652,-56.5 622,-56.5"/>
<text text-anchor="middle" x="637" y="-63.5" font-family="Helvetica,sans-Serif" font-size="10.00">set</text>
</g>
<!-- Node1&#45;&gt;Node12 -->
<g id="edge11" class="edge"><title>Node1&#45;&gt;Node12</title>
<path fill="none" stroke="midnightblue" d="M532.467,-112.399C556.895,-101.79 589.869,-87.4692 612.202,-77.7697"/>
<polygon fill="midnightblue" stroke="midnightblue" points="613.868,-80.8623 621.646,-73.6684 611.079,-74.4417 613.868,-80.8623"/>
</g>
<!-- Node13 -->
<g id="node13" class="node"><title>Node13</title>
<polygon fill="none" stroke="#bfbfbf" points="670.5,-56.5 670.5,-75.5 711.5,-75.5 711.5,-56.5 670.5,-56.5"/>
<text text-anchor="middle" x="691" y="-63.5" font-family="Helvetica,sans-Serif" font-size="10.00">string</text>
</g>
<!-- Node1&#45;&gt;Node13 -->
<g id="edge12" class="edge"><title>Node1&#45;&gt;Node13</title>
<path fill="none" stroke="midnightblue" d="M545.264,-112.399C580.845,-101.315 629.432,-86.1795 660.518,-76.4956"/>
<polygon fill="midnightblue" stroke="midnightblue" points="661.839,-79.7501 670.346,-73.4343 659.757,-73.0669 661.839,-79.7501"/>
</g>
<!-- Node14 -->
<g id="node14" class="node"><title>Node14</title>
<polygon fill="none" stroke="#bfbfbf" points="730,-56.5 730,-75.5 792,-75.5 792,-56.5 730,-56.5"/>
<text text-anchor="middle" x="761" y="-63.5" font-family="Helvetica,sans-Serif" font-size="10.00">type_traits</text>
</g>
<!-- Node1&#45;&gt;Node14 -->
<g id="edge13" class="edge"><title>Node1&#45;&gt;Node14</title>
<path fill="none" stroke="midnightblue" d="M561.523,-112.475C610.392,-101.334 677.372,-86.0646 719.921,-76.3648"/>
<polygon fill="midnightblue" stroke="midnightblue" points="720.952,-79.7197 729.924,-74.0845 719.396,-72.8948 720.952,-79.7197"/>
</g>
<!-- Node15 -->
<g id="node15" class="node"><title>Node15</title>
<polygon fill="none" stroke="#bfbfbf" points="810,-56.5 810,-75.5 848,-75.5 848,-56.5 810,-56.5"/>
<text text-anchor="middle" x="829" y="-63.5" font-family="Helvetica,sans-Serif" font-size="10.00">tuple</text>
</g>
<!-- Node1&#45;&gt;Node15 -->
<g id="edge14" class="edge"><title>Node1&#45;&gt;Node15</title>
<path fill="none" stroke="midnightblue" d="M562.215,-118.742C621.243,-110.777 712.507,-96.899 800.003,-75.9528"/>
<polygon fill="midnightblue" stroke="midnightblue" points="800.933,-79.3285 809.825,-73.5672 799.281,-72.5263 800.933,-79.3285"/>
</g>
<!-- Node16 -->
<g id="node16" class="node"><title>Node16</title>
<polygon fill="none" stroke="#bfbfbf" points="866,-56.5 866,-75.5 906,-75.5 906,-56.5 866,-56.5"/>
<text text-anchor="middle" x="886" y="-63.5" font-family="Helvetica,sans-Serif" font-size="10.00">utility</text>
</g>
<!-- Node1&#45;&gt;Node16 -->
<g id="edge15" class="edge"><title>Node1&#45;&gt;Node16</title>
<path fill="none" stroke="midnightblue" d="M562.138,-120.764C631.695,-113.661 747.797,-99.7657 856.052,-75.9011"/>
<polygon fill="midnightblue" stroke="midnightblue" points="856.836,-79.3122 865.83,-73.713 855.307,-72.4811 856.836,-79.3122"/>
</g>
<!-- Node17 -->
<g id="node17" class="node"><title>Node17</title>
<g id="a_node17"><a xlink:href="_math_helper_8h.html" target="_top" xlink:title="../mt/MathHelper.h">
<polygon fill="none" stroke="black" points="924,-56.5 924,-75.5 1022,-75.5 1022,-56.5 924,-56.5"/>
<text text-anchor="middle" x="973" y="-63.5" font-family="Helvetica,sans-Serif" font-size="10.00">../mt/MathHelper.h</text>
</a>
</g>
</g>
<!-- Node1&#45;&gt;Node17 -->
<g id="edge16" class="edge"><title>Node1&#45;&gt;Node17</title>
<path fill="none" stroke="midnightblue" d="M562.305,-119.564C641.499,-110.605 782.684,-94.15 913.747,-76.1352"/>
<polygon fill="midnightblue" stroke="midnightblue" points="914.542,-79.5588 923.969,-74.7241 913.584,-72.6246 914.542,-79.5588"/>
</g>
<!-- Node18 -->
<g id="node18" class="node"><title>Node18</title>
<polygon fill="none" stroke="#bfbfbf" points="851.5,-0.5 851.5,-19.5 916.5,-19.5 916.5,-0.5 851.5,-0.5"/>
<text text-anchor="middle" x="884" y="-7.5" font-family="Helvetica,sans-Serif" font-size="10.00">Windows.h</text>
</g>
<!-- Node17&#45;&gt;Node18 -->
<g id="edge17" class="edge"><title>Node17&#45;&gt;Node18</title>
<path fill="none" stroke="midnightblue" d="M958.701,-56.324C944.817,-47.9002 923.508,-34.9709 907.196,-25.0741"/>
<polygon fill="midnightblue" stroke="midnightblue" points="908.629,-21.8495 898.264,-19.6545 904.998,-27.8341 908.629,-21.8495"/>
</g>
<!-- Node19 -->
<g id="node19" class="node"><title>Node19</title>
<polygon fill="none" stroke="#bfbfbf" points="934.5,-0.5 934.5,-19.5 1011.5,-19.5 1011.5,-0.5 934.5,-0.5"/>
<text text-anchor="middle" x="973" y="-7.5" font-family="Helvetica,sans-Serif" font-size="10.00">DirectXMath.h</text>
</g>
<!-- Node17&#45;&gt;Node19 -->
<g id="edge18" class="edge"><title>Node17&#45;&gt;Node19</title>
<path fill="none" stroke="midnightblue" d="M973,-56.083C973,-49.0059 973,-38.8611 973,-29.9865"/>
<polygon fill="midnightblue" stroke="midnightblue" points="976.5,-29.751 973,-19.7511 969.5,-29.7511 976.5,-29.751"/>
</g>
<!-- Node20 -->
<g id="node20" class="node"><title>Node20</title>
<polygon fill="none" stroke="#bfbfbf" points="1030,-0.5 1030,-19.5 1076,-19.5 1076,-0.5 1030,-0.5"/>
<text text-anchor="middle" x="1053" y="-7.5" font-family="Helvetica,sans-Serif" font-size="10.00">cstdint</text>
</g>
<!-- Node17&#45;&gt;Node20 -->
<g id="edge19" class="edge"><title>Node17&#45;&gt;Node20</title>
<path fill="none" stroke="midnightblue" d="M985.853,-56.324C998.216,-47.979 1017.13,-35.2122 1031.74,-25.3524"/>
<polygon fill="midnightblue" stroke="midnightblue" points="1033.85,-28.1503 1040.18,-19.6545 1029.93,-22.3483 1033.85,-28.1503"/>
</g>
</g>
</svg>
