<?xml version="1.0" encoding="UTF-8" standalone="no"?>
<!DOCTYPE svg PUBLIC "-//W3C//DTD SVG 1.1//EN"
 "http://www.w3.org/Graphics/SVG/1.1/DTD/svg11.dtd">
<!-- Generated by graphviz version 2.38.0 (20140413.2041)
 -->
<!-- Title: C:/Users/micho/Desktop/mt_engine/mt/utility.hpp Pages: 1 -->
<svg width="3834pt" height="474pt"
 viewBox="0.00 0.00 3834.11 474.00" xmlns="http://www.w3.org/2000/svg" xmlns:xlink="http://www.w3.org/1999/xlink">
<g id="graph0" class="graph" transform="scale(1 1) rotate(0) translate(4 470)">
<title>C:/Users/micho/Desktop/mt_engine/mt/utility.hpp</title>
<!-- Node1 -->
<g id="node1" class="node"><title>Node1</title>
<polygon fill="#bfbfbf" stroke="black" points="2089.61,-435.5 2089.61,-465.5 2213.61,-465.5 2213.61,-435.5 2089.61,-435.5"/>
<text text-anchor="start" x="2097.61" y="-453.5" font-family="Helvetica,sans-Serif" font-size="10.00">C:/Users/micho/Desktop</text>
<text text-anchor="middle" x="2151.61" y="-442.5" font-family="Helvetica,sans-Serif" font-size="10.00">/mt_engine/mt/utility.hpp</text>
</g>
<!-- Node2 -->
<g id="node2" class="node"><title>Node2</title>
<g id="a_node2"><a xlink:href="_camera_8hpp.html" target="_top" xlink:title="C:/Users/micho/Desktop\l/mt_engine/mt/Camera.hpp">
<polygon fill="none" stroke="black" points="1719.61,-301.5 1719.61,-331.5 1853.61,-331.5 1853.61,-301.5 1719.61,-301.5"/>
<text text-anchor="start" x="1727.61" y="-319.5" font-family="Helvetica,sans-Serif" font-size="10.00">C:/Users/micho/Desktop</text>
<text text-anchor="middle" x="1786.61" y="-308.5" font-family="Helvetica,sans-Serif" font-size="10.00">/mt_engine/mt/Camera.hpp</text>
</a>
</g>
</g>
<!-- Node1&#45;&gt;Node2 -->
<g id="edge1" class="edge"><title>Node1&#45;&gt;Node2</title>
<path fill="none" stroke="midnightblue" d="M2079.28,-433.622C2043.16,-424.877 1999.07,-412.962 1960.61,-399 1906.53,-379.363 1846.33,-349.185 1812.81,-331.588"/>
<polygon fill="midnightblue" stroke="midnightblue" points="2078.71,-437.083 2089.25,-436.003 2080.33,-430.275 2078.71,-437.083"/>
</g>
<!-- Node28 -->
<g id="node28" class="node"><title>Node28</title>
<g id="a_node28"><a xlink:href="d3d_util_8h.html" target="_top" xlink:title="C:/Users/micho/Desktop\l/mt_engine/mt/d3dUtil.h">
<polygon fill="none" stroke="black" points="1970.11,-368.5 1970.11,-398.5 2093.11,-398.5 2093.11,-368.5 1970.11,-368.5"/>
<text text-anchor="start" x="1978.11" y="-386.5" font-family="Helvetica,sans-Serif" font-size="10.00">C:/Users/micho/Desktop</text>
<text text-anchor="middle" x="2031.61" y="-375.5" font-family="Helvetica,sans-Serif" font-size="10.00">/mt_engine/mt/d3dUtil.h</text>
</a>
</g>
</g>
<!-- Node1&#45;&gt;Node28 -->
<g id="edge37" class="edge"><title>Node1&#45;&gt;Node28</title>
<path fill="none" stroke="midnightblue" d="M2116.68,-430.575C2097.8,-420.35 2074.89,-407.94 2057.6,-398.577"/>
<polygon fill="midnightblue" stroke="midnightblue" points="2115.12,-433.711 2125.58,-435.396 2118.45,-427.556 2115.12,-433.711"/>
</g>
<!-- Node31 -->
<g id="node31" class="node"><title>Node31</title>
<g id="a_node31"><a xlink:href="_windows_message_handling_service_8hpp.html" target="_top" xlink:title="C:/Users/micho/Desktop\l/mt_engine/mt/WindowsMessage\lHandlingService.hpp">
<polygon fill="none" stroke="black" points="1597.11,-223.5 1597.11,-264.5 1758.11,-264.5 1758.11,-223.5 1597.11,-223.5"/>
<text text-anchor="start" x="1605.11" y="-252.5" font-family="Helvetica,sans-Serif" font-size="10.00">C:/Users/micho/Desktop</text>
<text text-anchor="start" x="1605.11" y="-241.5" font-family="Helvetica,sans-Serif" font-size="10.00">/mt_engine/mt/WindowsMessage</text>
<text text-anchor="middle" x="1677.61" y="-230.5" font-family="Helvetica,sans-Serif" font-size="10.00">HandlingService.hpp</text>
</a>
</g>
</g>
<!-- Node1&#45;&gt;Node31 -->
<g id="edge44" class="edge"><title>Node1&#45;&gt;Node31</title>
<path fill="none" stroke="midnightblue" d="M2079.24,-439.177C1967.91,-421.87 1762.1,-383.743 1710.61,-332 1692.38,-313.678 1684.05,-284.274 1680.36,-264.798"/>
<polygon fill="midnightblue" stroke="midnightblue" points="2078.96,-442.676 2089.38,-440.737 2080.03,-435.758 2078.96,-442.676"/>
</g>
<!-- Node32 -->
<g id="node32" class="node"><title>Node32</title>
<g id="a_node32"><a xlink:href="_command_queue_8hpp.html" target="_top" xlink:title="C:/Users/micho/Desktop\l/mt_engine/mt/CommandQueue.hpp">
<polygon fill="none" stroke="black" points="2300.11,-368.5 2300.11,-398.5 2473.11,-398.5 2473.11,-368.5 2300.11,-368.5"/>
<text text-anchor="start" x="2308.11" y="-386.5" font-family="Helvetica,sans-Serif" font-size="10.00">C:/Users/micho/Desktop</text>
<text text-anchor="middle" x="2386.61" y="-375.5" font-family="Helvetica,sans-Serif" font-size="10.00">/mt_engine/mt/CommandQueue.hpp</text>
</a>
</g>
</g>
<!-- Node1&#45;&gt;Node32 -->
<g id="edge47" class="edge"><title>Node1&#45;&gt;Node32</title>
<path fill="none" stroke="midnightblue" d="M2212.3,-432.715C2250.54,-422.137 2299.36,-408.635 2335.6,-398.611"/>
<polygon fill="midnightblue" stroke="midnightblue" points="2211.02,-429.437 2202.32,-435.476 2212.89,-436.183 2211.02,-429.437"/>
</g>
<!-- Node34 -->
<g id="node34" class="node"><title>Node34</title>
<g id="a_node34"><a xlink:href="_command_8hpp.html" target="_top" xlink:title="C:/Users/micho/Desktop\l/mt_engine/mt/Command.hpp">
<polygon fill="none" stroke="black" points="2491.11,-368.5 2491.11,-398.5 2636.11,-398.5 2636.11,-368.5 2491.11,-368.5"/>
<text text-anchor="start" x="2499.11" y="-386.5" font-family="Helvetica,sans-Serif" font-size="10.00">C:/Users/micho/Desktop</text>
<text text-anchor="middle" x="2563.61" y="-375.5" font-family="Helvetica,sans-Serif" font-size="10.00">/mt_engine/mt/Command.hpp</text>
</a>
</g>
</g>
<!-- Node1&#45;&gt;Node34 -->
<g id="edge50" class="edge"><title>Node1&#45;&gt;Node34</title>
<path fill="none" stroke="midnightblue" d="M2223.96,-439.009C2291.08,-429.147 2393.7,-413.738 2482.61,-399 2485.29,-398.556 2488.02,-398.098 2490.77,-397.631"/>
<polygon fill="midnightblue" stroke="midnightblue" points="2223.3,-435.569 2213.92,-440.483 2224.32,-442.495 2223.3,-435.569"/>
</g>
<!-- Node35 -->
<g id="node35" class="node"><title>Node35</title>
<g id="a_node35"><a xlink:href="_input_handler_8hpp.html" target="_top" xlink:title="C:/Users/micho/Desktop\l/mt_engine/mt/InputHandler.hpp">
<polygon fill="none" stroke="black" points="2217.11,-156.5 2217.11,-186.5 2372.11,-186.5 2372.11,-156.5 2217.11,-156.5"/>
<text text-anchor="start" x="2225.11" y="-174.5" font-family="Helvetica,sans-Serif" font-size="10.00">C:/Users/micho/Desktop</text>
<text text-anchor="middle" x="2294.61" y="-163.5" font-family="Helvetica,sans-Serif" font-size="10.00">/mt_engine/mt/InputHandler.hpp</text>
</a>
</g>
</g>
<!-- Node1&#45;&gt;Node35 -->
<g id="edge53" class="edge"><title>Node1&#45;&gt;Node35</title>
<path fill="none" stroke="midnightblue" d="M2164.15,-426.562C2177,-402.95 2197.47,-365.047 2214.61,-332 2242.29,-278.652 2273.96,-214.562 2287.68,-186.647"/>
<polygon fill="midnightblue" stroke="midnightblue" points="2161.02,-425.003 2159.3,-435.458 2167.16,-428.353 2161.02,-425.003"/>
</g>
<!-- Node3 -->
<g id="node3" class="node"><title>Node3</title>
<g id="a_node3"><a xlink:href="_camera_8cpp.html" target="_top" xlink:title="C:/Users/micho/Desktop\l/mt_engine/mt/Camera.cpp">
<polygon fill="none" stroke="black" points="18.6142,-84 18.6142,-114 152.614,-114 152.614,-84 18.6142,-84"/>
<text text-anchor="start" x="26.6142" y="-102" font-family="Helvetica,sans-Serif" font-size="10.00">C:/Users/micho/Desktop</text>
<text text-anchor="middle" x="85.6142" y="-91" font-family="Helvetica,sans-Serif" font-size="10.00">/mt_engine/mt/Camera.cpp</text>
</a>
</g>
</g>
<!-- Node2&#45;&gt;Node3 -->
<g id="edge2" class="edge"><title>Node2&#45;&gt;Node3</title>
<path fill="none" stroke="midnightblue" d="M1788.75,-291.067C1789.14,-269.683 1785.8,-239.526 1766.61,-223 1631.21,-106.385 338.012,-148.595 161.614,-120 152.321,-118.494 142.517,-116.346 133.151,-114.013"/>
<polygon fill="midnightblue" stroke="midnightblue" points="1785.24,-291.179 1788.27,-301.331 1792.23,-291.504 1785.24,-291.179"/>
</g>
<!-- Node4 -->
<g id="node4" class="node"><title>Node4</title>
<g id="a_node4"><a xlink:href="_direct_x_renderer_8hpp.html" target="_top" xlink:title="C:/Users/micho/Desktop\l/mt_engine/mt/DirectXRenderer.hpp">
<polygon fill="none" stroke="black" points="1889.61,-229 1889.61,-259 2059.61,-259 2059.61,-229 1889.61,-229"/>
<text text-anchor="start" x="1897.61" y="-247" font-family="Helvetica,sans-Serif" font-size="10.00">C:/Users/micho/Desktop</text>
<text text-anchor="middle" x="1974.61" y="-236" font-family="Helvetica,sans-Serif" font-size="10.00">/mt_engine/mt/DirectXRenderer.hpp</text>
</a>
</g>
</g>
<!-- Node2&#45;&gt;Node4 -->
<g id="edge3" class="edge"><title>Node2&#45;&gt;Node4</title>
<path fill="none" stroke="midnightblue" d="M1833.79,-297.81C1865.74,-285.827 1907.39,-270.21 1937.09,-259.073"/>
<polygon fill="midnightblue" stroke="midnightblue" points="1832.34,-294.614 1824.21,-301.403 1834.8,-301.169 1832.34,-294.614"/>
</g>
<!-- Node5 -->
<g id="node5" class="node"><title>Node5</title>
<g id="a_node5"><a xlink:href="engine_8hpp.html" target="_top" xlink:title="C:/Users/micho/Desktop\l/mt_engine/mt/engine.hpp">
<polygon fill="none" stroke="black" points="1910.11,-156.5 1910.11,-186.5 2039.11,-186.5 2039.11,-156.5 1910.11,-156.5"/>
<text text-anchor="start" x="1918.11" y="-174.5" font-family="Helvetica,sans-Serif" font-size="10.00">C:/Users/micho/Desktop</text>
<text text-anchor="middle" x="1974.61" y="-163.5" font-family="Helvetica,sans-Serif" font-size="10.00">/mt_engine/mt/engine.hpp</text>
</a>
</g>
</g>
<!-- Node4&#45;&gt;Node5 -->
<g id="edge4" class="edge"><title>Node4&#45;&gt;Node5</title>
<path fill="none" stroke="midnightblue" d="M1974.61,-218.732C1974.61,-208.068 1974.61,-195.914 1974.61,-186.746"/>
<polygon fill="midnightblue" stroke="midnightblue" points="1971.11,-218.733 1974.61,-228.733 1978.11,-218.733 1971.11,-218.733"/>
</g>
<!-- Node7 -->
<g id="node7" class="node"><title>Node7</title>
<g id="a_node7"><a xlink:href="_direct_x_renderer_8cpp.html" target="_top" xlink:title="C:/Users/micho/Desktop\l/mt_engine/mt/DirectXRenderer.cpp">
<polygon fill="none" stroke="black" points="170.614,-84 170.614,-114 340.614,-114 340.614,-84 170.614,-84"/>
<text text-anchor="start" x="178.614" y="-102" font-family="Helvetica,sans-Serif" font-size="10.00">C:/Users/micho/Desktop</text>
<text text-anchor="middle" x="255.614" y="-91" font-family="Helvetica,sans-Serif" font-size="10.00">/mt_engine/mt/DirectXRenderer.cpp</text>
</a>
</g>
</g>
<!-- Node4&#45;&gt;Node7 -->
<g id="edge36" class="edge"><title>Node4&#45;&gt;Node7</title>
<path fill="none" stroke="midnightblue" d="M1945.33,-223.291C1911.96,-202.075 1854.98,-169.549 1800.61,-156 1487.64,-78.0071 669.944,-157.723 349.614,-120 337.767,-118.605 325.204,-116.429 313.251,-114.017"/>
<polygon fill="midnightblue" stroke="midnightblue" points="1943.8,-226.466 1954.1,-228.95 1947.59,-220.586 1943.8,-226.466"/>
</g>
<!-- Node5&#45;&gt;Node3 -->
<g id="edge5" class="edge"><title>Node5&#45;&gt;Node3</title>
<path fill="none" stroke="midnightblue" d="M1899.63,-163.241C1868.96,-160.535 1833.11,-157.709 1800.61,-156 1436.81,-136.864 522.378,-170.708 161.614,-120 151.886,-118.633 141.619,-116.452 131.884,-114.025"/>
<polygon fill="midnightblue" stroke="midnightblue" points="1899.54,-166.747 1909.81,-164.152 1900.17,-159.775 1899.54,-166.747"/>
</g>
<!-- Node6 -->
<g id="node6" class="node"><title>Node6</title>
<g id="a_node6"><a xlink:href="_command_8cpp.html" target="_top" xlink:title="C:/Users/micho/Desktop\l/mt_engine/mt/Command.cpp">
<polygon fill="none" stroke="black" points="3681.11,-84 3681.11,-114 3826.11,-114 3826.11,-84 3681.11,-84"/>
<text text-anchor="start" x="3689.11" y="-102" font-family="Helvetica,sans-Serif" font-size="10.00">C:/Users/micho/Desktop</text>
<text text-anchor="middle" x="3753.61" y="-91" font-family="Helvetica,sans-Serif" font-size="10.00">/mt_engine/mt/Command.cpp</text>
</a>
</g>
</g>
<!-- Node5&#45;&gt;Node6 -->
<g id="edge6" class="edge"><title>Node5&#45;&gt;Node6</title>
<path fill="none" stroke="midnightblue" d="M2049.31,-165.159C2095.24,-162.052 2155.31,-158.306 2208.61,-156 2533.74,-141.934 3350.07,-163.261 3672.61,-120 3682.81,-118.633 3693.58,-116.486 3703.82,-114.096"/>
<polygon fill="midnightblue" stroke="midnightblue" points="2048.88,-161.68 2039.14,-165.852 2049.35,-168.664 2048.88,-161.68"/>
</g>
<!-- Node5&#45;&gt;Node7 -->
<g id="edge7" class="edge"><title>Node5&#45;&gt;Node7</title>
<path fill="none" stroke="midnightblue" d="M1899.8,-159.374C1888.7,-158.037 1877.37,-156.847 1866.61,-156 1194.28,-103.05 1019.44,-198.514 349.614,-120 337.766,-118.611 325.203,-116.438 313.25,-114.027"/>
<polygon fill="midnightblue" stroke="midnightblue" points="1899.56,-162.871 1909.92,-160.638 1900.43,-155.925 1899.56,-162.871"/>
</g>
<!-- Node8 -->
<g id="node8" class="node"><title>Node8</title>
<g id="a_node8"><a xlink:href="engine_8cpp.html" target="_top" xlink:title="C:/Users/micho/Desktop\l/mt_engine/mt/engine.cpp">
<polygon fill="none" stroke="black" points="3192.11,-84 3192.11,-114 3321.11,-114 3321.11,-84 3192.11,-84"/>
<text text-anchor="start" x="3200.11" y="-102" font-family="Helvetica,sans-Serif" font-size="10.00">C:/Users/micho/Desktop</text>
<text text-anchor="middle" x="3256.61" y="-91" font-family="Helvetica,sans-Serif" font-size="10.00">/mt_engine/mt/engine.cpp</text>
</a>
</g>
</g>
<!-- Node5&#45;&gt;Node8 -->
<g id="edge8" class="edge"><title>Node5&#45;&gt;Node8</title>
<path fill="none" stroke="midnightblue" d="M2049.43,-163.862C2082.82,-161.091 2122.66,-158.048 2158.61,-156 2613.27,-130.106 2732.31,-187.852 3182.61,-120 3191.96,-118.592 3201.81,-116.427 3211.17,-114.033"/>
<polygon fill="midnightblue" stroke="midnightblue" points="2048.96,-160.39 2039.28,-164.712 2049.54,-167.365 2048.96,-160.39"/>
</g>
<!-- Node9 -->
<g id="node9" class="node"><title>Node9</title>
<g id="a_node9"><a xlink:href="_game_timer_8cpp.html" target="_top" xlink:title="C:/Users/micho/Desktop\l/mt_engine/mt/GameTimer.cpp">
<polygon fill="none" stroke="black" points="3339.11,-84 3339.11,-114 3490.11,-114 3490.11,-84 3339.11,-84"/>
<text text-anchor="start" x="3347.11" y="-102" font-family="Helvetica,sans-Serif" font-size="10.00">C:/Users/micho/Desktop</text>
<text text-anchor="middle" x="3414.61" y="-91" font-family="Helvetica,sans-Serif" font-size="10.00">/mt_engine/mt/GameTimer.cpp</text>
</a>
</g>
</g>
<!-- Node5&#45;&gt;Node9 -->
<g id="edge9" class="edge"><title>Node5&#45;&gt;Node9</title>
<path fill="none" stroke="midnightblue" d="M2049.42,-163.787C2082.82,-161.002 2122.66,-157.968 2158.61,-156 2678.97,-127.521 2814.03,-188.706 3330.61,-120 3341.16,-118.597 3352.32,-116.433 3362.94,-114.04"/>
<polygon fill="midnightblue" stroke="midnightblue" points="2048.95,-160.315 2039.28,-164.642 2049.54,-167.29 2048.95,-160.315"/>
</g>
<!-- Node10 -->
<g id="node10" class="node"><title>Node10</title>
<g id="a_node10"><a xlink:href="_input_handler_8cpp.html" target="_top" xlink:title="C:/Users/micho/Desktop\l/mt_engine/mt/InputHandler.cpp">
<polygon fill="none" stroke="black" points="3508.11,-84 3508.11,-114 3663.11,-114 3663.11,-84 3508.11,-84"/>
<text text-anchor="start" x="3516.11" y="-102" font-family="Helvetica,sans-Serif" font-size="10.00">C:/Users/micho/Desktop</text>
<text text-anchor="middle" x="3585.61" y="-91" font-family="Helvetica,sans-Serif" font-size="10.00">/mt_engine/mt/InputHandler.cpp</text>
</a>
</g>
</g>
<!-- Node5&#45;&gt;Node10 -->
<g id="edge10" class="edge"><title>Node5&#45;&gt;Node10</title>
<path fill="none" stroke="midnightblue" d="M2049.42,-163.722C2082.81,-160.924 2122.66,-157.898 2158.61,-156 2456.31,-140.285 3203.93,-157.955 3499.61,-120 3510.41,-118.614 3521.83,-116.459 3532.7,-114.067"/>
<polygon fill="midnightblue" stroke="midnightblue" points="2048.95,-160.249 2039.28,-164.581 2049.54,-167.224 2048.95,-160.249"/>
</g>
<!-- Node11 -->
<g id="node11" class="node"><title>Node11</title>
<g id="a_node11"><a xlink:href="_windows_message_handler_8cpp.html" target="_top" xlink:title="C:/Users/micho/Desktop\l/mt_engine/mt/WindowsMessage\lHandler.cpp">
<polygon fill="none" stroke="black" points="559.114,-78.5 559.114,-119.5 720.114,-119.5 720.114,-78.5 559.114,-78.5"/>
<text text-anchor="start" x="567.114" y="-107.5" font-family="Helvetica,sans-Serif" font-size="10.00">C:/Users/micho/Desktop</text>
<text text-anchor="start" x="567.114" y="-96.5" font-family="Helvetica,sans-Serif" font-size="10.00">/mt_engine/mt/WindowsMessage</text>
<text text-anchor="middle" x="639.614" y="-85.5" font-family="Helvetica,sans-Serif" font-size="10.00">Handler.cpp</text>
</a>
</g>
</g>
<!-- Node5&#45;&gt;Node11 -->
<g id="edge11" class="edge"><title>Node5&#45;&gt;Node11</title>
<path fill="none" stroke="midnightblue" d="M1899.8,-159.451C1888.69,-158.103 1877.37,-156.89 1866.61,-156 1362.31,-114.278 1230.61,-183.76 728.614,-120 725.943,-119.661 723.235,-119.278 720.505,-118.86"/>
<polygon fill="midnightblue" stroke="midnightblue" points="1899.55,-162.948 1909.91,-160.722 1900.43,-156.002 1899.55,-162.948"/>
</g>
<!-- Node12 -->
<g id="node12" class="node"><title>Node12</title>
<g id="a_node12"><a xlink:href="_w_m___l_b_u_t_t_o_n_d_o_w_n___handler_8hpp.html" target="_top" xlink:title="C:/Users/micho/Desktop\l/mt_engine/mt/WM_LBUTTONDOWN\l_Handler.hpp">
<polygon fill="none" stroke="black" points="1791.11,-78.5 1791.11,-119.5 1970.11,-119.5 1970.11,-78.5 1791.11,-78.5"/>
<text text-anchor="start" x="1799.11" y="-107.5" font-family="Helvetica,sans-Serif" font-size="10.00">C:/Users/micho/Desktop</text>
<text text-anchor="start" x="1799.11" y="-96.5" font-family="Helvetica,sans-Serif" font-size="10.00">/mt_engine/mt/WM_LBUTTONDOWN</text>
<text text-anchor="middle" x="1880.61" y="-85.5" font-family="Helvetica,sans-Serif" font-size="10.00">_Handler.hpp</text>
</a>
</g>
</g>
<!-- Node5&#45;&gt;Node12 -->
<g id="edge12" class="edge"><title>Node5&#45;&gt;Node12</title>
<path fill="none" stroke="midnightblue" d="M1947.56,-150.209C1934.72,-140.581 1919.45,-129.125 1906.73,-119.588"/>
<polygon fill="midnightblue" stroke="midnightblue" points="1945.49,-153.033 1955.59,-156.233 1949.69,-147.433 1945.49,-153.033"/>
</g>
<!-- Node14 -->
<g id="node14" class="node"><title>Node14</title>
<g id="a_node14"><a xlink:href="_w_m___l_b_u_t_t_o_n_u_p___handler_8hpp.html" target="_top" xlink:title="C:/Users/micho/Desktop\l/mt_engine/mt/WM_LBUTTONUP\l_Handler.hpp">
<polygon fill="none" stroke="black" points="1988.61,-78.5 1988.61,-119.5 2150.61,-119.5 2150.61,-78.5 1988.61,-78.5"/>
<text text-anchor="start" x="1996.61" y="-107.5" font-family="Helvetica,sans-Serif" font-size="10.00">C:/Users/micho/Desktop</text>
<text text-anchor="start" x="1996.61" y="-96.5" font-family="Helvetica,sans-Serif" font-size="10.00">/mt_engine/mt/WM_LBUTTONUP</text>
<text text-anchor="middle" x="2069.61" y="-85.5" font-family="Helvetica,sans-Serif" font-size="10.00">_Handler.hpp</text>
</a>
</g>
</g>
<!-- Node5&#45;&gt;Node14 -->
<g id="edge14" class="edge"><title>Node5&#45;&gt;Node14</title>
<path fill="none" stroke="midnightblue" d="M2001.96,-150.209C2014.93,-140.581 2030.37,-129.125 2043.22,-119.588"/>
<polygon fill="midnightblue" stroke="midnightblue" points="1999.78,-147.463 1993.84,-156.233 2003.96,-153.085 1999.78,-147.463"/>
</g>
<!-- Node15 -->
<g id="node15" class="node"><title>Node15</title>
<g id="a_node15"><a xlink:href="_w_m___m_b_u_t_t_o_n_d_o_w_n___handler_8hpp.html" target="_top" xlink:title="C:/Users/micho/Desktop\l/mt_engine/mt/WM_MBUTTONDOWN\l_Handler.hpp">
<polygon fill="none" stroke="black" points="358.614,-78.5 358.614,-119.5 540.614,-119.5 540.614,-78.5 358.614,-78.5"/>
<text text-anchor="start" x="366.614" y="-107.5" font-family="Helvetica,sans-Serif" font-size="10.00">C:/Users/micho/Desktop</text>
<text text-anchor="start" x="366.614" y="-96.5" font-family="Helvetica,sans-Serif" font-size="10.00">/mt_engine/mt/WM_MBUTTONDOWN</text>
<text text-anchor="middle" x="449.614" y="-85.5" font-family="Helvetica,sans-Serif" font-size="10.00">_Handler.hpp</text>
</a>
</g>
</g>
<!-- Node5&#45;&gt;Node15 -->
<g id="edge16" class="edge"><title>Node5&#45;&gt;Node15</title>
<path fill="none" stroke="midnightblue" d="M1899.8,-159.409C1888.69,-158.067 1877.37,-156.867 1866.61,-156 1282.95,-108.975 1131.47,-185.655 549.614,-120 546.711,-119.672 543.767,-119.304 540.799,-118.901"/>
<polygon fill="midnightblue" stroke="midnightblue" points="1899.56,-162.906 1909.92,-160.676 1900.43,-155.96 1899.56,-162.906"/>
</g>
<!-- Node16 -->
<g id="node16" class="node"><title>Node16</title>
<g id="a_node16"><a xlink:href="_w_m___m_b_u_t_t_o_n_u_p___handler_8hpp.html" target="_top" xlink:title="C:/Users/micho/Desktop\l/mt_engine/mt/WM_MBUTTONUP\l_Handler.hpp">
<polygon fill="none" stroke="black" points="738.114,-78.5 738.114,-119.5 903.114,-119.5 903.114,-78.5 738.114,-78.5"/>
<text text-anchor="start" x="746.114" y="-107.5" font-family="Helvetica,sans-Serif" font-size="10.00">C:/Users/micho/Desktop</text>
<text text-anchor="start" x="746.114" y="-96.5" font-family="Helvetica,sans-Serif" font-size="10.00">/mt_engine/mt/WM_MBUTTONUP</text>
<text text-anchor="middle" x="820.614" y="-85.5" font-family="Helvetica,sans-Serif" font-size="10.00">_Handler.hpp</text>
</a>
</g>
</g>
<!-- Node5&#45;&gt;Node16 -->
<g id="edge18" class="edge"><title>Node5&#45;&gt;Node16</title>
<path fill="none" stroke="midnightblue" d="M1899.79,-159.51C1888.69,-158.154 1877.37,-156.922 1866.61,-156 1443.87,-119.729 1333.56,-173.274 912.614,-120 909.533,-119.61 906.403,-119.168 903.247,-118.683"/>
<polygon fill="midnightblue" stroke="midnightblue" points="1899.55,-163.007 1909.91,-160.786 1900.42,-156.062 1899.55,-163.007"/>
</g>
<!-- Node17 -->
<g id="node17" class="node"><title>Node17</title>
<g id="a_node17"><a xlink:href="_w_m___m_o_u_s_e_m_o_v_e___handler_8hpp.html" target="_top" xlink:title="C:/Users/micho/Desktop\l/mt_engine/mt/WM_MOUSEMOVE\l_Handler.hpp">
<polygon fill="none" stroke="black" points="921.614,-78.5 921.614,-119.5 1091.61,-119.5 1091.61,-78.5 921.614,-78.5"/>
<text text-anchor="start" x="929.614" y="-107.5" font-family="Helvetica,sans-Serif" font-size="10.00">C:/Users/micho/Desktop</text>
<text text-anchor="start" x="929.614" y="-96.5" font-family="Helvetica,sans-Serif" font-size="10.00">/mt_engine/mt/WM_MOUSEMOVE</text>
<text text-anchor="middle" x="1006.61" y="-85.5" font-family="Helvetica,sans-Serif" font-size="10.00">_Handler.hpp</text>
</a>
</g>
</g>
<!-- Node5&#45;&gt;Node17 -->
<g id="edge20" class="edge"><title>Node5&#45;&gt;Node17</title>
<path fill="none" stroke="midnightblue" d="M1899.78,-159.6C1888.68,-158.231 1877.36,-156.972 1866.61,-156 1527.18,-125.296 1438.63,-163.608 1100.61,-120 1097.72,-119.626 1094.78,-119.21 1091.82,-118.76"/>
<polygon fill="midnightblue" stroke="midnightblue" points="1899.54,-163.097 1909.9,-160.884 1900.42,-156.153 1899.54,-163.097"/>
</g>
<!-- Node18 -->
<g id="node18" class="node"><title>Node18</title>
<g id="a_node18"><a xlink:href="_w_m___q_u_i_t___handler_8hpp.html" target="_top" xlink:title="C:/Users/micho/Desktop\l/mt_engine/mt/WM_QUIT\l_Handler.hpp">
<polygon fill="none" stroke="black" points="1110.11,-78.5 1110.11,-119.5 1237.11,-119.5 1237.11,-78.5 1110.11,-78.5"/>
<text text-anchor="start" x="1118.11" y="-107.5" font-family="Helvetica,sans-Serif" font-size="10.00">C:/Users/micho/Desktop</text>
<text text-anchor="start" x="1118.11" y="-96.5" font-family="Helvetica,sans-Serif" font-size="10.00">/mt_engine/mt/WM_QUIT</text>
<text text-anchor="middle" x="1173.61" y="-85.5" font-family="Helvetica,sans-Serif" font-size="10.00">_Handler.hpp</text>
</a>
</g>
</g>
<!-- Node5&#45;&gt;Node18 -->
<g id="edge22" class="edge"><title>Node5&#45;&gt;Node18</title>
<path fill="none" stroke="midnightblue" d="M1899.77,-159.707C1888.67,-158.322 1877.36,-157.031 1866.61,-156 1591.42,-129.587 1518.35,-165.253 1245.61,-120 1242.93,-119.554 1240.2,-119.047 1237.45,-118.491"/>
<polygon fill="midnightblue" stroke="midnightblue" points="1899.52,-163.203 1909.89,-161 1900.41,-156.26 1899.52,-163.203"/>
</g>
<!-- Node19 -->
<g id="node19" class="node"><title>Node19</title>
<g id="a_node19"><a xlink:href="_w_m___r_b_u_t_t_o_n_d_o_w_n___handler_8hpp.html" target="_top" xlink:title="C:/Users/micho/Desktop\l/mt_engine/mt/WM_RBUTTONDOWN\l_Handler.hpp">
<polygon fill="none" stroke="black" points="1255.11,-78.5 1255.11,-119.5 1436.11,-119.5 1436.11,-78.5 1255.11,-78.5"/>
<text text-anchor="start" x="1263.11" y="-107.5" font-family="Helvetica,sans-Serif" font-size="10.00">C:/Users/micho/Desktop</text>
<text text-anchor="start" x="1263.11" y="-96.5" font-family="Helvetica,sans-Serif" font-size="10.00">/mt_engine/mt/WM_RBUTTONDOWN</text>
<text text-anchor="middle" x="1345.61" y="-85.5" font-family="Helvetica,sans-Serif" font-size="10.00">_Handler.hpp</text>
</a>
</g>
</g>
<!-- Node5&#45;&gt;Node19 -->
<g id="edge24" class="edge"><title>Node5&#45;&gt;Node19</title>
<path fill="none" stroke="midnightblue" d="M1899.75,-159.973C1888.65,-158.551 1877.34,-157.178 1866.61,-156 1679.94,-135.5 1631.54,-146.456 1445.61,-120 1442.55,-119.564 1439.43,-119.093 1436.29,-118.596"/>
<polygon fill="midnightblue" stroke="midnightblue" points="1899.49,-163.469 1909.86,-161.289 1900.39,-156.528 1899.49,-163.469"/>
</g>
<!-- Node20 -->
<g id="node20" class="node"><title>Node20</title>
<g id="a_node20"><a xlink:href="_w_m___r_b_u_t_t_o_n_u_p___handler_8hpp.html" target="_top" xlink:title="C:/Users/micho/Desktop\l/mt_engine/mt/WM_RBUTTONUP\l_Handler.hpp">
<polygon fill="none" stroke="black" points="1454.61,-78.5 1454.61,-119.5 1618.61,-119.5 1618.61,-78.5 1454.61,-78.5"/>
<text text-anchor="start" x="1462.61" y="-107.5" font-family="Helvetica,sans-Serif" font-size="10.00">C:/Users/micho/Desktop</text>
<text text-anchor="start" x="1462.61" y="-96.5" font-family="Helvetica,sans-Serif" font-size="10.00">/mt_engine/mt/WM_RBUTTONUP</text>
<text text-anchor="middle" x="1536.61" y="-85.5" font-family="Helvetica,sans-Serif" font-size="10.00">_Handler.hpp</text>
</a>
</g>
</g>
<!-- Node5&#45;&gt;Node20 -->
<g id="edge26" class="edge"><title>Node5&#45;&gt;Node20</title>
<path fill="none" stroke="midnightblue" d="M1899.98,-160.279C1814.1,-148.404 1678.38,-129.261 1627.61,-120 1624.75,-119.478 1621.84,-118.93 1618.9,-118.362"/>
<polygon fill="midnightblue" stroke="midnightblue" points="1899.55,-163.753 1909.94,-161.654 1900.51,-156.819 1899.55,-163.753"/>
</g>
<!-- Node21 -->
<g id="node21" class="node"><title>Node21</title>
<g id="a_node21"><a xlink:href="_w_m___s_i_z_i_n_g___handler_8hpp.html" target="_top" xlink:title="C:/Users/micho/Desktop\l/mt_engine/mt/WM_SIZING\l_Handler.hpp">
<polygon fill="none" stroke="black" points="1636.61,-78.5 1636.61,-119.5 1772.61,-119.5 1772.61,-78.5 1636.61,-78.5"/>
<text text-anchor="start" x="1644.61" y="-107.5" font-family="Helvetica,sans-Serif" font-size="10.00">C:/Users/micho/Desktop</text>
<text text-anchor="start" x="1644.61" y="-96.5" font-family="Helvetica,sans-Serif" font-size="10.00">/mt_engine/mt/WM_SIZING</text>
<text text-anchor="middle" x="1704.61" y="-85.5" font-family="Helvetica,sans-Serif" font-size="10.00">_Handler.hpp</text>
</a>
</g>
</g>
<!-- Node5&#45;&gt;Node21 -->
<g id="edge28" class="edge"><title>Node5&#45;&gt;Node21</title>
<path fill="none" stroke="midnightblue" d="M1911.23,-153.949C1869.74,-143.116 1815.55,-128.966 1773.08,-117.876"/>
<polygon fill="midnightblue" stroke="midnightblue" points="1910.39,-157.347 1920.95,-156.487 1912.16,-150.574 1910.39,-157.347"/>
</g>
<!-- Node22 -->
<g id="node22" class="node"><title>Node22</title>
<g id="a_node22"><a xlink:href="_w_m___a_c_t_i_v_a_t_e___handler_8cpp.html" target="_top" xlink:title="C:/Users/micho/Desktop\l/mt_engine/mt/WM_ACTIVATE\l_Handler.cpp">
<polygon fill="none" stroke="black" points="2168.61,-78.5 2168.61,-119.5 2320.61,-119.5 2320.61,-78.5 2168.61,-78.5"/>
<text text-anchor="start" x="2176.61" y="-107.5" font-family="Helvetica,sans-Serif" font-size="10.00">C:/Users/micho/Desktop</text>
<text text-anchor="start" x="2176.61" y="-96.5" font-family="Helvetica,sans-Serif" font-size="10.00">/mt_engine/mt/WM_ACTIVATE</text>
<text text-anchor="middle" x="2244.61" y="-85.5" font-family="Helvetica,sans-Serif" font-size="10.00">_Handler.cpp</text>
</a>
</g>
</g>
<!-- Node5&#45;&gt;Node22 -->
<g id="edge30" class="edge"><title>Node5&#45;&gt;Node22</title>
<path fill="none" stroke="midnightblue" d="M2038.05,-153.936C2077.5,-143.635 2128.42,-130.338 2169.84,-119.525"/>
<polygon fill="midnightblue" stroke="midnightblue" points="2037.07,-150.574 2028.28,-156.487 2038.84,-157.347 2037.07,-150.574"/>
</g>
<!-- Node23 -->
<g id="node23" class="node"><title>Node23</title>
<g id="a_node23"><a xlink:href="_w_m___e_n_t_e_r_s_i_z_e_m_o_v_e___handler_8cpp.html" target="_top" xlink:title="C:/Users/micho/Desktop\l/mt_engine/mt/WM_ENTERSIZEMOVE\l_Handler.cpp">
<polygon fill="none" stroke="black" points="2338.61,-78.5 2338.61,-119.5 2526.61,-119.5 2526.61,-78.5 2338.61,-78.5"/>
<text text-anchor="start" x="2346.61" y="-107.5" font-family="Helvetica,sans-Serif" font-size="10.00">C:/Users/micho/Desktop</text>
<text text-anchor="start" x="2346.61" y="-96.5" font-family="Helvetica,sans-Serif" font-size="10.00">/mt_engine/mt/WM_ENTERSIZEMOVE</text>
<text text-anchor="middle" x="2432.61" y="-85.5" font-family="Helvetica,sans-Serif" font-size="10.00">_Handler.cpp</text>
</a>
</g>
</g>
<!-- Node5&#45;&gt;Node23 -->
<g id="edge31" class="edge"><title>Node5&#45;&gt;Node23</title>
<path fill="none" stroke="midnightblue" d="M2049.54,-160.958C2121.51,-151.531 2233.21,-136.205 2329.61,-120 2332.49,-119.517 2335.41,-119.016 2338.35,-118.501"/>
<polygon fill="midnightblue" stroke="midnightblue" points="2048.68,-157.541 2039.22,-162.306 2049.59,-164.482 2048.68,-157.541"/>
</g>
<!-- Node24 -->
<g id="node24" class="node"><title>Node24</title>
<g id="a_node24"><a xlink:href="_w_m___e_x_i_t_s_i_z_e_m_o_v_e___handler_8cpp.html" target="_top" xlink:title="C:/Users/micho/Desktop\l/mt_engine/mt/WM_EXITSIZEMOVE\l_Handler.cpp">
<polygon fill="none" stroke="black" points="2545.11,-78.5 2545.11,-119.5 2720.11,-119.5 2720.11,-78.5 2545.11,-78.5"/>
<text text-anchor="start" x="2553.11" y="-107.5" font-family="Helvetica,sans-Serif" font-size="10.00">C:/Users/micho/Desktop</text>
<text text-anchor="start" x="2553.11" y="-96.5" font-family="Helvetica,sans-Serif" font-size="10.00">/mt_engine/mt/WM_EXITSIZEMOVE</text>
<text text-anchor="middle" x="2632.61" y="-85.5" font-family="Helvetica,sans-Serif" font-size="10.00">_Handler.cpp</text>
</a>
</g>
</g>
<!-- Node5&#45;&gt;Node24 -->
<g id="edge32" class="edge"><title>Node5&#45;&gt;Node24</title>
<path fill="none" stroke="midnightblue" d="M2049.63,-164.226C2191.41,-152.297 2488.75,-126.918 2535.61,-120 2538.68,-119.548 2541.79,-119.061 2544.92,-118.545"/>
<polygon fill="midnightblue" stroke="midnightblue" points="2048.95,-160.77 2039.28,-165.096 2049.54,-167.746 2048.95,-160.77"/>
</g>
<!-- Node25 -->
<g id="node25" class="node"><title>Node25</title>
<g id="a_node25"><a xlink:href="_w_m___k_e_y_u_p___handler_8cpp.html" target="_top" xlink:title="C:/Users/micho/Desktop\l/mt_engine/mt/WM_KEYUP\l_Handler.cpp">
<polygon fill="none" stroke="black" points="2738.11,-78.5 2738.11,-119.5 2877.11,-119.5 2877.11,-78.5 2738.11,-78.5"/>
<text text-anchor="start" x="2746.11" y="-107.5" font-family="Helvetica,sans-Serif" font-size="10.00">C:/Users/micho/Desktop</text>
<text text-anchor="start" x="2746.11" y="-96.5" font-family="Helvetica,sans-Serif" font-size="10.00">/mt_engine/mt/WM_KEYUP</text>
<text text-anchor="middle" x="2807.61" y="-85.5" font-family="Helvetica,sans-Serif" font-size="10.00">_Handler.cpp</text>
</a>
</g>
</g>
<!-- Node5&#45;&gt;Node25 -->
<g id="edge33" class="edge"><title>Node5&#45;&gt;Node25</title>
<path fill="none" stroke="midnightblue" d="M2049.46,-164.335C2082.86,-161.652 2122.7,-158.547 2158.61,-156 2412.26,-138.011 2478.46,-159.754 2729.61,-120 2732.38,-119.563 2735.18,-119.072 2738.01,-118.538"/>
<polygon fill="midnightblue" stroke="midnightblue" points="2049,-160.86 2039.31,-165.152 2049.56,-167.838 2049,-160.86"/>
</g>
<!-- Node26 -->
<g id="node26" class="node"><title>Node26</title>
<g id="a_node26"><a xlink:href="_w_m___s_i_z_e___handler_8cpp.html" target="_top" xlink:title="C:/Users/micho/Desktop\l/mt_engine/mt/WM_SIZE\l_Handler.cpp">
<polygon fill="none" stroke="black" points="2895.61,-78.5 2895.61,-119.5 3021.61,-119.5 3021.61,-78.5 2895.61,-78.5"/>
<text text-anchor="start" x="2903.61" y="-107.5" font-family="Helvetica,sans-Serif" font-size="10.00">C:/Users/micho/Desktop</text>
<text text-anchor="start" x="2903.61" y="-96.5" font-family="Helvetica,sans-Serif" font-size="10.00">/mt_engine/mt/WM_SIZE</text>
<text text-anchor="middle" x="2958.61" y="-85.5" font-family="Helvetica,sans-Serif" font-size="10.00">_Handler.cpp</text>
</a>
</g>
</g>
<!-- Node5&#45;&gt;Node26 -->
<g id="edge34" class="edge"><title>Node5&#45;&gt;Node26</title>
<path fill="none" stroke="midnightblue" d="M2049.44,-164.105C2082.84,-161.379 2122.68,-158.304 2158.61,-156 2481.9,-135.273 2566.81,-171.668 2886.61,-120 2889.56,-119.524 2892.56,-118.972 2895.57,-118.362"/>
<polygon fill="midnightblue" stroke="midnightblue" points="2048.98,-160.631 2039.3,-164.938 2049.55,-167.607 2048.98,-160.631"/>
</g>
<!-- Node27 -->
<g id="node27" class="node"><title>Node27</title>
<g id="a_node27"><a xlink:href="_w_m___t_i_m_e_r___handler_8cpp.html" target="_top" xlink:title="C:/Users/micho/Desktop\l/mt_engine/mt/WM_TIMER\l_Handler.cpp">
<polygon fill="none" stroke="black" points="3039.61,-78.5 3039.61,-119.5 3173.61,-119.5 3173.61,-78.5 3039.61,-78.5"/>
<text text-anchor="start" x="3047.61" y="-107.5" font-family="Helvetica,sans-Serif" font-size="10.00">C:/Users/micho/Desktop</text>
<text text-anchor="start" x="3047.61" y="-96.5" font-family="Helvetica,sans-Serif" font-size="10.00">/mt_engine/mt/WM_TIMER</text>
<text text-anchor="middle" x="3106.61" y="-85.5" font-family="Helvetica,sans-Serif" font-size="10.00">_Handler.cpp</text>
</a>
</g>
</g>
<!-- Node5&#45;&gt;Node27 -->
<g id="edge35" class="edge"><title>Node5&#45;&gt;Node27</title>
<path fill="none" stroke="midnightblue" d="M2049.43,-163.966C2082.83,-161.215 2122.67,-158.157 2158.61,-156 2545.8,-132.76 2647.04,-177.693 3030.61,-120 3033.45,-119.574 3036.33,-119.083 3039.23,-118.541"/>
<polygon fill="midnightblue" stroke="midnightblue" points="2048.97,-160.493 2039.29,-164.809 2049.55,-167.469 2048.97,-160.493"/>
</g>
<!-- Node13 -->
<g id="node13" class="node"><title>Node13</title>
<g id="a_node13"><a xlink:href="_windows_message_handling_service_8cpp.html" target="_top" xlink:title="C:/Users/micho/Desktop\l/mt_engine/mt/WindowsMessage\lHandlingService.cpp">
<polygon fill="none" stroke="black" points="1179.11,-0.5 1179.11,-41.5 1340.11,-41.5 1340.11,-0.5 1179.11,-0.5"/>
<text text-anchor="start" x="1187.11" y="-29.5" font-family="Helvetica,sans-Serif" font-size="10.00">C:/Users/micho/Desktop</text>
<text text-anchor="start" x="1187.11" y="-18.5" font-family="Helvetica,sans-Serif" font-size="10.00">/mt_engine/mt/WindowsMessage</text>
<text text-anchor="middle" x="1259.61" y="-7.5" font-family="Helvetica,sans-Serif" font-size="10.00">HandlingService.cpp</text>
</a>
</g>
</g>
<!-- Node12&#45;&gt;Node13 -->
<g id="edge13" class="edge"><title>Node12&#45;&gt;Node13</title>
<path fill="none" stroke="midnightblue" d="M1780.94,-77.9721C1618.76,-53.3247 1441.13,-36.7554 1340.4,-28.3338"/>
<polygon fill="midnightblue" stroke="midnightblue" points="1780.69,-81.4747 1791.1,-79.5308 1781.75,-74.5555 1780.69,-81.4747"/>
</g>
<!-- Node14&#45;&gt;Node13 -->
<g id="edge15" class="edge"><title>Node14&#45;&gt;Node13</title>
<path fill="none" stroke="midnightblue" d="M1978.15,-78.055C1740.8,-43.5298 1471.93,-29.7442 1340.36,-24.6393"/>
<polygon fill="midnightblue" stroke="midnightblue" points="1977.95,-81.5637 1988.35,-79.5555 1978.97,-74.6382 1977.95,-81.5637"/>
</g>
<!-- Node15&#45;&gt;Node13 -->
<g id="edge17" class="edge"><title>Node15&#45;&gt;Node13</title>
<path fill="none" stroke="midnightblue" d="M550.855,-77.9107C784.118,-46.0492 1048.67,-31.1679 1178.89,-25.2448"/>
<polygon fill="midnightblue" stroke="midnightblue" points="550.252,-74.4607 540.824,-79.2941 551.208,-81.3951 550.252,-74.4607"/>
</g>
<!-- Node16&#45;&gt;Node13 -->
<g id="edge19" class="edge"><title>Node16&#45;&gt;Node13</title>
<path fill="none" stroke="midnightblue" d="M913.311,-77.9159C1010.38,-59.7233 1110.64,-44.0022 1178.77,-33.7824"/>
<polygon fill="midnightblue" stroke="midnightblue" points="912.502,-74.5068 903.323,-79.7989 913.799,-81.3856 912.502,-74.5068"/>
</g>
<!-- Node17&#45;&gt;Node13 -->
<g id="edge21" class="edge"><title>Node17&#45;&gt;Node13</title>
<path fill="none" stroke="midnightblue" d="M1081.71,-75.4423C1117.62,-64.655 1160.19,-51.8672 1194.68,-41.5056"/>
<polygon fill="midnightblue" stroke="midnightblue" points="1080.34,-72.1991 1071.77,-78.4281 1082.35,-78.9031 1080.34,-72.1991"/>
</g>
<!-- Node18&#45;&gt;Node13 -->
<g id="edge23" class="edge"><title>Node18&#45;&gt;Node13</title>
<path fill="none" stroke="midnightblue" d="M1203.29,-71.7785C1214.53,-61.8432 1227.12,-50.7159 1237.54,-41.5056"/>
<polygon fill="midnightblue" stroke="midnightblue" points="1200.94,-69.1834 1195.76,-78.4281 1205.57,-74.4288 1200.94,-69.1834"/>
</g>
<!-- Node19&#45;&gt;Node13 -->
<g id="edge25" class="edge"><title>Node19&#45;&gt;Node13</title>
<path fill="none" stroke="midnightblue" d="M1315.94,-71.7785C1304.7,-61.8432 1292.11,-50.7159 1281.69,-41.5056"/>
<polygon fill="midnightblue" stroke="midnightblue" points="1313.66,-74.4288 1323.47,-78.4281 1318.29,-69.1834 1313.66,-74.4288"/>
</g>
<!-- Node20&#45;&gt;Node13 -->
<g id="edge27" class="edge"><title>Node20&#45;&gt;Node13</title>
<path fill="none" stroke="midnightblue" d="M1455.4,-75.7184C1415.88,-64.8738 1368.8,-51.9557 1330.71,-41.5056"/>
<polygon fill="midnightblue" stroke="midnightblue" points="1454.71,-79.1574 1465.28,-78.4281 1456.56,-72.4069 1454.71,-79.1574"/>
</g>
<!-- Node21&#45;&gt;Node13 -->
<g id="edge29" class="edge"><title>Node21&#45;&gt;Node13</title>
<path fill="none" stroke="midnightblue" d="M1626.24,-77.8103C1522.39,-56.8365 1412.95,-41.2659 1340.44,-31.8615"/>
<polygon fill="midnightblue" stroke="midnightblue" points="1625.77,-81.2869 1636.27,-79.8568 1627.17,-74.4282 1625.77,-81.2869"/>
</g>
<!-- Node28&#45;&gt;Node2 -->
<g id="edge38" class="edge"><title>Node28&#45;&gt;Node2</title>
<path fill="none" stroke="midnightblue" d="M1968.86,-365.85C1928.91,-355.252 1877.74,-341.677 1839.8,-331.611"/>
<polygon fill="midnightblue" stroke="midnightblue" points="1968.19,-369.295 1978.75,-368.476 1969.99,-362.529 1968.19,-369.295"/>
</g>
<!-- Node28&#45;&gt;Node4 -->
<g id="edge39" class="edge"><title>Node28&#45;&gt;Node4</title>
<path fill="none" stroke="midnightblue" d="M2027.96,-358.485C2024.9,-341.869 2019.71,-319.505 2011.61,-301 2004.98,-285.84 1994.33,-270.268 1986.15,-259.405"/>
<polygon fill="midnightblue" stroke="midnightblue" points="2024.53,-359.211 2029.67,-368.476 2031.43,-358.028 2024.53,-359.211"/>
</g>
<!-- Node29 -->
<g id="node29" class="node"><title>Node29</title>
<g id="a_node29"><a xlink:href="_upload_buffer_8h.html" target="_top" xlink:title="C:/Users/micho/Desktop\l/mt_engine/mt/UploadBuffer.h">
<polygon fill="none" stroke="black" points="2060.11,-301.5 2060.11,-331.5 2205.11,-331.5 2205.11,-301.5 2060.11,-301.5"/>
<text text-anchor="start" x="2068.11" y="-319.5" font-family="Helvetica,sans-Serif" font-size="10.00">C:/Users/micho/Desktop</text>
<text text-anchor="middle" x="2132.61" y="-308.5" font-family="Helvetica,sans-Serif" font-size="10.00">/mt_engine/mt/UploadBuffer.h</text>
</a>
</g>
</g>
<!-- Node28&#45;&gt;Node29 -->
<g id="edge40" class="edge"><title>Node28&#45;&gt;Node29</title>
<path fill="none" stroke="midnightblue" d="M2062.33,-362.734C2077.96,-352.676 2096.59,-340.685 2110.74,-331.577"/>
<polygon fill="midnightblue" stroke="midnightblue" points="2060.04,-360.041 2053.53,-368.396 2063.83,-365.927 2060.04,-360.041"/>
</g>
<!-- Node30 -->
<g id="node30" class="node"><title>Node30</title>
<g id="a_node30"><a xlink:href="d3d_util_8cpp.html" target="_top" xlink:title="C:/Users/micho/Desktop\l/mt_engine/mt/d3dUtil.cpp">
<polygon fill="none" stroke="black" points="1872.11,-301.5 1872.11,-331.5 2003.11,-331.5 2003.11,-301.5 1872.11,-301.5"/>
<text text-anchor="start" x="1880.11" y="-319.5" font-family="Helvetica,sans-Serif" font-size="10.00">C:/Users/micho/Desktop</text>
<text text-anchor="middle" x="1937.61" y="-308.5" font-family="Helvetica,sans-Serif" font-size="10.00">/mt_engine/mt/d3dUtil.cpp</text>
</a>
</g>
</g>
<!-- Node28&#45;&gt;Node30 -->
<g id="edge43" class="edge"><title>Node28&#45;&gt;Node30</title>
<path fill="none" stroke="midnightblue" d="M2002.62,-362.451C1988.16,-352.452 1971.02,-340.6 1957.97,-331.577"/>
<polygon fill="midnightblue" stroke="midnightblue" points="2001,-365.587 2011.22,-368.396 2004.98,-359.83 2001,-365.587"/>
</g>
<!-- Node29&#45;&gt;Node4 -->
<g id="edge41" class="edge"><title>Node29&#45;&gt;Node4</title>
<path fill="none" stroke="midnightblue" d="M2091.57,-297.187C2064.91,-285.29 2030.68,-270.018 2006.15,-259.073"/>
<polygon fill="midnightblue" stroke="midnightblue" points="2090.46,-300.524 2101.02,-301.403 2093.31,-294.132 2090.46,-300.524"/>
</g>
<!-- Node29&#45;&gt;Node10 -->
<g id="edge42" class="edge"><title>Node29&#45;&gt;Node10</title>
<path fill="none" stroke="midnightblue" d="M2136.25,-290.951C2143.12,-254.339 2161.79,-186.48 2208.61,-156 2268.75,-116.859 3428.45,-129.172 3499.61,-120 3510.41,-118.609 3521.83,-116.451 3532.7,-114.058"/>
<polygon fill="midnightblue" stroke="midnightblue" points="2132.72,-290.785 2134.48,-301.234 2139.62,-291.974 2132.72,-290.785"/>
</g>
<!-- Node31&#45;&gt;Node5 -->
<g id="edge45" class="edge"><title>Node31&#45;&gt;Node5</title>
<path fill="none" stroke="midnightblue" d="M1768.13,-221.514C1816,-210.15 1873.42,-196.521 1915.54,-186.523"/>
<polygon fill="midnightblue" stroke="midnightblue" points="1767.3,-218.114 1758.38,-223.829 1768.92,-224.924 1767.3,-218.114"/>
</g>
<!-- Node31&#45;&gt;Node13 -->
<g id="edge46" class="edge"><title>Node31&#45;&gt;Node13</title>
<path fill="none" stroke="midnightblue" d="M1587.05,-243.337C1254.93,-243.64 117.501,-236.135 9.61422,-120 -3.09049,-106.324 -3.28635,-91.4915 9.61422,-78 50.0553,-35.7066 908.188,-24.9353 1178.69,-22.5857"/>
<polygon fill="midnightblue" stroke="midnightblue" points="1587.11,-246.837 1597.11,-243.325 1587.11,-239.837 1587.11,-246.837"/>
</g>
<!-- Node32&#45;&gt;Node5 -->
<g id="edge48" class="edge"><title>Node32&#45;&gt;Node5</title>
<path fill="none" stroke="midnightblue" d="M2349.56,-363.613C2267.93,-322.006 2074.15,-223.236 2002.17,-186.543"/>
<polygon fill="midnightblue" stroke="midnightblue" points="2348.44,-366.972 2358.94,-368.395 2351.62,-360.736 2348.44,-366.972"/>
</g>
<!-- Node33 -->
<g id="node33" class="node"><title>Node33</title>
<g id="a_node33"><a xlink:href="_command_queue_8cpp.html" target="_top" xlink:title="C:/Users/micho/Desktop\l/mt_engine/mt/CommandQueue.cpp">
<polygon fill="none" stroke="black" points="2360.11,-301.5 2360.11,-331.5 2533.11,-331.5 2533.11,-301.5 2360.11,-301.5"/>
<text text-anchor="start" x="2368.11" y="-319.5" font-family="Helvetica,sans-Serif" font-size="10.00">C:/Users/micho/Desktop</text>
<text text-anchor="middle" x="2446.61" y="-308.5" font-family="Helvetica,sans-Serif" font-size="10.00">/mt_engine/mt/CommandQueue.cpp</text>
</a>
</g>
</g>
<!-- Node32&#45;&gt;Node33 -->
<g id="edge49" class="edge"><title>Node32&#45;&gt;Node33</title>
<path fill="none" stroke="midnightblue" d="M2406.44,-361.024C2415.38,-351.34 2425.68,-340.174 2433.62,-331.577"/>
<polygon fill="midnightblue" stroke="midnightblue" points="2403.84,-358.674 2399.63,-368.396 2408.99,-363.422 2403.84,-358.674"/>
</g>
<!-- Node34&#45;&gt;Node6 -->
<g id="edge51" class="edge"><title>Node34&#45;&gt;Node6</title>
<path fill="none" stroke="midnightblue" d="M2633.64,-366.173C2808.83,-325.27 3280.22,-214.881 3672.61,-120 3680.5,-118.094 3688.81,-116.064 3696.98,-114.057"/>
<polygon fill="midnightblue" stroke="midnightblue" points="2632.71,-362.795 2623.77,-368.476 2634.3,-369.611 2632.71,-362.795"/>
</g>
<!-- Node34&#45;&gt;Node33 -->
<g id="edge52" class="edge"><title>Node34&#45;&gt;Node33</title>
<path fill="none" stroke="midnightblue" d="M2529.3,-363.435C2510.94,-353.237 2488.73,-340.897 2471.95,-331.577"/>
<polygon fill="midnightblue" stroke="midnightblue" points="2527.79,-366.599 2538.23,-368.396 2531.19,-360.48 2527.79,-366.599"/>
</g>
<!-- Node35&#45;&gt;Node10 -->
<g id="edge54" class="edge"><title>Node35&#45;&gt;Node10</title>
<path fill="none" stroke="midnightblue" d="M2382.4,-166.276C2444.91,-163.303 2530.92,-159.285 2606.61,-156 3003.45,-138.78 3105.98,-173.222 3499.61,-120 3510.25,-118.562 3521.5,-116.415 3532.23,-114.055"/>
<polygon fill="midnightblue" stroke="midnightblue" points="2382,-162.791 2372.18,-166.762 2382.34,-169.783 2382,-162.791"/>
</g>
</g>
</svg>
